<svg width="1111" height="454" xmlns="http://www.w3.org/2000/svg" xmlns:xlink="http://www.w3.org/1999/xlink" overflow="hidden"><defs><clipPath id="clip0"><rect x="56" y="196" width="1111" height="454"/></clipPath><clipPath id="clip1"><rect x="69" y="260" width="517" height="317"/></clipPath><clipPath id="clip2"><rect x="69" y="260" width="517" height="317"/></clipPath><clipPath id="clip3"><rect x="69" y="260" width="517" height="317"/></clipPath><clipPath id="clip4"><rect x="69" y="260" width="517" height="317"/></clipPath><clipPath id="clip5"><rect x="415" y="325" width="28" height="52"/></clipPath><clipPath id="clip6"><rect x="415" y="325" width="28" height="52"/></clipPath><clipPath id="clip7"><rect x="415" y="325" width="28" height="52"/></clipPath><clipPath id="clip8"><rect x="264" y="425" width="45" height="52"/></clipPath><clipPath id="clip9"><rect x="264" y="425" width="45" height="52"/></clipPath><clipPath id="clip10"><rect x="264" y="425" width="45" height="52"/></clipPath><clipPath id="clip11"><rect x="156" y="304" width="122" height="52"/></clipPath><clipPath id="clip12"><rect x="156" y="304" width="122" height="52"/></clipPath><clipPath id="clip13"><rect x="156" y="304" width="122" height="52"/></clipPath><clipPath id="clip14"><rect x="705" y="315" width="45" height="52"/></clipPath><clipPath id="clip15"><rect x="705" y="315" width="45" height="52"/></clipPath><clipPath id="clip16"><rect x="705" y="315" width="45" height="52"/></clipPath></defs><g clip-path="url(#clip0)" transform="translate(-56 -196)"><g clip-path="url(#clip1)"><g clip-path="url(#clip2)"><g clip-path="url(#clip3)"><g clip-path="url(#clip4)"><path d="M0 0 515.125 0 515.125 317 0 317Z" fill="#FFFFFF" transform="matrix(1.00364 0 0 1 69 260)"/><path d="M0 317 515.125 317M0 277.375 515.125 277.375M0 237.75 515.125 237.75M0 198.125 515.125 198.125M0 158.5 515.125 158.5M0 118.875 515.125 118.875M0 79.25 515.125 79.25M0 39.625 515.125 39.625M0 0 515.125 0M19.8125 0 19.8125 317M59.4375 0 59.4375 317M99.0625 0 99.0625 317M138.688 0 138.688 317M178.312 0 178.312 317M217.938 0 217.938 317M257.562 0 257.562 317M296.395 0 296.395 317M336.812 0 336.812 317M376.438 0 376.438 317M416.062 0 416.062 317M455.688 0 455.688 317M495.312 0 495.312 317" stroke="#D0D0D0" stroke-width="0.7925" fill="none" transform="matrix(1.00364 0 0 1 69 260)"/><path d="M257.562 0 257.562 317" stroke="#000000" stroke-width="0.7925" fill="none" transform="matrix(1.00364 0 0 1 69 260)"/><path d="M252.411 317 262.714 317M252.411 277.375 262.714 277.375M252.411 237.75 262.714 237.75M252.411 198.125 262.714 198.125M252.411 158.5 262.714 158.5M252.411 118.875 262.714 118.875M252.411 79.25 262.714 79.25M252.411 39.625 262.714 39.625M252.411 0 262.714 0" stroke="#000000" stroke-width="0.7925" fill="none" transform="matrix(1.00364 0 0 1 69 260)"/><path d="M0 158.5 515.125 158.5" stroke="#000000" stroke-width="0.7925" fill="none" transform="matrix(1.00364 0 0 1 69 260)"/><path d="M-19.8125 153.349-19.8125 163.651M19.8125 153.349 19.8125 163.651M59.4375 153.349 59.4375 163.651M99.0625 153.349 99.0625 163.651M138.688 153.349 138.688 163.651M178.312 153.349 178.312 163.651M217.938 153.349 217.938 163.651M257.562 153.349 257.562 163.651M297.188 153.349 297.188 163.651M336.812 153.349 336.812 163.651M376.438 153.349 376.438 163.651M416.062 153.349 416.062 163.651M455.688 153.349 455.688 163.651M495.312 153.349 495.312 163.651" stroke="#000000" stroke-width="0.7925" fill="none" transform="matrix(1.00364 0 0 1 69 260)"/></g></g></g></g><path d="M0.434873-0.900492 71.0602 33.2065C71.5575 33.4466 71.766 34.0445 71.5258 34.5418 71.2857 35.0392 70.6878 35.2476 70.1905 35.0075L-0.434873 0.900492C-0.932201 0.660318-1.14067 0.0624551-0.900492-0.434873-0.660318-0.932201-0.0624551-1.14067 0.434873-0.900492ZM71.1642 29.9252 81.4313 39.3255 67.6852 37.1291Z" fill="#E72200" transform="matrix(1 0 0 -1 327 418.325)"/><path d="M0 0 514.869 257.986" stroke="#000000" stroke-width="0.666667" stroke-miterlimit="8" fill="none" fill-rule="evenodd" transform="matrix(1 0 0 -1 639.5 548.486)"/><path d="M0 0 453.613 224.454" stroke="#D0D0D0" stroke-width="0.666667" stroke-miterlimit="8" fill="none" fill-rule="evenodd" transform="matrix(1 0 0 -1 638.5 486.955)"/><path d="M0 0 342.537 169.786" stroke="#D0D0D0" stroke-width="0.666667" stroke-miterlimit="8" fill="none" fill-rule="evenodd" transform="matrix(1 0 0 -1 633.5 433.286)"/><path d="M0 0 473.372 221.601" stroke="#D0D0D0" stroke-width="0.666667" stroke-miterlimit="8" fill="none" fill-rule="evenodd" transform="matrix(1 0 0 -1 680.5 578.101)"/><path d="M0 0 344.814 169.449" stroke="#D0D0D0" stroke-width="0.666667" stroke-miterlimit="8" fill="none" fill-rule="evenodd" transform="matrix(1 0 0 -1 815.5 577.949)"/><path d="M0 0 227.836 111.131" stroke="#D0D0D0" stroke-width="0.666667" stroke-miterlimit="8" fill="none" fill-rule="evenodd" transform="matrix(1 0 0 -1 925.5 580.631)"/><path d="M0 0 99.1116 48.2417" stroke="#D0D0D0" stroke-width="0.666667" stroke-miterlimit="8" fill="none" fill-rule="evenodd" transform="matrix(1 0 0 -1 1054.5 577.742)"/><path d="M0 0 221.41 109.854" stroke="#D0D0D0" stroke-width="0.666667" stroke-miterlimit="8" fill="none" fill-rule="evenodd" transform="matrix(1 0 0 -1 636.5 371.354)"/><path d="M0 0 96.2523 45.0588" stroke="#D0D0D0" stroke-width="0.666667" stroke-miterlimit="8" fill="none" fill-rule="evenodd" transform="matrix(1 0 0 -1 641.5 304.559)"/><path d="M735.5 260.5 1053.28 578.187" stroke="#000000" stroke-width="0.666667" stroke-miterlimit="8" fill="none" fill-rule="evenodd"/><path d="M855.5 263.5 1151.5 559.419" stroke="#D0D0D0" stroke-width="0.666667" stroke-miterlimit="8" fill="none" fill-rule="evenodd"/><path d="M638.5 279.5 937.559 578.474" stroke="#D0D0D0" stroke-width="0.666667" stroke-miterlimit="8" fill="none" fill-rule="evenodd"/><path d="M638.5 400.5 817.43 579.379" stroke="#D0D0D0" stroke-width="0.666667" stroke-miterlimit="8" fill="none" fill-rule="evenodd"/><path d="M634.5 515.5 696.038 577.02" stroke="#D0D0D0" stroke-width="0.666667" stroke-miterlimit="8" fill="none" fill-rule="evenodd"/><path d="M975.5 263.5 1161.69 449.636" stroke="#D0D0D0" stroke-width="0.666667" stroke-miterlimit="8" fill="none" fill-rule="evenodd"/><path d="M1091.5 260.5 1151.68 320.662" stroke="#D0D0D0" stroke-width="0.666667" stroke-miterlimit="8" fill="none" fill-rule="evenodd"/><path d="M0.450049-0.893004 67.4025 32.8492C67.8957 33.0977 68.0941 33.6991 67.8455 34.1922 67.597 34.6854 66.9957 34.8838 66.5025 34.6352L-0.450049 0.893004C-0.943241 0.644449-1.14156 0.0431434-0.893004-0.450049-0.644449-0.943241-0.0431434-1.14156 0.450049-0.893004ZM67.562 29.5701 77.6686 39.1428 63.9616 36.7141Z" fill="#E72200" transform="matrix(1 0 0 -1 894 419.143)"/><rect x="632.5" y="260.5" width="526" height="317" stroke="#000000" stroke-width="1.33333" stroke-miterlimit="8" fill="none"/><rect x="68.5001" y="260.5" width="525" height="316" stroke="#000000" stroke-width="1.33333" stroke-miterlimit="8" fill="none"/><path d="M0.972989-0.230853 4.20493 13.391C4.33242 13.9284 4.00016 14.4673 3.46279 14.5948 2.92542 14.7223 2.38645 14.3901 2.25895 13.8527L-0.972989 0.230853C-1.10049-0.306514-0.76822-0.845492-0.230853-0.972989 0.306514-1.10049 0.845492-0.76822 0.972989-0.230853ZM6.05175 21.1749 9.28369 34.7967C9.41118 35.3341 9.07892 35.8731 8.54155 36.0006 8.00419 36.1281 7.46521 35.7958 7.33771 35.2584L4.10577 21.6366C3.97828 21.0992 4.31054 20.5603 4.84791 20.4328 5.38527 20.3053 5.92425 20.6375 6.05175 21.1749ZM11.1305 42.5806 14.3624 56.2025C14.4899 56.7399 14.1577 57.2788 13.6203 57.4063 13.0829 57.5338 12.544 57.2016 12.4165 56.6642L9.18453 43.0424C9.05704 42.505 9.3893 41.966 9.92667 41.8385 10.464 41.711 11.003 42.0433 11.1305 42.5806ZM16.2093 63.9864 19.4412 77.6082C19.5687 78.1456 19.2364 78.6846 18.6991 78.8121 18.1617 78.9396 17.6227 78.6073 17.4952 78.07L14.2633 64.4481C14.1358 63.9107 14.4681 63.3718 15.0054 63.2443 15.5428 63.1168 16.0818 63.449 16.2093 63.9864ZM21.288 85.3922 24.52 99.014C24.6475 99.5514 24.3152 100.09 23.7778 100.218 23.2405 100.345 22.7015 100.013 22.574 99.4757L19.3421 85.8539C19.2146 85.3165 19.5468 84.7775 20.0842 84.65 20.6216 84.5225 21.1605 84.8548 21.288 85.3922ZM26.3668 106.798 29.5987 120.42C29.7262 120.957 29.394 121.496 28.8566 121.624 28.3192 121.751 27.7803 121.419 27.6528 120.881L24.4208 107.26C24.2933 106.722 24.6256 106.183 25.163 106.056 25.7003 105.928 26.2393 106.261 26.3668 106.798ZM31.4456 128.204 34.6775 141.826C34.805 142.363 34.4727 142.902 33.9354 143.029 33.398 143.157 32.859 142.825 32.7315 142.287L29.4996 128.665C29.3721 128.128 29.7043 127.589 30.2417 127.462 30.7791 127.334 31.3181 127.666 31.4456 128.204ZM38.2034 143.691 37.3895 157.588 30.4195 145.538Z" fill="#FFC000" transform="matrix(1 0 0 -1 328 418.588)"/><path d="M894.76 421.314 750.391 384.904C749.856 384.769 749.531 384.225 749.666 383.69 749.801 383.154 750.345 382.83 750.88 382.965L895.25 419.375C895.785 419.51 896.11 420.053 895.975 420.589 895.84 421.124 895.296 421.449 894.76 421.314ZM750.95 388.139 739 381 752.907 380.382Z" fill="#FFC000"/><path d="M208.344 224.333 212.162 224.333C215.912 224.333 218 222.475 218 220.223 218 217.861 215.867 216.002 212.162 216.002L203 216.002 203 216.943 205.38 216.943 205.38 230.062 203 230.062 203 231.002C203.651 230.959 206.054 230.959 206.862 230.959 207.671 230.959 210.073 230.959 210.725 231.002L210.725 230.062 208.344 230.062 208.344 224.333ZM211.353 216.943C214.834 216.943 214.834 218.736 214.834 220.223 214.834 221.666 214.834 223.502 211.353 223.502L208.232 223.502 208.232 216.943 211.353 216.943Z" fill-rule="evenodd"/><path d="M239.316 223.832C239.616 223.832 240.002 223.832 240.002 223.429 240.002 223.003 239.637 223.003 239.316 223.003L226.688 223.003C226.388 223.003 226.002 223.003 226.002 223.406 226.002 223.832 226.366 223.832 226.688 223.832L239.316 223.832ZM239.316 228.003C239.616 228.003 240.002 228.003 240.002 227.599 240.002 227.173 239.637 227.173 239.316 227.173L226.688 227.173C226.388 227.173 226.002 227.173 226.002 227.577 226.002 228.003 226.366 228.003 226.688 228.003L239.316 228.003Z" fill-rule="evenodd"/><path d="M253.003 252 258.003 252 258.003 250.808 254.049 250.808 254.049 201.192 258.003 201.192 258.003 200 253.003 200 253.003 252Z" fill-rule="evenodd"/><path d="M268.004 214.212 267.554 214.212C267.493 214.595 267.329 215.836 267.124 216.197 266.981 216.4 265.815 216.4 265.201 216.4L261.416 216.4C261.968 215.881 263.216 214.438 263.749 213.896 266.859 210.738 268.004 209.565 268.004 207.332 268.004 204.738 266.142 203.001 263.769 203.001 261.396 203.001 260.004 205.234 260.004 207.174 260.004 208.325 260.904 208.325 260.966 208.325 261.396 208.325 261.928 207.986 261.928 207.265 261.928 206.633 261.539 206.204 260.966 206.204 260.782 206.204 260.741 206.204 260.679 206.227 261.068 204.693 262.173 203.656 263.503 203.656 265.242 203.656 266.306 205.257 266.306 207.332 266.306 209.25 265.303 210.919 264.137 212.362L260.004 217.46 260.004 218.001 267.472 218.001 268.004 214.212Z" fill="#E13455" fill-rule="evenodd"/><path d="M298.262 213.002C298.624 213.002 299.007 213.002 299.007 212.502 299.007 212.002 298.624 212.002 298.262 212.002L286.751 212.002C286.389 212.002 286.006 212.002 286.006 212.502 286.006 213.002 286.389 213.002 286.751 213.002L298.262 213.002Z" fill="#00B0F0" fill-rule="evenodd"/><path d="M306.331 203.543C306.331 203.024 306.331 203.001 305.892 203.001 305.365 203.61 304.268 204.445 302.008 204.445L302.008 205.099C302.513 205.099 303.61 205.099 304.817 204.513L304.817 216.265C304.817 217.077 304.751 217.347 302.82 217.347L302.14 217.347 302.14 218.001C302.732 217.956 304.861 217.956 305.585 217.956 306.309 217.956 308.416 217.956 309.008 218.001L309.008 217.347 308.328 217.347C306.397 217.347 306.331 217.077 306.331 216.265L306.331 203.543Z" fill="#00B0F0" fill-rule="evenodd"/><path d="M264.328 230.545C264.328 230.026 264.328 230.004 263.889 230.004 263.362 230.613 262.265 231.447 260.005 231.447L260.005 232.101C260.509 232.101 261.607 232.101 262.813 231.515L262.813 243.267C262.813 244.079 262.748 244.35 260.817 244.35L260.136 244.35 260.136 245.004C260.729 244.959 262.857 244.959 263.581 244.959 264.306 244.959 266.412 244.959 267.005 245.004L267.005 244.35 266.324 244.35C264.393 244.35 264.328 244.079 264.328 243.267L264.328 230.545Z" fill="#E13455" fill-rule="evenodd"/><path d="M298.33 230.545C298.33 230.026 298.33 230.004 297.891 230.004 297.365 230.613 296.267 231.447 294.007 231.447L294.007 232.101C294.512 232.101 295.609 232.101 296.816 231.515L296.816 243.267C296.816 244.079 296.75 244.35 294.819 244.35L294.139 244.35 294.139 245.004C294.732 244.959 296.86 244.959 297.584 244.959 298.308 244.959 300.415 244.959 301.007 245.004L301.007 244.35 300.327 244.35C298.396 244.35 298.33 244.079 298.33 243.267L298.33 230.545Z" fill="#00B0F0" fill-rule="evenodd"/><path d="M315.754 250.808 311.009 250.808 311.009 252 317.009 252 317.009 200 311.009 200 311.009 201.192 315.754 201.192 315.754 250.808Z" fill-rule="evenodd"/><g clip-path="url(#clip5)"><g clip-path="url(#clip6)"><g clip-path="url(#clip7)"><path d="M420.408 376.948 426.097 376.948 426.097 375.758 421.598 375.758 421.598 326.242 426.097 326.242 426.097 325.052 420.408 325.052 420.408 376.948Z" fill="#E13455"/><path d="M435.935 339.265 435.46 339.265C435.395 339.632 435.222 340.822 435.005 341.168 434.854 341.363 433.621 341.363 432.972 341.363L428.97 341.363C429.554 340.865 430.873 339.481 431.436 338.962 434.724 335.933 435.935 334.808 435.935 332.667 435.935 330.179 433.967 328.513 431.458 328.513 428.948 328.513 427.477 330.655 427.477 332.515 427.477 333.619 428.429 333.619 428.494 333.619 428.948 333.619 429.511 333.294 429.511 332.602 429.511 331.996 429.1 331.585 428.494 331.585 428.299 331.585 428.256 331.585 428.191 331.607 428.602 330.136 429.77 329.141 431.176 329.141 433.015 329.141 434.14 330.677 434.14 332.667 434.14 334.505 433.08 336.106 431.847 337.491L427.477 342.38 427.477 342.899 435.373 342.899 435.935 339.265Z" fill="#E13455"/><path d="M432.647 356.073C432.647 355.575 432.647 355.554 432.215 355.554 431.695 356.138 430.614 356.938 428.386 356.938L428.386 357.566C428.883 357.566 429.965 357.566 431.155 357.003L431.155 368.274C431.155 369.052 431.09 369.312 429.186 369.312L428.516 369.312 428.516 369.939C429.1 369.896 431.198 369.896 431.912 369.896 432.626 369.896 434.702 369.896 435.286 369.939L435.286 369.312 434.616 369.312C432.712 369.312 432.647 369.052 432.647 368.274L432.647 356.073Z" fill="#E13455"/><path d="M441.81 375.758 437.311 375.758 437.311 376.948 443 376.948 443 325.052 437.311 325.052 437.311 326.242 441.81 326.242 441.81 375.758Z" fill="#E13455"/></g></g></g><g clip-path="url(#clip8)"><g clip-path="url(#clip9)"><g clip-path="url(#clip10)"><path d="M269.462 477 275.162 477 275.162 475.808 270.654 475.808 270.654 426.192 275.162 426.192 275.162 425 269.462 425 269.462 477Z" fill="#00B0F0"/><path d="M289.767 437.897C290.135 437.897 290.526 437.897 290.526 437.464 290.526 437.03 290.135 437.03 289.767 437.03L278.04 437.03C277.672 437.03 277.282 437.03 277.282 437.464 277.282 437.897 277.672 437.897 278.04 437.897L289.767 437.897Z" fill="#00B0F0"/><path d="M298.584 428.988C298.584 428.49 298.584 428.468 298.151 428.468 297.63 429.054 296.547 429.856 294.314 429.856L294.314 430.484C294.813 430.484 295.896 430.484 297.089 429.921L297.089 441.214C297.089 441.994 297.023 442.254 295.116 442.254L294.444 442.254 294.444 442.883C295.029 442.839 297.132 442.839 297.847 442.839 298.562 442.839 300.643 442.839 301.229 442.883L301.229 442.254 300.557 442.254C298.649 442.254 298.584 441.994 298.584 441.214L298.584 428.988Z" fill="#00B0F0"/><path d="M290.155 456.083C290.155 455.585 290.155 455.563 289.721 455.563 289.201 456.148 288.117 456.95 285.885 456.95L285.885 457.579C286.383 457.579 287.467 457.579 288.659 457.015L288.659 468.308C288.659 469.089 288.594 469.349 286.687 469.349L286.015 469.349 286.015 469.977C286.6 469.934 288.702 469.934 289.418 469.934 290.133 469.934 292.214 469.934 292.799 469.977L292.799 469.349 292.127 469.349C290.22 469.349 290.155 469.089 290.155 468.308L290.155 456.083Z" fill="#00B0F0"/><path d="M307.765 475.808 303.257 475.808 303.257 477 308.958 477 308.958 425 303.257 425 303.257 426.192 307.765 426.192 307.765 475.808Z" fill="#00B0F0"/></g></g></g><g clip-path="url(#clip11)"><g clip-path="url(#clip12)"><g clip-path="url(#clip13)"><path d="M167.529 332.671 162.338 321.035C162.143 320.58 161.948 320.58 161.494 320.58L156.887 320.58 156.887 321.511 159.18 321.511 159.18 333.839C159.18 334.315 159.158 334.337 158.596 334.423 158.206 334.467 157.774 334.488 157.384 334.488L156.887 334.488 156.887 335.418C157.384 335.375 159.072 335.375 159.677 335.375 160.283 335.375 161.992 335.375 162.489 335.418L162.489 334.488 161.992 334.488C161.408 334.488 161.364 334.488 160.845 334.423 160.218 334.337 160.196 334.315 160.196 333.839L160.196 321.77 160.218 321.77 166.101 334.964C166.209 335.202 166.339 335.418 166.707 335.418 167.074 335.418 167.204 335.202 167.312 334.964L173.304 321.511 173.325 321.511 173.325 334.488 171.033 334.488 171.033 335.418C171.617 335.375 173.866 335.375 174.602 335.375 175.337 335.375 177.587 335.375 178.171 335.418L178.171 334.488 175.878 334.488 175.878 321.511 178.171 321.511 178.171 320.58 173.563 320.58C173.109 320.58 172.914 320.58 172.72 321.035L167.529 332.671Z"/><path d="M199.69 328.41C199.993 328.41 200.382 328.41 200.382 328.021 200.382 327.61 200.014 327.61 199.69 327.61L186.95 327.61C186.647 327.61 186.258 327.61 186.258 327.999 186.258 328.41 186.626 328.41 186.95 328.41L199.69 328.41ZM199.69 332.434C199.993 332.434 200.382 332.434 200.382 332.044 200.382 331.633 200.014 331.633 199.69 331.633L186.95 331.633C186.647 331.633 186.258 331.633 186.258 332.023 186.258 332.434 186.626 332.434 186.95 332.434L199.69 332.434Z"/><path d="M212.978 355.945 218.666 355.945 218.666 354.755 214.167 354.755 214.167 305.245 218.666 305.245 218.666 304.055 212.978 304.055 212.978 355.945Z"/><path d="M228.676 314.978C228.676 313.183 228.568 311.431 227.789 309.787 226.903 307.992 225.345 307.516 224.285 307.516 223.031 307.516 221.495 308.143 220.695 309.939 220.089 311.301 219.873 312.642 219.873 314.978 219.873 317.076 220.024 318.655 220.803 320.191 221.647 321.835 223.139 322.354 224.264 322.354 226.146 322.354 227.227 321.229 227.854 319.975 228.633 318.353 228.676 316.233 228.676 314.978ZM224.264 321.921C223.572 321.921 222.166 321.532 221.755 319.174 221.517 317.877 221.517 316.233 221.517 314.719 221.517 312.945 221.517 311.345 221.863 310.068 222.231 308.619 223.334 307.949 224.264 307.949 225.086 307.949 226.34 308.446 226.751 310.306 227.032 311.539 227.032 313.248 227.032 314.719 227.032 316.168 227.032 317.812 226.794 319.131 226.383 321.51 225.021 321.921 224.264 321.921Z"/><path d="M258.85 316.925C259.218 316.925 259.607 316.925 259.607 316.492 259.607 316.06 259.218 316.06 258.85 316.06L247.149 316.06C246.781 316.06 246.391 316.06 246.391 316.492 246.391 316.925 246.781 316.925 247.149 316.925L258.85 316.925Z"/><path d="M267.648 308.035C267.648 307.538 267.648 307.516 267.216 307.516 266.697 308.1 265.615 308.9 263.387 308.9L263.387 309.528C263.885 309.528 264.966 309.528 266.156 308.965L266.156 320.234C266.156 321.013 266.091 321.273 264.188 321.273L263.517 321.273 263.517 321.9C264.101 321.857 266.199 321.857 266.913 321.857 267.627 321.857 269.703 321.857 270.287 321.9L270.287 321.273 269.617 321.273C267.713 321.273 267.648 321.013 267.648 320.234L267.648 308.035Z"/><path d="M225.215 335.072C225.215 334.575 225.215 334.553 224.783 334.553 224.264 335.137 223.182 335.938 220.954 335.938L220.954 336.565C221.452 336.565 222.533 336.565 223.723 336.002L223.723 347.271C223.723 348.05 223.658 348.31 221.755 348.31L221.084 348.31 221.084 348.937C221.668 348.894 223.766 348.894 224.48 348.894 225.194 348.894 227.27 348.894 227.854 348.937L227.854 348.31 227.184 348.31C225.28 348.31 225.215 348.05 225.215 347.271L225.215 335.072Z"/><path d="M262.698 342.016C262.698 340.22 262.59 338.468 261.811 336.824 260.924 335.029 259.367 334.553 258.307 334.553 257.052 334.553 255.517 335.181 254.716 336.976 254.111 338.338 253.894 339.68 253.894 342.016 253.894 344.114 254.046 345.693 254.825 347.228 255.668 348.872 257.161 349.391 258.285 349.391 260.167 349.391 261.249 348.266 261.876 347.012 262.654 345.39 262.698 343.27 262.698 342.016ZM258.285 348.959C257.593 348.959 256.187 348.569 255.776 346.212 255.538 344.914 255.538 343.27 255.538 341.756 255.538 339.982 255.538 338.382 255.884 337.106 256.252 335.656 257.355 334.986 258.285 334.986 259.107 334.986 260.362 335.483 260.773 337.343 261.054 338.576 261.054 340.285 261.054 341.756 261.054 343.205 261.054 344.849 260.816 346.168 260.405 348.548 259.042 348.959 258.285 348.959Z"/><path d="M276.811 354.755 272.312 354.755 272.312 355.945 278.001 355.945 278.001 304.055 272.312 304.055 272.312 305.245 276.811 305.245 276.811 354.755Z"/></g></g></g><g clip-path="url(#clip14)"><g clip-path="url(#clip15)"><g clip-path="url(#clip16)"><path d="M710.462 367 716.162 367 716.162 365.808 711.654 365.808 711.654 316.192 716.162 316.192 716.162 315 710.462 315 710.462 367Z" fill="#FF9900"/><path d="M730.767 327.897C731.135 327.897 731.525 327.897 731.525 327.464 731.525 327.03 731.135 327.03 730.767 327.03L719.04 327.03C718.672 327.03 718.282 327.03 718.282 327.464 718.282 327.897 718.672 327.897 719.04 327.897L730.767 327.897Z" fill="#FF9900"/><path d="M739.584 318.988C739.584 318.49 739.584 318.468 739.151 318.468 738.63 319.054 737.547 319.856 735.314 319.856L735.314 320.484C735.812 320.484 736.896 320.484 738.089 319.921L738.089 331.214C738.089 331.994 738.023 332.254 736.116 332.254L735.444 332.254 735.444 332.883C736.029 332.839 738.132 332.839 738.847 332.839 739.562 332.839 741.643 332.839 742.229 332.883L742.229 332.254 741.557 332.254C739.649 332.254 739.584 331.994 739.584 331.214L739.584 318.988Z" fill="#FF9900"/><path d="M734.449 356.336 733.972 356.336C733.907 356.704 733.734 357.896 733.517 358.243 733.366 358.438 732.13 358.438 731.48 358.438L727.47 358.438C728.055 357.94 729.377 356.552 729.941 356.032 733.236 352.998 734.449 351.871 734.449 349.725 734.449 347.232 732.477 345.563 729.962 345.563 727.448 345.563 725.974 347.709 725.974 349.573 725.974 350.678 726.928 350.678 726.993 350.678 727.448 350.678 728.012 350.353 728.012 349.66 728.012 349.053 727.6 348.641 726.993 348.641 726.798 348.641 726.755 348.641 726.689 348.663 727.101 347.189 728.272 346.192 729.681 346.192 731.523 346.192 732.65 347.73 732.65 349.725 732.65 351.567 731.588 353.171 730.353 354.558L725.974 359.457 725.974 359.977 733.886 359.977 734.449 356.336Z" fill="#FF9900"/><path d="M748.766 365.808 744.257 365.808 744.257 367 749.958 367 749.958 315 744.257 315 744.257 316.192 748.766 316.192 748.766 365.808Z" fill="#FF9900"/></g></g></g><path d="M300.879 410.495 300.422 406.461 300.753 402.486 301.837 398.658 303.615 395.168 306 392.032 308.932 389.441 312.379 387.347 316.409 386.472 316.55 387.124 312.575 387.987 312.678 387.946 309.304 389.995 309.352 389.96 306.466 392.51 306.511 392.462 304.164 395.548 304.196 395.498 302.445 398.931 302.469 398.871 301.403 402.637 301.414 402.574 301.089 406.483 301.088 406.418 301.541 410.42ZM315.282 382.755 328.473 387.202 315.013 390.751Z"/><text font-family="Century Schoolbook,Century Schoolbook_MSFontService,sans-serif" font-weight="400" font-size="24" transform="translate(71.0089 615)">Our Language<tspan font-size="24" x="855.466" y="7">Jennifer’s Language</tspan><tspan font-family="SimSun,SimSun_MSFontService,sans-serif" font-size="21" x="266.323" y="-383">概念上的网格空间变换</tspan></text><path d="M574.745 250.102 573.558 246.415 572.737 242.633 572.294 238.851 572.229 235.131C572.229 235.114 572.23 235.097 572.232 235.08L573.232 227.767C573.235 227.746 573.24 227.724 573.247 227.704L575.622 220.829C575.629 220.809 575.638 220.79 575.648 220.772L579.273 214.459C579.284 214.44 579.297 214.422 579.312 214.405L584.187 208.843C584.201 208.827 584.216 208.813 584.233 208.8L590.17 204.175C590.188 204.161 590.208 204.148 590.228 204.138L597.228 200.701C597.243 200.693 597.259 200.687 597.274 200.682L601.024 199.495 604.805 198.674 608.65 198.231 612.438 198.229 619.857 199.232C619.878 199.235 619.898 199.24 619.917 199.246L626.917 201.559C626.938 201.565 626.957 201.574 626.976 201.585L633.414 205.21C633.432 205.22 633.45 205.233 633.467 205.247L639.092 210.059C639.108 210.073 639.123 210.089 639.137 210.106L643.762 215.981C643.775 215.998 643.787 216.017 643.797 216.036L647.297 222.911C647.305 222.927 647.312 222.942 647.317 222.959L648.504 226.584 649.326 230.303 649.769 234.086 649.833 237.932C649.834 237.952 649.832 237.971 649.829 237.99L649.343 241.016C649.313 241.198 649.142 241.322 648.961 241.293 648.779 241.263 648.655 241.092 648.684 240.911L649.171 237.885 649.167 237.943 649.106 234.164 648.675 230.447 647.871 226.791 646.683 223.166 646.703 223.214 643.203 216.339 643.238 216.394 638.613 210.519 638.658 210.566 633.033 205.753 633.086 205.79 626.649 202.165 626.708 202.192 619.708 199.879 619.768 199.893 612.438 198.896 608.726 198.894 604.946 199.326 601.226 200.13 597.476 201.318 597.522 201.299 590.522 204.737 590.58 204.701 584.642 209.326 584.688 209.282 579.813 214.845 579.852 214.791 576.227 221.104 576.253 221.046 573.878 227.921 573.893 227.858 572.893 235.17 572.896 235.119 572.956 238.774 573.388 242.492 574.192 246.21 575.38 249.898C575.436 250.073 575.34 250.261 575.165 250.317 574.99 250.374 574.802 250.277 574.745 250.102ZM653.222 240.7 645.938 252.563 645.489 238.649Z"/><path d="M649.318 593.337 650.505 597.087 651.326 600.931 651.769 604.711 651.771 608.563 650.768 615.982C650.765 616.005 650.76 616.027 650.752 616.048L648.315 622.986C648.308 623.005 648.299 623.023 648.289 623.041L644.602 629.478C644.591 629.497 644.579 629.515 644.564 629.531L639.689 635.156C639.675 635.172 639.659 635.187 639.642 635.201L633.705 639.826C633.687 639.84 633.667 639.852 633.647 639.862L626.647 643.299C626.632 643.307 626.617 643.313 626.601 643.318L622.851 644.505 619.007 645.326 615.226 645.769 611.375 645.771 603.955 644.768C603.933 644.765 603.911 644.76 603.89 644.752L596.89 642.315C596.871 642.308 596.851 642.299 596.833 642.289L590.458 638.601C590.44 638.591 590.423 638.578 590.407 638.564L584.782 633.689C584.765 633.675 584.75 633.659 584.737 633.642L580.112 627.705C580.098 627.687 580.086 627.667 580.076 627.647L576.638 620.647C576.629 620.628 576.621 620.608 576.616 620.587L574.616 613.212C574.61 613.19 574.606 613.167 574.605 613.144L574.167 605.582C574.166 605.555 574.167 605.528 574.172 605.502L574.735 602.45C574.769 602.269 574.942 602.149 575.123 602.182 575.305 602.216 575.424 602.39 575.391 602.571L574.828 605.623 574.833 605.543 575.27 613.106 575.259 613.038 577.259 620.413 577.237 620.353 580.674 627.353 580.638 627.295 585.263 633.233 585.218 633.186 590.843 638.061 590.792 638.024 597.167 641.712 597.11 641.685 604.11 644.123 604.045 644.107 611.375 645.104 615.149 645.106 618.868 644.674 622.649 643.87 626.399 642.682 626.353 642.701 633.353 639.263 633.295 639.3 639.233 634.675 639.186 634.719 644.061 629.094 644.023 629.147 647.711 622.709 647.686 622.765 650.123 615.827 650.107 615.893 651.104 608.563 651.106 604.789 650.674 601.07 649.87 597.288 648.682 593.538C648.627 593.363 648.724 593.175 648.899 593.12 649.075 593.064 649.262 593.161 649.318 593.337ZM570.858 602.824 578 590.875 578.615 604.782Z"/><text font-family="SimSun,SimSun_MSFontService,sans-serif" font-weight="400" font-size="21" transform="translate(285.448 617)">数值上的语义变换<tspan font-size="16" x="0" y="20">修正我们语言对</tspan><tspan font-size="16" x="112" y="20">Jennifer</tspan><tspan font-size="16" x="176" y="20">的语言的误解</tspan></text><path d="M685.988 612.333 689.551 612.333C693.051 612.333 695 610.475 695 608.223 695 605.861 693.009 604.002 689.551 604.002L681 604.002 681 604.943 683.222 604.943 683.222 618.062 681 618.062 681 619.002C681.608 618.959 683.85 618.959 684.605 618.959 685.359 618.959 687.602 618.959 688.21 619.002L688.21 618.062 685.988 618.062 685.988 612.333ZM688.796 604.943C692.045 604.943 692.045 606.736 692.045 608.223 692.045 609.666 692.045 611.502 688.796 611.502L685.883 611.502 685.883 604.943 688.796 604.943Z" fill-rule="evenodd"/><path d="M717.316 611.832C717.616 611.832 718.002 611.832 718.002 611.429 718.002 611.003 717.637 611.003 717.316 611.003L704.688 611.003C704.388 611.003 704.002 611.003 704.002 611.406 704.002 611.832 704.366 611.832 704.688 611.832L717.316 611.832ZM717.316 616.003C717.616 616.003 718.002 616.003 718.002 615.599 718.002 615.173 717.637 615.173 717.316 615.173L704.688 615.173C704.388 615.173 704.002 615.173 704.002 615.577 704.002 616.003 704.366 616.003 704.688 616.003L717.316 616.003Z" fill-rule="evenodd"/><path d="M730.004 640 736.004 640 736.004 638.808 731.259 638.808 731.259 589.192 736.004 589.192 736.004 588 730.004 588 730.004 640Z" fill-rule="evenodd"/><path d="M746.005 602.212 745.498 602.212C745.429 602.595 745.245 603.836 745.015 604.197 744.854 604.4 743.542 604.4 742.851 604.4L738.593 604.4C739.215 603.881 740.619 602.438 741.217 601.896 744.716 598.738 746.005 597.565 746.005 595.332 746.005 592.738 743.91 591.001 741.24 591.001 738.57 591.001 737.005 593.234 737.005 595.174 737.005 596.325 738.018 596.325 738.087 596.325 738.57 596.325 739.169 595.986 739.169 595.265 739.169 594.633 738.731 594.204 738.087 594.204 737.88 594.204 737.833 594.204 737.764 594.227 738.202 592.693 739.445 591.656 740.941 591.656 742.897 591.656 744.094 593.257 744.094 595.332 744.094 597.25 742.966 598.919 741.654 600.362L737.005 605.46 737.005 606.001 745.406 606.001 746.005 602.212Z" fill="#E13455" fill-rule="evenodd"/><path d="M775.262 601.002C775.624 601.002 776.007 601.002 776.007 600.502 776.007 600.002 775.624 600.002 775.262 600.002L763.751 600.002C763.389 600.002 763.006 600.002 763.006 600.502 763.006 601.002 763.389 601.002 763.751 601.002L775.262 601.002Z" fill="#00B0F0" fill-rule="evenodd"/><path d="M784.331 591.543C784.331 591.024 784.331 591.001 783.892 591.001 783.365 591.61 782.268 592.445 780.008 592.445L780.008 593.099C780.513 593.099 781.61 593.099 782.817 592.513L782.817 604.265C782.817 605.077 782.751 605.347 780.82 605.347L780.14 605.347 780.14 606.001C780.732 605.956 782.861 605.956 783.585 605.956 784.309 605.956 786.416 605.956 787.008 606.001L787.008 605.347 786.328 605.347C784.397 605.347 784.331 605.077 784.331 604.265L784.331 591.543Z" fill="#00B0F0" fill-rule="evenodd"/><path d="M742.328 618.545C742.328 618.026 742.328 618.004 741.889 618.004 741.362 618.613 740.265 619.447 738.005 619.447L738.005 620.101C738.509 620.101 739.607 620.101 740.813 619.515L740.813 631.267C740.813 632.079 740.748 632.35 738.817 632.35L738.136 632.35 738.136 633.004C738.729 632.959 740.857 632.959 741.581 632.959 742.306 632.959 744.412 632.959 745.005 633.004L745.005 632.35 744.324 632.35C742.393 632.35 742.328 632.079 742.328 631.267L742.328 618.545Z" fill="#E13455" fill-rule="evenodd"/><path d="M776.33 618.545C776.33 618.026 776.33 618.004 775.891 618.004 775.365 618.613 774.268 619.447 772.007 619.447L772.007 620.101C772.512 620.101 773.609 620.101 774.816 619.515L774.816 631.267C774.816 632.079 774.75 632.35 772.819 632.35L772.139 632.35 772.139 633.004C772.732 632.959 774.86 632.959 775.584 632.959 776.308 632.959 778.415 632.959 779.007 633.004L779.007 632.35 778.327 632.35C776.396 632.35 776.33 632.079 776.33 631.267L776.33 618.545Z" fill="#00B0F0" fill-rule="evenodd"/><path d="M793.754 638.808 789.009 638.808 789.009 640 795.009 640 795.009 588 789.009 588 789.009 589.192 793.754 589.192 793.754 638.808Z" fill-rule="evenodd"/><path d="M327.036 420.08 178.398 382.883C177.862 382.749 177.537 382.206 177.671 381.67 177.805 381.135 178.348 380.809 178.884 380.943L327.522 418.14C328.058 418.274 328.383 418.817 328.249 419.352 328.115 419.888 327.572 420.214 327.036 420.08ZM178.963 386.117 167 379 180.906 378.357Z" fill="#FFC000"/><path d="M0.972989-0.230853 4.20493 13.391C4.33242 13.9284 4.00016 14.4673 3.46279 14.5948 2.92542 14.7223 2.38645 14.3901 2.25895 13.8527L-0.972989 0.230853C-1.10049-0.306514-0.76822-0.845492-0.230853-0.972989 0.306514-1.10049 0.845492-0.76822 0.972989-0.230853ZM6.05175 21.1749 9.28369 34.7967C9.41118 35.3341 9.07892 35.8731 8.54155 36.0006 8.00419 36.1281 7.46521 35.7958 7.33771 35.2584L4.10577 21.6366C3.97828 21.0992 4.31054 20.5603 4.84791 20.4328 5.38527 20.3053 5.92425 20.6375 6.05175 21.1749ZM11.1305 42.5806 14.3624 56.2025C14.4899 56.7399 14.1577 57.2788 13.6203 57.4063 13.0829 57.5338 12.544 57.2016 12.4165 56.6642L9.18453 43.0424C9.05704 42.505 9.3893 41.966 9.92667 41.8385 10.464 41.711 11.003 42.0433 11.1305 42.5806ZM16.2093 63.9864 19.4412 77.6082C19.5687 78.1456 19.2364 78.6846 18.6991 78.8121 18.1617 78.9396 17.6227 78.6073 17.4952 78.07L14.2633 64.4481C14.1358 63.9107 14.4681 63.3718 15.0054 63.2443 15.5428 63.1168 16.0818 63.449 16.2093 63.9864ZM21.288 85.3922 24.52 99.014C24.6475 99.5514 24.3152 100.09 23.7778 100.218 23.2405 100.345 22.7015 100.013 22.574 99.4757L19.3421 85.8539C19.2146 85.3165 19.5468 84.7775 20.0842 84.65 20.6216 84.5225 21.1605 84.8548 21.288 85.3922ZM26.3668 106.798 29.5987 120.42C29.7262 120.957 29.394 121.496 28.8566 121.624 28.3192 121.751 27.7803 121.419 27.6528 120.881L24.4208 107.26C24.2933 106.722 24.6256 106.183 25.163 106.056 25.7003 105.928 26.2393 106.261 26.3668 106.798ZM31.4456 128.204 34.6775 141.826C34.805 142.363 34.4727 142.902 33.9354 143.029 33.398 143.157 32.859 142.825 32.7315 142.287L29.4996 128.665C29.3721 128.128 29.7043 127.589 30.2417 127.462 30.7791 127.334 31.3181 127.666 31.4456 128.204ZM38.2034 143.691 37.3895 157.588 30.4195 145.538Z" fill="#FFC000" transform="matrix(1 0 0 -1 895 418.588)"/><path d="M869.573 409.733 869.117 405.698 869.447 401.724 870.531 397.896 872.31 394.406 874.694 391.27 877.627 388.679 881.074 386.585 885.104 385.71 885.245 386.362 881.27 387.225 881.372 387.184 877.999 389.233 878.046 389.198 875.161 391.748 875.205 391.7 872.858 394.786 872.89 394.736 871.14 398.169 871.164 398.109 870.097 401.875 870.109 401.811 869.784 405.721 869.783 405.656 870.236 409.658ZM883.976 381.993 897.168 386.44 883.707 389.989Z"/><path d="M326.284 419.011 297.496 388.424C297.118 388.022 297.137 387.389 297.539 387.01 297.941 386.632 298.574 386.651 298.953 387.053L327.74 417.64C328.119 418.042 328.1 418.675 327.697 419.054 327.295 419.432 326.662 419.413 326.284 419.011ZM296.225 391.451 290 379 302.051 385.968Z" fill="#00B0F0"/><path d="M893.658 420.396 861.741 388.223C861.352 387.831 861.355 387.198 861.747 386.809 862.139 386.42 862.772 386.423 863.161 386.815L895.078 418.987C895.467 419.379 895.464 420.013 895.072 420.402 894.68 420.791 894.047 420.788 893.658 420.396ZM860.551 391.283 854 379 866.23 385.649Z" fill="#00B0F0"/><path d="M891 420.5C891 418.015 892.791 416 895 416 897.209 416 899 418.015 899 420.5 899 422.985 897.209 425 895 425 892.791 425 891 422.985 891 420.5Z" fill-rule="evenodd"/><path d="M323 418.5C323 416.015 325.015 414 327.5 414 329.985 414 332 416.015 332 418.5 332 420.985 329.985 423 327.5 423 325.015 423 323 420.985 323 418.5Z" fill-rule="evenodd"/></g></svg>