<svg width="3617" height="1310" xmlns="http://www.w3.org/2000/svg" xmlns:xlink="http://www.w3.org/1999/xlink" overflow="hidden"><defs><clipPath id="clip0"><rect x="289" y="903" width="3617" height="1310"/></clipPath><clipPath id="clip1"><rect x="291" y="702" width="234" height="617"/></clipPath><clipPath id="clip2"><rect x="524" y="702" width="488" height="617"/></clipPath><clipPath id="clip3"><rect x="1011" y="702" width="2484" height="617"/></clipPath><clipPath id="clip4"><rect x="3494" y="702" width="407" height="617"/></clipPath><clipPath id="clip5"><rect x="524" y="874" width="488" height="617"/></clipPath><clipPath id="clip6"><rect x="1011" y="874" width="2484" height="617"/></clipPath><clipPath id="clip7"><rect x="3494" y="874" width="407" height="617"/></clipPath><clipPath id="clip8"><rect x="524" y="1009" width="488" height="617"/></clipPath><clipPath id="clip9"><rect x="1011" y="1009" width="2484" height="617"/></clipPath><clipPath id="clip10"><rect x="3494" y="1009" width="407" height="617"/></clipPath><clipPath id="clip11"><rect x="524" y="1143" width="488" height="617"/></clipPath><clipPath id="clip12"><rect x="1011" y="1143" width="2484" height="617"/></clipPath><clipPath id="clip13"><rect x="3494" y="1143" width="407" height="617"/></clipPath><clipPath id="clip14"><rect x="524" y="1278" width="488" height="617"/></clipPath><clipPath id="clip15"><rect x="1011" y="1278" width="2484" height="617"/></clipPath><clipPath id="clip16"><rect x="3494" y="1278" width="407" height="617"/></clipPath><clipPath id="clip17"><rect x="524" y="1412" width="488" height="617"/></clipPath><clipPath id="clip18"><rect x="1011" y="1412" width="2484" height="617"/></clipPath><clipPath id="clip19"><rect x="3494" y="1412" width="407" height="617"/></clipPath><clipPath id="clip20"><rect x="524" y="1547" width="488" height="617"/></clipPath><clipPath id="clip21"><rect x="1011" y="1547" width="2484" height="617"/></clipPath><clipPath id="clip22"><rect x="3494" y="1547" width="407" height="617"/></clipPath><clipPath id="clip23"><rect x="524" y="1681" width="488" height="617"/></clipPath><clipPath id="clip24"><rect x="1011" y="1681" width="2484" height="617"/></clipPath><clipPath id="clip25"><rect x="3494" y="1681" width="407" height="617"/></clipPath><clipPath id="clip26"><rect x="524" y="1816" width="488" height="617"/></clipPath><clipPath id="clip27"><rect x="1011" y="1816" width="2484" height="617"/></clipPath><clipPath id="clip28"><rect x="3494" y="1816" width="407" height="617"/></clipPath></defs><g clip-path="url(#clip0)" transform="translate(-289 -903)"><path d="M291.923 1115.61 524.615 1115.61 524.615 1250.1 291.923 1250.1Z" fill="#F2F2F2" fill-rule="evenodd"/><path d="M524.615 1115.61 1011.15 1115.61 1011.15 1250.1 524.615 1250.1Z" fill="#F2F2F2" fill-rule="evenodd"/><path d="M1011.15 1115.61 3494.62 1115.61 3494.62 1250.1 1011.15 1250.1Z" fill="#F2F2F2" fill-rule="evenodd"/><path d="M3494.62 1115.61 3900.77 1115.61 3900.77 1250.1 3494.62 1250.1Z" fill="#F2F2F2" fill-rule="evenodd"/><path d="M291.923 1384.59 524.615 1384.59 524.615 1519.08 291.923 1519.08Z" fill="#F2F2F2" fill-rule="evenodd"/><path d="M524.615 1384.59 1011.15 1384.59 1011.15 1519.08 524.615 1519.08Z" fill="#F2F2F2" fill-rule="evenodd"/><path d="M1011.15 1384.59 3494.62 1384.59 3494.62 1519.08 1011.15 1519.08Z" fill="#F2F2F2" fill-rule="evenodd"/><path d="M3494.62 1384.59 3900.77 1384.59 3900.77 1519.08 3494.62 1519.08Z" fill="#F2F2F2" fill-rule="evenodd"/><path d="M291.923 1653.57 524.615 1653.57 524.615 1788.06 291.923 1788.06Z" fill="#F2F2F2" fill-rule="evenodd"/><path d="M524.615 1653.57 1011.15 1653.57 1011.15 1788.06 524.615 1788.06Z" fill="#F2F2F2" fill-rule="evenodd"/><path d="M1011.15 1653.57 3494.62 1653.57 3494.62 1788.06 1011.15 1788.06Z" fill="#F2F2F2" fill-rule="evenodd"/><path d="M3494.62 1653.57 3900.77 1653.57 3900.77 1788.06 3494.62 1788.06Z" fill="#F2F2F2" fill-rule="evenodd"/><path d="M291.923 1922.55 524.615 1922.55 524.615 2057.05 291.923 2057.05Z" fill="#F2F2F2" fill-rule="evenodd"/><path d="M524.615 1922.55 1011.15 1922.55 1011.15 2057.05 524.615 2057.05Z" fill="#F2F2F2" fill-rule="evenodd"/><path d="M1011.15 1922.55 3494.62 1922.55 3494.62 2057.05 1011.15 2057.05Z" fill="#F2F2F2" fill-rule="evenodd"/><path d="M3494.62 1922.55 3900.77 1922.55 3900.77 2057.05 3494.62 2057.05Z" fill="#F2F2F2" fill-rule="evenodd"/><path d="M289.632 1115.61 3903.06 1115.61" stroke="#7F7F7F" stroke-width="4.58333" stroke-linejoin="round" stroke-miterlimit="10" fill="none" fill-rule="evenodd"/><path d="M289.632 1250.1 3903.06 1250.1" stroke="#7F7F7F" stroke-width="4.58333" stroke-linejoin="round" stroke-miterlimit="10" fill="none" fill-rule="evenodd"/><path d="M289.632 1384.59 3903.06 1384.59" stroke="#7F7F7F" stroke-width="4.58333" stroke-linejoin="round" stroke-miterlimit="10" fill="none" fill-rule="evenodd"/><path d="M289.632 1519.08 3903.06 1519.08" stroke="#7F7F7F" stroke-width="4.58333" stroke-linejoin="round" stroke-miterlimit="10" fill="none" fill-rule="evenodd"/><path d="M289.632 1653.57 3903.06 1653.57" stroke="#7F7F7F" stroke-width="4.58333" stroke-linejoin="round" stroke-miterlimit="10" fill="none" fill-rule="evenodd"/><path d="M289.632 1788.06 3903.06 1788.06" stroke="#7F7F7F" stroke-width="4.58333" stroke-linejoin="round" stroke-miterlimit="10" fill="none" fill-rule="evenodd"/><path d="M289.632 1922.55 3903.06 1922.55" stroke="#7F7F7F" stroke-width="4.58333" stroke-linejoin="round" stroke-miterlimit="10" fill="none" fill-rule="evenodd"/><path d="M289.632 2057.05 3903.06 2057.05" stroke="#7F7F7F" stroke-width="4.58333" stroke-linejoin="round" stroke-miterlimit="10" fill="none" fill-rule="evenodd"/><path d="M291.923 903.093 291.923 2193.83" stroke="#7F7F7F" stroke-width="4.58333" stroke-linejoin="round" stroke-miterlimit="10" fill="none" fill-rule="evenodd"/><path d="M3900.77 903.093 3900.77 2193.83" stroke="#7F7F7F" stroke-width="4.58333" stroke-linejoin="round" stroke-miterlimit="10" fill="none" fill-rule="evenodd"/><path d="M289.632 905.385 3903.06 905.385" stroke="#7F7F7F" stroke-width="4.58333" stroke-linejoin="round" stroke-miterlimit="10" fill="none" fill-rule="evenodd"/><path d="M289.632 2191.54 3903.06 2191.54" stroke="#7F7F7F" stroke-width="4.58333" stroke-linejoin="round" stroke-miterlimit="10" fill="none" fill-rule="evenodd"/><g clip-path="url(#clip1)"><text font-family="Microsoft YaHei,Microsoft YaHei_MSFontService,sans-serif" font-weight="700" font-size="73" transform="matrix(1 0 0 1 324.923 1037)">序号</text></g><g clip-path="url(#clip2)"><text font-family="Microsoft YaHei,Microsoft YaHei_MSFontService,sans-serif" font-weight="700" font-size="73" transform="matrix(1 0 0 1 557.615 1037)">方法</text></g><g clip-path="url(#clip3)"><text font-family="Microsoft YaHei,Microsoft YaHei_MSFontService,sans-serif" font-weight="700" font-size="73" transform="matrix(1 0 0 1 1044.15 1037)">描述</text></g><g clip-path="url(#clip4)"><text font-family="Microsoft YaHei,Microsoft YaHei_MSFontService,sans-serif" font-weight="700" font-size="73" transform="matrix(1 0 0 1 3527.62 1037)">版本支持</text></g><text font-family="Microsoft YaHei,Microsoft YaHei_MSFontService,sans-serif" font-weight="400" font-size="73" transform="matrix(1 0 0 1 386.785 1210)">1</text><g clip-path="url(#clip5)"><text font-family="Microsoft YaHei,Microsoft YaHei_MSFontService,sans-serif" font-weight="400" font-size="73" transform="matrix(1 0 0 1 557.615 1210)">GET</text></g><g clip-path="url(#clip6)"><text font-family="Microsoft YaHei,Microsoft YaHei_MSFontService,sans-serif" font-weight="400" font-size="73" transform="matrix(1 0 0 1 1044.15 1210)">请求指定信息并返回实体主体，不对服务器产生其他影响</text></g><g clip-path="url(#clip7)"><text font-family="Microsoft YaHei,Microsoft YaHei_MSFontService,sans-serif" font-weight="400" font-size="73" transform="matrix(1 0 0 1 3527.62 1210)">1.0/1.1</text></g><text font-family="Microsoft YaHei,Microsoft YaHei_MSFontService,sans-serif" font-weight="400" font-size="73" transform="matrix(1 0 0 1 386.785 1344)">2</text><g clip-path="url(#clip8)"><text font-family="Microsoft YaHei,Microsoft YaHei_MSFontService,sans-serif" font-weight="400" font-size="73" transform="matrix(1 0 0 1 557.615 1344)">HEAD</text></g><g clip-path="url(#clip9)"><text font-family="Microsoft YaHei,Microsoft YaHei_MSFontService,sans-serif" font-weight="400" font-size="73" transform="matrix(1 0 0 1 1044.15 1344)">请求指定信息并返回报头信息</text></g><g clip-path="url(#clip10)"><text font-family="Microsoft YaHei,Microsoft YaHei_MSFontService,sans-serif" font-weight="400" font-size="73" transform="matrix(1 0 0 1 3527.62 1344)">1.0/1.1</text></g><text font-family="Microsoft YaHei,Microsoft YaHei_MSFontService,sans-serif" font-weight="400" font-size="73" transform="matrix(1 0 0 1 386.785 1479)">3</text><g clip-path="url(#clip11)"><text font-family="Microsoft YaHei,Microsoft YaHei_MSFontService,sans-serif" font-weight="400" font-size="73" transform="matrix(1 0 0 1 557.615 1479)">POST</text></g><g clip-path="url(#clip12)"><text font-family="Microsoft YaHei,Microsoft YaHei_MSFontService,sans-serif" font-weight="400" font-size="73" transform="matrix(1 0 0 1 1044.15 1479)">向服务器提交数据处理请求，服务器可以根据请求体创建</text></g><text font-family="Microsoft YaHei,Microsoft YaHei_MSFontService,sans-serif" font-weight="400" font-size="73" transform="matrix(1 0 0 1 2877.49 1479)">/<tspan font-size="73" x="31.5105" y="0">更新指定资源</tspan></text><g clip-path="url(#clip13)"><text font-family="Microsoft YaHei,Microsoft YaHei_MSFontService,sans-serif" font-weight="400" font-size="73" transform="matrix(1 0 0 1 3527.62 1479)">1.0/1.1</text></g><text font-family="Microsoft YaHei,Microsoft YaHei_MSFontService,sans-serif" font-weight="400" font-size="73" transform="matrix(1 0 0 1 386.785 1613)">4</text><g clip-path="url(#clip14)"><text font-family="Microsoft YaHei,Microsoft YaHei_MSFontService,sans-serif" font-weight="400" font-size="73" transform="matrix(1 0 0 1 557.615 1613)">PUT</text></g><g clip-path="url(#clip15)"><text font-family="Microsoft YaHei,Microsoft YaHei_MSFontService,sans-serif" font-weight="400" font-size="73" transform="matrix(1 0 0 1 1044.15 1613)">向指定资源位置上传其最新内容</text></g><g clip-path="url(#clip16)"><text font-family="Microsoft YaHei,Microsoft YaHei_MSFontService,sans-serif" font-weight="400" font-size="73" transform="matrix(1 0 0 1 3527.62 1613)">1.1</text></g><text font-family="Microsoft YaHei,Microsoft YaHei_MSFontService,sans-serif" font-weight="400" font-size="73" transform="matrix(1 0 0 1 386.785 1748)">5</text><g clip-path="url(#clip17)"><text font-family="Microsoft YaHei,Microsoft YaHei_MSFontService,sans-serif" font-weight="400" font-size="73" transform="matrix(1 0 0 1 557.615 1748)">DELETE</text></g><g clip-path="url(#clip18)"><text font-family="Microsoft YaHei,Microsoft YaHei_MSFontService,sans-serif" font-weight="400" font-size="73" transform="matrix(1 0 0 1 1044.15 1748)">向服务器提交删除指定资源请求</text></g><g clip-path="url(#clip19)"><text font-family="Microsoft YaHei,Microsoft YaHei_MSFontService,sans-serif" font-weight="400" font-size="73" transform="matrix(1 0 0 1 3527.62 1748)">1.1</text></g><text font-family="Microsoft YaHei,Microsoft YaHei_MSFontService,sans-serif" font-weight="400" font-size="73" transform="matrix(1 0 0 1 386.785 1882)">6</text><g clip-path="url(#clip20)"><text font-family="Microsoft YaHei,Microsoft YaHei_MSFontService,sans-serif" font-weight="400" font-size="73" transform="matrix(1 0 0 1 557.615 1882)">CONNECT</text></g><g clip-path="url(#clip21)"><text font-family="Microsoft YaHei,Microsoft YaHei_MSFontService,sans-serif" font-weight="400" font-size="73" transform="matrix(1 0 0 1 1044.15 1882)">给能够将连接改为管道方式的代理服务器的请求连接</text></g><g clip-path="url(#clip22)"><text font-family="Microsoft YaHei,Microsoft YaHei_MSFontService,sans-serif" font-weight="400" font-size="73" transform="matrix(1 0 0 1 3527.62 1882)">1.1</text></g><text font-family="Microsoft YaHei,Microsoft YaHei_MSFontService,sans-serif" font-weight="400" font-size="73" transform="matrix(1 0 0 1 386.785 2017)">7</text><g clip-path="url(#clip23)"><text font-family="Microsoft YaHei,Microsoft YaHei_MSFontService,sans-serif" font-weight="400" font-size="73" transform="matrix(1 0 0 1 557.615 2017)">OPPTIONS</text></g><g clip-path="url(#clip24)"><text font-family="Microsoft YaHei,Microsoft YaHei_MSFontService,sans-serif" font-weight="400" font-size="73" transform="matrix(1 0 0 1 1044.15 2017)">查看服务器对特定</text></g><text font-family="Microsoft YaHei,Microsoft YaHei_MSFontService,sans-serif" font-weight="400" font-size="73" transform="matrix(1 0 0 1 1652.59 2017)">URL <tspan font-size="73" x="162.708" y="0">支持哪些请求方法，</tspan><tspan font-size="73" x="822.708" y="0">URL </tspan><tspan font-size="73" x="985.417" y="0">设定为</tspan>*<tspan font-size="73" x="1238.65" y="0">获取所有请求</tspan></text><g clip-path="url(#clip25)"><text font-family="Microsoft YaHei,Microsoft YaHei_MSFontService,sans-serif" font-weight="400" font-size="73" transform="matrix(1 0 0 1 3527.62 2017)">1.1</text></g><text font-family="Microsoft YaHei,Microsoft YaHei_MSFontService,sans-serif" font-weight="400" font-size="73" transform="matrix(1 0 0 1 386.785 2151)">8</text><g clip-path="url(#clip26)"><text font-family="Microsoft YaHei,Microsoft YaHei_MSFontService,sans-serif" font-weight="400" font-size="73" transform="matrix(1 0 0 1 557.615 2151)">TRACE</text></g><g clip-path="url(#clip27)"><text font-family="Microsoft YaHei,Microsoft YaHei_MSFontService,sans-serif" font-weight="400" font-size="73" transform="matrix(1 0 0 1 1044.15 2151)">回显服务器收到的请求，主要用于测试或诊断</text></g><g clip-path="url(#clip28)"><text font-family="Microsoft YaHei,Microsoft YaHei_MSFontService,sans-serif" font-weight="400" font-size="73" transform="matrix(1 0 0 1 3527.62 2151)">1.1</text></g></g></svg>