<svg width="254" height="114" xmlns="http://www.w3.org/2000/svg" xmlns:xlink="http://www.w3.org/1999/xlink" overflow="hidden"><defs><clipPath id="clip0"><rect x="63" y="101" width="254" height="114"/></clipPath></defs><g clip-path="url(#clip0)" transform="translate(-63 -101)"><path d="M158.03 56.6937C156.27 62.7633 153.456 67.1616 150.289 70.6802L150.289 39.8043C150.289 37.6932 148.442 35.9339 145.539 35.9339 144.307 35.9339 143.252 36.5496 143.252 37.4293 143.252 38.045 143.603 38.5728 143.603 40.2442L143.603 54.4066C142.548 60.5642 139.909 66.2819 136.39 66.2819 133.839 66.2819 132.344 63.7309 132.344 58.9808 132.344 51.5917 133.312 47.7212 134.895 41.2118 135.247 39.8923 137.798 36.3737 133.487 36.3737 128.825 36.3737 129.441 38.133 128.825 39.6284 128.825 39.6284 125.878 50.0963 125.878 59.4206 125.878 67.0736 129.089 72.0876 134.983 72.0876 138.765 72.0876 141.492 69.5366 143.603 66.018L143.603 77.1896C137.798 82.2916 132.696 86.7778 132.696 95.6623 132.696 101.292 136.214 105.778 141.14 105.778 145.627 105.778 150.289 102.524 150.289 93.2873L150.289 78.0693C155.039 73.9349 160.141 68.7449 163.132 58.541 163.22 58.1891 163.22 57.7493 163.22 57.6613 163.22 55.99 161.548 54.0547 160.141 54.0547 159.261 54.0547 158.558 54.8464 158.03 56.6937ZM141.14 100.237C139.733 100.237 138.853 98.1254 138.853 95.3984 138.853 90.1205 140.789 86.7778 143.603 83.875L143.603 93.2873C143.603 94.9586 143.955 100.237 141.14 100.237Z" fill="#2C8EBB" transform="matrix(1 0 0 1.00074 63.022 101)"/><path d="M183.276 66.1939C181.165 66.1939 180.285 64.0828 180.285 62.1475L180.285 47.6332C180.285 45.5221 178.438 43.7628 175.535 43.7628 174.303 43.7628 173.248 44.3785 173.248 45.2582 173.248 45.8739 173.6 46.4017 173.6 48.0731L173.6 61.6197C172.632 64.0828 171.049 66.1939 168.674 66.1939 165.595 66.1939 163.66 63.555 163.66 58.9808 163.66 46.3138 171.488 40.596 178.174 40.596 179.054 40.596 179.933 40.7719 180.725 40.7719 181.605 40.7719 181.868 40.2442 181.868 38.7487 181.868 36.4616 180.197 35.0542 177.822 35.0542 167.09 35.0542 156.886 44.0267 156.886 58.7169 156.886 66.1939 160.493 71.9997 167.354 71.9997 170.697 71.9997 173.16 70.4163 174.919 68.3931 176.239 70.5042 178.614 71.9997 181.692 71.9997 189.257 71.9997 192.776 64.0828 194.272 58.2771 194.359 57.9252 194.359 57.7493 194.359 57.6613 194.359 55.99 192.688 54.0547 191.281 54.0547 190.401 54.0547 189.521 54.8464 189.17 56.6937 188.378 60.5642 186.794 66.1939 183.276 66.1939Z" fill="#2C8EBB" transform="matrix(1 0 0 1.00074 63.022 101)"/><path d="M208.698 71.9997C216.263 71.9997 219.694 64.0828 221.277 58.2771 221.277 58.1011 221.365 57.9252 221.365 57.6613 221.365 55.99 219.694 54.0547 218.286 54.0547 217.406 54.0547 216.527 54.8464 216.175 56.6937 215.383 60.5642 213.888 66.1939 209.841 66.1939 207.466 66.1939 206.323 63.9068 206.323 61.4438 206.323 52.6473 210.281 42.2674 210.281 41.2118 210.633 39.1886 207.114 36.2857 206.059 36.2857L201.485 36.2857C200.605 36.2857 199.725 36.2857 196.823 35.9339 195.855 32.3273 193.392 31.2717 191.281 31.2717 188.994 31.2717 186.882 32.8551 186.882 35.3181 186.882 37.8691 188.466 39.7164 190.665 40.9479 190.577 45.4341 190.225 52.7352 189.257 56.2539 188.466 59.2447 193.04 62.4114 194.184 58.7169 195.767 53.6149 196.295 45.9619 196.383 42.5313L204.036 42.5313C201.221 50.0963 199.637 56.3418 199.637 61.9716 199.637 69.7126 204.563 71.9997 208.698 71.9997Z" fill="#2C8EBB" transform="matrix(1 0 0 1.00074 63.022 101)"/><path d="M216.527 68.1292C216.527 71.3839 218.99 71.9997 220.749 71.9997 223.3 71.9997 223.212 69.8885 223.212 68.2171L223.212 55.3742C223.828 48.4249 229.282 40.8599 231.833 40.8599 233.504 40.8599 233.68 43.147 233.68 45.8739L233.68 63.7309C233.68 68.2171 236.407 71.9997 241.069 71.9997 248.634 71.9997 252.373 64.0828 253.868 58.2771 253.956 57.9252 253.956 57.7493 253.956 57.6613 253.956 55.99 252.285 54.0547 250.877 54.0547 249.998 54.0547 249.118 54.8464 248.766 56.6937 247.974 60.5642 246.171 66.1939 242.652 66.1939 240.365 66.1939 240.365 62.9392 240.365 62.1475L240.365 43.9387C240.365 39.8923 238.958 35.0542 233.064 35.0542 228.754 35.0542 225.587 38.8367 223.212 43.7628L223.212 39.8043C223.212 37.6932 221.365 35.9339 218.462 35.9339 217.23 35.9339 216.175 36.5496 216.175 37.4293 216.175 38.045 216.527 38.5728 216.527 40.2442L216.527 68.1292ZM56.9576 0C88.4052 0 113.915 25.51 113.915 56.9576 113.915 88.4052 88.4052 113.915 56.9576 113.915 25.51 113.915 0 88.4052 0 56.9576 0 25.51 25.51 0 56.9576 0Z" fill="#2C8EBB" transform="matrix(1 0 0 1.00074 63.022 101)"/><path d="M95.7063 74.2208C95.3105 71.098 92.6715 68.9429 89.2849 68.9868 84.2268 69.0528 79.9825 71.6698 77.1676 73.4071 76.0681 74.0888 75.1224 74.5946 74.3087 74.9685 74.4847 72.4175 74.3307 69.0748 73.0113 65.4023 71.4059 61.004 69.2507 58.299 67.7113 56.7377 69.4926 54.1427 71.9337 50.3602 73.0772 44.5105 74.0668 39.5184 73.759 31.7555 71.4939 27.4012 71.032 26.5216 70.2623 25.8838 69.2947 25.6199 68.8989 25.51 68.1512 25.29 66.6777 25.7079 64.4566 21.1117 63.6869 20.6279 63.0932 20.232 61.8616 19.4403 60.4102 19.2644 59.0468 19.7702 57.2215 20.43 55.6601 22.1893 54.1867 25.312 53.9668 25.7739 53.7688 26.2137 53.5929 26.6535 50.8 26.8514 46.4017 27.863 42.6852 31.8874 42.2234 32.3932 41.3217 32.7671 40.3761 33.119L40.3981 33.119C38.4629 33.8007 37.5832 35.3841 36.5056 38.2429 35.0102 42.2454 36.5496 46.1818 38.067 48.7328 35.9998 50.5801 33.2509 53.5269 31.7995 56.9796 29.9962 61.2459 29.7983 65.4242 29.8642 67.6893 28.3249 69.3167 25.9498 72.3735 25.6859 75.8042 25.334 80.5983 27.0713 83.853 27.841 85.0405 28.061 85.3924 28.3029 85.6783 28.5668 85.9642 28.4788 86.5579 28.4568 87.1957 28.5887 87.8554 28.8746 89.3948 29.8423 90.6483 31.3157 91.44 34.2185 92.9794 38.2649 93.6391 41.3877 92.0778 42.5093 93.2653 44.5545 94.4088 48.271 94.4088L48.4909 94.4088C49.4365 94.4088 61.4438 93.7711 64.9404 92.9134 66.5018 92.5396 67.5794 91.8798 68.2831 91.2861 70.5262 90.5823 76.7278 88.4712 82.5775 84.6887 86.7119 82.0057 88.1413 81.4339 91.2201 80.6862 94.2109 79.9605 96.0802 77.2336 95.7063 74.2208ZM90.4724 77.4535C86.9538 78.2892 85.1725 79.0589 80.8182 81.8958 74.0229 86.294 66.5898 88.3392 66.5898 88.3392 66.5898 88.3392 65.974 89.2629 64.1927 89.6807 61.1139 90.4284 49.5245 91.0661 48.4689 91.0881 45.632 91.1101 43.8947 90.3624 43.4109 89.1969 41.9375 85.6783 45.5221 84.1389 45.5221 84.1389 45.5221 84.1389 44.7304 83.6551 44.2686 83.2152 43.8507 82.7974 43.4109 81.9617 43.279 82.2696 42.7292 83.6111 42.4433 86.8878 40.9699 88.3612 38.9467 90.4064 35.1202 89.7247 32.8551 88.5371 30.37 87.2177 33.031 84.1169 33.031 84.1169 33.031 84.1169 31.6895 84.9086 30.6119 83.2812 29.6443 81.7858 28.7427 79.2348 28.9846 76.09 29.2485 72.5055 33.2509 69.0308 33.2509 69.0308 33.2509 69.0308 32.5472 63.7309 34.8563 58.299 36.9455 53.351 42.5752 49.3706 42.5752 49.3706 42.5752 49.3706 37.8471 44.1366 39.6064 39.4305 40.75 36.3517 41.2118 36.3737 41.5856 36.2417 42.9051 35.7359 44.1806 35.1861 45.1262 34.1526 49.8544 29.0506 55.88 30.0182 55.88 30.0182 55.88 30.0182 58.7389 21.3316 61.3778 23.0249 62.1915 23.5527 65.1164 30.0622 65.1164 30.0622 65.1164 30.0622 68.2391 28.2369 68.591 28.9186 70.4823 32.5912 70.7022 39.6064 69.8665 43.8727 68.459 50.91 64.9404 54.6925 63.533 57.0675 63.2031 57.6173 67.3155 59.3546 69.9105 66.5458 72.3075 73.1212 70.1744 78.641 70.5482 79.2568 70.6142 79.3668 70.6362 79.4107 70.6362 79.4107 70.6362 79.4107 73.3851 79.6307 78.9049 76.222 81.8518 74.3967 85.3484 72.3515 89.3288 72.3075 93.1773 72.2416 93.3752 76.7498 90.4724 77.4535Z" fill="#FFFFFF" transform="matrix(1 0 0 1.00074 63.022 101)"/></g></svg>