<svg width="672" height="308" xmlns="http://www.w3.org/2000/svg" xmlns:xlink="http://www.w3.org/1999/xlink" overflow="hidden"><defs><clipPath id="clip0"><rect x="125" y="218" width="672" height="308"/></clipPath></defs><g clip-path="url(#clip0)" transform="translate(-125 -218)"><path d="M126.5 285.202 127.5 284.971 129.501 284.529 131.502 284.108 133.503 283.706 135.504 283.325 137.505 282.953 139.505 282.602 141.506 282.271 143.507 281.959 145.508 281.658 147.509 281.387 149.51 281.126 151.51 280.885 153.511 280.665 155.512 280.464 157.513 280.283 159.514 280.122 161.515 279.972 163.515 279.851 165.516 279.741 167.517 279.661 169.518 279.59 171.519 279.54 173.52 279.51 175.52 279.5 177.521 279.51 179.522 279.53 181.523 279.58 183.524 279.651 185.525 279.731 187.525 279.831 189.526 279.962 191.527 280.102 193.528 280.263 195.529 280.444 197.53 280.644 199.53 280.855 201.531 281.096 203.532 281.347 205.533 281.628 207.534 281.919 209.535 282.23 211.535 282.562 213.536 282.903 215.537 283.275 217.538 283.656 219.539 284.058 221.54 284.479 223.54 284.911 225.541 285.372 227.542 285.844 229.543 286.336 231.544 286.838 233.545 287.36 235.545 287.902 237.546 288.464 239.547 289.037 241.548 289.629 243.549 290.231 245.55 290.864 247.55 291.496 249.551 292.158 251.552 292.821 253.553 293.514 255.554 294.216 257.555 294.929 259.555 295.662 261.556 296.405 263.557 297.168 265.558 297.941 267.559 298.734 269.559 299.527 271.56 300.35 273.561 301.173 275.562 302.016 277.563 302.869 279.564 303.743 281.564 304.626 283.565 305.52 285.566 306.423 287.567 307.337 289.568 308.26 291.569 309.204 293.569 310.157 295.57 311.111 297.571 312.085 299.572 313.069 301.573 314.062 303.574 315.056 305.574 316.07 307.565 317.084 309.526 318.098 311.477 319.112 313.418 320.126 315.339 321.129 317.239 322.143 319.13 323.157 321.011 324.161 322.882 325.175 324.732 326.189 326.573 327.193 328.414 328.206 330.235 329.21 332.045 330.224 333.846 331.228 335.647 332.242 337.438 333.246 339.218 334.26 340.989 335.263 342.75 336.267 344.511 337.281 346.261 338.285 348.012 339.289 349.753 340.303 351.493 341.307 353.224 342.31 354.955 343.314 356.676 344.328 358.396 345.332 360.117 346.336 361.828 347.34 363.549 348.343 365.249 349.347 366.96 350.351 368.661 351.365 370.361 352.369 372.072 353.373 373.763 354.377 375.463 355.38 377.164 356.384 378.865 357.388 380.556 358.392 382.256 359.396 383.957 360.4 385.648 361.404 387.348 362.407 389.049 363.411 390.75 364.415 392.451 365.419 394.151 366.413 395.862 367.416 397.563 368.42 399.273 369.424 400.984 370.428 402.705 371.432 404.415 372.436 406.136 373.429 407.867 374.433 409.588 375.437 411.328 376.441 413.059 377.435 414.8 378.439 416.541 379.443 418.291 380.446 420.052 381.44 421.803 382.444 423.573 383.448 425.344 384.442 427.125 385.446 428.906 386.449 430.696 387.443 432.497 388.447 434.298 389.441 436.109 390.445 437.929 391.438 439.76 392.442 441.591 393.446 443.442 394.44 445.292 395.444 447.153 396.438 449.024 397.441 450.915 398.435 452.806 399.429 454.706 400.433 456.627 401.427 458.548 402.431 460.489 403.424 462.44 404.418 464.41 405.422 466.381 406.416 468.372 407.409 470.373 408.403 472.374 409.397 474.375 410.371 476.375 411.345 478.376 412.308 480.377 413.262 482.378 414.216 484.379 415.159 486.38 416.093 488.38 417.016 490.381 417.93 492.382 418.843 494.383 419.747 496.384 420.63 498.385 421.524 500.385 422.397 502.386 423.26 504.387 424.124 506.388 424.977 508.389 425.82 510.389 426.653 512.39 427.476 514.391 428.299 516.392 429.103 518.393 429.906 520.394 430.699 522.394 431.482 524.395 432.255 526.396 433.028 528.397 433.78 530.398 434.533 532.399 435.276 534.399 436.009 536.4 436.732 538.401 437.445 540.402 438.147 542.403 438.85 544.404 439.543 546.404 440.215 548.405 440.888 550.406 441.56 552.407 442.213 554.408 442.855 556.409 443.498 558.409 444.13 560.41 444.752 562.411 445.365 564.412 445.977 566.413 446.569 568.414 447.162 570.414 447.744 572.415 448.316 574.416 448.878 576.417 449.44 578.418 449.982 580.419 450.524 582.419 451.067 584.42 451.589 586.421 452.111 588.422 452.612 590.423 453.124 592.424 453.616 594.424 454.098 596.425 454.58 598.426 455.052 600.427 455.524 602.428 455.975 604.429 456.427 606.429 456.879 608.43 457.31 610.431 457.742 612.432 458.164 614.433 458.575 616.434 458.987 618.434 459.388 620.435 459.79 622.436 460.171 624.437 460.553 626.438 460.934 628.439 461.306 630.439 461.667 632.44 462.018 634.441 462.37 636.442 462.711 638.443 463.052 640.443 463.384 642.444 463.715 644.445 464.036 646.446 464.347 648.447 464.659 650.448 464.96 652.448 465.251 654.449 465.542 656.45 465.833 658.451 466.114 660.452 466.385 662.453 466.656 664.453 466.927 666.454 467.188 668.455 467.439 670.456 467.69 672.457 467.931 674.458 468.172 676.458 468.413 678.459 468.644 680.46 468.865 682.461 469.086 684.462 469.306 686.463 469.517 688.463 469.728 690.464 469.929 692.465 470.13 694.466 470.32 696.467 470.511 698.468 470.702 700.468 470.882 702.469 471.063 704.47 471.244 706.471 471.414 708.472 471.585 710.473 471.746 712.473 471.906 714.474 472.067 716.475 472.217 718.476 472.368 720.477 472.519 722.478 472.659 724.478 472.8 726.479 472.94 728.48 473.071 730.481 473.201 732.482 473.332 734.483 473.452 736.483 473.583 738.484 473.703 740.485 473.814 742.486 473.934 744.487 474.044 746.488 474.155 748.488 474.255 750.489 474.356 752.49 474.456 754.491 474.557 756.492 474.657 758.493 474.747 760.493 474.838 762.494 474.928 764.495 475.018 766.496 475.099 768.497 475.189 770.497 475.269 772.498 475.349 774.499 475.42 776.5 475.5" stroke="#0095FF" stroke-miterlimit="8" fill="none" fill-rule="evenodd"/><text font-family="Arial,Arial_MSFontService,sans-serif" font-weight="400" font-size="12" transform="translate(214.512 279)">1<tspan font-size="12" x="-71.0253" y="215">-</tspan>0.4<tspan font-size="12" x="-1.5495" y="215">0</tspan><tspan font-size="12" x="203.004" y="215">1</tspan><tspan font-size="12" x="393.738" y="215">2</tspan><tspan font-size="12" x="541.326" y="215">2.8</tspan></text><path d="M128.5 288.5 129.5 288.5 131.499 288.52 133.499 288.53 135.498 288.55 137.498 288.57 139.497 288.58 141.497 288.6 143.496 288.61 145.496 288.63 147.495 288.65 149.495 288.66 151.494 288.68 153.494 288.7 155.493 288.72 157.493 288.74 159.492 288.75 161.492 288.77 163.491 288.79 165.491 288.811 167.49 288.831 169.49 288.851 171.489 288.871 173.489 288.891 175.488 288.911 177.488 288.931 179.487 288.961 181.487 288.981 183.486 289.001 185.486 289.021 187.486 289.051 189.485 289.071 191.485 289.091 193.484 289.121 195.484 289.141 197.483 289.171 199.483 289.191 201.482 289.221 203.482 289.251 205.481 289.271 207.481 289.301 209.48 289.331 211.48 289.361 213.479 289.391 215.479 289.421 217.478 289.451 219.478 289.481 221.477 289.512 223.477 289.542 225.476 289.582 227.476 289.612 229.475 289.642 231.475 289.682 233.474 289.712 235.474 289.752 237.473 289.792 239.473 289.832 241.472 289.872 243.472 289.912 245.471 289.952 247.471 289.992 249.47 290.032 251.47 290.072 253.469 290.122 255.469 290.162 257.468 290.213 259.468 290.263 261.467 290.313 263.467 290.363 265.466 290.413 267.466 290.463 269.465 290.523 271.465 290.573 273.464 290.633 275.464 290.693 277.463 290.753 279.463 290.813 281.462 290.883 283.462 290.944 285.461 291.014 287.461 291.084 289.46 291.154 291.46 291.224 293.459 291.304 295.459 291.384 297.458 291.464 299.458 291.544 301.457 291.635 303.457 291.725 305.456 291.815 307.456 291.915 309.455 292.015 311.455 292.115 313.454 292.225 315.454 292.336 317.453 292.446 319.453 292.566 321.452 292.686 323.452 292.816 325.451 292.956 327.451 293.097 329.451 293.237 331.45 293.387 333.45 293.547 335.449 293.718 337.449 293.888 339.448 294.068 341.448 294.258 343.447 294.459 345.447 294.669 347.446 294.899 349.446 295.13 351.445 295.38 353.445 295.64 355.444 295.911 357.444 296.211 359.443 296.522 361.443 296.852 363.442 297.203 365.442 297.583 367.441 297.984 369.441 298.414 371.44 298.885 373.44 299.386 375.439 299.937 377.439 300.527 379.438 301.168 381.438 301.869 383.437 302.64 385.437 303.492 387.436 304.433 389.436 305.485 391.345 306.596 393.065 307.718 394.604 308.819 396.004 309.921 397.284 311.013 398.443 312.104 399.513 313.186 400.503 314.267 401.423 315.339 402.283 316.41 403.082 317.482 403.832 318.543 404.532 319.615 405.192 320.677 405.822 321.728 406.411 322.79 406.971 323.841 407.501 324.893 408.011 325.944 408.501 326.986 408.961 328.037 409.411 329.079 409.831 330.12 410.241 331.162 410.63 332.203 411.01 333.245 411.38 334.276 411.73 335.318 412.07 336.349 412.4 337.381 412.72 338.412 413.03 339.444 413.33 340.475 413.62 341.507 413.91 342.538 414.19 343.56 414.46 344.591 414.719 345.613 414.979 346.634 415.229 347.665 415.469 348.687 415.719 349.708 415.949 350.73 416.179 351.751 416.409 352.763 416.629 353.784 416.849 354.806 417.069 355.817 417.279 356.839 417.489 357.85 417.699 358.872 417.899 359.883 418.099 360.895 418.299 361.916 418.499 362.928 418.688 363.939 418.878 364.951 419.068 365.962 419.258 366.973 419.438 367.985 419.628 368.986 419.808 369.998 419.988 371.009 420.168 372.011 420.348 373.022 420.528 374.024 420.708 375.035 420.888 376.036 421.058 377.038 421.238 378.049 421.408 379.051 421.588 380.052 421.758 381.054 421.938 382.055 422.108 383.057 422.288 384.058 422.458 385.059 422.638 386.061 422.807 387.062 422.987 388.054 423.157 389.055 423.337 390.057 423.517 391.048 423.697 392.05 423.877 393.041 424.057 394.033 424.237 395.034 424.417 396.025 424.597 397.017 424.787 398.008 424.977 399.01 425.157 400.001 425.347 400.992 425.547 401.984 425.737 402.965 425.937 403.957 426.137 404.948 426.337 405.94 426.536 406.921 426.747 407.912 426.956 408.904 427.166 409.885 427.386 410.867 427.606 411.858 427.826 412.84 428.056 413.821 428.286 414.802 428.516 415.784 428.756 416.765 429.006 417.747 429.256 418.728 429.506 419.71 429.776 420.691 430.036 421.662 430.316 422.644 430.596 423.615 430.885 424.597 431.175 425.568 431.485 426.539 431.795 427.511 432.115 428.482 432.455 429.454 432.795 430.425 433.145 431.396 433.515 432.368 433.895 433.329 434.285 434.301 434.685 435.262 435.104 436.223 435.544 437.195 436.004 438.156 436.474 439.108 436.974 440.069 437.484 441.03 438.024 441.982 438.594 442.943 439.183 443.894 439.813 444.846 440.463 445.797 441.153 446.739 441.883 447.69 442.663 448.631 443.482 449.573 444.352 450.514 445.282 451.455 446.272 452.387 447.331 453.318 448.471 454.249 449.701 455.181 451.021 456.102 452.45 457.023 454.01 457.945 455.709 458.856 457.579 459.767 459.578 460.649 461.578 461.45 463.577 462.181 465.577 462.842 467.576 463.453 469.576 464.024 471.575 464.534 473.575 465.015 475.574 465.466 477.574 465.876 479.573 466.267 481.573 466.627 483.573 466.968 485.572 467.288 487.572 467.589 489.571 467.869 491.571 468.14 493.57 468.39 495.57 468.63 497.569 468.86 499.569 469.071 501.568 469.271 503.568 469.471 505.567 469.652 507.567 469.832 509.566 470.002 511.566 470.162 513.565 470.313 515.565 470.463 517.564 470.603 519.564 470.743 521.563 470.873 523.563 471.004 525.562 471.124 527.562 471.234 529.561 471.344 531.561 471.454 533.56 471.564 535.56 471.665 537.559 471.755 539.559 471.855 541.558 471.945 543.558 472.035 545.557 472.115 547.557 472.195 549.556 472.275 551.556 472.356 553.555 472.426 555.555 472.506 557.554 472.576 559.554 472.646 561.553 472.706 563.553 472.776 565.552 472.836 567.552 472.896 569.551 472.956 571.551 473.016 573.55 473.077 575.55 473.127 577.549 473.177 579.549 473.237 581.548 473.287 583.548 473.337 585.547 473.377 587.547 473.427 589.546 473.477 591.546 473.517 593.545 473.567 595.545 473.607 597.544 473.647 599.544 473.687 601.543 473.728 603.543 473.768 605.542 473.808 607.542 473.848 609.541 473.888 611.541 473.918 613.54 473.958 615.54 473.988 617.539 474.028 619.539 474.058 621.538 474.088 623.538 474.118 625.538 474.148 627.537 474.178 629.536 474.208 631.536 474.238 633.536 474.268 635.535 474.298 637.535 474.328 639.534 474.358 641.534 474.378 643.533 474.409 645.533 474.439 647.532 474.459 649.532 474.489 651.531 474.509 653.531 474.529 655.53 474.559 657.53 474.579 659.529 474.599 661.529 474.629 663.528 474.649 665.528 474.669 667.527 474.689 669.527 474.709 671.526 474.729 673.526 474.749 675.525 474.779 677.525 474.789 679.524 474.809 681.524 474.829 683.523 474.849 685.523 474.869 687.522 474.889 689.522 474.909 691.521 474.929 693.521 474.939 695.52 474.959 697.52 474.979 699.519 474.989 701.519 475.009 703.518 475.029 705.518 475.039 707.517 475.059 709.517 475.07 711.516 475.089 713.516 475.099 715.515 475.12 717.515 475.13 719.514 475.15 721.514 475.16 723.513 475.18 725.513 475.19 727.512 475.21 729.512 475.22 731.511 475.23 733.511 475.25 735.51 475.26 737.51 475.27 739.509 475.29 741.509 475.3 743.508 475.31 745.508 475.32 747.507 475.33 749.507 475.35 751.506 475.36 753.506 475.37 755.505 475.38 757.505 475.39 759.505 475.4 761.504 475.42 763.503 475.43 765.503 475.44 767.503 475.45 769.502 475.46 771.502 475.47 773.501 475.48 775.5 475.49 777.5 475.5" stroke="#FF0000" stroke-width="1.33333" stroke-miterlimit="8" fill="none" fill-rule="evenodd"/><path d="M0 0 0.000104987 192.116" stroke="#7F7F7F" stroke-miterlimit="8" stroke-dasharray="4 3" fill="none" fill-rule="evenodd" transform="matrix(1 0 0 -1 421.5 480.616)"/><path d="M0 0 0.000104987 192.116" stroke="#7F7F7F" stroke-miterlimit="8" stroke-dasharray="4 3" fill="none" fill-rule="evenodd" transform="matrix(1 0 0 -1 611.5 480.616)"/><path d="M128.5 286.5 765.288 286.5" stroke="#7F7F7F" stroke-width="0.666667" stroke-miterlimit="8" stroke-dasharray="5.33333 2" fill="none" fill-rule="evenodd"/><path d="M0.333333-1.16964e-07 0.333436 293.867-0.33323 293.867-0.333333 1.16964e-07ZM0.000103115 293.867 4.0001 291.2 0.000104987 299.2-3.9999 291.2Z" transform="matrix(1 0 0 -1 229.5 525.7)"/><path d="M5.28301e-08-0.333333 657.086-0.333229 657.086 0.333437-5.28301e-08 0.333333ZM657.085 0.000104142 654.418-3.9999 662.418 0.000104987 654.418 4.0001Z" transform="matrix(1 0 0 -1 126.5 477.5)"/><path d="M227 477C227 475.343 228.343 474 230 474 231.657 474 233 475.343 233 477 233 478.657 231.657 480 230 480 228.343 480 227 478.657 227 477Z" fill-rule="evenodd"/><path d="M227 286.5C227 285.119 228.343 284 230 284 231.657 284 233 285.119 233 286.5 233 287.881 231.657 289 230 289 228.343 289 227 287.881 227 286.5Z" fill-rule="evenodd"/><path d="M418 477C418 475.343 419.343 474 421 474 422.657 474 424 475.343 424 477 424 478.657 422.657 480 421 480 419.343 480 418 478.657 418 477Z" fill-rule="evenodd"/><path d="M609 477C609 475.343 610.119 474 611.5 474 612.881 474 614 475.343 614 477 614 478.657 612.881 480 611.5 480 610.119 480 609 478.657 609 477Z" fill-rule="evenodd"/></g></svg>