<?xml version="1.0" standalone="no"?><!DOCTYPE svg PUBLIC "-//W3C//DTD SVG 1.1//EN" "http://www.w3.org/Graphics/SVG/1.1/DTD/svg11.dtd"><svg xmlns="http://www.w3.org/2000/svg" viewBox="0 0 650 400" version="1.1"><clipPath id="box"><rect x="0" y="0" width="650" height="400" style="fill:none;stroke:none;" /></clipPath><g clip-path="url(#box)"><rect x="0.00" y="0.00" width="650.00" height="400.00" style="fill:#FFFFFF;stroke:none;" /><path d="M0.00 396.00 L650.00 396.00 M0.00 358.00 L650.00 358.00 M0.00 319.00 L650.00 319.00 M0.00 281.00 L650.00 281.00 M0.00 243.00 L650.00 243.00 M0.00 205.00 L650.00 205.00 M0.00 167.00 L650.00 167.00 M0.00 129.00 L650.00 129.00 M0.00 91.00 L650.00 91.00 M0.00 52.00 L650.00 52.00 M0.00 14.00 L650.00 14.00 M26.00 0.00 L26.00 400.00 M64.00 0.00 L64.00 400.00 M102.00 0.00 L102.00 400.00 M140.00 0.00 L140.00 400.00 M178.00 0.00 L178.00 400.00 M216.00 0.00 L216.00 400.00 M255.00 0.00 L255.00 400.00 M293.00 0.00 L293.00 400.00 M331.00 0.00 L331.00 400.00 M369.00 0.00 L369.00 400.00 M407.00 0.00 L407.00 400.00 M445.00 0.00 L445.00 400.00 M483.00 0.00 L483.00 400.00 M522.00 0.00 L522.00 400.00 M560.00 0.00 L560.00 400.00 M598.00 0.00 L598.00 400.00 M636.00 0.00 L636.00 400.00 " style="fill:none;stroke:#D0D0D0;stroke-width:1;" /><path d="M102.48 0.00 L102.48 400.00 " style="fill:none;stroke:#000000;stroke-width:1;" /><path d="M95.98 434.39 L108.98 434.39 M95.98 396.24 L108.98 396.24 M95.98 358.09 L108.98 358.09 M95.98 319.95 L108.98 319.95 M95.98 281.80 L108.98 281.80 M95.98 243.65 L108.98 243.65 M95.98 205.51 L108.98 205.51 M95.98 167.36 L108.98 167.36 M95.98 129.21 L108.98 129.21 M95.98 91.06 L108.98 91.06 M95.98 52.92 L108.98 52.92 M95.98 14.77 L108.98 14.77 " style="fill:none;stroke:#000000;stroke-width:1;" /><path d="M0.00 281.80 L650.00 281.80 " style="fill:none;stroke:#000000;stroke-width:1;" /><path d="M-11.96 275.30 L-11.96 288.30 M26.19 275.30 L26.19 288.30 M64.33 275.30 L64.33 288.30 M102.48 275.30 L102.48 288.30 M140.63 275.30 L140.63 288.30 M178.77 275.30 L178.77 288.30 M216.92 275.30 L216.92 288.30 M255.07 275.30 L255.07 288.30 M293.22 275.30 L293.22 288.30 M331.36 275.30 L331.36 288.30 M369.51 275.30 L369.51 288.30 M407.66 275.30 L407.66 288.30 M445.80 275.30 L445.80 288.30 M483.95 275.30 L483.95 288.30 M522.10 275.30 L522.10 288.30 M560.24 275.30 L560.24 288.30 M598.39 275.30 L598.39 288.30 M636.54 275.30 L636.54 288.30 " style="fill:none;stroke:#000000;stroke-width:1;" /><text x="110.60575485229273" y="360.59336471557856" text-anchor="start" style="font:10px Droid Sans,Trebuchet MS,Arial,Helvetica,sans-serif;stroke:none;fill:#000000">-0.4</text><text x="110.60575485229273" y="322.4463920593284" text-anchor="start" style="font:10px Droid Sans,Trebuchet MS,Arial,Helvetica,sans-serif;stroke:none;fill:#000000">-0.2</text><text x="110.60575485229273" y="284.2994194030781" text-anchor="start" style="font:10px Droid Sans,Trebuchet MS,Arial,Helvetica,sans-serif;stroke:none;fill:#000000">0</text><text x="110.60575485229273" y="246.15244674682796" text-anchor="start" style="font:10px Droid Sans,Trebuchet MS,Arial,Helvetica,sans-serif;stroke:none;fill:#000000">0.2</text><text x="110.60575485229273" y="208.00547409057774" text-anchor="start" style="font:10px Droid Sans,Trebuchet MS,Arial,Helvetica,sans-serif;stroke:none;fill:#000000">0.4</text><text x="110.60575485229273" y="169.8585014343275" text-anchor="start" style="font:10px Droid Sans,Trebuchet MS,Arial,Helvetica,sans-serif;stroke:none;fill:#000000">0.6</text><text x="110.60575485229273" y="131.71152877807728" text-anchor="start" style="font:10px Droid Sans,Trebuchet MS,Arial,Helvetica,sans-serif;stroke:none;fill:#000000">0.8</text><text x="110.60575485229273" y="93.5645561218271" text-anchor="start" style="font:10px Droid Sans,Trebuchet MS,Arial,Helvetica,sans-serif;stroke:none;fill:#000000">1</text><text x="110.60575485229273" y="55.417583465576875" text-anchor="start" style="font:10px Droid Sans,Trebuchet MS,Arial,Helvetica,sans-serif;stroke:none;fill:#000000">1.2</text><text x="110.60575485229273" y="17.270610809326676" text-anchor="start" style="font:10px Droid Sans,Trebuchet MS,Arial,Helvetica,sans-serif;stroke:none;fill:#000000">1.4</text><text x="26.186809539792236" y="297.9244194030781" text-anchor="middle" style="font:10px Droid Sans,Trebuchet MS,Arial,Helvetica,sans-serif;stroke:none;fill:#000000">-0.4</text><text x="64.33378219604248" y="297.9244194030781" text-anchor="middle" style="font:10px Droid Sans,Trebuchet MS,Arial,Helvetica,sans-serif;stroke:none;fill:#000000">-0.2</text><text x="102.4807548522927" y="297.9244194030781" text-anchor="middle" style="font:10px Droid Sans,Trebuchet MS,Arial,Helvetica,sans-serif;stroke:none;fill:#000000">0</text><text x="140.62772750854296" y="297.9244194030781" text-anchor="middle" style="font:10px Droid Sans,Trebuchet MS,Arial,Helvetica,sans-serif;stroke:none;fill:#000000">0.2</text><text x="178.77470016479322" y="297.9244194030781" text-anchor="middle" style="font:10px Droid Sans,Trebuchet MS,Arial,Helvetica,sans-serif;stroke:none;fill:#000000">0.4</text><text x="216.92167282104344" y="297.9244194030781" text-anchor="middle" style="font:10px Droid Sans,Trebuchet MS,Arial,Helvetica,sans-serif;stroke:none;fill:#000000">0.6</text><text x="255.06864547729373" y="297.9244194030781" text-anchor="middle" style="font:10px Droid Sans,Trebuchet MS,Arial,Helvetica,sans-serif;stroke:none;fill:#000000">0.8</text><text x="293.2156181335439" y="297.9244194030781" text-anchor="middle" style="font:10px Droid Sans,Trebuchet MS,Arial,Helvetica,sans-serif;stroke:none;fill:#000000">1</text><text x="331.3625907897942" y="297.9244194030781" text-anchor="middle" style="font:10px Droid Sans,Trebuchet MS,Arial,Helvetica,sans-serif;stroke:none;fill:#000000">1.2</text><text x="369.50956344604435" y="297.9244194030781" text-anchor="middle" style="font:10px Droid Sans,Trebuchet MS,Arial,Helvetica,sans-serif;stroke:none;fill:#000000">1.4</text><text x="407.65653610229464" y="297.9244194030781" text-anchor="middle" style="font:10px Droid Sans,Trebuchet MS,Arial,Helvetica,sans-serif;stroke:none;fill:#000000">1.6</text><text x="445.8035087585448" y="297.9244194030781" text-anchor="middle" style="font:10px Droid Sans,Trebuchet MS,Arial,Helvetica,sans-serif;stroke:none;fill:#000000">1.8</text><text x="483.9504814147951" y="297.9244194030781" text-anchor="middle" style="font:10px Droid Sans,Trebuchet MS,Arial,Helvetica,sans-serif;stroke:none;fill:#000000">2</text><text x="522.0974540710453" y="297.9244194030781" text-anchor="middle" style="font:10px Droid Sans,Trebuchet MS,Arial,Helvetica,sans-serif;stroke:none;fill:#000000">2.2</text><text x="560.2444267272956" y="297.9244194030781" text-anchor="middle" style="font:10px Droid Sans,Trebuchet MS,Arial,Helvetica,sans-serif;stroke:none;fill:#000000">2.4</text><text x="598.3913993835458" y="297.9244194030781" text-anchor="middle" style="font:10px Droid Sans,Trebuchet MS,Arial,Helvetica,sans-serif;stroke:none;fill:#000000">2.6</text><text x="636.5383720397962" y="297.9244194030781" text-anchor="middle" style="font:10px Droid Sans,Trebuchet MS,Arial,Helvetica,sans-serif;stroke:none;fill:#000000">2.8</text><path d="M-10.00 200.00 L-0.25 93.26 L0.75 93.26 L2.75 93.28 L4.75 93.29 L6.75 93.31 L8.75 93.33 L10.75 93.34 L12.75 93.36 L14.75 93.37 L16.75 93.39 L18.75 93.41 L20.75 93.42 L22.75 93.44 L24.75 93.46 L26.75 93.48 L28.75 93.50 L30.75 93.51 L32.75 93.53 L34.75 93.55 L36.75 93.57 L38.75 93.59 L40.75 93.61 L42.75 93.63 L44.75 93.65 L46.75 93.67 L48.75 93.69 L50.75 93.72 L52.75 93.74 L54.75 93.76 L56.75 93.78 L58.75 93.81 L60.75 93.83 L62.75 93.85 L64.75 93.88 L66.75 93.90 L68.75 93.93 L70.75 93.95 L72.75 93.98 L74.75 94.01 L76.75 94.03 L78.75 94.06 L80.75 94.09 L82.75 94.12 L84.75 94.15 L86.75 94.18 L88.75 94.21 L90.75 94.24 L92.75 94.27 L94.75 94.30 L96.75 94.34 L98.75 94.37 L100.75 94.40 L102.75 94.44 L104.75 94.47 L106.75 94.51 L108.75 94.55 L110.75 94.59 L112.75 94.63 L114.75 94.67 L116.75 94.71 L118.75 94.75 L120.75 94.79 L122.75 94.83 L124.75 94.88 L126.75 94.92 L128.75 94.97 L130.75 95.02 L132.75 95.07 L134.75 95.12 L136.75 95.17 L138.75 95.22 L140.75 95.28 L142.75 95.33 L144.75 95.39 L146.75 95.45 L148.75 95.51 L150.75 95.57 L152.75 95.64 L154.75 95.70 L156.75 95.77 L158.75 95.84 L160.75 95.91 L162.75 95.98 L164.75 96.06 L166.75 96.14 L168.75 96.22 L170.75 96.30 L172.75 96.39 L174.75 96.48 L176.75 96.57 L178.75 96.67 L180.75 96.77 L182.75 96.87 L184.75 96.98 L186.75 97.09 L188.75 97.20 L190.75 97.32 L192.75 97.44 L194.75 97.57 L196.75 97.71 L198.75 97.85 L200.75 97.99 L202.75 98.14 L204.75 98.30 L206.75 98.47 L208.75 98.64 L210.75 98.82 L212.75 99.01 L214.75 99.21 L216.75 99.42 L218.75 99.65 L220.75 99.88 L222.75 100.13 L224.75 100.39 L226.75 100.66 L228.75 100.96 L230.75 101.27 L232.75 101.60 L234.75 101.95 L236.75 102.33 L238.75 102.73 L240.75 103.16 L242.75 103.63 L244.75 104.13 L246.75 104.68 L248.75 105.27 L250.75 105.91 L252.75 106.61 L254.75 107.38 L256.75 108.23 L258.75 109.17 L260.75 110.22 L262.66 111.33 L264.38 112.45 L265.92 113.55 L267.32 114.65 L268.60 115.74 L269.76 116.83 L270.83 117.91 L271.82 118.99 L272.74 120.06 L273.60 121.13 L274.40 122.20 L275.15 123.26 L275.85 124.33 L276.51 125.39 L277.14 126.44 L277.73 127.50 L278.29 128.55 L278.82 129.60 L279.33 130.65 L279.82 131.69 L280.28 132.74 L280.73 133.78 L281.15 134.82 L281.56 135.86 L281.95 136.90 L282.33 137.94 L282.70 138.97 L283.05 140.01 L283.39 141.04 L283.72 142.07 L284.04 143.10 L284.35 144.13 L284.65 145.16 L284.94 146.19 L285.23 147.22 L285.51 148.24 L285.78 149.27 L286.04 150.29 L286.30 151.31 L286.55 152.34 L286.79 153.36 L287.04 154.38 L287.27 155.40 L287.50 156.42 L287.73 157.43 L287.95 158.45 L288.17 159.47 L288.39 160.48 L288.60 161.50 L288.81 162.51 L289.02 163.53 L289.22 164.54 L289.42 165.55 L289.62 166.57 L289.82 167.58 L290.01 168.59 L290.20 169.60 L290.39 170.61 L290.58 171.62 L290.76 172.63 L290.95 173.63 L291.13 174.64 L291.31 175.65 L291.49 176.65 L291.67 177.66 L291.85 178.66 L292.03 179.67 L292.21 180.67 L292.38 181.67 L292.56 182.68 L292.73 183.68 L292.91 184.68 L293.08 185.68 L293.26 186.68 L293.43 187.68 L293.61 188.68 L293.78 189.68 L293.96 190.68 L294.13 191.68 L294.31 192.67 L294.48 193.67 L294.66 194.67 L294.84 195.66 L295.02 196.66 L295.20 197.65 L295.38 198.64 L295.56 199.64 L295.74 200.63 L295.92 201.62 L296.11 202.61 L296.30 203.61 L296.48 204.60 L296.67 205.59 L296.87 206.58 L297.06 207.56 L297.26 208.55 L297.46 209.54 L297.66 210.53 L297.86 211.51 L298.07 212.50 L298.28 213.49 L298.49 214.47 L298.71 215.45 L298.93 216.44 L299.15 217.42 L299.38 218.40 L299.61 219.38 L299.84 220.36 L300.08 221.34 L300.33 222.32 L300.58 223.30 L300.83 224.28 L301.10 225.26 L301.36 226.23 L301.64 227.21 L301.92 228.18 L302.21 229.16 L302.50 230.13 L302.81 231.10 L303.12 232.07 L303.44 233.04 L303.78 234.01 L304.12 234.98 L304.47 235.95 L304.84 236.92 L305.22 237.88 L305.61 238.85 L306.01 239.81 L306.43 240.77 L306.87 241.74 L307.33 242.70 L307.80 243.65 L308.30 244.61 L308.81 245.57 L309.35 246.52 L309.92 247.48 L310.51 248.43 L311.14 249.38 L311.79 250.33 L312.48 251.27 L313.21 252.22 L313.99 253.16 L314.81 254.10 L315.68 255.04 L316.61 255.98 L317.60 256.91 L318.66 257.84 L319.80 258.77 L321.03 259.70 L322.35 260.62 L323.78 261.54 L325.34 262.46 L327.04 263.37 L328.91 264.28 L330.91 265.16 L332.91 265.96 L334.91 266.69 L336.91 267.35 L338.91 267.96 L340.91 268.53 L342.91 269.04 L344.91 269.52 L346.91 269.97 L348.91 270.38 L350.91 270.77 L352.91 271.13 L354.91 271.47 L356.91 271.79 L358.91 272.09 L360.91 272.37 L362.91 272.64 L364.91 272.89 L366.91 273.13 L368.91 273.36 L370.91 273.57 L372.91 273.77 L374.91 273.97 L376.91 274.15 L378.91 274.33 L380.91 274.50 L382.91 274.66 L384.91 274.81 L386.91 274.96 L388.91 275.10 L390.91 275.24 L392.91 275.37 L394.91 275.50 L396.91 275.62 L398.91 275.73 L400.91 275.84 L402.91 275.95 L404.91 276.06 L406.91 276.16 L408.91 276.25 L410.91 276.35 L412.91 276.44 L414.91 276.53 L416.91 276.61 L418.91 276.69 L420.91 276.77 L422.91 276.85 L424.91 276.92 L426.91 277.00 L428.91 277.07 L430.91 277.14 L432.91 277.20 L434.91 277.27 L436.91 277.33 L438.91 277.39 L440.91 277.45 L442.91 277.51 L444.91 277.57 L446.91 277.62 L448.91 277.67 L450.91 277.73 L452.91 277.78 L454.91 277.83 L456.91 277.87 L458.91 277.92 L460.91 277.97 L462.91 278.01 L464.91 278.06 L466.91 278.10 L468.91 278.14 L470.91 278.18 L472.91 278.22 L474.91 278.26 L476.91 278.30 L478.91 278.34 L480.91 278.38 L482.91 278.41 L484.91 278.45 L486.91 278.48 L488.91 278.52 L490.91 278.55 L492.91 278.58 L494.91 278.61 L496.91 278.64 L498.91 278.67 L500.91 278.70 L502.91 278.73 L504.91 278.76 L506.91 278.79 L508.91 278.82 L510.91 278.85 L512.91 278.87 L514.91 278.90 L516.91 278.93 L518.91 278.95 L520.91 278.98 L522.91 279.00 L524.91 279.02 L526.91 279.05 L528.91 279.07 L530.91 279.09 L532.91 279.12 L534.91 279.14 L536.91 279.16 L538.91 279.18 L540.91 279.20 L542.91 279.22 L544.91 279.24 L546.91 279.27 L548.91 279.28 L550.91 279.30 L552.91 279.32 L554.91 279.34 L556.91 279.36 L558.91 279.38 L560.91 279.40 L562.91 279.42 L564.91 279.43 L566.91 279.45 L568.91 279.47 L570.91 279.48 L572.91 279.50 L574.91 279.52 L576.91 279.53 L578.91 279.55 L580.91 279.56 L582.91 279.58 L584.91 279.59 L586.91 279.61 L588.91 279.62 L590.91 279.64 L592.91 279.65 L594.91 279.67 L596.91 279.68 L598.91 279.70 L600.91 279.71 L602.91 279.72 L604.91 279.74 L606.91 279.75 L608.91 279.76 L610.91 279.78 L612.91 279.79 L614.91 279.80 L616.91 279.81 L618.91 279.82 L620.91 279.84 L622.91 279.85 L624.91 279.86 L626.91 279.87 L628.91 279.88 L630.91 279.89 L632.91 279.91 L634.91 279.92 L636.91 279.93 L638.91 279.94 L640.91 279.95 L642.91 279.96 L644.91 279.97 L646.91 279.98 L648.91 279.99 " style="fill:none;stroke:#FF0000;stroke-width:1;" /><path d="M-10.00 200.00 L-0.25 89.69 L0.75 89.46 L2.75 89.02 L4.75 88.60 L6.75 88.20 L8.75 87.82 L10.75 87.45 L12.75 87.10 L14.75 86.77 L16.75 86.46 L18.75 86.16 L20.75 85.89 L22.75 85.63 L24.75 85.39 L26.75 85.17 L28.75 84.97 L30.75 84.79 L32.75 84.63 L34.75 84.48 L36.75 84.36 L38.75 84.25 L40.75 84.17 L42.75 84.10 L44.75 84.05 L46.75 84.02 L48.75 84.01 L50.75 84.02 L52.75 84.04 L54.75 84.09 L56.75 84.16 L58.75 84.24 L60.75 84.34 L62.75 84.47 L64.75 84.61 L66.75 84.77 L68.75 84.95 L70.75 85.15 L72.75 85.36 L74.75 85.60 L76.75 85.85 L78.75 86.13 L80.75 86.42 L82.75 86.73 L84.75 87.06 L86.75 87.40 L88.75 87.77 L90.75 88.15 L92.75 88.55 L94.75 88.97 L96.75 89.40 L98.75 89.86 L100.75 90.33 L102.75 90.82 L104.75 91.32 L106.75 91.84 L108.75 92.38 L110.75 92.94 L112.75 93.51 L114.75 94.10 L116.75 94.70 L118.75 95.33 L120.75 95.96 L122.75 96.62 L124.75 97.28 L126.75 97.97 L128.75 98.67 L130.75 99.38 L132.75 100.11 L134.75 100.85 L136.75 101.61 L138.75 102.38 L140.75 103.17 L142.75 103.96 L144.75 104.78 L146.75 105.60 L148.75 106.44 L150.75 107.29 L152.75 108.16 L154.75 109.04 L156.75 109.93 L158.75 110.83 L160.75 111.74 L162.75 112.66 L164.75 113.60 L166.75 114.55 L168.75 115.50 L170.75 116.47 L172.75 117.45 L174.75 118.44 L176.75 119.43 L178.75 120.44 L180.74 121.45 L182.70 122.46 L184.65 123.47 L186.59 124.48 L188.51 125.48 L190.41 126.49 L192.30 127.50 L194.18 128.50 L196.05 129.51 L197.90 130.52 L199.74 131.52 L201.58 132.53 L203.40 133.53 L205.21 134.54 L207.01 135.54 L208.81 136.55 L210.60 137.55 L212.38 138.56 L214.15 139.56 L215.91 140.56 L217.67 141.57 L219.42 142.57 L221.17 143.57 L222.91 144.58 L224.65 145.58 L226.38 146.58 L228.11 147.58 L229.83 148.59 L231.55 149.59 L233.27 150.59 L234.98 151.59 L236.70 152.59 L238.40 153.59 L240.11 154.59 L241.81 155.60 L243.51 156.60 L245.22 157.60 L246.91 158.60 L248.61 159.60 L250.31 160.60 L252.01 161.60 L253.70 162.60 L255.40 163.60 L257.10 164.60 L258.79 165.60 L260.49 166.60 L262.19 167.60 L263.89 168.60 L265.59 169.60 L267.29 170.59 L269.00 171.59 L270.70 172.59 L272.41 173.59 L274.12 174.59 L275.84 175.59 L277.55 176.59 L279.27 177.58 L281.00 178.58 L282.72 179.58 L284.46 180.58 L286.19 181.57 L287.93 182.57 L289.67 183.57 L291.42 184.57 L293.18 185.56 L294.93 186.56 L296.70 187.56 L298.47 188.55 L300.25 189.55 L302.03 190.55 L303.82 191.54 L305.62 192.54 L307.42 193.53 L309.23 194.53 L311.05 195.52 L312.88 196.52 L314.71 197.52 L316.56 198.51 L318.41 199.51 L320.27 200.50 L322.14 201.50 L324.03 202.49 L325.92 203.48 L327.82 204.48 L329.74 205.47 L331.66 206.47 L333.60 207.46 L335.55 208.45 L337.52 209.45 L339.49 210.44 L341.48 211.43 L343.48 212.42 L345.48 213.41 L347.48 214.38 L349.48 215.35 L351.48 216.31 L353.48 217.26 L355.48 218.21 L357.48 219.15 L359.48 220.08 L361.48 221.00 L363.48 221.91 L365.48 222.82 L367.48 223.72 L369.48 224.60 L371.48 225.49 L373.48 226.36 L375.48 227.22 L377.48 228.08 L379.48 228.93 L381.48 229.77 L383.48 230.60 L385.48 231.42 L387.48 232.24 L389.48 233.04 L391.48 233.84 L393.48 234.63 L395.48 235.41 L397.48 236.18 L399.48 236.95 L401.48 237.70 L403.48 238.45 L405.48 239.19 L407.48 239.92 L409.48 240.64 L411.48 241.35 L413.48 242.05 L415.48 242.75 L417.48 243.44 L419.48 244.11 L421.48 244.78 L423.48 245.45 L425.48 246.10 L427.48 246.74 L429.48 247.38 L431.48 248.01 L433.48 248.63 L435.48 249.24 L437.48 249.85 L439.48 250.44 L441.48 251.03 L443.48 251.61 L445.48 252.18 L447.48 252.74 L449.48 253.30 L451.48 253.84 L453.48 254.38 L455.48 254.92 L457.48 255.44 L459.48 255.96 L461.48 256.46 L463.48 256.97 L465.48 257.46 L467.48 257.94 L469.48 258.42 L471.48 258.89 L473.48 259.36 L475.48 259.81 L477.48 260.26 L479.48 260.71 L481.48 261.14 L483.48 261.57 L485.48 261.99 L487.48 262.40 L489.48 262.81 L491.48 263.21 L493.48 263.61 L495.48 263.99 L497.48 264.37 L499.48 264.75 L501.48 265.12 L503.48 265.48 L505.48 265.83 L507.48 266.18 L509.48 266.52 L511.48 266.86 L513.48 267.19 L515.48 267.52 L517.48 267.84 L519.48 268.15 L521.48 268.46 L523.48 268.76 L525.48 269.05 L527.48 269.34 L529.48 269.63 L531.48 269.91 L533.48 270.18 L535.48 270.45 L537.48 270.72 L539.48 270.98 L541.48 271.23 L543.48 271.48 L545.48 271.72 L547.48 271.96 L549.48 272.20 L551.48 272.43 L553.48 272.65 L555.48 272.87 L557.48 273.09 L559.48 273.30 L561.48 273.51 L563.48 273.71 L565.48 273.91 L567.48 274.10 L569.48 274.29 L571.48 274.48 L573.48 274.66 L575.48 274.84 L577.48 275.02 L579.48 275.19 L581.48 275.36 L583.48 275.52 L585.48 275.68 L587.48 275.84 L589.48 275.99 L591.48 276.14 L593.48 276.29 L595.48 276.43 L597.48 276.57 L599.48 276.71 L601.48 276.84 L603.48 276.97 L605.48 277.10 L607.48 277.22 L609.48 277.35 L611.48 277.47 L613.48 277.58 L615.48 277.70 L617.48 277.81 L619.48 277.92 L621.48 278.02 L623.48 278.12 L625.48 278.22 L627.48 278.32 L629.48 278.42 L631.48 278.51 L633.48 278.60 L635.48 278.69 L637.48 278.78 L639.48 278.86 L641.48 278.95 L643.48 279.03 L645.48 279.11 L647.48 279.18 L649.48 279.26 " style="fill:none;stroke:#0095FF;stroke-width:1;" /></g></svg>