<svg width="838" height="252" xmlns="http://www.w3.org/2000/svg" xmlns:xlink="http://www.w3.org/1999/xlink" overflow="hidden"><defs><clipPath id="clip0"><rect x="124" y="241" width="838" height="252"/></clipPath></defs><g clip-path="url(#clip0)" transform="translate(-124 -241)"><path d="M301 266.5C301 256.283 309.283 248 319.5 248 329.717 248 338 256.283 338 266.5 338 276.717 329.717 285 319.5 285 309.283 285 301 276.717 301 266.5Z" stroke="#0070C0" stroke-width="2" stroke-miterlimit="8" fill="#00B0F0" fill-rule="evenodd" fill-opacity="0.278431"/><text font-family="Calibri,Calibri_MSFontService,sans-serif" font-weight="400" font-size="21" transform="translate(314.715 274)">S</text><path d="M230 343.5C230 333.283 238.283 325 248.5 325 258.717 325 267 333.283 267 343.5 267 353.717 258.717 362 248.5 362 238.283 362 230 353.717 230 343.5Z" stroke="#0070C0" stroke-width="2" stroke-miterlimit="8" fill="#00B0F0" fill-rule="evenodd" fill-opacity="0.278431"/><path d="M373 343.5C373 333.283 381.283 325 391.5 325 401.717 325 410 333.283 410 343.5 410 353.717 401.717 362 391.5 362 381.283 362 373 353.717 373 343.5Z" stroke="#0070C0" stroke-width="2" stroke-miterlimit="8" fill="#00B0F0" fill-rule="evenodd" fill-opacity="0.278431"/><path d="M179 400.5C179 390.283 187.283 382 197.5 382 207.717 382 216 390.283 216 400.5 216 410.717 207.717 419 197.5 419 187.283 419 179 410.717 179 400.5Z" stroke="#0070C0" stroke-width="2" stroke-miterlimit="8" fill="#00B0F0" fill-rule="evenodd" fill-opacity="0.278431"/><path d="M279 400.5C279 390.283 287.283 382 297.5 382 307.717 382 316 390.283 316 400.5 316 410.717 307.717 419 297.5 419 287.283 419 279 410.717 279 400.5Z" stroke="#0070C0" stroke-width="2" stroke-miterlimit="8" fill="#00B0F0" fill-rule="evenodd" fill-opacity="0.278431"/><path d="M323 400.5C323 390.283 331.283 382 341.5 382 351.717 382 360 390.283 360 400.5 360 410.717 351.717 419 341.5 419 331.283 419 323 410.717 323 400.5Z" stroke="#0070C0" stroke-width="2" stroke-miterlimit="8" fill="#00B0F0" fill-rule="evenodd" fill-opacity="0.278431"/><path d="M427 400.5C427 390.283 435.283 382 445.5 382 455.717 382 464 390.283 464 400.5 464 410.717 455.717 419 445.5 419 435.283 419 427 410.717 427 400.5Z" stroke="#0070C0" stroke-width="2" stroke-miterlimit="8" fill="#00B0F0" fill-rule="evenodd" fill-opacity="0.278431"/><path d="M0.25163-0.218617 36.9768 42.0523 36.4735 42.4896-0.25163 0.218617ZM38.8703 38.641 44.5954 51.3297 32.8311 43.8879Z" transform="matrix(-1 0 0 1 307.095 280.5)"/><path d="M333.749 280.278 371.495 322.648 370.997 323.091 333.251 280.722ZM373.346 319.213 379.228 331.83 367.372 324.535Z"/><path d="M0.257554-0.211606 17.4311 20.691 16.916 21.1142-0.257554 0.211606ZM19.4178 17.3331 24.7914 30.1745 13.2365 22.4116Z" transform="matrix(-1 0 0 1 236.291 357.5)"/><path d="M262.768 357.302 277.883 377.816 277.346 378.211 262.232 357.698ZM280.044 374.568 284.733 387.675 273.603 379.313Z"/><path d="M0.261911-0.206188 16.8031 20.8053 16.2793 21.2177-0.261911 0.206188ZM18.8594 17.4896 23.964 30.4403 12.5735 22.4381Z" transform="matrix(-1 0 0 1 378.464 357.5)"/><path d="M405.747 357.276 425.119 378.573 424.626 379.022 405.253 357.724ZM426.934 375.12 432.947 387.675 421.016 380.503Z"/><path d="M678 332.5C678 322.283 686.283 314 696.5 314 706.717 314 715 322.283 715 332.5 715 342.717 706.717 351 696.5 351 686.283 351 678 342.717 678 332.5Z" stroke="#0070C0" stroke-width="2" stroke-miterlimit="8" fill="#00B0F0" fill-rule="evenodd" fill-opacity="0.278431"/><text font-family="Calibri,Calibri_MSFontService,sans-serif" font-weight="400" font-size="21" transform="translate(691.389 340)">S</text><path d="M618 409.5C618 399.283 626.283 391 636.5 391 646.717 391 655 399.283 655 409.5 655 419.717 646.717 428 636.5 428 626.283 428 618 419.717 618 409.5Z" stroke="#0070C0" stroke-width="2" stroke-miterlimit="8" fill="#00B0F0" fill-rule="evenodd" fill-opacity="0.278431"/><path d="M741 409.5C741 399.283 749.283 391 759.5 391 769.717 391 778 399.283 778 409.5 778 419.717 769.717 428 759.5 428 749.283 428 741 419.717 741 409.5Z" stroke="#0070C0" stroke-width="2" stroke-miterlimit="8" fill="#00B0F0" fill-rule="evenodd" fill-opacity="0.278431"/><path d="M0.27844-0.183255 26.8845 40.2424 26.3276 40.609-0.27844 0.183255ZM29.2143 37.1129 33.2033 50.4496 22.5318 41.511Z" transform="matrix(1 0 0 -1 650.5 396.95)"/><path d="M709.769 346.303 739.683 387.077 739.145 387.471 709.231 346.697ZM741.85 383.833 746.512 396.95 735.4 388.565Z"/><path d="M4.09083e-07-0.333333 73.5466-0.333243 73.5466 0.333424-4.09083e-07 0.333333ZM72.2132-3.99991 85.5466 0.000104987 72.2132 4.00009Z" transform="matrix(-1 0 0 1 741.047 409.5)"/><path d="M805.5 246.784C805.5 244.97 806.97 243.5 808.784 243.5L906.216 243.5C908.03 243.5 909.5 244.97 909.5 246.784L909.5 273.216C909.5 275.03 908.03 276.5 906.216 276.5L808.784 276.5C806.97 276.5 805.5 275.03 805.5 273.216Z" stroke="#2B6A77" stroke-width="1.33333" stroke-miterlimit="8" fill="#00664D" fill-rule="evenodd"/><text fill="#FFFFFF" font-family="SimSun,SimSun_MSFontService,sans-serif" font-weight="400" font-size="19" transform="translate(819.56 267)">初始状态</text><path d="M805.5 391.784C805.5 389.97 806.97 388.5 808.784 388.5L906.216 388.5C908.03 388.5 909.5 389.97 909.5 391.784L909.5 418.216C909.5 420.03 908.03 421.5 906.216 421.5L808.784 421.5C806.97 421.5 805.5 420.03 805.5 418.216Z" stroke="#2B6A77" stroke-width="1.33333" stroke-miterlimit="8" fill="#00664D" fill-rule="evenodd"/><text fill="#FFFFFF" font-family="SimSun,SimSun_MSFontService,sans-serif" font-weight="400" font-size="19" transform="translate(819.56 413)">结束状态</text><path d="M821 319.284C821 317.47 822.47 316 824.284 316L889.716 316C891.53 316 893 317.47 893 319.284L893 345.716C893 347.53 891.53 349 889.716 349L824.284 349C822.47 349 821 347.53 821 345.716Z" stroke="#0070C0" stroke-width="2" stroke-miterlimit="8" fill="#00B0F0" fill-rule="evenodd" fill-opacity="0.278431"/><text font-family="SimSun,SimSun_MSFontService,sans-serif" font-weight="400" font-size="19" transform="translate(833.56 339)">状态<tspan font-family="Times New Roman,Times New Roman_MSFontService,sans-serif" font-style="italic" font-size="19" x="37.3333" y="0">n</tspan></text><path d="M0.000646368-0.333333 93.7396-0.151563 93.7383 0.515103-0.000646368 0.333333ZM92.4135-3.82081 105.739 0.205039 92.3979 4.17918Z" transform="matrix(-1 0 0 1 821.239 327.5)"/><path d="M12.0007-0.310063 105.74-0.128293 105.738 0.538372 11.9994 0.356602ZM13.3256 4.02585 0 0 13.3411-3.97414Z" transform="matrix(-1 0 0 1 821.239 337.5)"/><path d="M0.333333-8.79016e-07 0.333407 27.8123-0.33326 27.8123-0.333333 8.79016e-07ZM4.00007 26.4789 0.000104987 39.8123-3.99993 26.479Z" transform="matrix(-1 0 0 1 857.5 276.5)"/><path d="M857.833 349.5 857.833 377.312 857.167 377.312 857.167 349.5ZM861.5 375.979 857.5 389.312 853.5 375.979Z"/><text font-family="Calibri,Calibri_MSFontService,sans-serif" font-weight="400" font-size="24" transform="translate(350.605 271)">function<tspan font-size="24" x="71.1028" y="76">function</tspan><tspan font-size="24" x="-211.454" y="76">function</tspan><tspan font-family="SimSun,SimSun_MSFontService,sans-serif" font-size="21" x="-161.609" y="20">递归树</tspan><tspan font-family="SimSun,SimSun_MSFontService,sans-serif" font-size="21" x="309.089" y="14">迭代环</tspan><tspan font-family="SimSun,SimSun_MSFontService,sans-serif" font-size="21" x="-202.033" y="203">Tree: </tspan><tspan font-family="SimSun,SimSun_MSFontService,sans-serif" font-size="21" x="-138.033" y="203">到底层发现结果后逐层返回</tspan><tspan font-family="SimSun,SimSun_MSFontService,sans-serif" font-size="21" x="117.967" y="203">。</tspan><tspan font-family="SimSun,SimSun_MSFontService,sans-serif" font-size="21" x="277.42" y="205">Loop: </tspan><tspan font-family="SimSun,SimSun_MSFontService,sans-serif" font-size="21" x="341.42" y="205">重复处理并自增迭代次数。</tspan></text></g></svg>