<svg width="1332" height="185" viewBox="0 0 1332 185" fill="none" xmlns="http://www.w3.org/2000/svg">
<rect y="107" width="230" height="78" rx="10" fill="#D5D5D5"/>
<path d="M32.0078 136.938H34.2578V148.48C34.2578 149.762 33.9727 150.828 33.4023 151.68C32.832 152.531 32.0742 153.172 31.1289 153.602C30.1914 154.023 29.1719 154.234 28.0703 154.234C26.9141 154.234 25.8672 154.023 24.9297 153.602C24 153.172 23.2617 152.531 22.7148 151.68C22.1758 150.828 21.9062 149.762 21.9062 148.48V136.938H24.1445V148.48C24.1445 149.371 24.3086 150.105 24.6367 150.684C24.9648 151.262 25.4219 151.691 26.0078 151.973C26.6016 152.254 27.2891 152.395 28.0703 152.395C28.8594 152.395 29.5469 152.254 30.1328 151.973C30.7266 151.691 31.1875 151.262 31.5156 150.684C31.8438 150.105 32.0078 149.371 32.0078 148.48V136.938ZM44.8633 150.637C44.8633 150.324 44.793 150.035 44.6523 149.77C44.5195 149.496 44.2422 149.25 43.8203 149.031C43.4062 148.805 42.7812 148.609 41.9453 148.445C41.2422 148.297 40.6055 148.121 40.0352 147.918C39.4727 147.715 38.9922 147.469 38.5938 147.18C38.2031 146.891 37.9023 146.551 37.6914 146.16C37.4805 145.77 37.375 145.312 37.375 144.789C37.375 144.289 37.4844 143.816 37.7031 143.371C37.9297 142.926 38.2461 142.531 38.6523 142.188C39.0664 141.844 39.5625 141.574 40.1406 141.379C40.7188 141.184 41.3633 141.086 42.0742 141.086C43.0898 141.086 43.957 141.266 44.6758 141.625C45.3945 141.984 45.9453 142.465 46.3281 143.066C46.7109 143.66 46.9023 144.32 46.9023 145.047H44.7344C44.7344 144.695 44.6289 144.355 44.418 144.027C44.2148 143.691 43.9141 143.414 43.5156 143.195C43.125 142.977 42.6445 142.867 42.0742 142.867C41.4727 142.867 40.9844 142.961 40.6094 143.148C40.2422 143.328 39.9727 143.559 39.8008 143.84C39.6367 144.121 39.5547 144.418 39.5547 144.73C39.5547 144.965 39.5938 145.176 39.6719 145.363C39.7578 145.543 39.9062 145.711 40.1172 145.867C40.3281 146.016 40.625 146.156 41.0078 146.289C41.3906 146.422 41.8789 146.555 42.4727 146.688C43.5117 146.922 44.3672 147.203 45.0391 147.531C45.7109 147.859 46.2109 148.262 46.5391 148.738C46.8672 149.215 47.0312 149.793 47.0312 150.473C47.0312 151.027 46.9141 151.535 46.6797 151.996C46.4531 152.457 46.1211 152.855 45.6836 153.191C45.2539 153.52 44.7383 153.777 44.1367 153.965C43.543 154.145 42.875 154.234 42.1328 154.234C41.0156 154.234 40.0703 154.035 39.2969 153.637C38.5234 153.238 37.9375 152.723 37.5391 152.09C37.1406 151.457 36.9414 150.789 36.9414 150.086H39.1211C39.1523 150.68 39.3242 151.152 39.6367 151.504C39.9492 151.848 40.332 152.094 40.7852 152.242C41.2383 152.383 41.6875 152.453 42.1328 152.453C42.7266 152.453 43.2227 152.375 43.6211 152.219C44.0273 152.062 44.3359 151.848 44.5469 151.574C44.7578 151.301 44.8633 150.988 44.8633 150.637ZM55.1406 154.234C54.2578 154.234 53.457 154.086 52.7383 153.789C52.0273 153.484 51.4141 153.059 50.8984 152.512C50.3906 151.965 50 151.316 49.7266 150.566C49.4531 149.816 49.3164 148.996 49.3164 148.105V147.613C49.3164 146.582 49.4688 145.664 49.7734 144.859C50.0781 144.047 50.4922 143.359 51.0156 142.797C51.5391 142.234 52.1328 141.809 52.7969 141.52C53.4609 141.23 54.1484 141.086 54.8594 141.086C55.7656 141.086 56.5469 141.242 57.2031 141.555C57.8672 141.867 58.4102 142.305 58.832 142.867C59.2539 143.422 59.5664 144.078 59.7695 144.836C59.9727 145.586 60.0742 146.406 60.0742 147.297V148.27H50.6055V146.5H57.9062V146.336C57.875 145.773 57.7578 145.227 57.5547 144.695C57.3594 144.164 57.0469 143.727 56.6172 143.383C56.1875 143.039 55.6016 142.867 54.8594 142.867C54.3672 142.867 53.9141 142.973 53.5 143.184C53.0859 143.387 52.7305 143.691 52.4336 144.098C52.1367 144.504 51.9062 145 51.7422 145.586C51.5781 146.172 51.4961 146.848 51.4961 147.613V148.105C51.4961 148.707 51.5781 149.273 51.7422 149.805C51.9141 150.328 52.1602 150.789 52.4805 151.188C52.8086 151.586 53.2031 151.898 53.6641 152.125C54.1328 152.352 54.6641 152.465 55.2578 152.465C56.0234 152.465 56.6719 152.309 57.2031 151.996C57.7344 151.684 58.1992 151.266 58.5977 150.742L59.9102 151.785C59.6367 152.199 59.2891 152.594 58.8672 152.969C58.4453 153.344 57.9258 153.648 57.3086 153.883C56.6992 154.117 55.9766 154.234 55.1406 154.234ZM64.7734 143.312V154H62.6055V141.32H64.7148L64.7734 143.312ZM68.7344 141.25L68.7227 143.266C68.543 143.227 68.3711 143.203 68.207 143.195C68.0508 143.18 67.8711 143.172 67.668 143.172C67.168 143.172 66.7266 143.25 66.3438 143.406C65.9609 143.562 65.6367 143.781 65.3711 144.062C65.1055 144.344 64.8945 144.68 64.7383 145.07C64.5898 145.453 64.4922 145.875 64.4453 146.336L63.8359 146.688C63.8359 145.922 63.9102 145.203 64.0586 144.531C64.2148 143.859 64.4531 143.266 64.7734 142.75C65.0938 142.227 65.5 141.82 65.9922 141.531C66.4922 141.234 67.0859 141.086 67.7734 141.086C67.9297 141.086 68.1094 141.105 68.3125 141.145C68.5156 141.176 68.6562 141.211 68.7344 141.25ZM80.1602 149.688C80.1602 149.289 80.0977 148.938 79.9727 148.633C79.8555 148.32 79.6445 148.039 79.3398 147.789C79.043 147.539 78.6289 147.301 78.0977 147.074C77.5742 146.848 76.9102 146.617 76.1055 146.383C75.2617 146.133 74.5 145.855 73.8203 145.551C73.1406 145.238 72.5586 144.883 72.0742 144.484C71.5898 144.086 71.2188 143.629 70.9609 143.113C70.7031 142.598 70.5742 142.008 70.5742 141.344C70.5742 140.68 70.7109 140.066 70.9844 139.504C71.2578 138.941 71.6484 138.453 72.1562 138.039C72.6719 137.617 73.2852 137.289 73.9961 137.055C74.707 136.82 75.5 136.703 76.375 136.703C77.6562 136.703 78.7422 136.949 79.6328 137.441C80.5312 137.926 81.2148 138.562 81.6836 139.352C82.1523 140.133 82.3867 140.969 82.3867 141.859H80.1367C80.1367 141.219 80 140.652 79.7266 140.16C79.4531 139.66 79.0391 139.27 78.4844 138.988C77.9297 138.699 77.2266 138.555 76.375 138.555C75.5703 138.555 74.9062 138.676 74.3828 138.918C73.8594 139.16 73.4688 139.488 73.2109 139.902C72.9609 140.316 72.8359 140.789 72.8359 141.32C72.8359 141.68 72.9102 142.008 73.0586 142.305C73.2148 142.594 73.4531 142.863 73.7734 143.113C74.1016 143.363 74.5156 143.594 75.0156 143.805C75.5234 144.016 76.1289 144.219 76.832 144.414C77.8008 144.688 78.6367 144.992 79.3398 145.328C80.043 145.664 80.6211 146.043 81.0742 146.465C81.5352 146.879 81.875 147.352 82.0938 147.883C82.3203 148.406 82.4336 149 82.4336 149.664C82.4336 150.359 82.293 150.988 82.0117 151.551C81.7305 152.113 81.3281 152.594 80.8047 152.992C80.2812 153.391 79.6523 153.699 78.918 153.918C78.1914 154.129 77.3789 154.234 76.4805 154.234C75.6914 154.234 74.9141 154.125 74.1484 153.906C73.3906 153.688 72.6992 153.359 72.0742 152.922C71.457 152.484 70.9609 151.945 70.5859 151.305C70.2188 150.656 70.0352 149.906 70.0352 149.055H72.2852C72.2852 149.641 72.3984 150.145 72.625 150.566C72.8516 150.98 73.1602 151.324 73.5508 151.598C73.9492 151.871 74.3984 152.074 74.8984 152.207C75.4062 152.332 75.9336 152.395 76.4805 152.395C77.2695 152.395 77.9375 152.285 78.4844 152.066C79.0312 151.848 79.4453 151.535 79.7266 151.129C80.0156 150.723 80.1602 150.242 80.1602 149.688ZM90.25 154.234C89.3672 154.234 88.5664 154.086 87.8477 153.789C87.1367 153.484 86.5234 153.059 86.0078 152.512C85.5 151.965 85.1094 151.316 84.8359 150.566C84.5625 149.816 84.4258 148.996 84.4258 148.105V147.613C84.4258 146.582 84.5781 145.664 84.8828 144.859C85.1875 144.047 85.6016 143.359 86.125 142.797C86.6484 142.234 87.2422 141.809 87.9062 141.52C88.5703 141.23 89.2578 141.086 89.9688 141.086C90.875 141.086 91.6562 141.242 92.3125 141.555C92.9766 141.867 93.5195 142.305 93.9414 142.867C94.3633 143.422 94.6758 144.078 94.8789 144.836C95.082 145.586 95.1836 146.406 95.1836 147.297V148.27H85.7148V146.5H93.0156V146.336C92.9844 145.773 92.8672 145.227 92.6641 144.695C92.4688 144.164 92.1562 143.727 91.7266 143.383C91.2969 143.039 90.7109 142.867 89.9688 142.867C89.4766 142.867 89.0234 142.973 88.6094 143.184C88.1953 143.387 87.8398 143.691 87.543 144.098C87.2461 144.504 87.0156 145 86.8516 145.586C86.6875 146.172 86.6055 146.848 86.6055 147.613V148.105C86.6055 148.707 86.6875 149.273 86.8516 149.805C87.0234 150.328 87.2695 150.789 87.5898 151.188C87.918 151.586 88.3125 151.898 88.7734 152.125C89.2422 152.352 89.7734 152.465 90.3672 152.465C91.1328 152.465 91.7812 152.309 92.3125 151.996C92.8438 151.684 93.3086 151.266 93.707 150.742L95.0195 151.785C94.7461 152.199 94.3984 152.594 93.9766 152.969C93.5547 153.344 93.0352 153.648 92.418 153.883C91.8086 154.117 91.0859 154.234 90.25 154.234ZM99.8828 143.312V154H97.7148V141.32H99.8242L99.8828 143.312ZM103.844 141.25L103.832 143.266C103.652 143.227 103.48 143.203 103.316 143.195C103.16 143.18 102.98 143.172 102.777 143.172C102.277 143.172 101.836 143.25 101.453 143.406C101.07 143.562 100.746 143.781 100.48 144.062C100.215 144.344 100.004 144.68 99.8477 145.07C99.6992 145.453 99.6016 145.875 99.5547 146.336L98.9453 146.688C98.9453 145.922 99.0195 145.203 99.168 144.531C99.3242 143.859 99.5625 143.266 99.8828 142.75C100.203 142.227 100.609 141.82 101.102 141.531C101.602 141.234 102.195 141.086 102.883 141.086C103.039 141.086 103.219 141.105 103.422 141.145C103.625 141.176 103.766 141.211 103.844 141.25ZM109.914 152.043L113.383 141.32H115.598L111.039 154H109.586L109.914 152.043ZM107.02 141.32L110.594 152.102L110.84 154H109.387L104.793 141.32H107.02ZM120.039 141.32V154H117.859V141.32H120.039ZM117.695 137.957C117.695 137.605 117.801 137.309 118.012 137.066C118.23 136.824 118.551 136.703 118.973 136.703C119.387 136.703 119.703 136.824 119.922 137.066C120.148 137.309 120.262 137.605 120.262 137.957C120.262 138.293 120.148 138.582 119.922 138.824C119.703 139.059 119.387 139.176 118.973 139.176C118.551 139.176 118.23 139.059 118.012 138.824C117.801 138.582 117.695 138.293 117.695 137.957ZM128.594 152.453C129.109 152.453 129.586 152.348 130.023 152.137C130.461 151.926 130.82 151.637 131.102 151.27C131.383 150.895 131.543 150.469 131.582 149.992H133.645C133.605 150.742 133.352 151.441 132.883 152.09C132.422 152.73 131.816 153.25 131.066 153.648C130.316 154.039 129.492 154.234 128.594 154.234C127.641 154.234 126.809 154.066 126.098 153.73C125.395 153.395 124.809 152.934 124.34 152.348C123.879 151.762 123.531 151.09 123.297 150.332C123.07 149.566 122.957 148.758 122.957 147.906V147.414C122.957 146.562 123.07 145.758 123.297 145C123.531 144.234 123.879 143.559 124.34 142.973C124.809 142.387 125.395 141.926 126.098 141.59C126.809 141.254 127.641 141.086 128.594 141.086C129.586 141.086 130.453 141.289 131.195 141.695C131.938 142.094 132.52 142.641 132.941 143.336C133.371 144.023 133.605 144.805 133.645 145.68H131.582C131.543 145.156 131.395 144.684 131.137 144.262C130.887 143.84 130.543 143.504 130.105 143.254C129.676 142.996 129.172 142.867 128.594 142.867C127.93 142.867 127.371 143 126.918 143.266C126.473 143.523 126.117 143.875 125.852 144.32C125.594 144.758 125.406 145.246 125.289 145.785C125.18 146.316 125.125 146.859 125.125 147.414V147.906C125.125 148.461 125.18 149.008 125.289 149.547C125.398 150.086 125.582 150.574 125.84 151.012C126.105 151.449 126.461 151.801 126.906 152.066C127.359 152.324 127.922 152.453 128.594 152.453ZM141.344 154.234C140.461 154.234 139.66 154.086 138.941 153.789C138.23 153.484 137.617 153.059 137.102 152.512C136.594 151.965 136.203 151.316 135.93 150.566C135.656 149.816 135.52 148.996 135.52 148.105V147.613C135.52 146.582 135.672 145.664 135.977 144.859C136.281 144.047 136.695 143.359 137.219 142.797C137.742 142.234 138.336 141.809 139 141.52C139.664 141.23 140.352 141.086 141.062 141.086C141.969 141.086 142.75 141.242 143.406 141.555C144.07 141.867 144.613 142.305 145.035 142.867C145.457 143.422 145.77 144.078 145.973 144.836C146.176 145.586 146.277 146.406 146.277 147.297V148.27H136.809V146.5H144.109V146.336C144.078 145.773 143.961 145.227 143.758 144.695C143.562 144.164 143.25 143.727 142.82 143.383C142.391 143.039 141.805 142.867 141.062 142.867C140.57 142.867 140.117 142.973 139.703 143.184C139.289 143.387 138.934 143.691 138.637 144.098C138.34 144.504 138.109 145 137.945 145.586C137.781 146.172 137.699 146.848 137.699 147.613V148.105C137.699 148.707 137.781 149.273 137.945 149.805C138.117 150.328 138.363 150.789 138.684 151.188C139.012 151.586 139.406 151.898 139.867 152.125C140.336 152.352 140.867 152.465 141.461 152.465C142.227 152.465 142.875 152.309 143.406 151.996C143.938 151.684 144.402 151.266 144.801 150.742L146.113 151.785C145.84 152.199 145.492 152.594 145.07 152.969C144.648 153.344 144.129 153.648 143.512 153.883C142.902 154.117 142.18 154.234 141.344 154.234ZM148.844 152.852C148.844 152.484 148.957 152.176 149.184 151.926C149.418 151.668 149.754 151.539 150.191 151.539C150.629 151.539 150.961 151.668 151.188 151.926C151.422 152.176 151.539 152.484 151.539 152.852C151.539 153.211 151.422 153.516 151.188 153.766C150.961 154.016 150.629 154.141 150.191 154.141C149.754 154.141 149.418 154.016 149.184 153.766C148.957 153.516 148.844 153.211 148.844 152.852ZM160.211 152.453C160.727 152.453 161.203 152.348 161.641 152.137C162.078 151.926 162.438 151.637 162.719 151.27C163 150.895 163.16 150.469 163.199 149.992H165.262C165.223 150.742 164.969 151.441 164.5 152.09C164.039 152.73 163.434 153.25 162.684 153.648C161.934 154.039 161.109 154.234 160.211 154.234C159.258 154.234 158.426 154.066 157.715 153.73C157.012 153.395 156.426 152.934 155.957 152.348C155.496 151.762 155.148 151.09 154.914 150.332C154.688 149.566 154.574 148.758 154.574 147.906V147.414C154.574 146.562 154.688 145.758 154.914 145C155.148 144.234 155.496 143.559 155.957 142.973C156.426 142.387 157.012 141.926 157.715 141.59C158.426 141.254 159.258 141.086 160.211 141.086C161.203 141.086 162.07 141.289 162.812 141.695C163.555 142.094 164.137 142.641 164.559 143.336C164.988 144.023 165.223 144.805 165.262 145.68H163.199C163.16 145.156 163.012 144.684 162.754 144.262C162.504 143.84 162.16 143.504 161.723 143.254C161.293 142.996 160.789 142.867 160.211 142.867C159.547 142.867 158.988 143 158.535 143.266C158.09 143.523 157.734 143.875 157.469 144.32C157.211 144.758 157.023 145.246 156.906 145.785C156.797 146.316 156.742 146.859 156.742 147.414V147.906C156.742 148.461 156.797 149.008 156.906 149.547C157.016 150.086 157.199 150.574 157.457 151.012C157.723 151.449 158.078 151.801 158.523 152.066C158.977 152.324 159.539 152.453 160.211 152.453ZM170.055 136V154H167.875V136H170.055ZM181.012 151.832V145.305C181.012 144.805 180.91 144.371 180.707 144.004C180.512 143.629 180.215 143.34 179.816 143.137C179.418 142.934 178.926 142.832 178.34 142.832C177.793 142.832 177.312 142.926 176.898 143.113C176.492 143.301 176.172 143.547 175.938 143.852C175.711 144.156 175.598 144.484 175.598 144.836H173.43C173.43 144.383 173.547 143.934 173.781 143.488C174.016 143.043 174.352 142.641 174.789 142.281C175.234 141.914 175.766 141.625 176.383 141.414C177.008 141.195 177.703 141.086 178.469 141.086C179.391 141.086 180.203 141.242 180.906 141.555C181.617 141.867 182.172 142.34 182.57 142.973C182.977 143.598 183.18 144.383 183.18 145.328V151.234C183.18 151.656 183.215 152.105 183.285 152.582C183.363 153.059 183.477 153.469 183.625 153.812V154H181.363C181.254 153.75 181.168 153.418 181.105 153.004C181.043 152.582 181.012 152.191 181.012 151.832ZM181.387 146.312L181.41 147.836H179.219C178.602 147.836 178.051 147.887 177.566 147.988C177.082 148.082 176.676 148.227 176.348 148.422C176.02 148.617 175.77 148.863 175.598 149.16C175.426 149.449 175.34 149.789 175.34 150.18C175.34 150.578 175.43 150.941 175.609 151.27C175.789 151.598 176.059 151.859 176.418 152.055C176.785 152.242 177.234 152.336 177.766 152.336C178.43 152.336 179.016 152.195 179.523 151.914C180.031 151.633 180.434 151.289 180.73 150.883C181.035 150.477 181.199 150.082 181.223 149.699L182.148 150.742C182.094 151.07 181.945 151.434 181.703 151.832C181.461 152.23 181.137 152.613 180.73 152.98C180.332 153.34 179.855 153.641 179.301 153.883C178.754 154.117 178.137 154.234 177.449 154.234C176.59 154.234 175.836 154.066 175.188 153.73C174.547 153.395 174.047 152.945 173.688 152.383C173.336 151.812 173.16 151.176 173.16 150.473C173.16 149.793 173.293 149.195 173.559 148.68C173.824 148.156 174.207 147.723 174.707 147.379C175.207 147.027 175.809 146.762 176.512 146.582C177.215 146.402 178 146.312 178.867 146.312H181.387ZM193.973 150.637C193.973 150.324 193.902 150.035 193.762 149.77C193.629 149.496 193.352 149.25 192.93 149.031C192.516 148.805 191.891 148.609 191.055 148.445C190.352 148.297 189.715 148.121 189.145 147.918C188.582 147.715 188.102 147.469 187.703 147.18C187.312 146.891 187.012 146.551 186.801 146.16C186.59 145.77 186.484 145.312 186.484 144.789C186.484 144.289 186.594 143.816 186.812 143.371C187.039 142.926 187.355 142.531 187.762 142.188C188.176 141.844 188.672 141.574 189.25 141.379C189.828 141.184 190.473 141.086 191.184 141.086C192.199 141.086 193.066 141.266 193.785 141.625C194.504 141.984 195.055 142.465 195.438 143.066C195.82 143.66 196.012 144.32 196.012 145.047H193.844C193.844 144.695 193.738 144.355 193.527 144.027C193.324 143.691 193.023 143.414 192.625 143.195C192.234 142.977 191.754 142.867 191.184 142.867C190.582 142.867 190.094 142.961 189.719 143.148C189.352 143.328 189.082 143.559 188.91 143.84C188.746 144.121 188.664 144.418 188.664 144.73C188.664 144.965 188.703 145.176 188.781 145.363C188.867 145.543 189.016 145.711 189.227 145.867C189.438 146.016 189.734 146.156 190.117 146.289C190.5 146.422 190.988 146.555 191.582 146.688C192.621 146.922 193.477 147.203 194.148 147.531C194.82 147.859 195.32 148.262 195.648 148.738C195.977 149.215 196.141 149.793 196.141 150.473C196.141 151.027 196.023 151.535 195.789 151.996C195.562 152.457 195.23 152.855 194.793 153.191C194.363 153.52 193.848 153.777 193.246 153.965C192.652 154.145 191.984 154.234 191.242 154.234C190.125 154.234 189.18 154.035 188.406 153.637C187.633 153.238 187.047 152.723 186.648 152.09C186.25 151.457 186.051 150.789 186.051 150.086H188.23C188.262 150.68 188.434 151.152 188.746 151.504C189.059 151.848 189.441 152.094 189.895 152.242C190.348 152.383 190.797 152.453 191.242 152.453C191.836 152.453 192.332 152.375 192.73 152.219C193.137 152.062 193.445 151.848 193.656 151.574C193.867 151.301 193.973 150.988 193.973 150.637ZM206.371 150.637C206.371 150.324 206.301 150.035 206.16 149.77C206.027 149.496 205.75 149.25 205.328 149.031C204.914 148.805 204.289 148.609 203.453 148.445C202.75 148.297 202.113 148.121 201.543 147.918C200.98 147.715 200.5 147.469 200.102 147.18C199.711 146.891 199.41 146.551 199.199 146.16C198.988 145.77 198.883 145.312 198.883 144.789C198.883 144.289 198.992 143.816 199.211 143.371C199.438 142.926 199.754 142.531 200.16 142.188C200.574 141.844 201.07 141.574 201.648 141.379C202.227 141.184 202.871 141.086 203.582 141.086C204.598 141.086 205.465 141.266 206.184 141.625C206.902 141.984 207.453 142.465 207.836 143.066C208.219 143.66 208.41 144.32 208.41 145.047H206.242C206.242 144.695 206.137 144.355 205.926 144.027C205.723 143.691 205.422 143.414 205.023 143.195C204.633 142.977 204.152 142.867 203.582 142.867C202.98 142.867 202.492 142.961 202.117 143.148C201.75 143.328 201.48 143.559 201.309 143.84C201.145 144.121 201.062 144.418 201.062 144.73C201.062 144.965 201.102 145.176 201.18 145.363C201.266 145.543 201.414 145.711 201.625 145.867C201.836 146.016 202.133 146.156 202.516 146.289C202.898 146.422 203.387 146.555 203.98 146.688C205.02 146.922 205.875 147.203 206.547 147.531C207.219 147.859 207.719 148.262 208.047 148.738C208.375 149.215 208.539 149.793 208.539 150.473C208.539 151.027 208.422 151.535 208.188 151.996C207.961 152.457 207.629 152.855 207.191 153.191C206.762 153.52 206.246 153.777 205.645 153.965C205.051 154.145 204.383 154.234 203.641 154.234C202.523 154.234 201.578 154.035 200.805 153.637C200.031 153.238 199.445 152.723 199.047 152.09C198.648 151.457 198.449 150.789 198.449 150.086H200.629C200.66 150.68 200.832 151.152 201.145 151.504C201.457 151.848 201.84 152.094 202.293 152.242C202.746 152.383 203.195 152.453 203.641 152.453C204.234 152.453 204.73 152.375 205.129 152.219C205.535 152.062 205.844 151.848 206.055 151.574C206.266 151.301 206.371 150.988 206.371 150.637Z" fill="black"/>
<rect x="496" y="107" width="135" height="78" rx="10" fill="#D5D5D5"/>
<path d="M519.344 148.746H535.656V159.105H533.875V158.027H521.125V159.105H519.344V148.746ZM516.062 145.23H523.961V140.402H516.812V138.809H523.246C522.785 138.176 522.25 137.52 521.641 136.84L523 135.855C523.719 136.59 524.391 137.34 525.016 138.105L524.031 138.809H530.02C530.629 137.926 531.25 136.957 531.883 135.902L533.594 136.84C533.078 137.559 532.594 138.215 532.141 138.809H538.188V140.402H531.039V145.23H538.938V146.824H516.062V145.23ZM521.125 156.434H533.875V154.16H521.125V156.434ZM533.875 150.34H521.125V152.613H533.875V150.34ZM525.672 145.23H529.328V140.402H525.672V145.23ZM532.422 143.777C533.266 142.918 534.094 141.941 534.906 140.848L536.406 141.926C535.531 142.973 534.641 143.957 533.734 144.879L532.422 143.777ZM518.453 142.043L519.719 140.895C520.719 141.848 521.609 142.746 522.391 143.59L521.031 144.809C520.328 143.98 519.469 143.059 518.453 142.043ZM549.227 155.449H547.562V142.254H553.211C552.039 141.652 550.828 141.051 549.578 140.449L550.539 139.324C551.766 139.918 552.918 140.484 553.996 141.023L558.18 138.832H547.188V137.332H561.273V138.902L555.613 141.844C555.887 141.984 556.152 142.121 556.41 142.254H561.438V152.848C561.438 154.629 560.617 155.52 558.977 155.52C558.164 155.52 557.281 155.496 556.328 155.449C556.25 154.855 556.133 154.254 555.977 153.645C556.961 153.754 557.805 153.809 558.508 153.809C559.352 153.809 559.773 153.402 559.773 152.59V151.441H555.297V155.098H553.633V151.441H549.227V155.449ZM549.484 156.738L555.32 156.832L563.125 156.645C562.953 157.16 562.734 157.777 562.469 158.496L554.711 158.543L549.133 158.402C546.477 158.371 544.617 157.457 543.555 155.66C542.914 156.254 541.977 157.301 540.742 158.801L539.781 156.855C541.164 155.52 542.164 154.562 542.781 153.984V146.098H539.992V144.363H544.586V154.383C545.547 155.938 547.18 156.723 549.484 156.738ZM542.711 136.488C543.508 137.457 544.602 138.934 545.992 140.918L544.328 142.09C543.062 140.105 542.023 138.574 541.211 137.496L542.711 136.488ZM559.773 143.754H555.297V146.098H559.773V143.754ZM555.297 149.941H559.773V147.598H555.297V149.941ZM549.227 146.098H553.633V143.754H549.227V146.098ZM549.227 149.941H553.633V147.598H549.227V149.941ZM566.102 142.16C567.453 144.113 568.762 146.02 570.027 147.879C570.957 145.59 571.547 143.113 571.797 140.449H564.438V138.668H573.719V140.379C573.289 143.77 572.457 146.852 571.223 149.625C572.496 151.492 573.727 153.309 574.914 155.074L573.227 156.199C572.25 154.66 571.262 153.117 570.262 151.57C568.871 154.117 567.102 156.371 564.953 158.332C564.641 157.848 564.258 157.277 563.805 156.621C566.039 154.613 567.812 152.348 569.125 149.824C567.672 147.598 566.195 145.363 564.695 143.121L566.102 142.16ZM574.656 141.223H582.461V136.207H584.359V141.223H587.219V143.004H584.359V155.285C584.359 157.551 583.242 158.684 581.008 158.684C580.305 158.684 579.148 158.676 577.539 158.66C577.461 158.082 577.336 157.379 577.164 156.551C578.711 156.676 579.891 156.738 580.703 156.738C581.875 156.738 582.461 156.145 582.461 154.957V143.004H574.656V141.223ZM575.078 145.934L576.602 145.02C577.867 146.879 578.984 148.684 579.953 150.434L578.195 151.441C577.273 149.676 576.234 147.84 575.078 145.934ZM608.172 147.715L609.109 149.285C607.727 149.77 606.285 150.27 604.785 150.785C606.035 153.59 608.172 155.48 611.195 156.457C610.68 157.098 610.258 157.621 609.93 158.027C607.023 156.793 604.812 154.547 603.297 151.289C602.867 151.43 602.438 151.574 602.008 151.723C602.289 152.621 602.43 153.645 602.43 154.793C602.43 157.59 601.094 158.988 598.422 158.988C597.453 158.988 596.422 158.973 595.328 158.941C595.266 158.551 595.133 157.949 594.93 157.137C596.07 157.262 597.125 157.324 598.094 157.324C599.859 157.324 600.742 156.441 600.742 154.676C600.742 153.988 600.684 153.371 600.566 152.824C598.238 155.098 594.305 157.035 588.766 158.637C588.484 158.168 588.172 157.621 587.828 156.996C593.211 155.629 597.273 153.734 600.016 151.312C599.82 150.945 599.574 150.574 599.277 150.199C597.113 152.121 593.719 153.77 589.094 155.145C588.844 154.691 588.523 154.16 588.133 153.551C592.633 152.371 596.027 150.895 598.316 149.121C598.043 148.84 597.742 148.559 597.414 148.277C595.508 149.59 592.625 150.723 588.766 151.676C588.562 151.238 588.258 150.684 587.852 150.012C592.234 149.191 595.254 148.098 596.91 146.73H591.93V147.457H590.312V142.934C589.773 143.301 589.211 143.668 588.625 144.035C588.422 143.52 588.156 143.004 587.828 142.488C591.094 140.645 593.656 138.465 595.516 135.949L597.625 136.207C597.211 136.809 596.727 137.41 596.172 138.012H605.828V139.395L603.543 141.457H609.344V147.27H607.727V146.73H599.148C598.977 146.941 598.781 147.148 598.562 147.352C599.836 148.32 600.785 149.336 601.41 150.398C603.934 149.586 606.188 148.691 608.172 147.715ZM603.391 139.465H594.73C594.02 140.121 593.227 140.785 592.352 141.457H601.316L603.391 139.465ZM607.727 142.98H600.906C600.703 143.816 600.445 144.559 600.133 145.207H607.727V142.98ZM591.93 145.207H598.211C598.594 144.574 598.891 143.832 599.102 142.98H591.93V145.207Z" fill="black"/>
<rect x="822" y="107" width="121" height="78" rx="10" fill="#D5D5D5"/>
<path d="M841.438 144.223L846.98 143.613C846.793 141.629 846.664 139.152 846.594 136.184H848.633C848.602 138.52 848.699 140.926 848.926 143.402L857.516 142.465L857.727 144.199L849.113 145.148C849.996 151.617 851.695 155.496 854.211 156.785C854.898 157.066 855.344 156.84 855.547 156.105C855.844 154.996 856.094 153.738 856.297 152.332C856.953 152.613 857.578 152.84 858.172 153.012C857.938 154.527 857.656 155.871 857.328 157.043C856.906 158.402 856.07 159.066 854.82 159.035C853.477 158.988 852.195 158.184 850.977 156.621C849.164 154.512 847.902 150.758 847.191 145.359L841.719 145.957L841.438 144.223ZM834.641 147.293C837.078 144.012 839.008 140.262 840.43 136.043L842.305 136.699C841.609 138.52 840.883 140.211 840.125 141.773V159.152H838.203V145.371C837.312 146.863 836.391 148.207 835.438 149.402C835.219 148.762 834.953 148.059 834.641 147.293ZM850.789 138.035L852.008 136.793C853.383 137.84 854.789 139.004 856.227 140.285L854.797 141.738C853.484 140.395 852.148 139.16 850.789 138.035ZM866.117 156.621H873.453V153.246H867.477V151.605H873.453V148.512H869.703V149.379H867.969V137.285H880.672V149.379H878.938V148.512H875.188V151.605H881.164V153.246H875.188V156.621H882.195V158.262H866.117V156.621ZM858.664 155.238C859.867 154.949 861.031 154.66 862.156 154.371V147.27H859.227V145.629H862.156V139.77H858.992V138.129H867.055V139.77H863.891V145.629H866.867V147.27H863.891V153.902C864.922 153.613 865.922 153.324 866.891 153.035C866.969 153.738 867.055 154.348 867.148 154.863C864.477 155.582 861.859 156.34 859.297 157.137L858.664 155.238ZM875.188 146.918H878.938V143.66H875.188V146.918ZM869.703 146.918H873.453V143.66H869.703V146.918ZM878.938 138.879H875.188V142.113H878.938V138.879ZM869.703 142.113H873.453V138.879H869.703V142.113ZM885.102 142.16C886.453 144.113 887.762 146.02 889.027 147.879C889.957 145.59 890.547 143.113 890.797 140.449H883.438V138.668H892.719V140.379C892.289 143.77 891.457 146.852 890.223 149.625C891.496 151.492 892.727 153.309 893.914 155.074L892.227 156.199C891.25 154.66 890.262 153.117 889.262 151.57C887.871 154.117 886.102 156.371 883.953 158.332C883.641 157.848 883.258 157.277 882.805 156.621C885.039 154.613 886.812 152.348 888.125 149.824C886.672 147.598 885.195 145.363 883.695 143.121L885.102 142.16ZM893.656 141.223H901.461V136.207H903.359V141.223H906.219V143.004H903.359V155.285C903.359 157.551 902.242 158.684 900.008 158.684C899.305 158.684 898.148 158.676 896.539 158.66C896.461 158.082 896.336 157.379 896.164 156.551C897.711 156.676 898.891 156.738 899.703 156.738C900.875 156.738 901.461 156.145 901.461 154.957V143.004H893.656V141.223ZM894.078 145.934L895.602 145.02C896.867 146.879 897.984 148.684 898.953 150.434L897.195 151.441C896.273 149.676 895.234 147.84 894.078 145.934ZM927.172 147.715L928.109 149.285C926.727 149.77 925.285 150.27 923.785 150.785C925.035 153.59 927.172 155.48 930.195 156.457C929.68 157.098 929.258 157.621 928.93 158.027C926.023 156.793 923.812 154.547 922.297 151.289C921.867 151.43 921.438 151.574 921.008 151.723C921.289 152.621 921.43 153.645 921.43 154.793C921.43 157.59 920.094 158.988 917.422 158.988C916.453 158.988 915.422 158.973 914.328 158.941C914.266 158.551 914.133 157.949 913.93 157.137C915.07 157.262 916.125 157.324 917.094 157.324C918.859 157.324 919.742 156.441 919.742 154.676C919.742 153.988 919.684 153.371 919.566 152.824C917.238 155.098 913.305 157.035 907.766 158.637C907.484 158.168 907.172 157.621 906.828 156.996C912.211 155.629 916.273 153.734 919.016 151.312C918.82 150.945 918.574 150.574 918.277 150.199C916.113 152.121 912.719 153.77 908.094 155.145C907.844 154.691 907.523 154.16 907.133 153.551C911.633 152.371 915.027 150.895 917.316 149.121C917.043 148.84 916.742 148.559 916.414 148.277C914.508 149.59 911.625 150.723 907.766 151.676C907.562 151.238 907.258 150.684 906.852 150.012C911.234 149.191 914.254 148.098 915.91 146.73H910.93V147.457H909.312V142.934C908.773 143.301 908.211 143.668 907.625 144.035C907.422 143.52 907.156 143.004 906.828 142.488C910.094 140.645 912.656 138.465 914.516 135.949L916.625 136.207C916.211 136.809 915.727 137.41 915.172 138.012H924.828V139.395L922.543 141.457H928.344V147.27H926.727V146.73H918.148C917.977 146.941 917.781 147.148 917.562 147.352C918.836 148.32 919.785 149.336 920.41 150.398C922.934 149.586 925.188 148.691 927.172 147.715ZM922.391 139.465H913.73C913.02 140.121 912.227 140.785 911.352 141.457H920.316L922.391 139.465ZM926.727 142.98H919.906C919.703 143.816 919.445 144.559 919.133 145.207H926.727V142.98ZM910.93 145.207H917.211C917.594 144.574 917.891 143.832 918.102 142.98H910.93V145.207Z" fill="black"/>
<rect x="1174" y="107" width="158" height="78" rx="10" fill="#D5D5D5"/>
<path d="M1199.42 156V137.848H1204.75C1206.35 137.848 1207.62 138.23 1208.57 138.996C1209.53 139.754 1210 140.762 1210 142.02C1210 143.02 1209.72 143.902 1209.15 144.668C1208.59 145.434 1207.81 145.977 1206.82 146.297V146.344C1208.05 146.484 1209.04 146.953 1209.77 147.75C1210.51 148.539 1210.88 149.543 1210.88 150.762C1210.88 152.324 1210.32 153.59 1209.2 154.559C1208.08 155.52 1206.64 156 1204.89 156H1199.42ZM1201.77 139.898V145.582H1203.9C1205.03 145.582 1205.92 145.309 1206.56 144.762C1207.21 144.207 1207.53 143.441 1207.53 142.465C1207.53 140.754 1206.39 139.898 1204.11 139.898H1201.77ZM1201.77 147.621V153.949H1204.58C1205.8 153.949 1206.75 153.668 1207.41 153.105C1208.09 152.535 1208.42 151.746 1208.42 150.738C1208.42 148.66 1207.01 147.621 1204.19 147.621H1201.77ZM1224.76 150.105H1215.69C1215.73 151.488 1216.11 152.559 1216.82 153.316C1217.54 154.066 1218.55 154.441 1219.84 154.441C1221.29 154.441 1222.62 153.977 1223.83 153.047V155.098C1222.69 155.902 1221.18 156.305 1219.3 156.305C1217.42 156.305 1215.96 155.711 1214.9 154.523C1213.86 153.336 1213.33 151.688 1213.33 149.578C1213.33 147.594 1213.91 145.957 1215.05 144.668C1216.21 143.379 1217.64 142.734 1219.36 142.734C1221.05 142.734 1222.38 143.281 1223.33 144.375C1224.28 145.461 1224.76 146.984 1224.76 148.945V150.105ZM1222.46 148.266C1222.45 147.094 1222.18 146.188 1221.63 145.547C1221.08 144.906 1220.31 144.586 1219.32 144.586C1218.41 144.586 1217.61 144.926 1216.94 145.605C1216.28 146.285 1215.86 147.172 1215.69 148.266H1222.46ZM1228.12 143.941C1229.41 143.137 1230.9 142.734 1232.59 142.734C1235.71 142.734 1237.27 144.375 1237.27 147.656V156H1235V153.996H1234.94C1234.04 155.535 1232.72 156.305 1230.97 156.305C1229.71 156.305 1228.71 155.965 1227.97 155.285C1227.23 154.605 1226.86 153.688 1226.86 152.531C1226.86 150.109 1228.29 148.699 1231.16 148.301L1235 147.762C1235 145.645 1234.12 144.586 1232.38 144.586C1230.82 144.586 1229.4 145.109 1228.12 146.156V143.941ZM1231.96 149.906C1230.9 150.047 1230.17 150.312 1229.76 150.703C1229.36 151.094 1229.16 151.641 1229.16 152.344C1229.16 152.961 1229.38 153.465 1229.82 153.855C1230.26 154.246 1230.84 154.441 1231.55 154.441C1232.55 154.441 1233.38 154.09 1234.03 153.387C1234.68 152.684 1235 151.801 1235 150.738V149.496L1231.96 149.906ZM1252.04 156H1249.75V148.629C1249.75 145.965 1248.78 144.633 1246.84 144.633C1245.83 144.633 1245 145.008 1244.35 145.758C1243.7 146.508 1243.38 147.457 1243.38 148.605V156H1241.08V143.039H1243.38V145.184H1243.43C1244.4 143.551 1245.82 142.734 1247.68 142.734C1249.1 142.734 1250.18 143.191 1250.93 144.105C1251.67 145.012 1252.04 146.336 1252.04 148.078V156ZM1263.52 142.16C1264.88 144.113 1266.18 146.02 1267.45 147.879C1268.38 145.59 1268.97 143.113 1269.22 140.449H1261.86V138.668H1271.14V140.379C1270.71 143.77 1269.88 146.852 1268.64 149.625C1269.92 151.492 1271.15 153.309 1272.34 155.074L1270.65 156.199C1269.67 154.66 1268.68 153.117 1267.68 151.57C1266.29 154.117 1264.52 156.371 1262.38 158.332C1262.06 157.848 1261.68 157.277 1261.23 156.621C1263.46 154.613 1265.23 152.348 1266.55 149.824C1265.09 147.598 1263.62 145.363 1262.12 143.121L1263.52 142.16ZM1272.08 141.223H1279.88V136.207H1281.78V141.223H1284.64V143.004H1281.78V155.285C1281.78 157.551 1280.66 158.684 1278.43 158.684C1277.73 158.684 1276.57 158.676 1274.96 158.66C1274.88 158.082 1274.76 157.379 1274.59 156.551C1276.13 156.676 1277.31 156.738 1278.12 156.738C1279.3 156.738 1279.88 156.145 1279.88 154.957V143.004H1272.08V141.223ZM1272.5 145.934L1274.02 145.02C1275.29 146.879 1276.41 148.684 1277.38 150.434L1275.62 151.441C1274.7 149.676 1273.66 147.84 1272.5 145.934ZM1305.59 147.715L1306.53 149.285C1305.15 149.77 1303.71 150.27 1302.21 150.785C1303.46 153.59 1305.59 155.48 1308.62 156.457C1308.1 157.098 1307.68 157.621 1307.35 158.027C1304.45 156.793 1302.23 154.547 1300.72 151.289C1300.29 151.43 1299.86 151.574 1299.43 151.723C1299.71 152.621 1299.85 153.645 1299.85 154.793C1299.85 157.59 1298.52 158.988 1295.84 158.988C1294.88 158.988 1293.84 158.973 1292.75 158.941C1292.69 158.551 1292.55 157.949 1292.35 157.137C1293.49 157.262 1294.55 157.324 1295.52 157.324C1297.28 157.324 1298.16 156.441 1298.16 154.676C1298.16 153.988 1298.11 153.371 1297.99 152.824C1295.66 155.098 1291.73 157.035 1286.19 158.637C1285.91 158.168 1285.59 157.621 1285.25 156.996C1290.63 155.629 1294.7 153.734 1297.44 151.312C1297.24 150.945 1297 150.574 1296.7 150.199C1294.54 152.121 1291.14 153.77 1286.52 155.145C1286.27 154.691 1285.95 154.16 1285.55 153.551C1290.05 152.371 1293.45 150.895 1295.74 149.121C1295.46 148.84 1295.16 148.559 1294.84 148.277C1292.93 149.59 1290.05 150.723 1286.19 151.676C1285.98 151.238 1285.68 150.684 1285.27 150.012C1289.66 149.191 1292.68 148.098 1294.33 146.73H1289.35V147.457H1287.73V142.934C1287.2 143.301 1286.63 143.668 1286.05 144.035C1285.84 143.52 1285.58 143.004 1285.25 142.488C1288.52 140.645 1291.08 138.465 1292.94 135.949L1295.05 136.207C1294.63 136.809 1294.15 137.41 1293.59 138.012H1303.25V139.395L1300.96 141.457H1306.77V147.27H1305.15V146.73H1296.57C1296.4 146.941 1296.2 147.148 1295.98 147.352C1297.26 148.32 1298.21 149.336 1298.83 150.398C1301.36 149.586 1303.61 148.691 1305.59 147.715ZM1300.81 139.465H1292.15C1291.44 140.121 1290.65 140.785 1289.77 141.457H1298.74L1300.81 139.465ZM1305.15 142.98H1298.33C1298.12 143.816 1297.87 144.559 1297.55 145.207H1305.15V142.98ZM1289.35 145.207H1295.63C1296.02 144.574 1296.31 143.832 1296.52 142.98H1289.35V145.207Z" fill="black"/>
<rect x="292" y="127" width="142" height="38" rx="10" fill="#006ACB"/>
<path d="M313.764 144.519C315.252 142.714 316.576 140.54 317.736 137.997L319.055 138.437C318.609 139.368 318.141 140.265 317.648 141.126H326.438V142.321H322.078V145.046H326.191V146.241H322.078V148.966H326.191V150.161H322.078V152.938H326.719V154.099H317.086V155.417H315.75V144.141C315.422 144.604 315.088 145.058 314.748 145.503C314.537 145.245 314.209 144.917 313.764 144.519ZM309.246 147.437C310.031 147.255 310.787 147.07 311.514 146.883V142.62H309.369V141.39H311.514V138.05H312.832V141.39H314.871V142.62H312.832V146.54C313.547 146.347 314.227 146.153 314.871 145.96C314.895 146.499 314.936 146.956 314.994 147.331C314.238 147.542 313.518 147.747 312.832 147.946V153.272C312.832 154.468 312.369 155.095 311.443 155.153C310.857 155.188 310.26 155.2 309.65 155.188C309.604 154.72 309.533 154.233 309.439 153.729C310.025 153.776 310.494 153.8 310.846 153.8C311.291 153.8 311.514 153.571 311.514 153.114V148.324C310.775 148.541 310.078 148.749 309.422 148.948L309.246 147.437ZM317.086 152.938H320.742V150.161H317.086V152.938ZM317.086 148.966H320.742V146.241H317.086V148.966ZM317.086 145.046H320.742V142.321H317.086V145.046ZM320.303 138.735L321.41 138.05C321.984 138.788 322.512 139.515 322.992 140.229L321.779 140.985C321.346 140.259 320.854 139.509 320.303 138.735ZM337.441 139.438C339.902 139.345 342.176 139.093 344.262 138.683L344.736 139.983C342.674 140.229 340.67 140.435 338.725 140.599V144.554H344.771V145.767H342.557V155.224H341.273V145.767H338.725V147.437C338.725 150.858 337.916 153.554 336.299 155.522C336.018 155.183 335.684 154.819 335.297 154.433C336.727 152.78 337.441 150.431 337.441 147.384V139.438ZM329.338 150.091C330.539 148.749 331.485 147.208 332.177 145.468H329.672V144.29H332.678V138.331H333.908V144.29H336.58V145.468H333.908V146.979L334.436 146.54C335.139 147.255 335.895 148.081 336.703 149.019L335.736 149.862C335.174 149.13 334.564 148.392 333.908 147.647V152.429H332.678V146.839C332.033 148.474 331.102 150.015 329.883 151.462C329.73 150.981 329.549 150.524 329.338 150.091ZM328.055 138.735H329.303V152.815H335.42V153.993H328.055V138.735ZM334.172 142.743C334.816 141.688 335.373 140.593 335.842 139.456L337.037 140.019C336.533 140.991 335.93 142.093 335.227 143.323L334.172 142.743ZM329.619 139.966L330.639 139.491C331.154 140.476 331.676 141.542 332.203 142.69L331.061 143.253C330.498 141.882 330.018 140.786 329.619 139.966ZM351.012 144.396C352.324 142.544 353.373 140.435 354.158 138.067L355.512 138.507C355.172 139.315 354.844 140.071 354.527 140.774H362.104C361.939 146.763 361.822 150.466 361.752 151.884C361.693 153.114 361.412 153.958 360.908 154.415C360.428 154.872 359.561 155.101 358.307 155.101C357.381 155.101 356.414 155.071 355.406 155.013C355.336 154.544 355.236 154.028 355.107 153.466C356.268 153.595 357.316 153.671 358.254 153.694C359.062 153.706 359.607 153.565 359.889 153.272C360.182 153.026 360.346 152.493 360.381 151.673C360.463 150.091 360.562 146.886 360.68 142.058H353.912C353.291 143.276 352.688 144.302 352.102 145.134C351.809 144.911 351.445 144.665 351.012 144.396ZM345.229 149.177C346.447 147.278 347.309 145.198 347.812 142.937H345.352V141.759H347.83V138.278H349.043V141.759H351.328V142.937H349.043V145.31L349.535 144.8C350.332 145.526 351.158 146.3 352.014 147.12L351.082 148.087C350.355 147.255 349.676 146.534 349.043 145.925V155.347H347.83V146.294C347.256 148.122 346.576 149.599 345.791 150.724C345.639 150.22 345.451 149.704 345.229 149.177ZM356.039 146.663L357.111 146.101C357.967 147.577 358.852 149.188 359.766 150.935L358.518 151.603C358.377 151.286 358.23 150.97 358.078 150.653C356.555 150.747 355.055 150.853 353.578 150.97C353.215 151.005 352.699 151.093 352.031 151.233L351.434 149.968C351.809 149.71 352.125 149.394 352.383 149.019C353.344 147.507 354.293 145.649 355.23 143.446L356.549 143.991C355.857 145.515 354.803 147.419 353.385 149.704C355.072 149.657 356.461 149.61 357.551 149.563C357.082 148.591 356.578 147.624 356.039 146.663ZM369.82 146.839H378.768V152.481H377.414V151.761H371.174V152.481H369.82V146.839ZM368.273 144.132H373.846V141.741H370.857C370.541 142.491 370.201 143.177 369.838 143.798C369.533 143.599 369.129 143.388 368.625 143.165C369.48 141.782 370.119 140.241 370.541 138.542L371.877 138.841C371.701 139.438 371.517 140.007 371.323 140.546H373.846V138.05H375.217V140.546H379.717V141.741H375.217V144.132H380.578V145.327H368.273V144.132ZM370.488 153.554L374.865 153.624L380.719 153.483C380.59 153.87 380.426 154.333 380.227 154.872L374.408 154.907L370.225 154.802C368.232 154.778 366.838 154.093 366.041 152.745C365.561 153.19 364.857 153.976 363.932 155.101L363.211 153.642C364.248 152.64 364.998 151.922 365.461 151.488V145.573H363.369V144.272H366.814V151.787C367.535 152.953 368.76 153.542 370.488 153.554ZM377.414 148.034H371.174V150.565H377.414V148.034ZM365.408 138.366C366.006 139.093 366.826 140.2 367.869 141.688L366.621 142.567C365.672 141.079 364.893 139.931 364.283 139.122L365.408 138.366ZM396.275 155.294V154.45H382.318V142.532H383.725V153.149H396.275V142.532H397.682V155.294H396.275ZM389.631 142.444L393.797 140.229H383.848V138.946H395.889V140.405L390.967 143.13V150.056C390.967 151.521 390.246 152.253 388.805 152.253C388.219 152.253 387.486 152.241 386.607 152.218C386.572 151.819 386.502 151.345 386.396 150.794C387.146 150.888 387.855 150.935 388.523 150.935C389.262 150.935 389.631 150.583 389.631 149.88V142.444ZM388.541 146.329L389.262 147.437C387.82 148.257 386.285 149.159 384.656 150.144L383.865 148.931C385.318 148.228 386.877 147.36 388.541 146.329ZM391.23 147.384L392.074 146.364C393.375 147.173 394.723 148.063 396.117 149.036L395.168 150.214C393.879 149.206 392.566 148.263 391.23 147.384ZM384.428 143.2L385.289 142.251C386.461 143.06 387.592 143.892 388.682 144.747L387.732 145.837C386.596 144.864 385.494 143.985 384.428 143.2ZM394.764 142.444L395.783 143.394C394.857 144.179 393.82 145.017 392.672 145.907L391.758 144.905C392.789 144.144 393.791 143.323 394.764 142.444ZM410.742 138.085L412.148 138.296C411.902 139.433 411.615 140.493 411.287 141.478H416.666V142.673H415.559C415.266 146.118 414.516 148.854 413.309 150.882C414.258 152.171 415.465 153.226 416.93 154.046C416.555 154.562 416.238 155.024 415.98 155.435C414.551 154.509 413.361 153.407 412.412 152.13C411.334 153.466 410.051 154.626 408.562 155.61C408.305 155.271 407.971 154.901 407.561 154.503C409.201 153.425 410.531 152.2 411.551 150.829C410.602 149.188 409.975 147.296 409.67 145.151C409.424 145.585 409.166 145.989 408.896 146.364C408.662 146.024 408.369 145.649 408.018 145.239C409.377 143.282 410.285 140.897 410.742 138.085ZM399.422 148.228H402.094C402.352 147.782 402.604 147.325 402.85 146.856L404.115 147.261C403.928 147.589 403.74 147.911 403.553 148.228H407.859V149.37C407.414 150.519 406.74 151.526 405.838 152.394C406.482 152.698 407.139 153.003 407.807 153.308L407.033 154.521C406.307 154.11 405.551 153.7 404.766 153.29C403.441 154.239 401.771 154.989 399.756 155.54C399.568 155.165 399.369 154.755 399.158 154.31C400.869 153.923 402.316 153.366 403.5 152.64C402.492 152.124 401.438 151.597 400.336 151.058C400.711 150.519 401.074 149.962 401.426 149.388H399.422V148.228ZM399.615 142.181H403.658V138.243H404.959V142.181H408.334V143.341H404.959V144.413L405.486 143.815C406.576 144.612 407.49 145.315 408.229 145.925L407.385 146.909C406.74 146.3 405.932 145.614 404.959 144.853V146.856H403.658V144.396C402.592 145.509 401.35 146.487 399.932 147.331C399.709 146.991 399.457 146.634 399.176 146.259C400.652 145.462 402.006 144.489 403.236 143.341H399.615V142.181ZM414.152 142.673H410.865C410.807 142.825 410.742 142.972 410.672 143.112C410.883 145.597 411.469 147.724 412.43 149.493C413.367 147.782 413.941 145.509 414.152 142.673ZM402.059 150.653C402.891 151.028 403.746 151.421 404.625 151.831C405.434 151.14 406.066 150.325 406.523 149.388H402.867C402.598 149.821 402.328 150.243 402.059 150.653ZM407.543 138.683L408.633 139.403C407.988 140.247 407.344 141.026 406.699 141.741C406.43 141.507 406.113 141.261 405.75 141.003C406.359 140.288 406.957 139.515 407.543 138.683ZM400.072 139.456L401.074 138.771C401.602 139.415 402.146 140.106 402.709 140.845L401.619 141.618C401.104 140.856 400.588 140.136 400.072 139.456Z" fill="white"/>
<rect x="419" width="142" height="38" rx="10" fill="#006ACB"/>
<path d="M469.979 17.167L470.98 18.2568C469.762 19.2529 468.455 20.252 467.061 21.2539C468.197 23.4219 469.779 25.0068 471.807 26.0088C471.385 26.4775 471.016 26.9229 470.699 27.3447C467.365 25.2822 465.244 21.8926 464.336 17.1758C463.844 17.9609 463.305 18.7256 462.719 19.4697V25.9385C463.715 25.376 464.74 24.7725 465.795 24.1279C465.877 24.6904 465.971 25.165 466.076 25.5518C464.869 26.2197 463.744 26.8936 462.701 27.5732C462.35 27.8193 462.01 28.0947 461.682 28.3994L460.732 27.1865C461.143 26.7998 461.348 26.2725 461.348 25.6045V21.0518C460.486 21.9775 459.537 22.8623 458.5 23.7061C458.301 23.2959 458.061 22.8447 457.779 22.3525C460.48 20.2549 462.499 17.8643 463.835 15.1807H458.887V13.9854H471.613V15.1807H465.435C465.382 15.2861 465.329 15.3945 465.276 15.5059C465.546 17.1934 465.95 18.6992 466.489 20.0234C467.726 19.1094 468.889 18.1572 469.979 17.167ZM454.193 19.6104C455.764 17.2666 456.982 14.4248 457.85 11.085L459.15 11.4717C458.676 13.0186 458.154 14.4629 457.586 15.8047V28.3643H456.32V18.459C455.822 19.3848 455.295 20.249 454.738 21.0518C454.574 20.5596 454.393 20.0791 454.193 19.6104ZM463.387 11.6123L464.547 10.8916C465.156 11.6533 465.707 12.3857 466.199 13.0889L464.969 13.8975C464.477 13.0771 463.949 12.3154 463.387 11.6123ZM475.973 28.417V23.126C475.012 24.8604 473.893 26.3252 472.615 27.5205C472.533 27.0049 472.404 26.5068 472.229 26.0264C473.635 24.7373 474.807 23.1904 475.744 21.3857H474.391V21.7725H473.195V16.0244H475.973V14.249H472.598V13.0889H475.973V11.0498H477.203V13.0889H480.613V14.249H477.203V16.0244H479.98V21.7725H478.785V21.3857H477.203V23.0557L477.748 22.3525C478.885 23.1963 479.811 23.9404 480.525 24.585L479.664 25.6396C478.949 24.9014 478.129 24.1514 477.203 23.3896V28.417H475.973ZM481.316 16.3057H484.885L486.361 13.8271H483.162C482.518 14.8584 481.82 15.7607 481.07 16.5342C480.742 16.2178 480.408 15.9424 480.068 15.708C481.369 14.3486 482.43 12.7783 483.25 10.9971L484.551 11.2607C484.328 11.7295 484.1 12.1807 483.865 12.6143H487.908V13.7568L486.309 16.3057H488.91V24.0928H487.662V17.5186H482.564V24.0928H481.316V16.3057ZM484.48 18.1865H485.729C485.74 20.1553 485.711 21.4619 485.641 22.1064C485.594 22.7744 485.471 23.3896 485.271 23.9521C486.795 25.0303 488.266 26.1494 489.684 27.3096L488.77 28.3643C487.41 27.1338 486.068 26.0439 484.744 25.0947C483.912 26.5244 482.506 27.6318 480.525 28.417C480.279 28.0186 480.004 27.6201 479.699 27.2217C482.723 26.2607 484.299 24.4854 484.428 21.8955C484.475 21.2393 484.492 20.0029 484.48 18.1865ZM474.391 20.2607H475.973V17.1494H474.391V20.2607ZM478.785 17.1494H477.203V20.2607H478.785V17.1494ZM494.57 25.9561H500.477V20.9639H495.906V19.6279H500.477V15.374H495.414V14.0381H501.021C500.471 13.165 499.908 12.3682 499.334 11.6475L500.494 10.9092C501.279 11.8232 501.9 12.6318 502.357 13.335L501.259 14.0381H507.156V15.374H501.953V19.6279H506.523V20.9639H501.953V25.9561H507.648V27.292H494.57V25.9561ZM492.689 20.8936C493.17 21.1045 493.633 21.2979 494.078 21.4736C493.434 23.5361 492.76 25.7861 492.057 28.2236L490.545 27.6963C491.283 25.6924 491.998 23.4248 492.689 20.8936ZM491.775 11.2783C492.912 12.1338 493.926 12.9893 494.816 13.8447C494.418 14.2432 494.066 14.6006 493.762 14.917C493.129 14.249 492.168 13.3584 490.879 12.2451L491.775 11.2783ZM491.107 15.8311C491.951 16.417 492.988 17.2139 494.219 18.2217C493.785 18.7139 493.439 19.0947 493.182 19.3643C491.951 18.2393 490.967 17.3955 490.229 16.833L491.107 15.8311ZM513.15 12.0869L514.311 11.2607C515.623 12.0693 517.064 14.1436 518.635 17.4834C520.826 22.2764 523.205 25.2002 525.771 26.2549L524.541 27.8018C521.975 26.2783 519.602 23.0674 517.422 18.1689C517.246 17.7764 517.073 17.4014 516.903 17.0439C515.544 21.7021 513.016 25.3232 509.318 27.9072C509.002 27.4385 508.645 26.999 508.246 26.5889C512.049 24.1924 514.609 20.4014 515.928 15.2158C515.008 13.6807 514.082 12.6377 513.15 12.0869Z" fill="white"/>
<rect x="693" y="127" width="67" height="38" rx="10" fill="#006ACB"/>
<rect x="709" width="142" height="38" rx="10" fill="#006ACB"/>
<path d="M751.066 12.5615H760.84C760.664 18.6904 760.529 22.6924 760.436 24.5674C760.389 26.7588 759.451 27.8428 757.623 27.8193C757.025 27.8193 756.164 27.8018 755.039 27.7666C754.957 27.2158 754.863 26.6885 754.758 26.1846C755.883 26.29 756.785 26.3428 757.465 26.3428C758.426 26.3779 758.93 25.7568 758.977 24.4795C759.094 22.6396 759.217 19.1182 759.346 13.915H755.355C755.285 16.1885 755.197 18.0283 755.092 19.4346C754.834 23.0557 753.246 26.0205 750.328 28.3291C750.023 27.9658 749.648 27.5908 749.203 27.2041C751.922 25.1064 753.393 22.4814 753.615 19.3291C753.75 17.7764 753.835 15.9717 753.87 13.915H751.066V12.5615ZM744.422 15.6201V14.3545H750.24V15.6553C749.59 16.7744 748.898 17.8145 748.166 18.7754V19.3203C748.447 19.5195 748.731 19.7188 749.019 19.918C749.599 19.1445 750.141 18.3389 750.645 17.501L751.805 18.2393C751.301 18.9658 750.706 19.7656 750.021 20.6387C750.606 21.0664 751.195 21.5029 751.787 21.9482L750.891 23.0205C749.994 22.2822 749.086 21.5527 748.166 20.832V28.2412H746.83V20.3838C746.139 21.1455 745.412 21.8486 744.65 22.4932C744.521 22.0361 744.363 21.5322 744.176 20.9814C745.863 19.6572 747.363 17.8701 748.676 15.6201H744.422ZM746.092 11.5596L747.322 10.9443C747.756 11.6357 748.213 12.4385 748.693 13.3525L747.393 14.0205C746.959 13.083 746.525 12.2627 746.092 11.5596ZM769.98 20.4189H778.453V28.3291H777.117V27.0986H771.316V28.3467H769.98V20.4189ZM769.418 25.376L768.381 26.5361C767.742 25.8857 767.104 25.2529 766.465 24.6377C765.598 25.8916 764.467 27.0752 763.072 28.1885C762.826 27.8252 762.557 27.4443 762.264 27.0459C763.605 26.0557 764.684 24.9482 765.498 23.7236C764.66 22.9385 763.822 22.1826 762.984 21.4561C763.4 19.8799 763.778 18.1162 764.118 16.165H762.316V14.8467H764.347C764.534 13.6631 764.713 12.415 764.883 11.1025L766.307 11.3135C766.113 12.585 765.92 13.7627 765.727 14.8467H768.996V16.1475C768.721 19.2881 768.135 21.6992 767.238 23.3809C768.035 24.0781 768.762 24.7432 769.418 25.376ZM776.695 13.3877C777.891 15.2744 778.922 17.1143 779.789 18.9072L778.4 19.5576C778.154 18.9951 777.899 18.4385 777.636 17.8877C775.784 17.999 773.572 18.1748 771 18.415C770.672 18.4502 770.256 18.5498 769.752 18.7139L769.102 17.4482C769.512 17.2021 769.863 16.874 770.156 16.4639C771.105 15.0459 772.066 13.2236 773.039 10.9971L774.516 11.4717C773.449 13.5107 772.389 15.3623 771.334 17.0264C773.678 16.8799 775.582 16.7715 777.047 16.7012C776.572 15.7695 776.074 14.8525 775.553 13.9502L776.695 13.3877ZM777.117 21.6494H771.316V25.9033H777.117V21.6494ZM767.643 16.165H765.489C765.12 18.1045 764.754 19.7158 764.391 20.999C765.029 21.5146 765.636 22.0127 766.21 22.4932C767.007 20.8584 767.484 18.749 767.643 16.165ZM785.186 21.9131C786.721 21.1982 788.156 20.375 789.492 19.4434V11.3838H791.004V18.3096C792.797 16.8623 794.391 15.1924 795.785 13.2998L797.068 14.2314C795.363 16.499 793.342 18.4824 791.004 20.1816V25.1475C791.004 25.9443 791.426 26.3428 792.27 26.3428H794.502C795.299 26.3428 795.762 25.9619 795.891 25.2002C796.055 24.4033 796.16 23.4834 796.207 22.4404C796.699 22.6279 797.215 22.7979 797.754 22.9502C797.66 23.9346 797.537 24.8369 797.385 25.6572C797.162 27.0049 796.318 27.6787 794.854 27.6787H791.883C790.289 27.6787 789.492 26.8936 789.492 25.3232V21.21C788.396 21.9131 787.242 22.5576 786.029 23.1436C785.783 22.7568 785.502 22.3467 785.186 21.9131ZM780.246 19.751C782.285 17.0439 783.785 14.167 784.746 11.1201L786.275 11.5596C785.719 13.0127 785.115 14.3809 784.465 15.6641V28.2412H782.988V18.3096C782.338 19.3643 781.646 20.3545 780.914 21.2803C780.715 20.7764 780.492 20.2666 780.246 19.751ZM800.918 28.3643H799.582V16.6572H807.281V26.4834C807.281 27.6318 806.689 28.1943 805.506 28.1709C805.014 28.1709 804.34 28.1592 803.484 28.1357C803.414 27.6787 803.326 27.2451 803.221 26.835C803.936 26.8936 804.598 26.9229 805.207 26.9229C805.699 26.9346 805.945 26.6943 805.945 26.2021V23.9697H800.918V28.3643ZM798.422 13.7041H804.1C803.713 13.0947 803.221 12.4326 802.623 11.7178L803.73 10.9619C804.457 11.7705 805.043 12.4912 805.488 13.124L804.618 13.7041H809.426L808.723 13.3174C809.344 12.5557 809.883 11.7588 810.34 10.9268L811.676 11.7002C811.137 12.4385 810.595 13.1064 810.05 13.7041H815.613V14.9346H798.422V13.7041ZM812.994 16.0947H814.365V25.9209C814.365 27.3623 813.686 28.0889 812.326 28.1006C811.705 28.1123 810.932 28.1064 810.006 28.083C809.947 27.6025 809.865 27.1104 809.76 26.6064C810.627 26.7002 811.33 26.7471 811.869 26.7471C812.619 26.7471 812.994 26.3662 812.994 25.6045V16.0947ZM809.373 16.9385H810.709V24.8486H809.373V16.9385ZM805.945 17.8525H800.918V19.7334H805.945V17.8525ZM800.918 22.792H805.945V20.9111H800.918V22.792Z" fill="white"/>
<rect x="588" width="94" height="38" rx="10" fill="#006ACB"/>
<path d="M615.066 12.5615H624.84C624.664 18.6904 624.529 22.6924 624.436 24.5674C624.389 26.7588 623.451 27.8428 621.623 27.8193C621.025 27.8193 620.164 27.8018 619.039 27.7666C618.957 27.2158 618.863 26.6885 618.758 26.1846C619.883 26.29 620.785 26.3428 621.465 26.3428C622.426 26.3779 622.93 25.7568 622.977 24.4795C623.094 22.6396 623.217 19.1182 623.346 13.915H619.355C619.285 16.1885 619.197 18.0283 619.092 19.4346C618.834 23.0557 617.246 26.0205 614.328 28.3291C614.023 27.9658 613.648 27.5908 613.203 27.2041C615.922 25.1064 617.393 22.4814 617.615 19.3291C617.75 17.7764 617.835 15.9717 617.87 13.915H615.066V12.5615ZM608.422 15.6201V14.3545H614.24V15.6553C613.59 16.7744 612.898 17.8145 612.166 18.7754V19.3203C612.447 19.5195 612.731 19.7188 613.019 19.918C613.599 19.1445 614.141 18.3389 614.645 17.501L615.805 18.2393C615.301 18.9658 614.706 19.7656 614.021 20.6387C614.606 21.0664 615.195 21.5029 615.787 21.9482L614.891 23.0205C613.994 22.2822 613.086 21.5527 612.166 20.832V28.2412H610.83V20.3838C610.139 21.1455 609.412 21.8486 608.65 22.4932C608.521 22.0361 608.363 21.5322 608.176 20.9814C609.863 19.6572 611.363 17.8701 612.676 15.6201H608.422ZM610.092 11.5596L611.322 10.9443C611.756 11.6357 612.213 12.4385 612.693 13.3525L611.393 14.0205C610.959 13.083 610.525 12.2627 610.092 11.5596ZM633.98 20.4189H642.453V28.3291H641.117V27.0986H635.316V28.3467H633.98V20.4189ZM633.418 25.376L632.381 26.5361C631.742 25.8857 631.104 25.2529 630.465 24.6377C629.598 25.8916 628.467 27.0752 627.072 28.1885C626.826 27.8252 626.557 27.4443 626.264 27.0459C627.605 26.0557 628.684 24.9482 629.498 23.7236C628.66 22.9385 627.822 22.1826 626.984 21.4561C627.4 19.8799 627.778 18.1162 628.118 16.165H626.316V14.8467H628.347C628.534 13.6631 628.713 12.415 628.883 11.1025L630.307 11.3135C630.113 12.585 629.92 13.7627 629.727 14.8467H632.996V16.1475C632.721 19.2881 632.135 21.6992 631.238 23.3809C632.035 24.0781 632.762 24.7432 633.418 25.376ZM640.695 13.3877C641.891 15.2744 642.922 17.1143 643.789 18.9072L642.4 19.5576C642.154 18.9951 641.899 18.4385 641.636 17.8877C639.784 17.999 637.572 18.1748 635 18.415C634.672 18.4502 634.256 18.5498 633.752 18.7139L633.102 17.4482C633.512 17.2021 633.863 16.874 634.156 16.4639C635.105 15.0459 636.066 13.2236 637.039 10.9971L638.516 11.4717C637.449 13.5107 636.389 15.3623 635.334 17.0264C637.678 16.8799 639.582 16.7715 641.047 16.7012C640.572 15.7695 640.074 14.8525 639.553 13.9502L640.695 13.3877ZM641.117 21.6494H635.316V25.9033H641.117V21.6494ZM631.643 16.165H629.489C629.12 18.1045 628.754 19.7158 628.391 20.999C629.029 21.5146 629.636 22.0127 630.21 22.4932C631.007 20.8584 631.484 18.749 631.643 16.165ZM649.186 21.9131C650.721 21.1982 652.156 20.375 653.492 19.4434V11.3838H655.004V18.3096C656.797 16.8623 658.391 15.1924 659.785 13.2998L661.068 14.2314C659.363 16.499 657.342 18.4824 655.004 20.1816V25.1475C655.004 25.9443 655.426 26.3428 656.27 26.3428H658.502C659.299 26.3428 659.762 25.9619 659.891 25.2002C660.055 24.4033 660.16 23.4834 660.207 22.4404C660.699 22.6279 661.215 22.7979 661.754 22.9502C661.66 23.9346 661.537 24.8369 661.385 25.6572C661.162 27.0049 660.318 27.6787 658.854 27.6787H655.883C654.289 27.6787 653.492 26.8936 653.492 25.3232V21.21C652.396 21.9131 651.242 22.5576 650.029 23.1436C649.783 22.7568 649.502 22.3467 649.186 21.9131ZM644.246 19.751C646.285 17.0439 647.785 14.167 648.746 11.1201L650.275 11.5596C649.719 13.0127 649.115 14.3809 648.465 15.6641V28.2412H646.988V18.3096C646.338 19.3643 645.646 20.3545 644.914 21.2803C644.715 20.7764 644.492 20.2666 644.246 19.751Z" fill="white"/>
<rect x="878" width="142" height="38" rx="10" fill="#006ACB"/>
<path d="M920.066 12.5615H929.84C929.664 18.6904 929.529 22.6924 929.436 24.5674C929.389 26.7588 928.451 27.8428 926.623 27.8193C926.025 27.8193 925.164 27.8018 924.039 27.7666C923.957 27.2158 923.863 26.6885 923.758 26.1846C924.883 26.29 925.785 26.3428 926.465 26.3428C927.426 26.3779 927.93 25.7568 927.977 24.4795C928.094 22.6396 928.217 19.1182 928.346 13.915H924.355C924.285 16.1885 924.197 18.0283 924.092 19.4346C923.834 23.0557 922.246 26.0205 919.328 28.3291C919.023 27.9658 918.648 27.5908 918.203 27.2041C920.922 25.1064 922.393 22.4814 922.615 19.3291C922.75 17.7764 922.835 15.9717 922.87 13.915H920.066V12.5615ZM913.422 15.6201V14.3545H919.24V15.6553C918.59 16.7744 917.898 17.8145 917.166 18.7754V19.3203C917.447 19.5195 917.731 19.7188 918.019 19.918C918.599 19.1445 919.141 18.3389 919.645 17.501L920.805 18.2393C920.301 18.9658 919.706 19.7656 919.021 20.6387C919.606 21.0664 920.195 21.5029 920.787 21.9482L919.891 23.0205C918.994 22.2822 918.086 21.5527 917.166 20.832V28.2412H915.83V20.3838C915.139 21.1455 914.412 21.8486 913.65 22.4932C913.521 22.0361 913.363 21.5322 913.176 20.9814C914.863 19.6572 916.363 17.8701 917.676 15.6201H913.422ZM915.092 11.5596L916.322 10.9443C916.756 11.6357 917.213 12.4385 917.693 13.3525L916.393 14.0205C915.959 13.083 915.525 12.2627 915.092 11.5596ZM938.98 20.4189H947.453V28.3291H946.117V27.0986H940.316V28.3467H938.98V20.4189ZM938.418 25.376L937.381 26.5361C936.742 25.8857 936.104 25.2529 935.465 24.6377C934.598 25.8916 933.467 27.0752 932.072 28.1885C931.826 27.8252 931.557 27.4443 931.264 27.0459C932.605 26.0557 933.684 24.9482 934.498 23.7236C933.66 22.9385 932.822 22.1826 931.984 21.4561C932.4 19.8799 932.778 18.1162 933.118 16.165H931.316V14.8467H933.347C933.534 13.6631 933.713 12.415 933.883 11.1025L935.307 11.3135C935.113 12.585 934.92 13.7627 934.727 14.8467H937.996V16.1475C937.721 19.2881 937.135 21.6992 936.238 23.3809C937.035 24.0781 937.762 24.7432 938.418 25.376ZM945.695 13.3877C946.891 15.2744 947.922 17.1143 948.789 18.9072L947.4 19.5576C947.154 18.9951 946.899 18.4385 946.636 17.8877C944.784 17.999 942.572 18.1748 940 18.415C939.672 18.4502 939.256 18.5498 938.752 18.7139L938.102 17.4482C938.512 17.2021 938.863 16.874 939.156 16.4639C940.105 15.0459 941.066 13.2236 942.039 10.9971L943.516 11.4717C942.449 13.5107 941.389 15.3623 940.334 17.0264C942.678 16.8799 944.582 16.7715 946.047 16.7012C945.572 15.7695 945.074 14.8525 944.553 13.9502L945.695 13.3877ZM946.117 21.6494H940.316V25.9033H946.117V21.6494ZM936.643 16.165H934.489C934.12 18.1045 933.754 19.7158 933.391 20.999C934.029 21.5146 934.636 22.0127 935.21 22.4932C936.007 20.8584 936.484 18.749 936.643 16.165ZM954.186 21.9131C955.721 21.1982 957.156 20.375 958.492 19.4434V11.3838H960.004V18.3096C961.797 16.8623 963.391 15.1924 964.785 13.2998L966.068 14.2314C964.363 16.499 962.342 18.4824 960.004 20.1816V25.1475C960.004 25.9443 960.426 26.3428 961.27 26.3428H963.502C964.299 26.3428 964.762 25.9619 964.891 25.2002C965.055 24.4033 965.16 23.4834 965.207 22.4404C965.699 22.6279 966.215 22.7979 966.754 22.9502C966.66 23.9346 966.537 24.8369 966.385 25.6572C966.162 27.0049 965.318 27.6787 963.854 27.6787H960.883C959.289 27.6787 958.492 26.8936 958.492 25.3232V21.21C957.396 21.9131 956.242 22.5576 955.029 23.1436C954.783 22.7568 954.502 22.3467 954.186 21.9131ZM949.246 19.751C951.285 17.0439 952.785 14.167 953.746 11.1201L955.275 11.5596C954.719 13.0127 954.115 14.3809 953.465 15.6641V28.2412H951.988V18.3096C951.338 19.3643 950.646 20.3545 949.914 21.2803C949.715 20.7764 949.492 20.2666 949.246 19.751ZM972.309 20.4189H982.996V28.3291H981.59V27.1338H973.715V28.3291H972.309V20.4189ZM970.691 17.5889C970.691 20.8115 970.527 22.9854 970.199 24.1104C969.871 25.3994 969.174 26.8232 968.107 28.3818C967.838 27.9834 967.516 27.5732 967.141 27.1514C967.973 25.9678 968.535 24.7783 968.828 23.583C969.121 22.4346 969.268 20.7471 969.268 18.5205V12.5967C974.4 12.4326 978.924 12.0811 982.838 11.542L983.682 13.001C978.83 13.4932 974.5 13.8096 970.691 13.9502V16.2705H984.613V17.5889H970.691ZM981.59 21.7021H973.715V25.8857H981.59V21.7021Z" fill="white"/>
<rect x="1005" y="127" width="107" height="38" rx="10" fill="#006ACB"/>
<path d="M1033.63 137.927L1035.03 138.173C1034.78 139.28 1034.45 140.353 1034.05 141.39H1040.17V142.69H1038.7C1038.47 146.159 1037.65 148.916 1036.24 150.961C1037.29 152.273 1038.65 153.284 1040.32 153.993C1039.94 154.509 1039.62 154.972 1039.36 155.382C1037.78 154.532 1036.44 153.437 1035.32 152.095C1034.17 153.366 1032.8 154.515 1031.2 155.54C1030.93 155.2 1030.6 154.831 1030.2 154.433C1031.95 153.372 1033.37 152.209 1034.48 150.943C1033.45 149.268 1032.8 147.152 1032.52 144.598C1032.17 145.195 1031.8 145.778 1031.39 146.347C1031.15 145.995 1030.86 145.62 1030.52 145.222C1032.04 143.124 1033.08 140.692 1033.63 137.927ZM1022.94 141.231H1031.41V142.532H1026.44C1026.43 143.575 1026.41 144.53 1026.38 145.397H1030.41C1030.29 148.28 1030.18 150.589 1030.08 152.323C1029.97 153.87 1029.3 154.673 1028.07 154.731C1027.36 154.743 1026.68 154.737 1026.05 154.714C1025.98 154.28 1025.88 153.788 1025.75 153.237C1026.53 153.319 1027.12 153.36 1027.54 153.36C1028.26 153.36 1028.65 152.915 1028.71 152.024C1028.82 150.653 1028.92 148.878 1028.99 146.698H1026.32C1026.28 150.495 1025.35 153.396 1023.54 155.399C1023.27 155.001 1022.96 154.591 1022.61 154.169C1023.71 152.927 1024.38 151.597 1024.61 150.179C1024.91 148.849 1025.05 146.3 1025.05 142.532H1022.94V141.231ZM1037.3 142.69H1033.57C1033.75 145.562 1034.36 147.905 1035.39 149.722C1036.52 147.911 1037.16 145.567 1037.3 142.69ZM1025.89 138.542L1027.09 137.909C1027.59 138.659 1028.07 139.468 1028.53 140.335L1027.3 140.985C1026.83 140.083 1026.36 139.269 1025.89 138.542ZM1045.65 139.087L1046.81 138.261C1048.12 139.069 1049.56 141.144 1051.13 144.483C1053.33 149.276 1055.71 152.2 1058.27 153.255L1057.04 154.802C1054.47 153.278 1052.1 150.067 1049.92 145.169C1049.75 144.776 1049.57 144.401 1049.4 144.044C1048.04 148.702 1045.52 152.323 1041.82 154.907C1041.5 154.438 1041.14 153.999 1040.75 153.589C1044.55 151.192 1047.11 147.401 1048.43 142.216C1047.51 140.681 1046.58 139.638 1045.65 139.087ZM1068.48 144.149C1068.39 144.255 1068.29 144.372 1068.19 144.501C1070.44 146.657 1073.12 148.134 1076.25 148.931C1075.87 149.517 1075.58 150.015 1075.39 150.425C1074.62 150.144 1073.89 149.833 1073.2 149.493V155.417H1071.79V154.626H1063.19V155.417H1061.79V149.651C1061.03 150.062 1060.25 150.431 1059.45 150.759C1059.24 150.325 1058.98 149.909 1058.68 149.511C1062.31 147.976 1065.09 146.112 1067.01 143.921L1068.48 144.149ZM1059.52 140.142H1067.04C1066.79 139.673 1066.49 139.169 1066.16 138.63L1067.52 138.015C1067.95 138.683 1068.36 139.392 1068.75 140.142H1075.46V143.095H1074.04V141.407H1060.93V143.165H1059.52V140.142ZM1071.79 150.372H1063.19V153.36H1071.79V150.372ZM1067.39 145.45C1065.95 146.868 1064.39 148.087 1062.7 149.106H1072.42C1070.39 148.04 1068.72 146.821 1067.39 145.45ZM1065.07 142.181L1065.92 143.323C1063.76 144.647 1061.95 145.661 1060.49 146.364C1060.28 145.978 1060.01 145.573 1059.68 145.151C1061.69 144.272 1063.49 143.282 1065.07 142.181ZM1069.77 142.198C1071.53 143.007 1073.34 143.927 1075.2 144.958L1074.39 146.206C1072.94 145.315 1071.15 144.343 1069.03 143.288L1069.77 142.198ZM1077.34 145.433H1084.45C1084.63 144.993 1084.74 144.483 1084.8 143.903L1086.06 144.079C1085.99 144.571 1085.89 145.022 1085.75 145.433H1089.59C1089.12 145.093 1088.62 144.759 1088.1 144.431L1088.82 143.64C1089.6 144.097 1090.29 144.554 1090.91 145.011L1090.52 145.433H1093.8V146.593H1087.01C1088.37 147.917 1090.77 148.544 1094.22 148.474C1093.94 148.954 1093.7 149.405 1093.5 149.827C1093.19 149.804 1092.89 149.777 1092.6 149.748V155.118H1091.37V154.151H1087.61V155.101H1086.38V149.669H1091.98C1088.63 149.218 1086.48 148.192 1085.55 146.593H1085.24C1084.58 147.987 1082.45 149.013 1078.86 149.669H1084.48V155.101H1083.25V154.151H1079.54V155.118H1078.31V149.774C1078 149.833 1077.68 149.892 1077.34 149.95C1077.17 149.599 1076.94 149.183 1076.66 148.702C1080.57 148.198 1082.92 147.495 1083.71 146.593H1077.34V145.433ZM1086.36 139.034H1092.58V144.22H1091.35V143.604H1087.59V144.149H1086.36V139.034ZM1078.29 139.034H1084.46V144.149H1083.23V143.604H1079.52V144.325H1078.29V139.034ZM1091.35 140.124H1087.59V142.515H1091.35V140.124ZM1083.23 140.124H1079.52V142.515H1083.23V140.124ZM1091.37 150.759H1087.61V153.062H1091.37V150.759ZM1083.25 150.759H1079.54V153.062H1083.25V150.759Z" fill="white"/>
<path d="M230 143C228.333 143 227 144.333 227 146C227 147.667 228.333 149 230 149C231.667 149 233 147.667 233 146C233 144.333 231.667 143 230 143Z" fill="white"/>
<path d="M292 146L282 140.226V151.774L292 146ZM228 146C228 144.886 228.886 144 230 144V142C227.781 142 226 143.781 226 146H228ZM230 144C231.114 144 232 144.886 232 146H234C234 143.781 232.219 142 230 142V144ZM232 146C232 147.114 231.114 148 230 148V150C232.219 150 234 148.219 234 146H232ZM230 148C228.886 148 228 147.114 228 146H226C226 148.219 227.781 150 230 150V148ZM233 147H283V145H233V147Z" fill="#4D4D4D"/>
<path d="M434 143C432.333 143 431 144.333 431 146C431 147.667 432.333 149 434 149C435.667 149 437 147.667 437 146C437 144.333 435.667 143 434 143Z" fill="white"/>
<path d="M496 146L486 140.226V151.774L496 146ZM432 146C432 144.886 432.886 144 434 144V142C431.781 142 430 143.781 430 146H432ZM434 144C435.114 144 436 144.886 436 146H438C438 143.781 436.219 142 434 142V144ZM436 146C436 147.114 435.114 148 434 148V150C436.219 150 438 148.219 438 146H436ZM434 148C432.886 148 432 147.114 432 146H430C430 148.219 431.781 150 434 150V148ZM437 147H487V145H437V147Z" fill="black"/>
<path d="M631 143C629.333 143 628 144.333 628 146C628 147.667 629.333 149 631 149C632.667 149 634 147.667 634 146C634 144.333 632.667 143 631 143Z" fill="white"/>
<path d="M693 146L683 140.226V151.774L693 146ZM629 146C629 144.886 629.886 144 631 144V142C628.781 142 627 143.781 627 146H629ZM631 144C632.114 144 633 144.886 633 146H635C635 143.781 633.219 142 631 142V144ZM633 146C633 147.114 632.114 148 631 148V150C633.219 150 635 148.219 635 146H633ZM631 148C629.886 148 629 147.114 629 146H627C627 148.219 628.781 150 631 150V148ZM634 147H684V145H634V147Z" fill="black"/>
<path d="M760 143C758.333 143 757 144.333 757 146C757 147.667 758.333 149 760 149C761.667 149 763 147.667 763 146C763 144.333 761.667 143 760 143Z" fill="white"/>
<path d="M822 146L812 140.226V151.774L822 146ZM758 146C758 144.886 758.886 144 760 144V142C757.781 142 756 143.781 756 146H758ZM760 144C761.114 144 762 144.886 762 146H764C764 143.781 762.219 142 760 142V144ZM762 146C762 147.114 761.114 148 760 148V150C762.219 150 764 148.219 764 146H762ZM760 148C758.886 148 758 147.114 758 146H756C756 148.219 757.781 150 760 150V148ZM763 147H813V145H763V147Z" fill="black"/>
<path d="M943 143C941.333 143 940 144.333 940 146C940 147.667 941.333 149 943 149C944.667 149 946 147.667 946 146C946 144.333 944.667 143 943 143Z" fill="white"/>
<path d="M1005 146L995 140.226V151.774L1005 146ZM941 146C941 144.886 941.886 144 943 144V142C940.781 142 939 143.781 939 146H941ZM943 144C944.114 144 945 144.886 945 146H947C947 143.781 945.219 142 943 142V144ZM945 146C945 147.114 944.114 148 943 148V150C945.219 150 947 148.219 947 146H945ZM943 148C941.886 148 941 147.114 941 146H939C939 148.219 940.781 150 943 150V148ZM946 147H996V145H946V147Z" fill="black"/>
<path d="M1112 143C1110.33 143 1109 144.333 1109 146C1109 147.667 1110.33 149 1112 149C1113.67 149 1115 147.667 1115 146C1115 144.333 1113.67 143 1112 143Z" fill="white"/>
<path d="M1174 146L1164 140.226V151.774L1174 146ZM1110 146C1110 144.886 1110.89 144 1112 144V142C1109.78 142 1108 143.781 1108 146H1110ZM1112 144C1113.11 144 1114 144.886 1114 146H1116C1116 143.781 1114.22 142 1112 142V144ZM1114 146C1114 147.114 1113.11 148 1112 148V150C1114.22 150 1116 148.219 1116 146H1114ZM1112 148C1110.89 148 1110 147.114 1110 146H1108C1108 148.219 1109.78 150 1112 150V148ZM1115 147H1165V145H1115V147Z" fill="black"/>
<path d="M949.166 35C947.592 35 946.333 36.3333 946.333 38C946.333 39.6667 947.592 41 949.166 41C950.741 41 952 39.6667 952 38C952 36.3333 950.741 35 949.166 35Z" fill="white"/>
<path d="M739 127L744.774 117H733.226L739 127ZM947.333 38C947.333 36.8311 948.197 36 949.166 36V34C946.987 34 945.333 35.8355 945.333 38H947.333ZM949.166 36C950.135 36 951 36.8311 951 38H953C953 35.8355 951.346 34 949.166 34V36ZM951 38C951 39.1689 950.135 40 949.166 40V42C951.346 42 953 40.1645 953 38H951ZM949.166 40C948.197 40 947.333 39.1689 947.333 38H945.333C945.333 40.1645 946.987 42 949.166 42V40ZM948.166 41V62.5H950.166V41H948.166ZM929.166 81.5H759V83.5H929.166V81.5ZM738 102.5V118H740V102.5H738ZM759 81.5C747.402 81.5 738 90.902 738 102.5H740C740 92.0066 748.507 83.5 759 83.5V81.5ZM948.166 62.5C948.166 72.9934 939.66 81.5 929.166 81.5V83.5C940.764 83.5 950.166 74.098 950.166 62.5H948.166Z" fill="black"/>
<path d="M588.707 19.7071C589.098 19.3166 589.098 18.6834 588.707 18.2929L582.343 11.9289C581.953 11.5384 581.319 11.5384 580.929 11.9289C580.538 12.3195 580.538 12.9526 580.929 13.3431L586.586 19L580.929 24.6569C580.538 25.0474 580.538 25.6805 580.929 26.0711C581.319 26.4616 581.953 26.4616 582.343 26.0711L588.707 19.7071ZM561 20H588V18H561V20Z" fill="black"/>
<path d="M709.707 19.7071C710.098 19.3166 710.098 18.6834 709.707 18.2929L703.343 11.9289C702.953 11.5384 702.319 11.5384 701.929 11.9289C701.538 12.3195 701.538 12.9526 701.929 13.3431L707.586 19L701.929 24.6569C701.538 25.0474 701.538 25.6805 701.929 26.0711C702.319 26.4616 702.953 26.4616 703.343 26.0711L709.707 19.7071ZM682 20H709V18H682V20Z" fill="black"/>
<path d="M878.707 19.7071C879.098 19.3166 879.098 18.6834 878.707 18.2929L872.343 11.9289C871.953 11.5384 871.319 11.5384 870.929 11.9289C870.538 12.3195 870.538 12.9526 870.929 13.3431L876.586 19L870.929 24.6569C870.538 25.0474 870.538 25.6805 870.929 26.0711C871.319 26.4616 871.953 26.4616 872.343 26.0711L878.707 19.7071ZM851 20H878V18H851V20Z" fill="black"/>
<path d="M706.257 124C704.733 124 703.514 125.333 703.514 127C703.514 128.667 704.733 130 706.257 130C707.781 130 709 128.667 709 127C709 125.333 707.781 124 706.257 124Z" fill="white"/>
<path d="M490 38L484.226 48H495.774L490 38ZM704.514 127C704.514 125.8 705.367 125 706.257 125V123C704.098 123 702.514 124.867 702.514 127H704.514ZM706.257 125C707.146 125 708 125.8 708 127H710C710 124.867 708.415 123 706.257 123V125ZM708 127C708 128.2 707.146 129 706.257 129V131C708.415 131 710 129.133 710 127H708ZM706.257 129C705.367 129 704.514 128.2 704.514 127H702.514C702.514 129.133 704.098 131 706.257 131V129ZM707.257 124V102.5H705.257V124H707.257ZM686.257 81.5H510V83.5H686.257V81.5ZM491 62.5V47H489V62.5H491ZM510 81.5C499.507 81.5 491 72.9934 491 62.5H489C489 74.098 498.402 83.5 510 83.5V81.5ZM707.257 102.5C707.257 90.902 697.855 81.5 686.257 81.5V83.5C696.75 83.5 705.257 92.0066 705.257 102.5H707.257Z" fill="black"/>
</svg>
