<?xml version="1.0" encoding="utf-8"?>
<!-- Generator: Adobe Illustrator 19.0.0, SVG Export Plug-In . SVG Version: 6.00 Build 0)  -->
<svg version="1.1" id="Layer_1" xmlns="http://www.w3.org/2000/svg" xmlns:xlink="http://www.w3.org/1999/xlink" x="0px" y="0px"
	 viewBox="0 0 163.6666718 63.3333321" style="enable-background:new 0 0 163.6666718 63.3333321;" xml:space="preserve">
<style type="text/css">
	.st0{fill:#A7A9AC;}
	.st1{fill:none;stroke:#A7A9AC;stroke-miterlimit:10;}
	.st2{fill:none;stroke:#000000;stroke-miterlimit:10;}
	.st3{fill:#010101;}
</style>
<g id="XMLID_3_">
	<g id="XMLID_22_">
		<g id="XMLID_28_">
			<polygon id="XMLID_29_" class="st0" points="74.7739258,36.9805183 75.3776245,38.7981148 83.1673279,33.6686287 
				73.8553772,34.215168 74.4591675,36.032917 35.8426514,48.8596077 36.1574097,49.807209 			"/>
		</g>
	</g>
</g>
<g id="XMLID_1_">
	<g id="XMLID_12_">
		<g id="XMLID_13_">
			<polygon id="XMLID_14_" points="83.4085083,58.0566292 83.0814514,59.9437447 92.370575,59.1052132 83.9060974,55.1855354 
				83.57901,57.072773 36.0852509,48.8414803 35.9147339,49.8253365 			"/>
		</g>
	</g>
</g>
<g id="XMLID_2_">
	<g id="XMLID_57_">
		<g id="XMLID_62_">
			<polygon id="XMLID_67_" points="36.4993439,17.6761379 38.414566,17.6761379 36.0020752,8.6666765 33.585434,17.6761379 
				35.500824,17.6761379 35.500824,49.3333321 36.4993439,49.3333321 			"/>
		</g>
	</g>
</g>
<g id="XMLID_4_">
	<g id="XMLID_24_">
		<g id="XMLID_25_">
			<polygon id="XMLID_26_" points="52.8143005,25.7113247 54.3935242,26.7949123 57.501709,18.0011806 50.4116516,24.0626736 
				51.9909973,25.1463528 35.5884094,49.0508919 36.4117432,49.6158638 			"/>
		</g>
	</g>
</g>
<line id="XMLID_5_" class="st1" x1="83.1666641" y1="33.6666641" x2="104.6666641" y2="2.3333321"/>
<line id="XMLID_6_" class="st2" x1="57.5" y1="18.0000019" x2="104.6666641" y2="2.3333349"/>
<line id="XMLID_7_" class="st1" x1="83.1666641" y1="33.6666641" x2="139.5375824" y2="43.4364891"/>
<line id="XMLID_8_" class="st2" x1="92.3709183" y1="59.103157" x2="139.5375824" y2="43.4364929"/>
<line id="XMLID_9_" class="st2" x1="57.5" y1="18" x2="113.8709183" y2="27.769825"/>
<line id="XMLID_10_" class="st2" x1="92.3709106" y1="59.103157" x2="113.8709106" y2="27.769825"/>
<line id="XMLID_27_" class="st2" x1="139.5375824" y1="43.4364891" x2="161.0375824" y2="12.103157"/>
<line id="XMLID_32_" class="st2" x1="113.8709106" y1="27.7698231" x2="161.0375824" y2="12.103157"/>
<line id="XMLID_37_" class="st2" x1="104.6666641" y1="2.333334" x2="161.0375824" y2="12.103159"/>
<g id="XMLID_16_">
	<g id="XMLID_17_">
		<path id="XMLID_51_" class="st3" d="M84.3310547,49.637043h-2.7910156l-0.3320313,0.7675781
			c-0.1088867,0.2558594-0.1635742,0.4677734-0.1635742,0.6337891c0,0.2216797,0.0893555,0.3837891,0.2680664,0.4892578
			c0.1049805,0.0615234,0.3632813,0.1083984,0.7753906,0.1396484v0.2148438h-2.628418v-0.2148438
			c0.2836914-0.0429688,0.5166016-0.1601563,0.6992188-0.3525391c0.1826172-0.1914063,0.4082031-0.5878906,0.6762695-1.1894531
			l2.8261719-6.293457h0.1108398l2.8500977,6.4682617c0.2714844,0.6123047,0.4951172,0.9980469,0.6699219,1.1572266
			c0.1318359,0.1201172,0.3183594,0.1904297,0.5595703,0.2099609v0.2148438h-3.8232422v-0.2148438h0.1582031
			c0.3066406,0,0.5214844-0.0429688,0.6464844-0.1279297c0.0849609-0.0625,0.1279297-0.1513672,0.1279297-0.2675781
			c0-0.0703125-0.0117188-0.1416016-0.0351563-0.2158203c-0.0078125-0.0351563-0.0664063-0.1796875-0.1748047-0.4355469
			L84.3310547,49.637043z M84.1337891,49.2063789l-1.1777344-2.7163086l-1.2119141,2.7163086H84.1337891z"/>
	</g>
</g>
<g id="XMLID_18_">
	<g id="XMLID_19_">
		<path id="XMLID_47_" class="st0" d="M68.5771484,29.4851894c0.7617188,0.1738281,1.296875,0.3857422,1.6044922,0.6337891
			c0.4414063,0.3525391,0.6630859,0.8105469,0.6630859,1.3720703c0,0.5937481-0.2431641,1.0839825-0.7285156,1.4716778
			c-0.5957031,0.4697266-1.4619141,0.7041016-2.5981445,0.7041016h-4.078125v-0.2148438
			c0.3710938,0,0.6225586-0.0341797,0.7548828-0.1025391c0.1318359-0.0673828,0.2246094-0.1552734,0.277832-0.2646484
			c0.0537109-0.1083984,0.0800781-0.3759766,0.0800781-0.8027344v-5.1181622c0-0.4267578-0.0263672-0.6953125-0.0800781-0.8056641
			c-0.0532227-0.1103516-0.1469727-0.1987305-0.2807617-0.2646484c-0.1342773-0.065918-0.3847656-0.0986328-0.7519531-0.0986328
			v-0.215332h3.847168c0.9199219,0,1.5703125,0.0805664,1.953125,0.2412109
			c0.3828125,0.1611328,0.6845703,0.4013672,0.90625,0.7211914c0.2207031,0.3198242,0.3310547,0.6601563,0.3310547,1.0209961
			c0,0.3798828-0.1396484,0.7182617-0.4199219,1.0151367C69.7773438,29.0745449,69.2841797,29.3103848,68.5771484,29.4851894z
			 M66.4233398,29.7810879v2.5302715l-0.0058594,0.2910156c0,0.2089844,0.0541992,0.3671875,0.1625977,0.4736328
			c0.1083984,0.1074219,0.269043,0.1601563,0.4824219,0.1601563c0.3154297,0,0.6064453-0.0683594,0.8730469-0.2060547
			S68.40625,32.6922188,68.5478516,32.4305c0.1425781-0.2617188,0.2128906-0.5527325,0.2128906-0.8749981
			c0-0.3681641-0.0869141-0.6992188-0.2597656-0.9921875c-0.1738281-0.2919922-0.4130859-0.4970703-0.7158203-0.6132813
			C67.4804688,29.8338223,67.0268555,29.7771816,66.4233398,29.7810879z M66.4233398,29.3269863
			c0.5600586,0,0.9736328-0.0615234,1.2397461-0.1855469c0.2666016-0.1240234,0.4707031-0.2983398,0.6123047-0.5234375
			c0.1425781-0.2246094,0.2138672-0.5117188,0.2138672-0.8608398s-0.0703125-0.6347656-0.2109375-0.8579102
			c-0.1396484-0.2231445-0.3398438-0.3925781-0.6005859-0.5087891c-0.2602539-0.1166992-0.6787109-0.1728516-1.2543945-0.1689453
			V29.3269863z"/>
	</g>
</g>
<g id="XMLID_20_">
	<g id="XMLID_30_">
		<path id="XMLID_45_" class="st3" d="M56.8408203,8.0706377v2.75h-0.2304688
			c-0.1738281-0.7177734-0.4970703-1.2675781-0.9707031-1.6499023s-1.0107422-0.5732422-1.6103516-0.5732422
			c-0.5009766,0-0.9604492,0.1420898-1.3789063,0.4267578c-0.4179688,0.2851563-0.7241211,0.6577148-0.9174805,1.1176758
			c-0.2485352,0.5893555-0.3725586,1.2446289-0.3725586,1.9663086c0,0.7099609,0.0908203,1.3564453,0.2719727,1.9394531
			c0.1816406,0.5830078,0.4658203,1.0244141,0.8525391,1.3222656c0.3867188,0.2988281,0.8881836,0.4482422,1.503418,0.4482422
			c0.5048828,0,0.9677734-0.109375,1.3876953-0.328125c0.4208984-0.21875,0.8632813-0.5947266,1.3291016-1.1289063v0.6845703
			c-0.4501953,0.4638672-0.9189453,0.8007813-1.40625,1.00879c-0.4873047,0.2089844-1.0556641,0.3134766-1.7070313,0.3134766
			c-0.8564453,0-1.6171875-0.1699219-2.2817383-0.5097666c-0.6650391-0.3388672-1.1782227-0.8261719-1.5390625-1.4619141
			s-0.5415039-1.3134766-0.5415039-2.03125c0-0.7563477,0.2001953-1.4741211,0.6005859-2.152832
			s0.9414063-1.2055664,1.6220703-1.5795898c0.6806641-0.3745117,1.4033203-0.5620117,2.1689453-0.5620117
			c0.5644531,0,1.1601563,0.1210938,1.7880859,0.362793c0.3623047,0.140625,0.59375,0.2109375,0.6923828,0.2109375
			c0.1259766,0,0.2353516-0.0458984,0.328125-0.1376953s0.1533203-0.2368164,0.1806641-0.4360352H56.8408203z"/>
	</g>
</g>
<g id="XMLID_31_">
	<g id="XMLID_34_">
		<path id="XMLID_43_" class="st3" d="M12.7080078,14.3289385l2.1728516,2.1523447l2.171875-2.1523447l0.4033203,0.3955078
			l-2.1669922,2.1699228l2.1669922,2.1523438l-0.4033203,0.4072266l-2.171875-2.1582031l-2.1728516,2.1582031l-0.4086914-0.4072266
			l2.1723633-2.1582031l-2.1723633-2.1523447L12.7080078,14.3289385z"/>
	</g>
	<g id="XMLID_33_">
		<path id="XMLID_35_" class="st3" d="M6.4746094,17.6912441H3.6772461l-0.3330078,0.7675781
			c-0.1088867,0.2558594-0.1630859,0.4677734-0.1630859,0.6337891c0,0.2216797,0.0893555,0.3837891,0.2685547,0.4892578
			c0.1049805,0.0615234,0.3637695,0.1083984,0.7763672,0.1396484v0.2148438H1.5922852v-0.2148438
			c0.2841797-0.0429688,0.5180664-0.1601563,0.7011719-0.3525391c0.1826172-0.1914063,0.4086914-0.5878906,0.6772461-1.1894531
			l2.8325195-6.293458h0.1108398l2.8554688,6.4682627c0.2724609,0.6123047,0.496582,0.9980469,0.671875,1.1572266
			c0.1323242,0.1201172,0.3193359,0.1904297,0.5605469,0.2099609v0.2148438H6.1708984v-0.2148438h0.1577148
			c0.3076172,0,0.5234375-0.0429688,0.6484375-0.1279297c0.0854492-0.0625,0.128418-0.1513672,0.128418-0.2675781
			c0-0.0703125-0.0117188-0.1416016-0.0351563-0.2158203c-0.0078125-0.0351563-0.0664063-0.1796875-0.175293-0.4355469
			L6.4746094,17.6912441z M6.2758789,17.2605801l-1.1796875-2.7163095l-1.2143555,2.7163095H6.2758789z"/>
		<path id="XMLID_39_" class="st3" d="M24.9414063,15.7547197c0.7509766,0.1738281,1.2783203,0.3857431,1.5820313,0.63379
			c0.4365234,0.3525391,0.6542969,0.8105469,0.6542969,1.3720703c0,0.59375-0.2392578,1.0839844-0.7177734,1.4716797
			c-0.5878906,0.4697266-1.4423828,0.7041016-2.5644531,0.7041016h-4.0234375v-0.2148438
			c0.3662109,0,0.6142578-0.0341797,0.7451172-0.1025391c0.1298828-0.0673828,0.2216797-0.1552734,0.2744141-0.2646484
			c0.0517578-0.1083984,0.078125-0.3759766,0.078125-0.8027344v-5.118165c0-0.4267578-0.0263672-0.6953125-0.078125-0.8056641
			c-0.0527344-0.1103516-0.1455078-0.1987305-0.2773438-0.2646484c-0.1328125-0.065918-0.3798828-0.0986328-0.7421875-0.0986328
			v-0.215332h3.7958984c0.9072266,0,1.5498047,0.0805664,1.9277344,0.2412109
			c0.3769531,0.1611328,0.6748047,0.4013672,0.8935547,0.7211914c0.2177734,0.3198242,0.3261719,0.6601563,0.3261719,1.0209961
			c0,0.3798828-0.1376953,0.7182617-0.4140625,1.0151367C26.125,15.3440752,25.6376953,15.579915,24.9414063,15.7547197z
			 M22.8154297,16.0506191v2.5302734l-0.0058594,0.2910156c0,0.2089844,0.0537109,0.3671875,0.1611328,0.4736328
			c0.1064453,0.1074219,0.265625,0.1601563,0.4755859,0.1601563c0.3115234,0,0.5986328-0.0683594,0.8613281-0.2060547
			s0.4638672-0.3378906,0.6044922-0.5996094c0.1396484-0.2617188,0.2099609-0.5527344,0.2099609-0.875
			c0-0.3681641-0.0849609-0.6992188-0.2568359-0.9921875c-0.1708984-0.2919922-0.4072266-0.4970703-0.7060547-0.6132813
			C23.8583984,16.1033535,23.4111328,16.0467129,22.8154297,16.0506191z M22.8154297,15.5965166
			c0.5527344,0,0.9609375-0.0615234,1.2236328-0.1855469s0.4638672-0.2983398,0.6044922-0.5234375
			c0.1396484-0.2246094,0.2099609-0.5117188,0.2099609-0.8608398s-0.0693359-0.6347656-0.2070313-0.8579102
			c-0.1386719-0.2231445-0.3359375-0.3925781-0.5927734-0.5087891c-0.2568359-0.1166992-0.6699219-0.1728516-1.2382813-0.1689453
			V15.5965166z"/>
	</g>
</g>
<g id="XMLID_15_">
</g>
<g id="XMLID_55_">
</g>
<g id="XMLID_56_">
</g>
<g id="XMLID_58_">
</g>
<g id="XMLID_59_">
</g>
<g id="XMLID_60_">
</g>
</svg>
