<svg width="1716" height="1121" xmlns="http://www.w3.org/2000/svg" xmlns:xlink="http://www.w3.org/1999/xlink" overflow="hidden"><defs><clipPath id="clip0"><rect x="1079" y="216" width="1716" height="1121"/></clipPath><clipPath id="clip1"><rect x="1078" y="216" width="1716" height="1120"/></clipPath><clipPath id="clip2"><rect x="1078" y="216" width="1716" height="1120"/></clipPath><clipPath id="clip3"><rect x="1078" y="216" width="1716" height="1120"/></clipPath><clipPath id="clip4"><rect x="1078" y="216" width="1716" height="1120"/></clipPath><clipPath id="clip5"><rect x="1358" y="282" width="1345" height="708"/></clipPath><clipPath id="clip6"><rect x="1358" y="282" width="1345" height="708"/></clipPath><clipPath id="clip7"><rect x="1078" y="216" width="1716" height="1120"/></clipPath><clipPath id="clip8"><rect x="1078" y="216" width="1716" height="1120"/></clipPath><clipPath id="clip9"><rect x="1078" y="216" width="1716" height="1120"/></clipPath><clipPath id="clip10"><rect x="1078" y="216" width="1716" height="1120"/></clipPath><clipPath id="clip11"><rect x="1078" y="216" width="1716" height="1120"/></clipPath><clipPath id="clip12"><rect x="1078" y="216" width="1716" height="1120"/></clipPath><clipPath id="clip13"><rect x="1078" y="216" width="1716" height="1120"/></clipPath><clipPath id="clip14"><rect x="1078" y="216" width="1716" height="1120"/></clipPath><clipPath id="clip15"><rect x="1078" y="216" width="1716" height="1120"/></clipPath><clipPath id="clip16"><rect x="1078" y="216" width="1716" height="1120"/></clipPath><clipPath id="clip17"><rect x="1078" y="216" width="1716" height="1120"/></clipPath><clipPath id="clip18"><rect x="1078" y="216" width="1716" height="1120"/></clipPath><clipPath id="clip19"><rect x="1078" y="216" width="1716" height="1120"/></clipPath><clipPath id="clip20"><rect x="1078" y="216" width="1716" height="1120"/></clipPath><clipPath id="clip21"><rect x="1078" y="216" width="1716" height="1120"/></clipPath><clipPath id="clip22"><rect x="1078" y="216" width="1716" height="1120"/></clipPath><clipPath id="clip23"><rect x="1078" y="216" width="1716" height="1120"/></clipPath><clipPath id="clip24"><rect x="1078" y="216" width="1716" height="1120"/></clipPath><clipPath id="clip25"><rect x="1078" y="216" width="1716" height="1120"/></clipPath><clipPath id="clip26"><rect x="1078" y="216" width="1716" height="1120"/></clipPath><clipPath id="clip27"><rect x="1078" y="216" width="1716" height="1120"/></clipPath><clipPath id="clip28"><rect x="1078" y="216" width="1716" height="1120"/></clipPath><clipPath id="clip29"><rect x="1078" y="216" width="1716" height="1120"/></clipPath><clipPath id="clip30"><rect x="1078" y="216" width="1716" height="1120"/></clipPath><clipPath id="clip31"><rect x="1078" y="216" width="1716" height="1120"/></clipPath><clipPath id="clip32"><rect x="1078" y="216" width="1716" height="1120"/></clipPath><clipPath id="clip33"><rect x="1078" y="216" width="1716" height="1120"/></clipPath><clipPath id="clip34"><rect x="1078" y="216" width="1716" height="1120"/></clipPath><clipPath id="clip35"><rect x="1078" y="216" width="1716" height="1120"/></clipPath><clipPath id="clip36"><rect x="1078" y="216" width="1716" height="1120"/></clipPath><clipPath id="clip37"><rect x="1078" y="216" width="1716" height="1120"/></clipPath><clipPath id="clip38"><rect x="1078" y="216" width="1717" height="1121"/></clipPath><clipPath id="clip39"><rect x="1078" y="216" width="1717" height="1121"/></clipPath><clipPath id="clip40"><rect x="1078" y="216" width="1717" height="1121"/></clipPath><clipPath id="clip41"><rect x="1078" y="216" width="1717" height="1121"/></clipPath><clipPath id="clip42"><rect x="1078" y="216" width="1717" height="1121"/></clipPath><clipPath id="clip43"><rect x="1078" y="216" width="1717" height="1121"/></clipPath><clipPath id="clip44"><rect x="2314" y="1081" width="607" height="81"/></clipPath><clipPath id="clip45"><rect x="1078" y="216" width="1717" height="1121"/></clipPath><clipPath id="clip46"><rect x="1078" y="216" width="1717" height="1121"/></clipPath><clipPath id="clip47"><rect x="1078" y="216" width="1717" height="1121"/></clipPath><clipPath id="clip48"><rect x="1078" y="216" width="1717" height="1121"/></clipPath><clipPath id="clip49"><rect x="1078" y="216" width="1717" height="1121"/></clipPath></defs><g clip-path="url(#clip0)" transform="translate(-1079 -216)"><rect x="1079" y="216" width="1716" height="1121" fill="#FFFFFF"/><g clip-path="url(#clip1)"><path d="M1358.5 958.532 2700.5 958.532M1358.5 930.531 2700.5 930.531M1358.5 902.53 2700.5 902.53M1358.5 874.529 2700.5 874.529M1358.5 817.527 2700.5 817.527M1358.5 789.526 2700.5 789.526M1358.5 761.525 2700.5 761.525M1358.5 733.524 2700.5 733.524M1358.5 676.522 2700.5 676.522M1358.5 648.521 2700.5 648.521M1358.5 620.521 2700.5 620.521M1358.5 592.52 2700.5 592.52M1358.5 536.518 2700.5 536.518M1358.5 507.517 2700.5 507.517M1358.5 479.516 2700.5 479.516M1358.5 451.515 2700.5 451.515M1358.5 395.513 2700.5 395.513M1358.5 367.512 2700.5 367.512M1358.5 339.511 2700.5 339.511M1358.5 310.51 2700.5 310.51" stroke="#F2F2F2" stroke-width="3.4375" stroke-linejoin="round" stroke-miterlimit="10" fill="none"/></g><g clip-path="url(#clip2)"><path d="M1358.5 845.528 2700.5 845.528M1358.5 705.523 2700.5 705.523M1358.5 564.519 2700.5 564.519M1358.5 423.514 2700.5 423.514M1358.5 282.5 2700.5 282.5" stroke="#D9D9D9" stroke-width="3.4375" stroke-linejoin="round" stroke-miterlimit="10" fill="none"/></g><g clip-path="url(#clip3)"><path d="M1453.55 282.5 1453.55 986.5M1549.55 282.5 1549.55 986.5M1645.55 282.5 1645.55 986.5M1741.56 282.5 1741.56 986.5M1837.56 282.5 1837.56 986.5M1933.56 282.5 1933.56 986.5M2028.57 282.5 2028.57 986.5M2124.57 282.5 2124.57 986.5M2220.57 282.5 2220.57 986.5M2316.58 282.5 2316.58 986.5M2412.58 282.5 2412.58 986.5M2508.58 282.5 2508.58 986.5M2604.59 282.5 2604.59 986.5M2700.5 282.5 2700.5 986.5" stroke="#D9D9D9" stroke-width="3.4375" stroke-linejoin="round" stroke-miterlimit="10" fill="none"/></g><g clip-path="url(#clip4)"><rect x="1358.5" y="282.5" width="1342" height="704" stroke="#000000" stroke-width="3.4375" stroke-linejoin="round" stroke-miterlimit="10" fill="none"/></g><g clip-path="url(#clip5)"><path d="M1358.5 945.531 1405.55 887.529 1453.55 863.529 1501.55 822.527 1549.55 799.526 1597.55 771.526 1645.55 745.525 1693.56 719.524 1741.56 695.523 1789.56 681.523 1837.56 662.522 1885.56 645.521 1933.56 627.521 1981.57 612.52 2028.57 599.52 2076.57 576.519 2124.57 561.519 2172.57 545.518 2220.57 531.518 2268.57 513.517 2316.58 503.517 2364.58 478.516 2412.58 463.515 2460.58 446.515 2508.58 432.514 2556.58 424.514 2604.59 425.514 2652.59 425.514 2700.5 424.5 2700.5 986.5 2652.59 986.5 2604.59 986.5 2556.58 986.5 2508.58 986.5 2460.58 986.5 2412.58 986.5 2364.58 986.5 2316.58 986.5 2268.57 986.5 2220.57 986.5 2172.57 986.5 2124.57 986.5 2076.57 986.5 2028.57 986.5 1981.57 986.5 1933.56 986.5 1885.56 986.5 1837.56 986.5 1789.56 986.5 1741.56 986.5 1693.56 986.5 1645.55 986.5 1597.55 986.5 1549.55 986.5 1501.55 986.5 1453.55 986.5 1405.55 986.5 1358.5 986.5Z" stroke="#FF6347" stroke-width="6.875" stroke-linejoin="round" stroke-miterlimit="10" fill="#FF6347" fill-opacity="0.266667"/></g><g clip-path="url(#clip6)"><path d="M1358.5 945.531 1405.55 912.53 1453.55 910.5 1501.55 910.5 1549.55 911.53 1597.55 911.53 1645.55 911.53 1693.56 911.53 1741.56 911.53 1789.56 911.53 1837.56 911.53 1885.56 911.53 1933.56 911.53 1981.57 911.53 2028.57 911.53 2076.57 911.53 2124.57 911.53 2172.57 911.53 2220.57 911.53 2268.57 911.53 2316.58 911.53 2364.58 911.53 2412.58 911.53 2460.58 911.53 2508.58 911.53 2556.58 911.53 2604.59 911.53 2652.59 911.53 2700.5 911.53 2700.5 986.5 2652.59 986.5 2604.59 986.5 2556.58 986.5 2508.58 986.5 2460.58 986.5 2412.58 986.5 2364.58 986.5 2316.58 986.5 2268.57 986.5 2220.57 986.5 2172.57 986.5 2124.57 986.5 2076.57 986.5 2028.57 986.5 1981.57 986.5 1933.56 986.5 1885.56 986.5 1837.56 986.5 1789.56 986.5 1741.56 986.5 1693.56 986.5 1645.55 986.5 1597.55 986.5 1549.55 986.5 1501.55 986.5 1453.55 986.5 1405.55 986.5 1358.5 986.5Z" stroke="#0070C0" stroke-width="4.58333" stroke-linejoin="round" stroke-miterlimit="10" fill="#00CED1" fill-opacity="0.6"/></g><g clip-path="url(#clip7)"><path d="M0 0 0.000360892 704" stroke="#000000" stroke-width="3.4375" stroke-linejoin="round" stroke-miterlimit="10" fill="none" fill-rule="evenodd" transform="matrix(1 0 0 -1 1358.5 986.5)"/></g><g clip-path="url(#clip8)"><path d="M1358.5 986.5 1370.5 986.5M1358.5 845.528 1370.5 845.528M1358.5 705.523 1370.5 705.523M1358.5 564.519 1370.5 564.519M1358.5 423.514 1370.5 423.514M1358.5 282.5 1370.5 282.5" stroke="#000000" stroke-width="3.4375" stroke-linejoin="round" stroke-miterlimit="10" fill="none"/></g><g clip-path="url(#clip9)"><path d="M1358.5 986.5 2700.5 986.5" stroke="#000000" stroke-width="3.4375" stroke-linejoin="round" stroke-miterlimit="10" fill="none" fill-rule="evenodd"/></g><g clip-path="url(#clip10)"><path d="M1358.5 974.5 1358.5 986.5M1453.55 974.5 1453.55 986.5M1549.55 974.5 1549.55 986.5M1645.55 974.5 1645.55 986.5M1741.56 974.5 1741.56 986.5M1837.56 974.5 1837.56 986.5M1933.56 974.5 1933.56 986.5M2028.57 974.5 2028.57 986.5M2124.57 974.5 2124.57 986.5M2220.57 974.5 2220.57 986.5M2316.58 974.5 2316.58 986.5M2412.58 974.5 2412.58 986.5M2508.58 974.5 2508.58 986.5M2604.59 974.5 2604.59 986.5M2700.5 974.5 2700.5 986.5" stroke="#000000" stroke-width="3.4375" stroke-linejoin="round" stroke-miterlimit="10" fill="none"/></g><g clip-path="url(#clip11)"><text font-family="Times New Roman,Times New Roman_MSFontService,sans-serif" font-weight="400" font-size="41" transform="matrix(1 0 0 1 1302.3 1000)">0</text></g><g clip-path="url(#clip12)"><text font-family="Times New Roman,Times New Roman_MSFontService,sans-serif" font-weight="400" font-size="41" transform="matrix(1 0 0 1 1261.05 859)">500</text></g><g clip-path="url(#clip13)"><text font-family="Times New Roman,Times New Roman_MSFontService,sans-serif" font-weight="400" font-size="41" transform="matrix(1 0 0 1 1240.42 718)">1000</text></g><g clip-path="url(#clip14)"><text font-family="Times New Roman,Times New Roman_MSFontService,sans-serif" font-weight="400" font-size="41" transform="matrix(1 0 0 1 1240.42 577)">1500</text></g><g clip-path="url(#clip15)"><text font-family="Times New Roman,Times New Roman_MSFontService,sans-serif" font-weight="400" font-size="41" transform="matrix(1 0 0 1 1240.42 437)">2000</text></g><g clip-path="url(#clip16)"><text font-family="Times New Roman,Times New Roman_MSFontService,sans-serif" font-weight="400" font-size="41" transform="matrix(1 0 0 1 1240.42 296)">2500</text></g><g clip-path="url(#clip17)"><text font-family="Times New Roman,Times New Roman_MSFontService,sans-serif" font-weight="400" font-size="41" transform="matrix(1 0 0 1 1347.7 1048)">0</text></g><g clip-path="url(#clip18)"><text font-family="Times New Roman,Times New Roman_MSFontService,sans-serif" font-weight="400" font-size="41" transform="matrix(1 0 0 1 1433.25 1048)">10</text></g><g clip-path="url(#clip19)"><text font-family="Times New Roman,Times New Roman_MSFontService,sans-serif" font-weight="400" font-size="41" transform="matrix(1 0 0 1 1529.11 1048)">20</text></g><g clip-path="url(#clip20)"><text font-family="Times New Roman,Times New Roman_MSFontService,sans-serif" font-weight="400" font-size="41" transform="matrix(1 0 0 1 1624.97 1048)">30</text></g><g clip-path="url(#clip21)"><text font-family="Times New Roman,Times New Roman_MSFontService,sans-serif" font-weight="400" font-size="41" transform="matrix(1 0 0 1 1720.83 1048)">40</text></g><g clip-path="url(#clip22)"><text font-family="Times New Roman,Times New Roman_MSFontService,sans-serif" font-weight="400" font-size="41" transform="matrix(1 0 0 1 1816.69 1048)">50</text></g><g clip-path="url(#clip23)"><text font-family="Times New Roman,Times New Roman_MSFontService,sans-serif" font-weight="400" font-size="41" transform="matrix(1 0 0 1 1912.55 1048)">60</text></g><g clip-path="url(#clip24)"><text font-family="Times New Roman,Times New Roman_MSFontService,sans-serif" font-weight="400" font-size="41" transform="matrix(1 0 0 1 2008.41 1048)">70</text></g><g clip-path="url(#clip25)"><text font-family="Times New Roman,Times New Roman_MSFontService,sans-serif" font-weight="400" font-size="41" transform="matrix(1 0 0 1 2104.27 1048)">80</text></g><g clip-path="url(#clip26)"><text font-family="Times New Roman,Times New Roman_MSFontService,sans-serif" font-weight="400" font-size="41" transform="matrix(1 0 0 1 2200.14 1048)">90</text></g><g clip-path="url(#clip27)"><text font-family="Times New Roman,Times New Roman_MSFontService,sans-serif" font-weight="400" font-size="41" transform="matrix(1 0 0 1 2285.68 1048)">100</text></g><g clip-path="url(#clip28)"><text font-family="Times New Roman,Times New Roman_MSFontService,sans-serif" font-weight="400" font-size="41" transform="matrix(1 0 0 1 2381.54 1048)">110</text></g><g clip-path="url(#clip29)"><text font-family="Times New Roman,Times New Roman_MSFontService,sans-serif" font-weight="400" font-size="41" transform="matrix(1 0 0 1 2477.41 1048)">120</text></g><g clip-path="url(#clip30)"><text font-family="Times New Roman,Times New Roman_MSFontService,sans-serif" font-weight="400" font-size="41" transform="matrix(1 0 0 1 2573.27 1048)">130</text></g><g clip-path="url(#clip31)"><text font-family="Times New Roman,Times New Roman_MSFontService,sans-serif" font-weight="400" font-size="41" transform="matrix(1 0 0 1 2669.13 1048)">140</text></g><g clip-path="url(#clip32)"><text font-family="Times New Roman,Times New Roman_MSFontService,sans-serif" font-weight="400" font-size="46" transform="matrix(6.12323e-17 -1 1 6.12323e-17 1216.95 844)">System Memory (MB)</text></g><g clip-path="url(#clip33)"><text font-family="Times New Roman,Times New Roman_MSFontService,sans-serif" font-weight="400" font-size="46" transform="matrix(1 0 0 1 1890.89 1303)">Time (s)</text></g><g clip-path="url(#clip34)"><rect x="1105.5" y="1110.5" width="19.9999" height="21" stroke="#FF6347" stroke-width="6.875" stroke-linejoin="round" stroke-miterlimit="10" fill="#FF6347" fill-opacity="0.266667"/></g><g clip-path="url(#clip35)"><text font-family="Times New Roman,Times New Roman_MSFontService,sans-serif" font-weight="400" font-size="41" transform="matrix(1 0 0 1 1134.27 1134)">Direct load</text></g><g clip-path="url(#clip36)"><rect x="1105.5" y="1183.5" width="19.9999" height="21" stroke="#0070C0" stroke-width="4.58333" stroke-linejoin="round" stroke-miterlimit="10" fill="#00CED1" fill-opacity="0.6"/></g><g clip-path="url(#clip37)"><text font-family="Times New Roman,Times New Roman_MSFontService,sans-serif" font-weight="400" font-size="41" transform="matrix(1 0 0 1 1134.27 1207)">Our method</text></g><g clip-path="url(#clip38)"><rect x="1360" y="1096" width="1198" height="51.0002" fill="#FF6347"/></g><g clip-path="url(#clip39)"><rect x="1360" y="1170" width="45" height="50.9999" fill="#00CED1"/></g><g clip-path="url(#clip40)"><rect x="1360.5" y="1094.5" width="1342" height="50.9999" stroke="#000000" stroke-width="3.4375" stroke-miterlimit="8" fill="none"/></g><g clip-path="url(#clip41)"><rect x="1360.5" y="1170.5" width="1342" height="50.9999" stroke="#000000" stroke-width="3.4375" stroke-miterlimit="8" fill="none"/></g><g clip-path="url(#clip42)"><path d="M2699.5 280.5 2699.5 989.364" stroke="#000000" stroke-width="4.58333" stroke-miterlimit="8" fill="none" fill-rule="evenodd"/></g><g clip-path="url(#clip43)"><g clip-path="url(#clip44)"><text font-family="Times New Roman,Times New Roman_MSFontService,sans-serif" font-weight="400" font-size="46" transform="matrix(1 0 0 1 2574.18 1138)">125s</text></g></g><g clip-path="url(#clip45)"><text font-family="Times New Roman,Times New Roman_MSFontService,sans-serif" font-weight="400" font-size="46" transform="matrix(1 0 0 1 1446.44 1210)">5s</text></g><g clip-path="url(#clip46)"><path d="M1407 909 1407 1220.16" stroke="#000000" stroke-width="2.29167" stroke-miterlimit="8" stroke-dasharray="18.3333 6.875" fill="none" fill-rule="evenodd"/></g><g clip-path="url(#clip47)"><path d="M1399.5 913C1399.5 908.305 1403.31 904.5 1408 904.5 1412.69 904.5 1416.5 908.305 1416.5 913 1416.5 917.694 1412.69 921.5 1408 921.5 1403.31 921.5 1399.5 917.694 1399.5 913Z" stroke="#41719C" stroke-width="4.58333" stroke-miterlimit="8" fill="#FFFFFF" fill-rule="evenodd"/></g><g clip-path="url(#clip48)"><path d="M2548.5 426C2548.5 421.306 2552.31 417.5 2557 417.5 2561.69 417.5 2565.5 421.306 2565.5 426 2565.5 430.694 2561.69 434.5 2557 434.5 2552.31 434.5 2548.5 430.694 2548.5 426Z" stroke="#FF6347" stroke-width="4.58333" stroke-miterlimit="8" fill="#FFFFFF" fill-rule="evenodd"/></g><g clip-path="url(#clip49)"><path d="M2558 436 2558 1143.64" stroke="#000000" stroke-width="2.29167" stroke-miterlimit="8" stroke-dasharray="18.3333 6.875" fill="none" fill-rule="evenodd"/></g></g></svg>