<svg width="3412" height="1514" xmlns="http://www.w3.org/2000/svg" xmlns:xlink="http://www.w3.org/1999/xlink" overflow="hidden"><defs><filter id="fx0" x="-10%" y="-10%" width="120%" height="120%" filterUnits="userSpaceOnUse" primitiveUnits="userSpaceOnUse"><feComponentTransfer color-interpolation-filters="sRGB"><feFuncR type="discrete" tableValues="0 0"/><feFuncG type="discrete" tableValues="0 0"/><feFuncB type="discrete" tableValues="0 0"/><feFuncA type="linear" slope="0.4" intercept="0"/></feComponentTransfer><feGaussianBlur stdDeviation="6.11111 6.11111"/></filter><filter id="fx1" x="-10%" y="-10%" width="120%" height="120%" filterUnits="userSpaceOnUse" primitiveUnits="userSpaceOnUse"><feComponentTransfer color-interpolation-filters="sRGB"><feFuncR type="discrete" tableValues="0 0"/><feFuncG type="discrete" tableValues="0 0"/><feFuncB type="discrete" tableValues="0 0"/><feFuncA type="linear" slope="0.4" intercept="0"/></feComponentTransfer><feGaussianBlur stdDeviation="6.11111 6.11111"/></filter><filter id="fx2" x="-10%" y="-10%" width="120%" height="120%" filterUnits="userSpaceOnUse" primitiveUnits="userSpaceOnUse"><feComponentTransfer color-interpolation-filters="sRGB"><feFuncR type="discrete" tableValues="0 0"/><feFuncG type="discrete" tableValues="0 0"/><feFuncB type="discrete" tableValues="0 0"/><feFuncA type="linear" slope="0.4" intercept="0"/></feComponentTransfer><feGaussianBlur stdDeviation="6.11111 6.11111"/></filter><filter id="fx3" x="-10%" y="-10%" width="120%" height="120%" filterUnits="userSpaceOnUse" primitiveUnits="userSpaceOnUse"><feComponentTransfer color-interpolation-filters="sRGB"><feFuncR type="discrete" tableValues="0 0"/><feFuncG type="discrete" tableValues="0 0"/><feFuncB type="discrete" tableValues="0 0"/><feFuncA type="linear" slope="0.4" intercept="0"/></feComponentTransfer><feGaussianBlur stdDeviation="6.11111 6.11111"/></filter><filter id="fx4" x="-10%" y="-10%" width="120%" height="120%" filterUnits="userSpaceOnUse" primitiveUnits="userSpaceOnUse"><feComponentTransfer color-interpolation-filters="sRGB"><feFuncR type="discrete" tableValues="0 0"/><feFuncG type="discrete" tableValues="0 0"/><feFuncB type="discrete" tableValues="0 0"/><feFuncA type="linear" slope="0.4" intercept="0"/></feComponentTransfer><feGaussianBlur stdDeviation="6.11111 6.11111"/></filter><filter id="fx5" x="-10%" y="-10%" width="120%" height="120%" filterUnits="userSpaceOnUse" primitiveUnits="userSpaceOnUse"><feComponentTransfer color-interpolation-filters="sRGB"><feFuncR type="discrete" tableValues="0 0"/><feFuncG type="discrete" tableValues="0 0"/><feFuncB type="discrete" tableValues="0 0"/><feFuncA type="linear" slope="0.4" intercept="0"/></feComponentTransfer><feGaussianBlur stdDeviation="6.11111 6.11111"/></filter><filter id="fx6" x="-10%" y="-10%" width="120%" height="120%" filterUnits="userSpaceOnUse" primitiveUnits="userSpaceOnUse"><feComponentTransfer color-interpolation-filters="sRGB"><feFuncR type="discrete" tableValues="0 0"/><feFuncG type="discrete" tableValues="0 0"/><feFuncB type="discrete" tableValues="0 0"/><feFuncA type="linear" slope="0.4" intercept="0"/></feComponentTransfer><feGaussianBlur stdDeviation="6.11111 6.11111"/></filter><filter id="fx7" x="-10%" y="-10%" width="120%" height="120%" filterUnits="userSpaceOnUse" primitiveUnits="userSpaceOnUse"><feComponentTransfer color-interpolation-filters="sRGB"><feFuncR type="discrete" tableValues="0 0"/><feFuncG type="discrete" tableValues="0 0"/><feFuncB type="discrete" tableValues="0 0"/><feFuncA type="linear" slope="0.4" intercept="0"/></feComponentTransfer><feGaussianBlur stdDeviation="6.11111 6.11111"/></filter><filter id="fx8" x="-10%" y="-10%" width="120%" height="120%" filterUnits="userSpaceOnUse" primitiveUnits="userSpaceOnUse"><feComponentTransfer color-interpolation-filters="sRGB"><feFuncR type="discrete" tableValues="0 0"/><feFuncG type="discrete" tableValues="0 0"/><feFuncB type="discrete" tableValues="0 0"/><feFuncA type="linear" slope="0.4" intercept="0"/></feComponentTransfer><feGaussianBlur stdDeviation="6.11111 6.11111"/></filter><filter id="fx9" x="-10%" y="-10%" width="120%" height="120%" filterUnits="userSpaceOnUse" primitiveUnits="userSpaceOnUse"><feComponentTransfer color-interpolation-filters="sRGB"><feFuncR type="discrete" tableValues="0 0"/><feFuncG type="discrete" tableValues="0 0"/><feFuncB type="discrete" tableValues="0 0"/><feFuncA type="linear" slope="0.4" intercept="0"/></feComponentTransfer><feGaussianBlur stdDeviation="6.11111 6.11111"/></filter><filter id="fx10" x="-10%" y="-10%" width="120%" height="120%" filterUnits="userSpaceOnUse" primitiveUnits="userSpaceOnUse"><feComponentTransfer color-interpolation-filters="sRGB"><feFuncR type="discrete" tableValues="0 0"/><feFuncG type="discrete" tableValues="0 0"/><feFuncB type="discrete" tableValues="0 0"/><feFuncA type="linear" slope="0.4" intercept="0"/></feComponentTransfer><feGaussianBlur stdDeviation="6.11111 6.11111"/></filter><filter id="fx11" x="-10%" y="-10%" width="120%" height="120%" filterUnits="userSpaceOnUse" primitiveUnits="userSpaceOnUse"><feComponentTransfer color-interpolation-filters="sRGB"><feFuncR type="discrete" tableValues="0 0"/><feFuncG type="discrete" tableValues="0 0"/><feFuncB type="discrete" tableValues="0 0"/><feFuncA type="linear" slope="0.4" intercept="0"/></feComponentTransfer><feGaussianBlur stdDeviation="6.11111 6.11111"/></filter><filter id="fx12" x="-10%" y="-10%" width="120%" height="120%" filterUnits="userSpaceOnUse" primitiveUnits="userSpaceOnUse"><feComponentTransfer color-interpolation-filters="sRGB"><feFuncR type="discrete" tableValues="0 0"/><feFuncG type="discrete" tableValues="0 0"/><feFuncB type="discrete" tableValues="0 0"/><feFuncA type="linear" slope="0.4" intercept="0"/></feComponentTransfer><feGaussianBlur stdDeviation="6.11111 6.11111"/></filter><filter id="fx13" x="-10%" y="-10%" width="120%" height="120%" filterUnits="userSpaceOnUse" primitiveUnits="userSpaceOnUse"><feComponentTransfer color-interpolation-filters="sRGB"><feFuncR type="discrete" tableValues="0 0"/><feFuncG type="discrete" tableValues="0 0"/><feFuncB type="discrete" tableValues="0 0"/><feFuncA type="linear" slope="0.4" intercept="0"/></feComponentTransfer><feGaussianBlur stdDeviation="6.11111 6.11111"/></filter><filter id="fx14" x="-10%" y="-10%" width="120%" height="120%" filterUnits="userSpaceOnUse" primitiveUnits="userSpaceOnUse"><feComponentTransfer color-interpolation-filters="sRGB"><feFuncR type="discrete" tableValues="0 0"/><feFuncG type="discrete" tableValues="0 0"/><feFuncB type="discrete" tableValues="0 0"/><feFuncA type="linear" slope="0.4" intercept="0"/></feComponentTransfer><feGaussianBlur stdDeviation="6.11111 6.11111"/></filter><filter id="fx15" x="-10%" y="-10%" width="120%" height="120%" filterUnits="userSpaceOnUse" primitiveUnits="userSpaceOnUse"><feComponentTransfer color-interpolation-filters="sRGB"><feFuncR type="discrete" tableValues="0 0"/><feFuncG type="discrete" tableValues="0 0"/><feFuncB type="discrete" tableValues="0 0"/><feFuncA type="linear" slope="0.4" intercept="0"/></feComponentTransfer><feGaussianBlur stdDeviation="6.11111 6.11111"/></filter><filter id="fx16" x="-10%" y="-10%" width="120%" height="120%" filterUnits="userSpaceOnUse" primitiveUnits="userSpaceOnUse"><feComponentTransfer color-interpolation-filters="sRGB"><feFuncR type="discrete" tableValues="0 0"/><feFuncG type="discrete" tableValues="0 0"/><feFuncB type="discrete" tableValues="0 0"/><feFuncA type="linear" slope="0.4" intercept="0"/></feComponentTransfer><feGaussianBlur stdDeviation="6.11111 6.11111"/></filter><filter id="fx17" x="-10%" y="-10%" width="120%" height="120%" filterUnits="userSpaceOnUse" primitiveUnits="userSpaceOnUse"><feComponentTransfer color-interpolation-filters="sRGB"><feFuncR type="discrete" tableValues="0 0"/><feFuncG type="discrete" tableValues="0 0"/><feFuncB type="discrete" tableValues="0 0"/><feFuncA type="linear" slope="0.4" intercept="0"/></feComponentTransfer><feGaussianBlur stdDeviation="6.11111 6.11111"/></filter><filter id="fx18" x="-10%" y="-10%" width="120%" height="120%" filterUnits="userSpaceOnUse" primitiveUnits="userSpaceOnUse"><feComponentTransfer color-interpolation-filters="sRGB"><feFuncR type="discrete" tableValues="0 0"/><feFuncG type="discrete" tableValues="0 0"/><feFuncB type="discrete" tableValues="0 0"/><feFuncA type="linear" slope="0.4" intercept="0"/></feComponentTransfer><feGaussianBlur stdDeviation="6.11111 6.11111"/></filter><filter id="fx19" x="-10%" y="-10%" width="120%" height="120%" filterUnits="userSpaceOnUse" primitiveUnits="userSpaceOnUse"><feComponentTransfer color-interpolation-filters="sRGB"><feFuncR type="discrete" tableValues="0 0"/><feFuncG type="discrete" tableValues="0 0"/><feFuncB type="discrete" tableValues="0 0"/><feFuncA type="linear" slope="0.4" intercept="0"/></feComponentTransfer><feGaussianBlur stdDeviation="6.11111 6.11111"/></filter><clipPath id="clip20"><rect x="556" y="683" width="3412" height="1514"/></clipPath><clipPath id="clip21"><rect x="-3" y="-3" width="234" height="234"/></clipPath><clipPath id="clip22"><rect x="0" y="0" width="229" height="229"/></clipPath><clipPath id="clip23"><rect x="49" y="46" width="124" height="120"/></clipPath><clipPath id="clip24"><rect x="0" y="0" width="205" height="213"/></clipPath><clipPath id="clip25"><path d="M900.5 861C848.309 861 806 903.309 806 955.5 806 1007.69 848.309 1050 900.5 1050 952.691 1050 995 1007.69 995 955.5 995 903.309 952.691 861 900.5 861ZM556 683 3968 683 3968 2197 556 2197Z" fill-rule="evenodd" clip-rule="evenodd"/></clipPath><clipPath id="clip26"><rect x="-3" y="-3" width="245" height="245"/></clipPath><clipPath id="clip27"><rect x="0" y="0" width="239" height="239"/></clipPath><clipPath id="clip28"><rect x="49" y="46" width="96" height="99"/></clipPath><clipPath id="clip29"><rect x="0" y="0" width="194" height="213"/></clipPath><clipPath id="clip30"><path d="M710.5 1206C658.309 1206 616 1248.31 616 1300.5 616 1352.69 658.309 1395 710.5 1395 762.691 1395 805 1352.69 805 1300.5 805 1248.31 762.691 1206 710.5 1206ZM556 683 3968 683 3968 2197 556 2197Z" fill-rule="evenodd" clip-rule="evenodd"/></clipPath><clipPath id="clip31"><rect x="-3" y="-3" width="245" height="245"/></clipPath><clipPath id="clip32"><rect x="0" y="0" width="239" height="239"/></clipPath><clipPath id="clip33"><rect x="52" y="46" width="138" height="120"/></clipPath><clipPath id="clip34"><rect x="0" y="0" width="222" height="213"/></clipPath><clipPath id="clip35"><path d="M1668.5 1808C1616.31 1808 1574 1850.31 1574 1902.5 1574 1954.69 1616.31 1997 1668.5 1997 1720.69 1997 1763 1954.69 1763 1902.5 1763 1850.31 1720.69 1808 1668.5 1808ZM556 683 3968 683 3968 2197 556 2197Z" fill-rule="evenodd" clip-rule="evenodd"/></clipPath><clipPath id="clip36"><rect x="-3" y="-3" width="245" height="245"/></clipPath><clipPath id="clip37"><rect x="0" y="0" width="239" height="239"/></clipPath><clipPath id="clip38"><rect x="49" y="46" width="124" height="120"/></clipPath><clipPath id="clip39"><rect x="0" y="0" width="205" height="213"/></clipPath><clipPath id="clip40"><path d="M2450 1581 2450 1680 2582 1680 2582 1581ZM556 683 3968 683 3968 2197 556 2197Z" fill-rule="evenodd" clip-rule="evenodd"/></clipPath><clipPath id="clip41"><rect x="-3" y="-3" width="186" height="155"/></clipPath><clipPath id="clip42"><rect x="0" y="0" width="182" height="149"/></clipPath><clipPath id="clip43"><rect x="39" y="35" width="106" height="103"/></clipPath><clipPath id="clip44"><rect x="0" y="0" width="168" height="175"/></clipPath><clipPath id="clip45"><path d="M2777 1581 2777 1680 2909 1680 2909 1581ZM556 683 3968 683 3968 2197 556 2197Z" fill-rule="evenodd" clip-rule="evenodd"/></clipPath><clipPath id="clip46"><rect x="-3" y="-3" width="186" height="155"/></clipPath><clipPath id="clip47"><rect x="0" y="0" width="182" height="149"/></clipPath><clipPath id="clip48"><rect x="39" y="35" width="103" height="103"/></clipPath><clipPath id="clip49"><rect x="0" y="0" width="168" height="175"/></clipPath><clipPath id="clip50"><path d="M3111 1581 3111 1680 3242 1680 3242 1581ZM556 683 3968 683 3968 2197 556 2197Z" fill-rule="evenodd" clip-rule="evenodd"/></clipPath><clipPath id="clip51"><rect x="-3" y="-3" width="186" height="155"/></clipPath><clipPath id="clip52"><rect x="0" y="0" width="181" height="149"/></clipPath><clipPath id="clip53"><rect x="39" y="35" width="103" height="103"/></clipPath><clipPath id="clip54"><rect x="0" y="0" width="168" height="175"/></clipPath><clipPath id="clip55"><path d="M2564 1104C2527 1104 2497 1134 2497 1171 2497 1208 2527 1238 2564 1238 2601 1238 2631 1208 2631 1171 2631 1134 2601 1104 2564 1104ZM556 683 3968 683 3968 2197 556 2197Z" fill-rule="evenodd" clip-rule="evenodd"/></clipPath><clipPath id="clip56"><rect x="-3" y="-3" width="190" height="190"/></clipPath><clipPath id="clip57"><rect x="0" y="0" width="184" height="184"/></clipPath><clipPath id="clip58"><rect x="46" y="42" width="130" height="110"/></clipPath><clipPath id="clip59"><rect x="0" y="0" width="203" height="194"/></clipPath><clipPath id="clip60"><path d="M2843 1104C2806 1104 2776 1134 2776 1171 2776 1208 2806 1238 2843 1238 2880 1238 2910 1208 2910 1171 2910 1134 2880 1104 2843 1104ZM556 683 3968 683 3968 2197 556 2197Z" fill-rule="evenodd" clip-rule="evenodd"/></clipPath><clipPath id="clip61"><rect x="-3" y="-3" width="190" height="190"/></clipPath><clipPath id="clip62"><rect x="0" y="0" width="184" height="184"/></clipPath><clipPath id="clip63"><rect x="46" y="42" width="130" height="110"/></clipPath><clipPath id="clip64"><rect x="0" y="0" width="203" height="194"/></clipPath><clipPath id="clip65"><path d="M3122 1104C3085 1104 3055 1134 3055 1171 3055 1208 3085 1238 3122 1238 3159 1238 3189 1208 3189 1171 3189 1134 3159 1104 3122 1104ZM556 683 3968 683 3968 2197 556 2197Z" fill-rule="evenodd" clip-rule="evenodd"/></clipPath><clipPath id="clip66"><rect x="-3" y="-3" width="190" height="190"/></clipPath><clipPath id="clip67"><rect x="0" y="0" width="184" height="184"/></clipPath><clipPath id="clip68"><rect x="46" y="42" width="130" height="110"/></clipPath><clipPath id="clip69"><rect x="0" y="0" width="203" height="194"/></clipPath></defs><g clip-path="url(#clip20)" transform="translate(-556 -683)"><text fill="#7F7F7F" font-family="Source Code Pro,Source Code Pro_MSFontService,sans-serif" font-weight="400" font-size="83" transform="matrix(1 0 0 1 879.992 1329)">subgraph</text><g clip-path="url(#clip21)" filter="url(#fx0)" transform="translate(806 1798)"><g clip-path="url(#clip22)"><path d="M19.7228 114.223C19.7228 62.0319 62.0319 19.7229 114.223 19.7229 166.414 19.7229 208.723 62.0319 208.723 114.223 208.723 166.414 166.414 208.723 114.223 208.723 62.0319 208.723 19.7228 166.414 19.7228 114.223Z" fill="#7F7F7F" fill-rule="evenodd"/></g></g><g clip-path="url(#clip23)" filter="url(#fx1)" transform="translate(809 1818)"><g clip-path="url(#clip24)"><path d="M24.734 0.996C38.18 0.996 45.733-6.806 45.733-15.77 45.733-23.406 41.251-27.805 34.113-30.461L27.556-33.283C22.327-35.192 18.675-36.437 18.675-39.674 18.675-42.828 21.414-44.571 25.481-44.571 30.793-44.571 34.196-42.994 37.931-40.255L44.156-47.974C39.259-52.622 32.702-55.112 26.145-55.112 14.442-55.112 6.308-47.974 6.308-39.01 6.308-31.125 11.786-26.477 17.845-24.236L24.817-21.248C29.963-19.09 33.2-18.094 33.2-14.276 33.2-11.537 30.793-9.545 25.564-9.545 20.335-9.545 15.272-11.869 11.205-15.189L4.15-6.806C9.96-1.66 17.43 0.996 24.734 0.996Z" fill="#FFFFFF" transform="matrix(1 0 0 1 69.7952 123)"/><path d="M4.345 0 29.755 0 29.755-6.545 21.835-6.545 21.835-34.925 15.895-34.925C13.2-33.33 10.725-32.45 5.995-31.735L5.995-26.73 13.75-26.73 13.75-6.545 4.345-6.545Z" fill="#FFFFFF" transform="matrix(1 0 0 1 119.066 143)"/></g></g><path d="M816 1902.5C816 1850.31 858.309 1808 910.5 1808 962.691 1808 1005 1850.31 1005 1902.5 1005 1954.69 962.691 1997 910.5 1997 858.309 1997 816 1954.69 816 1902.5Z" fill="#7F7F7F" fill-rule="evenodd"/><text fill="#FFFFFF" font-family="Source Code Pro,Source Code Pro_MSFontService,sans-serif" font-weight="700" font-size="83" transform="matrix(1 0 0 1 869.073 1931)">S<tspan font-size="55" x="49.2708" y="20">1</tspan><tspan fill="#7F7F7F" font-size="83" x="-131.198" y="195">Shape 1</tspan></text><path d="M3.21472-1.21736 10.5189 18.071C11.1912 19.8464 10.297 21.8307 8.52153 22.5031 6.74608 23.1754 4.76177 22.2811 4.08944 20.5057L-3.21472 1.21736C-3.88705-0.558081-2.9928-2.54239-1.21736-3.21472 0.558081-3.88705 2.54239-2.9928 3.21472-1.21736ZM20.2578 43.7887 27.5619 63.0771C28.2343 64.8525 27.34 66.8368 25.5646 67.5092 23.7891 68.1815 21.8048 67.2872 21.1325 65.5118L13.8283 46.2235C13.156 44.448 14.0503 42.4637 15.8257 41.7914 17.6011 41.1191 19.5854 42.0133 20.2578 43.7887ZM37.3008 88.7948 44.605 108.083C45.2773 109.859 44.3831 111.843 42.6076 112.515 40.8322 113.188 38.8479 112.293 38.1756 110.518L30.8714 91.2296C30.1991 89.4541 31.0933 87.4698 32.8687 86.7975 34.6442 86.1252 36.6285 87.0194 37.3008 88.7948ZM54.3439 133.801 61.648 153.089C62.3204 154.865 61.4261 156.849 59.6507 157.521 57.8752 158.194 55.8909 157.299 55.2186 155.524L47.9144 136.236C47.2421 134.46 48.1364 132.476 49.9118 131.804 51.6872 131.131 53.6716 132.026 54.3439 133.801ZM71.3869 178.807 78.6911 198.095C79.3634 199.871 78.4692 201.855 76.6937 202.527 74.9183 203.2 72.934 202.306 72.2617 200.53L64.9575 181.242C64.2852 179.466 65.1794 177.482 66.9549 176.81 68.7303 176.137 70.7146 177.032 71.3869 178.807ZM88.43 223.813 95.7342 243.102C96.4065 244.877 95.5122 246.861 93.7368 247.534 91.9614 248.206 89.9771 247.312 89.3047 245.536L82.0005 226.248C81.3282 224.472 82.2225 222.488 83.9979 221.816 85.7734 221.143 87.7577 222.038 88.43 223.813ZM105.473 268.819 112.777 288.108C113.45 289.883 112.555 291.867 110.78 292.54 109.004 293.212 107.02 292.318 106.348 290.542L99.0436 271.254C98.3713 269.479 99.2655 267.494 101.041 266.822 102.816 266.15 104.801 267.044 105.473 268.819ZM122.516 313.825 129.82 333.114C130.493 334.889 129.598 336.874 127.823 337.546 126.047 338.218 124.063 337.324 123.391 335.548L116.087 316.26C115.414 314.485 116.309 312.5 118.084 311.828 119.859 311.156 121.844 312.05 122.516 313.825ZM139.559 358.832 146.863 378.12C147.536 379.895 146.641 381.88 144.866 382.552 143.091 383.224 141.106 382.33 140.434 380.555L133.13 361.266C132.457 359.491 133.352 357.507 135.127 356.834 136.903 356.162 138.887 357.056 139.559 358.832ZM163.38 392.617 166.753 440.349 137.662 402.356Z" fill="#FFB545" transform="matrix(-1 0 0 1 1077.25 1367.5)"/><path d="M1041.09 1239.99 895.5 956.5" stroke="#000000" stroke-width="6.875" stroke-linecap="round" stroke-linejoin="round" stroke-miterlimit="10" fill="none" fill-rule="evenodd"/><path d="M0 0 145.588 283.492" stroke="#000000" stroke-width="6.875" stroke-linecap="round" stroke-linejoin="round" stroke-miterlimit="10" fill="none" fill-rule="evenodd" transform="matrix(1 0 0 -1 750.5 1239.99)"/><g clip-path="url(#clip25)"><g clip-path="url(#clip26)" filter="url(#fx2)" transform="translate(791 846)"><g clip-path="url(#clip27)"><path d="M24.7228 119.223C24.7228 67.0319 67.0319 24.7228 119.223 24.7228 171.414 24.7228 213.723 67.0319 213.723 119.223 213.723 171.414 171.414 213.723 119.223 213.723 67.0319 213.723 24.7228 171.414 24.7228 119.223Z" stroke="#3E92A3" stroke-width="10" stroke-miterlimit="8" fill="#F2F2F2" fill-rule="evenodd"/></g></g><g clip-path="url(#clip28)" filter="url(#fx3)" transform="translate(813 871)"><g clip-path="url(#clip29)"><path d="M52.8882-26.8291C52.8882-22.4792 52.3478-18.5885 51.2671-15.1572 50.1864-11.7259 48.5788-8.8147 46.4443-6.42358 44.3099-4.03247 41.6689-2.20874 38.5212-0.952393 35.3736 0.303955 31.7329 0.932129 27.5991 0.932129 23.5194 0.932129 19.9597 0.398519 16.9202-0.668701 13.8806-1.73592 11.3477-3.36377 9.32129-5.55225 7.29492-7.74072 5.77515-10.5236 4.76196-13.9009 3.74878-17.2782 3.24219-21.2769 3.24219-25.897 3.24219-30.1388 3.78255-33.9552 4.86328-37.3459 5.94401-40.7367 7.55159-43.6209 9.68603-45.9985 11.8205-48.3761 14.4615-50.1999 17.6091-51.4697 20.7568-52.7396 24.411-53.3745 28.5718-53.3745 32.5435-53.3745 36.0491-52.8477 39.0886-51.7939 42.1282-50.7402 44.6679-49.1191 46.7078-46.9307 48.7476-44.7422 50.2877-41.9796 51.3279-38.6428 52.3681-35.3061 52.8882-31.3682 52.8882-26.8291ZM41.7026-26.2617C41.7026-29.0176 41.4865-31.5235 41.0542-33.7795 40.6219-36.0356 39.8857-37.9674 38.8455-39.5749 37.8053-41.1825 36.4206-42.4254 34.6914-43.3035 32.9622-44.1816 30.8008-44.6206 28.207-44.6206 25.5863-44.6206 23.3978-44.1275 21.6416-43.1414 19.8854-42.1552 18.467-40.838 17.3862-39.1899 16.3055-37.5418 15.5422-35.6168 15.0964-33.4148 14.6506-31.2128 14.4277-28.8825 14.4277-26.4238 14.4277-23.5599 14.6439-20.9864 15.0762-18.7034 15.5085-16.4203 16.238-14.4683 17.2646-12.8472 18.2913-11.2261 19.6693-9.98999 21.3984-9.13892 23.1276-8.28784 25.3026-7.8623 27.9233-7.8623 30.5441-7.8623 32.7326-8.34863 34.4888-9.32129 36.2449-10.2939 37.6634-11.6178 38.7441-13.293 39.8249-14.9681 40.5881-16.9202 41.0339-19.1492 41.4797-21.3782 41.7026-23.749 41.7026-26.2617Z" fill="#3E92A3" transform="matrix(1 0 0 1 69.0854 122)"/></g></g></g><path d="M806 955.5C806 903.309 848.309 861 900.5 861 952.691 861 995 903.309 995 955.5 995 1007.69 952.691 1050 900.5 1050 848.309 1050 806 1007.69 806 955.5Z" stroke="#3E92A3" stroke-width="10.3125" stroke-miterlimit="8" fill="#F2F2F2" fill-rule="evenodd"/><text fill="#3E92A3" font-family="Calibri,Calibri_MSFontService,sans-serif" font-weight="700" font-size="83" transform="matrix(1 0 0 1 872.363 983)">O<tspan font-family="Source Code Pro,Source Code Pro_MSFontService,sans-serif" font-size="83" x="-198.786" y="-197">Overlay 1</tspan></text><g clip-path="url(#clip30)"><g clip-path="url(#clip31)" filter="url(#fx4)" transform="translate(601 1191)"><g clip-path="url(#clip32)"><path d="M24.7227 119.223C24.7227 67.0316 67.0318 24.7225 119.223 24.7225 171.414 24.7225 213.723 67.0316 213.723 119.223 213.723 171.413 171.414 213.723 119.223 213.723 67.0318 213.723 24.7227 171.413 24.7227 119.223Z" stroke="#3E92A3" stroke-width="10" stroke-miterlimit="8" fill="#F2F2F2" fill-rule="evenodd"/></g></g><g clip-path="url(#clip33)" filter="url(#fx5)" transform="translate(601 1216)"><g clip-path="url(#clip34)"><path d="M66.8296-1.45898C66.8296-1.1888 66.7553-0.945638 66.6067-0.729492 66.4581-0.513346 66.1879-0.337728 65.7961-0.202637 65.4044-0.0675456 64.8843 0.0405273 64.2358 0.121582 63.5874 0.202637 62.7633 0.243164 61.7637 0.243164 60.791 0.243164 59.9805 0.202637 59.332 0.121582 58.6836 0.0405273 58.1702-0.0675456 57.792-0.202637 57.4137-0.337728 57.1435-0.513346 56.9814-0.729492 56.8193-0.945638 56.7383-1.1888 56.7383-1.45898L56.7383-44.1343 56.6572-44.1343 41.4595-1.49951C41.3514-1.14827 41.1758-0.857829 40.9326-0.628174 40.6894-0.398519 40.3585-0.216146 39.9397-0.0810547 39.5209 0.0540364 38.9873 0.141846 38.3389 0.182373 37.6904 0.2229 36.9069 0.243164 35.9883 0.243164 35.0697 0.243164 34.2861 0.209391 33.6377 0.141846 32.9893 0.0743001 32.4556-0.0337728 32.0369-0.182373 31.6181-0.330973 31.2871-0.513346 31.0439-0.729492 30.8008-0.945638 30.6387-1.20231 30.5576-1.49951L15.8867-44.1343 15.8057-44.1343 15.8057-1.45898C15.8057-1.1888 15.7314-0.945638 15.5828-0.729492 15.4342-0.513346 15.1572-0.337728 14.752-0.202637 14.3467-0.0675456 13.8266 0.0405273 13.1916 0.121582 12.5567 0.202637 11.7394 0.243164 10.7397 0.243164 9.76709 0.243164 8.95654 0.202637 8.3081 0.121582 7.65967 0.0405273 7.13957-0.0675456 6.7478-0.202637 6.35604-0.337728 6.08586-0.513346 5.93726-0.729492 5.78866-0.945638 5.71435-1.1888 5.71435-1.45898L5.71435-48.187C5.71435-49.5649 6.0791-50.6186 6.80859-51.3481 7.53808-52.0776 8.51074-52.4424 9.72656-52.4424L16.6973-52.4424C17.9401-52.4424 19.0073-52.3411 19.8989-52.1384 20.7905-51.9358 21.5605-51.5981 22.209-51.1252 22.8574-50.6524 23.3978-50.031 23.8301-49.261 24.2624-48.491 24.6406-47.5386 24.9648-46.4038L36.3125-15.1572 36.4746-15.1572 48.2275-46.3228C48.5788-47.4575 48.9638-48.4167 49.3826-49.2002 49.8013-49.9837 50.2877-50.6186 50.8415-51.105 51.3954-51.5913 52.0506-51.9358 52.8071-52.1384 53.5636-52.3411 54.4417-52.4424 55.4414-52.4424L62.6147-52.4424C63.3442-52.4424 63.9724-52.3478 64.4993-52.1587 65.0261-51.9696 65.4584-51.6926 65.7961-51.3279 66.1339-50.9631 66.3905-50.5173 66.5662-49.9905 66.7418-49.4636 66.8296-48.8625 66.8296-48.187Z" fill="#3E92A3" transform="matrix(1 0 0 1 69.1873 122)"/><path d="M25.3516-2.68555C25.3516-2.18424 25.3247-1.75903 25.271-1.40991 25.2173-1.06079 25.1412-0.783284 25.0427-0.577393 24.9443-0.371501 24.8324-0.223796 24.707-0.134277 24.5817-0.0447591 24.4385 0 24.2773 0L5.10254 0C4.95931 0 4.82503-0.0447591 4.69971-0.134277 4.57438-0.223796 4.46248-0.371501 4.36401-0.577393 4.26554-0.783284 4.18945-1.06079 4.13574-1.40991 4.08203-1.75903 4.05517-2.18424 4.05518-2.68555 4.05517-3.20475 4.07755-3.63892 4.12231-3.98804 4.16707-4.33716 4.23869-4.61914 4.33716-4.83398 4.43563-5.04883 4.54753-5.20548 4.67285-5.30395 4.79818-5.40242 4.94141-5.45166 5.10254-5.45166L11.5747-5.45166 11.5747-28.064 5.98877-24.9756C5.57698-24.7786 5.24129-24.6578 4.98169-24.613 4.72209-24.5683 4.51619-24.622 4.36401-24.7742 4.21183-24.9263 4.10889-25.1904 4.05518-25.5664 4.00146-25.9424 3.97461-26.4705 3.97461-27.1509 3.97461-27.5806 3.98356-27.9342 4.00146-28.2117 4.01937-28.4892 4.06413-28.7264 4.13574-28.9233 4.20736-29.1203 4.30583-29.2814 4.43115-29.4067 4.55648-29.5321 4.72656-29.6663 4.94141-29.8096L12.4072-34.6436C12.4967-34.7152 12.6086-34.7734 12.7429-34.8181 12.8772-34.8629 13.0518-34.8987 13.2666-34.9255 13.4814-34.9524 13.7634-34.9703 14.1125-34.9792 14.4617-34.9882 14.9137-34.9927 15.4687-34.9927 16.1491-34.9927 16.6996-34.9792 17.1204-34.9524 17.5411-34.9255 17.8589-34.8808 18.0737-34.8181 18.2886-34.7554 18.4318-34.6704 18.5034-34.563 18.575-34.4556 18.6108-34.3213 18.6108-34.1602L18.6108-5.45166 24.2773-5.45166C24.4385-5.45166 24.5862-5.40242 24.7205-5.30395 24.8547-5.20548 24.9711-5.04883 25.0696-4.83398 25.168-4.61914 25.2397-4.33716 25.2844-3.98804 25.3292-3.63892 25.3516-3.20475 25.3516-2.68555Z" fill="#3E92A3" transform="matrix(1 0 0 1 141.375 142)"/></g></g></g><path d="M616 1300.5C616 1248.31 658.309 1206 710.5 1206 762.691 1206 805 1248.31 805 1300.5 805 1352.69 762.691 1395 710.5 1395 658.309 1395 616 1352.69 616 1300.5Z" stroke="#3E92A3" stroke-width="10.3125" stroke-miterlimit="8" fill="#F2F2F2" fill-rule="evenodd"/><text fill="#3E92A3" font-family="Calibri,Calibri_MSFontService,sans-serif" font-weight="700" font-size="83" transform="matrix(1 0 0 1 660.465 1328)">M<tspan font-size="55" x="72.1875" y="20">1</tspan></text><g clip-path="url(#clip35)"><g clip-path="url(#clip36)" filter="url(#fx6)" transform="translate(1559 1793)"><g clip-path="url(#clip37)"><path d="M24.7228 119.223C24.7228 67.0319 67.0319 24.7229 119.223 24.7229 171.414 24.7229 213.723 67.0319 213.723 119.223 213.723 171.414 171.414 213.723 119.223 213.723 67.0319 213.723 24.7228 171.414 24.7228 119.223Z" stroke="#C00000" stroke-width="10" stroke-miterlimit="8" fill="#C00000" fill-rule="evenodd"/></g></g><g clip-path="url(#clip38)" filter="url(#fx7)" transform="translate(1568 1818)"><g clip-path="url(#clip39)"><path d="M24.734 0.996C38.18 0.996 45.733-6.806 45.733-15.77 45.733-23.406 41.251-27.805 34.113-30.461L27.556-33.283C22.327-35.192 18.675-36.437 18.675-39.674 18.675-42.828 21.414-44.571 25.481-44.571 30.793-44.571 34.196-42.994 37.931-40.255L44.156-47.974C39.259-52.622 32.702-55.112 26.145-55.112 14.442-55.112 6.308-47.974 6.308-39.01 6.308-31.125 11.786-26.477 17.845-24.236L24.817-21.248C29.963-19.09 33.2-18.094 33.2-14.276 33.2-11.537 30.793-9.545 25.564-9.545 20.335-9.545 15.272-11.869 11.205-15.189L4.15-6.806C9.96-1.66 17.43 0.996 24.734 0.996Z" fill="#FFFFFF" transform="matrix(1 0 0 1 69.2195 123)"/><path d="M3.19 0 29.425 0 29.425-6.82 21.12-6.82C19.305-6.82 16.775-6.6 14.795-6.38 21.56-12.32 27.61-18.59 27.61-24.475 27.61-31.185 22.605-35.585 15.29-35.585 9.9-35.585 6.435-33.715 2.805-30.03L7.15-25.685C9.13-27.555 11.385-29.26 14.19-29.26 17.82-29.26 19.91-27.39 19.91-23.98 19.91-18.975 13.2-13.035 3.19-4.62Z" fill="#FFFFFF" transform="matrix(1 0 0 1 118.49 143)"/></g></g></g><path d="M1574 1902.5C1574 1850.31 1616.31 1808 1668.5 1808 1720.69 1808 1763 1850.31 1763 1902.5 1763 1954.69 1720.69 1997 1668.5 1997 1616.31 1997 1574 1954.69 1574 1902.5Z" stroke="#C00000" stroke-width="10.3125" stroke-miterlimit="8" fill="#C00000" fill-rule="evenodd"/><text fill="#FFFFFF" font-family="Source Code Pro,Source Code Pro_MSFontService,sans-serif" font-weight="700" font-size="83" transform="matrix(1 0 0 1 1627.5 1931)">S<tspan font-size="55" x="49.2709" y="20">2</tspan><tspan fill="#C00000" font-size="83" x="-131.198" y="195">Shape 2</tspan></text><path d="M3.21473-1.21735 10.5188 18.071C11.1912 19.8464 10.2969 21.8308 8.52146 22.5031 6.74602 23.1754 4.76171 22.2811 4.08938 20.5057L-3.21473 1.21735C-3.88705-0.558092-2.9928-2.5424-1.21735-3.21473 0.558092-3.88705 2.5424-2.9928 3.21473-1.21735ZM20.2576 43.7888 27.5618 63.0772C28.2341 64.8526 27.3398 66.8369 25.5644 67.5092 23.7889 68.1816 21.8046 67.2873 21.1323 65.5119L13.8282 46.2235C13.1559 44.4481 14.0501 42.4638 15.8256 41.7914 17.601 41.1191 19.5853 42.0134 20.2576 43.7888ZM37.3006 88.795 44.6047 108.083C45.277 109.859 44.3828 111.843 42.6073 112.515 40.8319 113.188 38.8476 112.293 38.1752 110.518L30.8711 91.2297C30.1988 89.4542 31.0931 87.4699 32.8685 86.7976 34.6439 86.1253 36.6283 87.0195 37.3006 88.795ZM54.3435 133.801 61.6476 153.089C62.3199 154.865 61.4257 156.849 59.6502 157.522 57.8748 158.194 55.8905 157.3 55.2181 155.524L47.914 136.236C47.2417 134.46 48.136 132.476 49.9114 131.804 51.6869 131.131 53.6712 132.026 54.3435 133.801ZM75.7294 161.156 79.1018 208.888 50.0116 170.895Z" fill="#FFB545" transform="matrix(-1 0 0 1 1773.6 1588.5)"/><path d="M994.5 1588.5 1774.11 1588.5" stroke="#FFB545" stroke-width="6.875" stroke-linecap="round" stroke-linejoin="round" stroke-miterlimit="10" stroke-dasharray="20.625 27.5" fill="none" fill-rule="evenodd"/><path d="M2708.41 1318.6 2708.41 1455.18" stroke="#000000" stroke-width="4.58333" stroke-linejoin="round" stroke-miterlimit="10" fill="none" fill-rule="evenodd"/><path d="M2981.69 1318.6 2981.69 1455.18" stroke="#000000" stroke-width="4.58333" stroke-linejoin="round" stroke-miterlimit="10" fill="none" fill-rule="evenodd"/><path d="M3254.97 1318.6 3254.97 1455.18" stroke="#000000" stroke-width="4.58333" stroke-linejoin="round" stroke-miterlimit="10" fill="none" fill-rule="evenodd"/><path d="M2435.14 1318.6 2435.14 1455.18" stroke="#000000" stroke-width="4.58333" stroke-linejoin="round" stroke-miterlimit="10" fill="none" fill-rule="evenodd"/><path d="M3528.25 1318.6 3528.25 1455.18" stroke="#000000" stroke-width="4.58333" stroke-linejoin="round" stroke-miterlimit="10" fill="none" fill-rule="evenodd"/><path d="M2432.85 1320.89 3530.54 1320.89" stroke="#000000" stroke-width="4.58333" stroke-linejoin="round" stroke-miterlimit="10" fill="none" fill-rule="evenodd"/><path d="M2432.85 1452.89 3530.54 1452.89" stroke="#000000" stroke-width="4.58333" stroke-linejoin="round" stroke-miterlimit="10" fill="none" fill-rule="evenodd"/><text font-family="Calibri,Calibri_MSFontService,sans-serif" font-weight="400" font-size="83" transform="matrix(1 0 0 1 2530.53 1414)">O<tspan font-size="55" x="54.4273" y="20">1</tspan><tspan font-size="83" x="273.277" y="0">O</tspan><tspan font-size="55" x="327.704" y="20">2</tspan><tspan font-size="83" x="546.554" y="0">O</tspan><tspan font-size="55" x="600.981" y="20">3</tspan></text><path d="M3407.02 1385.45C3408.43 1385.45 3409.6 1385.95 3410.55 1386.93 3411.49 1387.92 3411.97 1389.17 3411.97 1390.68 3411.97 1392.19 3411.49 1393.44 3410.55 1394.43 3409.6 1395.42 3408.43 1395.91 3407.02 1395.91 3405.62 1395.91 3404.44 1395.42 3403.5 1394.43 3402.55 1393.44 3402.08 1392.19 3402.08 1390.68 3402.08 1389.17 3402.55 1387.92 3403.5 1386.93 3404.44 1385.95 3405.62 1385.45 3407.02 1385.45ZM3382.46 1385.45C3383.87 1385.45 3385.04 1385.95 3385.99 1386.93 3386.93 1387.92 3387.41 1389.17 3387.41 1390.68 3387.41 1392.19 3386.93 1393.44 3385.99 1394.43 3385.04 1395.42 3383.87 1395.91 3382.46 1395.91 3381.06 1395.91 3379.88 1395.42 3378.94 1394.43 3377.99 1393.44 3377.52 1392.19 3377.52 1390.68 3377.52 1389.17 3377.99 1387.92 3378.94 1386.93 3379.88 1385.95 3381.06 1385.45 3382.46 1385.45ZM3357.9 1385.45C3359.31 1385.45 3360.48 1385.95 3361.43 1386.93 3362.37 1387.92 3362.85 1389.17 3362.85 1390.68 3362.85 1392.19 3362.37 1393.44 3361.43 1394.43 3360.48 1395.42 3359.31 1395.91 3357.9 1395.91 3356.5 1395.91 3355.32 1395.42 3354.38 1394.43 3353.43 1393.44 3352.96 1392.19 3352.96 1390.68 3352.96 1389.17 3353.43 1387.92 3354.38 1386.93 3355.32 1385.95 3356.5 1385.45 3357.9 1385.45Z" fill-rule="evenodd"/><text fill="#000000" fill-opacity="0" font-family="Arial,Arial_MSFontService,sans-serif" font-size="10.4561" x="3352.96" y="1394.6">⋯</text><g clip-path="url(#clip40)"><g clip-path="url(#clip41)" filter="url(#fx8)" transform="translate(2435 1566)"><g clip-path="url(#clip42)"><rect x="24.7227" y="24.7227" width="132" height="99" stroke="#7F7F7F" stroke-width="10" stroke-miterlimit="8" fill="#7F7F7F"/></g></g><g clip-path="url(#clip43)" filter="url(#fx9)" transform="translate(2435 1562)"><g clip-path="url(#clip44)"><path d="M19.072 0.768C29.44 0.768 35.264-5.248 35.264-12.16 35.264-18.048 31.808-21.44 26.304-23.488L21.248-25.664C17.216-27.136 14.4-28.096 14.4-30.592 14.4-33.024 16.512-34.368 19.648-34.368 23.744-34.368 26.368-33.152 29.248-31.04L34.048-36.992C30.272-40.576 25.216-42.496 20.16-42.496 11.136-42.496 4.864-36.992 4.864-30.08 4.864-24 9.088-20.416 13.76-18.688L19.136-16.384C23.104-14.72 25.6-13.952 25.6-11.008 25.6-8.896 23.744-7.36 19.712-7.36 15.68-7.36 11.776-9.152 8.64-11.712L3.2-5.248C7.68-1.28 13.44 0.768 19.072 0.768Z" fill="#FFFFFF" transform="matrix(1 0 0 1 58.3538 100)"/><path d="M3.397 0 23.263 0 23.263-5.117 17.071-5.117 17.071-27.305 12.427-27.305C10.32-26.058 8.385-25.37 4.687-24.811L4.687-20.898 10.75-20.898 10.75-5.117 3.397-5.117Z" fill="#FFFFFF" transform="matrix(1 0 0 1 96.739 115)"/></g></g></g><rect x="2450" y="1581" width="132" height="99" stroke="#7F7F7F" stroke-width="10.3125" stroke-miterlimit="8" fill="#7F7F7F"/><text fill="#FFFFFF" font-family="Source Code Pro,Source Code Pro_MSFontService,sans-serif" font-weight="700" font-size="64" transform="matrix(1 0 0 1 2483.63 1652)">S<tspan font-size="43" x="38.3855" y="15">1</tspan></text><g clip-path="url(#clip45)"><g clip-path="url(#clip46)" filter="url(#fx10)" transform="translate(2762 1566)"><g clip-path="url(#clip47)"><rect x="24.7229" y="24.7227" width="132" height="99" stroke="#C00000" stroke-width="10" stroke-miterlimit="8" fill="#C00000"/></g></g><g clip-path="url(#clip48)" filter="url(#fx11)" transform="translate(2762 1562)"><g clip-path="url(#clip49)"><path d="M19.072 0.768C29.44 0.768 35.264-5.248 35.264-12.16 35.264-18.048 31.808-21.44 26.304-23.488L21.248-25.664C17.216-27.136 14.4-28.096 14.4-30.592 14.4-33.024 16.512-34.368 19.648-34.368 23.744-34.368 26.368-33.152 29.248-31.04L34.048-36.992C30.272-40.576 25.216-42.496 20.16-42.496 11.136-42.496 4.864-36.992 4.864-30.08 4.864-24 9.088-20.416 13.76-18.688L19.136-16.384C23.104-14.72 25.6-13.952 25.6-11.008 25.6-8.896 23.744-7.36 19.712-7.36 15.68-7.36 11.776-9.152 8.64-11.712L3.2-5.248C7.68-1.28 13.44 0.768 19.072 0.768Z" fill="#FFFFFF" transform="matrix(1 0 0 1 58.7166 100)"/><path d="M2.494 0 23.005 0 23.005-5.332 16.512-5.332C15.093-5.332 13.115-5.16 11.567-4.988 16.856-9.632 21.586-14.534 21.586-19.135 21.586-24.381 17.673-27.821 11.954-27.821 7.74-27.821 5.031-26.359 2.193-23.478L5.59-20.081C7.138-21.543 8.901-22.876 11.094-22.876 13.932-22.876 15.566-21.414 15.566-18.748 15.566-14.835 10.32-10.191 2.494-3.612Z" fill="#FFFFFF" transform="matrix(1 0 0 1 97.1021 115)"/></g></g></g><rect x="2777" y="1581" width="132" height="99" stroke="#C00000" stroke-width="10.3125" stroke-miterlimit="8" fill="#C00000"/><text fill="#FFFFFF" font-family="Source Code Pro,Source Code Pro_MSFontService,sans-serif" font-weight="700" font-size="64" transform="matrix(1 0 0 1 2810.99 1652)">S<tspan font-size="43" x="38.3855" y="15">2</tspan></text><g clip-path="url(#clip50)"><g clip-path="url(#clip51)" filter="url(#fx12)" transform="translate(3096 1566)"><g clip-path="url(#clip52)"><rect x="24.7227" y="24.7227" width="131" height="99" stroke="#7F7F7F" stroke-width="10" stroke-miterlimit="8" fill="#7F7F7F"/></g></g><g clip-path="url(#clip53)" filter="url(#fx13)" transform="translate(3096 1562)"><g clip-path="url(#clip54)"><path d="M19.072 0.768C29.44 0.768 35.264-5.248 35.264-12.16 35.264-18.048 31.808-21.44 26.304-23.488L21.248-25.664C17.216-27.136 14.4-28.096 14.4-30.592 14.4-33.024 16.512-34.368 19.648-34.368 23.744-34.368 26.368-33.152 29.248-31.04L34.048-36.992C30.272-40.576 25.216-42.496 20.16-42.496 11.136-42.496 4.864-36.992 4.864-30.08 4.864-24 9.088-20.416 13.76-18.688L19.136-16.384C23.104-14.72 25.6-13.952 25.6-11.008 25.6-8.896 23.744-7.36 19.712-7.36 15.68-7.36 11.776-9.152 8.64-11.712L3.2-5.248C7.68-1.28 13.44 0.768 19.072 0.768Z" fill="#FFFFFF" transform="matrix(1 0 0 1 58.2944 100)"/><path d="M11.997 0.516C17.759 0.516 22.833-2.365 22.833-7.439 22.833-10.965 20.167-13.201 16.727-14.104L16.727-14.276C19.995-15.523 21.93-17.501 21.93-20.339 21.93-25.112 17.802-27.821 11.868-27.821 8.342-27.821 5.246-26.488 2.58-24.338L5.762-20.468C7.654-21.973 9.417-22.876 11.567-22.876 14.061-22.876 15.609-21.758 15.609-19.866 15.609-17.673 13.631-16.211 8.256-16.211L8.256-11.739C14.663-11.739 16.512-10.234 16.512-7.826 16.512-5.762 14.362-4.601 11.395-4.601 8.901-4.601 6.536-5.762 4.73-7.353L1.806-3.354C3.913-1.032 7.31 0.516 11.997 0.516Z" fill="#FFFFFF" transform="matrix(1 0 0 1 96.6799 115)"/></g></g></g><rect x="3111" y="1581" width="131" height="99" stroke="#7F7F7F" stroke-width="10.3125" stroke-miterlimit="8" fill="#7F7F7F"/><text fill="#FFFFFF" font-family="Source Code Pro,Source Code Pro_MSFontService,sans-serif" font-weight="700" font-size="64" transform="matrix(1 0 0 1 3144.57 1652)">S<tspan font-size="43" x="38.3855" y="15">3</tspan></text><path d="M2582.5 1628.21 2619.17 1628.21 2619.17 1632.79 2582.5 1632.79ZM2632.92 1628.21 2669.58 1628.21 2669.58 1632.79 2632.92 1632.79ZM2683.33 1628.21 2720 1628.21 2720 1632.79 2683.33 1632.79ZM2733.75 1628.21 2770.42 1628.21 2770.42 1632.79 2733.75 1632.79ZM2747.4 1612.48 2778.29 1630.5 2747.4 1648.52C2746.31 1649.16 2744.9 1648.79 2744.27 1647.7 2743.63 1646.6 2744 1645.2 2745.09 1644.56L2772.59 1628.52 2772.59 1632.48 2745.09 1616.44C2744 1615.8 2743.63 1614.4 2744.27 1613.3 2744.9 1612.21 2746.31 1611.84 2747.4 1612.48Z"/><path d="M2909.5 1628.21 2946.17 1628.21 2946.17 1632.79 2909.5 1632.79ZM2959.92 1628.21 2996.58 1628.21 2996.58 1632.79 2959.92 1632.79ZM3010.33 1628.21 3047 1628.21 3047 1632.79 3010.33 1632.79ZM3060.75 1628.21 3097.42 1628.21 3097.42 1632.79 3060.75 1632.79ZM3080.61 1612.48 3111.51 1630.5 3080.61 1648.52C3079.52 1649.16 3078.12 1648.79 3077.48 1647.7 3076.84 1646.6 3077.21 1645.2 3078.3 1644.56L3105.8 1628.52 3105.8 1632.48 3078.31 1616.44C3077.21 1615.8 3076.84 1614.4 3077.48 1613.3 3078.12 1612.21 3079.52 1611.84 3080.61 1612.48Z"/><path d="M3264.5 1628.21 3301.17 1628.21 3301.17 1632.79 3264.5 1632.79ZM3314.92 1628.21 3351.58 1628.21 3351.58 1632.79 3314.92 1632.79ZM3365.33 1628.21 3402 1628.21 3402 1632.79 3365.33 1632.79ZM3415.75 1628.21 3419.53 1628.21 3419.53 1632.79 3415.75 1632.79ZM3393.19 1612.48 3424.08 1630.5 3393.19 1648.52C3392.09 1649.16 3390.69 1648.79 3390.05 1647.7 3389.41 1646.6 3389.78 1645.2 3390.88 1644.56L3418.38 1628.52 3418.38 1632.48 3390.88 1616.44C3389.78 1615.8 3389.41 1614.4 3390.05 1613.3 3390.69 1612.21 3392.09 1611.84 3393.19 1612.48Z"/><g clip-path="url(#clip55)"><g clip-path="url(#clip56)" filter="url(#fx14)" transform="translate(2482 1089)"><g clip-path="url(#clip57)"><path d="M24.7227 91.7227C24.7227 54.7198 54.7196 24.7229 91.7227 24.7229 128.726 24.7229 158.723 54.7198 158.723 91.7227 158.723 128.726 128.726 158.723 91.7227 158.723 54.7196 158.723 24.7227 128.726 24.7227 91.7227Z" stroke="#3E92A3" stroke-width="10" stroke-miterlimit="8" fill="#F2F2F2" fill-rule="evenodd"/></g></g><g clip-path="url(#clip58)" filter="url(#fx15)" transform="translate(2465 1094)"><g clip-path="url(#clip59)"><path d="M58.7778-1.2832C58.7778-1.04557 58.7125-0.831706 58.5818-0.641602 58.4511-0.451497 58.2135-0.297038 57.8689-0.178223 57.5243-0.0594075 57.0669 0.0356445 56.4966 0.106934 55.9263 0.178223 55.2015 0.213867 54.3223 0.213867 53.4668 0.213867 52.7539 0.178223 52.1836 0.106934 51.6133 0.0356445 51.1618-0.0594075 50.8291-0.178223 50.4964-0.297038 50.2588-0.451497 50.1162-0.641602 49.9736-0.831706 49.9023-1.04557 49.9023-1.2832L49.9023-38.8169 49.8311-38.8169 36.4644-1.31885C36.3693-1.00993 36.2148-0.754476 36.001-0.55249 35.7871-0.350505 35.496-0.190104 35.1277-0.0712891 34.7594 0.047526 34.29 0.124756 33.7197 0.1604 33.1494 0.196045 32.4603 0.213867 31.6523 0.213867 30.8444 0.213867 30.1553 0.184163 29.585 0.124756 29.0146 0.0653483 28.5453-0.0297038 28.177-0.1604 27.8087-0.291097 27.5176-0.451497 27.3037-0.641602 27.0898-0.831706 26.9473-1.05745 26.876-1.31885L13.9727-38.8169 13.9014-38.8169 13.9014-1.2832C13.9014-1.04557 13.836-0.831706 13.7053-0.641602 13.5746-0.451497 13.3311-0.297038 12.9746-0.178223 12.6182-0.0594075 12.1607 0.0356445 11.6023 0.106934 11.0439 0.178223 10.325 0.213867 9.4458 0.213867 8.59033 0.213867 7.87744 0.178223 7.30713 0.106934 6.73682 0.0356445 6.27938-0.0594075 5.93481-0.178223 5.59025-0.297038 5.35262-0.451497 5.22192-0.641602 5.09123-0.831706 5.02588-1.04557 5.02588-1.2832L5.02588-42.3813C5.02588-43.5933 5.34668-44.52 5.98828-45.1616 6.62988-45.8032 7.48535-46.124 8.55469-46.124L14.6855-46.124C15.7786-46.124 16.7173-46.0349 17.5015-45.8567 18.2856-45.6785 18.9629-45.3814 19.5332-44.9656 20.1035-44.5497 20.5788-44.0032 20.959-43.3259 21.3392-42.6487 21.6719-41.811 21.957-40.813L31.9375-13.3311 32.0801-13.3311 42.417-40.7417C42.7259-41.7397 43.0645-42.5833 43.4329-43.2725 43.8012-43.9616 44.2289-44.52 44.7161-44.9478 45.2032-45.3755 45.7795-45.6785 46.4448-45.8567 47.1102-46.0349 47.8825-46.124 48.7617-46.124L55.0708-46.124C55.7124-46.124 56.2649-46.0408 56.7283-45.8745 57.1916-45.7082 57.5718-45.4646 57.8689-45.1438 58.1659-44.823 58.3917-44.4309 58.5461-43.9675 58.7006-43.5041 58.7778-42.9754 58.7778-42.3813Z" fill="#3E92A3" transform="matrix(1 0 0 1 64.4258 111)"/><path d="M22.5859-2.39258C22.5859-1.94596 22.562-1.56714 22.5142-1.2561 22.4663-0.945068 22.3985-0.697835 22.3108-0.514404 22.2231-0.330973 22.1234-0.199381 22.0117-0.119629 21.9001-0.0398763 21.7725 0 21.6289 0L4.5459 0C4.41829 0 4.29867-0.0398763 4.18701-0.119629 4.07536-0.199381 3.97567-0.330973 3.88794-0.514404 3.80021-0.697835 3.73242-0.945068 3.68457-1.2561 3.63672-1.56714 3.61279-1.94596 3.61279-2.39258 3.61279-2.85514 3.63273-3.24194 3.67261-3.55298 3.71248-3.86401 3.77629-4.11523 3.86401-4.30664 3.95174-4.49805 4.05143-4.63761 4.16309-4.72534 4.27474-4.81307 4.40234-4.85693 4.5459-4.85693L10.312-4.85693 10.312-25.0024 5.33545-22.251C4.96859-22.0755 4.66951-21.9679 4.43823-21.928 4.20695-21.8881 4.02352-21.936 3.88794-22.0715 3.75236-22.2071 3.66064-22.4424 3.61279-22.7773 3.56494-23.1123 3.54102-23.5828 3.54102-24.189 3.54102-24.5718 3.54899-24.8868 3.56494-25.134 3.58089-25.3813 3.62077-25.5926 3.68457-25.7681 3.74837-25.9435 3.8361-26.0871 3.94775-26.1987 4.05941-26.3104 4.21094-26.43 4.40234-26.5576L11.0537-30.8643C11.1335-30.9281 11.2332-30.9799 11.3528-31.0198 11.4724-31.0597 11.6279-31.0916 11.8193-31.1155 12.0107-31.1394 12.262-31.1554 12.573-31.1633 12.884-31.1713 13.2868-31.1753 13.7812-31.1753 14.3874-31.1753 14.8778-31.1633 15.2527-31.1394 15.6275-31.1155 15.9106-31.0756 16.102-31.0198 16.2935-30.9639 16.4211-30.8882 16.4849-30.7925 16.5487-30.6968 16.5806-30.5771 16.5806-30.4336L16.5806-4.85693 21.6289-4.85693C21.7725-4.85693 21.904-4.81307 22.0237-4.72534 22.1433-4.63761 22.247-4.49805 22.3347-4.30664 22.4224-4.11523 22.4862-3.86401 22.5261-3.55298 22.566-3.24194 22.5859-2.85514 22.5859-2.39258Z" fill="#3E92A3" transform="matrix(1 0 0 1 128.593 128)"/></g></g></g><path d="M2497 1171C2497 1134 2527 1104 2564 1104 2601 1104 2631 1134 2631 1171 2631 1208 2601 1238 2564 1238 2527 1238 2497 1208 2497 1171Z" stroke="#3E92A3" stroke-width="10.3125" stroke-miterlimit="8" fill="#F2F2F2" fill-rule="evenodd"/><text fill="#3E92A3" font-family="Calibri,Calibri_MSFontService,sans-serif" font-weight="700" font-size="73" transform="matrix(1 0 0 1 2519.7 1196)">M<tspan font-size="49" x="64.1665" y="17">1</tspan></text><g clip-path="url(#clip60)"><g clip-path="url(#clip61)" filter="url(#fx16)" transform="translate(2761 1089)"><g clip-path="url(#clip62)"><path d="M24.7229 91.7227C24.7229 54.7198 54.7198 24.7229 91.7227 24.7229 128.726 24.7229 158.723 54.7198 158.723 91.7227 158.723 128.726 128.726 158.723 91.7227 158.723 54.7198 158.723 24.7229 128.726 24.7229 91.7227Z" stroke="#7F7F7F" stroke-width="10" stroke-miterlimit="8" fill="#F2F2F2" fill-rule="evenodd"/></g></g><g clip-path="url(#clip63)" filter="url(#fx17)" transform="translate(2744 1094)"><g clip-path="url(#clip64)"><path d="M58.7778-1.2832C58.7778-1.04557 58.7125-0.831706 58.5818-0.641602 58.4511-0.451497 58.2135-0.297038 57.8689-0.178223 57.5243-0.0594075 57.0669 0.0356445 56.4966 0.106934 55.9263 0.178223 55.2015 0.213867 54.3223 0.213867 53.4668 0.213867 52.7539 0.178223 52.1836 0.106934 51.6133 0.0356445 51.1618-0.0594075 50.8291-0.178223 50.4964-0.297038 50.2588-0.451497 50.1162-0.641602 49.9736-0.831706 49.9023-1.04557 49.9023-1.2832L49.9023-38.8169 49.8311-38.8169 36.4644-1.31885C36.3693-1.00993 36.2148-0.754476 36.001-0.55249 35.7871-0.350505 35.496-0.190104 35.1277-0.0712891 34.7594 0.047526 34.29 0.124756 33.7197 0.1604 33.1494 0.196045 32.4603 0.213867 31.6523 0.213867 30.8444 0.213867 30.1553 0.184163 29.585 0.124756 29.0146 0.0653483 28.5453-0.0297038 28.177-0.1604 27.8087-0.291097 27.5176-0.451497 27.3037-0.641602 27.0898-0.831706 26.9473-1.05745 26.876-1.31885L13.9727-38.8169 13.9014-38.8169 13.9014-1.2832C13.9014-1.04557 13.836-0.831706 13.7053-0.641602 13.5746-0.451497 13.3311-0.297038 12.9746-0.178223 12.6182-0.0594075 12.1607 0.0356445 11.6023 0.106934 11.0439 0.178223 10.325 0.213867 9.4458 0.213867 8.59033 0.213867 7.87744 0.178223 7.30713 0.106934 6.73682 0.0356445 6.27938-0.0594075 5.93481-0.178223 5.59025-0.297038 5.35262-0.451497 5.22192-0.641602 5.09123-0.831706 5.02588-1.04557 5.02588-1.2832L5.02588-42.3813C5.02588-43.5933 5.34668-44.52 5.98828-45.1616 6.62988-45.8032 7.48535-46.124 8.55469-46.124L14.6855-46.124C15.7786-46.124 16.7173-46.0349 17.5015-45.8567 18.2856-45.6785 18.9629-45.3814 19.5332-44.9656 20.1035-44.5497 20.5788-44.0032 20.959-43.3259 21.3392-42.6487 21.6719-41.811 21.957-40.813L31.9375-13.3311 32.0801-13.3311 42.417-40.7417C42.7259-41.7397 43.0645-42.5833 43.4329-43.2725 43.8012-43.9616 44.2289-44.52 44.7161-44.9478 45.2032-45.3755 45.7795-45.6785 46.4448-45.8567 47.1102-46.0349 47.8825-46.124 48.7617-46.124L55.0708-46.124C55.7124-46.124 56.2649-46.0408 56.7283-45.8745 57.1916-45.7082 57.5718-45.4646 57.8689-45.1438 58.1659-44.823 58.3917-44.4309 58.5461-43.9675 58.7006-43.5041 58.7778-42.9754 58.7778-42.3813Z" fill="#7F7F7F" transform="matrix(1 0 0 1 64.3989 111)"/><path d="M22.873-2.56006C22.873-2.09749 22.8531-1.70272 22.8132-1.37573 22.7734-1.04875 22.7135-0.781575 22.6338-0.574219 22.554-0.366862 22.4504-0.21932 22.3228-0.131592 22.1951-0.0438639 22.0516 0 21.8921 0L4.09131 0C3.7404 0 3.43734-0.031901 3.18213-0.0957031 2.92692-0.159505 2.71956-0.283122 2.56006-0.466553 2.40055-0.649984 2.28491-0.917155 2.21313-1.26807 2.14136-1.61898 2.10547-2.07357 2.10547-2.63184 2.10547-3.1582 2.12939-3.6088 2.17725-3.98364 2.2251-4.35848 2.31283-4.69344 2.44043-4.98852 2.56803-5.28361 2.73153-5.57072 2.93091-5.84985 3.13029-6.12899 3.38949-6.43603 3.7085-6.771L9.06787-12.5132C10.1366-13.6297 10.9979-14.6466 11.6519-15.5637 12.3058-16.4809 12.8162-17.3183 13.1831-18.0759 13.55-18.8336 13.8012-19.5314 13.9368-20.1694 14.0723-20.8075 14.1401-21.4136 14.1401-21.9878 14.1401-22.5142 14.0564-23.0126 13.8889-23.4832 13.7214-23.9537 13.4742-24.3644 13.1472-24.7153 12.8202-25.0662 12.4095-25.3414 11.915-25.5408 11.4206-25.7402 10.8384-25.8398 10.1685-25.8398 9.22738-25.8398 8.39396-25.7202 7.66821-25.481 6.94246-25.2417 6.30444-24.9745 5.75415-24.6794 5.20386-24.3844 4.74528-24.1132 4.37842-23.866 4.01156-23.6187 3.72445-23.4951 3.51709-23.4951 3.37353-23.4951 3.24992-23.543 3.14624-23.6387 3.04256-23.7344 2.95882-23.8939 2.89502-24.1172 2.83122-24.3405 2.77938-24.6396 2.7395-25.0144 2.69963-25.3892 2.67969-25.8478 2.67969-26.3901 2.67969-26.757 2.69165-27.064 2.71558-27.3113 2.7395-27.5585 2.77539-27.7738 2.82324-27.9573 2.87109-28.1407 2.9349-28.3002 3.01465-28.4358 3.0944-28.5714 3.23397-28.7349 3.43335-28.9263 3.63273-29.1177 3.99959-29.3609 4.53394-29.656 5.06828-29.9511 5.72624-30.2382 6.50781-30.5173 7.28939-30.7965 8.15071-31.0317 9.0918-31.2231 10.0329-31.4145 11.0138-31.5103 12.0347-31.5103 13.6457-31.5103 15.0533-31.3069 16.2576-30.9001 17.4618-30.4934 18.4627-29.9272 19.2603-29.2014 20.0578-28.4757 20.6519-27.6143 21.0427-26.6174 21.4335-25.6205 21.6289-24.5478 21.6289-23.3994 21.6289-22.3945 21.5332-21.4056 21.3418-20.4326 21.1504-19.4596 20.7516-18.4109 20.1455-17.2864 19.5394-16.1619 18.686-14.9177 17.5854-13.554 16.4849-12.1902 15.0254-10.6071 13.207-8.80469L9.59424-5.09619 21.7964-5.09619C21.9559-5.09619 22.1034-5.04834 22.239-4.95264 22.3746-4.85693 22.4902-4.70939 22.5859-4.51001 22.6816-4.31063 22.7534-4.04744 22.8013-3.72046 22.8491-3.39347 22.873-3.00667 22.873-2.56006Z" fill="#7F7F7F" transform="matrix(1 0 0 1 128.565 128)"/></g></g></g><path d="M2776 1171C2776 1134 2806 1104 2843 1104 2880 1104 2910 1134 2910 1171 2910 1208 2880 1238 2843 1238 2806 1238 2776 1208 2776 1171Z" stroke="#7F7F7F" stroke-width="10.3125" stroke-miterlimit="8" fill="#F2F2F2" fill-rule="evenodd"/><text fill="#7F7F7F" font-family="Calibri,Calibri_MSFontService,sans-serif" font-weight="700" font-size="73" transform="matrix(1 0 0 1 2798.68 1196)">M<tspan font-size="49" x="64.1668" y="17">2</tspan></text><g clip-path="url(#clip65)"><g clip-path="url(#clip66)" filter="url(#fx18)" transform="translate(3040 1089)"><g clip-path="url(#clip67)"><path d="M24.7227 91.7227C24.7227 54.7198 54.7196 24.7229 91.7227 24.7229 128.726 24.7229 158.723 54.7198 158.723 91.7227 158.723 128.726 128.726 158.723 91.7227 158.723 54.7196 158.723 24.7227 128.726 24.7227 91.7227Z" stroke="#7F7F7F" stroke-width="10" stroke-miterlimit="8" fill="#F2F2F2" fill-rule="evenodd"/></g></g><g clip-path="url(#clip68)" filter="url(#fx19)" transform="translate(3023 1094)"><g clip-path="url(#clip69)"><path d="M58.7778-1.2832C58.7778-1.04557 58.7125-0.831706 58.5818-0.641602 58.4511-0.451497 58.2135-0.297038 57.8689-0.178223 57.5243-0.0594075 57.0669 0.0356445 56.4966 0.106934 55.9263 0.178223 55.2015 0.213867 54.3223 0.213867 53.4668 0.213867 52.7539 0.178223 52.1836 0.106934 51.6133 0.0356445 51.1618-0.0594075 50.8291-0.178223 50.4964-0.297038 50.2588-0.451497 50.1162-0.641602 49.9736-0.831706 49.9023-1.04557 49.9023-1.2832L49.9023-38.8169 49.8311-38.8169 36.4644-1.31885C36.3693-1.00993 36.2148-0.754476 36.001-0.55249 35.7871-0.350505 35.496-0.190104 35.1277-0.0712891 34.7594 0.047526 34.29 0.124756 33.7197 0.1604 33.1494 0.196045 32.4603 0.213867 31.6523 0.213867 30.8444 0.213867 30.1553 0.184163 29.585 0.124756 29.0146 0.0653483 28.5453-0.0297038 28.177-0.1604 27.8087-0.291097 27.5176-0.451497 27.3037-0.641602 27.0898-0.831706 26.9473-1.05745 26.876-1.31885L13.9727-38.8169 13.9014-38.8169 13.9014-1.2832C13.9014-1.04557 13.836-0.831706 13.7053-0.641602 13.5746-0.451497 13.3311-0.297038 12.9746-0.178223 12.6182-0.0594075 12.1607 0.0356445 11.6023 0.106934 11.0439 0.178223 10.325 0.213867 9.4458 0.213867 8.59033 0.213867 7.87744 0.178223 7.30713 0.106934 6.73682 0.0356445 6.27938-0.0594075 5.93481-0.178223 5.59025-0.297038 5.35262-0.451497 5.22192-0.641602 5.09123-0.831706 5.02588-1.04557 5.02588-1.2832L5.02588-42.3813C5.02588-43.5933 5.34668-44.52 5.98828-45.1616 6.62988-45.8032 7.48535-46.124 8.55469-46.124L14.6855-46.124C15.7786-46.124 16.7173-46.0349 17.5015-45.8567 18.2856-45.6785 18.9629-45.3814 19.5332-44.9656 20.1035-44.5497 20.5788-44.0032 20.959-43.3259 21.3392-42.6487 21.6719-41.811 21.957-40.813L31.9375-13.3311 32.0801-13.3311 42.417-40.7417C42.7259-41.7397 43.0645-42.5833 43.4329-43.2725 43.8012-43.9616 44.2289-44.52 44.7161-44.9478 45.2032-45.3755 45.7795-45.6785 46.4448-45.8567 47.1102-46.0349 47.8825-46.124 48.7617-46.124L55.0708-46.124C55.7124-46.124 56.2649-46.0408 56.7283-45.8745 57.1916-45.7082 57.5718-45.4646 57.8689-45.1438 58.1659-44.823 58.3917-44.4309 58.5461-43.9675 58.7006-43.5041 58.7778-42.9754 58.7778-42.3813Z" fill="#7F7F7F" transform="matrix(1 0 0 1 64.3718 111)"/><path d="M22.7295-9.06787C22.7295-7.52067 22.4344-6.14893 21.8442-4.95264 21.2541-3.75635 20.4326-2.75146 19.3799-1.93799 18.3271-1.12451 17.0671-0.506429 15.5996-0.0837402 14.1322 0.338948 12.5291 0.550293 10.7905 0.550293 9.73779 0.550293 8.74886 0.474528 7.82373 0.322998 6.8986 0.171468 6.08114-0.0159505 5.37134-0.239258 4.66154-0.462565 4.07536-0.693848 3.61279-0.933105 3.15023-1.17236 2.84717-1.35579 2.70361-1.4834 2.56006-1.611 2.45239-1.75456 2.38061-1.91406 2.30884-2.07357 2.24504-2.26099 2.18921-2.47632 2.13338-2.69165 2.09351-2.96281 2.06958-3.28979 2.04565-3.61678 2.03369-4.01156 2.03369-4.47412 2.03369-5.23975 2.09749-5.7701 2.2251-6.06519 2.3527-6.36027 2.54411-6.50781 2.79932-6.50781 2.95882-6.50781 3.23397-6.40015 3.62476-6.18481 4.01554-5.96948 4.514-5.7382 5.12012-5.49097 5.72624-5.24373 6.43603-5.01245 7.24951-4.79712 8.06299-4.58179 8.98812-4.47412 10.0249-4.47412 10.9022-4.47412 11.6758-4.5778 12.3457-4.78516 13.0156-4.99251 13.5859-5.28361 14.0564-5.65845 14.5269-6.03328 14.8778-6.48787 15.1091-7.02222 15.3404-7.55656 15.4561-8.15071 15.4561-8.80469 15.4561-9.52246 15.3165-10.1685 15.0374-10.7427 14.7582-11.3169 14.3435-11.8074 13.7932-12.2141 13.2429-12.6208 12.5491-12.9359 11.7117-13.1592 10.8743-13.3825 9.88932-13.4941 8.75683-13.4941L6.07715-13.4941C5.86979-13.4941 5.69433-13.5221 5.55078-13.5779 5.40723-13.6337 5.2876-13.7493 5.19189-13.9248 5.09619-14.1003 5.0284-14.3435 4.98852-14.6545 4.94865-14.9656 4.92871-15.3683 4.92871-15.8628 4.92871-16.3254 4.94865-16.7042 4.98852-16.9993 5.0284-17.2943 5.0922-17.5216 5.17993-17.6812 5.26766-17.8407 5.37931-17.9523 5.51489-18.0161 5.65047-18.0799 5.81396-18.1118 6.00537-18.1118L8.70898-18.1118C9.63411-18.1118 10.4556-18.2195 11.1733-18.4348 11.8911-18.6501 12.4932-18.9572 12.9797-19.356 13.4662-19.7547 13.8371-20.2372 14.0923-20.8035 14.3475-21.3697 14.4751-21.9958 14.4751-22.6816 14.4751-23.208 14.3874-23.7065 14.2119-24.177 14.0365-24.6475 13.7773-25.0543 13.4343-25.3972 13.0914-25.7402 12.6488-26.0113 12.1064-26.2107 11.5641-26.4101 10.9261-26.5098 10.1924-26.5098 9.36295-26.5098 8.58138-26.3861 7.84766-26.1389 7.11393-25.8917 6.45597-25.6205 5.87378-25.3254 5.29158-25.0304 4.79712-24.7552 4.39038-24.5 3.98364-24.2448 3.68457-24.1172 3.49316-24.1172 3.36556-24.1172 3.25391-24.1451 3.1582-24.2009 3.0625-24.2568 2.98275-24.3644 2.91895-24.5239 2.85514-24.6834 2.80729-24.9147 2.77539-25.2178 2.74349-25.5208 2.72754-25.9116 2.72754-26.3901 2.72754-26.7889 2.73551-27.1199 2.75146-27.3831 2.76742-27.6462 2.79932-27.8656 2.84717-28.041 2.89502-28.2165 2.95483-28.368 3.02661-28.4956 3.09839-28.6232 3.21403-28.7628 3.37353-28.9143 3.53304-29.0658 3.86003-29.2931 4.35449-29.5962 4.84896-29.8992 5.47103-30.1943 6.2207-30.4814 6.97038-30.7686 7.83569-31.0118 8.81665-31.2112 9.79761-31.4106 10.8623-31.5103 12.0107-31.5103 13.5101-31.5103 14.838-31.3348 15.9944-30.9839 17.1508-30.633 18.1238-30.1265 18.9133-29.4646 19.7029-28.8027 20.301-27.9892 20.7078-27.0242 21.1145-26.0592 21.3179-24.9705 21.3179-23.7583 21.3179-22.8172 21.1982-21.9399 20.959-21.1265 20.7197-20.313 20.3688-19.5872 19.9062-18.9492 19.4437-18.3112 18.8655-17.7689 18.1716-17.3223 17.4778-16.8756 16.6763-16.5407 15.7671-16.3174L15.7671-16.2456C16.8517-16.118 17.8247-15.8429 18.686-15.4202 19.5474-14.9975 20.2771-14.4671 20.8752-13.8291 21.4734-13.1911 21.932-12.4693 22.251-11.6638 22.57-10.8583 22.7295-9.993 22.7295-9.06787Z" fill="#7F7F7F" transform="matrix(1 0 0 1 128.539 128)"/></g></g></g><path d="M3055 1171C3055 1134 3085 1104 3122 1104 3159 1104 3189 1134 3189 1171 3189 1208 3159 1238 3122 1238 3085 1238 3055 1208 3055 1171Z" stroke="#7F7F7F" stroke-width="10.3125" stroke-miterlimit="8" fill="#F2F2F2" fill-rule="evenodd"/><text fill="#7F7F7F" font-family="Calibri,Calibri_MSFontService,sans-serif" font-weight="700" font-size="73" transform="matrix(1 0 0 1 3077.65 1196)">M<tspan font-size="49" x="64.1668" y="17">3</tspan></text><path d="M2562.5 1251.5 2562.5 1324.34" stroke="#000000" stroke-width="4.58333" stroke-miterlimit="8" fill="none" fill-rule="evenodd"/><path d="M2846.5 1242.5 2846.5 1315.34" stroke="#000000" stroke-width="4.58333" stroke-miterlimit="8" fill="none" fill-rule="evenodd"/><path d="M3123.5 1242.5 3123.5 1315.34" stroke="#000000" stroke-width="4.58333" stroke-miterlimit="8" fill="none" fill-rule="evenodd"/><path d="M2804.79 1575.65 2804.35 1570.65 2804.36 1570.75 2803.61 1565.75 2803.65 1565.93 2802.4 1561.05 2802.49 1561.32 2800.43 1556.7 2800.59 1556.98 2797.52 1552.54 2797.7 1552.76 2795.7 1550.7 2795.81 1550.8 2793.5 1548.8 2793.66 1548.92 2790.91 1547.04 2791.03 1547.12 2787.84 1545.31 2787.95 1545.37 2784.39 1543.68 2784.52 1543.73 2780.39 1542.17 2780.52 1542.21 2775.77 1540.84 2775.87 1540.86 2770.37 1539.61 2770.47 1539.63 2764.35 1538.63 2764.39 1538.64 2757.7 1537.7 2757.74 1537.71 2750.62 1536.9 2750.66 1536.9 2743.16 1536.21 2743.18 1536.21 2727.37 1535.03 2727.38 1535.03 2711.13 1533.9 2695.17 1532.71 2687.52 1532.02 2680.19 1531.27 2673.33 1530.45 2666.91 1529.45 2654.84 1527.45 2643.09 1525.51 2631.69 1523.5 2620.82 1521.37 2610.73 1518.91 2601.4 1515.99 2593.15 1512.47 2586.1 1508.2 2580.19 1502.96 2577.3 1496.09 2580.47 1494.76 2583.21 1501.27 2582.77 1500.65 2588.27 1505.53 2588.02 1505.34 2594.83 1509.47 2594.61 1509.36 2602.67 1512.79 2602.51 1512.73 2611.7 1515.61 2611.59 1515.58 2621.59 1518.02 2621.52 1518 2632.33 1520.13 2632.3 1520.12 2643.67 1522.12 2643.65 1522.12 2655.41 1524.05 2667.47 1526.05 2667.45 1526.05 2673.83 1527.05 2673.77 1527.04 2680.58 1527.86 2680.55 1527.85 2687.86 1528.6 2687.84 1528.6 2695.47 1529.29 2695.44 1529.29 2711.38 1530.47 2711.37 1530.47 2727.62 1531.6 2743.46 1532.79 2750.99 1533.48 2758.15 1534.29 2764.88 1535.24 2771.08 1536.25 2776.68 1537.52 2781.54 1538.93 2785.8 1540.54 2789.48 1542.29 2792.79 1544.17 2795.67 1546.14 2798.12 1548.25 2800.27 1550.47 2803.5 1555.15 2805.69 1560.06 2807 1565.16 2807.77 1570.3 2808.21 1575.35ZM2566.73 1503.32 2568.5 1455.5 2593.35 1496.39Z" fill="#FFB545"/><path d="M2497.78 1577.47 2498.03 1561.5 2498.85 1545.56 2499.67 1537.59 2500.94 1529.62 2502.64 1521.71 2504.86 1513.79 2507.65 1505.93 2511.08 1498.12 2516.55 1487.93 2519.58 1489.56 2514.14 1499.69 2514.2 1499.57 2510.82 1507.25 2510.87 1507.14 2508.12 1514.89 2508.16 1514.78 2505.97 1522.59 2505.99 1522.49 2504.3 1530.3 2504.32 1530.21 2503.07 1538.08 2503.08 1537.99 2502.27 1545.86 2502.28 1545.78 2501.47 1561.65 2501.47 1561.59 2501.22 1577.53ZM2503.93 1485.51 2539.5 1453.5 2527.43 1499.8Z" fill="#7F7F7F"/><path d="M2538.3 1577.27 2540.57 1575.06 2543.37 1572.99 2546.58 1571.16 2550.17 1569.47 2558.27 1566.72 2567.59 1564.5 2577.99 1562.68 2589.36 1561.17 2601.39 1559.91 2614.03 1558.73 2626.97 1557.54 2626.96 1557.54 2640.21 1556.23 2640.18 1556.23 2653.37 1554.73 2653.32 1554.74 2666.44 1552.86 2666.39 1552.87 2679.2 1550.62 2679.12 1550.64 2691.37 1547.82 2691.26 1547.85 2702.89 1544.41 2702.76 1544.46 2713.53 1540.32 2719.05 1538.38 2718.96 1538.42 2725.02 1535.85 2724.96 1535.88 2731.46 1532.82 2731.37 1532.86 2738.18 1529.18 2738.13 1529.21 2745.13 1525.08 2745.08 1525.11 2752.27 1520.55 2752.2 1520.59 2759.39 1515.53 2759.32 1515.58 2766.45 1510.08 2766.39 1510.13 2773.33 1504.25 2773.26 1504.31 2779.88 1498.06 2779.72 1498.24 2786.62 1489.61 2789.3 1491.75 2782.33 1500.48 2775.58 1506.84 2768.58 1512.77 2761.4 1518.32 2754.14 1523.43 2746.9 1528.03 2739.85 1532.18 2732.96 1535.91 2726.39 1539.01 2720.25 1541.6 2714.7 1543.56 2714.74 1543.54 2703.93 1547.69 2692.19 1551.16 2679.84 1554 2666.96 1556.26 2653.78 1558.14 2640.56 1559.65 2627.29 1560.96 2614.35 1562.15 2601.72 1563.34 2601.74 1563.33 2589.74 1564.58 2589.79 1564.58 2578.48 1566.08 2578.55 1566.07 2568.24 1567.88 2568.34 1567.86 2559.15 1570.05 2559.3 1570 2551.36 1572.69 2551.55 1572.62 2548.11 1574.24 2548.23 1574.18 2545.17 1575.93 2545.33 1575.82 2542.71 1577.76 2542.89 1577.61 2540.7 1579.73ZM2773.84 1487.41 2809.5 1455.5 2797.29 1501.77Z" fill="#7F7F7F"/><path d="M2837.84 1570.86 2843.22 1557.54 2843.2 1557.6 2845.64 1550.91 2845.61 1551 2847.67 1544.25 2847.64 1544.34 2849.33 1537.52 2849.3 1537.67 2850.36 1530.86 2850.35 1531.02 2850.78 1524.08 2850.78 1524.26 2850.47 1517.26 2850.49 1517.46 2849.36 1510.33 2849.4 1510.51 2847.47 1503.32 2847.55 1503.56 2844.31 1496.11 2847.46 1494.74 2850.75 1502.31 2852.75 1509.7 2853.9 1517.01 2854.22 1524.2 2853.77 1531.31 2852.69 1538.28 2850.97 1545.21 2848.88 1552.05 2846.42 1558.8 2841.03 1572.14ZM2835.61 1505.66 2827.5 1458.5 2860.23 1493.4Z" fill="#7F7F7F"/><path d="M2872.44 1572.15 2883.95 1563.08 2895.47 1554.25 2906.94 1545.79 2918.3 1537.94 2929.5 1530.83 2940.62 1524.77 2951.55 1519.96 2956.98 1518.05 2962.37 1516.51 2967.85 1515.6 2973.33 1515.53 2978.76 1516.11 2984.17 1517.21 2989.47 1518.8 2994.73 1520.64 3004.96 1524.78 3014.77 1528.78 3014.7 1528.76 3019.45 1530.44 3019.32 1530.4 3023.95 1531.65 3023.81 1531.62 3028.31 1532.43 3028.05 1532.41 3032.36 1532.53 3032.08 1532.55 3036.21 1531.98 3035.87 1532.06 3039.81 1530.69 3039.53 1530.82 3043.28 1528.69 3043.12 1528.79 3046.68 1526.23 3046.53 1526.35 3049.91 1523.29 3049.8 1523.39 3053.05 1519.89 3052.98 1519.97 3056.11 1516.16 3056.02 1516.27 3058.96 1512.02 3058.9 1512.11 3064.53 1502.8 3064.44 1502.97 3067.74 1495.73 3070.87 1497.15 3067.52 1504.49 3061.82 1513.93 3058.81 1518.29 3055.61 1522.19 3052.27 1525.79 3048.77 1528.96 3045.05 1531.64 3041.09 1533.88 3036.84 1535.37 3032.4 1535.97 3027.82 1535.84 3023.12 1534.99 3018.36 1533.7 3013.51 1531.98 3003.67 1527.97 2993.48 1523.84 2993.56 1523.87 2988.37 1522.06 2988.44 1522.08 2983.25 1520.52 2983.41 1520.56 2978.16 1519.5 2978.32 1519.52 2973.07 1518.96 2973.27 1518.97 2968.02 1519.03 2968.28 1519.01 2963.03 1519.88 2963.22 1519.84 2957.97 1521.34 2958.07 1521.31 2952.76 1523.18 2952.88 1523.14 2942.07 1527.89 2942.2 1527.82 2931.2 1533.82 2931.3 1533.76 2920.17 1540.83 2920.23 1540.79 2908.91 1548.6 2908.96 1548.57 2897.52 1557.01 2897.55 1556.99 2886.05 1565.8 2886.06 1565.79 2874.56 1574.85ZM3054.86 1495.26 3085.5 1458.5 3080.15 1506.05Z" fill="#7F7F7F"/><path d="M3180.8 1571.72 3178.67 1555.28 3178.68 1555.34 3176.05 1539.15 3176.07 1539.24 3174.38 1531.36 3174.4 1531.45 3172.34 1523.76 3172.37 1523.84 3169.93 1516.34 3169.97 1516.46 3167.03 1509.28 3167.08 1509.39 3163.65 1502.45 3163.71 1502.57 3159.77 1495.94 3159.9 1496.12 3156.27 1491.49 3158.97 1489.37 3162.67 1494.09 3166.7 1500.87 3170.19 1507.92 3173.18 1515.22 3175.65 1522.82 3177.73 1530.6 3179.44 1538.56 3182.08 1554.81 3184.2 1571.28ZM3149.88 1502.68 3131.5 1458.5 3171.16 1485.27Z" fill="#7F7F7F"/><text font-family="Source Code Pro,Source Code Pro_MSFontService,sans-serif" font-weight="400" font-size="64" transform="matrix(1 0 0 1 3296.57 1263)">Map&lt;<tspan font-size="64" x="153.542" y="0">ModelName,M</tspan><tspan font-size="64" x="575.781" y="0">&gt;</tspan><tspan font-size="64" x="-25.5598" y="515">Map&lt;</tspan><tspan font-size="64" x="127.982" y="515">ShapeName,S</tspan><tspan font-size="64" x="550.221" y="515">&gt;</tspan></text><path d="M1796.27 1882.07 1820.58 1880.45 1820.5 1880.45 1844.5 1878.26 1844.36 1878.28 1867.92 1875.15 1867.75 1875.18 1879.32 1873.06 1879.2 1873.08 1890.51 1870.58 1890.33 1870.62 1901.4 1867.56 1901.24 1867.61 1912.05 1864.05 1911.84 1864.13 1922.34 1859.88 1922.14 1859.96 1932.33 1855.09 1932.1 1855.21 1941.92 1849.58 1941.68 1849.73 1951.05 1843.29 1950.83 1843.46 1959.83 1836.14 1959.61 1836.34 1968.18 1828.09 1967.97 1828.31 1975.91 1819.18 1975.75 1819.38 1983.12 1809.51 1982.98 1809.71 1989.79 1799.03 1989.69 1799.2 1996 1787.89 1995.92 1788.04 2001.85 1775.98 2001.79 1776.12 2007.35 1763.43 2007.31 1763.54 2012.62 1750.17 2012.58 1750.26 2017.71 1736.26 2017.68 1736.33 2022.62 1721.77 2022.6 1721.82 2027.48 1706.64 2027.46 1706.68 2032.28 1690.99 2037.21 1674.75 2042.27 1658.01 2047.53 1640.8 2053.03 1623.09 2058.85 1604.95 2058.84 1604.98 2061.78 1595.54 2061.75 1595.65 2064.5 1585.71 2064.48 1585.78 2067.1 1575.41 2067.09 1575.48 2069.59 1564.66 2069.57 1564.73 2071.95 1553.48 2071.94 1553.51 2074.25 1541.95 2074.24 1542 2078.68 1518 2078.67 1518.05 2082.92 1493.05 2082.92 1493.06 2087.17 1467.49 2091.61 1441.47 2096.25 1415.49 2101.32 1389.73 2106.91 1364.51 2113.25 1340.12 2120.36 1316.99 2124.28 1305.86 2128.51 1295.18 2132.94 1284.99 2137.76 1275.23 2142.85 1265.95 2148.27 1257.27 2154.09 1249.14 2160.3 1241.72 2166.81 1234.82 2173.56 1228.39 2180.63 1222.28 2187.99 1216.59 2203.27 1206.31 2219.59 1197.36 2236.71 1189.68 2254.68 1183.23 2273.24 1177.74 2292.48 1173.2 2312.31 1169.48 2332.55 1166.53 2353.28 1164.14 2374.3 1162.32 2395.61 1160.88 2419.11 1159.71 2419.45 1166.57 2395.98 1167.75 2396.04 1167.74 2374.79 1169.18 2374.86 1169.17 2353.92 1170.99 2354.02 1170.98 2333.39 1173.35 2333.5 1173.34 2313.37 1176.28 2313.51 1176.25 2293.82 1179.94 2293.98 1179.91 2274.91 1184.41 2275.1 1184.36 2256.73 1189.8 2256.91 1189.74 2239.16 1196.11 2239.41 1196.01 2222.53 1203.57 2222.78 1203.45 2206.72 1212.26 2206.98 1212.1 2191.92 1222.23 2192.1 1222.09 2184.92 1227.66 2185.06 1227.54 2178.12 1233.54 2178.25 1233.43 2171.62 1239.74 2171.75 1239.61 2165.37 1246.36 2165.51 1246.21 2159.45 1253.46 2159.61 1253.25 2153.92 1261.19 2154.04 1261.01 2148.73 1269.51 2148.83 1269.34 2143.83 1278.46 2143.9 1278.33 2139.15 1287.96 2139.21 1287.81 2134.84 1297.87 2134.88 1297.77 2130.7 1308.33 2130.74 1308.2 2126.87 1319.2 2126.91 1319.07 2119.85 1342.07 2119.89 1341.93 2113.58 1366.18 2113.61 1366.06 2108.04 1391.18 2108.06 1391.1 2103 1416.79 2103.01 1416.73 2098.38 1442.67 2098.39 1442.64 2093.95 1468.64 2093.95 1468.63 2089.7 1494.19 2085.45 1519.23 2081 1543.27 2078.68 1554.88 2076.29 1566.18 2073.78 1577.06 2071.14 1587.51 2068.36 1597.53 2065.4 1607.04 2059.59 1625.17 2059.59 1625.15 2054.09 1642.83 2054.1 1642.82 2048.85 1659.99 2043.79 1676.75 2038.85 1693.01 2034.03 1708.72 2029.14 1723.95 2024.18 1738.58 2019.02 1752.66 2013.67 1766.14 2008.06 1778.95 2002.04 1791.16 1995.64 1802.64 1988.71 1813.52 1981.18 1823.6 1973.06 1832.93 1964.28 1841.39 1955.06 1848.88 1945.46 1855.48 1935.41 1861.23 1925.01 1866.21 1914.31 1870.54 1903.31 1874.17 1892.08 1877.27 1880.62 1879.81 1868.91 1881.96 1845.19 1885.1 1821.08 1887.3 1796.73 1888.93ZM2414.16 1149.58 2460.5 1161.5 2415.25 1177.06Z" fill="#C00000"/><path d="M1941.22 1732.53 2071.56 1255.49 2200.14 1290.63 2069.79 1767.66Z" fill="#FFFFFF" fill-rule="evenodd"/><text fill="#C00000" font-family="Calibri,Calibri_MSFontService,sans-serif" font-weight="400" font-size="83" transform="matrix(0.263578 -0.964638 0.964638 0.263578 2046.04 1704)">Description</text><path d="M2504.64 1091.39 2478.7 1074.64 2478.71 1074.65 2452.52 1057.9 2452.57 1057.92 2425.82 1041.36 2425.87 1041.39 2398.37 1025.08 2398.43 1025.12 2369.93 1008.99 2369.99 1009.02 2355.3 1001.09 2355.35 1001.11 2340.29 993.302 2340.34 993.325 2324.84 985.575 2324.88 985.596 2309.07 977.971 2309.13 977.998 2292.81 970.498 2292.87 970.523 2276.06 963.148 2276.09 963.161 2258.84 955.786 2258.86 955.796 2241.24 948.421 2241.26 948.432 2223.2 941.057 2204.84 933.624 2204.89 933.646 2167.02 919.084 2167.08 919.109 2127.9 904.984 2127.97 905.01 2087.6 891.51 2087.7 891.542 2046.2 879.042 2046.3 879.071 2003.8 867.696 2003.89 867.718 1982.26 862.53 1982.32 862.544 1960.51 857.732 1960.58 857.746 1938.39 853.308 1938.45 853.32 1915.7 849.195 1915.75 849.203 1892.56 845.328 1892.61 845.336 1869.05 841.774 1869.11 841.783 1820.92 835.408 1821 835.417 1771.87 829.979 1771.94 829.986 1722.44 825.486 1722.49 825.491 1672.99 821.803 1673.04 821.806 1624.1 818.806 1624.13 818.808 1600.01 817.558 1600.03 817.559 1576.22 816.497 1576.25 816.498 1552.44 815.623 1552.46 815.623 1528.27 814.873 1528.32 814.875 1479.32 814.062 1479.37 814.063 1430.12 814.063 1430.18 814.062 1381.37 814.812 1381.41 814.811 1357.41 815.499 1357.44 815.498 1333.81 816.373 1333.85 816.371 1310.72 817.434 1310.75 817.432 1288.19 818.682 1288.22 818.68 1266.29 820.118 1266.34 820.114 1245.21 821.802 1245.24 821.799 1224.87 823.612 1224.93 823.606 1205.55 825.668 1205.61 825.661 1187.11 827.974 1187.18 827.965 1169.43 830.527 1169.5 830.516 1152.5 833.329 1152.58 833.315 1136.14 836.44 1136.19 836.429 1120.44 839.679 1120.53 839.66 1105.28 843.222 1105.32 843.213 1090.57 846.838 1090.65 846.817 1076.4 850.692 1076.45 850.678 1062.58 854.678 1062.63 854.663 1049.13 858.788 1049.19 858.768 1022.94 867.331 1023.02 867.305 1011.51 871.356 1009.22 864.871 1020.77 860.807 1047.09 852.222 1060.65 848.08 1074.57 844.065 1088.89 840.172 1103.7 836.532 1119.01 832.955 1134.83 829.691 1151.34 826.553 1168.41 823.728 1186.23 821.156 1204.79 818.835 1224.23 816.766 1244.65 814.95 1265.81 813.259 1287.79 811.819 1310.39 810.567 1333.54 809.503 1357.2 808.627 1381.24 807.938 1430.1 807.188 1479.4 807.188 1528.46 808.001 1552.68 808.752 1576.51 809.628 1600.35 810.692 1624.51 811.943 1673.48 814.945 1723.03 818.637 1772.59 823.142 1821.79 828.587 1870.04 834.971 1893.67 838.543 1916.9 842.426 1939.71 846.561 1961.96 851.011 1983.83 855.838 2005.53 861.043 2048.13 872.443 2089.73 884.974 2130.19 898.503 2169.45 912.654 2207.39 927.24 2225.8 934.693 2243.88 942.073 2261.53 949.459 2278.8 956.846 2295.66 964.239 2312.03 971.765 2327.89 979.414 2343.44 987.187 2358.55 995.025 2373.29 1002.99 2401.85 1019.15 2429.41 1035.5 2456.21 1052.09 2482.42 1068.86 2508.36 1085.61ZM1019.29 879.533 971.5 881.938 1010.08 853.623Z" fill="#3E92A3"/><path d="M1401.61 719.308 2037.16 772.921 2025.95 905.738 1390.41 852.125Z" fill="#FFFFFF" fill-rule="evenodd"/><text fill="#3E92A3" font-family="Calibri,Calibri_MSFontService,sans-serif" font-weight="400" font-size="83" transform="matrix(0.996461 0.0840593 -0.0840593 0.996461 1484.95 820)">Find O by Key</text></g></svg>