<svg width="969" height="428" xmlns="http://www.w3.org/2000/svg" xmlns:xlink="http://www.w3.org/1999/xlink" overflow="hidden"><defs><clipPath id="clip0"><rect x="82" y="193" width="969" height="428"/></clipPath><clipPath id="clip1"><rect x="94" y="85" width="31" height="472"/></clipPath><clipPath id="clip2"><rect x="94" y="85" width="31" height="472"/></clipPath><clipPath id="clip3"><rect x="94" y="85" width="31" height="472"/></clipPath><clipPath id="clip4"><rect x="94" y="289" width="31" height="180"/></clipPath><clipPath id="clip5"><rect x="124" y="289" width="30" height="180"/></clipPath><clipPath id="clip6"><rect x="153" y="289" width="31" height="180"/></clipPath><clipPath id="clip7"><rect x="183" y="289" width="31" height="180"/></clipPath><clipPath id="clip8"><rect x="213" y="289" width="31" height="180"/></clipPath><clipPath id="clip9"><rect x="243" y="289" width="31" height="180"/></clipPath><clipPath id="clip10"><rect x="273" y="289" width="31" height="180"/></clipPath><clipPath id="clip11"><rect x="303" y="289" width="30" height="180"/></clipPath><clipPath id="clip12"><rect x="332" y="289" width="31" height="180"/></clipPath><clipPath id="clip13"><rect x="362" y="289" width="31" height="180"/></clipPath><clipPath id="clip14"><rect x="392" y="289" width="31" height="180"/></clipPath><clipPath id="clip15"><rect x="422" y="289" width="31" height="180"/></clipPath><clipPath id="clip16"><rect x="452" y="289" width="31" height="180"/></clipPath><clipPath id="clip17"><rect x="482" y="289" width="30" height="180"/></clipPath><clipPath id="clip18"><rect x="511" y="289" width="31" height="180"/></clipPath><clipPath id="clip19"><rect x="541" y="289" width="31" height="180"/></clipPath><clipPath id="clip20"><rect x="571" y="289" width="31" height="180"/></clipPath><clipPath id="clip21"><rect x="601" y="289" width="31" height="180"/></clipPath><clipPath id="clip22"><rect x="631" y="289" width="31" height="180"/></clipPath><clipPath id="clip23"><rect x="661" y="289" width="30" height="180"/></clipPath><clipPath id="clip24"><rect x="690" y="289" width="31" height="180"/></clipPath><clipPath id="clip25"><rect x="720" y="289" width="31" height="180"/></clipPath><clipPath id="clip26"><rect x="750" y="289" width="31" height="180"/></clipPath><clipPath id="clip27"><rect x="780" y="289" width="31" height="180"/></clipPath><clipPath id="clip28"><rect x="810" y="289" width="30" height="180"/></clipPath><clipPath id="clip29"><rect x="839" y="289" width="31" height="180"/></clipPath><clipPath id="clip30"><rect x="869" y="289" width="31" height="180"/></clipPath><clipPath id="clip31"><rect x="899" y="289" width="31" height="180"/></clipPath><clipPath id="clip32"><rect x="929" y="289" width="31" height="180"/></clipPath><clipPath id="clip33"><rect x="959" y="289" width="31" height="180"/></clipPath><clipPath id="clip34"><rect x="989" y="289" width="30" height="180"/></clipPath><clipPath id="clip35"><rect x="1018" y="289" width="31" height="180"/></clipPath><clipPath id="clip36"><rect x="94" y="256" width="31" height="471"/></clipPath><clipPath id="clip37"><rect x="94" y="256" width="31" height="471"/></clipPath><clipPath id="clip38"><rect x="94" y="256" width="31" height="471"/></clipPath><clipPath id="clip39"><rect x="94" y="459" width="31" height="181"/></clipPath><clipPath id="clip40"><rect x="124" y="459" width="30" height="181"/></clipPath><clipPath id="clip41"><rect x="153" y="459" width="31" height="181"/></clipPath><clipPath id="clip42"><rect x="183" y="459" width="31" height="181"/></clipPath><clipPath id="clip43"><rect x="213" y="459" width="31" height="181"/></clipPath><clipPath id="clip44"><rect x="243" y="459" width="31" height="181"/></clipPath><clipPath id="clip45"><rect x="273" y="459" width="31" height="181"/></clipPath><clipPath id="clip46"><rect x="303" y="459" width="30" height="181"/></clipPath><clipPath id="clip47"><rect x="332" y="459" width="31" height="181"/></clipPath><clipPath id="clip48"><rect x="362" y="459" width="31" height="181"/></clipPath><clipPath id="clip49"><rect x="392" y="459" width="31" height="181"/></clipPath><clipPath id="clip50"><rect x="422" y="459" width="31" height="181"/></clipPath><clipPath id="clip51"><rect x="452" y="459" width="31" height="181"/></clipPath><clipPath id="clip52"><rect x="482" y="459" width="30" height="181"/></clipPath><clipPath id="clip53"><rect x="511" y="459" width="31" height="181"/></clipPath><clipPath id="clip54"><rect x="541" y="459" width="31" height="181"/></clipPath><clipPath id="clip55"><rect x="571" y="459" width="31" height="181"/></clipPath><clipPath id="clip56"><rect x="601" y="459" width="31" height="181"/></clipPath><clipPath id="clip57"><rect x="631" y="459" width="31" height="181"/></clipPath><clipPath id="clip58"><rect x="661" y="459" width="30" height="181"/></clipPath><clipPath id="clip59"><rect x="690" y="459" width="31" height="181"/></clipPath><clipPath id="clip60"><rect x="720" y="459" width="31" height="181"/></clipPath><clipPath id="clip61"><rect x="750" y="459" width="31" height="181"/></clipPath><clipPath id="clip62"><rect x="780" y="459" width="31" height="181"/></clipPath><clipPath id="clip63"><rect x="810" y="459" width="30" height="181"/></clipPath><clipPath id="clip64"><rect x="839" y="459" width="31" height="181"/></clipPath><clipPath id="clip65"><rect x="869" y="459" width="31" height="181"/></clipPath><clipPath id="clip66"><rect x="899" y="459" width="31" height="181"/></clipPath><clipPath id="clip67"><rect x="929" y="459" width="31" height="181"/></clipPath><clipPath id="clip68"><rect x="959" y="459" width="31" height="181"/></clipPath><clipPath id="clip69"><rect x="989" y="459" width="30" height="181"/></clipPath><clipPath id="clip70"><rect x="1018" y="459" width="31" height="181"/></clipPath></defs><g clip-path="url(#clip0)" transform="translate(-82 -193)"><path d="M94.3249 282.414 124.151 282.414 124.151 359.214 94.3249 359.214Z" fill="#FFFFFF" fill-rule="evenodd"/><path d="M124.151 282.414 362.756 282.414 362.756 359.214 124.151 359.214Z" fill="#FFFFFF" fill-rule="evenodd"/><path d="M362.756 282.414 1048.75 282.414 1048.75 359.214 362.756 359.214Z" fill="#FFFFFF" fill-rule="evenodd"/><path d="M124.151 359.214 153.976 359.214 153.976 398.147 124.151 398.147Z" fill="#FFFFFF" fill-rule="evenodd"/><path d="M153.976 359.214 183.802 359.214 183.802 398.147 153.976 398.147Z" fill="#FFFFFF" fill-rule="evenodd"/><path d="M183.802 359.214 213.628 359.214 213.628 398.147 183.802 398.147Z" fill="#FFFFFF" fill-rule="evenodd"/><path d="M213.628 359.214 243.454 359.214 243.454 398.147 213.628 398.147Z" fill="#FFFFFF" fill-rule="evenodd"/><path d="M243.454 359.214 273.279 359.214 273.279 398.147 243.454 398.147Z" fill="#FFFFFF" fill-rule="evenodd"/><path d="M273.279 359.214 303.105 359.214 303.105 398.147 273.279 398.147Z" fill="#FFFFFF" fill-rule="evenodd"/><path d="M303.105 359.214 332.931 359.214 332.931 398.147 303.105 398.147Z" fill="#FFFFFF" fill-rule="evenodd"/><path d="M332.931 359.214 362.756 359.214 362.756 398.147 332.931 398.147Z" fill="#FFFFFF" fill-rule="evenodd"/><path d="M362.756 359.214 392.582 359.214 392.582 398.147 362.756 398.147Z" fill="#FFFFFF" fill-rule="evenodd"/><path d="M392.582 359.214 422.408 359.214 422.408 398.147 392.582 398.147Z" fill="#FFFFFF" fill-rule="evenodd"/><path d="M422.408 359.214 452.234 359.214 452.234 398.147 422.408 398.147Z" fill="#FFFFFF" fill-rule="evenodd"/><path d="M452.234 359.214 482.059 359.214 482.059 398.147 452.234 398.147Z" fill="#FFFFFF" fill-rule="evenodd"/><path d="M482.059 359.214 511.885 359.214 511.885 398.147 482.059 398.147Z" fill="#FFFFFF" fill-rule="evenodd"/><path d="M511.885 359.214 541.711 359.214 541.711 398.147 511.885 398.147Z" fill="#FFFFFF" fill-rule="evenodd"/><path d="M541.711 359.214 571.536 359.214 571.536 398.147 541.711 398.147Z" fill="#FFFFFF" fill-rule="evenodd"/><path d="M571.536 359.214 601.362 359.214 601.362 398.147 571.536 398.147Z" fill="#FFFFFF" fill-rule="evenodd"/><path d="M601.362 359.214 631.188 359.214 631.188 398.147 601.362 398.147Z" fill="#FFFFFF" fill-rule="evenodd"/><path d="M631.188 359.214 661.014 359.214 661.014 398.147 631.188 398.147Z" fill="#FFFFFF" fill-rule="evenodd"/><path d="M661.014 359.214 690.839 359.214 690.839 398.147 661.014 398.147Z" fill="#FFFFFF" fill-rule="evenodd"/><path d="M690.839 359.214 720.665 359.214 720.665 398.147 690.839 398.147Z" fill="#FFFFFF" fill-rule="evenodd"/><path d="M720.665 359.214 750.491 359.214 750.491 398.147 720.665 398.147Z" fill="#FFFFFF" fill-rule="evenodd"/><path d="M750.491 359.214 780.317 359.214 780.317 398.147 750.491 398.147Z" fill="#FFFFFF" fill-rule="evenodd"/><path d="M780.317 359.214 810.142 359.214 810.142 398.147 780.317 398.147Z" fill="#FFFFFF" fill-rule="evenodd"/><path d="M810.142 359.214 839.968 359.214 839.968 398.147 810.142 398.147Z" fill="#FFFFFF" fill-rule="evenodd"/><path d="M839.968 359.214 869.794 359.214 869.794 398.147 839.968 398.147Z" fill="#FFFFFF" fill-rule="evenodd"/><path d="M869.794 359.214 899.619 359.214 899.619 398.147 869.794 398.147Z" fill="#FFFFFF" fill-rule="evenodd"/><path d="M899.619 359.214 929.445 359.214 929.445 398.147 899.619 398.147Z" fill="#FFFFFF" fill-rule="evenodd"/><path d="M929.445 359.214 959.271 359.214 959.271 398.147 929.445 398.147Z" fill="#FFFFFF" fill-rule="evenodd"/><path d="M959.271 359.214 989.097 359.214 989.097 398.147 959.271 398.147Z" fill="#FFFFFF" fill-rule="evenodd"/><path d="M989.097 359.214 1018.92 359.214 1018.92 398.147 989.097 398.147Z" fill="#FFFFFF" fill-rule="evenodd"/><path d="M1018.92 359.214 1048.75 359.214 1048.75 398.147 1018.92 398.147Z" fill="#FFFFFF" fill-rule="evenodd"/><path d="M124.151 281.747 124.151 398.814" stroke="#000000" stroke-width="1.33333" stroke-linejoin="round" stroke-miterlimit="10" fill="none" fill-rule="evenodd"/><path d="M153.976 358.547 153.976 398.814" stroke="#000000" stroke-width="1.33333" stroke-linejoin="round" stroke-miterlimit="10" fill="none" fill-rule="evenodd"/><path d="M183.802 358.547 183.802 398.814" stroke="#000000" stroke-width="1.33333" stroke-linejoin="round" stroke-miterlimit="10" fill="none" fill-rule="evenodd"/><path d="M213.628 358.547 213.628 398.814" stroke="#000000" stroke-width="1.33333" stroke-linejoin="round" stroke-miterlimit="10" fill="none" fill-rule="evenodd"/><path d="M243.454 358.547 243.454 398.814" stroke="#000000" stroke-width="1.33333" stroke-linejoin="round" stroke-miterlimit="10" fill="none" fill-rule="evenodd"/><path d="M273.279 358.547 273.279 398.814" stroke="#000000" stroke-width="1.33333" stroke-linejoin="round" stroke-miterlimit="10" fill="none" fill-rule="evenodd"/><path d="M303.105 358.547 303.105 398.814" stroke="#000000" stroke-width="1.33333" stroke-linejoin="round" stroke-miterlimit="10" fill="none" fill-rule="evenodd"/><path d="M332.931 358.547 332.931 398.814" stroke="#000000" stroke-width="1.33333" stroke-linejoin="round" stroke-miterlimit="10" fill="none" fill-rule="evenodd"/><path d="M362.756 281.747 362.756 398.814" stroke="#000000" stroke-width="1.33333" stroke-linejoin="round" stroke-miterlimit="10" fill="none" fill-rule="evenodd"/><path d="M392.582 358.547 392.582 398.814" stroke="#000000" stroke-width="1.33333" stroke-linejoin="round" stroke-miterlimit="10" fill="none" fill-rule="evenodd"/><path d="M422.408 358.547 422.408 398.814" stroke="#000000" stroke-width="1.33333" stroke-linejoin="round" stroke-miterlimit="10" fill="none" fill-rule="evenodd"/><path d="M452.234 358.547 452.234 398.814" stroke="#000000" stroke-width="1.33333" stroke-linejoin="round" stroke-miterlimit="10" fill="none" fill-rule="evenodd"/><path d="M482.059 358.547 482.059 398.814" stroke="#000000" stroke-width="1.33333" stroke-linejoin="round" stroke-miterlimit="10" fill="none" fill-rule="evenodd"/><path d="M511.885 358.547 511.885 398.814" stroke="#000000" stroke-width="1.33333" stroke-linejoin="round" stroke-miterlimit="10" fill="none" fill-rule="evenodd"/><path d="M541.711 358.547 541.711 398.814" stroke="#000000" stroke-width="1.33333" stroke-linejoin="round" stroke-miterlimit="10" fill="none" fill-rule="evenodd"/><path d="M571.536 358.547 571.536 398.814" stroke="#000000" stroke-width="1.33333" stroke-linejoin="round" stroke-miterlimit="10" fill="none" fill-rule="evenodd"/><path d="M601.362 358.547 601.362 398.814" stroke="#000000" stroke-width="1.33333" stroke-linejoin="round" stroke-miterlimit="10" fill="none" fill-rule="evenodd"/><path d="M631.188 358.547 631.188 398.814" stroke="#000000" stroke-width="1.33333" stroke-linejoin="round" stroke-miterlimit="10" fill="none" fill-rule="evenodd"/><path d="M661.014 358.547 661.014 398.814" stroke="#000000" stroke-width="1.33333" stroke-linejoin="round" stroke-miterlimit="10" fill="none" fill-rule="evenodd"/><path d="M690.839 358.547 690.839 398.814" stroke="#000000" stroke-width="1.33333" stroke-linejoin="round" stroke-miterlimit="10" fill="none" fill-rule="evenodd"/><path d="M720.665 358.547 720.665 398.814" stroke="#000000" stroke-width="1.33333" stroke-linejoin="round" stroke-miterlimit="10" fill="none" fill-rule="evenodd"/><path d="M750.491 358.547 750.491 398.814" stroke="#000000" stroke-width="1.33333" stroke-linejoin="round" stroke-miterlimit="10" fill="none" fill-rule="evenodd"/><path d="M780.317 358.547 780.317 398.814" stroke="#000000" stroke-width="1.33333" stroke-linejoin="round" stroke-miterlimit="10" fill="none" fill-rule="evenodd"/><path d="M810.142 358.547 810.142 398.814" stroke="#000000" stroke-width="1.33333" stroke-linejoin="round" stroke-miterlimit="10" fill="none" fill-rule="evenodd"/><path d="M839.968 358.547 839.968 398.814" stroke="#000000" stroke-width="1.33333" stroke-linejoin="round" stroke-miterlimit="10" fill="none" fill-rule="evenodd"/><path d="M869.794 358.547 869.794 398.814" stroke="#000000" stroke-width="1.33333" stroke-linejoin="round" stroke-miterlimit="10" fill="none" fill-rule="evenodd"/><path d="M899.619 358.547 899.619 398.814" stroke="#000000" stroke-width="1.33333" stroke-linejoin="round" stroke-miterlimit="10" fill="none" fill-rule="evenodd"/><path d="M929.445 358.547 929.445 398.814" stroke="#000000" stroke-width="1.33333" stroke-linejoin="round" stroke-miterlimit="10" fill="none" fill-rule="evenodd"/><path d="M959.271 358.547 959.271 398.814" stroke="#000000" stroke-width="1.33333" stroke-linejoin="round" stroke-miterlimit="10" fill="none" fill-rule="evenodd"/><path d="M989.097 358.547 989.097 398.814" stroke="#000000" stroke-width="1.33333" stroke-linejoin="round" stroke-miterlimit="10" fill="none" fill-rule="evenodd"/><path d="M1018.92 358.547 1018.92 398.814" stroke="#000000" stroke-width="1.33333" stroke-linejoin="round" stroke-miterlimit="10" fill="none" fill-rule="evenodd"/><path d="M93.6583 359.214 1049.41 359.214" stroke="#000000" stroke-width="1.33333" stroke-linejoin="round" stroke-miterlimit="10" fill="none" fill-rule="evenodd"/><path d="M94.3249 281.747 94.3249 398.814" stroke="#000000" stroke-width="1.33333" stroke-linejoin="round" stroke-miterlimit="10" fill="none" fill-rule="evenodd"/><path d="M1048.75 281.747 1048.75 398.814" stroke="#000000" stroke-width="1.33333" stroke-linejoin="round" stroke-miterlimit="10" fill="none" fill-rule="evenodd"/><path d="M93.6583 282.414 1049.41 282.414" stroke="#000000" stroke-width="1.33333" stroke-linejoin="round" stroke-miterlimit="10" fill="none" fill-rule="evenodd"/><path d="M93.6583 398.147 1049.41 398.147" stroke="#000000" stroke-width="1.33333" stroke-linejoin="round" stroke-miterlimit="10" fill="none" fill-rule="evenodd"/><g clip-path="url(#clip1)"><text font-family="Microsoft YaHei,Microsoft YaHei_MSFontService,sans-serif" font-weight="700" font-size="19" transform="translate(99.9045 305)">符</text></g><g clip-path="url(#clip2)"><text font-family="Microsoft YaHei,Microsoft YaHei_MSFontService,sans-serif" font-weight="700" font-size="19" transform="translate(99.9045 327)">号</text></g><g clip-path="url(#clip3)"><text font-family="Microsoft YaHei,Microsoft YaHei_MSFontService,sans-serif" font-weight="700" font-size="19" transform="translate(99.9045 350)">位</text></g><text font-family="Microsoft YaHei,Microsoft YaHei_MSFontService,sans-serif" font-weight="700" font-size="19" transform="translate(202.787 316)">指数位<tspan font-size="19" x="56" y="0">(E)</tspan><tspan font-weight="400" font-size="19" x="-1.5" y="22">Exponent</tspan><tspan font-size="19" x="458.049" y="0">有效位</tspan>(M)<tspan font-weight="400" font-size="19" x="463.135" y="22">Mantissa</tspan></text><g clip-path="url(#clip4)"><text fill="#3E92A3" font-family="Source Code Pro,Source Code Pro_MSFontService,sans-serif" font-weight="400" font-size="21" transform="translate(102.821 386)">0</text></g><g clip-path="url(#clip5)"><text fill="#3E92A3" font-family="Source Code Pro,Source Code Pro_MSFontService,sans-serif" font-weight="400" font-size="21" transform="translate(132.647 386)">1</text></g><g clip-path="url(#clip6)"><text fill="#3E92A3" font-family="Source Code Pro,Source Code Pro_MSFontService,sans-serif" font-weight="400" font-size="21" transform="translate(162.473 386)">0</text></g><g clip-path="url(#clip7)"><text fill="#3E92A3" font-family="Source Code Pro,Source Code Pro_MSFontService,sans-serif" font-weight="400" font-size="21" transform="translate(192.298 386)">0</text></g><g clip-path="url(#clip8)"><text fill="#3E92A3" font-family="Source Code Pro,Source Code Pro_MSFontService,sans-serif" font-weight="400" font-size="21" transform="translate(222.124 386)">0</text></g><g clip-path="url(#clip9)"><text fill="#3E92A3" font-family="Source Code Pro,Source Code Pro_MSFontService,sans-serif" font-weight="400" font-size="21" transform="translate(251.95 386)">0</text></g><g clip-path="url(#clip10)"><text fill="#3E92A3" font-family="Source Code Pro,Source Code Pro_MSFontService,sans-serif" font-weight="400" font-size="21" transform="translate(281.775 386)">1</text></g><g clip-path="url(#clip11)"><text fill="#3E92A3" font-family="Source Code Pro,Source Code Pro_MSFontService,sans-serif" font-weight="400" font-size="21" transform="translate(311.601 386)">1</text></g><g clip-path="url(#clip12)"><text fill="#3E92A3" font-family="Source Code Pro,Source Code Pro_MSFontService,sans-serif" font-weight="400" font-size="21" transform="translate(341.427 386)">0</text></g><g clip-path="url(#clip13)"><text fill="#3E92A3" font-family="Source Code Pro,Source Code Pro_MSFontService,sans-serif" font-weight="400" font-size="21" transform="translate(371.253 386)">0</text></g><g clip-path="url(#clip14)"><text fill="#3E92A3" font-family="Source Code Pro,Source Code Pro_MSFontService,sans-serif" font-weight="400" font-size="21" transform="translate(401.078 386)">1</text></g><g clip-path="url(#clip15)"><text fill="#3E92A3" font-family="Source Code Pro,Source Code Pro_MSFontService,sans-serif" font-weight="400" font-size="21" transform="translate(430.904 386)">1</text></g><g clip-path="url(#clip16)"><text fill="#3E92A3" font-family="Source Code Pro,Source Code Pro_MSFontService,sans-serif" font-weight="400" font-size="21" transform="translate(460.73 386)">0</text></g><g clip-path="url(#clip17)"><text fill="#3E92A3" font-family="Source Code Pro,Source Code Pro_MSFontService,sans-serif" font-weight="400" font-size="21" transform="translate(490.555 386)">0</text></g><g clip-path="url(#clip18)"><text fill="#3E92A3" font-family="Source Code Pro,Source Code Pro_MSFontService,sans-serif" font-weight="400" font-size="21" transform="translate(520.381 386)">1</text></g><g clip-path="url(#clip19)"><text fill="#3E92A3" font-family="Source Code Pro,Source Code Pro_MSFontService,sans-serif" font-weight="400" font-size="21" transform="translate(550.207 386)">0</text></g><g clip-path="url(#clip20)"><text fill="#3E92A3" font-family="Source Code Pro,Source Code Pro_MSFontService,sans-serif" font-weight="400" font-size="21" transform="translate(580.033 386)">0</text></g><g clip-path="url(#clip21)"><text fill="#3E92A3" font-family="Source Code Pro,Source Code Pro_MSFontService,sans-serif" font-weight="400" font-size="21" transform="translate(609.858 386)">0</text></g><g clip-path="url(#clip22)"><text fill="#3E92A3" font-family="Source Code Pro,Source Code Pro_MSFontService,sans-serif" font-weight="400" font-size="21" transform="translate(639.684 386)">1</text></g><g clip-path="url(#clip23)"><text fill="#3E92A3" font-family="Source Code Pro,Source Code Pro_MSFontService,sans-serif" font-weight="400" font-size="21" transform="translate(669.51 386)">0</text></g><g clip-path="url(#clip24)"><text fill="#3E92A3" font-family="Source Code Pro,Source Code Pro_MSFontService,sans-serif" font-weight="400" font-size="21" transform="translate(699.336 386)">0</text></g><g clip-path="url(#clip25)"><text fill="#3E92A3" font-family="Source Code Pro,Source Code Pro_MSFontService,sans-serif" font-weight="400" font-size="21" transform="translate(729.161 386)">0</text></g><g clip-path="url(#clip26)"><text fill="#3E92A3" font-family="Source Code Pro,Source Code Pro_MSFontService,sans-serif" font-weight="400" font-size="21" transform="translate(758.987 386)">0</text></g><g clip-path="url(#clip27)"><text fill="#3E92A3" font-family="Source Code Pro,Source Code Pro_MSFontService,sans-serif" font-weight="400" font-size="21" transform="translate(788.813 386)">0</text></g><g clip-path="url(#clip28)"><text fill="#3E92A3" font-family="Source Code Pro,Source Code Pro_MSFontService,sans-serif" font-weight="400" font-size="21" transform="translate(818.638 386)">0</text></g><g clip-path="url(#clip29)"><text fill="#3E92A3" font-family="Source Code Pro,Source Code Pro_MSFontService,sans-serif" font-weight="400" font-size="21" transform="translate(848.464 386)">0</text></g><g clip-path="url(#clip30)"><text fill="#3E92A3" font-family="Source Code Pro,Source Code Pro_MSFontService,sans-serif" font-weight="400" font-size="21" transform="translate(878.29 386)">0</text></g><g clip-path="url(#clip31)"><text fill="#3E92A3" font-family="Source Code Pro,Source Code Pro_MSFontService,sans-serif" font-weight="400" font-size="21" transform="translate(908.116 386)">0</text></g><g clip-path="url(#clip32)"><text fill="#3E92A3" font-family="Source Code Pro,Source Code Pro_MSFontService,sans-serif" font-weight="400" font-size="21" transform="translate(937.941 386)">0</text></g><g clip-path="url(#clip33)"><text fill="#3E92A3" font-family="Source Code Pro,Source Code Pro_MSFontService,sans-serif" font-weight="400" font-size="21" transform="translate(967.767 386)">0</text></g><g clip-path="url(#clip34)"><text fill="#3E92A3" font-family="Source Code Pro,Source Code Pro_MSFontService,sans-serif" font-weight="400" font-size="21" transform="translate(997.593 386)">0</text></g><g clip-path="url(#clip35)"><text fill="#3E92A3" font-family="Source Code Pro,Source Code Pro_MSFontService,sans-serif" font-weight="400" font-size="21" transform="translate(1027.42 386)">0</text></g><text font-family="Microsoft YaHei,Microsoft YaHei_MSFontService,sans-serif" font-weight="700" font-size="24" transform="translate(358.421 224)">基于<tspan font-family="Century Schoolbook,Century Schoolbook_MSFontService,sans-serif" font-weight="400" font-size="24" x="54.8333" y="0">IEEE </tspan><tspan font-family="Century Schoolbook,Century Schoolbook_MSFontService,sans-serif" font-weight="400" font-size="24" x="123.333" y="0">754 </tspan><tspan font-size="24" x="170" y="0">标准</tspan>的<tspan fill="#3E92A3" font-size="24" x="249.167" y="0">float </tspan>浮点数<tspan font-family="Century Schoolbook,Century Schoolbook_MSFontService,sans-serif" font-weight="400" font-size="24" x="44.66" y="45">Value </tspan><tspan fill="#3E92A3" font-family="Source Code Pro,Source Code Pro_MSFontService,sans-serif" font-weight="400" font-size="24" x="116.16" y="45">178.125</tspan><tspan font-family="Century Schoolbook,Century Schoolbook_MSFontService,sans-serif" font-weight="400" font-size="24" x="223.16" y="45">use binary</tspan></text><path d="M94.3249 453.206 124.151 453.206 124.151 530.006 94.3249 530.006Z" fill="#FFC000" fill-rule="evenodd"/><path d="M124.151 453.206 362.756 453.206 362.756 530.006 124.151 530.006Z" fill="#FF5335" fill-rule="evenodd"/><path d="M362.756 453.206 1048.75 453.206 1048.75 530.006 362.756 530.006Z" fill="#2E6D7A" fill-rule="evenodd"/><path d="M94.3249 530.006 124.151 530.006 124.151 568.939 94.3249 568.939Z" fill="#FFC000" fill-rule="evenodd"/><path d="M124.151 530.006 153.976 530.006 153.976 568.939 124.151 568.939Z" fill="#FF5335" fill-rule="evenodd"/><path d="M153.976 530.006 183.802 530.006 183.802 568.939 153.976 568.939Z" fill="#FF5335" fill-rule="evenodd"/><path d="M183.802 530.006 213.628 530.006 213.628 568.939 183.802 568.939Z" fill="#FF5335" fill-rule="evenodd"/><path d="M213.628 530.006 243.454 530.006 243.454 568.939 213.628 568.939Z" fill="#FF5335" fill-rule="evenodd"/><path d="M243.454 530.006 273.279 530.006 273.279 568.939 243.454 568.939Z" fill="#FF5335" fill-rule="evenodd"/><path d="M273.279 530.006 303.105 530.006 303.105 568.939 273.279 568.939Z" fill="#FF5335" fill-rule="evenodd"/><path d="M303.105 530.006 332.931 530.006 332.931 568.939 303.105 568.939Z" fill="#FF5335" fill-rule="evenodd"/><path d="M332.931 530.006 362.756 530.006 362.756 568.939 332.931 568.939Z" fill="#FF5335" fill-rule="evenodd"/><path d="M362.756 530.006 392.582 530.006 392.582 568.939 362.756 568.939Z" fill="#2E6D7A" fill-rule="evenodd"/><path d="M392.582 530.006 422.408 530.006 422.408 568.939 392.582 568.939Z" fill="#2E6D7A" fill-rule="evenodd"/><path d="M422.408 530.006 452.234 530.006 452.234 568.939 422.408 568.939Z" fill="#2E6D7A" fill-rule="evenodd"/><path d="M452.234 530.006 482.059 530.006 482.059 568.939 452.234 568.939Z" fill="#2E6D7A" fill-rule="evenodd"/><path d="M482.059 530.006 511.885 530.006 511.885 568.939 482.059 568.939Z" fill="#2E6D7A" fill-rule="evenodd"/><path d="M511.885 530.006 541.711 530.006 541.711 568.939 511.885 568.939Z" fill="#2E6D7A" fill-rule="evenodd"/><path d="M541.711 530.006 571.536 530.006 571.536 568.939 541.711 568.939Z" fill="#2E6D7A" fill-rule="evenodd"/><path d="M571.536 530.006 601.362 530.006 601.362 568.939 571.536 568.939Z" fill="#2E6D7A" fill-rule="evenodd"/><path d="M601.362 530.006 631.188 530.006 631.188 568.939 601.362 568.939Z" fill="#2E6D7A" fill-rule="evenodd"/><path d="M631.188 530.006 661.014 530.006 661.014 568.939 631.188 568.939Z" fill="#2E6D7A" fill-rule="evenodd"/><path d="M661.014 530.006 690.839 530.006 690.839 568.939 661.014 568.939Z" fill="#2E6D7A" fill-rule="evenodd"/><path d="M690.839 530.006 720.665 530.006 720.665 568.939 690.839 568.939Z" fill="#2E6D7A" fill-rule="evenodd"/><path d="M720.665 530.006 750.491 530.006 750.491 568.939 720.665 568.939Z" fill="#2E6D7A" fill-rule="evenodd"/><path d="M750.491 530.006 780.317 530.006 780.317 568.939 750.491 568.939Z" fill="#2E6D7A" fill-rule="evenodd"/><path d="M780.317 530.006 810.142 530.006 810.142 568.939 780.317 568.939Z" fill="#2E6D7A" fill-rule="evenodd"/><path d="M810.142 530.006 839.968 530.006 839.968 568.939 810.142 568.939Z" fill="#2E6D7A" fill-rule="evenodd"/><path d="M839.968 530.006 869.794 530.006 869.794 568.939 839.968 568.939Z" fill="#2E6D7A" fill-rule="evenodd"/><path d="M869.794 530.006 899.619 530.006 899.619 568.939 869.794 568.939Z" fill="#2E6D7A" fill-rule="evenodd"/><path d="M899.619 530.006 929.445 530.006 929.445 568.939 899.619 568.939Z" fill="#2E6D7A" fill-rule="evenodd"/><path d="M929.445 530.006 959.271 530.006 959.271 568.939 929.445 568.939Z" fill="#2E6D7A" fill-rule="evenodd"/><path d="M959.271 530.006 989.097 530.006 989.097 568.939 959.271 568.939Z" fill="#2E6D7A" fill-rule="evenodd"/><path d="M989.097 530.006 1018.92 530.006 1018.92 568.939 989.097 568.939Z" fill="#2E6D7A" fill-rule="evenodd"/><path d="M1018.92 530.006 1048.75 530.006 1048.75 568.939 1018.92 568.939Z" fill="#2E6D7A" fill-rule="evenodd"/><path d="M124.151 452.539 124.151 569.606" stroke="#000000" stroke-width="1.33333" stroke-linejoin="round" stroke-miterlimit="10" fill="none" fill-rule="evenodd"/><path d="M153.976 529.339 153.976 569.606" stroke="#000000" stroke-width="1.33333" stroke-linejoin="round" stroke-miterlimit="10" fill="none" fill-rule="evenodd"/><path d="M183.802 529.339 183.802 569.606" stroke="#000000" stroke-width="1.33333" stroke-linejoin="round" stroke-miterlimit="10" fill="none" fill-rule="evenodd"/><path d="M213.628 529.339 213.628 569.606" stroke="#000000" stroke-width="1.33333" stroke-linejoin="round" stroke-miterlimit="10" fill="none" fill-rule="evenodd"/><path d="M243.454 529.339 243.454 569.606" stroke="#000000" stroke-width="1.33333" stroke-linejoin="round" stroke-miterlimit="10" fill="none" fill-rule="evenodd"/><path d="M273.279 529.339 273.279 569.606" stroke="#000000" stroke-width="1.33333" stroke-linejoin="round" stroke-miterlimit="10" fill="none" fill-rule="evenodd"/><path d="M303.105 529.339 303.105 569.606" stroke="#000000" stroke-width="1.33333" stroke-linejoin="round" stroke-miterlimit="10" fill="none" fill-rule="evenodd"/><path d="M332.931 529.339 332.931 569.606" stroke="#000000" stroke-width="1.33333" stroke-linejoin="round" stroke-miterlimit="10" fill="none" fill-rule="evenodd"/><path d="M362.756 452.539 362.756 569.606" stroke="#000000" stroke-width="1.33333" stroke-linejoin="round" stroke-miterlimit="10" fill="none" fill-rule="evenodd"/><path d="M392.582 529.339 392.582 569.606" stroke="#000000" stroke-width="1.33333" stroke-linejoin="round" stroke-miterlimit="10" fill="none" fill-rule="evenodd"/><path d="M422.408 529.339 422.408 569.606" stroke="#000000" stroke-width="1.33333" stroke-linejoin="round" stroke-miterlimit="10" fill="none" fill-rule="evenodd"/><path d="M452.234 529.339 452.234 569.606" stroke="#000000" stroke-width="1.33333" stroke-linejoin="round" stroke-miterlimit="10" fill="none" fill-rule="evenodd"/><path d="M482.059 529.339 482.059 569.606" stroke="#000000" stroke-width="1.33333" stroke-linejoin="round" stroke-miterlimit="10" fill="none" fill-rule="evenodd"/><path d="M511.885 529.339 511.885 569.606" stroke="#000000" stroke-width="1.33333" stroke-linejoin="round" stroke-miterlimit="10" fill="none" fill-rule="evenodd"/><path d="M541.711 529.339 541.711 569.606" stroke="#000000" stroke-width="1.33333" stroke-linejoin="round" stroke-miterlimit="10" fill="none" fill-rule="evenodd"/><path d="M571.536 529.339 571.536 569.606" stroke="#000000" stroke-width="1.33333" stroke-linejoin="round" stroke-miterlimit="10" fill="none" fill-rule="evenodd"/><path d="M601.362 529.339 601.362 569.606" stroke="#000000" stroke-width="1.33333" stroke-linejoin="round" stroke-miterlimit="10" fill="none" fill-rule="evenodd"/><path d="M631.188 529.339 631.188 569.606" stroke="#000000" stroke-width="1.33333" stroke-linejoin="round" stroke-miterlimit="10" fill="none" fill-rule="evenodd"/><path d="M661.014 529.339 661.014 569.606" stroke="#000000" stroke-width="1.33333" stroke-linejoin="round" stroke-miterlimit="10" fill="none" fill-rule="evenodd"/><path d="M690.839 529.339 690.839 569.606" stroke="#000000" stroke-width="1.33333" stroke-linejoin="round" stroke-miterlimit="10" fill="none" fill-rule="evenodd"/><path d="M720.665 529.339 720.665 569.606" stroke="#000000" stroke-width="1.33333" stroke-linejoin="round" stroke-miterlimit="10" fill="none" fill-rule="evenodd"/><path d="M750.491 529.339 750.491 569.606" stroke="#000000" stroke-width="1.33333" stroke-linejoin="round" stroke-miterlimit="10" fill="none" fill-rule="evenodd"/><path d="M780.317 529.339 780.317 569.606" stroke="#000000" stroke-width="1.33333" stroke-linejoin="round" stroke-miterlimit="10" fill="none" fill-rule="evenodd"/><path d="M810.142 529.339 810.142 569.606" stroke="#000000" stroke-width="1.33333" stroke-linejoin="round" stroke-miterlimit="10" fill="none" fill-rule="evenodd"/><path d="M839.968 529.339 839.968 569.606" stroke="#000000" stroke-width="1.33333" stroke-linejoin="round" stroke-miterlimit="10" fill="none" fill-rule="evenodd"/><path d="M869.794 529.339 869.794 569.606" stroke="#000000" stroke-width="1.33333" stroke-linejoin="round" stroke-miterlimit="10" fill="none" fill-rule="evenodd"/><path d="M899.619 529.339 899.619 569.606" stroke="#000000" stroke-width="1.33333" stroke-linejoin="round" stroke-miterlimit="10" fill="none" fill-rule="evenodd"/><path d="M929.445 529.339 929.445 569.606" stroke="#000000" stroke-width="1.33333" stroke-linejoin="round" stroke-miterlimit="10" fill="none" fill-rule="evenodd"/><path d="M959.271 529.339 959.271 569.606" stroke="#000000" stroke-width="1.33333" stroke-linejoin="round" stroke-miterlimit="10" fill="none" fill-rule="evenodd"/><path d="M989.097 529.339 989.097 569.606" stroke="#000000" stroke-width="1.33333" stroke-linejoin="round" stroke-miterlimit="10" fill="none" fill-rule="evenodd"/><path d="M1018.92 529.339 1018.92 569.606" stroke="#000000" stroke-width="1.33333" stroke-linejoin="round" stroke-miterlimit="10" fill="none" fill-rule="evenodd"/><path d="M93.6583 530.006 1049.41 530.006" stroke="#000000" stroke-width="1.33333" stroke-linejoin="round" stroke-miterlimit="10" fill="none" fill-rule="evenodd"/><path d="M94.3249 452.539 94.3249 569.606" stroke="#000000" stroke-width="1.33333" stroke-linejoin="round" stroke-miterlimit="10" fill="none" fill-rule="evenodd"/><path d="M1048.75 452.539 1048.75 569.606" stroke="#000000" stroke-width="1.33333" stroke-linejoin="round" stroke-miterlimit="10" fill="none" fill-rule="evenodd"/><path d="M93.6583 453.206 1049.41 453.206" stroke="#000000" stroke-width="1.33333" stroke-linejoin="round" stroke-miterlimit="10" fill="none" fill-rule="evenodd"/><path d="M93.6583 568.939 1049.41 568.939" stroke="#000000" stroke-width="1.33333" stroke-linejoin="round" stroke-miterlimit="10" fill="none" fill-rule="evenodd"/><g clip-path="url(#clip36)"><text font-family="Microsoft YaHei,Microsoft YaHei_MSFontService,sans-serif" font-weight="700" font-size="19" transform="translate(99.9045 476)">符</text></g><g clip-path="url(#clip37)"><text font-family="Microsoft YaHei,Microsoft YaHei_MSFontService,sans-serif" font-weight="700" font-size="19" transform="translate(99.9045 498)">号</text></g><g clip-path="url(#clip38)"><text font-family="Microsoft YaHei,Microsoft YaHei_MSFontService,sans-serif" font-weight="700" font-size="19" transform="translate(99.9045 521)">位</text></g><text fill="#FFFFFF" font-family="Microsoft YaHei,Microsoft YaHei_MSFontService,sans-serif" font-weight="700" font-size="19" transform="translate(202.787 487)">指数位<tspan font-size="19" x="56" y="0">(E)</tspan><tspan font-weight="400" font-size="19" x="-1.5" y="22">Exponent</tspan><tspan font-size="19" x="458.049" y="0">有效位</tspan>(M)<tspan font-weight="400" font-size="19" x="463.135" y="22">Mantissa</tspan></text><g clip-path="url(#clip39)"><text font-family="Source Code Pro,Source Code Pro_MSFontService,sans-serif" font-weight="400" font-size="21" transform="translate(102.821 557)">x</text></g><g clip-path="url(#clip40)"><text fill="#FFFFFF" font-family="Source Code Pro,Source Code Pro_MSFontService,sans-serif" font-weight="400" font-size="21" transform="translate(132.647 557)">1</text></g><g clip-path="url(#clip41)"><text fill="#FFFFFF" font-family="Source Code Pro,Source Code Pro_MSFontService,sans-serif" font-weight="400" font-size="21" transform="translate(162.473 557)">1</text></g><g clip-path="url(#clip42)"><text fill="#FFFFFF" font-family="Source Code Pro,Source Code Pro_MSFontService,sans-serif" font-weight="400" font-size="21" transform="translate(192.298 557)">1</text></g><g clip-path="url(#clip43)"><text fill="#FFFFFF" font-family="Source Code Pro,Source Code Pro_MSFontService,sans-serif" font-weight="400" font-size="21" transform="translate(222.124 557)">1</text></g><g clip-path="url(#clip44)"><text fill="#FFFFFF" font-family="Source Code Pro,Source Code Pro_MSFontService,sans-serif" font-weight="400" font-size="21" transform="translate(251.95 557)">1</text></g><g clip-path="url(#clip45)"><text fill="#FFFFFF" font-family="Source Code Pro,Source Code Pro_MSFontService,sans-serif" font-weight="400" font-size="21" transform="translate(281.775 557)">1</text></g><g clip-path="url(#clip46)"><text fill="#FFFFFF" font-family="Source Code Pro,Source Code Pro_MSFontService,sans-serif" font-weight="400" font-size="21" transform="translate(311.601 557)">1</text></g><g clip-path="url(#clip47)"><text fill="#FFFFFF" font-family="Source Code Pro,Source Code Pro_MSFontService,sans-serif" font-weight="400" font-size="21" transform="translate(341.427 557)">1</text></g><g clip-path="url(#clip48)"><text fill="#FFFFFF" font-family="Source Code Pro,Source Code Pro_MSFontService,sans-serif" font-weight="400" font-size="21" transform="translate(371.253 557)">x</text></g><g clip-path="url(#clip49)"><text fill="#FFFFFF" font-family="Source Code Pro,Source Code Pro_MSFontService,sans-serif" font-weight="400" font-size="21" transform="translate(401.078 557)">x</text></g><g clip-path="url(#clip50)"><text fill="#FFFFFF" font-family="Source Code Pro,Source Code Pro_MSFontService,sans-serif" font-weight="400" font-size="21" transform="translate(430.904 557)">x</text></g><g clip-path="url(#clip51)"><text fill="#FFFFFF" font-family="Source Code Pro,Source Code Pro_MSFontService,sans-serif" font-weight="400" font-size="21" transform="translate(460.73 557)">x</text></g><g clip-path="url(#clip52)"><text fill="#FFFFFF" font-family="Source Code Pro,Source Code Pro_MSFontService,sans-serif" font-weight="400" font-size="21" transform="translate(490.555 557)">x</text></g><g clip-path="url(#clip53)"><text fill="#FFFFFF" font-family="Source Code Pro,Source Code Pro_MSFontService,sans-serif" font-weight="400" font-size="21" transform="translate(520.381 557)">x</text></g><g clip-path="url(#clip54)"><text fill="#FFFFFF" font-family="Source Code Pro,Source Code Pro_MSFontService,sans-serif" font-weight="400" font-size="21" transform="translate(550.207 557)">x</text></g><g clip-path="url(#clip55)"><text fill="#FFFFFF" font-family="Source Code Pro,Source Code Pro_MSFontService,sans-serif" font-weight="400" font-size="21" transform="translate(580.033 557)">x</text></g><g clip-path="url(#clip56)"><text fill="#FFFFFF" font-family="Source Code Pro,Source Code Pro_MSFontService,sans-serif" font-weight="400" font-size="21" transform="translate(609.858 557)">x</text></g><g clip-path="url(#clip57)"><text fill="#FFFFFF" font-family="Source Code Pro,Source Code Pro_MSFontService,sans-serif" font-weight="400" font-size="21" transform="translate(639.684 557)">x</text></g><g clip-path="url(#clip58)"><text fill="#FFFFFF" font-family="Source Code Pro,Source Code Pro_MSFontService,sans-serif" font-weight="400" font-size="21" transform="translate(669.51 557)">x</text></g><g clip-path="url(#clip59)"><text fill="#FFFFFF" font-family="Source Code Pro,Source Code Pro_MSFontService,sans-serif" font-weight="400" font-size="21" transform="translate(699.336 557)">x</text></g><g clip-path="url(#clip60)"><text fill="#FFFFFF" font-family="Source Code Pro,Source Code Pro_MSFontService,sans-serif" font-weight="400" font-size="21" transform="translate(729.161 557)">x</text></g><g clip-path="url(#clip61)"><text fill="#FFFFFF" font-family="Source Code Pro,Source Code Pro_MSFontService,sans-serif" font-weight="400" font-size="21" transform="translate(758.987 557)">x</text></g><g clip-path="url(#clip62)"><text fill="#FFFFFF" font-family="Source Code Pro,Source Code Pro_MSFontService,sans-serif" font-weight="400" font-size="21" transform="translate(788.813 557)">x</text></g><g clip-path="url(#clip63)"><text fill="#FFFFFF" font-family="Source Code Pro,Source Code Pro_MSFontService,sans-serif" font-weight="400" font-size="21" transform="translate(818.638 557)">x</text></g><g clip-path="url(#clip64)"><text fill="#FFFFFF" font-family="Source Code Pro,Source Code Pro_MSFontService,sans-serif" font-weight="400" font-size="21" transform="translate(848.464 557)">x</text></g><g clip-path="url(#clip65)"><text fill="#FFFFFF" font-family="Source Code Pro,Source Code Pro_MSFontService,sans-serif" font-weight="400" font-size="21" transform="translate(878.29 557)">x</text></g><g clip-path="url(#clip66)"><text fill="#FFFFFF" font-family="Source Code Pro,Source Code Pro_MSFontService,sans-serif" font-weight="400" font-size="21" transform="translate(908.116 557)">x</text></g><g clip-path="url(#clip67)"><text fill="#FFFFFF" font-family="Source Code Pro,Source Code Pro_MSFontService,sans-serif" font-weight="400" font-size="21" transform="translate(937.941 557)">x</text></g><g clip-path="url(#clip68)"><text fill="#FFFFFF" font-family="Source Code Pro,Source Code Pro_MSFontService,sans-serif" font-weight="400" font-size="21" transform="translate(967.767 557)">x</text></g><g clip-path="url(#clip69)"><text fill="#FFFFFF" font-family="Source Code Pro,Source Code Pro_MSFontService,sans-serif" font-weight="400" font-size="21" transform="translate(997.593 557)">x</text></g><g clip-path="url(#clip70)"><text fill="#FFFFFF" font-family="Source Code Pro,Source Code Pro_MSFontService,sans-serif" font-weight="400" font-size="21" transform="translate(1027.42 557)">x</text></g><text font-family="Century Schoolbook,Century Schoolbook_MSFontService,sans-serif" font-weight="400" font-size="24" transform="translate(431.751 441)">Value <tspan fill="#3E92A3" font-family="Source Code Pro,Source Code Pro_MSFontService,sans-serif" font-size="24" x="71.5" y="0">NaN</tspan><tspan font-size="24" x="121.167" y="0">use binary</tspan><tspan font-size="24" x="-334.722" y="160">Note:</tspan><tspan font-size="24" x="-268.555" y="160">x</tspan><tspan font-size="24" x="-249.055" y="160">can’t</tspan><tspan font-size="24" x="-189.555" y="160">be</tspan><tspan font-size="24" x="-157.555" y="160">0 all.</tspan></text></g></svg>