<svg width="2982" height="588" xmlns="http://www.w3.org/2000/svg" xmlns:xlink="http://www.w3.org/1999/xlink" overflow="hidden"><defs><clipPath id="clip0"><rect x="604" y="1170" width="2982" height="588"/></clipPath><linearGradient x1="2109" y1="1194" x2="2109" y2="1751" gradientUnits="userSpaceOnUse" spreadMethod="reflect" id="fill1"><stop offset="0" stop-color="#A07400"/><stop offset="0.5" stop-color="#E6A900"/><stop offset="1" stop-color="#FFCA00"/></linearGradient><linearGradient x1="2109" y1="1194" x2="2109" y2="1751" gradientUnits="userSpaceOnUse" spreadMethod="reflect" id="fill2"><stop offset="0" stop-color="#C6AC66"/><stop offset="0.5" stop-color="#F0CB66"/><stop offset="1" stop-color="#FFDF66"/></linearGradient><linearGradient x1="1476.5" y1="1744" x2="1476.5" y2="1201" gradientUnits="userSpaceOnUse" spreadMethod="reflect" id="fill3"><stop offset="0" stop-color="#7E8694" stop-opacity="0.631373"/><stop offset="0.52" stop-color="#3A3F46" stop-opacity="0.509804"/><stop offset="1" stop-color="#24262B"/></linearGradient></defs><g clip-path="url(#clip0)" transform="translate(-604 -1170)"><path d="M1476.66 1751C1578.64 1751 1661.31 1626.31 1661.31 1472.5 1661.31 1318.69 1578.64 1194 1476.66 1194L2741.34 1194C2843.33 1194 2926 1318.69 2926 1472.5 2926 1626.31 2843.33 1751 2741.34 1751Z" fill="url(#fill1)" fill-rule="evenodd"/><path d="M1476.66 1751C1374.67 1751 1292 1626.31 1292 1472.5 1292 1318.69 1374.67 1194 1476.66 1194 1578.64 1194 1661.31 1318.69 1661.31 1472.5 1661.31 1626.31 1578.64 1751 1476.66 1751Z" fill="url(#fill2)" fill-rule="evenodd"/><path d="M1476.66 1194C1578.64 1194 1661.31 1318.69 1661.31 1472.5 1661.31 1626.31 1578.64 1751 1476.66 1751 1374.67 1751 1292 1626.31 1292 1472.5 1292 1318.69 1374.67 1194 1476.66 1194L2741.34 1194C2843.33 1194 2926 1318.69 2926 1472.5 2926 1626.31 2843.33 1751 2741.34 1751L1476.66 1751" stroke="#9A1700" stroke-width="13.75" stroke-miterlimit="8" fill="none" fill-rule="evenodd"/><path d="M1298 1472.5C1298 1322.55 1377.92 1201 1476.5 1201 1575.08 1201 1655 1322.55 1655 1472.5 1655 1622.45 1575.08 1744 1476.5 1744 1377.92 1744 1298 1622.45 1298 1472.5Z" fill="url(#fill3)" fill-rule="evenodd"/><text font-family="Microsoft YaHei,Microsoft YaHei_MSFontService,sans-serif" font-weight="400" font-size="83" transform="matrix(1 0 0 1 3068.51 1274)">模型正面<tspan font-family="Century Schoolbook,Century Schoolbook_MSFontService,sans-serif" font-size="83" x="0" y="101">Front Face</tspan><tspan font-size="83" x="-2301.39" y="294">模型背面</tspan><tspan font-family="Century Schoolbook,Century Schoolbook_MSFontService,sans-serif" font-size="83" x="-2332.62" y="395">Back Face</tspan></text><path d="M2667.5 1276.5 2815.21 1276.5 2821.21 1283.94C2846.24 1321.57 2864.1 1369.96 2871.47 1424.11L2871.5 1424.5 2721.73 1424.5 2715.5 1391.46C2708.06 1360.91 2697.72 1332.45 2684.99 1306.85Z" stroke="#00FFFF" stroke-width="6.875" stroke-miterlimit="8" fill="#C2FFF0" fill-rule="evenodd" fill-opacity="0.529412"/><path d="M2831 1341C2854.99 1307.67 2878.98 1274.34 2911.23 1262.95 2943.49 1251.57 2968.87 1248.36 3020 1250.73" stroke="#000000" stroke-width="10.3125" stroke-linecap="round" stroke-linejoin="round" stroke-miterlimit="10" fill="none" fill-rule="evenodd"/><path d="M1593.95 1673.5C1563.54 1673.5 1533.12 1673.5 1502.71 1673.5L1496.72 1666.01C1471.73 1628.13 1453.89 1579.41 1446.53 1524.9L1446.5 1524.5 1596.05 1524.5 1602.28 1557.77C1605.99 1573.15 1610.43 1588 1615.53 1602.22L1623.5 1621.08" stroke="#00FFFF" stroke-width="6.875" stroke-miterlimit="8" fill="#C2FFF0" fill-rule="evenodd" fill-opacity="0.529412"/><path d="M357 0C295.816 27.155 234.632 54.3101 175.132 62.2967 115.632 70.2833 57.816 59.1018 0 47.9207" stroke="#000000" stroke-width="10.3125" stroke-linecap="round" stroke-linejoin="round" stroke-miterlimit="10" fill="none" fill-rule="evenodd" transform="matrix(1 0 0 -1 1146 1589)"/></g></svg>