<svg width="2878" height="1021" xmlns="http://www.w3.org/2000/svg" xmlns:xlink="http://www.w3.org/1999/xlink" overflow="hidden"><defs><clipPath id="clip0"><rect x="802" y="906" width="2878" height="1021"/></clipPath></defs><g clip-path="url(#clip0)" transform="translate(-802 -906)"><path d="M845 1392 3361.7 1392" stroke="#000000" stroke-width="2.29167" stroke-miterlimit="8" fill="none" fill-rule="evenodd"/><path d="M0 0 0.000360892 325.574" stroke="#C00000" stroke-width="13.75" stroke-miterlimit="8" fill="none" fill-rule="evenodd" transform="matrix(1 0 0 -1 3362 1391.57)"/><path d="M0 0 2520.33 325.573" stroke="#C00000" stroke-width="2.29167" stroke-miterlimit="8" stroke-dasharray="18.3333 6.875" fill="none" fill-rule="evenodd" transform="matrix(1 0 0 -1 845 1391.57)"/><rect x="1959" y="1040" width="65" height="703" stroke="#000000" stroke-width="10.3125" stroke-miterlimit="8" fill="#D6EBEF"/><path d="M841 1028 841.001 1813.68" stroke="#000000" stroke-width="2.29167" stroke-miterlimit="8" stroke-dasharray="18.3333 6.875" fill="none" fill-rule="evenodd"/><path d="M3362 1392 3362 1809.83" stroke="#000000" stroke-width="2.29167" stroke-miterlimit="8" stroke-dasharray="18.3333 6.875" fill="none" fill-rule="evenodd"/><path d="M886.748 1826.78 3320.96 1826.78 3320.96 1830.22 886.748 1830.22ZM891.333 1842.25 845.5 1828.5 891.333 1814.75ZM3316.37 1814.75 3362.2 1828.5 3316.37 1842.25Z"/><path d="M0 0 0.000360892 94.2853" stroke="#000000" stroke-width="13.75" stroke-miterlimit="8" fill="none" fill-rule="evenodd" transform="matrix(1 0 0 -1 841 1875.29)"/><path d="M0 0 0.000360892 94.2853" stroke="#000000" stroke-width="13.75" stroke-miterlimit="8" fill="none" fill-rule="evenodd" transform="matrix(1 0 0 -1 3362 1875.29)"/><path d="M3362 1066 3575.35 1066" stroke="#000000" stroke-width="2.29167" stroke-miterlimit="8" stroke-dasharray="18.3333 6.875" fill="none" fill-rule="evenodd"/><path d="M3362 1392 3575.35 1392" stroke="#000000" stroke-width="2.29167" stroke-miterlimit="8" stroke-dasharray="18.3333 6.875" fill="none" fill-rule="evenodd"/><path d="M3581.22 1108.75 3581.22 1351.28 3577.78 1351.28 3577.78 1108.75ZM3565.75 1113.33 3579.5 1067.5 3593.25 1113.33ZM3593.25 1346.69 3579.5 1392.53 3565.75 1346.69Z"/><path d="M0 0 0.000360892 94.2853" stroke="#000000" stroke-width="13.75" stroke-miterlimit="8" fill="none" fill-rule="evenodd" transform="matrix(6.12323e-17 1 1 -6.12323e-17 3532 1066)"/><path d="M0 0 0.000360892 94.2853" stroke="#000000" stroke-width="13.75" stroke-miterlimit="8" fill="none" fill-rule="evenodd" transform="matrix(6.12323e-17 1 1 -6.12323e-17 3532 1392)"/><path d="M2134.22 1082.75 2134.22 1350.97 2130.78 1350.97 2130.78 1082.75ZM2118.75 1087.33 2132.5 1041.5 2146.25 1087.33ZM2146.25 1346.39 2132.5 1392.22 2118.75 1346.39Z"/><path d="M0 0 0.000360892 94.2853" stroke="#000000" stroke-width="13.75" stroke-miterlimit="8" fill="none" fill-rule="evenodd" transform="matrix(6.12323e-17 1 1 -6.12323e-17 2085 1040)"/><path d="M0 0 0.000360892 94.2853" stroke="#000000" stroke-width="13.75" stroke-miterlimit="8" fill="none" fill-rule="evenodd" transform="matrix(6.12323e-17 1 1 -6.12323e-17 2085 1392)"/><path d="M1054.97 1322.36C1069.01 1365.9 1069.66 1412.65 1056.84 1456.56L837.5 1392.5Z" fill="#ACD7E0" fill-rule="evenodd"/><path d="M1054.97 1322.36C1069.01 1365.9 1069.66 1412.65 1056.84 1456.56" stroke="#3E92A3" stroke-width="10.3125" stroke-miterlimit="8" fill="none" fill-rule="evenodd"/><path d="M819 1391.5C819 1377.42 830.417 1366 844.5 1366 858.583 1366 870 1377.42 870 1391.5 870 1405.58 858.583 1417 844.5 1417 830.417 1417 819 1405.58 819 1391.5Z" fill-rule="evenodd"/><path d="M0 0 1150.3 351.314" stroke="#3E92A3" stroke-width="2.29167" stroke-miterlimit="8" stroke-dasharray="18.3333 6.875" fill="none" fill-rule="evenodd" transform="matrix(1 0 0 -1 841 1391.31)"/><path d="M845 1392 1991.68 1743.31" stroke="#3E92A3" stroke-width="2.29167" stroke-miterlimit="8" stroke-dasharray="18.3333 6.875" fill="none" fill-rule="evenodd"/><rect x="1941" y="1241" width="54" height="154" fill="#C00000"/><path d="M888.75 978.781 1918.58 978.781 1918.58 982.219 888.75 982.219ZM893.333 994.25 847.5 980.5 893.333 966.75ZM1913.99 966.75 1959.83 980.5 1913.99 994.25Z"/><path d="M0 0 0.000360892 94.2853" stroke="#000000" stroke-width="13.75" stroke-miterlimit="8" fill="none" fill-rule="evenodd" transform="matrix(1 0 0 -1 845 1027.29)"/><path d="M0 0 0.000360892 94.2853" stroke="#000000" stroke-width="13.75" stroke-miterlimit="8" fill="none" fill-rule="evenodd" transform="matrix(1 0 0 -1 1959 1027.29)"/><rect x="2031" y="1762" width="203" height="133" fill="#FFFFFF"/><text font-family="Times New Roman,Times New Roman_MSFontService,sans-serif" font-style="italic" font-weight="400" font-size="83" transform="matrix(1 0 0 1 2111.82 1858)">d</text><rect x="1260" y="914" width="203" height="134" fill="#FFFFFF"/><text font-family="Times New Roman,Times New Roman_MSFontService,sans-serif" font-style="italic" font-weight="400" font-size="83" transform="matrix(1 0 0 1 1332.12 1011)">d'</text><rect x="2071" y="1149" width="148" height="134" fill="#FFFFFF"/><text font-family="Times New Roman,Times New Roman_MSFontService,sans-serif" font-style="italic" font-weight="400" font-size="83" transform="matrix(1 0 0 1 2115.15 1246)">H</text><rect x="3477" y="1162" width="203" height="134" fill="#FFFFFF"/><text font-family="Times New Roman,Times New Roman_MSFontService,sans-serif" font-style="italic" font-weight="400" font-size="83" transform="matrix(1 0 0 1 3546.85 1259)">e<tspan font-size="55" x="36.6668" y="20">g</tspan><tspan font-size="83" x="-1710.9" y="99">e</tspan><tspan font-size="55" x="-1674.24" y="119">s</tspan><tspan font-size="83" x="-2632.74" y="31">θ</tspan><tspan font-size="55" x="-2592.06" y="51">f</tspan></text></g></svg>