<svg width="823" height="295" xmlns="http://www.w3.org/2000/svg" xmlns:xlink="http://www.w3.org/1999/xlink" overflow="hidden"><defs><clipPath id="clip0"><rect x="177" y="265" width="823" height="295"/></clipPath><clipPath id="clip1"><rect x="440" y="234" width="63" height="203"/></clipPath><clipPath id="clip2"><rect x="502" y="234" width="96" height="203"/></clipPath><clipPath id="clip3"><rect x="502" y="273" width="96" height="203"/></clipPath><clipPath id="clip4"><rect x="502" y="312" width="96" height="203"/></clipPath><clipPath id="clip5"><rect x="502" y="351" width="96" height="203"/></clipPath><clipPath id="clip6"><rect x="249" y="234" width="146" height="203"/></clipPath><clipPath id="clip7"><rect x="249" y="273" width="146" height="203"/></clipPath><clipPath id="clip8"><rect x="249" y="312" width="146" height="203"/></clipPath><clipPath id="clip9"><rect x="249" y="351" width="146" height="202"/></clipPath><clipPath id="clip10"><rect x="249" y="390" width="146" height="202"/></clipPath><clipPath id="clip11"><rect x="249" y="429" width="146" height="202"/></clipPath></defs><g clip-path="url(#clip0)" transform="translate(-177 -265)"><path d="M440.123 316.195 502.667 316.195 502.667 355.251 440.123 355.251Z" fill="#FFFFFF" fill-rule="evenodd"/><path d="M502.667 316.195 597.373 316.195 597.373 355.251 502.667 355.251Z" fill="#FFFFFF" fill-rule="evenodd"/><path d="M597.373 316.195 729.376 316.195 729.376 355.251 597.373 355.251Z" fill="#FFFFFF" fill-rule="evenodd"/><path d="M729.376 316.195 861.38 316.195 861.38 355.251 729.376 355.251Z" fill="#FFFFFF" fill-rule="evenodd"/><path d="M861.38 316.195 998.162 316.195 998.162 355.251 861.38 355.251Z" fill="#FFFFFF" fill-rule="evenodd"/><path d="M440.123 355.251 502.667 355.251 502.667 394.185 440.123 394.185Z" fill="#F2F2F2" fill-rule="evenodd"/><path d="M502.667 355.251 597.373 355.251 597.373 394.185 502.667 394.185Z" fill="#F2F2F2" fill-rule="evenodd"/><path d="M597.373 355.251 729.376 355.251 729.376 394.185 597.373 394.185Z" fill="#F2F2F2" fill-rule="evenodd"/><path d="M729.376 355.251 861.38 355.251 861.38 394.185 729.376 394.185Z" fill="#F2F2F2" fill-rule="evenodd"/><path d="M861.38 355.251 998.162 355.251 998.162 394.185 861.38 394.185Z" fill="#F2F2F2" fill-rule="evenodd"/><path d="M440.123 394.185 502.667 394.185 502.667 433.118 440.123 433.118Z" fill="#FFFFFF" fill-rule="evenodd"/><path d="M502.667 394.185 597.373 394.185 597.373 433.118 502.667 433.118Z" fill="#FFFFFF" fill-rule="evenodd"/><path d="M597.373 394.185 729.376 394.185 729.376 433.118 597.373 433.118Z" fill="#FFFFFF" fill-rule="evenodd"/><path d="M729.376 394.185 861.38 394.185 861.38 433.118 729.376 433.118Z" fill="#FFFFFF" fill-rule="evenodd"/><path d="M861.38 394.185 998.162 394.185 998.162 433.118 861.38 433.118Z" fill="#FFFFFF" fill-rule="evenodd"/><path d="M440.123 433.118 502.667 433.118 502.667 472.051 440.123 472.051Z" fill="#F2F2F2" fill-rule="evenodd"/><path d="M502.667 433.118 597.373 433.118 597.373 472.051 502.667 472.051Z" fill="#F2F2F2" fill-rule="evenodd"/><path d="M597.373 433.118 729.376 433.118 729.376 472.051 597.373 472.051Z" fill="#F2F2F2" fill-rule="evenodd"/><path d="M729.376 433.118 861.38 433.118 861.38 472.051 729.376 472.051Z" fill="#F2F2F2" fill-rule="evenodd"/><path d="M861.38 433.118 998.162 433.118 998.162 472.051 861.38 472.051Z" fill="#F2F2F2" fill-rule="evenodd"/><path d="M439.456 355.251 998.829 355.251" stroke="#7F7F7F" stroke-width="1.33333" stroke-linejoin="round" stroke-miterlimit="10" fill="none" fill-rule="evenodd"/><path d="M439.456 394.185 998.829 394.185" stroke="#7F7F7F" stroke-width="1.33333" stroke-linejoin="round" stroke-miterlimit="10" fill="none" fill-rule="evenodd"/><path d="M439.456 433.118 998.829 433.118" stroke="#7F7F7F" stroke-width="1.33333" stroke-linejoin="round" stroke-miterlimit="10" fill="none" fill-rule="evenodd"/><path d="M440.123 315.529 440.123 472.718" stroke="#7F7F7F" stroke-width="1.33333" stroke-linejoin="round" stroke-miterlimit="10" fill="none" fill-rule="evenodd"/><path d="M998.162 315.529 998.162 472.718" stroke="#7F7F7F" stroke-width="1.33333" stroke-linejoin="round" stroke-miterlimit="10" fill="none" fill-rule="evenodd"/><path d="M439.456 316.195 998.829 316.195" stroke="#7F7F7F" stroke-width="1.33333" stroke-linejoin="round" stroke-miterlimit="10" fill="none" fill-rule="evenodd"/><path d="M439.456 472.051 998.829 472.051" stroke="#7F7F7F" stroke-width="1.33333" stroke-linejoin="round" stroke-miterlimit="10" fill="none" fill-rule="evenodd"/><g clip-path="url(#clip1)"><text font-family="Microsoft YaHei,Microsoft YaHei_MSFontService,sans-serif" font-weight="700" font-size="24" transform="translate(449.723 344)">pid</text></g><g clip-path="url(#clip2)"><text font-family="Microsoft YaHei,Microsoft YaHei_MSFontService,sans-serif" font-weight="700" font-size="24" transform="translate(512.267 344)">name</text></g><text font-family="Microsoft YaHei,Microsoft YaHei_MSFontService,sans-serif" font-weight="700" font-size="24" transform="translate(635.625 344)">jsdw<tspan font-size="24" x="127.587" y="0">sgdw</tspan><tspan font-size="24" x="268.73" y="0">jldw</tspan><tspan font-family="SimSun,SimSun_MSFontService,sans-serif" font-weight="400" font-size="24" x="-170.23" y="41">1</tspan></text><g clip-path="url(#clip3)"><text font-family="SimSun,SimSun_MSFontService,sans-serif" font-weight="400" font-size="24" transform="translate(512.267 385)">项目</text></g><text font-family="SimSun,SimSun_MSFontService,sans-serif" font-weight="400" font-size="24" transform="translate(560.267 385)">1<tspan font-size="24" x="97.108" y="0">1</tspan><tspan font-size="24" x="229.111" y="0">3</tspan><tspan font-size="24" x="363.504" y="0">5</tspan><tspan font-size="24" x="-94.8718" y="39">2</tspan></text><g clip-path="url(#clip4)"><text font-family="SimSun,SimSun_MSFontService,sans-serif" font-weight="400" font-size="24" transform="translate(512.267 424)">项目</text></g><text font-family="SimSun,SimSun_MSFontService,sans-serif" font-weight="400" font-size="24" transform="translate(560.267 424)">2<tspan font-size="24" x="97.108" y="0">2</tspan><tspan font-size="24" x="229.111" y="0">4</tspan><tspan font-size="24" x="363.504" y="0">5</tspan><tspan font-size="24" x="-94.8718" y="39">3</tspan></text><g clip-path="url(#clip5)"><text font-family="SimSun,SimSun_MSFontService,sans-serif" font-weight="400" font-size="24" transform="translate(512.267 463)">项目</text></g><text font-family="SimSun,SimSun_MSFontService,sans-serif" font-weight="400" font-size="24" transform="translate(560.267 463)">3<tspan font-size="24" x="97.108" y="0">2</tspan><tspan font-size="24" x="229.111" y="0">3</tspan><tspan font-size="24" x="363.504" y="0">5</tspan></text><path d="M191.163 316.195 249.333 316.195 249.333 355.129 191.163 355.129Z" fill="#FFFFFF" fill-rule="evenodd"/><path d="M249.333 316.195 394.667 316.195 394.667 355.129 249.333 355.129Z" fill="#FFFFFF" fill-rule="evenodd"/><path d="M191.163 355.129 249.333 355.129 249.333 394.062 191.163 394.062Z" fill="#F2F2F2" fill-rule="evenodd"/><path d="M249.333 355.129 394.667 355.129 394.667 394.062 249.333 394.062Z" fill="#F2F2F2" fill-rule="evenodd"/><path d="M191.163 394.062 249.333 394.062 249.333 432.995 191.163 432.995Z" fill="#FFFFFF" fill-rule="evenodd"/><path d="M249.333 394.062 394.667 394.062 394.667 432.995 249.333 432.995Z" fill="#FFFFFF" fill-rule="evenodd"/><path d="M191.163 432.995 249.333 432.995 249.333 471.929 191.163 471.929Z" fill="#F2F2F2" fill-rule="evenodd"/><path d="M249.333 432.995 394.667 432.995 394.667 471.929 249.333 471.929Z" fill="#F2F2F2" fill-rule="evenodd"/><path d="M191.163 471.929 249.333 471.929 249.333 510.862 191.163 510.862Z" fill="#FFFFFF" fill-rule="evenodd"/><path d="M249.333 471.929 394.667 471.929 394.667 510.862 249.333 510.862Z" fill="#FFFFFF" fill-rule="evenodd"/><path d="M191.163 510.862 249.333 510.862 249.333 549.795 191.163 549.795Z" fill="#F2F2F2" fill-rule="evenodd"/><path d="M249.333 510.862 394.667 510.862 394.667 549.795 249.333 549.795Z" fill="#F2F2F2" fill-rule="evenodd"/><path d="M190.496 355.129 395.333 355.129" stroke="#7F7F7F" stroke-width="1.33333" stroke-linejoin="round" stroke-miterlimit="10" fill="none" fill-rule="evenodd"/><path d="M190.496 394.062 395.333 394.062" stroke="#7F7F7F" stroke-width="1.33333" stroke-linejoin="round" stroke-miterlimit="10" fill="none" fill-rule="evenodd"/><path d="M190.496 432.995 395.333 432.995" stroke="#7F7F7F" stroke-width="1.33333" stroke-linejoin="round" stroke-miterlimit="10" fill="none" fill-rule="evenodd"/><path d="M190.496 471.929 395.333 471.929" stroke="#7F7F7F" stroke-width="1.33333" stroke-linejoin="round" stroke-miterlimit="10" fill="none" fill-rule="evenodd"/><path d="M190.496 510.862 395.333 510.862" stroke="#7F7F7F" stroke-width="1.33333" stroke-linejoin="round" stroke-miterlimit="10" fill="none" fill-rule="evenodd"/><path d="M191.163 315.529 191.163 550.462" stroke="#7F7F7F" stroke-width="1.33333" stroke-linejoin="round" stroke-miterlimit="10" fill="none" fill-rule="evenodd"/><path d="M394.667 315.529 394.667 550.462" stroke="#7F7F7F" stroke-width="1.33333" stroke-linejoin="round" stroke-miterlimit="10" fill="none" fill-rule="evenodd"/><path d="M190.496 316.195 395.333 316.195" stroke="#7F7F7F" stroke-width="1.33333" stroke-linejoin="round" stroke-miterlimit="10" fill="none" fill-rule="evenodd"/><path d="M190.496 549.795 395.333 549.795" stroke="#7F7F7F" stroke-width="1.33333" stroke-linejoin="round" stroke-miterlimit="10" fill="none" fill-rule="evenodd"/><text font-family="Microsoft YaHei,Microsoft YaHei_MSFontService,sans-serif" font-weight="700" font-size="24" transform="translate(208.665 344)">id</text><g clip-path="url(#clip6)"><text font-family="Microsoft YaHei,Microsoft YaHei_MSFontService,sans-serif" font-weight="700" font-size="24" transform="translate(258.933 344)">name</text></g><text font-family="SimSun,SimSun_MSFontService,sans-serif" font-weight="400" font-size="24" transform="translate(214.248 385)">1</text><g clip-path="url(#clip7)"><text font-family="SimSun,SimSun_MSFontService,sans-serif" font-weight="400" font-size="24" transform="translate(258.933 385)">建设单位</text></g><text font-family="SimSun,SimSun_MSFontService,sans-serif" font-weight="400" font-size="24" transform="translate(354.933 385)">1<tspan font-size="24" x="-140.685" y="39">2</tspan></text><g clip-path="url(#clip8)"><text font-family="SimSun,SimSun_MSFontService,sans-serif" font-weight="400" font-size="24" transform="translate(258.933 424)">建设单位</text></g><text font-family="SimSun,SimSun_MSFontService,sans-serif" font-weight="400" font-size="24" transform="translate(354.933 424)">2<tspan font-size="24" x="-140.685" y="39">3</tspan></text><g clip-path="url(#clip9)"><text font-family="SimSun,SimSun_MSFontService,sans-serif" font-weight="400" font-size="24" transform="translate(258.933 463)">施工单位</text></g><text font-family="SimSun,SimSun_MSFontService,sans-serif" font-weight="400" font-size="24" transform="translate(354.933 463)">1<tspan font-size="24" x="-140.685" y="39">4</tspan></text><g clip-path="url(#clip10)"><text font-family="SimSun,SimSun_MSFontService,sans-serif" font-weight="400" font-size="24" transform="translate(258.933 502)">施工单位</text></g><text font-family="SimSun,SimSun_MSFontService,sans-serif" font-weight="400" font-size="24" transform="translate(354.933 502)">2<tspan font-size="24" x="-140.685" y="39">5</tspan></text><g clip-path="url(#clip11)"><text font-family="SimSun,SimSun_MSFontService,sans-serif" font-weight="400" font-size="24" transform="translate(258.933 541)">监理单位</text></g><text font-family="SimSun,SimSun_MSFontService,sans-serif" font-weight="400" font-size="24" transform="translate(354.933 541)">1<tspan font-family="Microsoft YaHei,Microsoft YaHei_MSFontService,sans-serif" font-size="24" x="84.5498" y="-245">Table </tspan><tspan font-family="Microsoft YaHei,Microsoft YaHei_MSFontService,sans-serif" font-weight="700" font-size="24" x="151.476" y="-245">B</tspan><tspan font-family="Microsoft YaHei,Microsoft YaHei_MSFontService,sans-serif" font-size="24" x="-163.13" y="-245">Table </tspan><tspan font-family="Microsoft YaHei,Microsoft YaHei_MSFontService,sans-serif" font-weight="700" font-size="24" x="-96.2036" y="-245">A</tspan></text></g></svg>