<svg width="3422" height="1196" xmlns="http://www.w3.org/2000/svg" xmlns:xlink="http://www.w3.org/1999/xlink" overflow="hidden"><defs><clipPath id="clip0"><rect x="411" y="870" width="3422" height="1196"/></clipPath><clipPath id="clip1"><rect x="3343" y="878" width="98" height="463"/></clipPath></defs><g clip-path="url(#clip0)" transform="translate(-411 -870)"><path d="M1744.5 1023C1744.5 975.227 1783.45 936.5 1831.5 936.5 1879.55 936.5 1918.5 975.227 1918.5 1023 1918.5 1070.77 1879.55 1109.5 1831.5 1109.5 1783.45 1109.5 1744.5 1070.77 1744.5 1023Z" stroke="#000000" stroke-width="6.875" stroke-miterlimit="8" fill="#00AAFF" fill-rule="evenodd"/><path d="M1261.5 1426.5C1261.5 1386.18 1294.18 1353.5 1334.5 1353.5 1374.82 1353.5 1407.5 1386.18 1407.5 1426.5 1407.5 1466.82 1374.82 1499.5 1334.5 1499.5 1294.18 1499.5 1261.5 1466.82 1261.5 1426.5Z" stroke="#00AAFF" stroke-width="6.875" stroke-miterlimit="8" fill="#FFFFFF" fill-rule="evenodd"/><text fill="#00AAFF" font-family="Century Schoolbook,Century Schoolbook_MSFontService,sans-serif" font-weight="400" font-size="83" transform="matrix(1 0 0 1 1311.2 1458)">1</text><path d="M1758.5 1426.5C1758.5 1386.18 1791.18 1353.5 1831.5 1353.5 1871.82 1353.5 1904.5 1386.18 1904.5 1426.5 1904.5 1466.82 1871.82 1499.5 1831.5 1499.5 1791.18 1499.5 1758.5 1466.82 1758.5 1426.5Z" stroke="#000000" stroke-width="6.875" stroke-miterlimit="8" fill="#F2F2F2" fill-rule="evenodd"/><text font-family="Century Schoolbook,Century Schoolbook_MSFontService,sans-serif" font-weight="400" font-size="83" transform="matrix(1 0 0 1 1807.9 1458)">2</text><path d="M2255.5 1426.5C2255.5 1386.18 2287.96 1353.5 2328 1353.5 2368.04 1353.5 2400.5 1386.18 2400.5 1426.5 2400.5 1466.82 2368.04 1499.5 2328 1499.5 2287.96 1499.5 2255.5 1466.82 2255.5 1426.5Z" stroke="#000000" stroke-width="6.875" stroke-miterlimit="8" fill="#F2F2F2" fill-rule="evenodd"/><text font-family="Century Schoolbook,Century Schoolbook_MSFontService,sans-serif" font-weight="400" font-size="83" transform="matrix(1 0 0 1 2304.61 1458)">3</text><path d="M1137.5 1700.5C1137.5 1660.18 1170.18 1627.5 1210.5 1627.5 1250.82 1627.5 1283.5 1660.18 1283.5 1700.5 1283.5 1740.82 1250.82 1773.5 1210.5 1773.5 1170.18 1773.5 1137.5 1740.82 1137.5 1700.5Z" stroke="#00AAFF" stroke-width="6.875" stroke-miterlimit="8" fill="#FFFFFF" fill-rule="evenodd"/><text fill="#00AAFF" font-family="Century Schoolbook,Century Schoolbook_MSFontService,sans-serif" font-weight="400" font-size="83" transform="matrix(1 0 0 1 1187.03 1731)">2</text><path d="M1385.5 1700.5C1385.5 1660.18 1418.18 1627.5 1458.5 1627.5 1498.82 1627.5 1531.5 1660.18 1531.5 1700.5 1531.5 1740.82 1498.82 1773.5 1458.5 1773.5 1418.18 1773.5 1385.5 1740.82 1385.5 1700.5Z" stroke="#000000" stroke-width="6.875" stroke-miterlimit="8" fill="#F2F2F2" fill-rule="evenodd"/><text font-family="Century Schoolbook,Century Schoolbook_MSFontService,sans-serif" font-weight="400" font-size="83" transform="matrix(1 0 0 1 1435.38 1731)">3</text><path d="M1634.5 1700.5C1634.5 1660.18 1667.18 1627.5 1707.5 1627.5 1747.82 1627.5 1780.5 1660.18 1780.5 1700.5 1780.5 1740.82 1747.82 1773.5 1707.5 1773.5 1667.18 1773.5 1634.5 1740.82 1634.5 1700.5Z" stroke="#000000" stroke-width="6.875" stroke-miterlimit="8" fill="#F2F2F2" fill-rule="evenodd"/><text font-family="Century Schoolbook,Century Schoolbook_MSFontService,sans-serif" font-weight="400" font-size="83" transform="matrix(1 0 0 1 1683.73 1731)">1</text><path d="M1882.5 1700.5C1882.5 1660.18 1915.18 1627.5 1955.5 1627.5 1995.82 1627.5 2028.5 1660.18 2028.5 1700.5 2028.5 1740.82 1995.82 1773.5 1955.5 1773.5 1915.18 1773.5 1882.5 1740.82 1882.5 1700.5Z" stroke="#000000" stroke-width="6.875" stroke-miterlimit="8" fill="#F2F2F2" fill-rule="evenodd"/><text font-family="Century Schoolbook,Century Schoolbook_MSFontService,sans-serif" font-weight="400" font-size="83" transform="matrix(1 0 0 1 1932.08 1731)">3</text><path d="M2130.5 1700.5C2130.5 1660.18 2163.18 1627.5 2203.5 1627.5 2243.82 1627.5 2276.5 1660.18 2276.5 1700.5 2276.5 1740.82 2243.82 1773.5 2203.5 1773.5 2163.18 1773.5 2130.5 1740.82 2130.5 1700.5Z" stroke="#000000" stroke-width="6.875" stroke-miterlimit="8" fill="#F2F2F2" fill-rule="evenodd"/><text font-family="Century Schoolbook,Century Schoolbook_MSFontService,sans-serif" font-weight="400" font-size="83" transform="matrix(1 0 0 1 2180.43 1731)">1</text><path d="M2379.5 1700.5C2379.5 1660.18 2412.18 1627.5 2452.5 1627.5 2492.82 1627.5 2525.5 1660.18 2525.5 1700.5 2525.5 1740.82 2492.82 1773.5 2452.5 1773.5 2412.18 1773.5 2379.5 1740.82 2379.5 1700.5Z" stroke="#000000" stroke-width="6.875" stroke-miterlimit="8" fill="#F2F2F2" fill-rule="evenodd"/><text font-family="Century Schoolbook,Century Schoolbook_MSFontService,sans-serif" font-weight="400" font-size="83" transform="matrix(1 0 0 1 2428.78 1731)">2</text><path d="M1137.5 1966.5C1137.5 1926.18 1170.18 1893.5 1210.5 1893.5 1250.82 1893.5 1283.5 1926.18 1283.5 1966.5 1283.5 2006.82 1250.82 2039.5 1210.5 2039.5 1170.18 2039.5 1137.5 2006.82 1137.5 1966.5Z" stroke="#00AAFF" stroke-width="6.875" stroke-miterlimit="8" fill="#FFFFFF" fill-rule="evenodd"/><text fill="#00AAFF" font-family="Century Schoolbook,Century Schoolbook_MSFontService,sans-serif" font-weight="400" font-size="83" transform="matrix(1 0 0 1 1187.03 1998)">3</text><path d="M1385.5 1966.5C1385.5 1926.18 1418.18 1893.5 1458.5 1893.5 1498.82 1893.5 1531.5 1926.18 1531.5 1966.5 1531.5 2006.82 1498.82 2039.5 1458.5 2039.5 1418.18 2039.5 1385.5 2006.82 1385.5 1966.5Z" stroke="#000000" stroke-width="6.875" stroke-miterlimit="8" fill="#F2F2F2" fill-rule="evenodd"/><text font-family="Century Schoolbook,Century Schoolbook_MSFontService,sans-serif" font-weight="400" font-size="83" transform="matrix(1 0 0 1 1435.38 1998)">2</text><path d="M1634.5 1966.5C1634.5 1926.18 1667.18 1893.5 1707.5 1893.5 1747.82 1893.5 1780.5 1926.18 1780.5 1966.5 1780.5 2006.82 1747.82 2039.5 1707.5 2039.5 1667.18 2039.5 1634.5 2006.82 1634.5 1966.5Z" stroke="#000000" stroke-width="6.875" stroke-miterlimit="8" fill="#F2F2F2" fill-rule="evenodd"/><text font-family="Century Schoolbook,Century Schoolbook_MSFontService,sans-serif" font-weight="400" font-size="83" transform="matrix(1 0 0 1 1683.73 1998)">3</text><path d="M1882.5 1966.5C1882.5 1926.18 1915.18 1893.5 1955.5 1893.5 1995.82 1893.5 2028.5 1926.18 2028.5 1966.5 2028.5 2006.82 1995.82 2039.5 1955.5 2039.5 1915.18 2039.5 1882.5 2006.82 1882.5 1966.5Z" stroke="#000000" stroke-width="6.875" stroke-miterlimit="8" fill="#F2F2F2" fill-rule="evenodd"/><text font-family="Century Schoolbook,Century Schoolbook_MSFontService,sans-serif" font-weight="400" font-size="83" transform="matrix(1 0 0 1 1932.08 1998)">1</text><path d="M2130.5 1966.5C2130.5 1926.18 2163.18 1893.5 2203.5 1893.5 2243.82 1893.5 2276.5 1926.18 2276.5 1966.5 2276.5 2006.82 2243.82 2039.5 2203.5 2039.5 2163.18 2039.5 2130.5 2006.82 2130.5 1966.5Z" stroke="#000000" stroke-width="6.875" stroke-miterlimit="8" fill="#F2F2F2" fill-rule="evenodd"/><text font-family="Century Schoolbook,Century Schoolbook_MSFontService,sans-serif" font-weight="400" font-size="83" transform="matrix(1 0 0 1 2180.43 1998)">2</text><path d="M2379.5 1966.5C2379.5 1926.18 2412.18 1893.5 2452.5 1893.5 2492.82 1893.5 2525.5 1926.18 2525.5 1966.5 2525.5 2006.82 2492.82 2039.5 2452.5 2039.5 2412.18 2039.5 2379.5 2006.82 2379.5 1966.5Z" stroke="#000000" stroke-width="6.875" stroke-miterlimit="8" fill="#F2F2F2" fill-rule="evenodd"/><text font-family="Century Schoolbook,Century Schoolbook_MSFontService,sans-serif" font-weight="400" font-size="83" transform="matrix(1 0 0 1 2428.78 1998)">1</text><path d="M0 0 383.837 290.536" stroke="#00AAFF" stroke-width="6.875" stroke-miterlimit="8" fill="none" fill-rule="evenodd" transform="matrix(-1 0 0 1 1770.34 1084.5)"/><path d="M1831 1109 1831 1352.78" stroke="#000000" stroke-width="2.29167" stroke-miterlimit="8" fill="none" fill-rule="evenodd"/><path d="M1892 1084 2275.84 1374.54" stroke="#000000" stroke-width="2.29167" stroke-miterlimit="8" fill="none" fill-rule="evenodd"/><path d="M0 0 72.6545 149.308" stroke="#00AAFF" stroke-width="6.875" stroke-miterlimit="8" fill="none" fill-rule="evenodd" transform="matrix(-1 0 0 1 1283.15 1478.5)"/><path d="M1386 1478 1458.66 1627.31" stroke="#000000" stroke-width="2.29167" stroke-miterlimit="8" fill="none" fill-rule="evenodd"/><path d="M0 0 72.6545 149.309" stroke="#000000" stroke-width="2.29167" stroke-miterlimit="8" fill="none" fill-rule="evenodd" transform="matrix(-1 0 0 1 1779.65 1478)"/><path d="M1882 1478 1954.66 1627.31" stroke="#000000" stroke-width="2.29167" stroke-miterlimit="8" fill="none" fill-rule="evenodd"/><path d="M0 0 72.6552 149.309" stroke="#000000" stroke-width="2.29167" stroke-miterlimit="8" fill="none" fill-rule="evenodd" transform="matrix(-1 0 0 1 2275.66 1478)"/><path d="M2379 1478 2451.66 1627.31" stroke="#000000" stroke-width="2.29167" stroke-miterlimit="8" fill="none" fill-rule="evenodd"/><path d="M1210.5 1773.5 1210.5 1894.4" stroke="#00AAFF" stroke-width="6.875" stroke-miterlimit="8" fill="none" fill-rule="evenodd"/><path d="M1458 1773 1458 1893.9" stroke="#000000" stroke-width="2.29167" stroke-miterlimit="8" fill="none" fill-rule="evenodd"/><path d="M1707 1773 1707 1893.9" stroke="#000000" stroke-width="2.29167" stroke-miterlimit="8" fill="none" fill-rule="evenodd"/><path d="M1955 1773 1955 1893.9" stroke="#000000" stroke-width="2.29167" stroke-miterlimit="8" fill="none" fill-rule="evenodd"/><path d="M2203 1773 2203 1893.9" stroke="#000000" stroke-width="2.29167" stroke-miterlimit="8" fill="none" fill-rule="evenodd"/><path d="M2452 1773 2452 1893.9" stroke="#000000" stroke-width="2.29167" stroke-miterlimit="8" fill="none" fill-rule="evenodd"/><path d="M411.594 911.39 646.336 911.39 646.336 1010.39 411.594 1010.39Z" fill="#FFFFFF" fill-rule="evenodd"/><path d="M646.336 911.39 753.596 911.39 753.596 1010.39 646.336 1010.39Z" fill="#FFFFFF" fill-rule="evenodd"/><path d="M753.596 911.39 860.855 911.39 860.855 1010.39 753.596 1010.39Z" fill="#FFFFFF" fill-rule="evenodd"/><path d="M860.855 911.39 968.114 911.39 968.114 1010.39 860.855 1010.39Z" fill="#FFFFFF" fill-rule="evenodd"/><path d="M411.594 1010.39 646.336 1010.39 646.336 1109.39 411.594 1109.39Z" fill="#FFFFFF" fill-rule="evenodd"/><path d="M646.336 1010.39 753.596 1010.39 753.596 1109.39 646.336 1109.39Z" fill="#FFFFFF" fill-rule="evenodd"/><path d="M753.596 1010.39 860.855 1010.39 860.855 1109.39 753.596 1109.39Z" fill="#FFFFFF" fill-rule="evenodd"/><path d="M860.855 1010.39 968.114 1010.39 968.114 1109.39 860.855 1109.39Z" fill="#FFFFFF" fill-rule="evenodd"/><path d="M646.336 909.098 646.336 1111.68" stroke="#BFBFBF" stroke-width="4.58333" stroke-linejoin="round" stroke-miterlimit="10" fill="none" fill-rule="evenodd"/><path d="M753.596 909.098 753.596 1111.68" stroke="#BFBFBF" stroke-width="4.58333" stroke-linejoin="round" stroke-miterlimit="10" fill="none" fill-rule="evenodd"/><path d="M860.855 909.098 860.855 1111.68" stroke="#BFBFBF" stroke-width="4.58333" stroke-linejoin="round" stroke-miterlimit="10" fill="none" fill-rule="evenodd"/><path d="M644.045 1010.39 970.406 1010.39" stroke="#BFBFBF" stroke-width="4.58333" stroke-linejoin="round" stroke-miterlimit="10" fill="none" fill-rule="evenodd"/><path d="M968.114 909.098 968.114 1111.68" stroke="#BFBFBF" stroke-width="4.58333" stroke-linejoin="round" stroke-miterlimit="10" fill="none" fill-rule="evenodd"/><path d="M644.045 911.39 970.406 911.39" stroke="#BFBFBF" stroke-width="4.58333" stroke-linejoin="round" stroke-miterlimit="10" fill="none" fill-rule="evenodd"/><path d="M644.045 1109.39 970.406 1109.39" stroke="#BFBFBF" stroke-width="4.58333" stroke-linejoin="round" stroke-miterlimit="10" fill="none" fill-rule="evenodd"/><text font-family="Century Schoolbook,Century Schoolbook_MSFontService,sans-serif" font-weight="400" font-size="55" transform="matrix(1 0 0 1 449.902 982)">Check<tspan font-size="55" x="234.881" y="0">1</tspan><tspan font-size="55" x="342.141" y="0">2</tspan><tspan font-size="55" x="449.4" y="0">3</tspan><tspan fill="#00AAFF" font-size="55" x="7.16156" y="99">Trace</tspan></text><path d="M411.594 1302.4 646.336 1302.4 646.336 1401.4 411.594 1401.4Z" fill="#FFFFFF" fill-rule="evenodd"/><path d="M646.336 1302.4 753.596 1302.4 753.596 1401.4 646.336 1401.4Z" fill="#FFFFFF" fill-rule="evenodd"/><path d="M753.596 1302.4 860.855 1302.4 860.855 1401.4 753.596 1401.4Z" fill="#FFFFFF" fill-rule="evenodd"/><path d="M860.855 1302.4 968.114 1302.4 968.114 1401.4 860.855 1401.4Z" fill="#FFFFFF" fill-rule="evenodd"/><path d="M411.594 1401.4 646.336 1401.4 646.336 1500.4 411.594 1500.4Z" fill="#FFFFFF" fill-rule="evenodd"/><path d="M646.336 1401.4 753.596 1401.4 753.596 1500.4 646.336 1500.4Z" fill="#FFFFFF" fill-rule="evenodd"/><path d="M753.596 1401.4 860.855 1401.4 860.855 1500.4 753.596 1500.4Z" fill="#FFFFFF" fill-rule="evenodd"/><path d="M860.855 1401.4 968.114 1401.4 968.114 1500.4 860.855 1500.4Z" fill="#FFFFFF" fill-rule="evenodd"/><path d="M646.336 1300.11 646.336 1502.69" stroke="#BFBFBF" stroke-width="4.58333" stroke-linejoin="round" stroke-miterlimit="10" fill="none" fill-rule="evenodd"/><path d="M753.596 1300.11 753.596 1502.69" stroke="#BFBFBF" stroke-width="4.58333" stroke-linejoin="round" stroke-miterlimit="10" fill="none" fill-rule="evenodd"/><path d="M860.855 1300.11 860.855 1502.69" stroke="#BFBFBF" stroke-width="4.58333" stroke-linejoin="round" stroke-miterlimit="10" fill="none" fill-rule="evenodd"/><path d="M644.045 1401.4 970.406 1401.4" stroke="#BFBFBF" stroke-width="4.58333" stroke-linejoin="round" stroke-miterlimit="10" fill="none" fill-rule="evenodd"/><path d="M968.114 1300.11 968.114 1502.69" stroke="#BFBFBF" stroke-width="4.58333" stroke-linejoin="round" stroke-miterlimit="10" fill="none" fill-rule="evenodd"/><path d="M644.045 1302.4 970.406 1302.4" stroke="#BFBFBF" stroke-width="4.58333" stroke-linejoin="round" stroke-miterlimit="10" fill="none" fill-rule="evenodd"/><path d="M644.045 1500.4 970.406 1500.4" stroke="#BFBFBF" stroke-width="4.58333" stroke-linejoin="round" stroke-miterlimit="10" fill="none" fill-rule="evenodd"/><text font-family="Century Schoolbook,Century Schoolbook_MSFontService,sans-serif" font-weight="400" font-size="55" transform="matrix(1 0 0 1 449.902 1373)">Check<tspan font-size="55" x="234.881" y="0">2</tspan><tspan font-size="55" x="342.141" y="0">3</tspan><tspan fill="#00AAFF" font-size="55" x="7.16156" y="99">Trace</tspan><tspan fill="#00AAFF" font-size="55" x="234.881" y="99">1</tspan></text><path d="M411.594 1571.81 646.336 1571.81 646.336 1670.81 411.594 1670.81Z" fill="#FFFFFF" fill-rule="evenodd"/><path d="M646.336 1571.81 753.596 1571.81 753.596 1670.81 646.336 1670.81Z" fill="#FFFFFF" fill-rule="evenodd"/><path d="M753.596 1571.81 860.855 1571.81 860.855 1670.81 753.596 1670.81Z" fill="#FFFFFF" fill-rule="evenodd"/><path d="M860.855 1571.81 968.114 1571.81 968.114 1670.81 860.855 1670.81Z" fill="#FFFFFF" fill-rule="evenodd"/><path d="M411.594 1670.81 646.336 1670.81 646.336 1769.81 411.594 1769.81Z" fill="#FFFFFF" fill-rule="evenodd"/><path d="M646.336 1670.81 753.596 1670.81 753.596 1769.81 646.336 1769.81Z" fill="#FFFFFF" fill-rule="evenodd"/><path d="M753.596 1670.81 860.855 1670.81 860.855 1769.81 753.596 1769.81Z" fill="#FFFFFF" fill-rule="evenodd"/><path d="M860.855 1670.81 968.114 1670.81 968.114 1769.81 860.855 1769.81Z" fill="#FFFFFF" fill-rule="evenodd"/><path d="M646.336 1569.51 646.336 1772.1" stroke="#BFBFBF" stroke-width="4.58333" stroke-linejoin="round" stroke-miterlimit="10" fill="none" fill-rule="evenodd"/><path d="M753.596 1569.51 753.596 1772.1" stroke="#BFBFBF" stroke-width="4.58333" stroke-linejoin="round" stroke-miterlimit="10" fill="none" fill-rule="evenodd"/><path d="M860.855 1569.51 860.855 1772.1" stroke="#BFBFBF" stroke-width="4.58333" stroke-linejoin="round" stroke-miterlimit="10" fill="none" fill-rule="evenodd"/><path d="M644.045 1670.81 970.406 1670.81" stroke="#BFBFBF" stroke-width="4.58333" stroke-linejoin="round" stroke-miterlimit="10" fill="none" fill-rule="evenodd"/><path d="M968.114 1569.51 968.114 1772.1" stroke="#BFBFBF" stroke-width="4.58333" stroke-linejoin="round" stroke-miterlimit="10" fill="none" fill-rule="evenodd"/><path d="M644.045 1571.81 970.406 1571.81" stroke="#BFBFBF" stroke-width="4.58333" stroke-linejoin="round" stroke-miterlimit="10" fill="none" fill-rule="evenodd"/><path d="M644.045 1769.81 970.406 1769.81" stroke="#BFBFBF" stroke-width="4.58333" stroke-linejoin="round" stroke-miterlimit="10" fill="none" fill-rule="evenodd"/><text font-family="Century Schoolbook,Century Schoolbook_MSFontService,sans-serif" font-weight="400" font-size="55" transform="matrix(1 0 0 1 449.902 1642)">Check<tspan font-size="55" x="234.881" y="0">3</tspan><tspan fill="#00AAFF" font-size="55" x="7.16156" y="99">Trace</tspan><tspan fill="#00AAFF" font-size="55" x="234.881" y="99">1</tspan><tspan fill="#00AAFF" font-size="55" x="342.141" y="99">2</tspan></text><path d="M411.594 1841.21 646.336 1841.21 646.336 1940.21 411.594 1940.21Z" fill="#FFFFFF" fill-rule="evenodd"/><path d="M646.336 1841.21 753.596 1841.21 753.596 1940.21 646.336 1940.21Z" fill="#FFFFFF" fill-rule="evenodd"/><path d="M753.596 1841.21 860.855 1841.21 860.855 1940.21 753.596 1940.21Z" fill="#FFFFFF" fill-rule="evenodd"/><path d="M860.855 1841.21 968.114 1841.21 968.114 1940.21 860.855 1940.21Z" fill="#FFFFFF" fill-rule="evenodd"/><path d="M411.594 1940.21 646.336 1940.21 646.336 2039.21 411.594 2039.21Z" fill="#FFFFFF" fill-rule="evenodd"/><path d="M646.336 1940.21 753.596 1940.21 753.596 2039.21 646.336 2039.21Z" fill="#FFFFFF" fill-rule="evenodd"/><path d="M753.596 1940.21 860.855 1940.21 860.855 2039.21 753.596 2039.21Z" fill="#FFFFFF" fill-rule="evenodd"/><path d="M860.855 1940.21 968.114 1940.21 968.114 2039.21 860.855 2039.21Z" fill="#FFFFFF" fill-rule="evenodd"/><path d="M646.336 1838.92 646.336 2041.51" stroke="#BFBFBF" stroke-width="4.58333" stroke-linejoin="round" stroke-miterlimit="10" fill="none" fill-rule="evenodd"/><path d="M753.596 1838.92 753.596 2041.51" stroke="#BFBFBF" stroke-width="4.58333" stroke-linejoin="round" stroke-miterlimit="10" fill="none" fill-rule="evenodd"/><path d="M860.855 1838.92 860.855 2041.51" stroke="#BFBFBF" stroke-width="4.58333" stroke-linejoin="round" stroke-miterlimit="10" fill="none" fill-rule="evenodd"/><path d="M644.045 1940.21 970.406 1940.21" stroke="#BFBFBF" stroke-width="4.58333" stroke-linejoin="round" stroke-miterlimit="10" fill="none" fill-rule="evenodd"/><path d="M968.114 1838.92 968.114 2041.51" stroke="#BFBFBF" stroke-width="4.58333" stroke-linejoin="round" stroke-miterlimit="10" fill="none" fill-rule="evenodd"/><path d="M644.045 1841.21 970.406 1841.21" stroke="#BFBFBF" stroke-width="4.58333" stroke-linejoin="round" stroke-miterlimit="10" fill="none" fill-rule="evenodd"/><path d="M644.045 2039.21 970.406 2039.21" stroke="#BFBFBF" stroke-width="4.58333" stroke-linejoin="round" stroke-miterlimit="10" fill="none" fill-rule="evenodd"/><text font-family="Century Schoolbook,Century Schoolbook_MSFontService,sans-serif" font-weight="400" font-size="55" transform="matrix(1 0 0 1 449.902 1912)">Check<tspan fill="#00AAFF" font-size="55" x="7.16156" y="99">Trace</tspan><tspan fill="#00AAFF" font-size="55" x="234.881" y="99">1</tspan><tspan fill="#00AAFF" font-size="55" x="342.141" y="99">2</tspan><tspan fill="#00AAFF" font-size="55" x="449.4" y="99">3</tspan><tspan font-family="Microsoft YaHei,Microsoft YaHei_MSFontService,sans-serif" font-weight="700" font-size="83" x="666.03" y="-938">Permutation</tspan><tspan font-family="Microsoft YaHei,Microsoft YaHei_MSFontService,sans-serif" font-size="55" x="666.03" y="-865">全排列问题的决策树</tspan></text><path d="M2762.99 1059.89 2859.76 1059.89 2859.76 1158.89 2762.99 1158.89Z" fill="#FFFFFF" fill-rule="evenodd"/><path d="M2859.76 1059.89 2956.54 1059.89 2956.54 1158.89 2859.76 1158.89Z" fill="#FFFFFF" fill-rule="evenodd"/><path d="M2956.54 1059.89 3053.32 1059.89 3053.32 1158.89 2956.54 1158.89Z" fill="#FFFFFF" fill-rule="evenodd"/><path d="M3053.32 1059.89 3150.1 1059.89 3150.1 1158.89 3053.32 1158.89Z" fill="#FFFFFF" fill-rule="evenodd"/><path d="M3150.1 1059.89 3246.88 1059.89 3246.88 1158.89 3150.1 1158.89Z" fill="#FFFFFF" fill-rule="evenodd"/><path d="M3246.88 1059.89 3343.66 1059.89 3343.66 1158.89 3246.88 1158.89Z" fill="#FFFFFF" fill-rule="evenodd"/><path d="M3343.66 1059.89 3440.44 1059.89 3440.44 1158.89 3343.66 1158.89Z" fill="#FFFFFF" fill-rule="evenodd"/><path d="M2859.76 1057.6 2859.76 1161.18" stroke="#000000" stroke-width="4.58333" stroke-linejoin="round" stroke-miterlimit="10" fill="none" fill-rule="evenodd"/><path d="M2956.54 1057.6 2956.54 1161.18" stroke="#000000" stroke-width="4.58333" stroke-linejoin="round" stroke-miterlimit="10" fill="none" fill-rule="evenodd"/><path d="M3053.32 1057.6 3053.32 1161.18" stroke="#000000" stroke-width="4.58333" stroke-linejoin="round" stroke-miterlimit="10" fill="none" fill-rule="evenodd"/><path d="M3150.1 1057.6 3150.1 1161.18" stroke="#000000" stroke-width="4.58333" stroke-linejoin="round" stroke-miterlimit="10" fill="none" fill-rule="evenodd"/><path d="M3246.88 1057.6 3246.88 1161.18" stroke="#000000" stroke-width="4.58333" stroke-linejoin="round" stroke-miterlimit="10" fill="none" fill-rule="evenodd"/><path d="M3343.66 1057.6 3343.66 1161.18" stroke="#000000" stroke-width="4.58333" stroke-linejoin="round" stroke-miterlimit="10" fill="none" fill-rule="evenodd"/><path d="M2762.99 1057.6 2762.99 1161.18" stroke="#000000" stroke-width="4.58333" stroke-linejoin="round" stroke-miterlimit="10" fill="none" fill-rule="evenodd"/><path d="M3440.44 1057.6 3440.44 1161.18" stroke="#000000" stroke-width="4.58333" stroke-linejoin="round" stroke-miterlimit="10" fill="none" fill-rule="evenodd"/><path d="M2760.69 1059.89 3442.73 1059.89" stroke="#000000" stroke-width="4.58333" stroke-linejoin="round" stroke-miterlimit="10" fill="none" fill-rule="evenodd"/><path d="M2760.69 1158.89 3442.73 1158.89" stroke="#000000" stroke-width="4.58333" stroke-linejoin="round" stroke-miterlimit="10" fill="none" fill-rule="evenodd"/><text font-family="Century Schoolbook,Century Schoolbook_MSFontService,sans-serif" font-weight="400" font-size="55" transform="matrix(1 0 0 1 2796.19 1130)">1<tspan font-size="55" x="96.7796" y="0">2</tspan><tspan font-size="55" x="193.559" y="0">3</tspan><tspan font-size="55" x="296.354" y="0">·</tspan><tspan font-size="55" x="393.134" y="0">·</tspan><tspan font-size="55" x="489.913" y="0">·</tspan></text><g clip-path="url(#clip1)"><text font-family="Century Schoolbook,Century Schoolbook_MSFontService,sans-serif" font-style="italic" font-weight="400" font-size="55" transform="matrix(1 0 0 1 3375.15 1130)">n</text></g><text font-family="Century Schoolbook,Century Schoolbook_MSFontService,sans-serif" font-weight="400" font-size="64" transform="matrix(1 0 0 1 2761.57 1003)">Swap Algorithm</text><path d="M2762.99 1376.54 2859.76 1376.54 2859.76 1475.54 2762.99 1475.54Z" fill="#00AAFF" fill-rule="evenodd"/><path d="M2859.76 1376.54 2956.54 1376.54 2956.54 1475.54 2859.76 1475.54Z" fill="#FFFFFF" fill-rule="evenodd"/><path d="M2956.54 1376.54 3053.32 1376.54 3053.32 1475.54 2956.54 1475.54Z" fill="#FFFFFF" fill-rule="evenodd"/><path d="M2859.76 1374.24 2859.76 1477.83" stroke="#000000" stroke-width="4.58333" stroke-linejoin="round" stroke-miterlimit="10" fill="none" fill-rule="evenodd"/><path d="M2956.54 1374.24 2956.54 1477.83" stroke="#000000" stroke-width="4.58333" stroke-linejoin="round" stroke-miterlimit="10" fill="none" fill-rule="evenodd"/><path d="M2762.99 1374.24 2762.99 1477.83" stroke="#000000" stroke-width="4.58333" stroke-linejoin="round" stroke-miterlimit="10" fill="none" fill-rule="evenodd"/><path d="M3053.32 1374.24 3053.32 1477.83" stroke="#000000" stroke-width="4.58333" stroke-linejoin="round" stroke-miterlimit="10" fill="none" fill-rule="evenodd"/><path d="M2760.69 1376.54 3055.62 1376.54" stroke="#000000" stroke-width="4.58333" stroke-linejoin="round" stroke-miterlimit="10" fill="none" fill-rule="evenodd"/><path d="M2760.69 1475.54 3055.62 1475.54" stroke="#000000" stroke-width="4.58333" stroke-linejoin="round" stroke-miterlimit="10" fill="none" fill-rule="evenodd"/><text fill="#FFFFFF" font-family="Century Schoolbook,Century Schoolbook_MSFontService,sans-serif" font-weight="400" font-size="55" transform="matrix(1 0 0 1 2796.19 1447)">1<tspan fill="#000000" font-size="55" x="96.7796" y="0">2</tspan><tspan fill="#000000" font-size="55" x="193.559" y="0">3</tspan></text><path d="M2762.99 1643.68 2859.76 1643.68 2859.76 1742.68 2762.99 1742.68Z" fill-rule="evenodd"/><path d="M2859.76 1643.68 2956.54 1643.68 2956.54 1742.68 2859.76 1742.68Z" fill="#00AAFF" fill-rule="evenodd"/><path d="M2956.54 1643.68 3053.32 1643.68 3053.32 1742.68 2956.54 1742.68Z" fill="#FFFFFF" fill-rule="evenodd"/><path d="M2859.76 1641.39 2859.76 1744.97" stroke="#000000" stroke-width="4.58333" stroke-linejoin="round" stroke-miterlimit="10" fill="none" fill-rule="evenodd"/><path d="M2956.54 1641.39 2956.54 1744.97" stroke="#000000" stroke-width="4.58333" stroke-linejoin="round" stroke-miterlimit="10" fill="none" fill-rule="evenodd"/><path d="M2762.99 1641.39 2762.99 1744.97" stroke="#000000" stroke-width="4.58333" stroke-linejoin="round" stroke-miterlimit="10" fill="none" fill-rule="evenodd"/><path d="M3053.32 1641.39 3053.32 1744.97" stroke="#000000" stroke-width="4.58333" stroke-linejoin="round" stroke-miterlimit="10" fill="none" fill-rule="evenodd"/><path d="M2760.69 1643.68 3055.62 1643.68" stroke="#000000" stroke-width="4.58333" stroke-linejoin="round" stroke-miterlimit="10" fill="none" fill-rule="evenodd"/><path d="M2760.69 1742.68 3055.62 1742.68" stroke="#000000" stroke-width="4.58333" stroke-linejoin="round" stroke-miterlimit="10" fill="none" fill-rule="evenodd"/><text fill="#FFFFFF" font-family="Century Schoolbook,Century Schoolbook_MSFontService,sans-serif" font-weight="400" font-size="55" transform="matrix(1 0 0 1 2796.19 1714)">1<tspan font-size="55" x="96.7796" y="0">2</tspan><tspan fill="#000000" font-size="55" x="193.559" y="0">3</tspan></text><path d="M2762.98 1916.85 2859.76 1916.85 2859.76 2015.85 2762.98 2015.85Z" fill-rule="evenodd"/><path d="M2859.76 1916.85 2956.54 1916.85 2956.54 2015.85 2859.76 2015.85Z" fill-rule="evenodd"/><path d="M2956.54 1916.85 3053.32 1916.85 3053.32 2015.85 2956.54 2015.85Z" fill="#00AAFF" fill-rule="evenodd"/><path d="M2859.76 1914.56 2859.76 2018.14" stroke="#000000" stroke-width="4.58333" stroke-linejoin="round" stroke-miterlimit="10" fill="none" fill-rule="evenodd"/><path d="M2956.54 1914.56 2956.54 2018.14" stroke="#000000" stroke-width="4.58333" stroke-linejoin="round" stroke-miterlimit="10" fill="none" fill-rule="evenodd"/><path d="M2762.98 1914.56 2762.98 2018.14" stroke="#000000" stroke-width="4.58333" stroke-linejoin="round" stroke-miterlimit="10" fill="none" fill-rule="evenodd"/><path d="M3053.32 1914.56 3053.32 2018.14" stroke="#000000" stroke-width="4.58333" stroke-linejoin="round" stroke-miterlimit="10" fill="none" fill-rule="evenodd"/><path d="M2760.69 1916.85 3055.61 1916.85" stroke="#000000" stroke-width="4.58333" stroke-linejoin="round" stroke-miterlimit="10" fill="none" fill-rule="evenodd"/><path d="M2760.69 2015.85 3055.61 2015.85" stroke="#000000" stroke-width="4.58333" stroke-linejoin="round" stroke-miterlimit="10" fill="none" fill-rule="evenodd"/><text fill="#FFFFFF" font-family="Century Schoolbook,Century Schoolbook_MSFontService,sans-serif" font-weight="400" font-size="55" transform="matrix(1 0 0 1 2796.19 1987)">1<tspan font-size="55" x="96.7793" y="0">2</tspan><tspan font-size="55" x="193.559" y="0">3</tspan></text><path d="M3150.1 1376.54 3246.88 1376.54 3246.88 1475.54 3150.1 1475.54Z" fill="#00AAFF" fill-rule="evenodd"/><path d="M3246.88 1376.54 3343.66 1376.54 3343.66 1475.54 3246.88 1475.54Z" fill="#FFFFFF" fill-rule="evenodd"/><path d="M3343.66 1376.54 3440.44 1376.54 3440.44 1475.54 3343.66 1475.54Z" fill="#FFFFFF" fill-rule="evenodd"/><path d="M3246.88 1374.24 3246.88 1477.83" stroke="#000000" stroke-width="4.58333" stroke-linejoin="round" stroke-miterlimit="10" fill="none" fill-rule="evenodd"/><path d="M3343.66 1374.24 3343.66 1477.83" stroke="#000000" stroke-width="4.58333" stroke-linejoin="round" stroke-miterlimit="10" fill="none" fill-rule="evenodd"/><path d="M3150.1 1374.24 3150.1 1477.83" stroke="#000000" stroke-width="4.58333" stroke-linejoin="round" stroke-miterlimit="10" fill="none" fill-rule="evenodd"/><path d="M3440.44 1374.24 3440.44 1477.83" stroke="#000000" stroke-width="4.58333" stroke-linejoin="round" stroke-miterlimit="10" fill="none" fill-rule="evenodd"/><path d="M3147.81 1376.54 3442.73 1376.54" stroke="#000000" stroke-width="4.58333" stroke-linejoin="round" stroke-miterlimit="10" fill="none" fill-rule="evenodd"/><path d="M3147.81 1475.54 3442.73 1475.54" stroke="#000000" stroke-width="4.58333" stroke-linejoin="round" stroke-miterlimit="10" fill="none" fill-rule="evenodd"/><text fill="#FFFFFF" font-family="Century Schoolbook,Century Schoolbook_MSFontService,sans-serif" font-weight="400" font-size="55" transform="matrix(1 0 0 1 3183.31 1447)">2<tspan fill="#000000" font-size="55" x="96.7796" y="0">1</tspan><tspan fill="#000000" font-size="55" x="193.559" y="0">3</tspan></text><path d="M3537.22 1374.52 3634 1374.52 3634 1473.52 3537.22 1473.52Z" fill="#00AAFF" fill-rule="evenodd"/><path d="M3634 1374.52 3730.78 1374.52 3730.78 1473.52 3634 1473.52Z" fill="#FFFFFF" fill-rule="evenodd"/><path d="M3730.78 1374.52 3827.56 1374.52 3827.56 1473.52 3730.78 1473.52Z" fill="#FFFFFF" fill-rule="evenodd"/><path d="M3634 1372.22 3634 1475.81" stroke="#000000" stroke-width="4.58333" stroke-linejoin="round" stroke-miterlimit="10" fill="none" fill-rule="evenodd"/><path d="M3730.78 1372.22 3730.78 1475.81" stroke="#000000" stroke-width="4.58333" stroke-linejoin="round" stroke-miterlimit="10" fill="none" fill-rule="evenodd"/><path d="M3537.22 1372.22 3537.22 1475.81" stroke="#000000" stroke-width="4.58333" stroke-linejoin="round" stroke-miterlimit="10" fill="none" fill-rule="evenodd"/><path d="M3827.56 1372.22 3827.56 1475.81" stroke="#000000" stroke-width="4.58333" stroke-linejoin="round" stroke-miterlimit="10" fill="none" fill-rule="evenodd"/><path d="M3534.93 1374.52 3829.85 1374.52" stroke="#000000" stroke-width="4.58333" stroke-linejoin="round" stroke-miterlimit="10" fill="none" fill-rule="evenodd"/><path d="M3534.93 1473.52 3829.85 1473.52" stroke="#000000" stroke-width="4.58333" stroke-linejoin="round" stroke-miterlimit="10" fill="none" fill-rule="evenodd"/><text fill="#FFFFFF" font-family="Century Schoolbook,Century Schoolbook_MSFontService,sans-serif" font-weight="400" font-size="55" transform="matrix(1 0 0 1 3570.43 1445)">3<tspan fill="#000000" font-size="55" x="96.7796" y="0">2</tspan><tspan fill="#000000" font-size="55" x="193.559" y="0">1</tspan></text><path d="M2809.37 1364.41 2810.32 1359.35 2811.8 1354.49 2813.71 1349.88 2816.08 1345.47 2818.77 1341.44 2821.92 1337.58 2829.04 1331.1 2833.09 1328.34 2837.37 1325.97 2841.85 1324.05 2846.51 1322.58 2851.38 1321.49 2856.37 1320.98 2861.42 1320.92 2866.59 1321.36 2871.01 1322.2 2875.32 1323.42 2883.35 1326.8 2890.58 1331.47 2896.91 1337.34 2902.3 1346.7 2900.31 1347.84 2895.01 1338.63 2895.22 1338.9 2889.1 1333.21 2889.25 1333.34 2882.19 1328.78 2882.37 1328.87 2874.49 1325.56 2874.63 1325.6 2870.44 1324.42 2870.54 1324.44 2866.23 1323.63 2866.34 1323.64 2861.28 1323.2 2861.39 1323.21 2856.45 1323.27 2856.55 1323.27 2851.68 1323.77 2851.81 1323.74 2847.06 1324.81 2847.16 1324.78 2842.59 1326.22 2842.7 1326.18 2838.33 1328.05 2838.43 1328 2834.24 1330.32 2834.33 1330.26 2830.4 1332.95 2830.52 1332.85 2823.52 1339.22 2823.64 1339.1 2820.58 1342.85 2820.64 1342.76 2818.02 1346.7 2818.07 1346.6 2815.76 1350.92 2815.81 1350.82 2813.93 1355.32 2813.97 1355.21 2812.53 1359.96 2812.56 1359.84 2811.63 1364.84ZM2908.42 1339.89 2908.94 1368.88 2891.13 1346Z" fill="#00AAFF"/><path d="M3295.95 1481.59 3295.25 1486.64 3294.1 1491.63 3292.5 1496.37 3290.39 1500.85 3287.9 1505.12 3285.07 1509.11 3278.33 1516.05 3274.47 1519 3270.31 1521.62 3265.96 1523.8 3261.36 1525.59 3256.63 1526.87 3251.64 1527.76 3246.58 1528.08 3241.42 1527.96 3236.74 1527.38 3232.2 1526.36 3227.85 1524.95 3223.67 1523.15 3215.96 1518.62 3209.12 1512.75 3202.68 1502.35 3204.63 1501.14 3210.97 1511.4 3210.75 1511.13 3217.37 1516.82 3217.2 1516.7 3224.77 1521.14 3224.64 1521.07 3228.7 1522.82 3228.6 1522.78 3232.85 1524.16 3232.75 1524.13 3237.19 1525.13 3237.08 1525.11 3241.64 1525.68 3241.53 1525.67 3246.59 1525.79 3246.49 1525.79 3251.43 1525.48 3251.3 1525.5 3256.17 1524.62 3256.08 1524.64 3260.7 1523.39 3260.58 1523.43 3265.08 1521.68 3264.99 1521.72 3269.24 1519.6 3269.14 1519.66 3273.2 1517.09 3273.11 1517.15 3276.86 1514.28 3276.74 1514.39 3283.37 1507.58 3283.25 1507.71 3286 1503.84 3285.95 1503.92 3288.38 1499.74 3288.34 1499.82 3290.4 1495.45 3290.35 1495.57 3291.91 1490.95 3291.88 1491.05 3293.01 1486.18 3292.99 1486.28 3293.68 1481.28ZM3196.52 1509.11 3196.06 1480.12 3213.82 1503.04Z" fill="#00AAFF"/><path d="M-0.755483 71.9381 0.568327 63.9322 2.8565 56.1142 6.0333 48.617 10.0365 41.5638 14.9201 34.9043 20.4317 28.6958 26.7036 22.9307 33.6 17.7426 41.0616 13.0633 49.0884 9.01833 57.4881 5.60789 66.3936 2.82888 75.6111 0.808604 85.2007-0.516272 94.9812-1.08417 105.012-0.831816 113.972 0.114612 122.617 1.62914 130.952 3.77602 138.973 6.49179 146.619 9.77755 153.825 13.5703 160.589 17.8687 166.853 22.5511 172.687 27.8078 177.619 35.2234 175.711 36.4926 170.858 29.1971 171.045 29.4137 165.358 24.2887 165.439 24.3553 159.251 19.7303 159.323 19.7796 152.635 15.5296 152.716 15.5765 145.591 11.8265 145.673 11.8652 138.11 8.61524 138.195 8.64781 130.258 5.96031 130.339 5.98462 122.089 3.85962 122.177 3.87865 113.615 2.37865 113.692 2.38949 104.817 1.45199 104.909 1.45797 94.9712 1.20797 95.0664 1.20641 85.3789 1.76891 85.4693 1.76005 75.9693 3.07255 76.0578 3.05676 66.9328 5.05676 67.0288 5.03131 58.2163 7.78131 58.306 7.74916 49.9935 11.1242 50.0781 11.0857 42.1407 15.0857 42.2338 15.0332 34.8588 19.6582 34.9388 19.6032 28.1263 24.7282 28.2129 24.6561 22.0254 30.3436 22.1069 30.2607 16.6694 36.3857 16.7365 36.3026 11.924 42.8651 11.9965 42.7531 8.05901 49.6906 8.11753 49.572 4.99253 56.947 5.0372 56.8219 2.7872 64.5094 2.81798 64.3744 1.50548 72.3119ZM183.097 27.8789 193.812 73.375 166.423 35.5Z" fill="#00AAFF" transform="matrix(1 -1.22465e-16 -1.22465e-16 -1 3364 1739)"/><path d="M3316.58 1561.31 3413.36 1561.31 3413.36 1660.31 3316.58 1660.31Z" fill="#D6EBEF" fill-rule="evenodd"/><path d="M3413.36 1561.31 3510.14 1561.31 3510.14 1660.31 3413.36 1660.31Z" fill="#FFFFFF" fill-rule="evenodd"/><path d="M3510.14 1561.31 3606.92 1561.31 3606.92 1660.31 3510.14 1660.31Z" fill="#FFFFFF" fill-rule="evenodd"/><path d="M3413.36 1559.02 3413.36 1662.6" stroke="#BFBFBF" stroke-width="4.58333" stroke-linejoin="round" stroke-miterlimit="10" fill="none" fill-rule="evenodd"/><path d="M3510.14 1559.02 3510.14 1662.6" stroke="#BFBFBF" stroke-width="4.58333" stroke-linejoin="round" stroke-miterlimit="10" fill="none" fill-rule="evenodd"/><path d="M3316.58 1559.02 3316.58 1662.6" stroke="#BFBFBF" stroke-width="4.58333" stroke-linejoin="round" stroke-miterlimit="10" fill="none" fill-rule="evenodd"/><path d="M3606.92 1559.02 3606.92 1662.6" stroke="#BFBFBF" stroke-width="4.58333" stroke-linejoin="round" stroke-miterlimit="10" fill="none" fill-rule="evenodd"/><path d="M3314.29 1561.31 3609.21 1561.31" stroke="#BFBFBF" stroke-width="4.58333" stroke-linejoin="round" stroke-miterlimit="10" fill="none" fill-rule="evenodd"/><path d="M3314.29 1660.31 3609.21 1660.31" stroke="#BFBFBF" stroke-width="4.58333" stroke-linejoin="round" stroke-miterlimit="10" fill="none" fill-rule="evenodd"/><text fill="#A6A6A6" font-family="Century Schoolbook,Century Schoolbook_MSFontService,sans-serif" font-weight="400" font-size="55" transform="matrix(1 0 0 1 3349.79 1632)">1<tspan font-size="55" x="96.7796" y="0">2</tspan><tspan font-size="55" x="193.559" y="0">3</tspan></text><path d="M3074 1412.73 3102 1412.73 3102 1394 3130 1428 3102 1462 3102 1443.27 3074 1443.27Z" fill="#00AAFF" fill-rule="evenodd"/><path d="M3364.27 1491 3364.27 1519 3383 1519 3349 1547 3315 1519 3333.73 1519 3333.73 1491Z" fill="#00AAFF" fill-rule="evenodd"/><path d="M3562.01 1547 3562.01 1519 3543 1519 3577.5 1491 3612 1519 3592.99 1519 3592.99 1547Z" fill="#00AAFF" fill-rule="evenodd"/><text font-family="SimSun,SimSun_MSFontService,sans-serif" font-weight="400" font-size="55" transform="matrix(1 0 0 1 2752.27 1271)">同层节点的两步交换操作<tspan font-size="55" x="-4.31177" y="342">固定路径</tspan><tspan font-size="55" x="243.188" y="342">1</tspan><tspan font-size="55" x="-0.000244141" y="612">固定路径</tspan><tspan font-size="55" x="247.5" y="612">1</tspan>-2<tspan font-family="Century Schoolbook,Century Schoolbook_MSFontService,sans-serif" font-size="55" x="411.867" y="313">1</tspan><tspan font-family="Century Schoolbook,Century Schoolbook_MSFontService,sans-serif" font-size="37" x="442.232" y="296">st</tspan><tspan font-size="55" x="411.867" y="382">选择</tspan><tspan font-family="Century Schoolbook,Century Schoolbook_MSFontService,sans-serif" font-size="55" x="817.953" y="526">2</tspan><tspan font-family="Century Schoolbook,Century Schoolbook_MSFontService,sans-serif" font-size="37" x="848.318" y="509">nd</tspan><tspan font-size="55" x="817.953" y="595">撤销选择</tspan></text></g></svg>