<svg width="478" height="573" xmlns="http://www.w3.org/2000/svg" xmlns:xlink="http://www.w3.org/1999/xlink" overflow="hidden"><defs><clipPath id="clip0"><rect x="94" y="142" width="478" height="573"/></clipPath></defs><g clip-path="url(#clip0)" transform="translate(-94 -142)"><rect x="104.5" y="187.5" width="371" height="91" stroke="#000000" stroke-width="1.33333" stroke-miterlimit="8" fill="none"/><text font-family="STKaiti,STKaiti_MSFontService,sans-serif" font-weight="400" font-size="24" transform="translate(109.398 211)">依据管线标准数据表对各类管点、<tspan x="2.46667" y="29">管线的</tspan><tspan font-family="Times New Roman,Times New Roman_MSFontService,sans-serif" x="74.4667" y="29">SHP</tspan>数据进行<tspan font-family="Times New Roman,Times New Roman_MSFontService,sans-serif" x="214.467" y="29">Merge</tspan>操作并<tspan x="21.58" y="58">将处理结果合</tspan>入一个<tspan font-family="Times New Roman,Times New Roman_MSFontService,sans-serif" x="237.58" y="58">SHP</tspan>文件</text><rect x="104.5" y="305.5" width="371" height="70" stroke="#000000" stroke-width="1.33333" stroke-miterlimit="8" fill="none"/><text font-family="STKaiti,STKaiti_MSFontService,sans-serif" font-weight="400" font-size="24" transform="translate(121.398 333)">基于某种规则对合成的管点文件<tspan x="12" y="29">中的重复管点进行筛选和剔除</tspan></text><rect x="104.5" y="402.5" width="371" height="100" stroke="#000000" stroke-width="1.33333" stroke-miterlimit="8" fill="none"/><text font-family="STKaiti,STKaiti_MSFontService,sans-serif" font-weight="400" font-size="24" transform="translate(123.398 431)">依据合成管线<tspan font-family="Times New Roman,Times New Roman_MSFontService,sans-serif" x="144" y="0">SHP</tspan>文件中的管线<tspan x="-2" y="29">数据以及管点数据计算每条管线</tspan><tspan x="46" y="58">的起始点号、终止点号</tspan></text><rect x="104.5" y="529.5" width="371" height="55" stroke="#000000" stroke-width="1.33333" stroke-miterlimit="8" fill="none"/><text font-family="STKaiti,STKaiti_MSFontService,sans-serif" font-weight="400" font-size="24" transform="translate(135.398 564)">对处理后的数据进行<tspan font-family="Times New Roman,Times New Roman_MSFontService,sans-serif" x="216" y="0">SHP</tspan>分块</text><rect x="104.5" y="611.5" width="371" height="90" stroke="#000000" stroke-width="1.33333" stroke-miterlimit="8" fill="none"/><text font-family="STKaiti,STKaiti_MSFontService,sans-serif" font-weight="400" font-size="24" transform="translate(118.065 635)">生成<tspan font-family="Times New Roman,Times New Roman_MSFontService,sans-serif" x="48" y="0">MDB</tspan>文件，依据该文件用三<tspan x="3.33333" y="29">维管线建模辅助工具进行处理并</tspan><tspan x="26.6667" y="58">用</tspan><tspan font-family="Times New Roman,Times New Roman_MSFontService,sans-serif" x="50.6667" y="58">3DMax</tspan><tspan x="124" y="58">进行</tspan>三维管线建模</text><path d="M446.636 187.5C444.488 178.278 442.341 169.056 448.876 167.62 455.411 166.184 476.509 178.112 485.844 178.885 495.179 179.658 497.646 173.504 502.5 169.804" stroke="#000000" stroke-width="1.33333" stroke-miterlimit="8" fill="none" fill-rule="evenodd"/><text font-family="Times New Roman,Times New Roman_MSFontService,sans-serif" font-weight="400" font-size="24" transform="translate(505.604 173)">S100</text><path d="M446.636 304.5C444.488 295.278 442.341 286.056 448.876 284.62 455.411 283.184 476.509 295.112 485.844 295.885 495.179 296.658 497.646 290.504 502.5 286.804" stroke="#000000" stroke-width="1.33333" stroke-miterlimit="8" fill="none" fill-rule="evenodd"/><text font-family="Times New Roman,Times New Roman_MSFontService,sans-serif" font-weight="400" font-size="24" transform="translate(505.604 290)">S200</text><path d="M446.636 402.5C444.488 393.739 442.341 384.978 448.876 383.614 455.411 382.25 476.509 393.582 485.844 394.316 495.179 395.05 497.646 389.204 502.5 385.689" stroke="#000000" stroke-width="1.33333" stroke-miterlimit="8" fill="none" fill-rule="evenodd"/><text font-family="Times New Roman,Times New Roman_MSFontService,sans-serif" font-weight="400" font-size="24" transform="translate(505.604 388)">S300</text><path d="M446.636 530.5C444.488 521.278 442.341 512.056 448.876 510.62 455.411 509.184 476.509 521.112 485.844 521.885 495.179 522.658 497.646 516.504 502.5 512.804" stroke="#000000" stroke-width="1.33333" stroke-miterlimit="8" fill="none" fill-rule="evenodd"/><text font-family="Times New Roman,Times New Roman_MSFontService,sans-serif" font-weight="400" font-size="24" transform="translate(505.604 516)">S400</text><path d="M446.636 611.5C444.488 602.278 442.341 593.056 448.876 591.62 455.411 590.184 476.509 602.112 485.844 602.885 495.179 603.658 497.646 597.504 502.5 593.804" stroke="#000000" stroke-width="1.33333" stroke-miterlimit="8" fill="none" fill-rule="evenodd"/><text font-family="Times New Roman,Times New Roman_MSFontService,sans-serif" font-weight="400" font-size="24" transform="translate(505.604 597)">S500</text><path d="M0.666667-2.59071e-06 0.666725 15.0163-0.666608 15.0163-0.666667 2.59071e-06ZM4.00005 13.6829 0.000104987 27.0163-3.99995 13.683Z" transform="matrix(-1 0 0 1 289.5 278.5)"/><path d="M290.167 375.5 290.167 390.516 288.833 390.516 288.833 375.5ZM293.5 389.183 289.5 402.516 285.5 389.183Z"/><path d="M0.666667-2.59071e-06 0.666725 15.0163-0.666608 15.0163-0.666667 2.59071e-06ZM4.00005 13.6829 0.000104987 27.0163-3.99995 13.683Z" transform="matrix(-1 0 0 1 289.5 502.5)"/><path d="M0.666667-2.59072e-06 0.666725 15.0162-0.666608 15.0162-0.666667 2.59072e-06ZM4.00005 13.6828 0.000104987 27.0162-3.99995 13.6828Z" transform="matrix(-1 0 0 1 289.5 584.5)"/></g></svg>