<?xml version="1.0" encoding="UTF-8" standalone="no"?>
<svg
   xmlns:dc="http://purl.org/dc/elements/1.1/"
   xmlns:cc="http://creativecommons.org/ns#"
   xmlns:rdf="http://www.w3.org/1999/02/22-rdf-syntax-ns#"
   xmlns:svg="http://www.w3.org/2000/svg"
   xmlns="http://www.w3.org/2000/svg"
   viewBox="0 0 394.98401 199.78293"
   height="199.78293"
   width="394.98401"
   xml:space="preserve"
   id="svg2"
   version="1.1"><metadata
     id="metadata8"><rdf:RDF><cc:Work
         rdf:about=""><dc:format>image/svg+xml</dc:format><dc:type
           rdf:resource="http://purl.org/dc/dcmitype/StillImage" /></cc:Work></rdf:RDF></metadata><defs
     id="defs6"><clipPath
       id="clipPath14"
       clipPathUnits="userSpaceOnUse"><path
         id="path12"
         d="M 0,0 H 595.22 V 842 H 0 Z" /></clipPath></defs><g
     clip-path="url(#clipPath14)"
     transform="matrix(0,1.3333333,1.3333333,0,-103.55733,-83.395733)"
     id="g10"><text
       id="text20"
       style="font-variant:normal;font-weight:bold;font-stretch:normal;font-size:11.03999996px;font-family:'Century Schoolbook';-inkscape-font-specification:CenturySchoolbook-Bold;writing-mode:lr-tb;fill:#000000;fill-opacity:1;fill-rule:nonzero;stroke:none"
       transform="matrix(0,1,1,0,79.44,84.8305)"><tspan
         id="tspan16"
         y="0"
         x="0 7.97088 12.05568 15.94176 22.278721 27.798719 34.48896 40.82592 47.16288 53.49984 59.01984 65.710083 72.047043 78.384003 105.82061 114.81821 121.56364 128.92732 133.01213 140.57452 156.46109 164.84045 169.7422 177.71309 186.09245 194.06332 199.58333 208.77965 217.97597 223.49597 230.85965 235.76141 243.12509">Tile_+027_+000RadiusPIXEL_ON_SIZE</tspan><tspan
         id="tspan18"
         y="-0.71980798"
         x="270.71957">F</tspan></text>
<text
       id="text24"
       style="font-variant:normal;font-weight:bold;font-stretch:normal;font-size:7.44000006px;font-family:'Century Schoolbook';-inkscape-font-specification:CenturySchoolbook-Bold;writing-mode:lr-tb;fill:#000000;fill-opacity:1;fill-rule:nonzero;stroke:none"
       transform="matrix(0,1,1,0,80.88,363.4705)"><tspan
         id="tspan22"
         y="0"
         x="0">p</tspan></text>
<text
       id="text42"
       style="font-variant:normal;font-weight:normal;font-stretch:normal;font-size:11.03999996px;font-family:'Century Schoolbook';-inkscape-font-specification:CenturySchoolbook;writing-mode:lr-tb;fill:#000000;fill-opacity:1;fill-rule:nonzero;stroke:none"
       transform="matrix(0,1,1,0,95.04,84.8305)"><tspan
         id="tspan26"
         y="0"
         x="0 7.3636799 13.50192 17.17824 23.5152 26.9928 32.512798 105.59429 111.73253 117.87077 120.93989 127.07812 133.21637 139.35461 210.70613 216.84438 222.9826 229.12085 232.18997 238.3282 244.46645 261.81802 267.95627 271.02539 277.1636">L1-plod65.9114685.3390.10</tspan><tspan
         id="tspan28"
         y="15.59952"
         x="0 4.9017601 10.42176 15.94176 105.59981 111.73804 117.87629 120.94541 127.08365 133.22189 139.36012 216.95146 223.08969 229.22794 232.29706 238.4353 244.57353 261.82465 267.96289 271.03201 277.17023">root66.689933.3452.00</tspan><tspan
         id="tspan30"
         y="31.199039"
         x="0 7.3636799 13.50192 105.5965 111.73473 117.87298 120.94209 127.08034 133.21858 139.35681 216.94815 223.08638 229.22462 232.29375 238.43199 244.57022 261.82132 267.95956 271.02869 277.16693">L1566.689966.6901.00</tspan><tspan
         id="tspan32"
         y="46.798561"
         x="0 7.3636799 13.50192 105.5965 111.73473 117.87298 120.94209 127.08034 133.21858 139.35681 210.70834 216.84657 222.98482 229.12306 232.19217 238.33041 244.46866 261.82022 267.95847 271.02759 277.16583">L1666.6899133.3800.50</tspan><tspan
         id="tspan34"
         y="62.398079"
         x="0 7.3636799 13.50192 105.5965 111.73473 117.87298 120.94209 127.08034 133.21858 139.35681 210.70834 216.84657 222.98482 229.12306 232.19217 238.33041 244.46866 261.82022 267.95847 271.02759 277.16583">L1766.6089266.4350.25</tspan><tspan
         id="tspan36"
         y="77.997597"
         x="0 7.3636799 13.50192 105.5965 111.73473 117.87298 120.94209 127.08034 133.21858 139.35681 210.70834 216.84657 222.98482 229.12306 232.19217 238.33041 244.46866 261.82022 267.95847 271.02759 277.16583">L1849.8076398.4610.12</tspan><tspan
         id="tspan38"
         y="93.597122"
         x="0 7.3636799 13.50192 105.5965 111.73473 117.87298 120.94209 127.08034 133.21858 139.35681 210.70834 216.84657 222.98482 229.12306 232.19217 238.33041 244.46866 261.82022 267.95847 271.02759 277.16583">L1926.2801420.4810.06</tspan><tspan
         id="tspan40"
         y="109.19664"
         x="0 7.3636799 13.50192 105.5965 111.73473 117.87298 120.94209 127.08034 133.21858 139.35681 210.70834 216.84657 222.98482 229.12306 232.19217 238.33041 244.46866 261.82022 267.95847 271.02759 277.16583">L2019.4506622.4190.03</tspan></text>
<path
       id="path44"
       style="fill:#000000;fill-opacity:1;fill-rule:nonzero;stroke:none"
       d="m 54,82.671 h 0.95999 v 288.24 H 54 Z" /><path
       id="path46"
       style="fill:#000000;fill-opacity:1;fill-rule:nonzero;stroke:none"
       d="m 66.48,82.671 h 1.92 v 288.24 h -1.92 z" /><path
       id="path48"
       style="fill:#000000;fill-opacity:1;fill-rule:nonzero;stroke:none"
       d="m 82.56,82.671 h 0.96001 v 288.24 H 82.56 Z" /><path
       id="path50"
       style="fill:#000000;fill-opacity:1;fill-rule:nonzero;stroke:none"
       d="m 206.88,82.671 h 1.92 v 288.24 h -1.92 z" /></g></svg>