<svg width="705" height="264" xmlns="http://www.w3.org/2000/svg" xmlns:xlink="http://www.w3.org/1999/xlink" overflow="hidden"><defs><filter id="fx0" x="-10%" y="-10%" width="120%" height="120%" filterUnits="userSpaceOnUse" primitiveUnits="userSpaceOnUse"><feComponentTransfer color-interpolation-filters="sRGB"><feFuncR type="discrete" tableValues="0 0"/><feFuncG type="discrete" tableValues="0 0"/><feFuncB type="discrete" tableValues="0 0"/><feFuncA type="linear" slope="0.4" intercept="0"/></feComponentTransfer><feGaussianBlur stdDeviation="1.77778 1.77778"/></filter><filter id="fx1" x="-10%" y="-10%" width="120%" height="120%" filterUnits="userSpaceOnUse" primitiveUnits="userSpaceOnUse"><feComponentTransfer color-interpolation-filters="sRGB"><feFuncR type="discrete" tableValues="0 0"/><feFuncG type="discrete" tableValues="0 0"/><feFuncB type="discrete" tableValues="0 0"/><feFuncA type="linear" slope="0.4" intercept="0"/></feComponentTransfer><feGaussianBlur stdDeviation="1.77778 1.77778"/></filter><filter id="fx2" x="-10%" y="-10%" width="120%" height="120%" filterUnits="userSpaceOnUse" primitiveUnits="userSpaceOnUse"><feComponentTransfer color-interpolation-filters="sRGB"><feFuncR type="discrete" tableValues="0 0"/><feFuncG type="discrete" tableValues="0 0"/><feFuncB type="discrete" tableValues="0 0"/><feFuncA type="linear" slope="0.4" intercept="0"/></feComponentTransfer><feGaussianBlur stdDeviation="1.77778 1.77778"/></filter><filter id="fx3" x="-10%" y="-10%" width="120%" height="120%" filterUnits="userSpaceOnUse" primitiveUnits="userSpaceOnUse"><feComponentTransfer color-interpolation-filters="sRGB"><feFuncR type="discrete" tableValues="0 0"/><feFuncG type="discrete" tableValues="0 0"/><feFuncB type="discrete" tableValues="0 0"/><feFuncA type="linear" slope="0.4" intercept="0"/></feComponentTransfer><feGaussianBlur stdDeviation="1.77778 1.77778"/></filter><filter id="fx4" x="-10%" y="-10%" width="120%" height="120%" filterUnits="userSpaceOnUse" primitiveUnits="userSpaceOnUse"><feComponentTransfer color-interpolation-filters="sRGB"><feFuncR type="discrete" tableValues="0 0"/><feFuncG type="discrete" tableValues="0 0"/><feFuncB type="discrete" tableValues="0 0"/><feFuncA type="linear" slope="0.4" intercept="0"/></feComponentTransfer><feGaussianBlur stdDeviation="1.77778 1.77778"/></filter><filter id="fx5" x="-10%" y="-10%" width="120%" height="120%" filterUnits="userSpaceOnUse" primitiveUnits="userSpaceOnUse"><feComponentTransfer color-interpolation-filters="sRGB"><feFuncR type="discrete" tableValues="0 0"/><feFuncG type="discrete" tableValues="0 0"/><feFuncB type="discrete" tableValues="0 0"/><feFuncA type="linear" slope="0.4" intercept="0"/></feComponentTransfer><feGaussianBlur stdDeviation="1.77778 1.77778"/></filter><filter id="fx6" x="-10%" y="-10%" width="120%" height="120%" filterUnits="userSpaceOnUse" primitiveUnits="userSpaceOnUse"><feComponentTransfer color-interpolation-filters="sRGB"><feFuncR type="discrete" tableValues="0 0"/><feFuncG type="discrete" tableValues="0 0"/><feFuncB type="discrete" tableValues="0 0"/><feFuncA type="linear" slope="0.4" intercept="0"/></feComponentTransfer><feGaussianBlur stdDeviation="1.77778 1.77778"/></filter><filter id="fx7" x="-10%" y="-10%" width="120%" height="120%" filterUnits="userSpaceOnUse" primitiveUnits="userSpaceOnUse"><feComponentTransfer color-interpolation-filters="sRGB"><feFuncR type="discrete" tableValues="0 0"/><feFuncG type="discrete" tableValues="0 0"/><feFuncB type="discrete" tableValues="0 0"/><feFuncA type="linear" slope="0.4" intercept="0"/></feComponentTransfer><feGaussianBlur stdDeviation="1.77778 1.77778"/></filter><clipPath id="clip8"><rect x="115" y="231" width="705" height="264"/></clipPath><clipPath id="clip9"><path d="M136.531 374.5C127.125 374.5 119.5 382.125 119.5 391.531L119.5 415.469C119.5 424.875 127.125 432.5 136.531 432.5L245.469 432.5C254.875 432.5 262.5 424.875 262.5 415.469L262.5 391.531C262.5 382.125 254.875 374.5 245.469 374.5ZM115 231 820 231 820 495 115 495Z" fill-rule="evenodd" clip-rule="evenodd"/></clipPath><clipPath id="clip10"><rect x="-2" y="-2" width="161" height="75"/></clipPath><clipPath id="clip11"><rect x="0" y="0" width="158" height="73"/></clipPath><clipPath id="clip12"><rect x="15" y="13" width="87" height="60"/></clipPath><clipPath id="clip13"><rect x="0" y="0" width="115" height="88"/></clipPath><clipPath id="clip14"><path d="M594.326 261.5C586.69 261.5 580.5 267.69 580.5 275.326L580.5 445.674C580.5 453.31 586.69 459.5 594.326 459.5L796.674 459.5C804.31 459.5 810.5 453.31 810.5 445.674L810.5 275.326C810.5 267.69 804.31 261.5 796.674 261.5ZM115 231 820 231 820 495 115 495Z" fill-rule="evenodd" clip-rule="evenodd"/></clipPath><clipPath id="clip15"><rect x="-2" y="-2" width="248" height="215"/></clipPath><clipPath id="clip16"><rect x="0" y="0" width="245" height="213"/></clipPath><clipPath id="clip17"><rect x="15" y="15" width="105" height="60"/></clipPath><clipPath id="clip18"><rect x="0" y="0" width="134" height="89"/></clipPath><clipPath id="clip19"><path d="M324.531 374.5C315.125 374.5 307.5 382.125 307.5 391.531L307.5 415.469C307.5 424.875 315.125 432.5 324.531 432.5L432.469 432.5C441.875 432.5 449.5 424.875 449.5 415.469L449.5 391.531C449.5 382.125 441.875 374.5 432.469 374.5ZM115 231 820 231 820 495 115 495Z" fill-rule="evenodd" clip-rule="evenodd"/></clipPath><clipPath id="clip20"><rect x="-2" y="-2" width="159" height="75"/></clipPath><clipPath id="clip21"><rect x="0" y="0" width="157" height="73"/></clipPath><clipPath id="clip22"><rect x="15" y="13" width="120" height="60"/></clipPath><clipPath id="clip23"><rect x="0" y="0" width="150" height="88"/></clipPath><clipPath id="clip24"><path d="M232.836 239.5C225.471 239.5 219.5 245.471 219.5 252.836L219.5 292.164C219.5 299.529 225.471 305.5 232.836 305.5L398.164 305.5C405.529 305.5 411.5 299.529 411.5 292.164L411.5 252.836C411.5 245.471 405.529 239.5 398.164 239.5ZM115 231 820 231 820 495 115 495Z" fill-rule="evenodd" clip-rule="evenodd"/></clipPath><clipPath id="clip25"><rect x="-2" y="-2" width="209" height="83"/></clipPath><clipPath id="clip26"><rect x="0" y="0" width="207" height="81"/></clipPath><clipPath id="clip27"><rect x="15" y="13" width="58" height="62"/></clipPath><clipPath id="clip28"><rect x="0" y="0" width="87" height="89"/></clipPath><clipPath id="clip29"><rect x="497" y="389" width="30" height="29"/></clipPath><clipPath id="clip30"><rect x="497" y="389" width="30" height="29"/></clipPath><clipPath id="clip31"><rect x="497" y="389" width="30" height="29"/></clipPath></defs><g clip-path="url(#clip8)" transform="translate(-115 -231)"><g clip-path="url(#clip9)"><g clip-path="url(#clip10)" filter="url(#fx0)" transform="translate(115 370)"><g clip-path="url(#clip11)"><path d="M7.32848 24.3597C7.32848 14.9536 14.9536 7.32849 24.3596 7.32849L133.297 7.32849C142.703 7.32849 150.328 14.9536 150.328 24.3597L150.328 48.2973C150.328 57.7034 142.703 65.3285 133.297 65.3285L24.3596 65.3285C14.9536 65.3285 7.32848 57.7034 7.32848 48.2973Z" stroke="#2B6A77" stroke-miterlimit="8" fill="#3E92A3" fill-rule="evenodd"/></g></g><g clip-path="url(#clip12)" filter="url(#fx1)" transform="translate(136 365)"><g clip-path="url(#clip13)"><path d="M10.1602-4.25391C10.1602-3.54297 10.0293-2.91016 9.76758-2.35547 9.50586-1.80078 9.14258-1.33008 8.67773-0.943359 8.21289-0.556641 7.66602-0.265625 7.03711-0.0703125 6.4082 0.125 5.73047 0.222656 5.00391 0.222656 4.49609 0.222656 4.02539 0.179687 3.5918 0.09375 3.1582 0.0078125 2.77148-0.0976562 2.43164-0.222656 2.0918-0.347656 1.80664-0.476562 1.57617-0.609375 1.3457-0.742187 1.18555-0.855469 1.0957-0.949219 1.00586-1.04297 0.939453-1.16211 0.896484-1.30664 0.853516-1.45117 0.832031-1.64453 0.832031-1.88672 0.832031-2.05859 0.839844-2.20117 0.855469-2.31445 0.871094-2.42773 0.894531-2.51953 0.925781-2.58984 0.957031-2.66016 0.996094-2.70898 1.04297-2.73633 1.08984-2.76367 1.14453-2.77734 1.20703-2.77734 1.31641-2.77734 1.4707-2.71094 1.66992-2.57812 1.86914-2.44531 2.125-2.30078 2.4375-2.14453 2.75-1.98828 3.12695-1.8418 3.56836-1.70508 4.00977-1.56836 4.51953-1.5 5.09766-1.5 5.53516-1.5 5.93555-1.55859 6.29883-1.67578 6.66211-1.79297 6.97461-1.95898 7.23633-2.17383 7.49805-2.38867 7.69922-2.65234 7.83984-2.96484 7.98047-3.27734 8.05078-3.63281 8.05078-4.03125 8.05078-4.46094 7.95312-4.82812 7.75781-5.13281 7.5625-5.4375 7.30469-5.70508 6.98438-5.93555 6.66406-6.16602 6.29883-6.37695 5.88867-6.56836 5.47852-6.75977 5.05859-6.95508 4.62891-7.1543 4.19922-7.35352 3.78125-7.57422 3.375-7.81641 2.96875-8.05859 2.60547-8.34375 2.28516-8.67188 1.96484-9 1.70508-9.38477 1.50586-9.82617 1.30664-10.2676 1.20703-10.7969 1.20703-11.4141 1.20703-12.0469 1.32227-12.6113 1.55273-13.1074 1.7832-13.6035 2.10352-14.0195 2.51367-14.3555 2.92383-14.6914 3.41211-14.9473 3.97852-15.123 4.54492-15.2988 5.15625-15.3867 5.8125-15.3867 6.14844-15.3867 6.48633-15.3574 6.82617-15.2988 7.16602-15.2402 7.48633-15.1621 7.78711-15.0645 8.08789-14.9668 8.35547-14.8574 8.58984-14.7363 8.82422-14.6152 8.97852-14.5176 9.05273-14.4434 9.12695-14.3691 9.17578-14.3105 9.19922-14.2676 9.22266-14.2246 9.24219-14.1699 9.25781-14.1035 9.27344-14.0371 9.28516-13.957 9.29297-13.8633 9.30078-13.7695 9.30469-13.6484 9.30469-13.5 9.30469-13.3594 9.29883-13.2344 9.28711-13.125 9.27539-13.0156 9.25781-12.9238 9.23438-12.8496 9.21094-12.7754 9.17773-12.7207 9.13477-12.6855 9.0918-12.6504 9.04297-12.6328 8.98828-12.6328 8.90234-12.6328 8.76758-12.6875 8.58398-12.7969 8.40039-12.9062 8.17578-13.0293 7.91016-13.166 7.64453-13.3027 7.33008-13.4277 6.9668-13.541 6.60352-13.6543 6.19531-13.7109 5.74219-13.7109 5.32031-13.7109 4.95312-13.6543 4.64062-13.541 4.32812-13.4277 4.07031-13.2773 3.86719-13.0898 3.66406-12.9023 3.51172-12.6797 3.41016-12.4219 3.30859-12.1641 3.25781-11.8906 3.25781-11.6016 3.25781-11.1797 3.35547-10.8164 3.55078-10.5117 3.74609-10.207 4.00586-9.9375 4.33008-9.70312 4.6543-9.46875 5.02344-9.25391 5.4375-9.05859 5.85156-8.86328 6.27344-8.66602 6.70312-8.4668 7.13281-8.26758 7.55469-8.04883 7.96875-7.81055 8.38281-7.57227 8.75195-7.29102 9.07617-6.9668 9.40039-6.64258 9.66211-6.25977 9.86133-5.81836 10.0605-5.37695 10.1602-4.85547 10.1602-4.25391ZM21.8281-0.292969C21.8281-0.230469 21.8145-0.177734 21.7871-0.134766 21.7598-0.0917969 21.7109-0.0546875 21.6406-0.0234375 21.5703 0.0078125 21.4785 0.03125 21.3652 0.046875 21.252 0.0625 21.1133 0.0703125 20.9492 0.0703125 20.7695 0.0703125 20.623 0.0625 20.5098 0.046875 20.3965 0.03125 20.3066 0.0078125 20.2402-0.0234375 20.1738-0.0546875 20.1289-0.0917969 20.1055-0.134766 20.082-0.177734 20.0703-0.230469 20.0703-0.292969L20.0703-1.6875C19.4688-1.02344 18.875-0.539062 18.2891-0.234375 17.7031 0.0703125 17.1094 0.222656 16.5078 0.222656 15.8047 0.222656 15.2129 0.105469 14.7324-0.128906 14.252-0.363281 13.8633-0.681641 13.5664-1.08398 13.2695-1.48633 13.0566-1.95508 12.9277-2.49023 12.7988-3.02539 12.7344-3.67578 12.7344-4.44141L12.7344-10.8398C12.7344-10.9023 12.748-10.9551 12.7754-10.998 12.8027-11.041 12.8555-11.0801 12.9336-11.1152 13.0117-11.1504 13.1133-11.1738 13.2383-11.1855 13.3633-11.1973 13.5195-11.2031 13.707-11.2031 13.8945-11.2031 14.0508-11.1973 14.1758-11.1855 14.3008-11.1738 14.4004-11.1504 14.4746-11.1152 14.5488-11.0801 14.6016-11.041 14.6328-10.998 14.6641-10.9551 14.6797-10.9023 14.6797-10.8398L14.6797-4.69922C14.6797-4.08203 14.7246-3.58789 14.8145-3.2168 14.9043-2.8457 15.041-2.5293 15.2246-2.26758 15.4082-2.00586 15.6406-1.80273 15.9219-1.6582 16.2031-1.51367 16.5312-1.44141 16.9062-1.44141 17.3906-1.44141 17.873-1.61328 18.3535-1.95703 18.834-2.30078 19.3438-2.80469 19.8828-3.46875L19.8828-10.8398C19.8828-10.9023 19.8965-10.9551 19.9238-10.998 19.9512-11.041 20.0039-11.0801 20.082-11.1152 20.1602-11.1504 20.2598-11.1738 20.3809-11.1855 20.502-11.1973 20.6602-11.2031 20.8555-11.2031 21.043-11.2031 21.1992-11.1973 21.3242-11.1855 21.4492-11.1738 21.5469-11.1504 21.6172-11.1152 21.6875-11.0801 21.7402-11.041 21.7754-10.998 21.8105-10.9551 21.8281-10.9023 21.8281-10.8398ZM35.1628-5.70703C35.1628-4.79297 35.0631-3.9707 34.8639-3.24023 34.6647-2.50977 34.3717-1.88672 33.985-1.37109 33.5983-0.855469 33.1237-0.460937 32.5612-0.1875 31.9987 0.0859375 31.3542 0.222656 30.6276 0.222656 30.2917 0.222656 29.9811 0.189453 29.696 0.123047 29.4108 0.0566406 29.1315-0.0507812 28.8581-0.199219 28.5846-0.347656 28.3112-0.535156 28.0378-0.761719 27.7643-0.988281 27.4753-1.26172 27.1706-1.58203L27.1706-0.292969C27.1706-0.230469 27.1549-0.175781 27.1237-0.128906 27.0924-0.0820312 27.0417-0.0449219 26.9714-0.0175781 26.901 0.00976562 26.8132 0.03125 26.7077 0.046875 26.6022 0.0625 26.4674 0.0703125 26.3034 0.0703125 26.1471 0.0703125 26.0143 0.0625 25.9049 0.046875 25.7956 0.03125 25.7057 0.00976562 25.6354-0.0175781 25.5651-0.0449219 25.5182-0.0820312 25.4948-0.128906 25.4714-0.175781 25.4596-0.230469 25.4596-0.292969L25.4596-15.9492C25.4596-16.0117 25.4733-16.0664 25.5007-16.1133 25.528-16.1602 25.5788-16.1992 25.653-16.2305 25.7272-16.2617 25.8268-16.2852 25.9518-16.3008 26.0768-16.3164 26.2331-16.3242 26.4206-16.3242 26.6159-16.3242 26.776-16.3164 26.901-16.3008 27.026-16.2852 27.1237-16.2617 27.194-16.2305 27.2643-16.1992 27.3151-16.1602 27.3464-16.1133 27.3776-16.0664 27.3932-16.0117 27.3932-15.9492L27.3932-9.63281C27.7057-9.95312 28.0085-10.2227 28.3014-10.4414 28.5944-10.6602 28.8815-10.8379 29.1628-10.9746 29.444-11.1113 29.7253-11.2109 30.0065-11.2734 30.2878-11.3359 30.5846-11.3672 30.8971-11.3672 31.6628-11.3672 32.3171-11.2148 32.86-10.9102 33.403-10.6055 33.8444-10.1973 34.1842-9.68555 34.5241-9.17383 34.7721-8.57422 34.9284-7.88672 35.0846-7.19922 35.1628-6.47266 35.1628-5.70703ZM33.1589-5.48438C33.1589-6.02344 33.1176-6.54687 33.0351-7.05469 32.9526-7.5625 32.8091-8.01172 32.6047-8.40234 32.4003-8.79297 32.1291-9.10742 31.7911-9.3457 31.4532-9.58398 31.0326-9.70312 30.5295-9.70312 30.278-9.70312 30.0304-9.66797 29.7868-9.59766 29.5431-9.52734 29.2955-9.41016 29.0439-9.24609 28.7923-9.08203 28.531-8.87109 28.2598-8.61328 27.9886-8.35547 27.6997-8.03125 27.3932-7.64062L27.3932-3.43359C27.9278-2.78516 28.4387-2.29102 28.926-1.95117 29.4133-1.61133 29.9203-1.44141 30.4471-1.44141 30.9344-1.44141 31.351-1.55859 31.6968-1.79297 32.0427-2.02734 32.3237-2.33789 32.5399-2.72461 32.756-3.11133 32.9132-3.54492 33.0115-4.02539 33.1097-4.50586 33.1589-4.99219 33.1589-5.48438ZM40.2826 0.175781C40.2826 0.957031 40.224 1.58789 40.1068 2.06836 39.9896 2.54883 39.806 2.95312 39.556 3.28125 39.306 3.60937 38.9857 3.85742 38.5951 4.02539 38.2044 4.19336 37.7318 4.27734 37.1771 4.27734 36.9271 4.27734 36.7142 4.26172 36.5384 4.23047 36.3626 4.19922 36.2279 4.16406 36.1341 4.125 36.0404 4.08594 35.9759 4.04102 35.9408 3.99023 35.9056 3.93945 35.8802 3.88086 35.8646 3.81445 35.849 3.74805 35.8392 3.67969 35.8353 3.60938 35.8314 3.53906 35.8294 3.45312 35.8294 3.35156 35.8294 3.21094 35.8353 3.08984 35.847 2.98828 35.8587 2.88672 35.8783 2.80469 35.9056 2.74219 35.9329 2.67969 35.9642 2.63477 35.9994 2.60742 36.0345 2.58008 36.0794 2.56641 36.1341 2.56641 36.181 2.56641 36.2728 2.57617 36.4095 2.5957 36.5462 2.61523 36.7044 2.625 36.8841 2.625 37.1419 2.625 37.3626 2.58594 37.5462 2.50781 37.7298 2.42969 37.8802 2.30273 37.9974 2.12695 38.1146 1.95117 38.2005 1.72266 38.2552 1.44141 38.3099 1.16016 38.3372 0.734375 38.3372 0.164062L38.3372-10.8398C38.3372-10.8945 38.3529-10.9453 38.3841-10.9922 38.4154-11.0391 38.4681-11.0781 38.5423-11.1094 38.6165-11.1406 38.7161-11.1641 38.8411-11.1797 38.9661-11.1953 39.1224-11.2031 39.3099-11.2031 39.4974-11.2031 39.6536-11.1953 39.7786-11.1797 39.9036-11.1641 40.0033-11.1406 40.0775-11.1094 40.1517-11.0781 40.2044-11.0391 40.2357-10.9922 40.2669-10.9453 40.2826-10.8945 40.2826-10.8398ZM40.5052-14.4023C40.5052-13.9492 40.4193-13.6406 40.2474-13.4766 40.0755-13.3125 39.7591-13.2305 39.2982-13.2305 38.8451-13.2305 38.5365-13.3105 38.3724-13.4707 38.2083-13.6309 38.1263-13.9336 38.1263-14.3789 38.1263-14.832 38.2103-15.1406 38.3783-15.3047 38.5462-15.4687 38.8607-15.5508 39.3216-15.5508 39.7826-15.5508 40.0951-15.4707 40.2591-15.3105 40.4232-15.1504 40.5052-14.8477 40.5052-14.4023ZM52.793-6.02344C52.793-5.71875 52.7165-5.50195 52.5634-5.37305 52.4104-5.24414 52.2358-5.17969 52.0395-5.17969L45.0938-5.17969C45.0938-4.59375 45.1526-4.06641 45.2704-3.59766 45.3881-3.12891 45.5844-2.72656 45.8591-2.39062 46.1339-2.05469 46.4911-1.79687 46.9308-1.61719 47.3704-1.4375 47.9081-1.34766 48.544-1.34766 49.0464-1.34766 49.4939-1.38867 49.8864-1.4707 50.279-1.55273 50.6185-1.64453 50.9051-1.74609 51.1916-1.84766 51.4272-1.93945 51.6117-2.02148 51.7962-2.10352 51.9355-2.14453 52.0298-2.14453 52.0847-2.14453 52.1338-2.13086 52.1769-2.10352 52.2201-2.07617 52.2534-2.03516 52.277-1.98047 52.3005-1.92578 52.3182-1.84961 52.33-1.75195 52.3418-1.6543 52.3477-1.53516 52.3477-1.39453 52.3477-1.29297 52.3438-1.20508 52.3359-1.13086 52.3281-1.05664 52.3184-0.990234 52.3066-0.931641 52.2949-0.873047 52.2754-0.820312 52.2481-0.773438 52.2207-0.726562 52.1855-0.681641 52.1426-0.638672 52.0996-0.595703 51.9727-0.525391 51.7617-0.427734 51.5508-0.330078 51.2773-0.234375 50.9414-0.140625 50.6055-0.046875 50.2168 0.0371094 49.7754 0.111328 49.334 0.185547 48.8633 0.222656 48.3633 0.222656 47.4961 0.222656 46.7363 0.101562 46.084-0.140625 45.4316-0.382812 44.8828-0.742188 44.4375-1.21875 43.9922-1.69531 43.6562-2.29297 43.4297-3.01172 43.2031-3.73047 43.0898-4.56641 43.0898-5.51953 43.0898-6.42578 43.207-7.24023 43.4414-7.96289 43.6758-8.68555 44.0137-9.29883 44.4551-9.80273 44.8965-10.3066 45.4297-10.6934 46.0547-10.9629 46.6797-11.2324 47.3789-11.3672 48.1523-11.3672 48.9805-11.3672 49.6855-11.2344 50.2676-10.9688 50.8496-10.7031 51.3281-10.3457 51.7031-9.89648 52.0781-9.44727 52.3535-8.91992 52.5293-8.31445 52.7051-7.70898 52.793-7.0625 52.793-6.375ZM50.8477-6.59766C50.8711-7.61328 50.6451-8.41016 50.1696-8.98828 49.6942-9.56641 48.9887-9.85547 48.0533-9.85547 47.5738-9.85547 47.1533-9.76562 46.7917-9.58594 46.4301-9.40625 46.1275-9.16797 45.8838-8.87109 45.64-8.57422 45.4514-8.22852 45.3178-7.83398 45.1842-7.43945 45.1095-7.02734 45.0938-6.59766ZM63.375-1.89844C63.375-1.76562 63.3711-1.65039 63.3633-1.55273 63.3555-1.45508 63.3418-1.37305 63.3223-1.30664 63.3027-1.24023 63.2793-1.18164 63.252-1.13086 63.2246-1.08008 63.1621-1.00586 63.0645-0.908203 62.9668-0.810547 62.8008-0.689453 62.5664-0.544922 62.332-0.400391 62.0684-0.271484 61.7754-0.158203 61.4824-0.0449219 61.1641 0.046875 60.8203 0.117188 60.4766 0.1875 60.1211 0.222656 59.7539 0.222656 58.9961 0.222656 58.3242 0.0976562 57.7383-0.152344 57.1523-0.402344 56.6621-0.767578 56.2676-1.24805 55.873-1.72852 55.5723-2.31836 55.3652-3.01758 55.1582-3.7168 55.0547-4.52344 55.0547-5.4375 55.0547-6.47656 55.1816-7.36914 55.4356-8.11523 55.6895-8.86133 56.0371-9.47266 56.4785-9.94922 56.9199-10.4258 57.4395-10.7793 58.0371-11.0098 58.6348-11.2402 59.2812-11.3555 59.9766-11.3555 60.3125-11.3555 60.6387-11.3242 60.9551-11.2617 61.2715-11.1992 61.5625-11.1172 61.8281-11.0156 62.0938-10.9141 62.3301-10.7969 62.5371-10.6641 62.7441-10.5312 62.8945-10.418 62.9883-10.3242 63.082-10.2305 63.1465-10.1562 63.1816-10.1016 63.2168-10.0469 63.2461-9.98242 63.2695-9.9082 63.293-9.83398 63.3086-9.75 63.3164-9.65625 63.3242-9.5625 63.3281-9.44531 63.3281-9.30469 63.3281-9 63.293-8.78711 63.2227-8.66602 63.1523-8.54492 63.0664-8.48438 62.9648-8.48438 62.8477-8.48438 62.7129-8.54883 62.5606-8.67773 62.4082-8.80664 62.2148-8.94922 61.9805-9.10547 61.7461-9.26172 61.4629-9.4043 61.1309-9.5332 60.7988-9.66211 60.4062-9.72656 59.9531-9.72656 59.0234-9.72656 58.3105-9.36914 57.8145-8.6543 57.3184-7.93945 57.0703-6.90234 57.0703-5.54297 57.0703-4.86328 57.1348-4.26758 57.2637-3.75586 57.3926-3.24414 57.582-2.81641 57.832-2.47266 58.082-2.12891 58.3887-1.87305 58.752-1.70508 59.1152-1.53711 59.5312-1.45312 60-1.45312 60.4453-1.45312 60.8359-1.52344 61.1719-1.66406 61.5078-1.80469 61.7988-1.95898 62.0449-2.12695 62.291-2.29492 62.498-2.44727 62.666-2.58398 62.834-2.7207 62.9648-2.78906 63.0586-2.78906 63.1133-2.78906 63.1602-2.77344 63.1992-2.74219 63.2383-2.71094 63.2715-2.6582 63.2988-2.58398 63.3262-2.50977 63.3457-2.41602 63.3574-2.30273 63.3691-2.18945 63.375-2.05469 63.375-1.89844ZM71.444-1.06641C71.444-0.839844 71.4284-0.660156 71.3971-0.527344 71.3659-0.394531 71.319-0.296875 71.2565-0.234375 71.194-0.171875 71.1003-0.113281 70.9753-0.0585938 70.8503-0.00390625 70.7077 0.0410156 70.5475 0.0761719 70.3874 0.111328 70.2175 0.140625 70.0378 0.164062 69.8581 0.1875 69.6784 0.199219 69.4987 0.199219 68.9518 0.199219 68.4831 0.126953 68.0925-0.0175781 67.7018-0.162109 67.3815-0.380859 67.1315-0.673828 66.8815-0.966797 66.6999-1.33789 66.5866-1.78711 66.4733-2.23633 66.4167-2.76562 66.4167-3.375L66.4167-9.53906 64.9401-9.53906C64.8229-9.53906 64.7292-9.60156 64.6589-9.72656 64.5885-9.85156 64.5534-10.0547 64.5534-10.3359 64.5534-10.4844 64.5632-10.6094 64.5827-10.7109 64.6022-10.8125 64.6276-10.8965 64.6589-10.9629 64.6901-11.0293 64.7311-11.0762 64.7819-11.1035 64.8327-11.1309 64.8893-11.1445 64.9518-11.1445L66.4167-11.1445 66.4167-13.6523C66.4167-13.707 66.4303-13.7578 66.4577-13.8047 66.485-13.8516 66.5358-13.8926 66.61-13.9277 66.6842-13.9629 66.7839-13.9883 66.9089-14.0039 67.0339-14.0195 67.1901-14.0273 67.3776-14.0273 67.5729-14.0273 67.7331-14.0195 67.8581-14.0039 67.9831-13.9883 68.0807-13.9629 68.151-13.9277 68.2214-13.8926 68.2721-13.8516 68.3034-13.8047 68.3346-13.7578 68.3503-13.707 68.3503-13.6523L68.3503-11.1445 71.0573-11.1445C71.1198-11.1445 71.1745-11.1309 71.2214-11.1035 71.2682-11.0762 71.3092-11.0293 71.3444-10.9629 71.3796-10.8965 71.405-10.8125 71.4206-10.7109 71.4362-10.6094 71.444-10.4844 71.444-10.3359 71.444-10.0547 71.4089-9.85156 71.3385-9.72656 71.2682-9.60156 71.1745-9.53906 71.0573-9.53906L68.3503-9.53906 68.3503-3.65625C68.3503-2.92969 68.4577-2.38086 68.6725-2.00977 68.8874-1.63867 69.2721-1.45312 69.8268-1.45312 70.0065-1.45312 70.1667-1.4707 70.3073-1.50586 70.4479-1.54102 70.5729-1.57812 70.6823-1.61719 70.7917-1.65625 70.8854-1.69336 70.9635-1.72852 71.0417-1.76367 71.112-1.78125 71.1745-1.78125 71.2135-1.78125 71.2507-1.77148 71.2858-1.75195 71.321-1.73242 71.3483-1.69531 71.3678-1.64062 71.3874-1.58594 71.405-1.51172 71.4206-1.41797 71.4362-1.32422 71.444-1.20703 71.444-1.06641Z" fill="#FFFFFF" transform="translate(21.2821 36)"/><path d="M0.451172-0.789551 8.94141-0.789551 8.94141-4.62451 2.625-4.62451 2.625-7.29053 8.94141-7.29053 8.94141-11.0024 1.64062-11.0024 1.64062-13.7095 9.5874-13.7095C9.12939-14.6118 8.61328-15.5005 8.03906-16.3755L10.8486-17.647C11.4639-16.7446 12.0791-15.7397 12.6943-14.6323L10.7153-13.7095 19.4414-13.7095 19.4414-11.0024 12.0381-11.0024 12.0381-7.29053 18.498-7.29053 18.498-4.62451 12.0381-4.62451 12.0381-0.789551 20.5488-0.789551 20.5488 1.9585 0.451172 1.9585ZM24.9427-17.4214 27.5882-16.7446C27.1302-14.9946 26.6312-13.3643 26.0911-11.8535L26.0911-3.51709C28.2786-5.80029 29.9022-8.47314 30.9618-11.5356L27.2601-11.5356 27.2601-14.0991 32.6126-14.0991 32.6126-17.4214 35.3197-17.4214 35.3197-14.0991 41.2259-14.0991 41.2259-11.5356 36.8065-11.5356C37.8455-8.63037 39.5921-6.06006 42.0462-3.82471 41.4583-2.93604 40.8636-1.96533 40.262-0.912598 39.7152-1.47998 39.2025-2.10889 38.724-2.79932L38.724-0.687012 35.3197-0.687012 35.3197 2.7583 32.6126 2.7583 32.6126-0.687012 29.3109-0.687012 29.3109-2.88135C28.7845-2.09521 28.2103-1.34326 27.5882-0.625488 27.1849-1.28174 26.6859-2.05762 26.0911-2.95312L26.0911 2.71729 23.6302 2.71729 23.6302-6.30615C23.1927-5.52002 22.7415-4.78857 22.2767-4.11182 22.1126-5.35596 21.8939-6.64795 21.6204-7.98779 22.7005-10.0112 23.8079-13.1558 24.9427-17.4214ZM29.5672-3.271 32.6126-3.271 32.6126-10.377C31.9564-7.77246 30.9412-5.40381 29.5672-3.271ZM35.3197-10.2642 35.3197-3.271 38.4061-3.271C37.1619-5.17139 36.1331-7.50244 35.3197-10.2642Z" fill="#FFFFFF" transform="translate(36.0287 63)"/></g></g></g><path d="M119.5 391.531C119.5 382.125 127.125 374.5 136.531 374.5L245.469 374.5C254.875 374.5 262.5 382.125 262.5 391.531L262.5 415.469C262.5 424.875 254.875 432.5 245.469 432.5L136.531 432.5C127.125 432.5 119.5 424.875 119.5 415.469Z" stroke="#2B6A77" stroke-width="1.33333" stroke-miterlimit="8" fill="#3E92A3" fill-rule="evenodd"/><text fill="#FFFFFF" font-family="Calibri,Calibri_MSFontService,sans-serif" font-weight="400" font-size="24" transform="translate(154.454 398)">Subject<tspan font-family="Microsoft YaHei,Microsoft YaHei_MSFontService,sans-serif" font-weight="700" font-size="21" x="14.7467" y="27">主体</tspan></text><g clip-path="url(#clip14)"><g clip-path="url(#clip15)" filter="url(#fx2)" transform="translate(576 257)"><g clip-path="url(#clip16)"><path d="M7.32849 21.1549C7.32849 13.5188 13.5188 7.32849 21.1549 7.32849L223.502 7.32849C231.138 7.32849 237.328 13.5188 237.328 21.1549L237.328 191.502C237.328 199.138 231.138 205.328 223.502 205.328L21.1549 205.328C13.5188 205.328 7.32849 199.138 7.32849 191.502Z" stroke="#2B6A77" stroke-miterlimit="8" fill="#FFFFFF" fill-rule="evenodd"/></g></g><g clip-path="url(#clip17)" filter="url(#fx3)" transform="translate(631 258)"><g clip-path="url(#clip18)"><path d="M12.9023-0.398438C12.9023-0.3125 12.8867-0.240234 12.8555-0.181641 12.8242-0.123047 12.75-0.0742188 12.6328-0.0351562 12.5156 0.00390625 12.3437 0.03125 12.1172 0.046875 11.8906 0.0625 11.582 0.0703125 11.1914 0.0703125 10.8633 0.0703125 10.6016 0.0625 10.4062 0.046875 10.2109 0.03125 10.0566 0.00195312 9.94336-0.0410156 9.83008-0.0839844 9.75-0.138672 9.70312-0.205078 9.65625-0.271484 9.61719-0.351562 9.58594-0.445312L8.22656-3.83203C8.0625-4.21484 7.90234-4.55469 7.74609-4.85156 7.58984-5.14844 7.41602-5.39648 7.22461-5.5957 7.0332-5.79492 6.8125-5.94531 6.5625-6.04688 6.3125-6.14844 6.02344-6.19922 5.69531-6.19922L4.73438-6.19922 4.73438-0.421875C4.73438-0.34375 4.70898-0.273438 4.6582-0.210938 4.60742-0.148438 4.52344-0.0976562 4.40625-0.0585938 4.28906-0.0195312 4.13281 0.0117188 3.9375 0.0351562 3.74219 0.0585937 3.49219 0.0703125 3.1875 0.0703125 2.89062 0.0703125 2.64258 0.0585937 2.44336 0.0351562 2.24414 0.0117188 2.08594-0.0195312 1.96875-0.0585938 1.85156-0.0976562 1.76953-0.148438 1.72266-0.210938 1.67578-0.273438 1.65234-0.34375 1.65234-0.421875L1.65234-14.1914C1.65234-14.5352 1.74023-14.7832 1.91602-14.9355 2.0918-15.0879 2.30859-15.1641 2.56641-15.1641L6.49219-15.1641C6.89062-15.1641 7.21875-15.1562 7.47656-15.1406 7.73437-15.125 7.96875-15.1055 8.17969-15.082 8.78906-14.9961 9.33789-14.8477 9.82617-14.6367 10.3145-14.4258 10.7285-14.1504 11.0684-13.8105 11.4082-13.4707 11.668-13.0684 11.8477-12.6035 12.0273-12.1387 12.1172-11.6055 12.1172-11.0039 12.1172-10.4961 12.0527-10.0332 11.9238-9.61523 11.7949-9.19727 11.6055-8.82422 11.3555-8.49609 11.1055-8.16797 10.7969-7.88281 10.4297-7.64062 10.0625-7.39844 9.64453-7.20312 9.17578-7.05469 9.40234-6.94531 9.61523-6.8125 9.81445-6.65625 10.0137-6.5 10.2012-6.31055 10.377-6.08789 10.5527-5.86523 10.7188-5.61133 10.875-5.32617 11.0312-5.04102 11.1836-4.71875 11.332-4.35938L12.6094-1.37109C12.7266-1.07422 12.8047-0.857422 12.8438-0.720703 12.8828-0.583984 12.9023-0.476562 12.9023-0.398438ZM8.92969-10.6875C8.92969-11.1875 8.81641-11.6094 8.58984-11.9531 8.36328-12.2969 7.99219-12.5391 7.47656-12.6797 7.32031-12.7187 7.14258-12.75 6.94336-12.7734 6.74414-12.7969 6.46875-12.8086 6.11719-12.8086L4.73438-12.8086 4.73438-8.50781 6.30469-8.50781C6.74219-8.50781 7.125-8.56055 7.45312-8.66602 7.78125-8.77148 8.05469-8.91992 8.27344-9.11133 8.49219-9.30273 8.65625-9.53125 8.76562-9.79688 8.875-10.0625 8.92969-10.3594 8.92969-10.6875ZM24.2795-5.92969C24.2795-5.57031 24.1994-5.30469 24.0392-5.13281 23.8791-4.96094 23.6584-4.875 23.3771-4.875L17.0139-4.875C17.0139-4.42969 17.0666-4.02539 17.1721-3.66211 17.2775-3.29883 17.4455-2.99023 17.676-2.73633 17.9064-2.48242 18.2033-2.28906 18.5666-2.15625 18.9299-2.02344 19.3654-1.95703 19.8732-1.95703 20.3889-1.95703 20.842-1.99414 21.2326-2.06836 21.6232-2.14258 21.9611-2.22461 22.2463-2.31445 22.5314-2.4043 22.7678-2.48633 22.9553-2.56055 23.1428-2.63477 23.2951-2.67188 23.4123-2.67188 23.4826-2.67188 23.5412-2.6582 23.5881-2.63086 23.6349-2.60352 23.674-2.55469 23.7053-2.48438 23.7365-2.41406 23.758-2.31445 23.7697-2.18555 23.7814-2.05664 23.7873-1.89453 23.7873-1.69922 23.7873-1.52734 23.7834-1.38086 23.7756-1.25977 23.7678-1.13867 23.756-1.03516 23.7404-0.949219 23.7248-0.863281 23.7014-0.791016 23.6701-0.732422 23.6389-0.673828 23.5978-0.617188 23.5471-0.5625 23.4963-0.507812 23.3576-0.433594 23.131-0.339844 22.9045-0.246094 22.6154-0.154297 22.2639-0.0644531 21.9123 0.0253906 21.5099 0.103516 21.0568 0.169922 20.6037 0.236328 20.1193 0.269531 19.6037 0.269531 18.674 0.269531 17.8596 0.152344 17.1603-0.0820312 16.4611-0.316406 15.8771-0.671875 15.4084-1.14844 14.9396-1.625 14.59-2.22656 14.3596-2.95312 14.1291-3.67969 14.0139-4.53125 14.0139-5.50781 14.0139-6.4375 14.1349-7.27539 14.3771-8.02148 14.6193-8.76758 14.9709-9.40039 15.4318-9.91992 15.8928-10.4395 16.4533-10.8359 17.1135-11.1094 17.7736-11.3828 18.5178-11.5195 19.3459-11.5195 20.2209-11.5195 20.9689-11.3906 21.59-11.1328 22.2111-10.875 22.7209-10.5176 23.1193-10.0605 23.5178-9.60352 23.8107-9.0625 23.9982-8.4375 24.1857-7.8125 24.2795-7.13281 24.2795-6.39844ZM21.4201-6.77344C21.4435-7.60156 21.2775-8.25195 20.9221-8.72461 20.5666-9.19727 20.0178-9.43359 19.2756-9.43359 18.9006-9.43359 18.5744-9.36328 18.2971-9.22266 18.0197-9.08203 17.7892-8.89258 17.6057-8.6543 17.4221-8.41602 17.2814-8.13477 17.1838-7.81055 17.0861-7.48633 17.0295-7.14062 17.0139-6.77344ZM33.9826-3.35156C33.9826-2.75781 33.8713-2.23438 33.6486-1.78125 33.426-1.32812 33.1115-0.949219 32.7053-0.644531 32.299-0.339844 31.8185-0.111328 31.2639 0.0410156 30.7092 0.193359 30.1076 0.269531 29.4592 0.269531 29.0685 0.269531 28.6955 0.240234 28.34 0.181641 27.9846 0.123047 27.6662 0.0488281 27.3849-0.0410156 27.1037-0.130859 26.8693-0.222656 26.6818-0.316406 26.4943-0.410156 26.3576-0.498047 26.2717-0.580078 26.1857-0.662109 26.1193-0.791016 26.0724-0.966797 26.0256-1.14258 26.0021-1.40234 26.0021-1.74609 26.0021-1.97266 26.0099-2.1543 26.0256-2.29102 26.0412-2.42773 26.0646-2.53711 26.0959-2.61914 26.1271-2.70117 26.1662-2.75586 26.2131-2.7832 26.2599-2.81055 26.3185-2.82422 26.3889-2.82422 26.4748-2.82422 26.6017-2.77539 26.7697-2.67773 26.9377-2.58008 27.1467-2.47266 27.3967-2.35547 27.6467-2.23828 27.9377-2.12891 28.2697-2.02734 28.6017-1.92578 28.9787-1.875 29.4006-1.875 29.6662-1.875 29.9025-1.90234 30.1096-1.95703 30.3166-2.01172 30.4963-2.08984 30.6486-2.19141 30.801-2.29297 30.9162-2.42188 30.9943-2.57812 31.0724-2.73438 31.1115-2.91406 31.1115-3.11719 31.1115-3.35156 31.0392-3.55273 30.8947-3.7207 30.7502-3.88867 30.5588-4.03516 30.3205-4.16016 30.0822-4.28516 29.8127-4.40234 29.5119-4.51172 29.2111-4.62109 28.9025-4.74219 28.5861-4.875 28.2697-5.00781 27.9611-5.16016 27.6603-5.33203 27.3596-5.50391 27.09-5.71484 26.8517-5.96484 26.6135-6.21484 26.4221-6.51562 26.2775-6.86719 26.133-7.21875 26.0607-7.64062 26.0607-8.13281 26.0607-8.63281 26.1584-9.0918 26.3537-9.50977 26.549-9.92773 26.8303-10.2852 27.1974-10.582 27.5646-10.8789 28.0119-11.1094 28.5392-11.2734 29.0666-11.4375 29.6584-11.5195 30.3146-11.5195 30.6428-11.5195 30.9611-11.4961 31.2697-11.4492 31.5783-11.4023 31.8576-11.3438 32.1076-11.2734 32.3576-11.2031 32.5685-11.127 32.7404-11.0449 32.9123-10.9629 33.0353-10.8926 33.1096-10.834 33.1838-10.7754 33.2365-10.7168 33.2678-10.6582 33.299-10.5996 33.3224-10.5293 33.3381-10.4473 33.3537-10.3652 33.3674-10.2637 33.3791-10.1426 33.3908-10.0215 33.3967-9.87109 33.3967-9.69141 33.3967-9.48047 33.3908-9.30859 33.3791-9.17578 33.3674-9.04297 33.3478-8.9375 33.3205-8.85938 33.2932-8.78125 33.256-8.72852 33.2092-8.70117 33.1623-8.67383 33.1076-8.66016 33.0451-8.66016 32.9748-8.66016 32.8654-8.70117 32.717-8.7832 32.5685-8.86523 32.383-8.95312 32.1603-9.04688 31.9377-9.14062 31.6799-9.22852 31.3869-9.31055 31.0939-9.39258 30.7599-9.43359 30.3849-9.43359 30.1193-9.43359 29.8889-9.40625 29.6935-9.35156 29.4982-9.29688 29.3381-9.21875 29.2131-9.11719 29.0881-9.01562 28.9943-8.89648 28.9318-8.75977 28.8693-8.62305 28.8381-8.47656 28.8381-8.32031 28.8381-8.07812 28.9123-7.875 29.0607-7.71094 29.2092-7.54687 29.4045-7.40234 29.6467-7.27734 29.8889-7.15234 30.1642-7.03516 30.4728-6.92578 30.7814-6.81641 31.0939-6.69727 31.4103-6.56836 31.7267-6.43945 32.0392-6.28906 32.3478-6.11719 32.6564-5.94531 32.9318-5.73438 33.174-5.48438 33.4162-5.23438 33.6115-4.93555 33.7599-4.58789 33.9084-4.24023 33.9826-3.82812 33.9826-3.35156ZM46.6935-5.73047C46.6935-4.83984 46.5764-4.02734 46.342-3.29297 46.1076-2.55859 45.7521-1.92578 45.2756-1.39453 44.799-0.863281 44.2014-0.453125 43.4826-0.164062 42.7639 0.125 41.924 0.269531 40.9631 0.269531 40.0334 0.269531 39.2248 0.140625 38.5373-0.117188 37.8498-0.375 37.2795-0.75 36.8264-1.24219 36.3732-1.73437 36.0373-2.33984 35.8185-3.05859 35.5998-3.77734 35.4904-4.59766 35.4904-5.51953 35.4904-6.41016 35.6096-7.22461 35.8478-7.96289 36.0861-8.70117 36.4435-9.33398 36.9201-9.86133 37.3967-10.3887 37.9924-10.7969 38.7072-11.0859 39.4221-11.375 40.2599-11.5195 41.2209-11.5195 42.1584-11.5195 42.9709-11.3926 43.6584-11.1387 44.3459-10.8848 44.9142-10.5117 45.3635-10.0195 45.8127-9.52734 46.1467-8.92188 46.3654-8.20312 46.5842-7.48437 46.6935-6.66016 46.6935-5.73047ZM43.6584-5.61328C43.6584-6.12891 43.6174-6.60352 43.5353-7.03711 43.4533-7.4707 43.3146-7.84766 43.1193-8.16797 42.924-8.48828 42.6642-8.73828 42.34-8.91797 42.0158-9.09766 41.6076-9.1875 41.1154-9.1875 40.6779-9.1875 40.2951-9.10742 39.967-8.94727 39.6389-8.78711 39.3693-8.55273 39.1584-8.24414 38.9474-7.93555 38.7892-7.56445 38.6838-7.13086 38.5783-6.69727 38.5256-6.20312 38.5256-5.64844 38.5256-5.13281 38.5685-4.6582 38.6545-4.22461 38.7404-3.79102 38.8791-3.41406 39.0705-3.09375 39.2619-2.77344 39.5217-2.52539 39.8498-2.34961 40.1779-2.17383 40.5842-2.08594 41.0685-2.08594 41.5139-2.08594 41.9006-2.16602 42.2287-2.32617 42.5568-2.48633 42.8264-2.71875 43.0373-3.02344 43.2482-3.32812 43.4045-3.69727 43.506-4.13086 43.6076-4.56445 43.6584-5.05859 43.6584-5.61328ZM58.8706-0.398438C58.8706-0.320312 58.8511-0.251953 58.812-0.193359 58.773-0.134766 58.7046-0.0859375 58.607-0.046875 58.5093-0.0078125 58.3804 0.0214844 58.2202 0.0410156 58.0601 0.0605469 57.8589 0.0703125 57.6167 0.0703125 57.3589 0.0703125 57.1499 0.0605469 56.9898 0.0410156 56.8296 0.0214844 56.7027-0.0078125 56.6089-0.046875 56.5152-0.0859375 56.4487-0.134766 56.4097-0.193359 56.3706-0.251953 56.3511-0.320312 56.3511-0.398438L56.3511-1.60547C55.773-0.980469 55.1851-0.511719 54.5874-0.199219 53.9898 0.113281 53.3706 0.269531 52.73 0.269531 52.0112 0.269531 51.4077 0.152344 50.9195-0.0820312 50.4312-0.316406 50.0366-0.636719 49.7359-1.04297 49.4351-1.44922 49.2202-1.91992 49.0913-2.45508 48.9624-2.99023 48.898-3.65625 48.898-4.45312L48.898-10.8516C48.898-10.9297 48.9195-10.998 48.9624-11.0566 49.0054-11.1152 49.0835-11.1641 49.1968-11.2031 49.3101-11.2422 49.4624-11.2715 49.6538-11.291 49.8452-11.3105 50.0816-11.3203 50.3628-11.3203 50.6519-11.3203 50.8902-11.3105 51.0777-11.291 51.2652-11.2715 51.4155-11.2422 51.5288-11.2031 51.6421-11.1641 51.7222-11.1152 51.7691-11.0566 51.8159-10.998 51.8394-10.9297 51.8394-10.8516L51.8394-4.94531C51.8394-4.39844 51.8745-3.98047 51.9448-3.69141 52.0152-3.40234 52.1226-3.1543 52.2671-2.94727 52.4116-2.74023 52.5952-2.58008 52.8179-2.4668 53.0405-2.35352 53.3003-2.29688 53.5972-2.29688 53.9722-2.29688 54.3491-2.43359 54.7281-2.70703 55.107-2.98047 55.5112-3.37891 55.9409-3.90234L55.9409-10.8516C55.9409-10.9297 55.9624-10.998 56.0054-11.0566 56.0484-11.1152 56.1265-11.1641 56.2398-11.2031 56.353-11.2422 56.5034-11.2715 56.6909-11.291 56.8784-11.3105 57.1167-11.3203 57.4058-11.3203 57.6948-11.3203 57.9331-11.3105 58.1206-11.291 58.3081-11.2715 58.4566-11.2422 58.5659-11.2031 58.6753-11.1641 58.7534-11.1152 58.8003-11.0566 58.8472-10.998 58.8706-10.9297 58.8706-10.8516ZM68.5047-9.87891C68.5047-9.59766 68.4969-9.36719 68.4813-9.1875 68.4657-9.00781 68.4422-8.86719 68.411-8.76562 68.3797-8.66406 68.3387-8.59375 68.2879-8.55469 68.2372-8.51562 68.1727-8.49609 68.0946-8.49609 68.0321-8.49609 67.9618-8.50977 67.8837-8.53711 67.8055-8.56445 67.7176-8.59375 67.62-8.625 67.5223-8.65625 67.4149-8.68555 67.2977-8.71289 67.1805-8.74023 67.0516-8.75391 66.911-8.75391 66.7469-8.75391 66.5829-8.7207 66.4188-8.6543 66.2547-8.58789 66.0848-8.48438 65.909-8.34375 65.7333-8.20312 65.5497-8.01562 65.3583-7.78125 65.1669-7.54687 64.9618-7.25781 64.743-6.91406L64.743-0.398438C64.743-0.320312 64.7196-0.251953 64.6727-0.193359 64.6258-0.134766 64.5458-0.0859375 64.4325-0.046875 64.3192-0.0078125 64.1688 0.0214844 63.9813 0.0410156 63.7938 0.0605469 63.5555 0.0703125 63.2665 0.0703125 62.9774 0.0703125 62.7391 0.0605469 62.5516 0.0410156 62.3641 0.0214844 62.2137-0.0078125 62.1004-0.046875 61.9872-0.0859375 61.9071-0.134766 61.8602-0.193359 61.8133-0.251953 61.7899-0.320312 61.7899-0.398438L61.7899-10.8516C61.7899-10.9297 61.8094-10.998 61.8485-11.0566 61.8876-11.1152 61.9579-11.1641 62.0594-11.2031 62.161-11.2422 62.2919-11.2715 62.452-11.291 62.6122-11.3105 62.8133-11.3203 63.0555-11.3203 63.3055-11.3203 63.5126-11.3105 63.6766-11.291 63.8407-11.2715 63.9676-11.2422 64.0575-11.2031 64.1473-11.1641 64.2118-11.1152 64.2508-11.0566 64.2899-10.998 64.3094-10.9297 64.3094-10.8516L64.3094-9.55078C64.5829-9.94141 64.8407-10.2637 65.0829-10.5176 65.3251-10.7715 65.5555-10.9727 65.7743-11.1211 65.993-11.2695 66.2118-11.373 66.4305-11.4316 66.6493-11.4902 66.868-11.5195 67.0868-11.5195 67.1883-11.5195 67.2977-11.5137 67.4149-11.502 67.5321-11.4902 67.6532-11.4707 67.7782-11.4434 67.9032-11.416 68.0126-11.3848 68.1063-11.3496 68.2001-11.3145 68.2684-11.2773 68.3114-11.2383 68.3544-11.1992 68.3856-11.1562 68.4051-11.1094 68.4247-11.0625 68.4422-10.998 68.4579-10.916 68.4735-10.834 68.4852-10.7109 68.493-10.5469 68.5008-10.3828 68.5047-10.1602 68.5047-9.87891ZM77.8601-2.0625C77.8601-1.85937 77.8542-1.68945 77.8425-1.55273 77.8308-1.41602 77.8151-1.30078 77.7956-1.20703 77.7761-1.11328 77.7526-1.03711 77.7253-0.978516 77.698-0.919922 77.6374-0.845703 77.5437-0.755859 77.4499-0.666016 77.2897-0.556641 77.0632-0.427734 76.8366-0.298828 76.5788-0.183594 76.2897-0.0820312 76.0007 0.0195312 75.6862 0.101562 75.3464 0.164062 75.0065 0.226562 74.6569 0.257812 74.2976 0.257812 73.4929 0.257812 72.78 0.132812 72.1589-0.117188 71.5378-0.367187 71.0163-0.736328 70.5944-1.22461 70.1726-1.71289 69.8542-2.30859 69.6394-3.01172 69.4245-3.71484 69.3171-4.51953 69.3171-5.42578 69.3171-6.47266 69.448-7.37695 69.7097-8.13867 69.9714-8.90039 70.3366-9.53125 70.8054-10.0312 71.2741-10.5312 71.8288-10.9023 72.4694-11.1445 73.1101-11.3867 73.8132-11.5078 74.5788-11.5078 74.8913-11.5078 75.198-11.4805 75.4987-11.4258 75.7995-11.3711 76.0808-11.2969 76.3425-11.2031 76.6042-11.1094 76.8386-11.0039 77.0456-10.8867 77.2526-10.7695 77.3991-10.668 77.4851-10.582 77.571-10.4961 77.6315-10.4238 77.6667-10.3652 77.7019-10.3066 77.7292-10.2305 77.7487-10.1367 77.7683-10.043 77.7839-9.92773 77.7956-9.79102 77.8073-9.6543 77.8132-9.48828 77.8132-9.29297 77.8132-8.83984 77.7741-8.52148 77.696-8.33789 77.6179-8.1543 77.5163-8.0625 77.3913-8.0625 77.2585-8.0625 77.1179-8.11719 76.9694-8.22656 76.821-8.33594 76.6452-8.45703 76.4421-8.58984 76.239-8.72266 75.9968-8.84375 75.7155-8.95312 75.4343-9.0625 75.0983-9.11719 74.7077-9.11719 73.9421-9.11719 73.3562-8.82227 72.9499-8.23242 72.5437-7.64258 72.3405-6.77734 72.3405-5.63672 72.3405-5.07422 72.3913-4.57812 72.4929-4.14844 72.5944-3.71875 72.7448-3.35937 72.944-3.07031 73.1433-2.78125 73.3933-2.56445 73.694-2.41992 73.9948-2.27539 74.3444-2.20312 74.7429-2.20312 75.1491-2.20312 75.4987-2.26367 75.7917-2.38477 76.0847-2.50586 76.3405-2.64062 76.5593-2.78906 76.778-2.9375 76.9616-3.07227 77.1101-3.19336 77.2585-3.31445 77.3835-3.375 77.4851-3.375 77.5554-3.375 77.614-3.35547 77.6608-3.31641 77.7077-3.27734 77.7448-3.20508 77.7722-3.09961 77.7995-2.99414 77.821-2.85938 77.8366-2.69531 77.8522-2.53125 77.8601-2.32031 77.8601-2.0625ZM89.6062-5.92969C89.6062-5.57031 89.5261-5.30469 89.3659-5.13281 89.2058-4.96094 88.9851-4.875 88.7038-4.875L82.3405-4.875C82.3405-4.42969 82.3933-4.02539 82.4987-3.66211 82.6042-3.29883 82.7722-2.99023 83.0026-2.73633 83.2331-2.48242 83.53-2.28906 83.8933-2.15625 84.2565-2.02344 84.6921-1.95703 85.1999-1.95703 85.7155-1.95703 86.1687-1.99414 86.5593-2.06836 86.9499-2.14258 87.2878-2.22461 87.573-2.31445 87.8581-2.4043 88.0944-2.48633 88.2819-2.56055 88.4694-2.63477 88.6218-2.67188 88.739-2.67188 88.8093-2.67188 88.8679-2.6582 88.9147-2.63086 88.9616-2.60352 89.0007-2.55469 89.0319-2.48438 89.0632-2.41406 89.0847-2.31445 89.0964-2.18555 89.1081-2.05664 89.114-1.89453 89.114-1.69922 89.114-1.52734 89.1101-1.38086 89.1022-1.25977 89.0944-1.13867 89.0827-1.03516 89.0671-0.949219 89.0515-0.863281 89.028-0.791016 88.9968-0.732422 88.9655-0.673828 88.9245-0.617188 88.8737-0.5625 88.823-0.507812 88.6843-0.433594 88.4577-0.339844 88.2312-0.246094 87.9421-0.154297 87.5905-0.0644531 87.239 0.0253906 86.8366 0.103516 86.3835 0.169922 85.9304 0.236328 85.446 0.269531 84.9304 0.269531 84.0007 0.269531 83.1862 0.152344 82.487-0.0820312 81.7878-0.316406 81.2038-0.671875 80.7351-1.14844 80.2663-1.625 79.9167-2.22656 79.6862-2.95312 79.4558-3.67969 79.3405-4.53125 79.3405-5.50781 79.3405-6.4375 79.4616-7.27539 79.7038-8.02148 79.946-8.76758 80.2976-9.40039 80.7585-9.91992 81.2194-10.4395 81.78-10.8359 82.4401-11.1094 83.1003-11.3828 83.8444-11.5195 84.6726-11.5195 85.5476-11.5195 86.2956-11.3906 86.9167-11.1328 87.5378-10.875 88.0476-10.5176 88.446-10.0605 88.8444-9.60352 89.1374-9.0625 89.3249-8.4375 89.5124-7.8125 89.6062-7.13281 89.6062-6.39844ZM86.7468-6.77344C86.7702-7.60156 86.6042-8.25195 86.2487-8.72461 85.8933-9.19727 85.3444-9.43359 84.6022-9.43359 84.2272-9.43359 83.9011-9.36328 83.6237-9.22266 83.3464-9.08203 83.1159-8.89258 82.9323-8.6543 82.7487-8.41602 82.6081-8.13477 82.5105-7.81055 82.4128-7.48633 82.3562-7.14062 82.3405-6.77344Z" fill="#00664D" transform="translate(21.6688 37)"/><path d="M20.1387-16.1294 20.1387-14.1812 18.7646-11.6792 16.6113-12.479 17.2676-13.812 14.2529-13.812C14.1982-13.5796 14.1367-13.354 14.0684-13.1353 15.333-11.3306 17.541-10.2983 20.6924-10.0386 20.2002-9.04053 19.8037-8.19971 19.5029-7.51611 16.4062-7.9126 14.2529-9.02002 13.043-10.8384 11.9219-9.14307 10.0557-8.06299 7.44434-7.59814L18.3545-7.59814 18.3545-1.81494 15.4834-1.81494 15.4834-5.13721 5.68066-5.13721 5.68066-1.58936 2.80957-1.58936 2.80957-7.59814 6.54199-7.59814 5.27051-9.75146C9.03027-10.23 11.1323-11.5835 11.5767-13.812L9.30029-13.812C8.79443-12.9917 8.27148-12.2534 7.73145-11.5972 7.14355-12.0073 6.38477-12.4722 5.45508-12.9917 6.71289-14.3452 7.66309-15.8628 8.30566-17.5444L11.1357-17.3599C10.9443-16.936 10.7529-16.5259 10.5615-16.1294ZM0.717773-15.3911 2.39941-17.4829C3.83496-16.5532 4.92188-15.8013 5.66016-15.2271L3.83496-12.9302C2.8916-13.7915 1.85254-14.6118 0.717773-15.3911ZM1.51758-7.57764 0.307617-10.3462C2.0166-11.2622 3.5752-12.1782 4.9834-13.0942L6.15234-10.5308C4.29297-9.396 2.74805-8.41162 1.51758-7.57764ZM9.29004-4.54248 12.2842-4.54248C12.1611-3.71533 11.9697-2.9668 11.71-2.29688 13.9727-1.70215 16.8027-0.878418 20.2002 0.174316L18.8057 2.81982C16.9736 2.12939 14.1606 1.16211 10.3667-0.0820312 9.00635 1.46973 6.15234 2.44385 1.80469 2.84033 1.46289 2.06104 0.998047 1.12451 0.410156 0.0307617 3.02832-0.0991211 5.12183-0.459717 6.69067-1.05103 8.25952-1.64233 9.12598-2.80615 9.29004-4.54248ZM23.6917-17.3188C25.2367-16.2114 26.3577-15.3706 27.055-14.7964L25.1478-12.7251C24.1771-13.6685 23.1243-14.605 21.9896-15.5347ZM32.0999-3.45557 34.1097-2.2251C33.6585-1.49365 33.1424-0.728027 32.5614 0.0717773 32.9168 0.126465 33.3783 0.160645 33.9456 0.174316 34.5472 0.0922852 34.8548-0.187988 34.8685-0.666504L34.8685-3.90674 31.2386-3.90674 31.2386-12.5815 33.4432-12.5815C33.6893-13.1489 33.9046-13.7368 34.0892-14.3452L30.0902-14.3452 30.0902-8.17236C30.0902-3.03174 29.3314 0.659668 27.8138 2.90186 26.9388 2.02686 26.1663 1.37061 25.4964 0.933105 26.8226-1.03564 27.4788-4.19385 27.4652-8.5415L27.4652-16.6421 41.8411-16.6421 41.8411-14.3452 36.786-14.3452C36.6219-13.9419 36.3485-13.354 35.9657-12.5815L40.9593-12.5815 40.9593-3.90674 37.4935-3.90674 37.4935-0.0307617C37.4935 0.748535 37.3311 1.35693 37.0064 1.79443 36.6817 2.23193 36.1861 2.49854 35.5196 2.59424 34.8531 2.68994 33.9798 2.72412 32.8997 2.69678 32.7835 1.95166 32.6161 1.15186 32.3973 0.297363 32.0008 0.830566 31.5804 1.37744 31.1361 1.93799L29.2288 0.399902C30.2269-0.652832 31.1839-1.93799 32.0999-3.45557ZM38.4163-10.4897 33.7406-10.4897 33.7406-9.19775 38.4163-9.19775ZM38.4163-5.99854 38.4163-7.31104 33.7406-7.31104 33.7406-5.99854ZM23.2816-12.0278C24.3206-11.2759 25.4007-10.4146 26.5218-9.44385L24.6761-7.229C23.6781-8.19971 22.6527-9.1499 21.5999-10.0796ZM23.8968-6.1626C24.9222-5.69775 25.763-5.36963 26.4193-5.17822L24.5736 2.55322C23.6712 2.21143 22.7689 1.93115 21.8665 1.7124 22.5638-0.379394 23.2406-3.00439 23.8968-6.1626ZM39.6058-3.5376C40.4671-2.4165 41.3216-1.13818 42.1693 0.297363L40.057 1.54834C39.4007 0.290527 38.6077-1.02881 37.6781-2.40967Z" fill="#00664D" transform="translate(45.5754 64)"/></g></g></g><path d="M580.5 275.326C580.5 267.69 586.69 261.5 594.326 261.5L796.674 261.5C804.31 261.5 810.5 267.69 810.5 275.326L810.5 445.674C810.5 453.31 804.31 459.5 796.674 459.5L594.326 459.5C586.69 459.5 580.5 453.31 580.5 445.674Z" stroke="#2B6A77" stroke-width="1.33333" stroke-miterlimit="8" fill="#FFFFFF" fill-rule="evenodd"/><text fill="#00664D" font-family="Calibri,Calibri_MSFontService,sans-serif" font-weight="700" font-size="24" transform="translate(649.84 292)">Resource<tspan font-family="Microsoft YaHei,Microsoft YaHei_MSFontService,sans-serif" font-size="21" x="23.9066" y="27">资源</tspan></text><g clip-path="url(#clip19)"><g clip-path="url(#clip20)" filter="url(#fx4)" transform="translate(303 370)"><g clip-path="url(#clip21)"><path d="M7.32849 24.3597C7.32849 14.9536 14.9536 7.32849 24.3596 7.32849L132.297 7.32849C141.703 7.32849 149.328 14.9536 149.328 24.3597L149.328 48.2973C149.328 57.7034 141.703 65.3285 132.297 65.3285L24.3596 65.3285C14.9536 65.3285 7.32849 57.7034 7.32849 48.2973Z" stroke="#2B6A77" stroke-miterlimit="8" fill="#3E92A3" fill-rule="evenodd"/></g></g><g clip-path="url(#clip22)" filter="url(#fx5)" transform="translate(306 365)"><g clip-path="url(#clip23)"><path d="M11.332-10.7227C11.332-9.96484 11.207-9.28125 10.957-8.67188 10.707-8.0625 10.3496-7.54297 9.88477-7.11328 9.41992-6.68359 8.84961-6.35156 8.17383-6.11719 7.49805-5.88281 6.69141-5.76562 5.75391-5.76562L4.03125-5.76562 4.03125-0.304688C4.03125-0.242187 4.01367-0.1875 3.97852-0.140625 3.94336-0.09375 3.88867-0.0566406 3.81445-0.0292969 3.74023-0.00195313 3.63867 0.0214844 3.50977 0.0410156 3.38086 0.0605469 3.21875 0.0703125 3.02344 0.0703125 2.82812 0.0703125 2.66602 0.0605469 2.53711 0.0410156 2.4082 0.0214844 2.30469-0.00195313 2.22656-0.0292969 2.14844-0.0566406 2.09375-0.09375 2.0625-0.140625 2.03125-0.1875 2.01562-0.242187 2.01562-0.304688L2.01562-14.2969C2.01562-14.6094 2.09766-14.832 2.26172-14.9648 2.42578-15.0977 2.60938-15.1641 2.8125-15.1641L6.05859-15.1641C6.38672-15.1641 6.70117-15.1504 7.00195-15.123 7.30273-15.0957 7.6582-15.0371 8.06836-14.9473 8.47852-14.8574 8.89648-14.6895 9.32227-14.4434 9.74805-14.1973 10.1094-13.8945 10.4062-13.5352 10.7031-13.1758 10.9316-12.7598 11.0918-12.2871 11.252-11.8145 11.332-11.293 11.332-10.7227ZM9.21094-10.5586C9.21094-11.1758 9.0957-11.6914 8.86523-12.1055 8.63477-12.5195 8.34961-12.8281 8.00977-13.0312 7.66992-13.2344 7.31836-13.3633 6.95508-13.418 6.5918-13.4727 6.23828-13.5 5.89453-13.5L4.03125-13.5 4.03125-7.41797 5.84766-7.41797C6.45703-7.41797 6.96289-7.49609 7.36523-7.65234 7.76758-7.80859 8.10547-8.02539 8.37891-8.30273 8.65234-8.58008 8.85938-8.91211 9-9.29883 9.14062-9.68555 9.21094-10.1055 9.21094-10.5586ZM22.6463-6.02344C22.6463-5.71875 22.5698-5.50195 22.4168-5.37305 22.2638-5.24414 22.0891-5.17969 21.8928-5.17969L14.9471-5.17969C14.9471-4.59375 15.006-4.06641 15.1237-3.59766 15.2414-3.12891 15.4377-2.72656 15.7125-2.39062 15.9872-2.05469 16.3445-1.79687 16.7841-1.61719 17.2237-1.4375 17.7615-1.34766 18.3973-1.34766 18.8998-1.34766 19.3473-1.38867 19.7398-1.4707 20.1323-1.55273 20.4718-1.64453 20.7584-1.74609 21.045-1.84766 21.2805-1.93945 21.465-2.02148 21.6495-2.10352 21.7889-2.14453 21.8831-2.14453 21.938-2.14453 21.9871-2.13086 22.0302-2.10352 22.0734-2.07617 22.1068-2.03516 22.1303-1.98047 22.1539-1.92578 22.1715-1.84961 22.1833-1.75195 22.1951-1.6543 22.201-1.53516 22.201-1.39453 22.201-1.29297 22.1971-1.20508 22.1893-1.13086 22.1815-1.05664 22.1717-0.990234 22.16-0.931641 22.1483-0.873047 22.1287-0.820312 22.1014-0.773438 22.074-0.726562 22.0389-0.681641 21.9959-0.638672 21.9529-0.595703 21.826-0.525391 21.6151-0.427734 21.4041-0.330078 21.1307-0.234375 20.7947-0.140625 20.4588-0.046875 20.0701 0.0371094 19.6287 0.111328 19.1873 0.185547 18.7166 0.222656 18.2166 0.222656 17.3494 0.222656 16.5897 0.101562 15.9373-0.140625 15.285-0.382812 14.7361-0.742188 14.2908-1.21875 13.8455-1.69531 13.5096-2.29297 13.283-3.01172 13.0565-3.73047 12.9432-4.56641 12.9432-5.51953 12.9432-6.42578 13.0604-7.24023 13.2947-7.96289 13.5291-8.68555 13.867-9.29883 14.3084-9.80273 14.7498-10.3066 15.283-10.6934 15.908-10.9629 16.533-11.2324 17.2322-11.3672 18.0057-11.3672 18.8338-11.3672 19.5389-11.2344 20.1209-10.9688 20.7029-10.7031 21.1815-10.3457 21.5565-9.89648 21.9315-9.44727 22.2068-8.91992 22.3826-8.31445 22.5584-7.70898 22.6463-7.0625 22.6463-6.375ZM20.701-6.59766C20.7244-7.61328 20.4984-8.41016 20.0229-8.98828 19.5475-9.56641 18.842-9.85547 17.9066-9.85547 17.4271-9.85547 17.0066-9.76562 16.645-9.58594 16.2834-9.40625 15.9808-9.16797 15.7371-8.87109 15.4934-8.57422 15.3047-8.22852 15.1711-7.83398 15.0375-7.43945 14.9628-7.02734 14.9471-6.59766ZM31.8104-10.1484C31.8104-9.97656 31.8065-9.83203 31.7986-9.71484 31.7908-9.59766 31.7752-9.50586 31.7518-9.43945 31.7283-9.37305 31.699-9.32227 31.6639-9.28711 31.6287-9.25195 31.5799-9.23438 31.5174-9.23438 31.4549-9.23438 31.3787-9.25195 31.2889-9.28711 31.199-9.32227 31.0975-9.35742 30.9842-9.39258 30.8709-9.42773 30.744-9.46094 30.6033-9.49219 30.4627-9.52344 30.3104-9.53906 30.1463-9.53906 29.951-9.53906 29.7596-9.5 29.5721-9.42188 29.3846-9.34375 29.1873-9.21484 28.9803-9.03516 28.7733-8.85547 28.5565-8.61719 28.3299-8.32031 28.1033-8.02344 27.8533-7.66016 27.5799-7.23047L27.5799-0.292969C27.5799-0.230469 27.5643-0.177734 27.533-0.134766 27.5018-0.0917969 27.451-0.0546875 27.3807-0.0234375 27.3104 0.0078125 27.2127 0.03125 27.0877 0.046875 26.9627 0.0625 26.8025 0.0703125 26.6072 0.0703125 26.4197 0.0703125 26.2635 0.0625 26.1385 0.046875 26.0135 0.03125 25.9139 0.0078125 25.8397-0.0234375 25.7654-0.0546875 25.7147-0.0917969 25.6873-0.134766 25.66-0.177734 25.6463-0.230469 25.6463-0.292969L25.6463-10.8398C25.6463-10.9023 25.658-10.9551 25.6815-10.998 25.7049-11.041 25.7518-11.0801 25.8221-11.1152 25.8924-11.1504 25.9822-11.1738 26.0916-11.1855 26.201-11.1973 26.3455-11.2031 26.5252-11.2031 26.6971-11.2031 26.8397-11.1973 26.9529-11.1855 27.0662-11.1738 27.1541-11.1504 27.2166-11.1152 27.2791-11.0801 27.324-11.041 27.3514-10.998 27.3787-10.9551 27.3924-10.9023 27.3924-10.8398L27.3924-9.30469C27.6815-9.72656 27.9529-10.0703 28.2068-10.3359 28.4608-10.6016 28.701-10.8105 28.9276-10.9629 29.1541-11.1152 29.3787-11.2207 29.6014-11.2793 29.824-11.3379 30.0486-11.3672 30.2752-11.3672 30.3768-11.3672 30.492-11.3613 30.6209-11.3496 30.7498-11.3379 30.8846-11.3164 31.0252-11.2852 31.1658-11.2539 31.2928-11.2188 31.4061-11.1797 31.5193-11.1406 31.5994-11.1016 31.6463-11.0625 31.6932-11.0234 31.7244-10.9863 31.7401-10.9512 31.7557-10.916 31.7693-10.8711 31.7811-10.8164 31.7928-10.7617 31.8006-10.6816 31.8045-10.5762 31.8084-10.4707 31.8104-10.3281 31.8104-10.1484ZM49.6242-0.292969C49.6242-0.230469 49.6085-0.177734 49.5773-0.134766 49.546-0.0917969 49.4953-0.0546875 49.4249-0.0234375 49.3546 0.0078125 49.257 0.03125 49.132 0.046875 49.007 0.0625 48.8507 0.0703125 48.6632 0.0703125 48.4679 0.0703125 48.3078 0.0625 48.1828 0.046875 48.0578 0.03125 47.9582 0.0078125 47.8839-0.0234375 47.8097-0.0546875 47.757-0.0917969 47.7257-0.134766 47.6945-0.177734 47.6789-0.230469 47.6789-0.292969L47.6789-6.70312C47.6789-7.14844 47.6398-7.55469 47.5617-7.92188 47.4835-8.28906 47.3585-8.60547 47.1867-8.87109 47.0148-9.13672 46.796-9.33984 46.5304-9.48047 46.2648-9.62109 45.9523-9.69141 45.5929-9.69141 45.1476-9.69141 44.7003-9.51953 44.2511-9.17578 43.8019-8.83203 43.3078-8.32812 42.7687-7.66406L42.7687-0.292969C42.7687-0.230469 42.7531-0.177734 42.7218-0.134766 42.6906-0.0917969 42.6378-0.0546875 42.5636-0.0234375 42.4894 0.0078125 42.3898 0.03125 42.2648 0.046875 42.1398 0.0625 41.9835 0.0703125 41.796 0.0703125 41.6164 0.0703125 41.4621 0.0625 41.3332 0.046875 41.2042 0.03125 41.1027 0.0078125 41.0285-0.0234375 40.9542-0.0546875 40.9035-0.0917969 40.8761-0.134766 40.8488-0.177734 40.8351-0.230469 40.8351-0.292969L40.8351-6.70312C40.8351-7.14844 40.7921-7.55469 40.7062-7.92188 40.6203-8.28906 40.4914-8.60547 40.3195-8.87109 40.1476-9.13672 39.9308-9.33984 39.6691-9.48047 39.4074-9.62109 39.0968-9.69141 38.7374-9.69141 38.2921-9.69141 37.8429-9.51953 37.3898-9.17578 36.9367-8.83203 36.4445-8.32812 35.9132-7.66406L35.9132-0.292969C35.9132-0.230469 35.8976-0.177734 35.8664-0.134766 35.8351-0.0917969 35.7843-0.0546875 35.714-0.0234375 35.6437 0.0078125 35.546 0.03125 35.421 0.046875 35.296 0.0625 35.1359 0.0703125 34.9406 0.0703125 34.7531 0.0703125 34.5968 0.0625 34.4718 0.046875 34.3468 0.03125 34.2472 0.0078125 34.173-0.0234375 34.0988-0.0546875 34.048-0.0917969 34.0207-0.134766 33.9933-0.177734 33.9796-0.230469 33.9796-0.292969L33.9796-10.8398C33.9796-10.9023 33.9914-10.9551 34.0148-10.998 34.0382-11.041 34.0851-11.0801 34.1554-11.1152 34.2257-11.1504 34.3156-11.1738 34.4249-11.1855 34.5343-11.1973 34.6789-11.2031 34.8585-11.2031 35.0304-11.2031 35.173-11.1973 35.2863-11.1855 35.3996-11.1738 35.4874-11.1504 35.5499-11.1152 35.6124-11.0801 35.6574-11.041 35.6847-10.998 35.7121-10.9551 35.7257-10.9023 35.7257-10.8398L35.7257-9.44531C36.3195-10.1094 36.8957-10.5957 37.4542-10.9043 38.0128-11.2129 38.5773-11.3672 39.1476-11.3672 39.5851-11.3672 39.9777-11.3164 40.3253-11.2148 40.673-11.1133 40.9796-10.9707 41.2453-10.7871 41.5109-10.6035 41.7374-10.3848 41.9249-10.1309 42.1124-9.87695 42.2687-9.59375 42.3937-9.28125 42.7453-9.66406 43.0792-9.98828 43.3957-10.2539 43.7121-10.5195 44.0167-10.7344 44.3097-10.8984 44.6027-11.0625 44.8878-11.1816 45.1652-11.2559 45.4425-11.3301 45.7218-11.3672 46.0031-11.3672 46.6828-11.3672 47.2531-11.248 47.714-11.0098 48.1749-10.7715 48.548-10.4531 48.8332-10.0547 49.1183-9.65625 49.3214-9.18945 49.4425-8.6543 49.5636-8.11914 49.6242-7.55469 49.6242-6.96094ZM55.0799-0.292969C55.0799-0.230469 55.0643-0.177734 55.033-0.134766 55.0018-0.0917969 54.951-0.0546875 54.8807-0.0234375 54.8104 0.0078125 54.7127 0.03125 54.5877 0.046875 54.4627 0.0625 54.3026 0.0703125 54.1072 0.0703125 53.9197 0.0703125 53.7635 0.0625 53.6385 0.046875 53.5135 0.03125 53.4139 0.0078125 53.3397-0.0234375 53.2654-0.0546875 53.2147-0.0917969 53.1873-0.134766 53.16-0.177734 53.1463-0.230469 53.1463-0.292969L53.1463-10.8398C53.1463-10.8945 53.16-10.9453 53.1873-10.9922 53.2147-11.0391 53.2654-11.0781 53.3397-11.1094 53.4139-11.1406 53.5135-11.1641 53.6385-11.1797 53.7635-11.1953 53.9197-11.2031 54.1072-11.2031 54.3026-11.2031 54.4627-11.1953 54.5877-11.1797 54.7127-11.1641 54.8104-11.1406 54.8807-11.1094 54.951-11.0781 55.0018-11.0391 55.033-10.9922 55.0643-10.9453 55.0799-10.8945 55.0799-10.8398ZM55.3026-14.4023C55.3026-13.9492 55.2166-13.6406 55.0447-13.4766 54.8729-13.3125 54.5565-13.2305 54.0955-13.2305 53.6424-13.2305 53.3318-13.3105 53.1639-13.4707 52.9959-13.6309 52.9119-13.9336 52.9119-14.3789 52.9119-14.832 52.9979-15.1406 53.1697-15.3047 53.3416-15.4687 53.658-15.5508 54.119-15.5508 54.5721-15.5508 54.8826-15.4707 55.0506-15.3105 55.2186-15.1504 55.3026-14.8477 55.3026-14.4023ZM65.2674-3.16406C65.2674-2.625 65.1678-2.14453 64.9686-1.72266 64.7693-1.30078 64.4861-0.945312 64.119-0.65625 63.7518-0.367188 63.3143-0.148437 62.8065 0 62.2986 0.148437 61.7401 0.222656 61.1307 0.222656 60.7557 0.222656 60.3983 0.193359 60.0584 0.134766 59.7186 0.0761719 59.4139 0.00195312 59.1444-0.0878906 58.8748-0.177734 58.6463-0.271484 58.4588-0.369141 58.2713-0.466797 58.1346-0.554688 58.0486-0.632812 57.9627-0.710938 57.9002-0.820312 57.8611-0.960938 57.8221-1.10156 57.8026-1.29297 57.8026-1.53516 57.8026-1.68359 57.8104-1.80859 57.826-1.91016 57.8416-2.01172 57.8611-2.09375 57.8846-2.15625 57.908-2.21875 57.9412-2.26367 57.9842-2.29102 58.0272-2.31836 58.076-2.33203 58.1307-2.33203 58.2166-2.33203 58.3436-2.2793 58.5115-2.17383 58.6795-2.06836 58.8865-1.95312 59.1326-1.82812 59.3787-1.70312 59.6697-1.58789 60.0057-1.48242 60.3416-1.37695 60.7283-1.32422 61.1658-1.32422 61.494-1.32422 61.7908-1.35938 62.0565-1.42969 62.3221-1.5 62.5526-1.60352 62.7479-1.74023 62.9432-1.87695 63.0936-2.05078 63.199-2.26172 63.3045-2.47266 63.3572-2.72266 63.3572-3.01172 63.3572-3.30859 63.2811-3.55859 63.1287-3.76172 62.9764-3.96484 62.7752-4.14453 62.5252-4.30078 62.2752-4.45703 61.994-4.5957 61.6815-4.7168 61.369-4.83789 61.0467-4.96484 60.7147-5.09766 60.3826-5.23047 60.0584-5.38086 59.742-5.54883 59.4256-5.7168 59.1424-5.92188 58.8924-6.16406 58.6424-6.40625 58.4412-6.69531 58.2889-7.03125 58.1365-7.36719 58.0604-7.76953 58.0604-8.23828 58.0604-8.65234 58.1404-9.04883 58.3006-9.42773 58.4608-9.80664 58.701-10.1387 59.0213-10.4238 59.3416-10.709 59.742-10.9375 60.2225-11.1094 60.7029-11.2812 61.2635-11.3672 61.9041-11.3672 62.1854-11.3672 62.4666-11.3438 62.7479-11.2969 63.0291-11.25 63.283-11.1914 63.5096-11.1211 63.7361-11.0508 63.9295-10.9746 64.0897-10.8926 64.2498-10.8105 64.3709-10.7383 64.4529-10.6758 64.535-10.6133 64.5897-10.5586 64.617-10.5117 64.6443-10.4648 64.6639-10.4121 64.6756-10.3535 64.6873-10.2949 64.699-10.2227 64.7108-10.1367 64.7225-10.0508 64.7283-9.94531 64.7283-9.82031 64.7283-9.6875 64.7225-9.57227 64.7108-9.47461 64.699-9.37695 64.6795-9.29688 64.6522-9.23438 64.6248-9.17188 64.5916-9.12695 64.5526-9.09961 64.5135-9.07227 64.4705-9.05859 64.4236-9.05859 64.3533-9.05859 64.2518-9.10156 64.119-9.1875 63.9861-9.27344 63.8143-9.36523 63.6033-9.46289 63.3924-9.56055 63.1443-9.65234 62.8592-9.73828 62.574-9.82422 62.2479-9.86719 61.8807-9.86719 61.5526-9.86719 61.2635-9.83008 61.0135-9.75586 60.7635-9.68164 60.5584-9.57617 60.3983-9.43945 60.2381-9.30273 60.117-9.14062 60.035-8.95312 59.9529-8.76562 59.9119-8.5625 59.9119-8.34375 59.9119-8.03906 59.9901-7.7832 60.1463-7.57617 60.3026-7.36914 60.5057-7.1875 60.7557-7.03125 61.0057-6.875 61.2908-6.73437 61.6111-6.60938 61.9315-6.48437 62.2576-6.35547 62.5897-6.22266 62.9217-6.08984 63.2498-5.94141 63.574-5.77734 63.8983-5.61328 64.1854-5.41406 64.4354-5.17969 64.6854-4.94531 64.8865-4.66406 65.0389-4.33594 65.1912-4.00781 65.2674-3.61719 65.2674-3.16406ZM74.6007-3.16406C74.6007-2.625 74.5011-2.14453 74.3019-1.72266 74.1027-1.30078 73.8195-0.945312 73.4523-0.65625 73.0851-0.367188 72.6476-0.148437 72.1398 0 71.632 0.148437 71.0734 0.222656 70.464 0.222656 70.089 0.222656 69.7316 0.193359 69.3917 0.134766 69.0519 0.0761719 68.7472 0.00195312 68.4777-0.0878906 68.2082-0.177734 67.9796-0.271484 67.7921-0.369141 67.6046-0.466797 67.4679-0.554688 67.382-0.632812 67.296-0.710938 67.2335-0.820312 67.1945-0.960938 67.1554-1.10156 67.1359-1.29297 67.1359-1.53516 67.1359-1.68359 67.1437-1.80859 67.1593-1.91016 67.1749-2.01172 67.1945-2.09375 67.2179-2.15625 67.2414-2.21875 67.2746-2.26367 67.3175-2.29102 67.3605-2.31836 67.4093-2.33203 67.464-2.33203 67.5499-2.33203 67.6769-2.2793 67.8449-2.17383 68.0128-2.06836 68.2199-1.95312 68.466-1.82812 68.7121-1.70312 69.0031-1.58789 69.339-1.48242 69.6749-1.37695 70.0617-1.32422 70.4992-1.32422 70.8273-1.32422 71.1242-1.35938 71.3898-1.42969 71.6554-1.5 71.8859-1.60352 72.0812-1.74023 72.2765-1.87695 72.4269-2.05078 72.5324-2.26172 72.6378-2.47266 72.6906-2.72266 72.6906-3.01172 72.6906-3.30859 72.6144-3.55859 72.4621-3.76172 72.3097-3.96484 72.1085-4.14453 71.8585-4.30078 71.6085-4.45703 71.3273-4.5957 71.0148-4.7168 70.7023-4.83789 70.38-4.96484 70.048-5.09766 69.716-5.23047 69.3917-5.38086 69.0753-5.54883 68.7589-5.7168 68.4757-5.92188 68.2257-6.16406 67.9757-6.40625 67.7746-6.69531 67.6222-7.03125 67.4699-7.36719 67.3937-7.76953 67.3937-8.23828 67.3937-8.65234 67.4738-9.04883 67.6339-9.42773 67.7941-9.80664 68.0343-10.1387 68.3546-10.4238 68.6749-10.709 69.0753-10.9375 69.5558-11.1094 70.0363-11.2812 70.5968-11.3672 71.2374-11.3672 71.5187-11.3672 71.7999-11.3438 72.0812-11.2969 72.3624-11.25 72.6164-11.1914 72.8429-11.1211 73.0695-11.0508 73.2628-10.9746 73.423-10.8926 73.5832-10.8105 73.7042-10.7383 73.7863-10.6758 73.8683-10.6133 73.923-10.5586 73.9503-10.5117 73.9777-10.4648 73.9972-10.4121 74.0089-10.3535 74.0207-10.2949 74.0324-10.2227 74.0441-10.1367 74.0558-10.0508 74.0617-9.94531 74.0617-9.82031 74.0617-9.6875 74.0558-9.57227 74.0441-9.47461 74.0324-9.37695 74.0128-9.29688 73.9855-9.23438 73.9582-9.17188 73.9249-9.12695 73.8859-9.09961 73.8468-9.07227 73.8039-9.05859 73.757-9.05859 73.6867-9.05859 73.5851-9.10156 73.4523-9.1875 73.3195-9.27344 73.1476-9.36523 72.9367-9.46289 72.7257-9.56055 72.4777-9.65234 72.1925-9.73828 71.9074-9.82422 71.5812-9.86719 71.214-9.86719 70.8859-9.86719 70.5968-9.83008 70.3468-9.75586 70.0968-9.68164 69.8917-9.57617 69.7316-9.43945 69.5714-9.30273 69.4503-9.14062 69.3683-8.95312 69.2863-8.76562 69.2453-8.5625 69.2453-8.34375 69.2453-8.03906 69.3234-7.7832 69.4796-7.57617 69.6359-7.36914 69.839-7.1875 70.089-7.03125 70.339-6.875 70.6242-6.73437 70.9445-6.60938 71.2648-6.48437 71.591-6.35547 71.923-6.22266 72.255-6.08984 72.5832-5.94141 72.9074-5.77734 73.2316-5.61328 73.5187-5.41406 73.7687-5.17969 74.0187-4.94531 74.2199-4.66406 74.3722-4.33594 74.5246-4.00781 74.6007-3.61719 74.6007-3.16406ZM79.2466-0.292969C79.2466-0.230469 79.2309-0.177734 79.1997-0.134766 79.1684-0.0917969 79.1177-0.0546875 79.0473-0.0234375 78.977 0.0078125 78.8794 0.03125 78.7544 0.046875 78.6294 0.0625 78.4692 0.0703125 78.2739 0.0703125 78.0864 0.0703125 77.9302 0.0625 77.8052 0.046875 77.6802 0.03125 77.5806 0.0078125 77.5063-0.0234375 77.4321-0.0546875 77.3813-0.0917969 77.354-0.134766 77.3266-0.177734 77.313-0.230469 77.313-0.292969L77.313-10.8398C77.313-10.8945 77.3266-10.9453 77.354-10.9922 77.3813-11.0391 77.4321-11.0781 77.5063-11.1094 77.5806-11.1406 77.6802-11.1641 77.8052-11.1797 77.9302-11.1953 78.0864-11.2031 78.2739-11.2031 78.4692-11.2031 78.6294-11.1953 78.7544-11.1797 78.8794-11.1641 78.977-11.1406 79.0473-11.1094 79.1177-11.0781 79.1684-11.0391 79.1997-10.9922 79.2309-10.9453 79.2466-10.8945 79.2466-10.8398ZM79.4692-14.4023C79.4692-13.9492 79.3833-13.6406 79.2114-13.4766 79.0395-13.3125 78.7231-13.2305 78.2622-13.2305 77.8091-13.2305 77.4985-13.3105 77.3306-13.4707 77.1626-13.6309 77.0786-13.9336 77.0786-14.3789 77.0786-14.832 77.1645-15.1406 77.3364-15.3047 77.5083-15.4687 77.8247-15.5508 78.2856-15.5508 78.7388-15.5508 79.0493-15.4707 79.2173-15.3105 79.3852-15.1504 79.4692-14.8477 79.4692-14.4023ZM92.6216-5.68359C92.6216-4.82422 92.5083-4.0332 92.2817-3.31055 92.0552-2.58789 91.7173-1.96484 91.2681-1.44141 90.8188-0.917969 90.2563-0.509766 89.5806-0.216797 88.9048 0.0761719 88.1216 0.222656 87.2309 0.222656 86.3638 0.222656 85.6079 0.09375 84.9634-0.164062 84.3188-0.421875 83.7817-0.796875 83.352-1.28906 82.9223-1.78125 82.602-2.37891 82.3911-3.08203 82.1802-3.78516 82.0747-4.58203 82.0747-5.47266 82.0747-6.33203 82.186-7.12305 82.4087-7.8457 82.6313-8.56836 82.9673-9.19141 83.4165-9.71484 83.8657-10.2383 84.4263-10.6445 85.0981-10.9336 85.77-11.2227 86.5552-11.3672 87.4536-11.3672 88.3208-11.3672 89.0766-11.2383 89.7212-10.9805 90.3657-10.7227 90.9028-10.3477 91.3325-9.85547 91.7622-9.36328 92.0845-8.76562 92.2993-8.0625 92.5141-7.35937 92.6216-6.56641 92.6216-5.68359ZM90.6177-5.55469C90.6177-6.125 90.5644-6.66406 90.458-7.17188 90.3515-7.67969 90.1761-8.125 89.9317-8.50781 89.6874-8.89062 89.3563-9.19336 88.9385-9.41602 88.5207-9.63867 88.0004-9.75 87.3776-9.75 86.8022-9.75 86.3075-9.64844 85.8936-9.44531 85.4798-9.24219 85.1388-8.95508 84.8708-8.58398 84.6028-8.21289 84.4038-7.77344 84.2737-7.26562 84.1436-6.75781 84.0786-6.20312 84.0786-5.60156 84.0786-5.02344 84.1318-4.48047 84.2383-3.97266 84.3447-3.46484 84.5221-3.02148 84.7704-2.64258 85.0187-2.26367 85.3517-1.96289 85.7695-1.74023 86.1873-1.51758 86.7076-1.40625 87.3304-1.40625 87.898-1.40625 88.3907-1.50781 88.8085-1.71094 89.2263-1.91406 89.5692-2.19922 89.8372-2.56641 90.1052-2.93359 90.3023-3.37109 90.4284-3.87891 90.5546-4.38672 90.6177-4.94531 90.6177-5.55469ZM104.562-0.292969C104.562-0.230469 104.546-0.177734 104.515-0.134766 104.484-0.0917969 104.433-0.0546875 104.362-0.0234375 104.292 0.0078125 104.194 0.03125 104.069 0.046875 103.944 0.0625 103.788 0.0703125 103.601 0.0703125 103.405 0.0703125 103.245 0.0625 103.12 0.046875 102.995 0.03125 102.898 0.0078125 102.827-0.0234375 102.757-0.0546875 102.706-0.0917969 102.675-0.134766 102.644-0.177734 102.628-0.230469 102.628-0.292969L102.628-6.46875C102.628-7.07031 102.581-7.55469 102.487-7.92188 102.394-8.28906 102.257-8.60547 102.077-8.87109 101.898-9.13672 101.665-9.33984 101.38-9.48047 101.095-9.62109 100.765-9.69141 100.39-9.69141 99.9054-9.69141 99.421-9.51953 98.9367-9.17578 98.4523-8.83203 97.9445-8.32812 97.4132-7.66406L97.4132-0.292969C97.4132-0.230469 97.3976-0.177734 97.3664-0.134766 97.3351-0.0917969 97.2843-0.0546875 97.214-0.0234375 97.1437 0.0078125 97.046 0.03125 96.921 0.046875 96.796 0.0625 96.6359 0.0703125 96.4406 0.0703125 96.2531 0.0703125 96.0968 0.0625 95.9718 0.046875 95.8468 0.03125 95.7472 0.0078125 95.673-0.0234375 95.5988-0.0546875 95.548-0.0917969 95.5207-0.134766 95.4933-0.177734 95.4796-0.230469 95.4796-0.292969L95.4796-10.8398C95.4796-10.9023 95.4913-10.9551 95.5148-10.998 95.5382-11.041 95.5851-11.0801 95.6554-11.1152 95.7257-11.1504 95.8156-11.1738 95.9249-11.1855 96.0343-11.1973 96.1788-11.2031 96.3585-11.2031 96.5304-11.2031 96.673-11.1973 96.7863-11.1855 96.8996-11.1738 96.9874-11.1504 97.0499-11.1152 97.1124-11.0801 97.1574-11.041 97.1847-10.998 97.2121-10.9551 97.2257-10.9023 97.2257-10.8398L97.2257-9.44531C97.8195-10.1094 98.4113-10.5957 99.0011-10.9043 99.591-11.2129 100.187-11.3672 100.788-11.3672 101.491-11.3672 102.083-11.248 102.564-11.0098 103.044-10.7715 103.433-10.4531 103.73-10.0547 104.027-9.65625 104.239-9.18945 104.368-8.6543 104.497-8.11914 104.562-7.47656 104.562-6.72656Z" fill="#FFFFFF" transform="translate(21.7382 36)"/><path d="M0.266602-5.23975C1.24414-6.74365 2.04736-8.68506 2.67627-11.064L0.451172-11.064 0.451172-13.7915 2.78906-13.7915 2.78906-17.4624 5.45508-17.4624 5.45508-13.7915 7.6084-13.7915 7.6084-11.064 5.45508-11.064 5.45508-8.58252 6.09082-9.15674C7.02051-8.29541 7.97754-7.36572 8.96191-6.36768L7.03418-4.62451C6.51465-5.2876 5.98828-5.9165 5.45508-6.51123L5.45508 2.71729 2.78906 2.71729 2.78906-4.67578C2.31738-3.53418 1.79102-2.51221 1.20996-1.60986 0.90918-2.84033 0.594727-4.05029 0.266602-5.23975ZM10.9717-13.6479C11.5186-10.7632 12.4995-8.26465 13.9146-6.15234 15.3843-8.33984 16.3379-10.9136 16.7754-13.8735L7.75195-13.8735 7.75195-16.4985 19.667-16.4985 19.667-13.9146C19.0791-10.0181 17.7803-6.66504 15.7705-3.85547 17.1514-2.41992 18.8057-1.22705 20.7334-0.276855 20.0908 0.666504 19.4893 1.63721 18.9287 2.63525 16.9805 1.48682 15.2783 0.102539 13.8223-1.51758 12.1748 0.18457 10.1992 1.63721 7.89551 2.84033 7.3623 1.82861 6.80176 0.926269 6.21387 0.133301 8.51758-0.912598 10.4521-2.23535 12.0176-3.83496 10.3633-6.30273 9.15332-9.19775 8.3877-12.52ZM27.5882-9.11572C28.9281-7.6665 29.598-5.9165 29.598-3.86572 29.598-1.69189 28.265-0.60498 25.599-0.60498 25.4896-1.76709 25.3118-2.82666 25.0658-3.78369 25.3187-3.73584 25.5477-3.71191 25.7528-3.71191 26.5389-3.71191 26.932-4.02979 26.932-4.66553 26.932-6.04639 26.3236-7.42725 25.1068-8.80811 25.681-10.6128 26.1937-12.4243 26.6449-14.2427L24.9632-14.2427 24.9632 2.81982 22.4202 2.81982 22.4202-16.6216 29.3109-16.6216 29.3109-14.6528C28.8187-12.9712 28.2445-11.1255 27.5882-9.11572ZM42.0462-0.256348C41.5267 0.563965 41.0345 1.50732 40.5697 2.57373 38.4915 1.64404 36.9295 0.468262 35.8836-0.953613 35.8494 0.00341794 35.8324 0.755371 35.8324 1.30225 33.098 1.94482 31.307 2.46436 30.4593 2.86084L29.3109 0.687012C29.7757 0.222168 30.0081-0.495605 30.0081-1.46631L30.0081-16.5806 40.7747-16.5806 40.7747-5.99854 40.2518-5.99854 41.9642-3.84521 38.7957-1.94824C39.6024-1.26465 40.6859-0.700684 42.0462-0.256348ZM38.1497-14.1196 32.6331-14.1196 32.6331-12.438 38.1497-12.438ZM38.1497-8.45947 38.1497-10.1411 32.6331-10.1411 32.6331-8.45947ZM33.597-5.99854 32.6331-5.99854 32.6331-0.687012C33.5833-0.905762 34.5575-1.14502 35.5555-1.40479 34.701-2.65576 34.0482-4.18701 33.597-5.99854ZM37.2679-3.74268C38.2591-4.45361 39.1786-5.20557 40.0262-5.99854L36.1707-5.99854C36.4852-5.15771 36.8509-4.40576 37.2679-3.74268Z" fill="#FFFFFF" transform="translate(53.5782 63)"/></g></g></g><path d="M307.5 391.531C307.5 382.125 315.125 374.5 324.531 374.5L432.469 374.5C441.875 374.5 449.5 382.125 449.5 391.531L449.5 415.469C449.5 424.875 441.875 432.5 432.469 432.5L324.531 432.5C315.125 432.5 307.5 424.875 307.5 415.469Z" stroke="#2B6A77" stroke-width="1.33333" stroke-miterlimit="8" fill="#3E92A3" fill-rule="evenodd"/><text fill="#FFFFFF" font-family="Calibri,Calibri_MSFontService,sans-serif" font-weight="400" font-size="24" transform="translate(324.91 398)">Permission<tspan font-family="Microsoft YaHei,Microsoft YaHei_MSFontService,sans-serif" font-weight="700" font-size="21" x="31.84" y="27">权限</tspan></text><g clip-path="url(#clip24)"><g clip-path="url(#clip25)" filter="url(#fx6)" transform="translate(215 235)"><g clip-path="url(#clip26)"><path d="M7.32848 20.6645C7.32848 13.2992 13.2992 7.32848 20.6645 7.32848L185.992 7.32848C193.358 7.32848 199.328 13.2992 199.328 20.6645L199.328 59.9924C199.328 67.3577 193.358 73.3285 185.992 73.3285L20.6645 73.3285C13.2992 73.3285 7.32848 67.3577 7.32848 59.9924Z" stroke="#2B6A77" stroke-miterlimit="8" fill="#FFFFFF" fill-rule="evenodd"/></g></g><g clip-path="url(#clip27)" filter="url(#fx7)" transform="translate(219 233)"><g clip-path="url(#clip28)"><path d="M12.9023-0.398438C12.9023-0.3125 12.8867-0.240234 12.8555-0.181641 12.8242-0.123047 12.75-0.0742188 12.6328-0.0351562 12.5156 0.00390625 12.3437 0.03125 12.1172 0.046875 11.8906 0.0625 11.582 0.0703125 11.1914 0.0703125 10.8633 0.0703125 10.6016 0.0625 10.4062 0.046875 10.2109 0.03125 10.0566 0.00195312 9.94336-0.0410156 9.83008-0.0839844 9.75-0.138672 9.70312-0.205078 9.65625-0.271484 9.61719-0.351562 9.58594-0.445312L8.22656-3.83203C8.0625-4.21484 7.90234-4.55469 7.74609-4.85156 7.58984-5.14844 7.41602-5.39648 7.22461-5.5957 7.0332-5.79492 6.8125-5.94531 6.5625-6.04688 6.3125-6.14844 6.02344-6.19922 5.69531-6.19922L4.73438-6.19922 4.73438-0.421875C4.73438-0.34375 4.70898-0.273438 4.6582-0.210938 4.60742-0.148438 4.52344-0.0976562 4.40625-0.0585938 4.28906-0.0195312 4.13281 0.0117188 3.9375 0.0351562 3.74219 0.0585937 3.49219 0.0703125 3.1875 0.0703125 2.89062 0.0703125 2.64258 0.0585937 2.44336 0.0351562 2.24414 0.0117188 2.08594-0.0195312 1.96875-0.0585938 1.85156-0.0976562 1.76953-0.148438 1.72266-0.210938 1.67578-0.273438 1.65234-0.34375 1.65234-0.421875L1.65234-14.1914C1.65234-14.5352 1.74023-14.7832 1.91602-14.9355 2.0918-15.0879 2.30859-15.1641 2.56641-15.1641L6.49219-15.1641C6.89062-15.1641 7.21875-15.1562 7.47656-15.1406 7.73437-15.125 7.96875-15.1055 8.17969-15.082 8.78906-14.9961 9.33789-14.8477 9.82617-14.6367 10.3145-14.4258 10.7285-14.1504 11.0684-13.8105 11.4082-13.4707 11.668-13.0684 11.8477-12.6035 12.0273-12.1387 12.1172-11.6055 12.1172-11.0039 12.1172-10.4961 12.0527-10.0332 11.9238-9.61523 11.7949-9.19727 11.6055-8.82422 11.3555-8.49609 11.1055-8.16797 10.7969-7.88281 10.4297-7.64062 10.0625-7.39844 9.64453-7.20312 9.17578-7.05469 9.40234-6.94531 9.61523-6.8125 9.81445-6.65625 10.0137-6.5 10.2012-6.31055 10.377-6.08789 10.5527-5.86523 10.7188-5.61133 10.875-5.32617 11.0312-5.04102 11.1836-4.71875 11.332-4.35938L12.6094-1.37109C12.7266-1.07422 12.8047-0.857422 12.8438-0.720703 12.8828-0.583984 12.9023-0.476562 12.9023-0.398438ZM8.92969-10.6875C8.92969-11.1875 8.81641-11.6094 8.58984-11.9531 8.36328-12.2969 7.99219-12.5391 7.47656-12.6797 7.32031-12.7187 7.14258-12.75 6.94336-12.7734 6.74414-12.7969 6.46875-12.8086 6.11719-12.8086L4.73438-12.8086 4.73438-8.50781 6.30469-8.50781C6.74219-8.50781 7.125-8.56055 7.45312-8.66602 7.78125-8.77148 8.05469-8.91992 8.27344-9.11133 8.49219-9.30273 8.65625-9.53125 8.76562-9.79688 8.875-10.0625 8.92969-10.3594 8.92969-10.6875ZM25.1269-5.73047C25.1269-4.83984 25.0097-4.02734 24.7753-3.29297 24.5409-2.55859 24.1855-1.92578 23.7089-1.39453 23.2323-0.863281 22.6347-0.453125 21.9159-0.164062 21.1972 0.125 20.3573 0.269531 19.3964 0.269531 18.4667 0.269531 17.6581 0.140625 16.9706-0.117188 16.2831-0.375 15.7128-0.75 15.2597-1.24219 14.8066-1.73437 14.4706-2.33984 14.2519-3.05859 14.0331-3.77734 13.9237-4.59766 13.9237-5.51953 13.9237-6.41016 14.0429-7.22461 14.2812-7.96289 14.5195-8.70117 14.8769-9.33398 15.3534-9.86133 15.83-10.3887 16.4257-10.7969 17.1405-11.0859 17.8554-11.375 18.6933-11.5195 19.6542-11.5195 20.5917-11.5195 21.4042-11.3926 22.0917-11.1387 22.7792-10.8848 23.3476-10.5117 23.7968-10.0195 24.246-9.52734 24.58-8.92188 24.7987-8.20312 25.0175-7.48437 25.1269-6.66016 25.1269-5.73047ZM22.0917-5.61328C22.0917-6.12891 22.0507-6.60352 21.9687-7.03711 21.8866-7.4707 21.748-7.84766 21.5527-8.16797 21.3573-8.48828 21.0976-8.73828 20.7734-8.91797 20.4491-9.09766 20.0409-9.1875 19.5487-9.1875 19.1112-9.1875 18.7284-9.10742 18.4003-8.94727 18.0722-8.78711 17.8027-8.55273 17.5917-8.24414 17.3808-7.93555 17.2226-7.56445 17.1171-7.13086 17.0116-6.69727 16.9589-6.20312 16.9589-5.64844 16.9589-5.13281 17.0019-4.6582 17.0878-4.22461 17.1737-3.79102 17.3124-3.41406 17.5038-3.09375 17.6952-2.77344 17.955-2.52539 18.2831-2.34961 18.6112-2.17383 19.0175-2.08594 19.5019-2.08594 19.9472-2.08594 20.3339-2.16602 20.662-2.32617 20.9902-2.48633 21.2597-2.71875 21.4706-3.02344 21.6816-3.32812 21.8378-3.69727 21.9394-4.13086 22.0409-4.56445 22.0917-5.05859 22.0917-5.61328ZM30.343-0.398438C30.343-0.320312 30.3196-0.251953 30.2727-0.193359 30.2258-0.134766 30.1458-0.0859375 30.0325-0.046875 29.9192-0.0078125 29.7688 0.0214844 29.5813 0.0410156 29.3938 0.0605469 29.1555 0.0703125 28.8665 0.0703125 28.5774 0.0703125 28.3391 0.0605469 28.1516 0.0410156 27.9641 0.0214844 27.8137-0.0078125 27.7004-0.046875 27.5872-0.0859375 27.5071-0.134766 27.4602-0.193359 27.4133-0.251953 27.3899-0.320312 27.3899-0.398438L27.3899-15.8086C27.3899-15.8867 27.4133-15.957 27.4602-16.0195 27.5071-16.082 27.5872-16.1348 27.7004-16.1777 27.8137-16.2207 27.9641-16.2539 28.1516-16.2773 28.3391-16.3008 28.5774-16.3125 28.8665-16.3125 29.1555-16.3125 29.3938-16.3008 29.5813-16.2773 29.7688-16.2539 29.9192-16.2207 30.0325-16.1777 30.1458-16.1348 30.2258-16.082 30.2727-16.0195 30.3196-15.957 30.343-15.8867 30.343-15.8086ZM42.8795-5.92969C42.8795-5.57031 42.7994-5.30469 42.6392-5.13281 42.4791-4.96094 42.2584-4.875 41.9771-4.875L35.6139-4.875C35.6139-4.42969 35.6666-4.02539 35.7721-3.66211 35.8775-3.29883 36.0455-2.99023 36.276-2.73633 36.5064-2.48242 36.8033-2.28906 37.1666-2.15625 37.5299-2.02344 37.9654-1.95703 38.4732-1.95703 38.9889-1.95703 39.442-1.99414 39.8326-2.06836 40.2232-2.14258 40.5611-2.22461 40.8463-2.31445 41.1314-2.4043 41.3678-2.48633 41.5553-2.56055 41.7428-2.63477 41.8951-2.67188 42.0123-2.67188 42.0826-2.67188 42.1412-2.6582 42.1881-2.63086 42.2349-2.60352 42.274-2.55469 42.3053-2.48438 42.3365-2.41406 42.358-2.31445 42.3697-2.18555 42.3814-2.05664 42.3873-1.89453 42.3873-1.69922 42.3873-1.52734 42.3834-1.38086 42.3756-1.25977 42.3678-1.13867 42.356-1.03516 42.3404-0.949219 42.3248-0.863281 42.3014-0.791016 42.2701-0.732422 42.2389-0.673828 42.1978-0.617188 42.1471-0.5625 42.0963-0.507812 41.9576-0.433594 41.731-0.339844 41.5045-0.246094 41.2154-0.154297 40.8639-0.0644531 40.5123 0.0253906 40.1099 0.103516 39.6568 0.169922 39.2037 0.236328 38.7193 0.269531 38.2037 0.269531 37.274 0.269531 36.4596 0.152344 35.7603-0.0820312 35.0611-0.316406 34.4771-0.671875 34.0084-1.14844 33.5396-1.625 33.19-2.22656 32.9596-2.95312 32.7291-3.67969 32.6139-4.53125 32.6139-5.50781 32.6139-6.4375 32.7349-7.27539 32.9771-8.02148 33.2193-8.76758 33.5709-9.40039 34.0318-9.91992 34.4928-10.4395 35.0533-10.8359 35.7135-11.1094 36.3736-11.3828 37.1178-11.5195 37.9459-11.5195 38.8209-11.5195 39.5689-11.3906 40.19-11.1328 40.8111-10.875 41.3209-10.5176 41.7193-10.0605 42.1178-9.60352 42.4107-9.0625 42.5982-8.4375 42.7857-7.8125 42.8795-7.13281 42.8795-6.39844ZM40.0201-6.77344C40.0435-7.60156 39.8775-8.25195 39.5221-8.72461 39.1666-9.19727 38.6178-9.43359 37.8756-9.43359 37.5006-9.43359 37.1744-9.36328 36.8971-9.22266 36.6197-9.08203 36.3892-8.89258 36.2057-8.6543 36.0221-8.41602 35.8814-8.13477 35.7838-7.81055 35.6861-7.48633 35.6295-7.14062 35.6139-6.77344Z" fill="#00664D" transform="translate(21.8777 37)"/><path d="M0.307617-10.7153C2.86426-12.6567 4.92871-14.9741 6.50098-17.6675L8.16211-17.2163C7.84766-16.7036 7.51953-16.2046 7.17773-15.7192L15.4014-15.7192 15.4014-14.2632C14.7725-13.5796 14.1162-12.8618 13.4326-12.1099L19.0107-12.1099 19.0107-0.0922852C19.0107 1.58936 18.2246 2.43018 16.6523 2.43018 15.7773 2.43018 14.7861 2.4165 13.6787 2.38916 13.5967 1.8833 13.501 1.32275 13.3916 0.70752 14.3623 0.775879 15.2441 0.810059 16.0371 0.810059 16.9395 0.810059 17.3906 0.406738 17.3906-0.399902L17.3906-2.43018 11.6689-2.43018 11.6689 2.30713 10.0488 2.30713 10.0488-2.43018 4.27588-2.43018C3.87256-0.0991212 3.09668 1.69189 1.94824 2.94287 1.55176 2.47803 1.1416 2.02002 0.717773 1.56885 2.23535 0.0239258 2.99414-2.69678 2.99414-6.59326L2.99414-10.8896C2.5293-10.459 2.05078-10.0386 1.55859-9.62842 1.18945-9.97021 0.772461-10.3325 0.307617-10.7153ZM13.3301-14.2837 6.11133-14.2837C5.52344-13.5317 4.89453-12.8071 4.22461-12.1099L11.4639-12.1099C12.1475-12.896 12.7695-13.6206 13.3301-14.2837ZM17.3906-10.6333 11.6689-10.6333 11.6689-7.96729 17.3906-7.96729ZM11.6689-3.86572 17.3906-3.86572 17.3906-6.53174 11.6689-6.53174ZM4.48096-3.86572 10.0488-3.86572 10.0488-6.53174 4.61426-6.53174C4.60742-5.58154 4.56299-4.69287 4.48096-3.86572ZM4.61426-10.6333 4.61426-7.96729 10.0488-7.96729 10.0488-10.6333ZM21.5179-10.6743C24.1839-12.6978 26.2962-15.0288 27.8548-17.6675L29.5775-17.2368C29.2083-16.6489 28.8153-16.0747 28.3983-15.5142L36.5091-15.5142 36.5091-14.0581C35.7435-13.1626 34.9437-12.2671 34.1097-11.3716L39.6468-11.3716 39.6468-3.88623 38.0062-3.88623 38.0062-4.604 25.681-4.604 25.681-0.974121C25.681-0.0444336 26.1117 0.42041 26.973 0.42041L38.0472 0.42041C38.9632 0.42041 39.5169 0.133301 39.7083-0.440918 39.9681-1.2749 40.1527-2.3208 40.262-3.57861 40.6585-3.40088 41.2191-3.18896 41.9437-2.94287 41.7523-1.65771 41.554-0.666504 41.349 0.0307617 40.9935 1.32959 39.9954 1.979 38.3548 1.979L26.7884 1.979C24.9564 1.979 24.0404 1.04248 24.0404-0.830566L24.0404-10.7051C23.637-10.3428 23.2201-9.98389 22.7894-9.62842 22.4202-9.97021 21.9964-10.3188 21.5179-10.6743ZM38.0062-9.89502 32.6331-9.89502 32.6331-6.08057 38.0062-6.08057ZM25.681-6.08057 31.0335-6.08057 31.0335-9.89502 25.681-9.89502ZM34.4378-14.0786 27.2703-14.0786C26.4979-13.1421 25.6571-12.2397 24.7479-11.3716L32.1102-11.3716C32.9305-12.3013 33.7064-13.2036 34.4378-14.0786Z" fill="#00664D" transform="translate(22.7111 64)"/></g></g></g><path d="M219.5 252.836C219.5 245.471 225.471 239.5 232.836 239.5L398.164 239.5C405.529 239.5 411.5 245.471 411.5 252.836L411.5 292.164C411.5 299.529 405.529 305.5 398.164 305.5L232.836 305.5C225.471 305.5 219.5 299.529 219.5 292.164Z" stroke="#2B6A77" stroke-width="1.33333" stroke-miterlimit="8" fill="#FFFFFF" fill-rule="evenodd"/><text fill="#00664D" font-family="Calibri,Calibri_MSFontService,sans-serif" font-weight="700" font-size="24" transform="translate(238.049 267)">Role<tspan font-family="Microsoft YaHei,Microsoft YaHei_MSFontService,sans-serif" font-weight="400" font-size="21" x="0.833344" y="27">角色</tspan></text><path d="M449 402 567.759 402 567.759 404 449 404ZM566.426 399 579.759 403 566.426 407Z" fill="#3E92A3"/><path d="M494 403.5C494 393.835 502.059 386 512 386 521.941 386 530 393.835 530 403.5 530 413.165 521.941 421 512 421 502.059 421 494 413.165 494 403.5Z" fill="#3E92A3" fill-rule="evenodd"/><g clip-path="url(#clip29)"><g clip-path="url(#clip30)"><g clip-path="url(#clip31)"><path d="M15.1042 20.9042 15.1042 22.5052 13.8958 22.5052 13.8958 20.9042C13.201 20.6625 12.6875 19.9979 12.6875 19.1823 12.6875 18.1854 13.5031 17.3698 14.5 17.3698 15.4969 17.3698 16.3125 18.1854 16.3125 19.1823 16.3125 19.9677 15.799 20.6323 15.1042 20.9042ZM9.96875 9.81771C9.96875 7.31042 11.9927 5.28646 14.5 5.28646 17.0073 5.28646 19.0312 7.31042 19.0312 9.81771L19.0312 13.1708 14.5 12.8385 9.96875 13.1708 9.96875 9.81771ZM20.8438 13.2917 20.8438 9.81771C20.8438 6.31354 18.0042 3.47396 14.5 3.47396 10.9958 3.47396 8.15625 6.31354 8.15625 9.81771L8.15625 13.2917 6.04167 13.4427 6.04167 24.9219 14.5 25.526 22.9583 24.9219 22.9583 13.4427 20.8438 13.2917Z" fill="#FFFFFF" transform="matrix(1.03448 0 0 1 497 389)"/></g></g></g><path d="M190 374.224 190 271 207.467 271 207.467 273 191 273 192 272 192 374.224ZM206.133 268 219.467 272 206.133 276Z" fill="#3E92A3"/><path d="M133 325.667C133 323.089 135.089 321 137.667 321L225.333 321C227.911 321 230 323.089 230 325.667L230 344.333C230 346.911 227.911 349 225.333 349L137.667 349C135.089 349 133 346.911 133 344.333Z" fill="#3E92A3" fill-rule="evenodd"/><text fill="#FFFFFF" font-family="Microsoft YaHei,Microsoft YaHei_MSFontService,sans-serif" font-weight="400" font-size="15" transform="translate(152.618 340)">分配角色<tspan fill="#000000" font-family="Calibri,Calibri_MSFontService,sans-serif" font-size="24" x="21.1165" y="37">*</tspan><tspan fill="#000000" font-family="Calibri,Calibri_MSFontService,sans-serif" font-size="24" x="50.3242" y="-39">*</tspan><tspan fill="#000000" font-family="Calibri,Calibri_MSFontService,sans-serif" font-size="24" x="267.737" y="-80">*</tspan><tspan fill="#000000" font-family="Calibri,Calibri_MSFontService,sans-serif" font-size="24" x="241.852" y="35">*</tspan><tspan fill="#000000" font-weight="700" font-size="16" x="449.359" y="11">用户可以访问的</tspan><tspan fill="#000000" font-weight="700" font-size="16" x="566.193" y="11">URL</tspan><tspan fill="#00664D" font-family="Wingdings,Wingdings_MSFontService,sans-serif" font-size="16" x="449.359" y="31"></tspan><tspan fill="#00664D" font-size="16" x="479.359" y="31">JSP</tspan><tspan fill="#00664D" font-size="16" x="504.693" y="31">页面</tspan><tspan fill="#00664D" font-family="Wingdings,Wingdings_MSFontService,sans-serif" font-size="16" x="449.359" y="50"></tspan><tspan fill="#00664D" font-size="16" x="479.359" y="50">查看编辑某些数据</tspan><tspan fill="#00664D" font-family="Wingdings,Wingdings_MSFontService,sans-serif" font-size="16" x="449.359" y="69"></tspan><tspan fill="#00664D" font-size="16" x="479.359" y="69">访问某个业务方法</tspan><tspan fill="#00664D" font-family="Wingdings,Wingdings_MSFontService,sans-serif" font-size="16" x="449.359" y="88"></tspan><tspan fill="#00664D" font-size="16" x="479.359" y="88">打印文本</tspan><tspan fill="#00664D" font-family="Wingdings,Wingdings_MSFontService,sans-serif" font-size="16" x="449.359" y="107"></tspan><tspan fill="#00664D" font-size="16" x="479.359" y="107">······</tspan><tspan fill="#00664D" font-family="Wingdings,Wingdings_MSFontService,sans-serif" font-size="16" x="168.177" y="121"></tspan><tspan fill="#00664D" font-size="16" x="198.177" y="121">粗粒度权限</tspan><tspan fill="#00664D" font-family="Wingdings,Wingdings_MSFontService,sans-serif" font-size="16" x="168.177" y="141"></tspan><tspan fill="#00664D" font-size="16" x="198.177" y="141">细粒度权限</tspan><tspan fill="#00664D" font-family="Wingdings,Wingdings_MSFontService,sans-serif" font-size="16" x="151.572" y="-73"></tspan><tspan fill="#00664D" font-size="16" x="181.572" y="-73">隐式角色</tspan><tspan fill="#00664D" font-family="Wingdings,Wingdings_MSFontService,sans-serif" font-size="16" x="151.572" y="-53"></tspan><tspan fill="#00664D" font-size="16" x="181.572" y="-53">显式角色</tspan></text><path d="M0 1-53.3332 1-52.3332 0-52.3332 63.2298-53.3332 62.2298 33.6689 62.2298 33.6689 90.2243 31.6689 90.2243 31.6689 63.2298 32.6689 64.2298-54.3332 64.2298-54.3332-1 0-1ZM36.6689 88.8909 32.6689 102.224 28.6689 88.8909Z" fill="#3E92A3" transform="matrix(-1 0 0 1 410.669 272)"/><path d="M435 294.667C435 292.089 437.089 290 439.667 290L527.333 290C529.911 290 532 292.089 532 294.667L532 313.333C532 315.911 529.911 318 527.333 318L439.667 318C437.089 318 435 315.911 435 313.333Z" fill="#3E92A3" fill-rule="evenodd"/><text fill="#FFFFFF" font-family="Microsoft YaHei,Microsoft YaHei_MSFontService,sans-serif" font-weight="400" font-size="15" transform="translate(453.754 309)">权限集合</text></g></svg>