<svg width="916" height="366" xmlns="http://www.w3.org/2000/svg" xmlns:xlink="http://www.w3.org/1999/xlink" overflow="hidden"><defs><filter id="fx0" x="-10%" y="-10%" width="120%" height="120%" filterUnits="userSpaceOnUse" primitiveUnits="userSpaceOnUse"><feComponentTransfer color-interpolation-filters="sRGB"><feFuncR type="discrete" tableValues="0 0"/><feFuncG type="discrete" tableValues="0 0"/><feFuncB type="discrete" tableValues="0 0"/><feFuncA type="linear" slope="0.4" intercept="0"/></feComponentTransfer><feGaussianBlur stdDeviation="1.77778 1.77778"/></filter><filter id="fx1" x="-10%" y="-10%" width="120%" height="120%" filterUnits="userSpaceOnUse" primitiveUnits="userSpaceOnUse"><feComponentTransfer color-interpolation-filters="sRGB"><feFuncR type="discrete" tableValues="0 0"/><feFuncG type="discrete" tableValues="0 0"/><feFuncB type="discrete" tableValues="0 0"/><feFuncA type="linear" slope="0.4" intercept="0"/></feComponentTransfer><feGaussianBlur stdDeviation="1.77778 1.77778"/></filter><filter id="fx2" x="-10%" y="-10%" width="120%" height="120%" filterUnits="userSpaceOnUse" primitiveUnits="userSpaceOnUse"><feComponentTransfer color-interpolation-filters="sRGB"><feFuncR type="discrete" tableValues="0 0"/><feFuncG type="discrete" tableValues="0 0"/><feFuncB type="discrete" tableValues="0 0"/><feFuncA type="linear" slope="0.4" intercept="0"/></feComponentTransfer><feGaussianBlur stdDeviation="3.11111 3.11111"/></filter><clipPath id="clip3"><rect x="152" y="245" width="916" height="366"/></clipPath><clipPath id="clip4"><path d="M177.869 413.5C168.829 413.5 161.5 420.829 161.5 429.869L161.5 510.131C161.5 519.171 168.829 526.5 177.869 526.5L520.131 526.5C529.171 526.5 536.5 519.171 536.5 510.131L536.5 429.869C536.5 420.829 529.171 413.5 520.131 413.5ZM152 245 1068 245 1068 611 152 611Z" fill-rule="evenodd" clip-rule="evenodd"/></clipPath><clipPath id="clip5"><rect x="-2" y="-2" width="393" height="133"/></clipPath><clipPath id="clip6"><rect x="0" y="0" width="390" height="128"/></clipPath><clipPath id="clip7"><path d="M834.959 264.5C830.839 264.5 827.5 267.839 827.5 271.959L827.5 595.041C827.5 599.161 830.839 602.5 834.959 602.5L1052.04 602.5C1056.16 602.5 1059.5 599.161 1059.5 595.041L1059.5 271.959C1059.5 267.839 1056.16 264.5 1052.04 264.5ZM152 245 1068 245 1068 611 152 611Z" fill-rule="evenodd" clip-rule="evenodd"/></clipPath><clipPath id="clip8"><rect x="-2" y="-2" width="250" height="356"/></clipPath><clipPath id="clip9"><rect x="0" y="0" width="247" height="353"/></clipPath><linearGradient x1="736.5" y1="325" x2="617.5" y2="325" gradientUnits="userSpaceOnUse" spreadMethod="reflect" id="fill10"><stop offset="0" stop-color="#DCE3CF"/><stop offset="0.011087" stop-color="#DDE4D0"/><stop offset="0.0221739" stop-color="#DEE5D2"/><stop offset="0.0332609" stop-color="#DFE6D4"/><stop offset="0.0443478" stop-color="#E1E7D6"/><stop offset="0.0554348" stop-color="#E2E8D8"/><stop offset="0.0665217" stop-color="#E3E8D9"/><stop offset="0.0776087" stop-color="#E4E9DB"/><stop offset="0.0886957" stop-color="#E5EADD"/><stop offset="0.0997826" stop-color="#E6EBDE"/><stop offset="0.11087" stop-color="#E7ECE0"/><stop offset="0.121957" stop-color="#E8EDE1"/><stop offset="0.133043" stop-color="#E9EEE3"/><stop offset="0.14413" stop-color="#EAEFE4"/><stop offset="0.155217" stop-color="#EBEFE6"/><stop offset="0.166304" stop-color="#ECF0E7"/><stop offset="0.177391" stop-color="#EDF1E8"/><stop offset="0.188478" stop-color="#EEF2EA"/><stop offset="0.199565" stop-color="#EFF2EB"/><stop offset="0.210652" stop-color="#F0F3EC"/><stop offset="0.221739" stop-color="#F1F4ED"/><stop offset="0.232826" stop-color="#F1F4EF"/><stop offset="0.243913" stop-color="#F2F5F0"/><stop offset="0.255" stop-color="#F3F5F1"/><stop offset="0.266087" stop-color="#F3F6F2"/><stop offset="0.277174" stop-color="#F4F7F3"/><stop offset="0.288261" stop-color="#F5F7F4"/><stop offset="0.299348" stop-color="#F5F8F5"/><stop offset="0.310435" stop-color="#F6F8F5"/><stop offset="0.321522" stop-color="#F7F8F6"/><stop offset="0.332609" stop-color="#F7F9F7"/><stop offset="0.343696" stop-color="#F8F9F8"/><stop offset="0.354783" stop-color="#F8FAF8"/><stop offset="0.36587" stop-color="#F9FAF9"/><stop offset="0.376957" stop-color="#F9FAFA"/><stop offset="0.388043" stop-color="#F9FBFA"/><stop offset="0.39913" stop-color="#FAFBFB"/><stop offset="0.410217" stop-color="#FAFBFB"/><stop offset="0.421304" stop-color="#FAFCFC"/><stop offset="0.432391" stop-color="#FBFCFC"/><stop offset="0.443478" stop-color="#FBFCFC"/><stop offset="0.454565" stop-color="#FBFCFD"/><stop offset="0.465652" stop-color="#FBFCFD"/><stop offset="0.476739" stop-color="#FBFCFD"/><stop offset="0.487826" stop-color="#FBFCFD"/><stop offset="0.498913" stop-color="#FBFCFD"/><stop offset="0.51" stop-color="#FCFDFE"/><stop offset="0.520652" stop-color="#FBFCFD"/><stop offset="0.531304" stop-color="#FBFCFD"/><stop offset="0.541956" stop-color="#FBFCFD"/><stop offset="0.552609" stop-color="#FBFCFD"/><stop offset="0.563261" stop-color="#FBFCFD"/><stop offset="0.573913" stop-color="#FBFCFC"/><stop offset="0.584565" stop-color="#FBFCFC"/><stop offset="0.595217" stop-color="#FAFCFC"/><stop offset="0.60587" stop-color="#FAFBFB"/><stop offset="0.616522" stop-color="#FAFBFB"/><stop offset="0.627174" stop-color="#F9FBFA"/><stop offset="0.637826" stop-color="#F9FAFA"/><stop offset="0.648478" stop-color="#F9FAF9"/><stop offset="0.65913" stop-color="#F8FAF8"/><stop offset="0.669783" stop-color="#F8F9F8"/><stop offset="0.680435" stop-color="#F7F9F7"/><stop offset="0.691087" stop-color="#F7F8F6"/><stop offset="0.701739" stop-color="#F6F8F5"/><stop offset="0.712391" stop-color="#F5F8F5"/><stop offset="0.723044" stop-color="#F5F7F4"/><stop offset="0.733696" stop-color="#F4F7F3"/><stop offset="0.744348" stop-color="#F3F6F2"/><stop offset="0.755" stop-color="#F3F5F1"/><stop offset="0.765652" stop-color="#F2F5F0"/><stop offset="0.776304" stop-color="#F1F4EF"/><stop offset="0.786957" stop-color="#F1F4ED"/><stop offset="0.797609" stop-color="#F0F3EC"/><stop offset="0.808261" stop-color="#EFF2EB"/><stop offset="0.818913" stop-color="#EEF2EA"/><stop offset="0.829565" stop-color="#EDF1E8"/><stop offset="0.840217" stop-color="#ECF0E7"/><stop offset="0.85087" stop-color="#EBEFE6"/><stop offset="0.861522" stop-color="#EAEFE4"/><stop offset="0.872174" stop-color="#E9EEE3"/><stop offset="0.882826" stop-color="#E8EDE1"/><stop offset="0.893478" stop-color="#E7ECE0"/><stop offset="0.90413" stop-color="#E6EBDE"/><stop offset="0.914783" stop-color="#E5EADD"/><stop offset="0.925435" stop-color="#E4E9DB"/><stop offset="0.936087" stop-color="#E3E8D9"/><stop offset="0.946739" stop-color="#E2E8D8"/><stop offset="0.957391" stop-color="#E1E7D6"/><stop offset="0.968043" stop-color="#DFE6D4"/><stop offset="0.978696" stop-color="#DEE5D2"/><stop offset="0.989348" stop-color="#DDE4D0"/><stop offset="1" stop-color="#DCE3CF"/></linearGradient><linearGradient x1="784.5" y1="401" x2="571.5" y2="401" gradientUnits="userSpaceOnUse" spreadMethod="reflect" id="fill11"><stop offset="0" stop-color="#AFBCCA"/><stop offset="0.51" stop-color="#FCFDFE"/><stop offset="1" stop-color="#ABB8C6"/></linearGradient><linearGradient x1="736.5" y1="476" x2="617.5" y2="476" gradientUnits="userSpaceOnUse" spreadMethod="reflect" id="fill12"><stop offset="0" stop-color="#C5B8CF"/><stop offset="0.0075" stop-color="#C6B9D0"/><stop offset="0.015" stop-color="#C7BBD1"/><stop offset="0.0225" stop-color="#C9BDD2"/><stop offset="0.03" stop-color="#CABFD4"/><stop offset="0.0375" stop-color="#CCC1D5"/><stop offset="0.045" stop-color="#CDC2D6"/><stop offset="0.0525" stop-color="#CFC4D7"/><stop offset="0.06" stop-color="#D0C6D8"/><stop offset="0.0675" stop-color="#D1C8D9"/><stop offset="0.075" stop-color="#D3C9DB"/><stop offset="0.0825" stop-color="#D4CBDC"/><stop offset="0.09" stop-color="#D5CDDD"/><stop offset="0.0975" stop-color="#D7CEDE"/><stop offset="0.105" stop-color="#D8D0DF"/><stop offset="0.1125" stop-color="#D9D1E0"/><stop offset="0.12" stop-color="#DAD3E1"/><stop offset="0.1275" stop-color="#DBD4E2"/><stop offset="0.135" stop-color="#DDD6E3"/><stop offset="0.1425" stop-color="#DED7E4"/><stop offset="0.15" stop-color="#DFD9E5"/><stop offset="0.1575" stop-color="#E0DAE6"/><stop offset="0.165" stop-color="#E1DBE7"/><stop offset="0.1725" stop-color="#E2DDE8"/><stop offset="0.18" stop-color="#E3DEE9"/><stop offset="0.1875" stop-color="#E4DFEA"/><stop offset="0.195" stop-color="#E5E1EA"/><stop offset="0.2025" stop-color="#E6E2EB"/><stop offset="0.21" stop-color="#E7E3EC"/><stop offset="0.2175" stop-color="#E8E4ED"/><stop offset="0.225" stop-color="#E9E5EE"/><stop offset="0.2325" stop-color="#EAE6EE"/><stop offset="0.24" stop-color="#EBE8EF"/><stop offset="0.2475" stop-color="#ECE9F0"/><stop offset="0.255" stop-color="#EDEAF1"/><stop offset="0.2625" stop-color="#EDEBF1"/><stop offset="0.27" stop-color="#EEECF2"/><stop offset="0.2775" stop-color="#EFEDF3"/><stop offset="0.285" stop-color="#F0EEF3"/><stop offset="0.2925" stop-color="#F0EFF4"/><stop offset="0.3" stop-color="#F1EFF5"/><stop offset="0.3075" stop-color="#F2F0F5"/><stop offset="0.315" stop-color="#F2F1F6"/><stop offset="0.3225" stop-color="#F3F2F6"/><stop offset="0.33" stop-color="#F4F3F7"/><stop offset="0.3375" stop-color="#F4F3F7"/><stop offset="0.345" stop-color="#F5F4F8"/><stop offset="0.3525" stop-color="#F5F5F8"/><stop offset="0.36" stop-color="#F6F6F9"/><stop offset="0.3675" stop-color="#F6F6F9"/><stop offset="0.375" stop-color="#F7F7FA"/><stop offset="0.3825" stop-color="#F7F7FA"/><stop offset="0.39" stop-color="#F8F8FA"/><stop offset="0.3975" stop-color="#F8F8FB"/><stop offset="0.405" stop-color="#F9F9FB"/><stop offset="0.4125" stop-color="#F9F9FB"/><stop offset="0.42" stop-color="#F9FAFC"/><stop offset="0.4275" stop-color="#FAFAFC"/><stop offset="0.435" stop-color="#FAFBFC"/><stop offset="0.4425" stop-color="#FAFBFC"/><stop offset="0.45" stop-color="#FBFBFD"/><stop offset="0.4575" stop-color="#FBFCFD"/><stop offset="0.465" stop-color="#FBFCFD"/><stop offset="0.4725" stop-color="#FBFCFD"/><stop offset="0.48" stop-color="#FBFCFD"/><stop offset="0.4875" stop-color="#FBFCFD"/><stop offset="0.495" stop-color="#FBFCFD"/><stop offset="0.5025" stop-color="#FBFCFD"/><stop offset="0.51" stop-color="#FCFDFE"/><stop offset="0.517206" stop-color="#FBFCFD"/><stop offset="0.524412" stop-color="#FBFCFD"/><stop offset="0.531618" stop-color="#FBFCFD"/><stop offset="0.538824" stop-color="#FBFCFD"/><stop offset="0.546029" stop-color="#FBFCFD"/><stop offset="0.553235" stop-color="#FBFCFD"/><stop offset="0.560441" stop-color="#FBFCFD"/><stop offset="0.567647" stop-color="#FBFBFD"/><stop offset="0.574853" stop-color="#FAFBFC"/><stop offset="0.582059" stop-color="#FAFBFC"/><stop offset="0.589265" stop-color="#FAFAFC"/><stop offset="0.596471" stop-color="#F9FAFC"/><stop offset="0.603676" stop-color="#F9F9FB"/><stop offset="0.610882" stop-color="#F9F9FB"/><stop offset="0.618088" stop-color="#F8F8FB"/><stop offset="0.625294" stop-color="#F8F8FA"/><stop offset="0.6325" stop-color="#F7F7FA"/><stop offset="0.639706" stop-color="#F7F7FA"/><stop offset="0.646912" stop-color="#F6F6F9"/><stop offset="0.654118" stop-color="#F6F6F9"/><stop offset="0.661324" stop-color="#F5F5F8"/><stop offset="0.668529" stop-color="#F5F4F8"/><stop offset="0.675735" stop-color="#F4F3F7"/><stop offset="0.682941" stop-color="#F4F3F7"/><stop offset="0.690147" stop-color="#F3F2F6"/><stop offset="0.697353" stop-color="#F2F1F6"/><stop offset="0.704559" stop-color="#F2F0F5"/><stop offset="0.711765" stop-color="#F1EFF5"/><stop offset="0.718971" stop-color="#F0EFF4"/><stop offset="0.726177" stop-color="#F0EEF3"/><stop offset="0.733382" stop-color="#EFEDF3"/><stop offset="0.740588" stop-color="#EEECF2"/><stop offset="0.747794" stop-color="#EDEBF1"/><stop offset="0.755" stop-color="#EDEAF1"/><stop offset="0.762206" stop-color="#ECE9F0"/><stop offset="0.769412" stop-color="#EBE8EF"/><stop offset="0.776618" stop-color="#EAE6EE"/><stop offset="0.783823" stop-color="#E9E5EE"/><stop offset="0.791029" stop-color="#E8E4ED"/><stop offset="0.798235" stop-color="#E7E3EC"/><stop offset="0.805441" stop-color="#E6E2EB"/><stop offset="0.812647" stop-color="#E5E1EA"/><stop offset="0.819853" stop-color="#E4DFEA"/><stop offset="0.827059" stop-color="#E3DEE9"/><stop offset="0.834265" stop-color="#E2DDE8"/><stop offset="0.841471" stop-color="#E1DBE7"/><stop offset="0.848676" stop-color="#E0DAE6"/><stop offset="0.855882" stop-color="#DFD9E5"/><stop offset="0.863088" stop-color="#DED7E4"/><stop offset="0.870294" stop-color="#DDD6E3"/><stop offset="0.8775" stop-color="#DBD4E2"/><stop offset="0.884706" stop-color="#DAD3E1"/><stop offset="0.891912" stop-color="#D9D1E0"/><stop offset="0.899118" stop-color="#D8D0DF"/><stop offset="0.906324" stop-color="#D7CEDE"/><stop offset="0.913529" stop-color="#D5CDDD"/><stop offset="0.920735" stop-color="#D4CBDC"/><stop offset="0.927941" stop-color="#D3C9DB"/><stop offset="0.935147" stop-color="#D1C8D9"/><stop offset="0.942353" stop-color="#D0C6D8"/><stop offset="0.949559" stop-color="#CFC4D7"/><stop offset="0.956765" stop-color="#CDC2D6"/><stop offset="0.963971" stop-color="#CCC1D5"/><stop offset="0.971177" stop-color="#CABFD4"/><stop offset="0.978382" stop-color="#C9BDD2"/><stop offset="0.985588" stop-color="#C7BBD1"/><stop offset="0.992794" stop-color="#C6B9D0"/><stop offset="1" stop-color="#C5B8CF"/></linearGradient><linearGradient x1="943" y1="379.5" x2="943" y2="420.5" gradientUnits="userSpaceOnUse" spreadMethod="reflect" id="fill13"><stop offset="0" stop-color="#FFF7F6"/><stop offset="0.54" stop-color="#F9C7C6"/><stop offset="1" stop-color="#F39C9B"/></linearGradient><linearGradient x1="943" y1="433.5" x2="943" y2="474.5" gradientUnits="userSpaceOnUse" spreadMethod="reflect" id="fill14"><stop offset="0" stop-color="#FEEBC8"/><stop offset="0.54" stop-color="#F2D8AA"/><stop offset="1" stop-color="#E4C080"/></linearGradient><linearGradient x1="943" y1="487.5" x2="943" y2="528.5" gradientUnits="userSpaceOnUse" spreadMethod="reflect" id="fill15"><stop offset="0" stop-color="#FDFDF8"/><stop offset="0.54" stop-color="#EFEEE9"/><stop offset="1" stop-color="#C5C4BE"/></linearGradient><linearGradient x1="943" y1="541.5" x2="943" y2="582.5" gradientUnits="userSpaceOnUse" spreadMethod="reflect" id="fill16"><stop offset="0" stop-color="#F5FAFE"/><stop offset="0.54" stop-color="#BEE3E6"/><stop offset="1" stop-color="#70C6C6"/></linearGradient><linearGradient x1="943" y1="289.5" x2="943" y2="366.5" gradientUnits="userSpaceOnUse" spreadMethod="reflect" id="fill17"><stop offset="0" stop-color="#DFEBFE"/><stop offset="0.54" stop-color="#C6D7F9"/><stop offset="1" stop-color="#99B5F1"/></linearGradient><linearGradient x1="1029.5" y1="344.5" x2="857.5" y2="344.5" gradientUnits="userSpaceOnUse" spreadMethod="reflect" id="fill18"><stop offset="0" stop-color="#AFBCCA"/><stop offset="0.51" stop-color="#FCFDFE"/><stop offset="1" stop-color="#ABB8C6"/></linearGradient><linearGradient x1="216.5" y1="422.5" x2="216.5" y2="517.5" gradientUnits="userSpaceOnUse" spreadMethod="reflect" id="fill19"><stop offset="0" stop-color="#F9F5FC"/><stop offset="0.54" stop-color="#C2A8DE"/><stop offset="0.95" stop-color="#B19ECC"/><stop offset="1" stop-color="#B19ECC"/></linearGradient><linearGradient x1="247.5" y1="499" x2="185.5" y2="499" gradientUnits="userSpaceOnUse" spreadMethod="reflect" id="fill20"><stop offset="0" stop-color="#AFBCCA"/><stop offset="0.51" stop-color="#FCFDFE"/><stop offset="1" stop-color="#ABB8C6"/></linearGradient><linearGradient x1="323.5" y1="422.5" x2="323.5" y2="517.5" gradientUnits="userSpaceOnUse" spreadMethod="reflect" id="fill21"><stop offset="0" stop-color="#F9F5FC"/><stop offset="0.54" stop-color="#C2A8DE"/><stop offset="0.95" stop-color="#B19ECC"/><stop offset="1" stop-color="#B19ECC"/></linearGradient><linearGradient x1="354.5" y1="499" x2="292.5" y2="499" gradientUnits="userSpaceOnUse" spreadMethod="reflect" id="fill22"><stop offset="0" stop-color="#AFBCCA"/><stop offset="0.51" stop-color="#FCFDFE"/><stop offset="1" stop-color="#ABB8C6"/></linearGradient><linearGradient x1="476.5" y1="422.5" x2="476.5" y2="517.5" gradientUnits="userSpaceOnUse" spreadMethod="reflect" id="fill23"><stop offset="0" stop-color="#F9F5FC"/><stop offset="0.54" stop-color="#C2A8DE"/><stop offset="0.95" stop-color="#B19ECC"/><stop offset="1" stop-color="#B19ECC"/></linearGradient><linearGradient x1="511.5" y1="499" x2="441.5" y2="499" gradientUnits="userSpaceOnUse" spreadMethod="reflect" id="fill24"><stop offset="0" stop-color="#AFBCCA"/><stop offset="0.51" stop-color="#FCFDFE"/><stop offset="1" stop-color="#ABB8C6"/></linearGradient><linearGradient x1="217" y1="544.5" x2="217" y2="594.5" gradientUnits="userSpaceOnUse" spreadMethod="reflect" id="fill25"><stop offset="0" stop-color="#FCFDFE"/><stop offset="0.025" stop-color="#FBFCFD"/><stop offset="0.05" stop-color="#FBFCFD"/><stop offset="0.075" stop-color="#FBFCFD"/><stop offset="0.1" stop-color="#FBFCFD"/><stop offset="0.125" stop-color="#FBFCFD"/><stop offset="0.15" stop-color="#FBFCFC"/><stop offset="0.175" stop-color="#FAFBFC"/><stop offset="0.2" stop-color="#FAFBFB"/><stop offset="0.225" stop-color="#F9FAFB"/><stop offset="0.25" stop-color="#F9FAFA"/><stop offset="0.275" stop-color="#F9F9FA"/><stop offset="0.3" stop-color="#F8F9F9"/><stop offset="0.325" stop-color="#F7F8F9"/><stop offset="0.35" stop-color="#F7F8F8"/><stop offset="0.375" stop-color="#F6F7F7"/><stop offset="0.4" stop-color="#F6F6F6"/><stop offset="0.425" stop-color="#F5F5F5"/><stop offset="0.45" stop-color="#F4F5F4"/><stop offset="0.475" stop-color="#F3F4F3"/><stop offset="0.5" stop-color="#F3F3F2"/><stop offset="0.525" stop-color="#F2F2F1"/><stop offset="0.55" stop-color="#F1F1F0"/><stop offset="0.575" stop-color="#F0F0EF"/><stop offset="0.6" stop-color="#EFEFEE"/><stop offset="0.625" stop-color="#EEEEED"/><stop offset="0.65" stop-color="#EDEDEB"/><stop offset="0.675" stop-color="#ECECEA"/><stop offset="0.7" stop-color="#EBEBE8"/><stop offset="0.725" stop-color="#E9E9E7"/><stop offset="0.75" stop-color="#E8E8E6"/><stop offset="0.775" stop-color="#E7E7E4"/><stop offset="0.8" stop-color="#E6E5E3"/><stop offset="0.825" stop-color="#E4E4E1"/><stop offset="0.85" stop-color="#E3E3DF"/><stop offset="0.875" stop-color="#E2E1DE"/><stop offset="0.9" stop-color="#E0E0DC"/><stop offset="0.925" stop-color="#DFDEDA"/><stop offset="0.95" stop-color="#DEDDD8"/><stop offset="0.975" stop-color="#DCDBD6"/><stop offset="1" stop-color="#DBDAD5"/></linearGradient><linearGradient x1="323" y1="544.5" x2="323" y2="594.5" gradientUnits="userSpaceOnUse" spreadMethod="reflect" id="fill26"><stop offset="0" stop-color="#FCFDFE"/><stop offset="0.025" stop-color="#FBFCFD"/><stop offset="0.05" stop-color="#FBFCFD"/><stop offset="0.075" stop-color="#FBFCFD"/><stop offset="0.1" stop-color="#FBFCFD"/><stop offset="0.125" stop-color="#FBFCFD"/><stop offset="0.15" stop-color="#FBFCFC"/><stop offset="0.175" stop-color="#FAFBFC"/><stop offset="0.2" stop-color="#FAFBFB"/><stop offset="0.225" stop-color="#F9FAFB"/><stop offset="0.25" stop-color="#F9FAFA"/><stop offset="0.275" stop-color="#F9F9FA"/><stop offset="0.3" stop-color="#F8F9F9"/><stop offset="0.325" stop-color="#F7F8F9"/><stop offset="0.35" stop-color="#F7F8F8"/><stop offset="0.375" stop-color="#F6F7F7"/><stop offset="0.4" stop-color="#F6F6F6"/><stop offset="0.425" stop-color="#F5F5F5"/><stop offset="0.45" stop-color="#F4F5F4"/><stop offset="0.475" stop-color="#F3F4F3"/><stop offset="0.5" stop-color="#F3F3F2"/><stop offset="0.525" stop-color="#F2F2F1"/><stop offset="0.55" stop-color="#F1F1F0"/><stop offset="0.575" stop-color="#F0F0EF"/><stop offset="0.6" stop-color="#EFEFEE"/><stop offset="0.625" stop-color="#EEEEED"/><stop offset="0.65" stop-color="#EDEDEB"/><stop offset="0.675" stop-color="#ECECEA"/><stop offset="0.7" stop-color="#EBEBE8"/><stop offset="0.725" stop-color="#E9E9E7"/><stop offset="0.75" stop-color="#E8E8E6"/><stop offset="0.775" stop-color="#E7E7E4"/><stop offset="0.8" stop-color="#E6E5E3"/><stop offset="0.825" stop-color="#E4E4E1"/><stop offset="0.85" stop-color="#E3E3DF"/><stop offset="0.875" stop-color="#E2E1DE"/><stop offset="0.9" stop-color="#E0E0DC"/><stop offset="0.925" stop-color="#DFDEDA"/><stop offset="0.95" stop-color="#DEDDD8"/><stop offset="0.975" stop-color="#DCDBD6"/><stop offset="1" stop-color="#DBDAD5"/></linearGradient><linearGradient x1="476" y1="544.5" x2="476" y2="594.5" gradientUnits="userSpaceOnUse" spreadMethod="reflect" id="fill27"><stop offset="0" stop-color="#FCFDFE"/><stop offset="0.025" stop-color="#FBFCFD"/><stop offset="0.05" stop-color="#FBFCFD"/><stop offset="0.075" stop-color="#FBFCFD"/><stop offset="0.1" stop-color="#FBFCFD"/><stop offset="0.125" stop-color="#FBFCFD"/><stop offset="0.15" stop-color="#FBFCFC"/><stop offset="0.175" stop-color="#FAFBFC"/><stop offset="0.2" stop-color="#FAFBFB"/><stop offset="0.225" stop-color="#F9FAFB"/><stop offset="0.25" stop-color="#F9FAFA"/><stop offset="0.275" stop-color="#F9F9FA"/><stop offset="0.3" stop-color="#F8F9F9"/><stop offset="0.325" stop-color="#F7F8F9"/><stop offset="0.35" stop-color="#F7F8F8"/><stop offset="0.375" stop-color="#F6F7F7"/><stop offset="0.4" stop-color="#F6F6F6"/><stop offset="0.425" stop-color="#F5F5F5"/><stop offset="0.45" stop-color="#F4F5F4"/><stop offset="0.475" stop-color="#F3F4F3"/><stop offset="0.5" stop-color="#F3F3F2"/><stop offset="0.525" stop-color="#F2F2F1"/><stop offset="0.55" stop-color="#F1F1F0"/><stop offset="0.575" stop-color="#F0F0EF"/><stop offset="0.6" stop-color="#EFEFEE"/><stop offset="0.625" stop-color="#EEEEED"/><stop offset="0.65" stop-color="#EDEDEB"/><stop offset="0.675" stop-color="#ECECEA"/><stop offset="0.7" stop-color="#EBEBE8"/><stop offset="0.725" stop-color="#E9E9E7"/><stop offset="0.75" stop-color="#E8E8E6"/><stop offset="0.775" stop-color="#E7E7E4"/><stop offset="0.8" stop-color="#E6E5E3"/><stop offset="0.825" stop-color="#E4E4E1"/><stop offset="0.85" stop-color="#E3E3DF"/><stop offset="0.875" stop-color="#E2E1DE"/><stop offset="0.9" stop-color="#E0E0DC"/><stop offset="0.925" stop-color="#DFDEDA"/><stop offset="0.95" stop-color="#DEDDD8"/><stop offset="0.975" stop-color="#DCDBD6"/><stop offset="1" stop-color="#DBDAD5"/></linearGradient><clipPath id="clip28"><path d="M231.979 299.5C227.296 299.5 223.5 303.296 223.5 307.979L223.5 343.021C223.5 347.704 227.296 351.5 231.979 351.5L428.022 351.5C432.704 351.5 436.5 347.704 436.5 343.021L436.5 307.979C436.5 303.296 432.704 299.5 428.022 299.5ZM152 245 1068 245 1068 611 152 611Z" fill-rule="evenodd" clip-rule="evenodd"/></clipPath><clipPath id="clip29"><rect x="-2" y="-2" width="241" height="80"/></clipPath><clipPath id="clip30"><rect x="0" y="0" width="240" height="76"/></clipPath><linearGradient x1="436.5" y1="325.5" x2="223.5" y2="325.5" gradientUnits="userSpaceOnUse" spreadMethod="reflect" id="fill31"><stop offset="0" stop-color="#E2E2E2"/><stop offset="0.0188889" stop-color="#E3E3E3"/><stop offset="0.0377778" stop-color="#E5E5E5"/><stop offset="0.0566667" stop-color="#E7E7E7"/><stop offset="0.0755556" stop-color="#E8E9E9"/><stop offset="0.0944444" stop-color="#EAEAEA"/><stop offset="0.113333" stop-color="#EBECEC"/><stop offset="0.132222" stop-color="#EDEDEE"/><stop offset="0.151111" stop-color="#EEEFEF"/><stop offset="0.17" stop-color="#EFF0F0"/><stop offset="0.188889" stop-color="#F1F1F2"/><stop offset="0.207778" stop-color="#F2F2F3"/><stop offset="0.226667" stop-color="#F3F4F4"/><stop offset="0.245556" stop-color="#F4F5F5"/><stop offset="0.264444" stop-color="#F5F6F6"/><stop offset="0.283333" stop-color="#F6F7F7"/><stop offset="0.302222" stop-color="#F7F7F8"/><stop offset="0.321111" stop-color="#F7F8F9"/><stop offset="0.34" stop-color="#F8F9FA"/><stop offset="0.358889" stop-color="#F9FAFB"/><stop offset="0.377778" stop-color="#F9FAFB"/><stop offset="0.396667" stop-color="#FAFBFC"/><stop offset="0.415556" stop-color="#FAFBFC"/><stop offset="0.434444" stop-color="#FBFCFD"/><stop offset="0.453333" stop-color="#FBFCFD"/><stop offset="0.472222" stop-color="#FBFCFD"/><stop offset="0.491111" stop-color="#FBFCFD"/><stop offset="0.51" stop-color="#FCFDFE"/><stop offset="0.528148" stop-color="#FBFCFD"/><stop offset="0.546296" stop-color="#FBFCFD"/><stop offset="0.564444" stop-color="#FBFCFD"/><stop offset="0.582593" stop-color="#FBFCFD"/><stop offset="0.600741" stop-color="#FAFBFC"/><stop offset="0.618889" stop-color="#FAFBFC"/><stop offset="0.637037" stop-color="#F9FAFB"/><stop offset="0.655185" stop-color="#F9FAFB"/><stop offset="0.673333" stop-color="#F8F9FA"/><stop offset="0.691481" stop-color="#F7F8F9"/><stop offset="0.70963" stop-color="#F7F7F8"/><stop offset="0.727778" stop-color="#F6F7F7"/><stop offset="0.745926" stop-color="#F5F6F6"/><stop offset="0.764074" stop-color="#F4F5F5"/><stop offset="0.782222" stop-color="#F3F4F4"/><stop offset="0.80037" stop-color="#F2F2F3"/><stop offset="0.818519" stop-color="#F1F1F2"/><stop offset="0.836667" stop-color="#EFF0F0"/><stop offset="0.854815" stop-color="#EEEFEF"/><stop offset="0.872963" stop-color="#EDEDEE"/><stop offset="0.891111" stop-color="#EBECEC"/><stop offset="0.909259" stop-color="#EAEAEA"/><stop offset="0.927407" stop-color="#E8E9E9"/><stop offset="0.945556" stop-color="#E7E7E7"/><stop offset="0.963704" stop-color="#E5E5E5"/><stop offset="0.981852" stop-color="#E3E3E3"/><stop offset="1" stop-color="#E2E2E2"/></linearGradient><linearGradient x1="559.5" y1="324" x2="497.5" y2="324" gradientUnits="userSpaceOnUse" spreadMethod="reflect" id="fill32"><stop offset="0" stop-color="#AFBCCA"/><stop offset="0.51" stop-color="#FCFDFE"/><stop offset="1" stop-color="#ABB8C6"/></linearGradient><linearGradient x1="559.5" y1="291.5" x2="497.5" y2="291.5" gradientUnits="userSpaceOnUse" spreadMethod="reflect" id="fill33"><stop offset="0" stop-color="#AFBCCA"/><stop offset="0.51" stop-color="#FCFDFE"/><stop offset="1" stop-color="#ABB8C6"/></linearGradient><linearGradient x1="559.5" y1="259" x2="497.5" y2="259" gradientUnits="userSpaceOnUse" spreadMethod="reflect" id="fill34"><stop offset="0" stop-color="#AFBCCA"/><stop offset="0.51" stop-color="#FCFDFE"/><stop offset="1" stop-color="#ABB8C6"/></linearGradient><linearGradient x1="557.5" y1="357.5" x2="496.5" y2="357.5" gradientUnits="userSpaceOnUse" spreadMethod="reflect" id="fill35"><stop offset="0" stop-color="#AFBCCA"/><stop offset="0.51" stop-color="#FCFDFE"/><stop offset="1" stop-color="#ABB8C6"/></linearGradient></defs><g clip-path="url(#clip3)" transform="translate(-152 -245)"><path d="M0.0356622 42.6334 101.872 0C102.386 81.8025 101.152 28.1975 101.667 110L0 83.1303 0.0356622 42.6334Z" fill="#DDD6E3" fill-rule="evenodd" transform="matrix(-1 0 0 1 625 413)"/><g clip-path="url(#clip4)"><g clip-path="url(#clip5)" filter="url(#fx0)" transform="translate(151 403)"><g clip-path="url(#clip6)"><path d="M7.67163 24.041C7.67163 15.0004 15.0004 7.67163 24.041 7.67163L366.302 7.67163C375.343 7.67163 382.672 15.0004 382.672 24.041L382.672 104.302C382.672 113.343 375.343 120.672 366.302 120.672L24.041 120.672C15.0004 120.672 7.67163 113.343 7.67163 104.302Z" stroke="#DDD6E3" stroke-miterlimit="8" fill="#FFFFFF" fill-rule="evenodd"/></g></g></g><path d="M161.5 429.869C161.5 420.829 168.829 413.5 177.869 413.5L520.131 413.5C529.171 413.5 536.5 420.829 536.5 429.869L536.5 510.131C536.5 519.171 529.171 526.5 520.131 526.5L177.869 526.5C168.829 526.5 161.5 519.171 161.5 510.131Z" stroke="#DDD6E3" stroke-width="1.33333" stroke-miterlimit="8" fill="#FFFFFF" fill-rule="evenodd"/><path d="M779.52 376.71 832 264 832 602 777 419.637 779.52 376.71Z" fill="#B5C1CE" fill-rule="evenodd"/><g clip-path="url(#clip7)"><g clip-path="url(#clip8)" filter="url(#fx1)" transform="translate(823 260)"><g clip-path="url(#clip9)"><path d="M7.32849 14.7871C7.32849 10.6678 10.6678 7.32849 14.7871 7.32849L231.87 7.32849C235.989 7.32849 239.328 10.6678 239.328 14.7871L239.328 337.87C239.328 341.989 235.989 345.328 231.87 345.328L14.7871 345.328C10.6678 345.328 7.32849 341.989 7.32849 337.87Z" stroke="#B5C1CE" stroke-miterlimit="8" fill="#FFFFFF" fill-rule="evenodd"/></g></g></g><path d="M827.5 271.959C827.5 267.839 830.839 264.5 834.959 264.5L1052.04 264.5C1056.16 264.5 1059.5 267.839 1059.5 271.959L1059.5 595.041C1059.5 599.161 1056.16 602.5 1052.04 602.5L834.959 602.5C830.839 602.5 827.5 599.161 827.5 595.041Z" stroke="#B5C1CE" stroke-width="1.33333" stroke-miterlimit="8" fill="#FFFFFF" fill-rule="evenodd"/><path d="M617.5 325C617.5 313.678 626.678 304.5 638 304.5L716 304.5C727.322 304.5 736.5 313.678 736.5 325L736.5 325C736.5 336.322 727.322 345.5 716 345.5L638 345.5C626.678 345.5 617.5 336.322 617.5 325Z" stroke="#000000" stroke-width="1.33333" stroke-miterlimit="8" fill="url(#fill10)" fill-rule="evenodd"/><text font-family="Calibri,Calibri_MSFontService,sans-serif" font-weight="400" font-size="24" transform="translate(640.721 332)">Subject</text><path d="M571.5 387.185C571.5 383.493 574.493 380.5 578.185 380.5L777.815 380.5C781.507 380.5 784.5 383.493 784.5 387.185L784.5 414.815C784.5 418.507 781.507 421.5 777.815 421.5L578.185 421.5C574.493 421.5 571.5 418.507 571.5 414.815Z" stroke="#000000" stroke-width="1.33333" stroke-miterlimit="8" fill="url(#fill11)" fill-rule="evenodd"/><text font-family="Calibri,Calibri_MSFontService,sans-serif" font-weight="400" font-size="24" transform="translate(591.279 408)">Security Manager</text><path d="M617.5 463.409C617.5 459.041 621.041 455.5 625.409 455.5L728.592 455.5C732.959 455.5 736.5 459.041 736.5 463.409L736.5 488.592C736.5 492.959 732.959 496.5 728.592 496.5L625.409 496.5C621.041 496.5 617.5 492.959 617.5 488.592Z" stroke="#000000" stroke-width="1.33333" stroke-miterlimit="8" fill="url(#fill12)" fill-rule="evenodd"/><text font-family="Calibri,Calibri_MSFontService,sans-serif" font-weight="400" font-size="24" transform="translate(646.431 483)">Realm</text><path d="M844.5 387.409C844.5 383.041 848.041 379.5 852.409 379.5L1033.59 379.5C1037.96 379.5 1041.5 383.041 1041.5 387.409L1041.5 412.592C1041.5 416.959 1037.96 420.5 1033.59 420.5L852.409 420.5C848.041 420.5 844.5 416.959 844.5 412.592Z" stroke="#CE645F" stroke-width="3" stroke-miterlimit="8" fill="url(#fill13)" fill-rule="evenodd"/><text font-family="Calibri,Calibri_MSFontService,sans-serif" font-weight="400" font-size="24" transform="translate(891.395 407)">Authorizer</text><path d="M844.5 441.409C844.5 437.041 848.041 433.5 852.409 433.5L1033.59 433.5C1037.96 433.5 1041.5 437.041 1041.5 441.409L1041.5 466.592C1041.5 470.959 1037.96 474.5 1033.59 474.5L852.409 474.5C848.041 474.5 844.5 470.959 844.5 466.592Z" stroke="#C99027" stroke-width="3" stroke-miterlimit="8" fill="url(#fill14)" fill-rule="evenodd"/><text font-family="Calibri,Calibri_MSFontService,sans-serif" font-weight="400" font-size="24" transform="translate(860.058 461)">Session Manager</text><path d="M844.5 495.409C844.5 491.041 848.041 487.5 852.409 487.5L1033.59 487.5C1037.96 487.5 1041.5 491.041 1041.5 495.409L1041.5 520.592C1041.5 524.959 1037.96 528.5 1033.59 528.5L852.409 528.5C848.041 528.5 844.5 524.959 844.5 520.592Z" stroke="#A8AAAF" stroke-width="3" stroke-miterlimit="8" fill="url(#fill15)" fill-rule="evenodd"/><text font-family="Calibri,Calibri_MSFontService,sans-serif" font-weight="400" font-size="24" transform="translate(866.725 515)">Cache Manager</text><path d="M844.5 549.409C844.5 545.041 848.041 541.5 852.409 541.5L1033.59 541.5C1037.96 541.5 1041.5 545.041 1041.5 549.409L1041.5 574.592C1041.5 578.959 1037.96 582.5 1033.59 582.5L852.409 582.5C848.041 582.5 844.5 578.959 844.5 574.592Z" stroke="#4795AC" stroke-width="3" stroke-miterlimit="8" fill="url(#fill16)" fill-rule="evenodd"/><text font-family="Calibri,Calibri_MSFontService,sans-serif" font-weight="400" font-size="24" transform="translate(877.122 569)">Cryptography</text><path d="M844.5 297.984C844.5 293.298 848.298 289.5 852.984 289.5L1033.02 289.5C1037.7 289.5 1041.5 293.298 1041.5 297.984L1041.5 358.016C1041.5 362.702 1037.7 366.5 1033.02 366.5L852.984 366.5C848.298 366.5 844.5 362.702 844.5 358.016Z" stroke="#7587CC" stroke-width="3" stroke-miterlimit="8" fill="url(#fill17)" fill-rule="evenodd"/><text font-family="Calibri,Calibri_MSFontService,sans-serif" font-weight="400" font-size="24" transform="translate(875.312 321)">Authenticator</text><path d="M857.5 341.604C857.5 337.681 860.681 334.5 864.604 334.5L1022.4 334.5C1026.32 334.5 1029.5 337.681 1029.5 341.604L1029.5 347.396C1029.5 351.319 1026.32 354.5 1022.4 354.5L864.604 354.5C860.681 354.5 857.5 351.319 857.5 347.396Z" stroke="#000000" stroke-width="1.33333" stroke-miterlimit="8" fill="url(#fill18)" fill-rule="evenodd"/><text font-family="Calibri,Calibri_MSFontService,sans-serif" font-weight="400" font-size="15" transform="translate(872.292 350)">Authentication Strategy</text><path d="M677.833 345.497 678.023 367.799 677.356 367.805 677.167 345.503ZM681.678 366.434 677.792 379.801 673.678 366.502Z"/><path d="M0.333321-0.00283312 0.522878 22.2988-0.143765 22.3045-0.333321 0.00283312ZM4.17808 20.9344 0.291549 34.3012-3.82163 21.0024Z" transform="matrix(-1 0 0 1 677.792 421.5)"/><path d="M170.5 434.044C170.5 427.669 175.669 422.5 182.044 422.5L250.956 422.5C257.332 422.5 262.5 427.669 262.5 434.044L262.5 505.956C262.5 512.332 257.332 517.5 250.956 517.5L182.044 517.5C175.669 517.5 170.5 512.332 170.5 505.956Z" stroke="#8E65AC" stroke-width="3" stroke-miterlimit="8" fill="url(#fill19)" fill-rule="evenodd"/><text font-family="Calibri,Calibri_MSFontService,sans-serif" font-weight="400" font-size="24" transform="translate(192.047 449)">JDBC <tspan font-size="24" x="-6.20668" y="29">Realm</tspan></text><path d="M185.5 499C185.5 493.201 190.201 488.5 196 488.5L237 488.5C242.799 488.5 247.5 493.201 247.5 499L247.5 499C247.5 504.799 242.799 509.5 237 509.5L196 509.5C190.201 509.5 185.5 504.799 185.5 499Z" stroke="#000000" stroke-width="1.33333" stroke-miterlimit="8" fill="url(#fill20)" fill-rule="evenodd"/><text font-family="Calibri,Calibri_MSFontService,sans-serif" font-weight="400" font-size="15" transform="translate(198.214 504)">Cache</text><path d="M277.5 434.044C277.5 427.669 282.669 422.5 289.044 422.5L357.956 422.5C364.332 422.5 369.5 427.669 369.5 434.044L369.5 505.956C369.5 512.332 364.332 517.5 357.956 517.5L289.044 517.5C282.669 517.5 277.5 512.332 277.5 505.956Z" stroke="#8E65AC" stroke-width="3" stroke-miterlimit="8" fill="url(#fill21)" fill-rule="evenodd"/><text font-family="Calibri,Calibri_MSFontService,sans-serif" font-weight="400" font-size="24" transform="translate(297.765 449)">LDAP <tspan font-size="24" x="-4.96667" y="29">Realm</tspan></text><path d="M292.5 499C292.5 493.201 297.201 488.5 303 488.5L344 488.5C349.799 488.5 354.5 493.201 354.5 499L354.5 499C354.5 504.799 349.799 509.5 344 509.5L303 509.5C297.201 509.5 292.5 504.799 292.5 499Z" stroke="#000000" stroke-width="1.33333" stroke-miterlimit="8" fill="url(#fill22)" fill-rule="evenodd"/><text font-family="Calibri,Calibri_MSFontService,sans-serif" font-weight="400" font-size="15" transform="translate(305.171 504)">Cache</text><path d="M424.5 434.421C424.5 427.837 429.837 422.5 436.421 422.5L516.579 422.5C523.163 422.5 528.5 427.837 528.5 434.421L528.5 505.579C528.5 512.163 523.163 517.5 516.579 517.5L436.421 517.5C429.837 517.5 424.5 512.163 424.5 505.579Z" stroke="#8E65AC" stroke-width="3" stroke-miterlimit="8" fill="url(#fill23)" fill-rule="evenodd"/><text font-family="Calibri,Calibri_MSFontService,sans-serif" font-weight="400" font-size="24" transform="translate(438.587 449)">Custom <tspan font-size="24" x="6.71335" y="29">Realm</tspan></text><path d="M441.5 499C441.5 493.201 446.201 488.5 452 488.5L501 488.5C506.799 488.5 511.5 493.201 511.5 499L511.5 499C511.5 504.799 506.799 509.5 501 509.5L452 509.5C446.201 509.5 441.5 504.799 441.5 499Z" stroke="#000000" stroke-width="1.33333" stroke-miterlimit="8" fill="url(#fill24)" fill-rule="evenodd"/><text font-family="Calibri,Calibri_MSFontService,sans-serif" font-weight="400" font-size="15" transform="translate(457.67 504)">Cache<tspan font-size="24" x="-70.3362" y="-28">···</tspan></text><path d="M178.5 552.833C178.5 548.231 195.737 544.5 217 544.5 238.263 544.5 255.5 548.231 255.5 552.833L255.5 586.167C255.5 590.769 238.263 594.5 217 594.5 195.737 594.5 178.5 590.769 178.5 586.167Z" fill="url(#fill25)" fill-rule="evenodd"/><path d="M255.5 552.833C255.5 557.436 238.263 561.167 217 561.167 195.737 561.167 178.5 557.436 178.5 552.833" stroke="#000000" stroke-width="1.33333" stroke-miterlimit="8" fill="none" fill-rule="evenodd"/><path d="M178.5 552.833C178.5 548.231 195.737 544.5 217 544.5 238.263 544.5 255.5 548.231 255.5 552.833L255.5 586.167C255.5 590.769 238.263 594.5 217 594.5 195.737 594.5 178.5 590.769 178.5 586.167Z" stroke="#000000" stroke-width="1.33333" stroke-miterlimit="8" fill="none" fill-rule="evenodd"/><text font-family="Calibri,Calibri_MSFontService,sans-serif" font-weight="400" font-size="19" transform="translate(188.297 583)">PDBMS</text><path d="M284.5 552.833C284.5 548.231 301.737 544.5 323 544.5 344.263 544.5 361.5 548.231 361.5 552.833L361.5 586.167C361.5 590.769 344.263 594.5 323 594.5 301.737 594.5 284.5 590.769 284.5 586.167Z" fill="url(#fill26)" fill-rule="evenodd"/><path d="M361.5 552.833C361.5 557.436 344.263 561.167 323 561.167 301.737 561.167 284.5 557.436 284.5 552.833" stroke="#000000" stroke-width="1.33333" stroke-miterlimit="8" fill="none" fill-rule="evenodd"/><path d="M284.5 552.833C284.5 548.231 301.737 544.5 323 544.5 344.263 544.5 361.5 548.231 361.5 552.833L361.5 586.167C361.5 590.769 344.263 594.5 323 594.5 301.737 594.5 284.5 590.769 284.5 586.167Z" stroke="#000000" stroke-width="1.33333" stroke-miterlimit="8" fill="none" fill-rule="evenodd"/><text font-family="Calibri,Calibri_MSFontService,sans-serif" font-weight="400" font-size="19" transform="translate(302.795 583)">LDAP</text><path d="M426.5 552.833C426.5 548.231 448.662 544.5 476 544.5 503.338 544.5 525.5 548.231 525.5 552.833L525.5 586.167C525.5 590.769 503.338 594.5 476 594.5 448.662 594.5 426.5 590.769 426.5 586.167Z" fill="url(#fill27)" fill-rule="evenodd"/><path d="M525.5 552.833C525.5 557.436 503.338 561.167 476 561.167 448.662 561.167 426.5 557.436 426.5 552.833" stroke="#000000" stroke-width="1.33333" stroke-miterlimit="8" fill="none" fill-rule="evenodd"/><path d="M426.5 552.833C426.5 548.231 448.662 544.5 476 544.5 503.338 544.5 525.5 548.231 525.5 552.833L525.5 586.167C525.5 590.769 503.338 594.5 476 594.5 448.662 594.5 426.5 590.769 426.5 586.167Z" stroke="#000000" stroke-width="1.33333" stroke-miterlimit="8" fill="none" fill-rule="evenodd"/><text font-family="Calibri,Calibri_MSFontService,sans-serif" font-weight="400" font-size="19" transform="translate(432.589 583)">Proprietary</text><path d="M0.333333-2.61909e-06 0.333449 14.7235-0.333218 14.7235-0.333333 2.61909e-06ZM4.00011 13.3901 0.000209974 26.7235-3.99989 13.3902Z" transform="matrix(-1 0 0 1 216.5 517.5)"/><path d="M0.33325-0.0074403 0.66204 14.719-0.00446064 14.7339-0.33325 0.0074403ZM4.29803 13.3042 0.59664 26.7235-3.69997 13.4827Z" transform="matrix(-1 0 0 1 324.097 517.5)"/><path d="M0.333326-0.0022563 0.432991 14.7215-0.23366 14.726-0.333326 0.0022563ZM4.09055 13.3634 0.180892 26.7235-3.90927 13.4175Z" transform="matrix(-1 0 0 1 475.681 517.5)"/><g clip-path="url(#clip28)"><g clip-path="url(#clip29)" filter="url(#fx2)" transform="translate(217 293)"><g clip-path="url(#clip30)"><path d="M11.2274 19.8756C11.2274 15.0993 15.0993 11.2274 19.8755 11.2274L219.839 11.2274C224.616 11.2274 228.487 15.0993 228.487 19.8756L228.487 55.6193C228.487 60.3955 224.616 64.2674 219.839 64.2674L19.8755 64.2674C15.0993 64.2674 11.2274 60.3955 11.2274 55.6193Z" stroke="#000000" stroke-miterlimit="8" fill="#FF0000" fill-rule="evenodd"/></g></g></g><path d="M223.5 307.979C223.5 303.296 227.296 299.5 231.979 299.5L428.021 299.5C432.704 299.5 436.5 303.296 436.5 307.979L436.5 343.021C436.5 347.704 432.704 351.5 428.021 351.5L231.979 351.5C227.296 351.5 223.5 347.704 223.5 343.021Z" stroke="#000000" stroke-width="1.33333" stroke-miterlimit="8" fill="url(#fill31)" fill-rule="evenodd"/><text font-family="Calibri,Calibri_MSFontService,sans-serif" font-weight="400" font-size="24" transform="translate(246.604 332)">Application Code</text><path d="M436.5 325.167 605.865 325.167 605.865 325.833 436.5 325.833ZM604.531 321.5 617.865 325.5 604.531 329.5Z"/><path d="M497.5 324C497.5 318.201 502.201 313.5 508 313.5L549 313.5C554.799 313.5 559.5 318.201 559.5 324L559.5 324C559.5 329.799 554.799 334.5 549 334.5L508 334.5C502.201 334.5 497.5 329.799 497.5 324Z" stroke="#000000" stroke-width="1.33333" stroke-miterlimit="8" fill="url(#fill32)" fill-rule="evenodd"/><text font-family="Calibri,Calibri_MSFontService,sans-serif" font-weight="400" font-size="15" transform="translate(510.252 329)">C/C++</text><path d="M497.5 291.5C497.5 285.977 501.977 281.5 507.5 281.5L549.5 281.5C555.023 281.5 559.5 285.977 559.5 291.5L559.5 291.5C559.5 297.023 555.023 301.5 549.5 301.5L507.5 301.5C501.977 301.5 497.5 297.023 497.5 291.5Z" stroke="#000000" stroke-width="1.33333" stroke-miterlimit="8" fill="url(#fill33)" fill-rule="evenodd"/><text font-family="Calibri,Calibri_MSFontService,sans-serif" font-weight="400" font-size="15" transform="translate(514.496 296)">.NET</text><path d="M497.5 259C497.5 253.201 502.201 248.5 508 248.5L549 248.5C554.799 248.5 559.5 253.201 559.5 259L559.5 259C559.5 264.799 554.799 269.5 549 269.5L508 269.5C502.201 269.5 497.5 264.799 497.5 259Z" stroke="#000000" stroke-width="1.33333" stroke-miterlimit="8" fill="url(#fill34)" fill-rule="evenodd"/><text font-family="Calibri,Calibri_MSFontService,sans-serif" font-weight="400" font-size="15" transform="translate(513.439 264)">MVC</text><path d="M496.5 357.5C496.5 351.977 500.977 347.5 506.5 347.5L547.5 347.5C553.023 347.5 557.5 351.977 557.5 357.5L557.5 357.5C557.5 363.023 553.023 367.5 547.5 367.5L506.5 367.5C500.977 367.5 496.5 363.023 496.5 357.5Z" stroke="#000000" stroke-width="1.33333" stroke-miterlimit="8" fill="url(#fill35)" fill-rule="evenodd"/><text font-family="Calibri,Calibri_MSFontService,sans-serif" font-weight="400" font-size="15" transform="translate(514.549 362)">PHP</text></g></svg>