<svg width="612" height="448" xmlns="http://www.w3.org/2000/svg" xmlns:xlink="http://www.w3.org/1999/xlink" overflow="hidden"><defs><filter id="fx0" x="-10%" y="-10%" width="120%" height="120%" filterUnits="userSpaceOnUse" primitiveUnits="userSpaceOnUse"><feComponentTransfer color-interpolation-filters="sRGB"><feFuncR type="discrete" tableValues="0 0"/><feFuncG type="discrete" tableValues="0 0"/><feFuncB type="discrete" tableValues="0 0"/><feFuncA type="linear" slope="0.4" intercept="0"/></feComponentTransfer><feGaussianBlur stdDeviation="1.77778 1.77778"/></filter><filter id="fx1" x="-10%" y="-10%" width="120%" height="120%" filterUnits="userSpaceOnUse" primitiveUnits="userSpaceOnUse"><feComponentTransfer color-interpolation-filters="sRGB"><feFuncR type="discrete" tableValues="0 0"/><feFuncG type="discrete" tableValues="0 0"/><feFuncB type="discrete" tableValues="0 0"/><feFuncA type="linear" slope="0.4" intercept="0"/></feComponentTransfer><feGaussianBlur stdDeviation="1.77778 1.77778"/></filter><clipPath id="clip2"><rect x="162" y="188" width="612" height="448"/></clipPath><clipPath id="clip3"><path d="M549.5 192.5 549.5 307.5 678.5 307.5 678.5 192.5ZM162 188 774 188 774 636 162 636Z" fill-rule="evenodd" clip-rule="evenodd"/></clipPath><clipPath id="clip4"><rect x="-2" y="-2" width="147" height="133"/></clipPath><clipPath id="clip5"><rect x="0" y="0" width="144" height="130"/></clipPath><clipPath id="clip6"><rect x="11" y="9" width="107" height="103"/></clipPath><clipPath id="clip7"><rect x="0" y="0" width="130" height="125"/></clipPath><clipPath id="clip8"><path d="M438.27 277.5C436.74 277.5 435.5 278.74 435.5 280.27L435.5 301.73C435.5 303.26 436.74 304.5 438.27 304.5L492.73 304.5C494.26 304.5 495.5 303.26 495.5 301.73L495.5 280.27C495.5 278.74 494.26 277.5 492.73 277.5ZM162 188 774 188 774 636 162 636Z" fill-rule="evenodd" clip-rule="evenodd"/></clipPath><clipPath id="clip9"><path d="M669.27 327.5C667.74 327.5 666.5 328.74 666.5 330.27L666.5 351.73C666.5 353.26 667.74 354.5 669.27 354.5L723.73 354.5C725.26 354.5 726.5 353.26 726.5 351.73L726.5 330.27C726.5 328.74 725.26 327.5 723.73 327.5ZM162 188 774 188 774 636 162 636Z" fill-rule="evenodd" clip-rule="evenodd"/></clipPath><clipPath id="clip10"><path d="M710.27 432.5C708.74 432.5 707.5 433.74 707.5 435.27L707.5 456.73C707.5 458.26 708.74 459.5 710.27 459.5L765.73 459.5C767.26 459.5 768.5 458.26 768.5 456.73L768.5 435.27C768.5 433.74 767.26 432.5 765.73 432.5ZM162 188 774 188 774 636 162 636Z" fill-rule="evenodd" clip-rule="evenodd"/></clipPath></defs><g clip-path="url(#clip2)" transform="translate(-162 -188)"><path d="M163.62 222.035 217.298 222.035 217.298 249.235 163.62 249.235Z" fill="#3E92A3" fill-rule="evenodd"/><path d="M217.298 222.035 270.975 222.035 270.975 249.235 217.298 249.235Z" fill="#3E92A3" fill-rule="evenodd"/><path d="M270.975 222.035 324.652 222.035 324.652 249.235 270.975 249.235Z" fill="#3E92A3" fill-rule="evenodd"/><path d="M324.652 222.035 378.329 222.035 378.329 249.235 324.652 249.235Z" fill="#3E92A3" fill-rule="evenodd"/><path d="M163.62 249.235 217.298 249.235 217.298 276.435 163.62 276.435Z" fill="#CEDCE0" fill-rule="evenodd"/><path d="M217.298 249.235 270.975 249.235 270.975 276.435 217.298 276.435Z" fill="#CEDCE0" fill-rule="evenodd"/><path d="M270.975 249.235 324.652 249.235 324.652 276.435 270.975 276.435Z" fill="#CEDCE0" fill-rule="evenodd"/><path d="M324.652 249.235 378.329 249.235 378.329 276.435 324.652 276.435Z" fill="#CEDCE0" fill-rule="evenodd"/><path d="M163.62 276.435 217.298 276.435 217.298 303.635 163.62 303.635Z" fill="#E8EEF0" fill-rule="evenodd"/><path d="M217.298 276.435 270.975 276.435 270.975 303.635 217.298 303.635Z" fill="#E8EEF0" fill-rule="evenodd"/><path d="M270.975 276.435 324.652 276.435 324.652 303.635 270.975 303.635Z" fill="#E8EEF0" fill-rule="evenodd"/><path d="M324.652 276.435 378.329 276.435 378.329 303.635 324.652 303.635Z" fill="#E8EEF0" fill-rule="evenodd"/><path d="M217.298 221.368 217.298 304.301" stroke="#000000" stroke-width="1.33333" stroke-linejoin="round" stroke-miterlimit="10" fill="none" fill-rule="evenodd"/><path d="M270.975 221.368 270.975 304.301" stroke="#000000" stroke-width="1.33333" stroke-linejoin="round" stroke-miterlimit="10" fill="none" fill-rule="evenodd"/><path d="M324.652 221.368 324.652 304.301" stroke="#000000" stroke-width="1.33333" stroke-linejoin="round" stroke-miterlimit="10" fill="none" fill-rule="evenodd"/><path d="M162.954 249.235 378.996 249.235" stroke="#000000" stroke-width="1.33333" stroke-linejoin="round" stroke-miterlimit="10" fill="none" fill-rule="evenodd"/><path d="M162.954 276.435 378.996 276.435" stroke="#000000" stroke-width="1.33333" stroke-linejoin="round" stroke-miterlimit="10" fill="none" fill-rule="evenodd"/><path d="M163.62 221.368 163.62 304.301" stroke="#000000" stroke-width="1.33333" stroke-linejoin="round" stroke-miterlimit="10" fill="none" fill-rule="evenodd"/><path d="M378.329 221.368 378.329 304.301" stroke="#000000" stroke-width="1.33333" stroke-linejoin="round" stroke-miterlimit="10" fill="none" fill-rule="evenodd"/><path d="M162.954 222.035 378.996 222.035" stroke="#000000" stroke-width="1.33333" stroke-linejoin="round" stroke-miterlimit="10" fill="none" fill-rule="evenodd"/><path d="M162.954 303.635 378.996 303.635" stroke="#000000" stroke-width="1.33333" stroke-linejoin="round" stroke-miterlimit="10" fill="none" fill-rule="evenodd"/><text fill="#FFFFFF" font-family="Calibri,Calibri_MSFontService,sans-serif" font-weight="700" font-size="15" transform="translate(183.959 241)">ID<tspan font-size="15" x="52.2605" y="0">R1</tspan><tspan font-size="15" x="105.938" y="0">R2</tspan><tspan font-size="15" x="159.615" y="0">R3</tspan><tspan fill="#000000" font-weight="400" font-size="15" x="2.74997" y="27">1</tspan><tspan fill="#000000" font-weight="400" font-size="15" x="56.4271" y="27">1</tspan><tspan fill="#000000" font-weight="400" font-size="15" x="110.104" y="27">2</tspan><tspan fill="#000000" font-weight="400" font-size="15" x="163.781" y="27">3</tspan><tspan fill="#000000" font-weight="400" font-size="15" x="2.74997" y="54">2</tspan><tspan fill="#000000" font-weight="400" font-size="15" x="56.4271" y="54">4</tspan><tspan fill="#000000" font-weight="400" font-size="15" x="110.104" y="54">5</tspan><tspan fill="#000000" font-weight="400" font-size="15" x="163.781" y="54">6</tspan></text><g clip-path="url(#clip3)"><g clip-path="url(#clip4)" filter="url(#fx0)" transform="translate(545 188)"><g clip-path="url(#clip5)"><rect x="7.32849" y="7.32848" width="129" height="115" stroke="#000000" stroke-miterlimit="8" fill="#C6FAE4"/></g></g><g clip-path="url(#clip6)" filter="url(#fx1)" transform="translate(545 192)"><g clip-path="url(#clip7)"><path d="M4.42188-3.89062C4.68229-3.69271 4.85938-3.50521 4.95312-3.32812 5.07292-3.09375 5.13281-2.8151 5.13281-2.49219L5.13281 0.3125C5.13281 0.609375 5.21875 0.852865 5.39062 1.04297 5.5625 1.23307 5.77604 1.34115 6.03125 1.36719 6.19271 1.38281 6.29948 1.41406 6.35156 1.46094 6.41927 1.52344 6.45312 1.60156 6.45312 1.69531 6.45312 1.79427 6.41927 1.8737 6.35156 1.93359 6.28385 1.99349 6.1849 2.02344 6.05469 2.02344 5.64323 2.02344 5.29948 1.89323 5.02344 1.63281 4.65365 1.27344 4.46875 0.835937 4.46875 0.320312L4.46875-2.49219C4.46875-2.77865 4.38281-3.01953 4.21094-3.21484 4.03906-3.41016 3.82031-3.51823 3.55469-3.53906 3.40885-3.55469 3.30729-3.59115 3.25-3.64844 3.19271-3.70573 3.16406-3.78646 3.16406-3.89062 3.16406-3.98958 3.19271-4.06771 3.25-4.125 3.30729-4.18229 3.40885-4.21875 3.55469-4.23438 3.82552-4.25521 4.04557-4.36328 4.21484-4.55859 4.38411-4.75391 4.46875-4.99479 4.46875-5.28125L4.46875-8.09375C4.46875-8.58333 4.625-8.99088 4.9375-9.31641 5.25-9.64193 5.625-9.80469 6.0625-9.80469 6.1875-9.80469 6.28385-9.77344 6.35156-9.71094 6.41927-9.64844 6.45312-9.57031 6.45312-9.47656 6.45312-9.38281 6.41927-9.30469 6.35156-9.24219 6.30469-9.1901 6.19792-9.15625 6.03125-9.14062 5.77083-9.11458 5.55599-9.00521 5.38672-8.8125 5.21745-8.61979 5.13281-8.38021 5.13281-8.09375L5.13281-5.28125C5.13281-4.95312 5.08073-4.6888 4.97656-4.48828 4.8724-4.28776 4.6875-4.08854 4.42188-3.89062Z" transform="translate(16.5691 26)"/><path d="M2.07812-9.64062 4.15625-9.64062 3.60938-5.84375C3.57812-5.64583 3.52083-5.50651 3.4375-5.42578 3.35417-5.34505 3.2474-5.30469 3.11719-5.30469 2.98698-5.30469 2.88021-5.34505 2.79688-5.42578 2.71354-5.50651 2.65625-5.64583 2.625-5.84375ZM5.42969-9.64062 7.50781-9.64062 6.96094-5.84375C6.92969-5.64583 6.8724-5.50651 6.78906-5.42578 6.70573-5.34505 6.60156-5.30469 6.47656-5.30469 6.34115-5.30469 6.23177-5.34505 6.14844-5.42578 6.0651-5.50651 6.01042-5.64583 5.98438-5.84375ZM14.7917-10.1328 14.7917-8.4375 13.8229-8.4375 13.8229-10.1328ZM14.8151-6.76562 14.8151-0.65625 17.3932-0.65625C17.5547-0.65625 17.6693-0.626302 17.737-0.566406 17.8047-0.50651 17.8385-0.427083 17.8385-0.328125 17.8385-0.234375 17.8047-0.15625 17.737-0.09375 17.6693-0.03125 17.5547 0 17.3932 0L11.5807 0C11.4245 0 11.3125-0.03125 11.2448-0.09375 11.1771-0.15625 11.1432-0.234375 11.1432-0.328125 11.1432-0.427083 11.1771-0.50651 11.2448-0.566406 11.3125-0.626302 11.4245-0.65625 11.5807-0.65625L14.1589-0.65625 14.1589-6.10156 12.2448-6.10156C12.0885-6.10156 11.9753-6.13281 11.9049-6.19531 11.8346-6.25781 11.7995-6.33594 11.7995-6.42969 11.7995-6.52865 11.8333-6.60938 11.901-6.67188 11.9688-6.73438 12.0833-6.76562 12.2448-6.76562ZM27.349-9.80469 27.349-0.65625 28.224-0.65625C28.3854-0.65625 28.5-0.626302 28.5677-0.566406 28.6354-0.50651 28.6693-0.427083 28.6693-0.328125 28.6693-0.234375 28.6354-0.15625 28.5677-0.09375 28.5-0.03125 28.3854 0 28.224 0L26.6849 0 26.6849-1.30469C25.9245-0.263021 24.9583 0.257812 23.7865 0.257812 23.1927 0.257812 22.6237 0.10026 22.0794-0.214844 21.5352-0.529948 21.1055-0.979167 20.7904-1.5625 20.4753-2.14583 20.3177-2.7474 20.3177-3.36719 20.3177-3.99219 20.4753-4.59505 20.7904-5.17578 21.1055-5.75651 21.5352-6.20573 22.0794-6.52344 22.6237-6.84115 23.1953-7 23.7943-7 24.9401-7 25.9036-6.47917 26.6849-5.4375L26.6849-9.14062 25.8099-9.14062C25.6484-9.14062 25.5339-9.17188 25.4661-9.23438 25.3984-9.29688 25.3646-9.3776 25.3646-9.47656 25.3646-9.57031 25.3984-9.64844 25.4661-9.71094 25.5339-9.77344 25.6484-9.80469 25.8099-9.80469ZM26.6849-3.36719C26.6849-4.20052 26.4036-4.90365 25.8411-5.47656 25.2786-6.04948 24.6094-6.33594 23.8333-6.33594 23.0521-6.33594 22.3802-6.04948 21.8177-5.47656 21.2552-4.90365 20.974-4.20052 20.974-3.36719 20.974-2.53906 21.2552-1.83724 21.8177-1.26172 22.3802-0.686198 23.0521-0.398437 23.8333-0.398438 24.6094-0.398437 25.2786-0.686198 25.8411-1.26172 26.4036-1.83724 26.6849-2.53906 26.6849-3.36719ZM31.0781-9.64062 33.1562-9.64062 32.6094-5.84375C32.5781-5.64583 32.5208-5.50651 32.4375-5.42578 32.3542-5.34505 32.2474-5.30469 32.1172-5.30469 31.987-5.30469 31.8802-5.34505 31.7969-5.42578 31.7135-5.50651 31.6562-5.64583 31.625-5.84375ZM34.4297-9.64062 36.5078-9.64062 35.9609-5.84375C35.9297-5.64583 35.8724-5.50651 35.7891-5.42578 35.7057-5.34505 35.6016-5.30469 35.4766-5.30469 35.3411-5.30469 35.2318-5.34505 35.1484-5.42578 35.0651-5.50651 35.0104-5.64583 34.9844-5.84375ZM43.3307-6.76562 43.612-6.76562C43.9036-6.76562 44.1536-6.66146 44.362-6.45312 44.5703-6.24479 44.6745-5.9974 44.6745-5.71094 44.6745-5.40365 44.569-5.14844 44.3581-4.94531 44.1471-4.74219 43.8984-4.64062 43.612-4.64062L43.3307-4.64062C43.0391-4.64062 42.7891-4.74479 42.5807-4.95312 42.3724-5.16146 42.2682-5.40885 42.2682-5.69531 42.2682-6.0026 42.3737-6.25781 42.5846-6.46094 42.7956-6.66406 43.0443-6.76562 43.3307-6.76562ZM43.3307-1.88281 43.612-1.88281C43.9036-1.88281 44.1536-1.77995 44.362-1.57422 44.5703-1.36849 44.6745-1.11979 44.6745-0.828125 44.6745-0.526042 44.569-0.273438 44.3581-0.0703125 44.1471 0.132812 43.8984 0.234375 43.612 0.234375L43.3307 0.234375C43.0391 0.234375 42.7891 0.13151 42.5807-0.0742188 42.3724-0.279948 42.2682-0.528646 42.2682-0.820312 42.2682-1.1224 42.3737-1.375 42.5846-1.57812 42.7956-1.78125 43.0443-1.88281 43.3307-1.88281ZM63.125-9.9375 63.125-0.65625 65.375-0.65625C65.5312-0.65625 65.6432-0.626302 65.7109-0.566406 65.7786-0.50651 65.8125-0.427083 65.8125-0.328125 65.8125-0.234375 65.7786-0.15625 65.7109-0.09375 65.6432-0.03125 65.5312 0 65.375 0L60.2188 0C60.0625 0 59.9505-0.03125 59.8828-0.09375 59.8151-0.15625 59.7813-0.234375 59.7813-0.328125 59.7813-0.427083 59.8151-0.50651 59.8828-0.566406 59.9505-0.626302 60.0625-0.65625 60.2188-0.65625L62.4688-0.65625 62.4688-9.03125 60.3281-8.35938C60.224-8.32812 60.1484-8.3125 60.1016-8.3125 60.0234-8.3125 59.9518-8.34505 59.8867-8.41016 59.8216-8.47526 59.7891-8.55208 59.7891-8.64062 59.7891-8.71875 59.8151-8.79167 59.8672-8.85938 59.9089-8.90104 59.9948-8.94531 60.125-8.99219ZM71.1667-2.35938 73.2995-2.35938 70.9792 1.95312C70.8385 2.21354 70.6693 2.34375 70.4714 2.34375 70.3411 2.34375 70.2305 2.29818 70.1393 2.20703 70.0482 2.11589 70.0026 2.00521 70.0026 1.875 70.0026 1.82292 70.0104 1.76562 70.026 1.70312Z" transform="translate(35.9025 45)"/><path d="M2.07812-9.64062 4.15625-9.64062 3.60938-5.84375C3.57812-5.64583 3.52083-5.50651 3.4375-5.42578 3.35417-5.34505 3.2474-5.30469 3.11719-5.30469 2.98698-5.30469 2.88021-5.34505 2.79688-5.42578 2.71354-5.50651 2.65625-5.64583 2.625-5.84375ZM5.42969-9.64062 7.50781-9.64062 6.96094-5.84375C6.92969-5.64583 6.8724-5.50651 6.78906-5.42578 6.70573-5.34505 6.60156-5.30469 6.47656-5.30469 6.34115-5.30469 6.23177-5.34505 6.14844-5.42578 6.0651-5.50651 6.01042-5.64583 5.98438-5.84375ZM12.3307-4.07812 12.3307-0.65625 13.5417-0.65625C13.7031-0.65625 13.8177-0.626302 13.8854-0.566406 13.9531-0.50651 13.987-0.427083 13.987-0.328125 13.987-0.234375 13.9531-0.15625 13.8854-0.09375 13.8177-0.03125 13.7031 0 13.5417 0L10.7917 0C10.6354 0 10.5234-0.03125 10.4557-0.09375 10.388-0.15625 10.3542-0.234375 10.3542-0.328125 10.3542-0.427083 10.388-0.50651 10.4557-0.566406 10.5234-0.626302 10.6354-0.65625 10.7917-0.65625L11.6745-0.65625 11.6745-8.48438 10.7917-8.48438C10.6354-8.48438 10.5234-8.51432 10.4557-8.57422 10.388-8.63411 10.3542-8.71354 10.3542-8.8125 10.3542-8.91146 10.388-8.99088 10.4557-9.05078 10.5234-9.11068 10.6354-9.14062 10.7917-9.14062L14.7604-9.14062C15.5781-9.14062 16.2669-8.88151 16.8268-8.36328 17.3867-7.84505 17.6667-7.26042 17.6667-6.60938 17.6667-6.14062 17.4935-5.69922 17.1471-5.28516 16.8008-4.87109 16.2214-4.52604 15.4089-4.25 15.8776-3.92708 16.2786-3.5625 16.612-3.15625 16.9453-2.75 17.4792-1.91667 18.2135-0.65625L18.7135-0.65625C18.8698-0.65625 18.9818-0.626302 19.0495-0.566406 19.1172-0.50651 19.151-0.427083 19.151-0.328125 19.151-0.234375 19.1172-0.15625 19.0495-0.09375 18.9818-0.03125 18.8698 0 18.7135 0L17.8385 0C17.026-1.45312 16.3971-2.42708 15.9518-2.92188 15.5065-3.41667 14.9948-3.80208 14.4167-4.07812ZM12.3307-4.73438 14.1198-4.73438C14.6927-4.73438 15.2122-4.83854 15.6784-5.04688 16.1445-5.25521 16.4831-5.5 16.694-5.78125 16.9049-6.0625 17.0104-6.34896 17.0104-6.64062 17.0104-7.07812 16.7904-7.49479 16.3503-7.89062 15.9102-8.28646 15.375-8.48438 14.7448-8.48438L12.3307-8.48438ZM21.3099-0.65625 26.349-0.65625 26.349-0.914062C26.349-1.07031 26.3802-1.18229 26.4427-1.25 26.5052-1.31771 26.5859-1.35156 26.6849-1.35156 26.7786-1.35156 26.8568-1.31771 26.9193-1.25 26.9818-1.18229 27.013-1.07031 27.013-0.914062L27.013 0 20.6693 0 20.6693-0.96875C22.0026-2.16667 23.2995-3.38542 24.5599-4.625 25.1484-5.20312 25.5521-5.6276 25.7708-5.89844 25.9896-6.16927 26.1393-6.40755 26.2201-6.61328 26.3008-6.81901 26.3411-7.02604 26.3411-7.23438 26.3411-7.79688 26.1146-8.29427 25.6615-8.72656 25.2083-9.15885 24.6615-9.375 24.0208-9.375 23.4479-9.375 22.9401-9.21094 22.4974-8.88281 22.0547-8.55469 21.7682-8.14844 21.638-7.66406 21.6068-7.53906 21.5677-7.45833 21.5208-7.42188 21.4583-7.36979 21.3854-7.34375 21.3021-7.34375 21.2135-7.34375 21.1393-7.3737 21.0794-7.43359 21.0195-7.49349 20.9896-7.5651 20.9896-7.64844 20.9896-7.89844 21.1263-8.23698 21.3997-8.66406 21.6732-9.09115 22.0508-9.42708 22.5326-9.67188 23.0143-9.91667 23.5078-10.0391 24.013-10.0391 24.8307-10.0391 25.5339-9.75521 26.1224-9.1875 26.7109-8.61979 27.0052-7.97656 27.0052-7.25781 27.0052-6.95573 26.9557-6.67839 26.8568-6.42578 26.7578-6.17318 26.5898-5.89713 26.3529-5.59766 26.1159-5.29818 25.6901-4.84635 25.0755-4.24219 23.5339-2.72135 22.2786-1.54167 21.3099-0.703125ZM31.0781-9.64062 33.1562-9.64062 32.6094-5.84375C32.5781-5.64583 32.5208-5.50651 32.4375-5.42578 32.3542-5.34505 32.2474-5.30469 32.1172-5.30469 31.987-5.30469 31.8802-5.34505 31.7969-5.42578 31.7135-5.50651 31.6562-5.64583 31.625-5.84375ZM34.4297-9.64062 36.5078-9.64062 35.9609-5.84375C35.9297-5.64583 35.8724-5.50651 35.7891-5.42578 35.7057-5.34505 35.6016-5.30469 35.4766-5.30469 35.3411-5.30469 35.2318-5.34505 35.1484-5.42578 35.0651-5.50651 35.0104-5.64583 34.9844-5.84375ZM43.3307-6.76562 43.612-6.76562C43.9036-6.76562 44.1536-6.66146 44.362-6.45312 44.5703-6.24479 44.6745-5.9974 44.6745-5.71094 44.6745-5.40365 44.569-5.14844 44.3581-4.94531 44.1471-4.74219 43.8984-4.64062 43.612-4.64062L43.3307-4.64062C43.0391-4.64062 42.7891-4.74479 42.5807-4.95312 42.3724-5.16146 42.2682-5.40885 42.2682-5.69531 42.2682-6.0026 42.3737-6.25781 42.5846-6.46094 42.7956-6.66406 43.0443-6.76562 43.3307-6.76562ZM43.3307-1.88281 43.612-1.88281C43.9036-1.88281 44.1536-1.77995 44.362-1.57422 44.5703-1.36849 44.6745-1.11979 44.6745-0.828125 44.6745-0.526042 44.569-0.273438 44.3581-0.0703125 44.1471 0.132812 43.8984 0.234375 43.612 0.234375L43.3307 0.234375C43.0391 0.234375 42.7891 0.13151 42.5807-0.0742188 42.3724-0.279948 42.2682-0.528646 42.2682-0.820312 42.2682-1.1224 42.3737-1.375 42.5846-1.57812 42.7956-1.78125 43.0443-1.88281 43.3307-1.88281ZM64.1484-5.08594C64.6953-4.82031 65.1081-4.47005 65.3867-4.03516 65.6654-3.60026 65.8047-3.13281 65.8047-2.63281 65.8047-1.85677 65.513-1.1849 64.9297-0.617188 64.3464-0.0494792 63.638 0.234375 62.8047 0.234375 61.9714 0.234375 61.263-0.0494792 60.6797-0.617188 60.0964-1.1849 59.8047-1.85677 59.8047-2.63281 59.8047-3.1276 59.944-3.59245 60.2227-4.02734 60.5013-4.46224 60.9167-4.8151 61.4688-5.08594 60.9896-5.36198 60.6406-5.64844 60.4219-5.94531 60.1198-6.36719 59.9688-6.83333 59.9688-7.34375 59.9688-8.0625 60.2461-8.69141 60.8008-9.23047 61.3555-9.76953 62.0234-10.0391 62.8047-10.0391 63.5911-10.0391 64.2604-9.76953 64.8125-9.23047 65.3646-8.69141 65.6406-8.0625 65.6406-7.34375 65.6406-6.83333 65.4896-6.36979 65.1875-5.95312 64.974-5.65104 64.6276-5.36198 64.1484-5.08594ZM64.9688-7.32031C64.9688-7.88281 64.7591-8.36588 64.3398-8.76953 63.9206-9.17318 63.4062-9.375 62.7969-9.375 62.1927-9.375 61.681-9.17188 61.2617-8.76562 60.8424-8.35938 60.6328-7.88021 60.6328-7.32812 60.6328-6.81771 60.8398-6.37109 61.2539-5.98828 61.668-5.60547 62.1823-5.41406 62.7969-5.41406 63.4167-5.41406 63.9336-5.60547 64.3477-5.98828 64.7617-6.37109 64.9688-6.8151 64.9688-7.32031ZM65.1484-2.61719C65.1484-3.19531 64.9245-3.69792 64.4766-4.125 64.0286-4.55208 63.4714-4.76562 62.8047-4.76562 62.138-4.76562 61.5807-4.55208 61.1328-4.125 60.6849-3.69792 60.4609-3.19792 60.4609-2.625 60.4609-2.03125 60.6862-1.51562 61.1367-1.07812 61.5872-0.640625 62.1432-0.421875 62.8047-0.421875 63.4661-0.421875 64.0221-0.640625 64.4727-1.07812 64.9232-1.51562 65.1484-2.02865 65.1484-2.61719ZM71.1667-2.35938 73.2995-2.35938 70.9792 1.95312C70.8385 2.21354 70.6693 2.34375 70.4714 2.34375 70.3411 2.34375 70.2305 2.29818 70.1393 2.20703 70.0482 2.11589 70.0026 2.00521 70.0026 1.875 70.0026 1.82292 70.0104 1.76562 70.026 1.70312Z" transform="translate(35.9025 65)"/><path d="M2.07812-9.64062 4.15625-9.64062 3.60938-5.84375C3.57812-5.64583 3.52083-5.50651 3.4375-5.42578 3.35417-5.34505 3.2474-5.30469 3.11719-5.30469 2.98698-5.30469 2.88021-5.34505 2.79688-5.42578 2.71354-5.50651 2.65625-5.64583 2.625-5.84375ZM5.42969-9.64062 7.50781-9.64062 6.96094-5.84375C6.92969-5.64583 6.8724-5.50651 6.78906-5.42578 6.70573-5.34505 6.60156-5.30469 6.47656-5.30469 6.34115-5.30469 6.23177-5.34505 6.14844-5.42578 6.0651-5.50651 6.01042-5.64583 5.98438-5.84375ZM12.3307-4.07812 12.3307-0.65625 13.5417-0.65625C13.7031-0.65625 13.8177-0.626302 13.8854-0.566406 13.9531-0.50651 13.987-0.427083 13.987-0.328125 13.987-0.234375 13.9531-0.15625 13.8854-0.09375 13.8177-0.03125 13.7031 0 13.5417 0L10.7917 0C10.6354 0 10.5234-0.03125 10.4557-0.09375 10.388-0.15625 10.3542-0.234375 10.3542-0.328125 10.3542-0.427083 10.388-0.50651 10.4557-0.566406 10.5234-0.626302 10.6354-0.65625 10.7917-0.65625L11.6745-0.65625 11.6745-8.48438 10.7917-8.48438C10.6354-8.48438 10.5234-8.51432 10.4557-8.57422 10.388-8.63411 10.3542-8.71354 10.3542-8.8125 10.3542-8.91146 10.388-8.99088 10.4557-9.05078 10.5234-9.11068 10.6354-9.14062 10.7917-9.14062L14.7604-9.14062C15.5781-9.14062 16.2669-8.88151 16.8268-8.36328 17.3867-7.84505 17.6667-7.26042 17.6667-6.60938 17.6667-6.14062 17.4935-5.69922 17.1471-5.28516 16.8008-4.87109 16.2214-4.52604 15.4089-4.25 15.8776-3.92708 16.2786-3.5625 16.612-3.15625 16.9453-2.75 17.4792-1.91667 18.2135-0.65625L18.7135-0.65625C18.8698-0.65625 18.9818-0.626302 19.0495-0.566406 19.1172-0.50651 19.151-0.427083 19.151-0.328125 19.151-0.234375 19.1172-0.15625 19.0495-0.09375 18.9818-0.03125 18.8698 0 18.7135 0L17.8385 0C17.026-1.45312 16.3971-2.42708 15.9518-2.92188 15.5065-3.41667 14.9948-3.80208 14.4167-4.07812ZM12.3307-4.73438 14.1198-4.73438C14.6927-4.73438 15.2122-4.83854 15.6784-5.04688 16.1445-5.25521 16.4831-5.5 16.694-5.78125 16.9049-6.0625 17.0104-6.34896 17.0104-6.64062 17.0104-7.07812 16.7904-7.49479 16.3503-7.89062 15.9102-8.28646 15.375-8.48438 14.7448-8.48438L12.3307-8.48438ZM25.4818-5.33594C26.0859-5.0651 26.5469-4.69401 26.8646-4.22266 27.1823-3.7513 27.3411-3.26042 27.3411-2.75 27.3411-1.96354 27.0221-1.26953 26.3841-0.667969 25.7461-0.0664063 24.9479 0.234375 23.9896 0.234375 23.4271 0.234375 22.8438 0.114583 22.2396-0.125 21.6354-0.364583 21.2135-0.609375 20.974-0.859375 20.8958-0.942708 20.8568-1.03125 20.8568-1.125 20.8568-1.20833 20.8867-1.28125 20.9466-1.34375 21.0065-1.40625 21.0781-1.4375 21.1615-1.4375 21.2448-1.4375 21.3385-1.39844 21.4427-1.32031 22.25-0.721354 23.1042-0.421875 24.0052-0.421875 24.7656-0.421875 25.4023-0.660156 25.9154-1.13672 26.4284-1.61328 26.6849-2.14323 26.6849-2.72656 26.6849-3.11719 26.5586-3.5 26.306-3.875 26.0534-4.25 25.6901-4.54557 25.2161-4.76172 24.7422-4.97786 24.263-5.08594 23.7786-5.08594 23.6224-5.08594 23.5104-5.11589 23.4427-5.17578 23.375-5.23568 23.3411-5.3151 23.3411-5.41406 23.3411-5.50781 23.3737-5.58594 23.4388-5.64844 23.5039-5.71094 23.6016-5.74219 23.7318-5.74219L24.2943-5.73438C24.8828-5.73438 25.3685-5.91406 25.7513-6.27344 26.1341-6.63281 26.3255-7.04948 26.3255-7.52344 26.3255-8.01302 26.125-8.44531 25.724-8.82031 25.3229-9.19531 24.7995-9.38281 24.1536-9.38281 23.7005-9.38281 23.2839-9.30469 22.9036-9.14844 22.5234-8.99219 22.2188-8.77865 21.9896-8.50781 21.9062-8.40365 21.8424-8.33984 21.7982-8.31641 21.7539-8.29297 21.7031-8.28125 21.6458-8.28125 21.5573-8.28125 21.4818-8.3112 21.4193-8.37109 21.3568-8.43099 21.3255-8.5026 21.3255-8.58594 21.3255-8.79427 21.5521-9.05729 22.0052-9.375 22.6354-9.81771 23.3516-10.0391 24.1536-10.0391 24.9818-10.0391 25.6615-9.79036 26.1927-9.29297 26.724-8.79557 26.9896-8.20312 26.9896-7.51562 26.9896-7.07812 26.862-6.66406 26.6068-6.27344 26.3516-5.88281 25.9766-5.57031 25.4818-5.33594ZM31.0781-9.64062 33.1562-9.64062 32.6094-5.84375C32.5781-5.64583 32.5208-5.50651 32.4375-5.42578 32.3542-5.34505 32.2474-5.30469 32.1172-5.30469 31.987-5.30469 31.8802-5.34505 31.7969-5.42578 31.7135-5.50651 31.6562-5.64583 31.625-5.84375ZM34.4297-9.64062 36.5078-9.64062 35.9609-5.84375C35.9297-5.64583 35.8724-5.50651 35.7891-5.42578 35.7057-5.34505 35.6016-5.30469 35.4766-5.30469 35.3411-5.30469 35.2318-5.34505 35.1484-5.42578 35.0651-5.50651 35.0104-5.64583 34.9844-5.84375ZM43.3307-6.76562 43.612-6.76562C43.9036-6.76562 44.1536-6.66146 44.362-6.45312 44.5703-6.24479 44.6745-5.9974 44.6745-5.71094 44.6745-5.40365 44.569-5.14844 44.3581-4.94531 44.1471-4.74219 43.8984-4.64062 43.612-4.64062L43.3307-4.64062C43.0391-4.64062 42.7891-4.74479 42.5807-4.95312 42.3724-5.16146 42.2682-5.40885 42.2682-5.69531 42.2682-6.0026 42.3737-6.25781 42.5846-6.46094 42.7956-6.66406 43.0443-6.76562 43.3307-6.76562ZM43.3307-1.88281 43.612-1.88281C43.9036-1.88281 44.1536-1.77995 44.362-1.57422 44.5703-1.36849 44.6745-1.11979 44.6745-0.828125 44.6745-0.526042 44.569-0.273438 44.3581-0.0703125 44.1471 0.132812 43.8984 0.234375 43.612 0.234375L43.3307 0.234375C43.0391 0.234375 42.7891 0.13151 42.5807-0.0742188 42.3724-0.279948 42.2682-0.528646 42.2682-0.820312 42.2682-1.1224 42.3737-1.375 42.5846-1.57812 42.7956-1.78125 43.0443-1.88281 43.3307-1.88281ZM65.8125-5.71094 65.8125-4.08594C65.8125-2.67448 65.4766-1.55729 64.8047-0.734375 64.2786-0.0885417 63.6146 0.234375 62.8125 0.234375 62.4271 0.234375 62.0638 0.157552 61.7227 0.00390625 61.3815-0.14974 61.0911-0.364583 60.8516-0.640625 60.7005-0.8125 60.5352-1.08854 60.3555-1.46875 60.1758-1.84896 60.0469-2.19792 59.9688-2.51562 59.849-2.96354 59.7891-3.48698 59.7891-4.08594L59.7891-5.71094C59.7891-7.1276 60.125-8.2474 60.7969-9.07031 61.3229-9.71615 61.987-10.0391 62.7891-10.0391 63.1797-10.0391 63.5443-9.96224 63.8828-9.80859 64.2214-9.65495 64.5104-9.4401 64.75-9.16406 64.9062-8.98698 65.0729-8.70833 65.25-8.32812 65.4271-7.94792 65.5573-7.60156 65.6406-7.28906 65.7552-6.84115 65.8125-6.3151 65.8125-5.71094ZM65.1562-5.625C65.1562-6.24479 65.069-6.82161 64.8945-7.35547 64.72-7.88932 64.5234-8.3151 64.3047-8.63281 64.1745-8.8151 64.0052-8.97135 63.7969-9.10156 63.5-9.28385 63.1667-9.375 62.7969-9.375 62.0625-9.375 61.487-9 61.0703-8.25 60.6536-7.5 60.4453-6.625 60.4453-5.625L60.4453-4.17969C60.4453-3.5599 60.5326-2.98177 60.707-2.44531 60.8815-1.90885 61.0807-1.48177 61.3047-1.16406 61.4297-0.986979 61.5964-0.833333 61.8047-0.703125 62.1016-0.515625 62.4375-0.421875 62.8125-0.421875 63.5417-0.421875 64.1146-0.798177 64.5312-1.55078 64.9479-2.30339 65.1562-3.17969 65.1562-4.17969Z" transform="translate(35.9025 84)"/><path d="M5.1875-3.89062C4.92188-4.08854 4.74479-4.27604 4.65625-4.45312 4.53646-4.68229 4.47656-4.95833 4.47656-5.28125L4.47656-8.09375C4.47656-8.38542 4.39062-8.6276 4.21875-8.82031 4.04688-9.01302 3.83333-9.11979 3.57812-9.14062 3.41146-9.15625 3.30469-9.1875 3.25781-9.23438 3.1901-9.30208 3.15625-9.38281 3.15625-9.47656 3.15625-9.57031 3.1888-9.64844 3.25391-9.71094 3.31901-9.77344 3.41667-9.80469 3.54688-9.80469 3.96354-9.80469 4.30729-9.67188 4.57812-9.40625 4.94792-9.05208 5.13281-8.61458 5.13281-8.09375L5.13281-5.28125C5.13281-4.99479 5.22005-4.75391 5.39453-4.55859 5.56901-4.36328 5.78906-4.25521 6.05469-4.23438 6.19531-4.21875 6.29557-4.18229 6.35547-4.125 6.41536-4.06771 6.44531-3.98958 6.44531-3.89062 6.44531-3.78646 6.41536-3.70573 6.35547-3.64844 6.29557-3.59115 6.19531-3.55469 6.05469-3.53906 5.78385-3.51823 5.5625-3.41016 5.39062-3.21484 5.21875-3.01953 5.13281-2.77865 5.13281-2.49219L5.13281 0.320312C5.13281 0.809896 4.97656 1.21745 4.66406 1.54297 4.35156 1.86849 3.97917 2.03125 3.54688 2.03125 3.41667 2.03125 3.31901 2 3.25391 1.9375 3.1888 1.875 3.15625 1.79427 3.15625 1.69531 3.15625 1.60156 3.1875 1.52344 3.25 1.46094 3.30208 1.41406 3.41146 1.38281 3.57812 1.36719 3.83854 1.34115 4.05339 1.23047 4.22266 1.03516 4.39193 0.839844 4.47656 0.598958 4.47656 0.3125L4.47656-2.49219C4.47656-2.82031 4.52865-3.08594 4.63281-3.28906 4.73698-3.49219 4.92188-3.69271 5.1875-3.89062Z" transform="translate(16.5691 103)"/></g></g></g><rect x="549.5" y="192.5" width="129" height="115" stroke="#000000" stroke-miterlimit="8" fill="#C6FAE4"/><text font-family="Courier New,Courier New_MSFontService,sans-serif" font-weight="400" font-size="16" transform="translate(558.741 215)">{<tspan font-size="16" x="19.3334" y="19">"id": 1,</tspan><tspan font-size="16" x="19.3334" y="39">"R2": 8,</tspan><tspan font-size="16" x="19.3334" y="58">"R3": 0</tspan><tspan font-size="16" x="0" y="77">}</tspan></text><path d="M163.62 351.2 206.329 351.2 206.329 378.4 163.62 378.4Z" fill="#3E92A3" fill-rule="evenodd"/><path d="M206.329 351.2 378.329 351.2 378.329 378.4 206.329 378.4Z" fill="#3E92A3" fill-rule="evenodd"/><path d="M163.62 378.4 206.329 378.4 206.329 405.6 163.62 405.6Z" fill="#CEDCE0" fill-rule="evenodd"/><path d="M206.329 378.4 378.329 378.4 378.329 405.6 206.329 405.6Z" fill="#CEDCE0" fill-rule="evenodd"/><path d="M163.62 405.6 206.329 405.6 206.329 432.8 163.62 432.8Z" fill="#E8EEF0" fill-rule="evenodd"/><path d="M206.329 405.6 378.329 405.6 378.329 432.8 206.329 432.8Z" fill="#E8EEF0" fill-rule="evenodd"/><path d="M206.329 350.533 206.329 433.467" stroke="#000000" stroke-width="1.33333" stroke-linejoin="round" stroke-miterlimit="10" fill="none" fill-rule="evenodd"/><path d="M162.954 378.4 378.996 378.4" stroke="#000000" stroke-width="1.33333" stroke-linejoin="round" stroke-miterlimit="10" fill="none" fill-rule="evenodd"/><path d="M162.954 405.6 378.996 405.6" stroke="#000000" stroke-width="1.33333" stroke-linejoin="round" stroke-miterlimit="10" fill="none" fill-rule="evenodd"/><path d="M163.62 350.533 163.62 433.467" stroke="#000000" stroke-width="1.33333" stroke-linejoin="round" stroke-miterlimit="10" fill="none" fill-rule="evenodd"/><path d="M378.329 350.533 378.329 433.467" stroke="#000000" stroke-width="1.33333" stroke-linejoin="round" stroke-miterlimit="10" fill="none" fill-rule="evenodd"/><path d="M162.954 351.2 378.996 351.2" stroke="#000000" stroke-width="1.33333" stroke-linejoin="round" stroke-miterlimit="10" fill="none" fill-rule="evenodd"/><path d="M162.954 432.8 378.996 432.8" stroke="#000000" stroke-width="1.33333" stroke-linejoin="round" stroke-miterlimit="10" fill="none" fill-rule="evenodd"/><text fill="#FFFFFF" font-family="Calibri,Calibri_MSFontService,sans-serif" font-weight="700" font-size="15" transform="translate(178.475 370)">ID<tspan font-size="15" x="109.688" y="0">R</tspan><tspan fill="#000000" font-weight="400" font-size="15" x="2.75002" y="27">1</tspan><tspan fill="#000000" font-weight="400" font-size="15" x="47.5211" y="27">{"R1":1,"R2":2,"R3":3}</tspan><tspan fill="#000000" font-weight="400" font-size="15" x="2.75002" y="54">2</tspan><tspan fill="#000000" font-weight="400" font-size="15" x="47.5211" y="54">{"R1":4,"R2":5,"R3":6}</tspan></text><path d="M246.5 329 258.75 329 258.75 316.5 283.25 316.5 283.25 329 295.5 329 271 341.5Z" stroke="#000000" stroke-width="1.33333" stroke-miterlimit="8" fill="#3E92A3" fill-rule="evenodd"/><path d="M0-0.333333 85.7389-0.333333 85.7389 88.3868 85.4056 88.0534 158.811 88.0534 158.811 88.7201 85.0723 88.7201 85.0723 0 85.4056 0.333333 0 0.333333ZM157.478 84.3868 170.811 88.3868 157.478 92.3868Z" transform="matrix(-1 1.22465e-16 1.22465e-16 1 549.311 290.5)"/><g clip-path="url(#clip8)"><path d="M438.358 283.184C438.358 281.623 439.623 280.358 441.184 280.358L496.733 280.358C498.294 280.358 499.559 281.623 499.559 283.184L499.559 305.073C499.559 306.634 498.294 307.898 496.733 307.898L441.184 307.898C439.623 307.898 438.358 306.634 438.358 305.073Z" fill="#3E92A3" fill-rule="evenodd"/><path d="M441.401 281.888 440.744 282.035 440.33 282.33 440.035 282.744 439.888 283.401 439.888 304.941 440.035 305.598 440.308 305.98 440.707 306.237 441.401 306.391 496.566 306.391 497.26 306.237 497.659 305.98 497.932 305.598 498.078 304.941 498.078 283.401 497.932 282.744 497.637 282.33 497.223 282.035 496.566 281.888ZM441.066 278.828 496.901 278.828 498.494 279.182 499.83 280.137 500.784 281.473 501.138 283.066 501.138 305.276 500.784 306.869 499.808 308.237 498.457 309.105 496.901 309.451 441.066 309.451 439.51 309.105 438.159 308.237 437.182 306.869 436.828 305.276 436.828 283.066 437.182 281.473 438.137 280.137 439.473 279.182Z" fill="#3E92A3" fill-rule="evenodd"/></g><path d="M435.5 280.27C435.5 278.74 436.74 277.5 438.27 277.5L492.73 277.5C494.26 277.5 495.5 278.74 495.5 280.27L495.5 301.73C495.5 303.26 494.26 304.5 492.73 304.5L438.27 304.5C436.74 304.5 435.5 303.26 435.5 301.73Z" stroke="#3E92A3" stroke-width="3" stroke-miterlimit="8" fill="#FFFFFF" fill-rule="evenodd"/><text fill="#1A1D20" font-family="Courier New,Courier New_MSFontService,sans-serif" font-weight="400" font-size="16" transform="translate(445.223 295)">id=1</text><rect x="491.5" y="334.5" width="145" height="136" stroke="#3E92A3" stroke-width="3" stroke-miterlimit="8" fill="#D6EBEF"/><text fill="#3E92A3" font-family="Calibri,Calibri_MSFontService,sans-serif" font-weight="700" font-size="24" transform="translate(506.367 361)">JSON</text><path d="M501.783 377.72 555.46 377.72 555.46 404.92 501.783 404.92Z" fill="#F2F2F2" fill-rule="evenodd"/><path d="M555.46 377.72 609.137 377.72 609.137 404.92 555.46 404.92Z" fill="#F2F2F2" fill-rule="evenodd"/><path d="M501.783 404.92 555.46 404.92 555.46 432.12 501.783 432.12Z" fill="#F2F2F2" fill-rule="evenodd"/><path d="M555.46 404.92 609.137 404.92 609.137 432.12 555.46 432.12Z" fill="#F2F2F2" fill-rule="evenodd"/><path d="M501.783 432.12 555.46 432.12 555.46 459.32 501.783 459.32Z" fill="#F2F2F2" fill-rule="evenodd"/><path d="M555.46 432.12 609.137 432.12 609.137 459.32 555.46 459.32Z" fill="#F2F2F2" fill-rule="evenodd"/><path d="M555.46 377.054 555.46 459.987" stroke="#7F7F7F" stroke-width="1.33333" stroke-linejoin="round" stroke-miterlimit="10" fill="none" fill-rule="evenodd"/><path d="M501.116 404.92 609.804 404.92" stroke="#7F7F7F" stroke-width="1.33333" stroke-linejoin="round" stroke-miterlimit="10" fill="none" fill-rule="evenodd"/><path d="M501.116 432.12 609.804 432.12" stroke="#7F7F7F" stroke-width="1.33333" stroke-linejoin="round" stroke-miterlimit="10" fill="none" fill-rule="evenodd"/><path d="M501.783 377.054 501.783 459.987" stroke="#7F7F7F" stroke-width="1.33333" stroke-linejoin="round" stroke-miterlimit="10" fill="none" fill-rule="evenodd"/><path d="M609.137 377.054 609.137 459.987" stroke="#7F7F7F" stroke-width="1.33333" stroke-linejoin="round" stroke-miterlimit="10" fill="none" fill-rule="evenodd"/><path d="M501.116 377.72 609.804 377.72" stroke="#7F7F7F" stroke-width="1.33333" stroke-linejoin="round" stroke-miterlimit="10" fill="none" fill-rule="evenodd"/><path d="M501.116 459.32 609.804 459.32" stroke="#7F7F7F" stroke-width="1.33333" stroke-linejoin="round" stroke-miterlimit="10" fill="none" fill-rule="evenodd"/><text fill="#A6A6A6" font-family="Calibri,Calibri_MSFontService,sans-serif" font-weight="700" font-size="15" transform="translate(520.705 397)">R1<tspan font-weight="400" font-size="15" x="57.8438" y="0">1</tspan><tspan font-size="15" x="0" y="27">R2</tspan><tspan font-weight="400" font-size="15" x="57.8438" y="27">2</tspan><tspan font-weight="400" font-size="15" x="0.166626" y="54">R3</tspan><tspan font-weight="400" font-size="15" x="57.8438" y="54">3</tspan></text><path d="M378.5 393.167 435.302 393.167 435.302 435.199 434.969 434.866 479.438 434.866 479.438 435.532 434.636 435.532 434.636 393.5 434.969 393.833 378.5 393.833ZM478.105 431.199 491.438 435.199 478.105 439.199Z"/><path d="M0 0.333333-23.9998 0.333333-23.6664 0-23.6664 169.272-23.9998 168.939 56.3891 168.939 56.3891 169.606-24.3331 169.606-24.3331-0.333333 0-0.333333ZM55.0557 165.272 68.3891 169.272 55.0557 173.272Z" transform="matrix(-1 0 0 1 677.889 249.5)"/><path d="M0 0.333333-63.5553 0.333333-63.2219 0-63.2219 169.272-63.5553 168.939 56.3891 168.939 56.3891 169.606-63.8886 169.606-63.8886-0.333333 0-0.333333ZM55.0557 165.272 68.3891 169.272 55.0557 173.272Z" transform="matrix(-1 0 0 1 677.889 276.5)"/><g clip-path="url(#clip9)"><path d="M669.358 333.184C669.358 331.623 670.623 330.358 672.184 330.358L727.733 330.358C729.294 330.358 730.558 331.623 730.558 333.184L730.558 355.073C730.558 356.634 729.294 357.898 727.733 357.898L672.184 357.898C670.623 357.898 669.358 356.634 669.358 355.073Z" fill="#3E92A3" fill-rule="evenodd"/><path d="M672.401 331.888 671.744 332.035 671.33 332.33 671.034 332.744 670.888 333.401 670.888 354.941 671.034 355.598 671.308 355.98 671.707 356.237 672.401 356.391 727.566 356.391 728.26 356.237 728.659 355.98 728.932 355.598 729.078 354.941 729.078 333.401 728.932 332.744 728.637 332.33 728.223 332.035 727.566 331.888ZM672.066 328.828 727.901 328.828 729.494 329.182 730.83 330.137 731.784 331.473 732.138 333.066 732.138 355.276 731.784 356.869 730.808 358.237 729.457 359.105 727.901 359.451 672.066 359.451 670.51 359.105 669.159 358.237 668.182 356.869 667.828 355.276 667.828 333.066 668.182 331.473 669.137 330.137 670.473 329.182Z" fill="#3E92A3" fill-rule="evenodd"/></g><path d="M666.5 330.27C666.5 328.74 667.74 327.5 669.27 327.5L723.73 327.5C725.26 327.5 726.5 328.74 726.5 330.27L726.5 351.73C726.5 353.26 725.26 354.5 723.73 354.5L669.27 354.5C667.74 354.5 666.5 353.26 666.5 351.73Z" stroke="#3E92A3" stroke-width="3" stroke-miterlimit="8" fill="#FFFFFF" fill-rule="evenodd"/><text fill="#1A1D20" font-family="Courier New,Courier New_MSFontService,sans-serif" font-weight="400" font-size="16" transform="translate(676.622 345)">R2=8</text><g clip-path="url(#clip10)"><path d="M710.358 438.184C710.358 436.623 711.623 435.358 713.184 435.358L769.753 435.358C771.314 435.358 772.578 436.623 772.578 438.184L772.578 460.073C772.578 461.634 771.314 462.898 769.753 462.898L713.184 462.898C711.623 462.898 710.358 461.634 710.358 460.073Z" fill="#3E92A3" fill-rule="evenodd"/><path d="M713.401 436.888 712.744 437.035 712.33 437.33 712.034 437.744 711.888 438.401 711.888 459.941 712.034 460.598 712.308 460.98 712.707 461.237 713.401 461.391 769.628 461.391 770.323 461.237 770.689 461.001 770.924 460.635 771.078 459.941 771.078 438.401 770.924 437.707 770.668 437.308 770.285 437.035 769.628 436.888ZM713.066 433.828 769.964 433.828 771.557 434.182 772.924 435.159 773.793 436.51 774.138 438.066 774.138 460.276 773.793 461.832 772.903 463.216 771.519 464.105 769.964 464.451 713.066 464.451 711.51 464.105 710.159 463.237 709.182 461.869 708.828 460.276 708.828 438.066 709.182 436.473 710.137 435.137 711.473 434.182Z" fill="#3E92A3" fill-rule="evenodd"/></g><path d="M707.5 435.27C707.5 433.74 708.74 432.5 710.27 432.5L765.73 432.5C767.26 432.5 768.5 433.74 768.5 435.27L768.5 456.73C768.5 458.26 767.26 459.5 765.73 459.5L710.27 459.5C708.74 459.5 707.5 458.26 707.5 456.73Z" stroke="#3E92A3" stroke-width="3" stroke-miterlimit="8" fill="#FFFFFF" fill-rule="evenodd"/><text fill="#1A1D20" font-family="Courier New,Courier New_MSFontService,sans-serif" font-weight="400" font-size="16" transform="translate(717.85 450)">R3=0</text><path d="M702 268C704.761 268 707 272.029 707 277L707 277 697 277 697 277C697 272.029 699.239 268 702 268Z" fill="#FFFFFF" fill-rule="evenodd"/><path d="M696.501 277.061C696.459 274.576 698.888 272.534 701.925 272.5 704.962 272.467 707.458 274.454 707.5 276.939 707.5 276.959 707.5 276.98 707.5 277" stroke="#000000" stroke-width="0.666667" stroke-miterlimit="8" fill="none" fill-rule="evenodd"/><rect x="499.5" y="497.5" width="130" height="136" stroke="#3E92A3" stroke-width="3" stroke-miterlimit="8" fill="#D6EBEF"/><text fill="#3E92A3" font-family="Calibri,Calibri_MSFontService,sans-serif" font-weight="700" font-size="24" transform="translate(513.701 524)">JSON</text><path d="M509.116 541.095 562.793 541.095 562.793 568.295 509.116 568.295Z" fill="#F2F2F2" fill-rule="evenodd"/><path d="M562.793 541.095 616.47 541.095 616.47 568.295 562.793 568.295Z" fill="#F2F2F2" fill-rule="evenodd"/><path d="M509.116 568.295 562.793 568.295 562.793 595.495 509.116 595.495Z" fill="#3E92A3" fill-rule="evenodd"/><path d="M562.793 568.295 616.47 568.295 616.47 595.495 562.793 595.495Z" fill="#FFFFFF" fill-rule="evenodd"/><path d="M509.116 595.495 562.793 595.495 562.793 622.695 509.116 622.695Z" fill="#3E92A3" fill-rule="evenodd"/><path d="M562.793 595.495 616.47 595.495 616.47 622.695 562.793 622.695Z" fill="#FFFFFF" fill-rule="evenodd"/><path d="M562.793 540.428 562.793 623.362" stroke="#000000" stroke-width="1.33333" stroke-linejoin="round" stroke-miterlimit="10" fill="none" fill-rule="evenodd"/><path d="M508.449 568.295 617.137 568.295" stroke="#000000" stroke-width="1.33333" stroke-linejoin="round" stroke-miterlimit="10" fill="none" fill-rule="evenodd"/><path d="M508.449 595.495 617.137 595.495" stroke="#000000" stroke-width="1.33333" stroke-linejoin="round" stroke-miterlimit="10" fill="none" fill-rule="evenodd"/><path d="M509.116 540.428 509.116 623.362" stroke="#000000" stroke-width="1.33333" stroke-linejoin="round" stroke-miterlimit="10" fill="none" fill-rule="evenodd"/><path d="M616.47 540.428 616.47 623.362" stroke="#000000" stroke-width="1.33333" stroke-linejoin="round" stroke-miterlimit="10" fill="none" fill-rule="evenodd"/><path d="M508.449 541.095 617.137 541.095" stroke="#000000" stroke-width="1.33333" stroke-linejoin="round" stroke-miterlimit="10" fill="none" fill-rule="evenodd"/><path d="M508.449 622.695 617.137 622.695" stroke="#000000" stroke-width="1.33333" stroke-linejoin="round" stroke-miterlimit="10" fill="none" fill-rule="evenodd"/><text fill="#A6A6A6" font-family="Calibri,Calibri_MSFontService,sans-serif" font-weight="700" font-size="15" transform="translate(528.038 560)">R1<tspan font-weight="400" font-size="15" x="57.8438" y="0">1</tspan><tspan fill="#FFFFFF" font-size="15" x="0" y="27">R2</tspan><tspan fill="#3E92A3" font-size="15" x="57.8438" y="27">8</tspan><tspan fill="#FFFFFF" font-weight="400" font-size="15" x="0.166687" y="54">R3</tspan><tspan fill="#3E92A3" font-size="15" x="57.8438" y="54">0</tspan></text><path d="M163.28 524.731 205.988 524.731 205.988 551.931 163.28 551.931Z" fill="#3E92A3" fill-rule="evenodd"/><path d="M205.988 524.731 377.988 524.731 377.988 551.931 205.988 551.931Z" fill="#3E92A3" fill-rule="evenodd"/><path d="M163.28 551.931 205.988 551.931 205.988 579.131 163.28 579.131Z" fill="#CEDCE0" fill-rule="evenodd"/><path d="M205.988 551.931 377.988 551.931 377.988 579.131 205.988 579.131Z" fill="#CEDCE0" fill-rule="evenodd"/><path d="M163.28 579.131 205.988 579.131 205.988 606.331 163.28 606.331Z" fill="#E8EEF0" fill-rule="evenodd"/><path d="M205.988 579.131 377.988 579.131 377.988 606.331 205.988 606.331Z" fill="#E8EEF0" fill-rule="evenodd"/><path d="M205.988 524.064 205.988 606.997" stroke="#000000" stroke-width="1.33333" stroke-linejoin="round" stroke-miterlimit="10" fill="none" fill-rule="evenodd"/><path d="M162.613 551.931 378.655 551.931" stroke="#000000" stroke-width="1.33333" stroke-linejoin="round" stroke-miterlimit="10" fill="none" fill-rule="evenodd"/><path d="M162.613 579.131 378.655 579.131" stroke="#000000" stroke-width="1.33333" stroke-linejoin="round" stroke-miterlimit="10" fill="none" fill-rule="evenodd"/><path d="M163.28 524.064 163.28 606.997" stroke="#000000" stroke-width="1.33333" stroke-linejoin="round" stroke-miterlimit="10" fill="none" fill-rule="evenodd"/><path d="M377.988 524.064 377.988 606.997" stroke="#000000" stroke-width="1.33333" stroke-linejoin="round" stroke-miterlimit="10" fill="none" fill-rule="evenodd"/><path d="M162.613 524.731 378.655 524.731" stroke="#000000" stroke-width="1.33333" stroke-linejoin="round" stroke-miterlimit="10" fill="none" fill-rule="evenodd"/><path d="M162.613 606.331 378.655 606.331" stroke="#000000" stroke-width="1.33333" stroke-linejoin="round" stroke-miterlimit="10" fill="none" fill-rule="evenodd"/><text fill="#FFFFFF" font-family="Calibri,Calibri_MSFontService,sans-serif" font-weight="700" font-size="15" transform="translate(178.134 544)">ID<tspan font-size="15" x="109.688" y="0">R</tspan><tspan fill="#000000" font-weight="400" font-size="15" x="2.75003" y="27">1</tspan><tspan fill="#000000" font-weight="400" font-size="15" x="47.5211" y="27">{"R1":1,"R2":8,"R3":0}</tspan><tspan fill="#000000" font-weight="400" font-size="15" x="2.75003" y="54">2</tspan><tspan fill="#000000" font-weight="400" font-size="15" x="47.5211" y="54">{"R1":4,"R2":5,"R3":6}</tspan></text><path d="M564.833 470.5 564.833 485.812 564.167 485.812 564.167 470.5ZM568.5 484.479 564.5 497.812 560.5 484.479Z"/><path d="M0.000343828-0.333333 108.613-0.221301 108.612 0.445365-0.000343828 0.333333ZM107.283-3.88934 120.612 0.124409 107.275 4.11065Z" transform="matrix(-1 0 0 1 499.112 565.5)"/></g></svg>