<svg width="3996" height="1631" xmlns="http://www.w3.org/2000/svg" xmlns:xlink="http://www.w3.org/1999/xlink" overflow="hidden"><defs><clipPath id="clip0"><rect x="194" y="712" width="3996" height="1631"/></clipPath></defs><g clip-path="url(#clip0)" transform="translate(-194 -712)"><path d="M197.575 2235.41 532.812 2235.41 532.812 2328.91 197.575 2328.91Z" fill="#3E92A3" fill-rule="evenodd"/><path d="M532.812 2235.41 996.384 2235.41 996.384 2328.91 532.812 2328.91Z" fill="#3E92A3" fill-rule="evenodd"/><path d="M996.384 2235.41 1923.53 2235.41 1923.53 2328.91 996.384 2328.91Z" fill="#3E92A3" fill-rule="evenodd"/><path d="M1923.53 2235.41 2269.24 2235.41 2269.24 2328.91 1923.53 2328.91Z" fill="#3E92A3" fill-rule="evenodd"/><path d="M2269.24 2235.41 2705.31 2235.41 2705.31 2328.91 2269.24 2328.91Z" fill="#3E92A3" fill-rule="evenodd"/><path d="M2705.31 2235.41 3130.91 2235.41 3130.91 2328.91 2705.31 2328.91Z" fill="#3E92A3" fill-rule="evenodd"/><path d="M532.812 734.363 532.812 2235.41" stroke="#0D0D0D" stroke-width="4.58333" stroke-linejoin="round" stroke-miterlimit="10" stroke-dasharray="13.75 4.58333" fill="none" fill-rule="evenodd"/><path d="M532.812 2235.41 532.812 2331.2" stroke="#0D0D0D" stroke-width="4.58333" stroke-linejoin="round" stroke-miterlimit="10" fill="none" fill-rule="evenodd"/><path d="M996.384 734.363 996.384 2235.41" stroke="#0D0D0D" stroke-width="4.58333" stroke-linejoin="round" stroke-miterlimit="10" stroke-dasharray="13.75 4.58333" fill="none" fill-rule="evenodd"/><path d="M996.384 2235.41 996.384 2331.2" stroke="#0D0D0D" stroke-width="4.58333" stroke-linejoin="round" stroke-miterlimit="10" fill="none" fill-rule="evenodd"/><path d="M1923.53 734.363 1923.53 2235.41" stroke="#0D0D0D" stroke-width="4.58333" stroke-linejoin="round" stroke-miterlimit="10" stroke-dasharray="13.75 4.58333" fill="none" fill-rule="evenodd"/><path d="M1923.53 2235.41 1923.53 2331.2" stroke="#0D0D0D" stroke-width="4.58333" stroke-linejoin="round" stroke-miterlimit="10" fill="none" fill-rule="evenodd"/><path d="M2269.24 734.363 2269.24 2235.41" stroke="#0D0D0D" stroke-width="4.58333" stroke-linejoin="round" stroke-miterlimit="10" stroke-dasharray="13.75 4.58333" fill="none" fill-rule="evenodd"/><path d="M2269.24 2235.41 2269.24 2331.2" stroke="#0D0D0D" stroke-width="4.58333" stroke-linejoin="round" stroke-miterlimit="10" fill="none" fill-rule="evenodd"/><path d="M2705.31 734.363 2705.31 2235.41" stroke="#0D0D0D" stroke-width="4.58333" stroke-linejoin="round" stroke-miterlimit="10" stroke-dasharray="13.75 4.58333" fill="none" fill-rule="evenodd"/><path d="M2705.31 2235.41 2705.31 2331.2" stroke="#0D0D0D" stroke-width="4.58333" stroke-linejoin="round" stroke-miterlimit="10" fill="none" fill-rule="evenodd"/><path d="M195.283 2235.41 3133.2 2235.41" stroke="#0D0D0D" stroke-width="4.58333" stroke-linejoin="round" stroke-miterlimit="10" fill="none" fill-rule="evenodd"/><path d="M197.575 734.363 197.575 2331.2" stroke="#0D0D0D" stroke-width="4.58333" stroke-linejoin="round" stroke-miterlimit="10" fill="none" fill-rule="evenodd"/><path d="M3130.91 734.363 3130.91 2331.2" stroke="#0D0D0D" stroke-width="4.58333" stroke-linejoin="round" stroke-miterlimit="10" fill="none" fill-rule="evenodd"/><path d="M195.283 736.655 3133.2 736.655" stroke="#0D0D0D" stroke-width="4.58333" stroke-linejoin="round" stroke-miterlimit="10" fill="none" fill-rule="evenodd"/><path d="M195.283 2328.91 3133.2 2328.91" stroke="#0D0D0D" stroke-width="4.58333" stroke-linejoin="round" stroke-miterlimit="10" fill="none" fill-rule="evenodd"/><text fill="#FFFFFF" font-family="Microsoft YaHei,Microsoft YaHei_MSFontService,sans-serif" font-weight="700" font-size="50" transform="matrix(1 0 0 1 292.147 2300)">1<tspan font-size="50" x="30.9375" y="0">.</tspan><tspan font-size="50" x="45.2604" y="0">创建</tspan><tspan font-size="50" x="374.196" y="0">2.</tspan><tspan font-size="50" x="419.457" y="0">初始化</tspan><tspan font-size="50" x="1044.35" y="0">3.</tspan><tspan font-size="50" x="1089.61" y="0">编译模板</tspan><tspan font-size="50" x="1664.73" y="0">4.</tspan><tspan font-size="50" x="1709.99" y="0">挂载</tspan>DOM<tspan font-size="50" x="2071.67" y="0">5.</tspan>更新渲染<tspan font-size="50" x="2552.92" y="0">6.</tspan><tspan font-size="50" x="2598.18" y="0">销毁</tspan></text><path d="M2119.5 1313.5C2119.5 1213.54 2200.54 1132.5 2300.5 1132.5 2400.46 1132.5 2481.5 1213.54 2481.5 1313.5 2481.5 1413.46 2400.46 1494.5 2300.5 1494.5 2200.54 1494.5 2119.5 1413.46 2119.5 1313.5Z" stroke="#879AA4" stroke-width="4.58333" stroke-miterlimit="8" stroke-dasharray="18.3333 13.75" fill="none" fill-rule="evenodd"/><path d="M625 1076C625 1063.3 635.298 1053 648 1053L862.999 1053C875.702 1053 886 1063.3 886 1076L886 1168C886 1180.7 875.702 1191 862.999 1191L648 1191C635.298 1191 625 1180.7 625 1168Z" fill="#3AB882" fill-rule="evenodd"/><path d="M625 1311C625 1298.3 635.298 1288 648 1288L862.999 1288C875.702 1288 886 1298.3 886 1311L886 1403C886 1415.7 875.702 1426 862.999 1426L648 1426C635.298 1426 625 1415.7 625 1403Z" fill="#3AB882" fill-rule="evenodd"/><path d="M1073 1122.5 1296 1010 1519 1122.5 1296 1235Z" fill="#FCB738" fill-rule="evenodd"/><path d="M1073 1425.5 1296 1313 1519 1425.5 1296 1538Z" fill="#FCB738" fill-rule="evenodd"/><path d="M1981 1319.5C1981 1257.37 2031.37 1207 2093.5 1207 2155.63 1207 2206 1257.37 2206 1319.5 2206 1381.63 2155.63 1432 2093.5 1432 2031.37 1432 1981 1381.63 1981 1319.5Z" fill="#DA5961" fill-rule="evenodd"/><path d="M1166 1638.17C1166 1625.37 1176.37 1615 1189.17 1615L1402.83 1615C1415.63 1615 1426 1625.37 1426 1638.17L1426 1730.83C1426 1743.63 1415.63 1754 1402.83 1754L1189.17 1754C1176.37 1754 1166 1743.63 1166 1730.83Z" fill="#3AB882" fill-rule="evenodd"/><path d="M1494 1580C1494 1567.3 1504.3 1557 1517 1557L1732 1557C1744.7 1557 1755 1567.3 1755 1580L1755 1672C1755 1684.7 1744.7 1695 1732 1695L1517 1695C1504.3 1695 1494 1684.7 1494 1672Z" fill="#3AB882" fill-rule="evenodd"/><path d="M1166 1918.17C1166 1905.37 1176.37 1895 1189.17 1895L1402.83 1895C1415.63 1895 1426 1905.37 1426 1918.17L1426 2010.83C1426 2023.63 1415.63 2034 1402.83 2034L1189.17 2034C1176.37 2034 1166 2023.63 1166 2010.83Z" fill="#3AB882" fill-rule="evenodd"/><path d="M2782 1267C2782 1254.3 2792.3 1244 2805 1244L3019 1244C3031.7 1244 3042 1254.3 3042 1267L3042 1359C3042 1371.7 3031.7 1382 3019 1382L2805 1382C2792.3 1382 2782 1371.7 2782 1359Z" fill="#3AB882" fill-rule="evenodd"/><path d="M2782 1613.5C2782 1541.43 2840.2 1483 2912 1483 2983.8 1483 3042 1541.43 3042 1613.5 3042 1685.57 2983.8 1744 2912 1744 2840.2 1744 2782 1685.57 2782 1613.5Z" fill="#DA5961" fill-rule="evenodd"/><path d="M263 1122C263 1066.77 307.548 1022 362.5 1022 417.452 1022 462 1066.77 462 1122 462 1177.23 417.452 1222 362.5 1222 307.548 1222 263 1177.23 263 1122Z" fill="#34495D" fill-rule="evenodd"/><path d="M462 1120.85 583.742 1120.85 583.742 1123.15 462 1123.15ZM579.159 1108.25 624.992 1122 579.159 1135.75Z" fill="#879AA4"/><path d="M757.146 1191 757.146 1246.05 754.854 1246.05 754.854 1191ZM769.75 1241.47 756 1287.3 742.25 1241.47Z" fill="#879AA4"/><path d="M757.146 1425.51 757.146 1508.01 756 1506.87 936.798 1506.87 935.652 1508.01 935.652 1120.85 1032.6 1120.85 1032.6 1123.15 936.798 1123.15 937.944 1122 937.944 1509.16 754.854 1509.16 754.854 1425.51ZM1028.02 1108.25 1073.85 1122 1028.02 1135.75Z" fill="#879AA4"/><path d="M1297.15 1235 1297.15 1272.01 1294.85 1272.01 1294.85 1235ZM1309.75 1267.43 1296 1313.26 1282.25 1267.43Z" fill="#879AA4"/><path d="M1297.15 1538 1297.15 1573.71 1294.85 1573.71 1294.85 1538ZM1309.75 1569.13 1296 1614.96 1282.25 1569.13Z" fill="#879AA4"/><path d="M0 1.14583-9.16667 1.14583-9.16667-1.14583 0-1.14583ZM-16.0417 1.14583-25.2083 1.14583-25.2083-1.14583-16.0417-1.14583ZM-32.0833 1.14583-41.25 1.14583-41.25-1.14583-32.0833-1.14583ZM-48.125 1.14583-57.2917 1.14583-57.2917-1.14583-48.125-1.14583ZM-64.1667 1.14583-73.3333 1.14583-73.3333-1.14583-64.1667-1.14583ZM-80.2083 1.14583-82.5004 1.14583-81.3545 0-81.3545 6.87464-83.6462 6.87464-83.6462-1.14583-80.2083-1.14583ZM-81.3545 13.7496-81.3545 22.9163-83.6462 22.9163-83.6462 13.7496ZM-81.3545 29.7913-81.3545 38.958-83.6462 38.958-83.6462 29.7913ZM-81.3545 45.833-81.3545 54.9996-83.6462 54.9996-83.6462 45.833ZM-81.3545 61.8746-81.3545 71.0413-83.6462 71.0413-83.6462 61.8746ZM-81.3545 77.9163-81.3545 87.083-83.6462 87.083-83.6462 77.9163ZM-81.3545 93.958-81.3545 103.125-83.6462 103.125-83.6462 93.958ZM-81.3545 110-81.3545 119.166-83.6462 119.166-83.6462 110ZM-81.3545 126.041-81.3545 135.208-83.6462 135.208-83.6462 126.041ZM-81.3545 142.083-81.3545 151.25-83.6462 151.25-83.6462 142.083ZM-81.3545 158.125-81.3545 167.291-83.6462 167.291-83.6462 158.125ZM-81.3545 174.166-81.3545 181.693-82.5004 180.547-80.8607 180.547-80.8607 182.839-83.6462 182.839-83.6462 174.166ZM-73.9857 180.547-64.819 180.547-64.819 182.839-73.9857 182.839ZM-57.944 180.547-48.7774 180.547-48.7774 182.839-57.944 182.839ZM-41.9024 180.547-32.7357 180.547-32.7357 182.839-41.9024 182.839ZM-25.8607 180.547-16.694 180.547-16.694 182.839-25.8607 182.839ZM-9.81904 180.547-0.652374 180.547-0.652374 182.839-9.81904 182.839ZM6.22262 180.547 15.3893 180.547 15.3893 182.839 6.22262 182.839ZM22.2643 180.547 31.431 180.547 31.431 182.839 22.2643 182.839ZM38.306 180.547 47.4726 180.547 47.4726 182.839 38.306 182.839ZM54.3476 180.547 63.5143 180.547 63.5143 182.839 54.3476 182.839ZM70.3893 180.547 79.556 180.547 79.556 182.839 70.3893 182.839ZM86.431 180.547 95.5976 180.547 95.5976 182.839 86.431 182.839ZM102.473 180.547 111.639 180.547 111.639 182.839 102.473 182.839ZM114.063 187.291 114.063 196.458 111.771 196.458 111.771 187.291ZM114.063 203.333 114.063 209.514 111.771 209.514 111.771 203.333ZM126.667 204.93 112.917 250.764 99.1667 204.93Z" fill="#879AA4" transform="matrix(-1 0 0 1 1518.92 1122)"/><path d="M1519 1424.85 1626.07 1424.85 1626.07 1515.81 1623.77 1515.81 1623.77 1426 1624.92 1427.15 1519 1427.15ZM1638.67 1511.22 1624.92 1557.06 1611.17 1511.22Z" fill="#879AA4"/><path d="M1.14583-2.91383e-06 1.14609 100.667-1.14558 100.667-1.14583 2.91383e-06ZM13.7502 96.084 0.000360892 141.917-13.7498 96.084Z" fill="#879AA4" transform="matrix(-1 0 0 1 1296 1754)"/><path d="M1625.62 1695 1625.62 1796.37 1296 1796.37 1297.15 1795.22 1297.15 1854.2 1294.85 1854.2 1294.85 1794.08 1624.48 1794.08 1623.33 1795.22 1623.33 1695ZM1309.75 1849.61 1296 1895.45 1282.25 1849.61Z" fill="#879AA4"/><path d="M1297.15 2033.64 1297.15 2083.5 1296 2082.36 1845.1 2082.36 1843.95 2083.5 1843.95 1123.36 2094.81 1123.36 2094.81 1165.75 2092.52 1165.75 2092.52 1124.5 2093.67 1125.65 1845.1 1125.65 1846.24 1124.5 1846.24 2084.65 1294.85 2084.65 1294.85 2033.64ZM2107.42 1161.17 2093.67 1207 2079.92 1161.17Z" fill="#879AA4"/><path d="M2095.15 1432.13 2095.15 1597.13 2094 1595.99 2635.58 1595.99 2634.43 1597.13 2634.43 1172.14 2913.13 1172.14 2913.13 1202.75 2910.84 1202.75 2910.84 1173.29 2911.98 1174.43 2635.58 1174.43 2636.72 1173.29 2636.72 1598.28 2092.85 1598.28 2092.85 1432.13ZM2925.73 1198.17 2911.98 1244 2898.23 1198.17Z" fill="#879AA4"/><path d="M1.14583-4.08744e-06 1.14605 59.919-1.14562 59.919-1.14583 4.08744e-06ZM13.7502 55.3356 0.000360892 101.169-13.7498 55.3357Z" fill="#879AA4" transform="matrix(-1 0 0 1 2912 1382)"/><text font-family="Calibri,Calibri_MSFontService,sans-serif" font-weight="400" font-size="48" transform="matrix(1 0 0 1 223.998 1293)">new Vue<tspan font-size="48" x="171.302" y="0">()</tspan><tspan font-family="SimSun,SimSun_MSFontService,sans-serif" font-size="48" x="0" y="62">实例化对象</tspan><tspan font-family="SimSun,SimSun_MSFontService,sans-serif" font-size="48" x="387.27" y="-343">初始化事件和</tspan><tspan font-family="SimSun,SimSun_MSFontService,sans-serif" font-size="48" x="435.395" y="-286">生命周期</tspan><tspan font-family="SimSun,SimSun_MSFontService,sans-serif" font-size="48" x="356.003" y="279">依赖注入</tspan><tspan font-family="SimSun,SimSun_MSFontService,sans-serif" font-size="48" x="368.034" y="336">和校验</tspan><tspan fill="#FFFFFF" font-size="55" x="1031.48" y="-155">el</tspan><tspan fill="#FFFFFF" font-size="55" x="1071.58" y="-155">?</tspan><tspan fill="#FFFFFF" font-size="55" x="957.989" y="151">template?</tspan><tspan fill="#879AA4" font-size="55" x="940.399" y="-11">YES</tspan><tspan fill="#879AA4" font-size="55" x="1317.33" y="-211">NO</tspan><tspan fill="#879AA4" font-size="55" x="908.901" y="272">YES</tspan><tspan fill="#879AA4" font-size="55" x="1317.81" y="102">NO</tspan><tspan font-weight="700" font-size="48" x="797.016" y="-485">Note </tspan><tspan font-family="SimSun,SimSun_MSFontService,sans-serif" font-size="48" x="905.871" y="-485">: </tspan><tspan font-family="SimSun,SimSun_MSFontService,sans-serif" font-size="48" x="797.016" y="-427">没有</tspan>el<tspan font-family="SimSun,SimSun_MSFontService,sans-serif" font-size="48" x="928.214" y="-427">属性则停止编译，生命周期结束，</tspan><tspan font-family="SimSun,SimSun_MSFontService,sans-serif" font-size="48" x="797.016" y="-370">直至在该实例上调用</tspan>vm.$mount(el<tspan font-size="48" x="1506.29" y="-370">)</tspan><tspan font-family="SimSun,SimSun_MSFontService,sans-serif" font-size="48" x="1520.61" y="-370">时被</tspan><tspan font-family="SimSun,SimSun_MSFontService,sans-serif" font-size="48" x="797.016" y="-308">唤醒继续编译</tspan></text><rect x="1513" y="1180" width="167" height="66" fill="#FFFFFF"/><text font-family="Calibri,Calibri_MSFontService,sans-serif" font-weight="700" font-size="55" transform="matrix(1 0 0 1 1540.72 1231)">Note</text><rect x="771" y="1629" width="355" height="117" fill="#FFFFFF"/><text font-family="SimSun,SimSun_MSFontService,sans-serif" font-weight="400" font-size="48" transform="matrix(1 0 0 1 772.938 1675)">执行<tspan font-family="Calibri,Calibri_MSFontService,sans-serif" font-size="48" x="96.25" y="0">render()</tspan><tspan font-size="48" x="256.667" y="0">方法</tspan><tspan font-size="48" x="64.1667" y="61">渲染组件内容</tspan></text><rect x="697" y="1882" width="429" height="175" fill="#FFFFFF"/><text font-family="SimSun,SimSun_MSFontService,sans-serif" font-weight="400" font-size="48" transform="matrix(1 0 0 1 717.887 1928)">给<tspan font-family="Calibri,Calibri_MSFontService,sans-serif" font-size="48" x="48.125" y="0">vue</tspan><tspan font-size="48" x="119.167" y="0">实例</tspan><tspan font-size="48" x="215.417" y="0">对象</tspan>添加<tspan font-family="Calibri,Calibri_MSFontService,sans-serif" font-size="48" x="11.4584" y="58">$</tspan><tspan font-family="Calibri,Calibri_MSFontService,sans-serif" font-size="48" x="36.0938" y="58">el</tspan><tspan font-size="48" x="71.0417" y="58">成员</tspan><tspan font-size="48" x="167.292" y="58">并替换掉挂</tspan><tspan font-size="48" x="112.292" y="115">载</tspan>的<tspan font-family="Calibri,Calibri_MSFontService,sans-serif" font-size="48" x="208.542" y="115">DOM</tspan>元素</text><rect x="1481" y="1739" width="328" height="175" fill="#FFFFFF"/><text font-family="SimSun,SimSun_MSFontService,sans-serif" font-weight="400" font-size="48" transform="matrix(1 0 0 1 1480.66 1785)">将<tspan font-family="Calibri,Calibri_MSFontService,sans-serif" font-size="48" x="48.125" y="0">el</tspan><tspan font-size="48" x="83.073" y="0">外部的</tspan><tspan font-family="Calibri,Calibri_MSFontService,sans-serif" font-size="48" x="0" y="58">outerHTML</tspan><tspan font-size="48" x="221.719" y="58">作为</tspan><tspan font-size="48" x="0" y="119">模板编译</tspan><tspan fill="#FFFFFF" font-family="Calibri,Calibri_MSFontService,sans-serif" font-size="55" x="514.096" y="-450">Mounted</tspan><tspan fill="#FFFFFF" font-family="Calibri,Calibri_MSFontService,sans-serif" font-size="55" x="1323.18" y="-150">Destroyed</tspan></text><path d="M2342 1273.17C2342 1260.37 2352.37 1250 2365.17 1250L2578.83 1250C2591.63 1250 2602 1260.37 2602 1273.17L2602 1365.83C2602 1378.63 2591.63 1389 2578.83 1389L2365.17 1389C2352.37 1389 2342 1378.63 2342 1365.83Z" fill="#3AB882" fill-rule="evenodd"/><text font-family="SimSun,SimSun_MSFontService,sans-serif" font-weight="400" font-size="48" transform="matrix(1 0 0 1 2283.73 896)">重新渲染虚拟<tspan font-family="Calibri,Calibri_MSFontService,sans-serif" font-size="48" x="288.75" y="0">DOM</tspan><tspan font-size="48" x="37.2397" y="58">并通过</tspan><tspan font-family="Calibri,Calibri_MSFontService,sans-serif" font-size="48" x="181.615" y="58">diff</tspan><tspan font-size="48" x="247.5" y="58">算法对</tspan><tspan font-size="48" x="29.7918" y="115">比</tspan><tspan font-family="Calibri,Calibri_MSFontService,sans-serif" font-size="48" x="77.9168" y="115">vnode</tspan><tspan font-size="48" x="199.375" y="115">节点差异</tspan><tspan font-size="48" x="96.25" y="173">更新真实</tspan><tspan font-family="Calibri,Calibri_MSFontService,sans-serif" font-size="48" x="288.75" y="173">DOM</tspan></text><rect x="2167" y="1103" width="308" height="67" fill="#FFFFFF"/><text fill="#879AA4" font-family="Calibri,Calibri_MSFontService,sans-serif" font-weight="400" font-size="55" transform="matrix(1 0 0 1 2174.62 1154)">data changes</text><path d="M796.5 1218.83C796.5 1214.23 800.231 1210.5 804.833 1210.5L855.166 1210.5C859.769 1210.5 863.5 1214.23 863.5 1218.83L863.5 1252.17C863.5 1256.77 859.769 1260.5 855.166 1260.5L804.833 1260.5C800.231 1260.5 796.5 1256.77 796.5 1252.17Z" stroke="#DA5961" stroke-width="6.875" stroke-miterlimit="8" fill="#FFFFFF" fill-rule="evenodd"/><text fill="#DA5961" font-family="Courier New,Courier New_MSFontService,sans-serif" font-weight="400" font-size="50" transform="matrix(1 0 0 1 814.496 1249)">1</text><path d="M812.5 1495C812.5 1490.31 816.306 1486.5 821 1486.5L871 1486.5C875.694 1486.5 879.5 1490.31 879.5 1495L879.5 1529C879.5 1533.69 875.694 1537.5 871 1537.5L821 1537.5C816.306 1537.5 812.5 1533.69 812.5 1529Z" stroke="#DA5961" stroke-width="6.875" stroke-miterlimit="8" fill="#FFFFFF" fill-rule="evenodd"/><text fill="#DA5961" font-family="Courier New,Courier New_MSFontService,sans-serif" font-weight="400" font-size="50" transform="matrix(1 0 0 1 830.374 1525)">2</text><path d="M1193.5 1813.83C1193.5 1809.23 1197.23 1805.5 1201.83 1805.5L1252.17 1805.5C1256.77 1805.5 1260.5 1809.23 1260.5 1813.83L1260.5 1847.17C1260.5 1851.77 1256.77 1855.5 1252.17 1855.5L1201.83 1855.5C1197.23 1855.5 1193.5 1851.77 1193.5 1847.17Z" stroke="#DA5961" stroke-width="6.875" stroke-miterlimit="8" fill="#FFFFFF" fill-rule="evenodd"/><text fill="#DA5961" font-family="Courier New,Courier New_MSFontService,sans-serif" font-weight="400" font-size="50" transform="matrix(1 0 0 1 1211.58 1844)">3</text><path d="M1974.5 1106.83C1974.5 1102.23 1978.23 1098.5 1982.83 1098.5L2033.17 1098.5C2037.77 1098.5 2041.5 1102.23 2041.5 1106.83L2041.5 1140.17C2041.5 1144.77 2037.77 1148.5 2033.17 1148.5L1982.83 1148.5C1978.23 1148.5 1974.5 1144.77 1974.5 1140.17Z" stroke="#DA5961" stroke-width="6.875" stroke-miterlimit="8" fill="#FFFFFF" fill-rule="evenodd"/><text fill="#DA5961" font-family="Courier New,Courier New_MSFontService,sans-serif" font-weight="400" font-size="50" transform="matrix(1 0 0 1 1992.52 1137)">4</text><path d="M2462.5 1184.83C2462.5 1180.23 2466.23 1176.5 2470.83 1176.5L2521.17 1176.5C2525.77 1176.5 2529.5 1180.23 2529.5 1184.83L2529.5 1218.17C2529.5 1222.77 2525.77 1226.5 2521.17 1226.5L2470.83 1226.5C2466.23 1226.5 2462.5 1222.77 2462.5 1218.17Z" stroke="#DA5961" stroke-width="6.875" stroke-miterlimit="8" fill="#FFFFFF" fill-rule="evenodd"/><text fill="#DA5961" font-family="Courier New,Courier New_MSFontService,sans-serif" font-weight="400" font-size="50" transform="matrix(1 0 0 1 2480.24 1215)">5</text><path d="M2285.5 1480.83C2285.5 1476.23 2289.23 1472.5 2293.83 1472.5L2343.17 1472.5C2347.77 1472.5 2351.5 1476.23 2351.5 1480.83L2351.5 1514.17C2351.5 1518.77 2347.77 1522.5 2343.17 1522.5L2293.83 1522.5C2289.23 1522.5 2285.5 1518.77 2285.5 1514.17Z" stroke="#DA5961" stroke-width="6.875" stroke-miterlimit="8" fill="#FFFFFF" fill-rule="evenodd"/><text fill="#DA5961" font-family="Courier New,Courier New_MSFontService,sans-serif" font-weight="400" font-size="50" transform="matrix(1 0 0 1 2302.76 1511)">6</text><path d="M2429.16 1457.89 2386.67 1478.24 2409.88 1437.24Z" fill="#979797" fill-rule="evenodd"/><path d="M2785.5 1156.83C2785.5 1152.23 2789.23 1148.5 2793.83 1148.5L2843.17 1148.5C2847.77 1148.5 2851.5 1152.23 2851.5 1156.83L2851.5 1190.17C2851.5 1194.77 2847.77 1198.5 2843.17 1198.5L2793.83 1198.5C2789.23 1198.5 2785.5 1194.77 2785.5 1190.17Z" stroke="#DA5961" stroke-width="6.875" stroke-miterlimit="8" fill="#FFFFFF" fill-rule="evenodd"/><text fill="#DA5961" font-family="Courier New,Courier New_MSFontService,sans-serif" font-weight="400" font-size="50" transform="matrix(1 0 0 1 2802.87 1187)">7</text><path d="M2884.5 1803C2884.5 1798.31 2888.31 1794.5 2893 1794.5L2943 1794.5C2947.69 1794.5 2951.5 1798.31 2951.5 1803L2951.5 1837C2951.5 1841.69 2947.69 1845.5 2943 1845.5L2893 1845.5C2888.31 1845.5 2884.5 1841.69 2884.5 1837Z" stroke="#DA5961" stroke-width="6.875" stroke-miterlimit="8" fill="#FFFFFF" fill-rule="evenodd"/><text fill="#DA5961" font-family="Courier New,Courier New_MSFontService,sans-serif" font-weight="400" font-size="50" transform="matrix(1 0 0 1 2902.57 1833)">8<tspan fill="#C00000" font-weight="700" font-size="55" x="391.82" y="-963">beforeCreate</tspan><tspan fill="#C00000" font-weight="700" font-size="55" x="790.57" y="-963">()</tspan><tspan fill="#000000" font-family="SimSun,SimSun_MSFontService,sans-serif" font-size="48" x="391.82" y="-890">组件实例刚创建还未实例化。</tspan><tspan fill="#C00000" font-weight="700" font-size="55" x="391.82" y="-814">created</tspan><tspan fill="#C00000" font-weight="700" font-size="55" x="624.424" y="-814">()</tspan><tspan fill="#000000" font-family="SimSun,SimSun_MSFontService,sans-serif" font-size="48" x="391.82" y="-741">组件实例化完成；但</tspan><tspan fill="#000000" font-size="48" x="824.945" y="-741">DOM</tspan><tspan fill="#000000" font-family="SimSun,SimSun_MSFontService,sans-serif" font-size="48" x="910.882" y="-741">还</tspan><tspan fill="#000000" font-family="SimSun,SimSun_MSFontService,sans-serif" font-size="48" x="959.007" y="-741">未生成。</tspan><tspan fill="#C00000" font-weight="700" font-size="55" x="391.82" y="-666">beforeMount</tspan><tspan fill="#C00000" font-weight="700" font-size="55" x="757.341" y="-666">()</tspan><tspan fill="#000000" font-family="SimSun,SimSun_MSFontService,sans-serif" font-size="48" x="391.82" y="-593">完成</tspan><tspan fill="#000000" font-size="48" x="488.07" y="-593">DOM</tspan><tspan fill="#000000" font-family="SimSun,SimSun_MSFontService,sans-serif" font-size="48" x="574.007" y="-593">配置，模板已被编译。</tspan><tspan fill="#C00000" font-weight="700" font-size="55" x="391.82" y="-517">mounted</tspan><tspan fill="#C00000" font-weight="700" font-size="55" x="624.424" y="-517">()</tspan><tspan fill="#000000" font-family="SimSun,SimSun_MSFontService,sans-serif" font-size="48" x="391.82" y="-444">调用后</tspan><tspan fill="#000000" font-size="48" x="536.195" y="-444">DOM</tspan><tspan fill="#000000" font-family="SimSun,SimSun_MSFontService,sans-serif" font-size="48" x="622.132" y="-444">构建完成并显示页面。</tspan><tspan fill="#C00000" font-weight="700" font-size="55" x="391.82" y="-369">beforeUpdate</tspan><tspan fill="#C00000" font-weight="700" font-size="55" x="790.57" y="-369">()</tspan><tspan fill="#000000" font-family="SimSun,SimSun_MSFontService,sans-serif" font-size="48" x="391.82" y="-296">数据改变时触发对应组件的重新渲染。</tspan><tspan fill="#C00000" font-weight="700" font-size="55" x="391.82" y="-220">updated()</tspan><tspan fill="#000000" font-family="SimSun,SimSun_MSFontService,sans-serif" font-size="48" x="391.82" y="-147">调用后修改的页面展现出来。</tspan><tspan fill="#C00000" font-weight="700" font-size="55" x="391.82" y="-72">beforeDestroy</tspan><tspan fill="#C00000" font-weight="700" font-size="55" x="823.799" y="-72">()</tspan><tspan fill="#000000" font-family="SimSun,SimSun_MSFontService,sans-serif" font-size="48" x="391.82" y="1">组件实例销毁前调用，实例仍完全可用。</tspan><tspan fill="#C00000" font-weight="700" font-size="55" x="391.82" y="77">destroyed()</tspan><tspan fill="#000000" font-family="SimSun,SimSun_MSFontService,sans-serif" font-size="48" x="391.82" y="150">在</tspan><tspan fill="#000000" font-size="48" x="439.945" y="150">VUE</tspan><tspan fill="#000000" font-family="SimSun,SimSun_MSFontService,sans-serif" font-size="48" x="525.882" y="150">实例销毁后调用。</tspan></text><path d="M3199.5 982.834C3199.5 978.231 3203.23 974.5 3207.83 974.5L3256.17 974.5C3260.77 974.5 3264.5 978.231 3264.5 982.834L3264.5 1016.17C3264.5 1020.77 3260.77 1024.5 3256.17 1024.5L3207.83 1024.5C3203.23 1024.5 3199.5 1020.77 3199.5 1016.17Z" stroke="#DA5961" stroke-width="6.875" stroke-miterlimit="8" fill="#FFFFFF" fill-rule="evenodd"/><text fill="#DA5961" font-family="Courier New,Courier New_MSFontService,sans-serif" font-weight="400" font-size="50" transform="matrix(1 0 0 1 3216.64 1013)">2</text><path d="M3199.5 1134C3199.5 1129.31 3203.31 1125.5 3208 1125.5L3256 1125.5C3260.69 1125.5 3264.5 1129.31 3264.5 1134L3264.5 1168C3264.5 1172.69 3260.69 1176.5 3256 1176.5L3208 1176.5C3203.31 1176.5 3199.5 1172.69 3199.5 1168Z" stroke="#DA5961" stroke-width="6.875" stroke-miterlimit="8" fill="#FFFFFF" fill-rule="evenodd"/><text fill="#DA5961" font-family="Courier New,Courier New_MSFontService,sans-serif" font-weight="400" font-size="50" transform="matrix(1 0 0 1 3216.64 1164)">3</text><path d="M3199.5 1289.83C3199.5 1285.23 3203.23 1281.5 3207.83 1281.5L3256.17 1281.5C3260.77 1281.5 3264.5 1285.23 3264.5 1289.83L3264.5 1323.17C3264.5 1327.77 3260.77 1331.5 3256.17 1331.5L3207.83 1331.5C3203.23 1331.5 3199.5 1327.77 3199.5 1323.17Z" stroke="#DA5961" stroke-width="6.875" stroke-miterlimit="8" fill="#FFFFFF" fill-rule="evenodd"/><text fill="#DA5961" font-family="Courier New,Courier New_MSFontService,sans-serif" font-weight="400" font-size="50" transform="matrix(1 0 0 1 3216.64 1320)">4</text><path d="M3199.5 1434C3199.5 1429.31 3203.31 1425.5 3208 1425.5L3256 1425.5C3260.69 1425.5 3264.5 1429.31 3264.5 1434L3264.5 1468C3264.5 1472.69 3260.69 1476.5 3256 1476.5L3208 1476.5C3203.31 1476.5 3199.5 1472.69 3199.5 1468Z" stroke="#DA5961" stroke-width="6.875" stroke-miterlimit="8" fill="#FFFFFF" fill-rule="evenodd"/><text fill="#DA5961" font-family="Courier New,Courier New_MSFontService,sans-serif" font-weight="400" font-size="50" transform="matrix(1 0 0 1 3216.64 1464)">5</text><path d="M3199.5 1581C3199.5 1576.31 3203.31 1572.5 3208 1572.5L3256 1572.5C3260.69 1572.5 3264.5 1576.31 3264.5 1581L3264.5 1615C3264.5 1619.69 3260.69 1623.5 3256 1623.5L3208 1623.5C3203.31 1623.5 3199.5 1619.69 3199.5 1615Z" stroke="#DA5961" stroke-width="6.875" stroke-miterlimit="8" fill="#FFFFFF" fill-rule="evenodd"/><text fill="#DA5961" font-family="Courier New,Courier New_MSFontService,sans-serif" font-weight="400" font-size="50" transform="matrix(1 0 0 1 3216.64 1611)">6</text><path d="M3199.5 1730C3199.5 1725.31 3203.31 1721.5 3208 1721.5L3256 1721.5C3260.69 1721.5 3264.5 1725.31 3264.5 1730L3264.5 1764C3264.5 1768.69 3260.69 1772.5 3256 1772.5L3208 1772.5C3203.31 1772.5 3199.5 1768.69 3199.5 1764Z" stroke="#DA5961" stroke-width="6.875" stroke-miterlimit="8" fill="#FFFFFF" fill-rule="evenodd"/><text fill="#DA5961" font-family="Courier New,Courier New_MSFontService,sans-serif" font-weight="400" font-size="50" transform="matrix(1 0 0 1 3216.64 1760)">7</text><path d="M3199.5 1879.83C3199.5 1875.23 3203.23 1871.5 3207.83 1871.5L3256.17 1871.5C3260.77 1871.5 3264.5 1875.23 3264.5 1879.83L3264.5 1913.17C3264.5 1917.77 3260.77 1921.5 3256.17 1921.5L3207.83 1921.5C3203.23 1921.5 3199.5 1917.77 3199.5 1913.17Z" stroke="#DA5961" stroke-width="6.875" stroke-miterlimit="8" fill="#FFFFFF" fill-rule="evenodd"/><text fill="#DA5961" font-family="Courier New,Courier New_MSFontService,sans-serif" font-weight="400" font-size="50" transform="matrix(1 0 0 1 3215.92 1910)">8</text><path d="M3199.5 837.833C3199.5 833.231 3203.23 829.5 3207.83 829.5L3256.17 829.5C3260.77 829.5 3264.5 833.231 3264.5 837.833L3264.5 871.167C3264.5 875.769 3260.77 879.5 3256.17 879.5L3207.83 879.5C3203.23 879.5 3199.5 875.769 3199.5 871.167Z" stroke="#DA5961" stroke-width="6.875" stroke-miterlimit="8" fill="#FFFFFF" fill-rule="evenodd"/><text fill="#DA5961" font-family="Courier New,Courier New_MSFontService,sans-serif" font-weight="400" font-size="50" transform="matrix(1 0 0 1 3216.64 868)">1<tspan fill="#000000" font-family="Calibri,Calibri_MSFontService,sans-serif" font-weight="700" font-size="55" x="-9.1062" y="-88">HOOK FUNCTIONS</tspan></text></g></svg>