<svg width="2687" height="1740" xmlns="http://www.w3.org/2000/svg" xmlns:xlink="http://www.w3.org/1999/xlink" overflow="hidden"><defs><clipPath id="clip0"><rect x="326" y="595" width="2687" height="1740"/></clipPath></defs><g clip-path="url(#clip0)" transform="translate(-326 -595)"><path d="M328.952 598.418 1131.43 598.418 1131.43 722.669 328.952 722.669Z" fill="#0F6FC6" fill-rule="evenodd"/><path d="M1131.43 598.418 3007.71 598.418 3007.71 722.669 1131.43 722.669Z" fill="#EF546E" fill-rule="evenodd"/><path d="M328.952 722.669 1131.43 722.669 1131.43 2329.53 328.952 2329.53Z" fill="#FFFFFF" fill-rule="evenodd"/><path d="M1131.43 722.669 3007.71 722.669 3007.71 2329.53 1131.43 2329.53Z" fill="#FFFFFF" fill-rule="evenodd"/><path d="M1131.43 596.126 1131.43 2331.83" stroke="#000000" stroke-width="4.58333" stroke-linejoin="round" stroke-miterlimit="10" fill="none" fill-rule="evenodd"/><path d="M326.66 722.669 3010.01 722.669" stroke="#000000" stroke-width="4.58333" stroke-linejoin="round" stroke-miterlimit="10" fill="none" fill-rule="evenodd"/><path d="M328.952 596.126 328.952 2331.83" stroke="#000000" stroke-width="4.58333" stroke-linejoin="round" stroke-miterlimit="10" fill="none" fill-rule="evenodd"/><path d="M3007.71 596.126 3007.71 2331.83" stroke="#000000" stroke-width="4.58333" stroke-linejoin="round" stroke-miterlimit="10" fill="none" fill-rule="evenodd"/><path d="M326.66 598.418 3010.01 598.418" stroke="#000000" stroke-width="4.58333" stroke-linejoin="round" stroke-miterlimit="10" fill="none" fill-rule="evenodd"/><path d="M326.66 2329.53 3010.01 2329.53" stroke="#000000" stroke-width="4.58333" stroke-linejoin="round" stroke-miterlimit="10" fill="none" fill-rule="evenodd"/><text fill="#FFFFFF" font-family="Microsoft YaHei,Microsoft YaHei_MSFontService,sans-serif" font-weight="700" font-size="64" transform="matrix(1 0 0 1 633.94 677)">客户端<tspan font-size="64" x="1339.38" y="0">服务端</tspan></text><path d="M685 817C685 788.281 708.057 765 736.5 765 764.943 765 788 788.281 788 817 788 845.719 764.943 869 736.5 869 708.057 869 685 845.719 685 817Z" fill="#0F6FC6" fill-rule="evenodd"/><path d="M2150.5 1069.5 2378.5 968.5 2606.5 1069.5 2378.5 1170.5Z" stroke="#A6A6A6" stroke-width="4.58333" stroke-miterlimit="8" fill="#F2F2F2" fill-rule="evenodd"/><text font-family="Microsoft YaHei,Microsoft YaHei_MSFontService,sans-serif" font-weight="400" font-size="55" transform="matrix(1 0 0 1 2267.97 1089)">验证登录</text><rect x="436.5" y="1321.5" width="601" height="208" stroke="#A6A6A6" stroke-width="4.58333" stroke-miterlimit="8" fill="#F2F2F2"/><text font-family="Microsoft YaHei,Microsoft YaHei_MSFontService,sans-serif" font-weight="700" font-size="55" transform="matrix(1 0 0 1 544.016 1412)">弹<tspan font-size="55" x="54.9999" y="0">出登录对话框</tspan><tspan fill="#7F7F7F" font-weight="400" font-size="55" x="-27.5" y="66">输入用户名和密码</tspan></text><rect x="436.5" y="1677.5" width="601" height="306" stroke="#A6A6A6" stroke-width="4.58333" stroke-miterlimit="8" fill="#F2F2F2"/><text font-family="Microsoft YaHei,Microsoft YaHei_MSFontService,sans-serif" font-weight="700" font-size="55" transform="matrix(1 0 0 1 543.779 1751)">设置并返回应答<tspan fill="#7F7F7F" font-weight="400" font-size="55" x="-74.7542" y="66">Base</tspan><tspan fill="#7F7F7F" font-weight="400" font-size="55" x="46.1312" y="66">64</tspan><tspan fill="#7F7F7F" font-weight="400" font-size="55" x="113.552" y="66">加密</tspan><tspan fill="#7F7F7F" font-weight="400" font-size="55" x="230.06" y="66">，</tspan><tspan fill="#7F7F7F" font-weight="400" font-size="55" x="288.315" y="66">设置并</tspan><tspan fill="#7F7F7F" font-weight="400" font-size="55" x="-74.7542" y="132">发送含</tspan><tspan fill="#7F7F7F" font-weight="400" font-size="55" x="99.9854" y="132">Authorization</tspan><tspan fill="#7F7F7F" font-weight="400" font-size="55" x="-74.7542" y="198">的请求头给服务器</tspan></text><rect x="436.5" y="965.5" width="601" height="208" stroke="#A6A6A6" stroke-width="4.58333" stroke-miterlimit="8" fill="#F2F2F2"/><text font-family="Microsoft YaHei,Microsoft YaHei_MSFontService,sans-serif" font-weight="700" font-size="55" transform="matrix(1 0 0 1 626.515 1056)">发送请求<tspan fill="#7F7F7F" font-weight="400" font-size="55" x="-110" y="66">向服务器申请验证</tspan></text><rect x="1253.5" y="1221.5" width="692" height="408" stroke="#A6A6A6" stroke-width="4.58333" stroke-miterlimit="8" fill="#F2F2F2"/><text font-family="Microsoft YaHei,Microsoft YaHei_MSFontService,sans-serif" font-weight="700" font-size="55" transform="matrix(1 0 0 1 1351.13 1313)">返回状态码和应答包<tspan fill="#7F7F7F" font-weight="400" font-size="55" x="-65.5875" y="66">返回</tspan><tspan fill="#7F7F7F" font-weight="400" font-size="55" x="77.5042" y="66">401</tspan><tspan fill="#7F7F7F" font-weight="400" font-size="55" x="203.11" y="66">Unauthorized</tspan><tspan fill="#7F7F7F" font-weight="400" font-size="55" x="-65.5875" y="132">状态码以及包含</tspan><tspan fill="#7F7F7F" font-weight="400" font-size="55" x="368.11" y="132">WWW</tspan><tspan fill="#7F7F7F" font-weight="400" font-size="55" x="536.548" y="132">-</tspan><tspan fill="#7F7F7F" font-weight="400" font-size="55" x="-65.5875" y="198">Authenticate</tspan><tspan fill="#7F7F7F" font-weight="400" font-size="55" x="308.917" y="198">信息请求</tspan><tspan fill="#7F7F7F" font-weight="400" font-size="55" x="-65.5875" y="264">头的应答包给客户端</tspan></text><path d="M1410.5 1830 1639 1728.5 1867.5 1830 1639 1931.5Z" stroke="#A6A6A6" stroke-width="4.58333" stroke-miterlimit="8" fill="#F2F2F2" fill-rule="evenodd"/><text font-family="Microsoft YaHei,Microsoft YaHei_MSFontService,sans-serif" font-weight="400" font-size="55" transform="matrix(1 0 0 1 1528.58 1850)">验证账密</text><rect x="1338.5" y="2031.5" width="601" height="208" stroke="#A6A6A6" stroke-width="4.58333" stroke-miterlimit="8" fill="#F2F2F2"/><text font-family="Microsoft YaHei,Microsoft YaHei_MSFontService,sans-serif" font-weight="700" font-size="55" transform="matrix(1 0 0 1 1583.57 2122)">存储<tspan fill="#7F7F7F" font-weight="400" font-size="55" x="-196.785" y="66">信息保存</tspan><tspan fill="#7F7F7F" font-weight="400" font-size="55" x="39.2564" y="66">Session </tspan><tspan fill="#7F7F7F" font-weight="400" font-size="55" x="251.808" y="66">中</tspan></text><rect x="2053.5" y="2026.5" width="650" height="207" stroke="#A6A6A6" stroke-width="4.58333" stroke-miterlimit="8" fill="#F2F2F2"/><text font-family="Microsoft YaHei,Microsoft YaHei_MSFontService,sans-serif" font-weight="700" font-size="55" transform="matrix(1 0 0 1 2267.97 2117)">发送资源<tspan fill="#7F7F7F" font-weight="400" font-size="55" x="-165" y="66">发送给客户端所需资源</tspan></text><path d="M2844.5 2130.5C2844.5 2101.78 2867.78 2078.5 2896.5 2078.5 2925.22 2078.5 2948.5 2101.78 2948.5 2130.5 2948.5 2159.22 2925.22 2182.5 2896.5 2182.5 2867.78 2182.5 2844.5 2159.22 2844.5 2130.5Z" stroke="#EF546E" stroke-width="6.875" stroke-miterlimit="8" fill="#FFFFFF" fill-rule="evenodd"/><path d="M2871 2129.5C2871 2115.42 2882.42 2104 2896.5 2104 2910.58 2104 2922 2115.42 2922 2129.5 2922 2143.58 2910.58 2155 2896.5 2155 2882.42 2155 2871 2143.58 2871 2129.5Z" fill="#EF546E" fill-rule="evenodd"/><path d="M1.14583-8.55812e-06 1.14625 55.3887-1.14542 55.3887-1.14583 8.55812e-06ZM13.7504 50.8052 0.000721785 96.6387-13.7496 50.8055Z" transform="matrix(-1 0 0 1 737.001 869)"/><path d="M3.71705e-07-1.14583 1071.25-1.14549 1071.25 1.14618-3.71705e-07 1.14583ZM1066.67-13.7497 1112.5 0.000360892 1066.67 13.7503Z" transform="matrix(1 0 0 -1 1037 1069)"/><path d="M1.91854e-06-1.14583 174.29-1.14554 174.29 1.14613-1.91854e-06 1.14583ZM169.707-13.7497 215.54 0.000360892 169.707 13.7503Z" transform="matrix(-1 0 0 1 1252.54 1425)"/><path d="M1.14583-2.78607e-06 1.14609 107.175-1.14557 107.175-1.14583 2.78607e-06ZM13.7502 102.592 0.000360892 148.425-13.7498 102.592Z" transform="matrix(-1 0 0 1 737 1529)"/><path d="M1037 1828.85 1368.87 1828.85 1368.87 1831.15 1037 1831.15ZM1364.28 1816.25 1410.12 1830 1364.28 1843.75Z"/><path d="M1640.15 1931 1640.15 1989.64 1637.85 1989.64 1637.85 1931ZM1652.75 1985.06 1639 2030.89 1625.25 1985.06Z"/><path d="M2379.31 1170 2379.31 1425.61 1986.25 1425.61 1986.25 1423.32 2378.16 1423.32 2377.02 1424.46 2377.02 1170ZM1990.83 1438.21 1945 1424.46 1990.83 1410.71Z"/><path d="M0 1.14583-82.4996 1.14583-81.3537 0-81.3537 529.195-82.4996 528.049 229.607 528.049 229.607 915.737 227.316 915.737 227.316 529.195 228.461 530.34-83.6454 530.34-83.6454-1.14583 0-1.14583ZM242.211 911.153 228.461 956.987 214.711 911.153Z" transform="matrix(-1 0 0 1 2606.46 1069)"/><path d="M1939 2133.85 2011.49 2133.85 2011.49 2136.15 1939 2136.15ZM2006.9 2121.25 2052.74 2135 2006.9 2148.75Z"/><path d="M2.92963e-06-1.14583 99.9019-1.14558 99.9019 1.14609-2.92963e-06 1.14583ZM95.3186-13.7498 141.152 0.000360892 95.3185 13.7502Z" transform="matrix(1 0 0 -1 2703 2130)"/><rect x="2263" y="1248" width="258" height="99.9996" fill="#FFFFFF"/><text font-family="Microsoft YaHei,Microsoft YaHei_MSFontService,sans-serif" font-weight="400" font-size="55" transform="matrix(1 0 0 1 2309.4 1317)">未登录</text><rect x="2558" y="1414" width="258" height="100" fill="#FFFFFF"/><text font-family="Microsoft YaHei,Microsoft YaHei_MSFontService,sans-serif" font-weight="400" font-size="55" transform="matrix(1 0 0 1 2604.75 1483)">已登录</text><rect x="1729" y="1915" width="324" height="100" fill="#FFFFFF"/><text font-family="Microsoft YaHei,Microsoft YaHei_MSFontService,sans-serif" font-weight="400" font-size="55" transform="matrix(1 0 0 1 1780.84 1984)">验证通过</text></g></svg>