<svg width="4064" height="1593" xmlns="http://www.w3.org/2000/svg" xmlns:xlink="http://www.w3.org/1999/xlink" overflow="hidden"><defs><clipPath id="clip0"><rect x="135" y="699" width="4064" height="1593"/></clipPath></defs><g clip-path="url(#clip0)" transform="translate(-135 -699)"><rect x="219" y="708" width="1002" height="358"/><text fill="#FFFFFF" font-family="Calibri,Calibri_MSFontService,sans-serif" font-weight="700" font-size="165" transform="matrix(1 0 0 1 541.106 903)">HTTP<tspan font-weight="400" font-size="64" x="-189.131" y="104">Hyper Text Transfer Protocol</tspan></text><rect x="384.5" y="1112.5" width="837" height="236" stroke="#A6A6A6" stroke-width="4.58333" stroke-miterlimit="8" fill="#F2F2F2"/><text font-family="Microsoft YaHei,Microsoft YaHei_MSFontService,sans-serif" font-weight="700" font-size="64" transform="matrix(1 0 0 1 416.67 1193)">简单快速<tspan fill="#7F7F7F" font-weight="400" font-size="50" x="0" y="63">请求</tspan><tspan fill="#7F7F7F" font-weight="400" font-size="50" x="100.833" y="63">服务时只需要请求方法和路径，</tspan><tspan fill="#7F7F7F" font-weight="400" font-size="50" x="0" y="124">程序规模小，通信速度很快</tspan></text><rect x="384.5" y="1676.5" width="837" height="236" stroke="#A6A6A6" stroke-width="4.58333" stroke-miterlimit="8" fill="#F2F2F2"/><text font-family="Microsoft YaHei,Microsoft YaHei_MSFontService,sans-serif" font-weight="700" font-size="64" transform="matrix(1 0 0 1 416.67 1757)">无连接<tspan fill="#7F7F7F" font-weight="400" font-size="50" x="0" y="63">每次链接只处理一次请求，处理完</tspan><tspan fill="#7F7F7F" font-weight="400" font-size="50" x="0" y="124">应答后服务器即断开链接</tspan></text><rect x="384.5" y="1394.5" width="837" height="236" stroke="#A6A6A6" stroke-width="4.58333" stroke-miterlimit="8" fill="#F2F2F2"/><text font-family="Microsoft YaHei,Microsoft YaHei_MSFontService,sans-serif" font-weight="700" font-size="64" transform="matrix(1 0 0 1 416.67 1475)">灵活<tspan fill="#7F7F7F" font-weight="400" font-size="50" x="0" y="63">可</tspan><tspan fill="#7F7F7F" font-weight="400" font-size="50" x="50.4167" y="63">由</tspan><tspan fill="#7F7F7F" font-weight="400" font-size="50" x="115.729" y="63">Content</tspan><tspan fill="#7F7F7F" font-weight="400" font-size="50" x="309.948" y="63">-</tspan><tspan fill="#7F7F7F" font-weight="400" font-size="50" x="331.719" y="63">Type </tspan><tspan fill="#7F7F7F" font-weight="400" font-size="50" x="462.917" y="63">指定任意类型</tspan><tspan fill="#7F7F7F" font-weight="400" font-size="50" x="0" y="124">的数据类型进行传输</tspan></text><rect x="384.5" y="1958.5" width="837" height="236" stroke="#A6A6A6" stroke-width="4.58333" stroke-miterlimit="8" fill="#F2F2F2"/><text font-family="Microsoft YaHei,Microsoft YaHei_MSFontService,sans-serif" font-weight="700" font-size="64" transform="matrix(1 0 0 1 416.67 2039)">无<tspan font-size="64" x="64.1667" y="0">状态</tspan><tspan fill="#7F7F7F" font-weight="400" font-size="50" x="0" y="63">协议对事务处理没有记忆能力</tspan><tspan fill="#7F7F7F" font-weight="400" font-size="50" x="655.417" y="63">，</tspan><tspan fill="#7F7F7F" font-weight="400" font-size="50" x="705.833" y="63">后</tspan><tspan fill="#7F7F7F" font-weight="400" font-size="50" x="0" y="124">续处理需要先前信息则必须重传</tspan></text><path d="M219 887 136.5 887 136.5 1230.36 384 1230.36" stroke="#000000" stroke-width="2.29167" stroke-miterlimit="8" fill="none" fill-rule="evenodd"/><path d="M219 887 136.5 887 136.5 1512.24 384 1512.24" stroke="#000000" stroke-width="2.29167" stroke-miterlimit="8" fill="none" fill-rule="evenodd"/><path d="M219 887 136.5 887 136.5 1794.11 383.999 1794.11" stroke="#000000" stroke-width="2.29167" stroke-miterlimit="8" fill="none" fill-rule="evenodd"/><path d="M219 887 136.5 887 136.5 2075.98 384 2075.98" stroke="#000000" stroke-width="2.29167" stroke-miterlimit="8" fill="none" fill-rule="evenodd"/><rect x="1358.5" y="707.5" width="347" height="640" stroke="#A6A6A6" stroke-width="4.58333" stroke-miterlimit="8" fill="#F2F2F2"/><text font-family="Source Code Pro,Source Code Pro_MSFontService,sans-serif" font-weight="300" font-size="64" transform="matrix(1 0 0 1 1390.97 779)">GET<tspan font-size="64" x="0" y="77">HEAD</tspan><tspan font-size="64" x="0" y="154">POST</tspan><tspan font-size="64" x="0" y="231">PUT</tspan><tspan font-size="64" x="0" y="308">DELETE</tspan><tspan font-size="64" x="0" y="385">CONNECT</tspan><tspan font-size="64" x="0" y="462">OPTIONS</tspan><tspan font-size="64" x="0" y="539">TRAC</tspan><tspan font-size="64" x="153.542" y="539">E</tspan></text><path d="M0 0 68.3041 0 68.3041 203.008 136.608 203.008" stroke="#000000" stroke-width="2.29167" stroke-miterlimit="8" fill="none" fill-rule="evenodd" transform="matrix(1 0 0 -1 1221 1230.01)"/><rect x="1358.5" y="1444.5" width="688" height="357" stroke="#A6A6A6" stroke-width="4.58333" stroke-miterlimit="8" fill="#F2F2F2"/><text font-family="Source Code Pro,Source Code Pro_MSFontService,sans-serif" font-weight="300" font-size="64" transform="matrix(1 0 0 1 1390.97 1528)">text/xml<tspan font-size="64" x="0" y="77">text/plain</tspan><tspan font-size="64" x="0" y="154">Image/jpeg</tspan><tspan font-size="64" x="0" y="231">application/json</tspan></text><path d="M1221 1512 1289.3 1512 1289.3 1622.14 1357.61 1622.14" stroke="#000000" stroke-width="2.29167" stroke-miterlimit="8" fill="none" fill-rule="evenodd"/><rect x="1361.5" y="1897.5" width="688" height="358" stroke="#002060" stroke-width="6.875" stroke-miterlimit="8" fill="#0F6FC6"/><text fill="#FFFFFF" font-family="Calibri,Calibri_MSFontService,sans-serif" font-weight="700" font-size="165" transform="matrix(1 0 0 1 1471.59 2092)">Cookie<tspan font-family="Microsoft YaHei,Microsoft YaHei_MSFontService,sans-serif" font-weight="400" font-size="64" x="-55" y="106">客户端数据保存机制</tspan></text><path d="M0-1.14583 71.2033-1.14583 71.2033 0.000360892 70.0575-1.14547 98.865-1.14547 98.865 1.14619 68.9117 1.14619 68.9117 0 70.0575 1.14583 0 1.14583ZM94.2817-13.7496 140.115 0.000360892 94.2817 13.7504Z" transform="matrix(1 0 0 -1 1221 2076)"/><rect x="2552.5" y="943.5" width="48.0002" height="1320" stroke="#00664D" stroke-width="4.58333" stroke-miterlimit="8" fill="#43EDA6"/><rect x="3362.5" y="1141.5" width="47.9998" height="311" stroke="#00664D" stroke-width="4.58333" stroke-miterlimit="8" fill="#43EDA6"/><path d="M2600 1139.85 3317.94 1139.85C3318.57 1139.85 3319.08 1140.37 3319.08 1141 3319.08 1141.63 3318.57 1142.15 3317.94 1142.15L2600 1142.15C2599.37 1142.15 2598.85 1141.63 2598.85 1141 2598.85 1140.37 2599.37 1139.85 2600 1139.85ZM3313.35 1127.25 3359.19 1141 3313.35 1154.75Z" fill="#12B973"/><path d="M2641.25 1450.85 2648.13 1450.85C2648.76 1450.85 2649.27 1451.37 2649.27 1452 2649.27 1452.63 2648.76 1453.15 2648.13 1453.15L2641.25 1453.15C2640.62 1453.15 2640.1 1452.63 2640.1 1452 2640.1 1451.37 2640.62 1450.85 2641.25 1450.85ZM2657.29 1450.85 2664.17 1450.85C2664.8 1450.85 2665.31 1451.37 2665.31 1452 2665.31 1452.63 2664.8 1453.15 2664.17 1453.15L2657.29 1453.15C2656.66 1453.15 2656.15 1452.63 2656.15 1452 2656.15 1451.37 2656.66 1450.85 2657.29 1450.85ZM2673.33 1450.85 2680.21 1450.85C2680.84 1450.85 2681.35 1451.37 2681.35 1452 2681.35 1452.63 2680.84 1453.15 2680.21 1453.15L2673.33 1453.15C2672.7 1453.15 2672.19 1452.63 2672.19 1452 2672.19 1451.37 2672.7 1450.85 2673.33 1450.85ZM2689.38 1450.85 2696.25 1450.85C2696.88 1450.85 2697.4 1451.37 2697.4 1452 2697.4 1452.63 2696.88 1453.15 2696.25 1453.15L2689.38 1453.15C2688.74 1453.15 2688.23 1452.63 2688.23 1452 2688.23 1451.37 2688.74 1450.85 2689.38 1450.85ZM2705.42 1450.85 2712.29 1450.85C2712.93 1450.85 2713.44 1451.37 2713.44 1452 2713.44 1452.63 2712.93 1453.15 2712.29 1453.15L2705.42 1453.15C2704.78 1453.15 2704.27 1452.63 2704.27 1452 2704.27 1451.37 2704.78 1450.85 2705.42 1450.85ZM2721.46 1450.85 2728.33 1450.85C2728.97 1450.85 2729.48 1451.37 2729.48 1452 2729.48 1452.63 2728.97 1453.15 2728.33 1453.15L2721.46 1453.15C2720.83 1453.15 2720.31 1452.63 2720.31 1452 2720.31 1451.37 2720.83 1450.85 2721.46 1450.85ZM2737.5 1450.85 2744.38 1450.85C2745.01 1450.85 2745.52 1451.37 2745.52 1452 2745.52 1452.63 2745.01 1453.15 2744.38 1453.15L2737.5 1453.15C2736.87 1453.15 2736.35 1452.63 2736.35 1452 2736.35 1451.37 2736.87 1450.85 2737.5 1450.85ZM2753.54 1450.85 2760.42 1450.85C2761.05 1450.85 2761.56 1451.37 2761.56 1452 2761.56 1452.63 2761.05 1453.15 2760.42 1453.15L2753.54 1453.15C2752.91 1453.15 2752.4 1452.63 2752.4 1452 2752.4 1451.37 2752.91 1450.85 2753.54 1450.85ZM2769.58 1450.85 2776.46 1450.85C2777.09 1450.85 2777.6 1451.37 2777.6 1452 2777.6 1452.63 2777.09 1453.15 2776.46 1453.15L2769.58 1453.15C2768.95 1453.15 2768.44 1452.63 2768.44 1452 2768.44 1451.37 2768.95 1450.85 2769.58 1450.85ZM2785.63 1450.85 2792.5 1450.85C2793.13 1450.85 2793.65 1451.37 2793.65 1452 2793.65 1452.63 2793.13 1453.15 2792.5 1453.15L2785.63 1453.15C2784.99 1453.15 2784.48 1452.63 2784.48 1452 2784.48 1451.37 2784.99 1450.85 2785.63 1450.85ZM2801.67 1450.85 2808.54 1450.85C2809.18 1450.85 2809.69 1451.37 2809.69 1452 2809.69 1452.63 2809.18 1453.15 2808.54 1453.15L2801.67 1453.15C2801.03 1453.15 2800.52 1452.63 2800.52 1452 2800.52 1451.37 2801.03 1450.85 2801.67 1450.85ZM2817.71 1450.85 2824.58 1450.85C2825.22 1450.85 2825.73 1451.37 2825.73 1452 2825.73 1452.63 2825.22 1453.15 2824.58 1453.15L2817.71 1453.15C2817.08 1453.15 2816.56 1452.63 2816.56 1452 2816.56 1451.37 2817.08 1450.85 2817.71 1450.85ZM2833.75 1450.85 2840.63 1450.85C2841.26 1450.85 2841.77 1451.37 2841.77 1452 2841.77 1452.63 2841.26 1453.15 2840.63 1453.15L2833.75 1453.15C2833.12 1453.15 2832.6 1452.63 2832.6 1452 2832.6 1451.37 2833.12 1450.85 2833.75 1450.85ZM2849.79 1450.85 2856.67 1450.85C2857.3 1450.85 2857.81 1451.37 2857.81 1452 2857.81 1452.63 2857.3 1453.15 2856.67 1453.15L2849.79 1453.15C2849.16 1453.15 2848.65 1452.63 2848.65 1452 2848.65 1451.37 2849.16 1450.85 2849.79 1450.85ZM2865.83 1450.85 2872.71 1450.85C2873.34 1450.85 2873.85 1451.37 2873.85 1452 2873.85 1452.63 2873.34 1453.15 2872.71 1453.15L2865.83 1453.15C2865.2 1453.15 2864.69 1452.63 2864.69 1452 2864.69 1451.37 2865.2 1450.85 2865.83 1450.85ZM2881.88 1450.85 2888.75 1450.85C2889.38 1450.85 2889.9 1451.37 2889.9 1452 2889.9 1452.63 2889.38 1453.15 2888.75 1453.15L2881.88 1453.15C2881.24 1453.15 2880.73 1452.63 2880.73 1452 2880.73 1451.37 2881.24 1450.85 2881.88 1450.85ZM2897.92 1450.85 2904.79 1450.85C2905.43 1450.85 2905.94 1451.37 2905.94 1452 2905.94 1452.63 2905.43 1453.15 2904.79 1453.15L2897.92 1453.15C2897.28 1453.15 2896.77 1452.63 2896.77 1452 2896.77 1451.37 2897.28 1450.85 2897.92 1450.85ZM2913.96 1450.85 2920.83 1450.85C2921.47 1450.85 2921.98 1451.37 2921.98 1452 2921.98 1452.63 2921.47 1453.15 2920.83 1453.15L2913.96 1453.15C2913.33 1453.15 2912.81 1452.63 2912.81 1452 2912.81 1451.37 2913.33 1450.85 2913.96 1450.85ZM2930 1450.85 2936.88 1450.85C2937.51 1450.85 2938.02 1451.37 2938.02 1452 2938.02 1452.63 2937.51 1453.15 2936.88 1453.15L2930 1453.15C2929.37 1453.15 2928.85 1452.63 2928.85 1452 2928.85 1451.37 2929.37 1450.85 2930 1450.85ZM2946.04 1450.85 2952.92 1450.85C2953.55 1450.85 2954.06 1451.37 2954.06 1452 2954.06 1452.63 2953.55 1453.15 2952.92 1453.15L2946.04 1453.15C2945.41 1453.15 2944.9 1452.63 2944.9 1452 2944.9 1451.37 2945.41 1450.85 2946.04 1450.85ZM2962.08 1450.85 2968.96 1450.85C2969.59 1450.85 2970.1 1451.37 2970.1 1452 2970.1 1452.63 2969.59 1453.15 2968.96 1453.15L2962.08 1453.15C2961.45 1453.15 2960.94 1452.63 2960.94 1452 2960.94 1451.37 2961.45 1450.85 2962.08 1450.85ZM2978.13 1450.85 2985 1450.85C2985.63 1450.85 2986.15 1451.37 2986.15 1452 2986.15 1452.63 2985.63 1453.15 2985 1453.15L2978.13 1453.15C2977.49 1453.15 2976.98 1452.63 2976.98 1452 2976.98 1451.37 2977.49 1450.85 2978.13 1450.85ZM2994.17 1450.85 3001.04 1450.85C3001.68 1450.85 3002.19 1451.37 3002.19 1452 3002.19 1452.63 3001.68 1453.15 3001.04 1453.15L2994.17 1453.15C2993.53 1453.15 2993.02 1452.63 2993.02 1452 2993.02 1451.37 2993.53 1450.85 2994.17 1450.85ZM3010.21 1450.85 3017.08 1450.85C3017.72 1450.85 3018.23 1451.37 3018.23 1452 3018.23 1452.63 3017.72 1453.15 3017.08 1453.15L3010.21 1453.15C3009.58 1453.15 3009.06 1452.63 3009.06 1452 3009.06 1451.37 3009.58 1450.85 3010.21 1450.85ZM3026.25 1450.85 3033.13 1450.85C3033.76 1450.85 3034.27 1451.37 3034.27 1452 3034.27 1452.63 3033.76 1453.15 3033.13 1453.15L3026.25 1453.15C3025.62 1453.15 3025.1 1452.63 3025.1 1452 3025.1 1451.37 3025.62 1450.85 3026.25 1450.85ZM3042.29 1450.85 3049.17 1450.85C3049.8 1450.85 3050.31 1451.37 3050.31 1452 3050.31 1452.63 3049.8 1453.15 3049.17 1453.15L3042.29 1453.15C3041.66 1453.15 3041.15 1452.63 3041.15 1452 3041.15 1451.37 3041.66 1450.85 3042.29 1450.85ZM3058.33 1450.85 3065.21 1450.85C3065.84 1450.85 3066.35 1451.37 3066.35 1452 3066.35 1452.63 3065.84 1453.15 3065.21 1453.15L3058.33 1453.15C3057.7 1453.15 3057.19 1452.63 3057.19 1452 3057.19 1451.37 3057.7 1450.85 3058.33 1450.85ZM3074.38 1450.85 3081.25 1450.85C3081.88 1450.85 3082.4 1451.37 3082.4 1452 3082.4 1452.63 3081.88 1453.15 3081.25 1453.15L3074.38 1453.15C3073.74 1453.15 3073.23 1452.63 3073.23 1452 3073.23 1451.37 3073.74 1450.85 3074.38 1450.85ZM3090.42 1450.85 3097.29 1450.85C3097.93 1450.85 3098.44 1451.37 3098.44 1452 3098.44 1452.63 3097.93 1453.15 3097.29 1453.15L3090.42 1453.15C3089.78 1453.15 3089.27 1452.63 3089.27 1452 3089.27 1451.37 3089.78 1450.85 3090.42 1450.85ZM3106.46 1450.85 3113.33 1450.85C3113.97 1450.85 3114.48 1451.37 3114.48 1452 3114.48 1452.63 3113.97 1453.15 3113.33 1453.15L3106.46 1453.15C3105.83 1453.15 3105.31 1452.63 3105.31 1452 3105.31 1451.37 3105.83 1450.85 3106.46 1450.85ZM3122.5 1450.85 3129.38 1450.85C3130.01 1450.85 3130.52 1451.37 3130.52 1452 3130.52 1452.63 3130.01 1453.15 3129.38 1453.15L3122.5 1453.15C3121.87 1453.15 3121.35 1452.63 3121.35 1452 3121.35 1451.37 3121.87 1450.85 3122.5 1450.85ZM3138.54 1450.85 3145.42 1450.85C3146.05 1450.85 3146.56 1451.37 3146.56 1452 3146.56 1452.63 3146.05 1453.15 3145.42 1453.15L3138.54 1453.15C3137.91 1453.15 3137.4 1452.63 3137.4 1452 3137.4 1451.37 3137.91 1450.85 3138.54 1450.85ZM3154.58 1450.85 3161.46 1450.85C3162.09 1450.85 3162.6 1451.37 3162.6 1452 3162.6 1452.63 3162.09 1453.15 3161.46 1453.15L3154.58 1453.15C3153.95 1453.15 3153.44 1452.63 3153.44 1452 3153.44 1451.37 3153.95 1450.85 3154.58 1450.85ZM3170.63 1450.85 3177.5 1450.85C3178.13 1450.85 3178.65 1451.37 3178.65 1452 3178.65 1452.63 3178.13 1453.15 3177.5 1453.15L3170.63 1453.15C3169.99 1453.15 3169.48 1452.63 3169.48 1452 3169.48 1451.37 3169.99 1450.85 3170.63 1450.85ZM3186.67 1450.85 3193.54 1450.85C3194.18 1450.85 3194.69 1451.37 3194.69 1452 3194.69 1452.63 3194.18 1453.15 3193.54 1453.15L3186.67 1453.15C3186.03 1453.15 3185.52 1452.63 3185.52 1452 3185.52 1451.37 3186.03 1450.85 3186.67 1450.85ZM3202.71 1450.85 3209.58 1450.85C3210.22 1450.85 3210.73 1451.37 3210.73 1452 3210.73 1452.63 3210.22 1453.15 3209.58 1453.15L3202.71 1453.15C3202.08 1453.15 3201.56 1452.63 3201.56 1452 3201.56 1451.37 3202.08 1450.85 3202.71 1450.85ZM3218.75 1450.85 3225.63 1450.85C3226.26 1450.85 3226.77 1451.37 3226.77 1452 3226.77 1452.63 3226.26 1453.15 3225.63 1453.15L3218.75 1453.15C3218.12 1453.15 3217.6 1452.63 3217.6 1452 3217.6 1451.37 3218.12 1450.85 3218.75 1450.85ZM3234.79 1450.85 3241.67 1450.85C3242.3 1450.85 3242.81 1451.37 3242.81 1452 3242.81 1452.63 3242.3 1453.15 3241.67 1453.15L3234.79 1453.15C3234.16 1453.15 3233.65 1452.63 3233.65 1452 3233.65 1451.37 3234.16 1450.85 3234.79 1450.85ZM3250.83 1450.85 3257.71 1450.85C3258.34 1450.85 3258.85 1451.37 3258.85 1452 3258.85 1452.63 3258.34 1453.15 3257.71 1453.15L3250.83 1453.15C3250.2 1453.15 3249.69 1452.63 3249.69 1452 3249.69 1451.37 3250.2 1450.85 3250.83 1450.85ZM3266.88 1450.85 3273.75 1450.85C3274.38 1450.85 3274.9 1451.37 3274.9 1452 3274.9 1452.63 3274.38 1453.15 3273.75 1453.15L3266.88 1453.15C3266.24 1453.15 3265.73 1452.63 3265.73 1452 3265.73 1451.37 3266.24 1450.85 3266.88 1450.85ZM3282.92 1450.85 3289.79 1450.85C3290.43 1450.85 3290.94 1451.37 3290.94 1452 3290.94 1452.63 3290.43 1453.15 3289.79 1453.15L3282.92 1453.15C3282.28 1453.15 3281.77 1452.63 3281.77 1452 3281.77 1451.37 3282.28 1450.85 3282.92 1450.85ZM3298.96 1450.85 3305.83 1450.85C3306.47 1450.85 3306.98 1451.37 3306.98 1452 3306.98 1452.63 3306.47 1453.15 3305.83 1453.15L3298.96 1453.15C3298.33 1453.15 3297.81 1452.63 3297.81 1452 3297.81 1451.37 3298.33 1450.85 3298.96 1450.85ZM3315 1450.85 3321.88 1450.85C3322.51 1450.85 3323.02 1451.37 3323.02 1452 3323.02 1452.63 3322.51 1453.15 3321.88 1453.15L3315 1453.15C3314.37 1453.15 3313.85 1452.63 3313.85 1452 3313.85 1451.37 3314.37 1450.85 3315 1450.85ZM3331.04 1450.85 3337.92 1450.85C3338.55 1450.85 3339.06 1451.37 3339.06 1452 3339.06 1452.63 3338.55 1453.15 3337.92 1453.15L3331.04 1453.15C3330.41 1453.15 3329.9 1452.63 3329.9 1452 3329.9 1451.37 3330.41 1450.85 3331.04 1450.85ZM3347.08 1450.85 3353.96 1450.85C3354.59 1450.85 3355.1 1451.37 3355.1 1452 3355.1 1452.63 3354.59 1453.15 3353.96 1453.15L3347.08 1453.15C3346.45 1453.15 3345.94 1452.63 3345.94 1452 3345.94 1451.37 3346.45 1450.85 3347.08 1450.85ZM2645.83 1465.75 2600 1452 2645.83 1438.25Z" fill="#12B973"/><rect x="3362.5" y="1703.5" width="47.9998" height="157" stroke="#00664D" stroke-width="4.58333" stroke-miterlimit="8" fill="#43EDA6"/><path d="M2600 1702.85 3317.94 1702.85C3318.57 1702.85 3319.08 1703.37 3319.08 1704 3319.08 1704.63 3318.57 1705.15 3317.94 1705.15L2600 1705.15C2599.37 1705.15 2598.85 1704.63 2598.85 1704 2598.85 1703.37 2599.37 1702.85 2600 1702.85ZM3313.35 1690.25 3359.19 1704 3313.35 1717.75Z" fill="#12B973"/><path d="M2641.25 1858.85 2648.13 1858.85C2648.76 1858.85 2649.27 1859.37 2649.27 1860 2649.27 1860.63 2648.76 1861.15 2648.13 1861.15L2641.25 1861.15C2640.62 1861.15 2640.1 1860.63 2640.1 1860 2640.1 1859.37 2640.62 1858.85 2641.25 1858.85ZM2657.29 1858.85 2664.17 1858.85C2664.8 1858.85 2665.31 1859.37 2665.31 1860 2665.31 1860.63 2664.8 1861.15 2664.17 1861.15L2657.29 1861.15C2656.66 1861.15 2656.15 1860.63 2656.15 1860 2656.15 1859.37 2656.66 1858.85 2657.29 1858.85ZM2673.33 1858.85 2680.21 1858.85C2680.84 1858.85 2681.35 1859.37 2681.35 1860 2681.35 1860.63 2680.84 1861.15 2680.21 1861.15L2673.33 1861.15C2672.7 1861.15 2672.19 1860.63 2672.19 1860 2672.19 1859.37 2672.7 1858.85 2673.33 1858.85ZM2689.38 1858.85 2696.25 1858.85C2696.88 1858.85 2697.4 1859.37 2697.4 1860 2697.4 1860.63 2696.88 1861.15 2696.25 1861.15L2689.38 1861.15C2688.74 1861.15 2688.23 1860.63 2688.23 1860 2688.23 1859.37 2688.74 1858.85 2689.38 1858.85ZM2705.42 1858.85 2712.29 1858.85C2712.93 1858.85 2713.44 1859.37 2713.44 1860 2713.44 1860.63 2712.93 1861.15 2712.29 1861.15L2705.42 1861.15C2704.78 1861.15 2704.27 1860.63 2704.27 1860 2704.27 1859.37 2704.78 1858.85 2705.42 1858.85ZM2721.46 1858.85 2728.33 1858.85C2728.97 1858.85 2729.48 1859.37 2729.48 1860 2729.48 1860.63 2728.97 1861.15 2728.33 1861.15L2721.46 1861.15C2720.83 1861.15 2720.31 1860.63 2720.31 1860 2720.31 1859.37 2720.83 1858.85 2721.46 1858.85ZM2737.5 1858.85 2744.38 1858.85C2745.01 1858.85 2745.52 1859.37 2745.52 1860 2745.52 1860.63 2745.01 1861.15 2744.38 1861.15L2737.5 1861.15C2736.87 1861.15 2736.35 1860.63 2736.35 1860 2736.35 1859.37 2736.87 1858.85 2737.5 1858.85ZM2753.54 1858.85 2760.42 1858.85C2761.05 1858.85 2761.56 1859.37 2761.56 1860 2761.56 1860.63 2761.05 1861.15 2760.42 1861.15L2753.54 1861.15C2752.91 1861.15 2752.4 1860.63 2752.4 1860 2752.4 1859.37 2752.91 1858.85 2753.54 1858.85ZM2769.58 1858.85 2776.46 1858.85C2777.09 1858.85 2777.6 1859.37 2777.6 1860 2777.6 1860.63 2777.09 1861.15 2776.46 1861.15L2769.58 1861.15C2768.95 1861.15 2768.44 1860.63 2768.44 1860 2768.44 1859.37 2768.95 1858.85 2769.58 1858.85ZM2785.63 1858.85 2792.5 1858.85C2793.13 1858.85 2793.65 1859.37 2793.65 1860 2793.65 1860.63 2793.13 1861.15 2792.5 1861.15L2785.63 1861.15C2784.99 1861.15 2784.48 1860.63 2784.48 1860 2784.48 1859.37 2784.99 1858.85 2785.63 1858.85ZM2801.67 1858.85 2808.54 1858.85C2809.18 1858.85 2809.69 1859.37 2809.69 1860 2809.69 1860.63 2809.18 1861.15 2808.54 1861.15L2801.67 1861.15C2801.03 1861.15 2800.52 1860.63 2800.52 1860 2800.52 1859.37 2801.03 1858.85 2801.67 1858.85ZM2817.71 1858.85 2824.58 1858.85C2825.22 1858.85 2825.73 1859.37 2825.73 1860 2825.73 1860.63 2825.22 1861.15 2824.58 1861.15L2817.71 1861.15C2817.08 1861.15 2816.56 1860.63 2816.56 1860 2816.56 1859.37 2817.08 1858.85 2817.71 1858.85ZM2833.75 1858.85 2840.63 1858.85C2841.26 1858.85 2841.77 1859.37 2841.77 1860 2841.77 1860.63 2841.26 1861.15 2840.63 1861.15L2833.75 1861.15C2833.12 1861.15 2832.6 1860.63 2832.6 1860 2832.6 1859.37 2833.12 1858.85 2833.75 1858.85ZM2849.79 1858.85 2856.67 1858.85C2857.3 1858.85 2857.81 1859.37 2857.81 1860 2857.81 1860.63 2857.3 1861.15 2856.67 1861.15L2849.79 1861.15C2849.16 1861.15 2848.65 1860.63 2848.65 1860 2848.65 1859.37 2849.16 1858.85 2849.79 1858.85ZM2865.83 1858.85 2872.71 1858.85C2873.34 1858.85 2873.85 1859.37 2873.85 1860 2873.85 1860.63 2873.34 1861.15 2872.71 1861.15L2865.83 1861.15C2865.2 1861.15 2864.69 1860.63 2864.69 1860 2864.69 1859.37 2865.2 1858.85 2865.83 1858.85ZM2881.88 1858.85 2888.75 1858.85C2889.38 1858.85 2889.9 1859.37 2889.9 1860 2889.9 1860.63 2889.38 1861.15 2888.75 1861.15L2881.88 1861.15C2881.24 1861.15 2880.73 1860.63 2880.73 1860 2880.73 1859.37 2881.24 1858.85 2881.88 1858.85ZM2897.92 1858.85 2904.79 1858.85C2905.43 1858.85 2905.94 1859.37 2905.94 1860 2905.94 1860.63 2905.43 1861.15 2904.79 1861.15L2897.92 1861.15C2897.28 1861.15 2896.77 1860.63 2896.77 1860 2896.77 1859.37 2897.28 1858.85 2897.92 1858.85ZM2913.96 1858.85 2920.83 1858.85C2921.47 1858.85 2921.98 1859.37 2921.98 1860 2921.98 1860.63 2921.47 1861.15 2920.83 1861.15L2913.96 1861.15C2913.33 1861.15 2912.81 1860.63 2912.81 1860 2912.81 1859.37 2913.33 1858.85 2913.96 1858.85ZM2930 1858.85 2936.88 1858.85C2937.51 1858.85 2938.02 1859.37 2938.02 1860 2938.02 1860.63 2937.51 1861.15 2936.88 1861.15L2930 1861.15C2929.37 1861.15 2928.85 1860.63 2928.85 1860 2928.85 1859.37 2929.37 1858.85 2930 1858.85ZM2946.04 1858.85 2952.92 1858.85C2953.55 1858.85 2954.06 1859.37 2954.06 1860 2954.06 1860.63 2953.55 1861.15 2952.92 1861.15L2946.04 1861.15C2945.41 1861.15 2944.9 1860.63 2944.9 1860 2944.9 1859.37 2945.41 1858.85 2946.04 1858.85ZM2962.08 1858.85 2968.96 1858.85C2969.59 1858.85 2970.1 1859.37 2970.1 1860 2970.1 1860.63 2969.59 1861.15 2968.96 1861.15L2962.08 1861.15C2961.45 1861.15 2960.94 1860.63 2960.94 1860 2960.94 1859.37 2961.45 1858.85 2962.08 1858.85ZM2978.13 1858.85 2985 1858.85C2985.63 1858.85 2986.15 1859.37 2986.15 1860 2986.15 1860.63 2985.63 1861.15 2985 1861.15L2978.13 1861.15C2977.49 1861.15 2976.98 1860.63 2976.98 1860 2976.98 1859.37 2977.49 1858.85 2978.13 1858.85ZM2994.17 1858.85 3001.04 1858.85C3001.68 1858.85 3002.19 1859.37 3002.19 1860 3002.19 1860.63 3001.68 1861.15 3001.04 1861.15L2994.17 1861.15C2993.53 1861.15 2993.02 1860.63 2993.02 1860 2993.02 1859.37 2993.53 1858.85 2994.17 1858.85ZM3010.21 1858.85 3017.08 1858.85C3017.72 1858.85 3018.23 1859.37 3018.23 1860 3018.23 1860.63 3017.72 1861.15 3017.08 1861.15L3010.21 1861.15C3009.58 1861.15 3009.06 1860.63 3009.06 1860 3009.06 1859.37 3009.58 1858.85 3010.21 1858.85ZM3026.25 1858.85 3033.13 1858.85C3033.76 1858.85 3034.27 1859.37 3034.27 1860 3034.27 1860.63 3033.76 1861.15 3033.13 1861.15L3026.25 1861.15C3025.62 1861.15 3025.1 1860.63 3025.1 1860 3025.1 1859.37 3025.62 1858.85 3026.25 1858.85ZM3042.29 1858.85 3049.17 1858.85C3049.8 1858.85 3050.31 1859.37 3050.31 1860 3050.31 1860.63 3049.8 1861.15 3049.17 1861.15L3042.29 1861.15C3041.66 1861.15 3041.15 1860.63 3041.15 1860 3041.15 1859.37 3041.66 1858.85 3042.29 1858.85ZM3058.33 1858.85 3065.21 1858.85C3065.84 1858.85 3066.35 1859.37 3066.35 1860 3066.35 1860.63 3065.84 1861.15 3065.21 1861.15L3058.33 1861.15C3057.7 1861.15 3057.19 1860.63 3057.19 1860 3057.19 1859.37 3057.7 1858.85 3058.33 1858.85ZM3074.38 1858.85 3081.25 1858.85C3081.88 1858.85 3082.4 1859.37 3082.4 1860 3082.4 1860.63 3081.88 1861.15 3081.25 1861.15L3074.38 1861.15C3073.74 1861.15 3073.23 1860.63 3073.23 1860 3073.23 1859.37 3073.74 1858.85 3074.38 1858.85ZM3090.42 1858.85 3097.29 1858.85C3097.93 1858.85 3098.44 1859.37 3098.44 1860 3098.44 1860.63 3097.93 1861.15 3097.29 1861.15L3090.42 1861.15C3089.78 1861.15 3089.27 1860.63 3089.27 1860 3089.27 1859.37 3089.78 1858.85 3090.42 1858.85ZM3106.46 1858.85 3113.33 1858.85C3113.97 1858.85 3114.48 1859.37 3114.48 1860 3114.48 1860.63 3113.97 1861.15 3113.33 1861.15L3106.46 1861.15C3105.83 1861.15 3105.31 1860.63 3105.31 1860 3105.31 1859.37 3105.83 1858.85 3106.46 1858.85ZM3122.5 1858.85 3129.38 1858.85C3130.01 1858.85 3130.52 1859.37 3130.52 1860 3130.52 1860.63 3130.01 1861.15 3129.38 1861.15L3122.5 1861.15C3121.87 1861.15 3121.35 1860.63 3121.35 1860 3121.35 1859.37 3121.87 1858.85 3122.5 1858.85ZM3138.54 1858.85 3145.42 1858.85C3146.05 1858.85 3146.56 1859.37 3146.56 1860 3146.56 1860.63 3146.05 1861.15 3145.42 1861.15L3138.54 1861.15C3137.91 1861.15 3137.4 1860.63 3137.4 1860 3137.4 1859.37 3137.91 1858.85 3138.54 1858.85ZM3154.58 1858.85 3161.46 1858.85C3162.09 1858.85 3162.6 1859.37 3162.6 1860 3162.6 1860.63 3162.09 1861.15 3161.46 1861.15L3154.58 1861.15C3153.95 1861.15 3153.44 1860.63 3153.44 1860 3153.44 1859.37 3153.95 1858.85 3154.58 1858.85ZM3170.63 1858.85 3177.5 1858.85C3178.13 1858.85 3178.65 1859.37 3178.65 1860 3178.65 1860.63 3178.13 1861.15 3177.5 1861.15L3170.63 1861.15C3169.99 1861.15 3169.48 1860.63 3169.48 1860 3169.48 1859.37 3169.99 1858.85 3170.63 1858.85ZM3186.67 1858.85 3193.54 1858.85C3194.18 1858.85 3194.69 1859.37 3194.69 1860 3194.69 1860.63 3194.18 1861.15 3193.54 1861.15L3186.67 1861.15C3186.03 1861.15 3185.52 1860.63 3185.52 1860 3185.52 1859.37 3186.03 1858.85 3186.67 1858.85ZM3202.71 1858.85 3209.58 1858.85C3210.22 1858.85 3210.73 1859.37 3210.73 1860 3210.73 1860.63 3210.22 1861.15 3209.58 1861.15L3202.71 1861.15C3202.08 1861.15 3201.56 1860.63 3201.56 1860 3201.56 1859.37 3202.08 1858.85 3202.71 1858.85ZM3218.75 1858.85 3225.63 1858.85C3226.26 1858.85 3226.77 1859.37 3226.77 1860 3226.77 1860.63 3226.26 1861.15 3225.63 1861.15L3218.75 1861.15C3218.12 1861.15 3217.6 1860.63 3217.6 1860 3217.6 1859.37 3218.12 1858.85 3218.75 1858.85ZM3234.79 1858.85 3241.67 1858.85C3242.3 1858.85 3242.81 1859.37 3242.81 1860 3242.81 1860.63 3242.3 1861.15 3241.67 1861.15L3234.79 1861.15C3234.16 1861.15 3233.65 1860.63 3233.65 1860 3233.65 1859.37 3234.16 1858.85 3234.79 1858.85ZM3250.83 1858.85 3257.71 1858.85C3258.34 1858.85 3258.85 1859.37 3258.85 1860 3258.85 1860.63 3258.34 1861.15 3257.71 1861.15L3250.83 1861.15C3250.2 1861.15 3249.69 1860.63 3249.69 1860 3249.69 1859.37 3250.2 1858.85 3250.83 1858.85ZM3266.88 1858.85 3273.75 1858.85C3274.38 1858.85 3274.9 1859.37 3274.9 1860 3274.9 1860.63 3274.38 1861.15 3273.75 1861.15L3266.88 1861.15C3266.24 1861.15 3265.73 1860.63 3265.73 1860 3265.73 1859.37 3266.24 1858.85 3266.88 1858.85ZM3282.92 1858.85 3289.79 1858.85C3290.43 1858.85 3290.94 1859.37 3290.94 1860 3290.94 1860.63 3290.43 1861.15 3289.79 1861.15L3282.92 1861.15C3282.28 1861.15 3281.77 1860.63 3281.77 1860 3281.77 1859.37 3282.28 1858.85 3282.92 1858.85ZM3298.96 1858.85 3305.83 1858.85C3306.47 1858.85 3306.98 1859.37 3306.98 1860 3306.98 1860.63 3306.47 1861.15 3305.83 1861.15L3298.96 1861.15C3298.33 1861.15 3297.81 1860.63 3297.81 1860 3297.81 1859.37 3298.33 1858.85 3298.96 1858.85ZM3315 1858.85 3321.88 1858.85C3322.51 1858.85 3323.02 1859.37 3323.02 1860 3323.02 1860.63 3322.51 1861.15 3321.88 1861.15L3315 1861.15C3314.37 1861.15 3313.85 1860.63 3313.85 1860 3313.85 1859.37 3314.37 1858.85 3315 1858.85ZM3331.04 1858.85 3337.92 1858.85C3338.55 1858.85 3339.06 1859.37 3339.06 1860 3339.06 1860.63 3338.55 1861.15 3337.92 1861.15L3331.04 1861.15C3330.41 1861.15 3329.9 1860.63 3329.9 1860 3329.9 1859.37 3330.41 1858.85 3331.04 1858.85ZM3347.08 1858.85 3353.96 1858.85C3354.59 1858.85 3355.1 1859.37 3355.1 1860 3355.1 1860.63 3354.59 1861.15 3353.96 1861.15L3347.08 1861.15C3346.45 1861.15 3345.94 1860.63 3345.94 1860 3345.94 1859.37 3346.45 1858.85 3347.08 1858.85ZM2645.83 1873.75 2600 1860 2645.83 1846.25Z" fill="#12B973"/><rect x="3362.5" y="2077.5" width="47.9998" height="157" stroke="#00664D" stroke-width="4.58333" stroke-miterlimit="8" fill="#43EDA6"/><path d="M2600 2077.85 3317.94 2077.85C3318.57 2077.85 3319.08 2078.37 3319.08 2079 3319.08 2079.63 3318.57 2080.15 3317.94 2080.15L2600 2080.15C2599.37 2080.15 2598.85 2079.63 2598.85 2079 2598.85 2078.37 2599.37 2077.85 2600 2077.85ZM3313.35 2065.25 3359.19 2079 3313.35 2092.75Z" fill="#12B973"/><path d="M2641.25 2232.85 2648.13 2232.85C2648.76 2232.85 2649.27 2233.37 2649.27 2234 2649.27 2234.63 2648.76 2235.15 2648.13 2235.15L2641.25 2235.15C2640.62 2235.15 2640.1 2234.63 2640.1 2234 2640.1 2233.37 2640.62 2232.85 2641.25 2232.85ZM2657.29 2232.85 2664.17 2232.85C2664.8 2232.85 2665.31 2233.37 2665.31 2234 2665.31 2234.63 2664.8 2235.15 2664.17 2235.15L2657.29 2235.15C2656.66 2235.15 2656.15 2234.63 2656.15 2234 2656.15 2233.37 2656.66 2232.85 2657.29 2232.85ZM2673.33 2232.85 2680.21 2232.85C2680.84 2232.85 2681.35 2233.37 2681.35 2234 2681.35 2234.63 2680.84 2235.15 2680.21 2235.15L2673.33 2235.15C2672.7 2235.15 2672.19 2234.63 2672.19 2234 2672.19 2233.37 2672.7 2232.85 2673.33 2232.85ZM2689.38 2232.85 2696.25 2232.85C2696.88 2232.85 2697.4 2233.37 2697.4 2234 2697.4 2234.63 2696.88 2235.15 2696.25 2235.15L2689.38 2235.15C2688.74 2235.15 2688.23 2234.63 2688.23 2234 2688.23 2233.37 2688.74 2232.85 2689.38 2232.85ZM2705.42 2232.85 2712.29 2232.85C2712.93 2232.85 2713.44 2233.37 2713.44 2234 2713.44 2234.63 2712.93 2235.15 2712.29 2235.15L2705.42 2235.15C2704.78 2235.15 2704.27 2234.63 2704.27 2234 2704.27 2233.37 2704.78 2232.85 2705.42 2232.85ZM2721.46 2232.85 2728.33 2232.85C2728.97 2232.85 2729.48 2233.37 2729.48 2234 2729.48 2234.63 2728.97 2235.15 2728.33 2235.15L2721.46 2235.15C2720.83 2235.15 2720.31 2234.63 2720.31 2234 2720.31 2233.37 2720.83 2232.85 2721.46 2232.85ZM2737.5 2232.85 2744.38 2232.85C2745.01 2232.85 2745.52 2233.37 2745.52 2234 2745.52 2234.63 2745.01 2235.15 2744.38 2235.15L2737.5 2235.15C2736.87 2235.15 2736.35 2234.63 2736.35 2234 2736.35 2233.37 2736.87 2232.85 2737.5 2232.85ZM2753.54 2232.85 2760.42 2232.85C2761.05 2232.85 2761.56 2233.37 2761.56 2234 2761.56 2234.63 2761.05 2235.15 2760.42 2235.15L2753.54 2235.15C2752.91 2235.15 2752.4 2234.63 2752.4 2234 2752.4 2233.37 2752.91 2232.85 2753.54 2232.85ZM2769.58 2232.85 2776.46 2232.85C2777.09 2232.85 2777.6 2233.37 2777.6 2234 2777.6 2234.63 2777.09 2235.15 2776.46 2235.15L2769.58 2235.15C2768.95 2235.15 2768.44 2234.63 2768.44 2234 2768.44 2233.37 2768.95 2232.85 2769.58 2232.85ZM2785.63 2232.85 2792.5 2232.85C2793.13 2232.85 2793.65 2233.37 2793.65 2234 2793.65 2234.63 2793.13 2235.15 2792.5 2235.15L2785.63 2235.15C2784.99 2235.15 2784.48 2234.63 2784.48 2234 2784.48 2233.37 2784.99 2232.85 2785.63 2232.85ZM2801.67 2232.85 2808.54 2232.85C2809.18 2232.85 2809.69 2233.37 2809.69 2234 2809.69 2234.63 2809.18 2235.15 2808.54 2235.15L2801.67 2235.15C2801.03 2235.15 2800.52 2234.63 2800.52 2234 2800.52 2233.37 2801.03 2232.85 2801.67 2232.85ZM2817.71 2232.85 2824.58 2232.85C2825.22 2232.85 2825.73 2233.37 2825.73 2234 2825.73 2234.63 2825.22 2235.15 2824.58 2235.15L2817.71 2235.15C2817.08 2235.15 2816.56 2234.63 2816.56 2234 2816.56 2233.37 2817.08 2232.85 2817.71 2232.85ZM2833.75 2232.85 2840.63 2232.85C2841.26 2232.85 2841.77 2233.37 2841.77 2234 2841.77 2234.63 2841.26 2235.15 2840.63 2235.15L2833.75 2235.15C2833.12 2235.15 2832.6 2234.63 2832.6 2234 2832.6 2233.37 2833.12 2232.85 2833.75 2232.85ZM2849.79 2232.85 2856.67 2232.85C2857.3 2232.85 2857.81 2233.37 2857.81 2234 2857.81 2234.63 2857.3 2235.15 2856.67 2235.15L2849.79 2235.15C2849.16 2235.15 2848.65 2234.63 2848.65 2234 2848.65 2233.37 2849.16 2232.85 2849.79 2232.85ZM2865.83 2232.85 2872.71 2232.85C2873.34 2232.85 2873.85 2233.37 2873.85 2234 2873.85 2234.63 2873.34 2235.15 2872.71 2235.15L2865.83 2235.15C2865.2 2235.15 2864.69 2234.63 2864.69 2234 2864.69 2233.37 2865.2 2232.85 2865.83 2232.85ZM2881.88 2232.85 2888.75 2232.85C2889.38 2232.85 2889.9 2233.37 2889.9 2234 2889.9 2234.63 2889.38 2235.15 2888.75 2235.15L2881.88 2235.15C2881.24 2235.15 2880.73 2234.63 2880.73 2234 2880.73 2233.37 2881.24 2232.85 2881.88 2232.85ZM2897.92 2232.85 2904.79 2232.85C2905.43 2232.85 2905.94 2233.37 2905.94 2234 2905.94 2234.63 2905.43 2235.15 2904.79 2235.15L2897.92 2235.15C2897.28 2235.15 2896.77 2234.63 2896.77 2234 2896.77 2233.37 2897.28 2232.85 2897.92 2232.85ZM2913.96 2232.85 2920.83 2232.85C2921.47 2232.85 2921.98 2233.37 2921.98 2234 2921.98 2234.63 2921.47 2235.15 2920.83 2235.15L2913.96 2235.15C2913.33 2235.15 2912.81 2234.63 2912.81 2234 2912.81 2233.37 2913.33 2232.85 2913.96 2232.85ZM2930 2232.85 2936.88 2232.85C2937.51 2232.85 2938.02 2233.37 2938.02 2234 2938.02 2234.63 2937.51 2235.15 2936.88 2235.15L2930 2235.15C2929.37 2235.15 2928.85 2234.63 2928.85 2234 2928.85 2233.37 2929.37 2232.85 2930 2232.85ZM2946.04 2232.85 2952.92 2232.85C2953.55 2232.85 2954.06 2233.37 2954.06 2234 2954.06 2234.63 2953.55 2235.15 2952.92 2235.15L2946.04 2235.15C2945.41 2235.15 2944.9 2234.63 2944.9 2234 2944.9 2233.37 2945.41 2232.85 2946.04 2232.85ZM2962.08 2232.85 2968.96 2232.85C2969.59 2232.85 2970.1 2233.37 2970.1 2234 2970.1 2234.63 2969.59 2235.15 2968.96 2235.15L2962.08 2235.15C2961.45 2235.15 2960.94 2234.63 2960.94 2234 2960.94 2233.37 2961.45 2232.85 2962.08 2232.85ZM2978.13 2232.85 2985 2232.85C2985.63 2232.85 2986.15 2233.37 2986.15 2234 2986.15 2234.63 2985.63 2235.15 2985 2235.15L2978.13 2235.15C2977.49 2235.15 2976.98 2234.63 2976.98 2234 2976.98 2233.37 2977.49 2232.85 2978.13 2232.85ZM2994.17 2232.85 3001.04 2232.85C3001.68 2232.85 3002.19 2233.37 3002.19 2234 3002.19 2234.63 3001.68 2235.15 3001.04 2235.15L2994.17 2235.15C2993.53 2235.15 2993.02 2234.63 2993.02 2234 2993.02 2233.37 2993.53 2232.85 2994.17 2232.85ZM3010.21 2232.85 3017.08 2232.85C3017.72 2232.85 3018.23 2233.37 3018.23 2234 3018.23 2234.63 3017.72 2235.15 3017.08 2235.15L3010.21 2235.15C3009.58 2235.15 3009.06 2234.63 3009.06 2234 3009.06 2233.37 3009.58 2232.85 3010.21 2232.85ZM3026.25 2232.85 3033.13 2232.85C3033.76 2232.85 3034.27 2233.37 3034.27 2234 3034.27 2234.63 3033.76 2235.15 3033.13 2235.15L3026.25 2235.15C3025.62 2235.15 3025.1 2234.63 3025.1 2234 3025.1 2233.37 3025.62 2232.85 3026.25 2232.85ZM3042.29 2232.85 3049.17 2232.85C3049.8 2232.85 3050.31 2233.37 3050.31 2234 3050.31 2234.63 3049.8 2235.15 3049.17 2235.15L3042.29 2235.15C3041.66 2235.15 3041.15 2234.63 3041.15 2234 3041.15 2233.37 3041.66 2232.85 3042.29 2232.85ZM3058.33 2232.85 3065.21 2232.85C3065.84 2232.85 3066.35 2233.37 3066.35 2234 3066.35 2234.63 3065.84 2235.15 3065.21 2235.15L3058.33 2235.15C3057.7 2235.15 3057.19 2234.63 3057.19 2234 3057.19 2233.37 3057.7 2232.85 3058.33 2232.85ZM3074.38 2232.85 3081.25 2232.85C3081.88 2232.85 3082.4 2233.37 3082.4 2234 3082.4 2234.63 3081.88 2235.15 3081.25 2235.15L3074.38 2235.15C3073.74 2235.15 3073.23 2234.63 3073.23 2234 3073.23 2233.37 3073.74 2232.85 3074.38 2232.85ZM3090.42 2232.85 3097.29 2232.85C3097.93 2232.85 3098.44 2233.37 3098.44 2234 3098.44 2234.63 3097.93 2235.15 3097.29 2235.15L3090.42 2235.15C3089.78 2235.15 3089.27 2234.63 3089.27 2234 3089.27 2233.37 3089.78 2232.85 3090.42 2232.85ZM3106.46 2232.85 3113.33 2232.85C3113.97 2232.85 3114.48 2233.37 3114.48 2234 3114.48 2234.63 3113.97 2235.15 3113.33 2235.15L3106.46 2235.15C3105.83 2235.15 3105.31 2234.63 3105.31 2234 3105.31 2233.37 3105.83 2232.85 3106.46 2232.85ZM3122.5 2232.85 3129.38 2232.85C3130.01 2232.85 3130.52 2233.37 3130.52 2234 3130.52 2234.63 3130.01 2235.15 3129.38 2235.15L3122.5 2235.15C3121.87 2235.15 3121.35 2234.63 3121.35 2234 3121.35 2233.37 3121.87 2232.85 3122.5 2232.85ZM3138.54 2232.85 3145.42 2232.85C3146.05 2232.85 3146.56 2233.37 3146.56 2234 3146.56 2234.63 3146.05 2235.15 3145.42 2235.15L3138.54 2235.15C3137.91 2235.15 3137.4 2234.63 3137.4 2234 3137.4 2233.37 3137.91 2232.85 3138.54 2232.85ZM3154.58 2232.85 3161.46 2232.85C3162.09 2232.85 3162.6 2233.37 3162.6 2234 3162.6 2234.63 3162.09 2235.15 3161.46 2235.15L3154.58 2235.15C3153.95 2235.15 3153.44 2234.63 3153.44 2234 3153.44 2233.37 3153.95 2232.85 3154.58 2232.85ZM3170.63 2232.85 3177.5 2232.85C3178.13 2232.85 3178.65 2233.37 3178.65 2234 3178.65 2234.63 3178.13 2235.15 3177.5 2235.15L3170.63 2235.15C3169.99 2235.15 3169.48 2234.63 3169.48 2234 3169.48 2233.37 3169.99 2232.85 3170.63 2232.85ZM3186.67 2232.85 3193.54 2232.85C3194.18 2232.85 3194.69 2233.37 3194.69 2234 3194.69 2234.63 3194.18 2235.15 3193.54 2235.15L3186.67 2235.15C3186.03 2235.15 3185.52 2234.63 3185.52 2234 3185.52 2233.37 3186.03 2232.85 3186.67 2232.85ZM3202.71 2232.85 3209.58 2232.85C3210.22 2232.85 3210.73 2233.37 3210.73 2234 3210.73 2234.63 3210.22 2235.15 3209.58 2235.15L3202.71 2235.15C3202.08 2235.15 3201.56 2234.63 3201.56 2234 3201.56 2233.37 3202.08 2232.85 3202.71 2232.85ZM3218.75 2232.85 3225.63 2232.85C3226.26 2232.85 3226.77 2233.37 3226.77 2234 3226.77 2234.63 3226.26 2235.15 3225.63 2235.15L3218.75 2235.15C3218.12 2235.15 3217.6 2234.63 3217.6 2234 3217.6 2233.37 3218.12 2232.85 3218.75 2232.85ZM3234.79 2232.85 3241.67 2232.85C3242.3 2232.85 3242.81 2233.37 3242.81 2234 3242.81 2234.63 3242.3 2235.15 3241.67 2235.15L3234.79 2235.15C3234.16 2235.15 3233.65 2234.63 3233.65 2234 3233.65 2233.37 3234.16 2232.85 3234.79 2232.85ZM3250.83 2232.85 3257.71 2232.85C3258.34 2232.85 3258.85 2233.37 3258.85 2234 3258.85 2234.63 3258.34 2235.15 3257.71 2235.15L3250.83 2235.15C3250.2 2235.15 3249.69 2234.63 3249.69 2234 3249.69 2233.37 3250.2 2232.85 3250.83 2232.85ZM3266.88 2232.85 3273.75 2232.85C3274.38 2232.85 3274.9 2233.37 3274.9 2234 3274.9 2234.63 3274.38 2235.15 3273.75 2235.15L3266.88 2235.15C3266.24 2235.15 3265.73 2234.63 3265.73 2234 3265.73 2233.37 3266.24 2232.85 3266.88 2232.85ZM3282.92 2232.85 3289.79 2232.85C3290.43 2232.85 3290.94 2233.37 3290.94 2234 3290.94 2234.63 3290.43 2235.15 3289.79 2235.15L3282.92 2235.15C3282.28 2235.15 3281.77 2234.63 3281.77 2234 3281.77 2233.37 3282.28 2232.85 3282.92 2232.85ZM3298.96 2232.85 3305.83 2232.85C3306.47 2232.85 3306.98 2233.37 3306.98 2234 3306.98 2234.63 3306.47 2235.15 3305.83 2235.15L3298.96 2235.15C3298.33 2235.15 3297.81 2234.63 3297.81 2234 3297.81 2233.37 3298.33 2232.85 3298.96 2232.85ZM3315 2232.85 3321.88 2232.85C3322.51 2232.85 3323.02 2233.37 3323.02 2234 3323.02 2234.63 3322.51 2235.15 3321.88 2235.15L3315 2235.15C3314.37 2235.15 3313.85 2234.63 3313.85 2234 3313.85 2233.37 3314.37 2232.85 3315 2232.85ZM3331.04 2232.85 3337.92 2232.85C3338.55 2232.85 3339.06 2233.37 3339.06 2234 3339.06 2234.63 3338.55 2235.15 3337.92 2235.15L3331.04 2235.15C3330.41 2235.15 3329.9 2234.63 3329.9 2234 3329.9 2233.37 3330.41 2232.85 3331.04 2232.85ZM3347.08 2232.85 3353.96 2232.85C3354.59 2232.85 3355.1 2233.37 3355.1 2234 3355.1 2234.63 3354.59 2235.15 3353.96 2235.15L3347.08 2235.15C3346.45 2235.15 3345.94 2234.63 3345.94 2234 3345.94 2233.37 3346.45 2232.85 3347.08 2232.85ZM2645.83 2247.75 2600 2234 2645.83 2220.25Z" fill="#12B973"/><rect x="2430.5" y="707.5" width="292" height="153" stroke="#1A1D20" stroke-width="6.875" stroke-miterlimit="8" fill="#0F6FC6"/><text fill="#FFFFFF" font-family="Microsoft YaHei,Microsoft YaHei_MSFontService,sans-serif" font-weight="400" font-size="64" transform="matrix(1 0 0 1 2479.81 807)">客户端</text><rect x="3240.5" y="707.5" width="293" height="153" stroke="#1A1D20" stroke-width="6.875" stroke-miterlimit="8" fill="#EF546E"/><text fill="#FFFFFF" font-family="Microsoft YaHei,Microsoft YaHei_MSFontService,sans-serif" font-weight="400" font-size="64" transform="matrix(1 0 0 1 3290.05 807)">服务端</text><path d="M0 0 0.000360892 83.4719" stroke="#12B973" stroke-width="2.29167" stroke-miterlimit="8" stroke-dasharray="9.16667 6.875" fill="none" fill-rule="evenodd" transform="matrix(1 0 0 -1 2576 943.472)"/><path d="M0 0 0.000360892 281.671" stroke="#12B973" stroke-width="2.29167" stroke-miterlimit="8" stroke-dasharray="9.16667 6.875" fill="none" fill-rule="evenodd" transform="matrix(1 0 0 -1 3386 1141.67)"/><rect x="2867" y="1115" width="264" height="58.9998" fill="#FFFFFF"/><text fill="#00664D" font-family="Microsoft YaHei,Microsoft YaHei_MSFontService,sans-serif" font-weight="400" font-size="48" transform="matrix(1 0 0 1 2885.46 1161)">①<tspan font-size="41" x="62.4478" y="0">用户登录</tspan></text><rect x="2860" y="1423" width="296" height="57.9998" fill="#FFFFFF"/><text fill="#00664D" font-family="Microsoft YaHei,Microsoft YaHei_MSFontService,sans-serif" font-weight="400" font-size="48" transform="matrix(1 0 0 1 2867.39 1469)">②<tspan font-size="41" x="62.448" y="0">返回</tspan><tspan font-size="41" x="144.948" y="0">Cookie</tspan></text><rect x="2860" y="1673" width="296" height="59.0001" fill="#FFFFFF"/><text fill="#00664D" font-family="Microsoft YaHei,Microsoft YaHei_MSFontService,sans-serif" font-weight="400" font-size="48" transform="matrix(1 0 0 1 2873.98 1719)">③<tspan font-size="41" x="62.4478" y="0">添加购物车</tspan></text><rect x="2861" y="1829" width="296" height="57.9998" fill="#FFFFFF"/><text fill="#00664D" font-family="Microsoft YaHei,Microsoft YaHei_MSFontService,sans-serif" font-weight="400" font-size="48" transform="matrix(1 0 0 1 2895.7 1875)">④<tspan font-size="41" x="62.448" y="0">返回成功</tspan></text><rect x="2898" y="2050" width="221" height="57.9998" fill="#FFFFFF"/><text fill="#00664D" font-family="Microsoft YaHei,Microsoft YaHei_MSFontService,sans-serif" font-weight="400" font-size="48" transform="matrix(1 0 0 1 2935.85 2096)">⑤<tspan font-size="41" x="62.4478" y="0">下单</tspan></text><rect x="2869" y="2205" width="296" height="57.9998" fill="#FFFFFF"/><text fill="#00664D" font-family="Microsoft YaHei,Microsoft YaHei_MSFontService,sans-serif" font-weight="400" font-size="48" transform="matrix(1 0 0 1 2903.56 2251)">⑥<tspan font-size="41" x="62.448" y="0">下单成功</tspan></text><rect x="3500.5" y="909.5" width="687" height="357" stroke="#002060" stroke-width="6.875" stroke-miterlimit="8" fill="#EF546E"/><text fill="#FFFFFF" font-family="Calibri,Calibri_MSFontService,sans-serif" font-weight="700" font-size="165" transform="matrix(1 0 0 1 3588.1 1104)">Session<tspan font-family="Microsoft YaHei,Microsoft YaHei_MSFontService,sans-serif" font-weight="400" font-size="64" x="30.9375" y="106">服务</tspan><tspan font-family="Microsoft YaHei,Microsoft YaHei_MSFontService,sans-serif" font-weight="400" font-size="64" x="159.271" y="106">端会话控制</tspan><tspan fill="#0F6FC6" font-family="Microsoft YaHei,Microsoft YaHei_MSFontService,sans-serif" font-weight="400" font-size="41" x="-955.045" y="-94">请求</tspan><tspan fill="#0F6FC6" font-weight="400" font-size="41" x="-863.378" y="-94">www.jd.com</tspan><tspan fill="#0F6FC6" font-weight="400" font-size="41" x="-955.045" y="-45">username=admin&amp;password=1234</tspan><tspan fill="#EF546E" font-family="Microsoft YaHei,Microsoft YaHei_MSFontService,sans-serif" font-weight="400" font-size="41" x="-949.288" y="186">响应</tspan><tspan fill="#EF546E" font-weight="400" font-size="41" x="-857.621" y="186">Header</tspan><tspan fill="#EF546E" font-weight="400" font-size="41" x="-949.288" y="235">set</tspan><tspan fill="#EF546E" font-weight="400" font-size="41" x="-898.871" y="235">-</tspan><tspan fill="#EF546E" font-weight="400" font-size="41" x="-886.267" y="235">cookie: </tspan><tspan fill="#EF546E" font-weight="400" font-size="41" x="-756.215" y="235">uid</tspan><tspan fill="#EF546E" font-weight="400" font-size="41" x="-702.934" y="235">=</tspan><tspan fill="#EF546E" font-weight="400" font-size="41" x="-682.309" y="235">abcd</tspan><tspan fill="#EF546E" font-weight="400" font-size="41" x="-949.288" y="285">set</tspan><tspan fill="#EF546E" font-weight="400" font-size="41" x="-898.871" y="285">-</tspan><tspan fill="#EF546E" font-weight="400" font-size="41" x="-886.267" y="285">cookie: </tspan><tspan fill="#EF546E" font-weight="400" font-size="41" x="-756.215" y="285">sessionid</tspan><tspan fill="#EF546E" font-weight="400" font-size="41" x="-602.673" y="285">=1234</tspan><tspan fill="#0F6FC6" font-family="Microsoft YaHei,Microsoft YaHei_MSFontService,sans-serif" font-weight="400" font-size="41" x="-955.045" y="505">请求</tspan><tspan fill="#0F6FC6" font-weight="400" font-size="41" x="-863.378" y="505">Header</tspan><tspan fill="#0F6FC6" font-weight="400" font-size="41" x="-955.045" y="554">C</tspan><tspan fill="#0F6FC6" font-weight="400" font-size="41" x="-933.274" y="554">ookie: </tspan><tspan fill="#0F6FC6" font-weight="400" font-size="41" x="-820.409" y="554">uid</tspan><tspan fill="#0F6FC6" font-weight="400" font-size="41" x="-767.128" y="554">=</tspan><tspan fill="#0F6FC6" font-weight="400" font-size="41" x="-746.503" y="554">abcd</tspan><tspan fill="#0F6FC6" font-weight="400" font-size="41" x="-666.294" y="554">;</tspan><tspan fill="#0F6FC6" font-weight="400" font-size="41" x="-655.409" y="554">sessionid</tspan><tspan fill="#0F6FC6" font-weight="400" font-size="41" x="-501.867" y="554">=1234</tspan><tspan fill="#0F6FC6" font-family="Microsoft YaHei,Microsoft YaHei_MSFontService,sans-serif" font-weight="400" font-size="41" x="-955.045" y="886">请求</tspan><tspan fill="#0F6FC6" font-weight="400" font-size="41" x="-863.378" y="886">Header</tspan><tspan fill="#0F6FC6" font-weight="400" font-size="41" x="-955.045" y="935">Cookie: </tspan><tspan fill="#0F6FC6" font-weight="400" font-size="41" x="-820.409" y="935">uid</tspan><tspan fill="#0F6FC6" font-weight="400" font-size="41" x="-767.128" y="935">=</tspan><tspan fill="#0F6FC6" font-weight="400" font-size="41" x="-746.503" y="935">abcd;sessionid</tspan><tspan fill="#0F6FC6" font-weight="400" font-size="41" x="-501.867" y="935">=</tspan><tspan fill="#0F6FC6" font-weight="400" font-size="41" x="-481.242" y="935">1234</tspan></text><rect x="2102.5" y="1443.5" width="395" height="357" stroke="#A6A6A6" stroke-width="4.58333" stroke-miterlimit="8" fill="#F2F2F2"/><text font-family="Microsoft YaHei,Microsoft YaHei_MSFontService,sans-serif" font-weight="700" font-size="64" transform="matrix(1 0 0 1 2135.07 1554)">Cookie<tspan fill="#7F7F7F" font-weight="400" font-size="50" x="0" y="63">名称</tspan><tspan fill="#7F7F7F" font-weight="400" font-size="50" x="100.833" y="63">:</tspan><tspan fill="#7F7F7F" font-weight="400" font-size="50" x="127.761" y="63">uid</tspan><tspan fill="#7F7F7F" font-weight="400" font-size="50" x="0" y="124">键值</tspan><tspan fill="#7F7F7F" font-weight="400" font-size="50" x="100.833" y="124">: </tspan><tspan fill="#7F7F7F" font-weight="400" font-size="50" x="127.761" y="124">abcd</tspan><tspan fill="#7F7F7F" font-weight="400" font-size="50" x="0" y="184">域名</tspan><tspan fill="#7F7F7F" font-weight="400" font-size="50" x="100.833" y="184">: .jd.com</tspan></text><path d="M0-1.14583 251.516-1.14583 251.516 234.706 249.224 234.706 249.224 0 250.37 1.14583 0 1.14583ZM264.12 230.123 250.37 275.956 236.62 230.123Z" transform="matrix(1 0 0 -1 2049 2075.96)"/><rect x="3500.5" y="1371.5" width="687" height="567" stroke="#A6A6A6" stroke-width="4.58333" stroke-miterlimit="8" fill="#F2F2F2"/><text font-family="Microsoft YaHei,Microsoft YaHei_MSFontService,sans-serif" font-weight="700" font-size="64" transform="matrix(1 0 0 1 3532.76 1496)">服务器<tspan font-size="64" x="211.406" y="0">Session </tspan><tspan font-size="64" x="472.083" y="0">区</tspan><tspan fill="#7F7F7F" font-weight="400" font-size="50" x="0" y="124">ID: </tspan><tspan fill="#7F7F7F" font-weight="400" font-size="50" x="80.2083" y="124">1234</tspan><tspan fill="#7F7F7F" font-weight="400" font-size="50" x="0" y="305">ID: </tspan><tspan fill="#7F7F7F" font-weight="400" font-size="50" x="80.2083" y="305">4567</tspan></text><rect x="3618" y="1642" width="495" height="76" fill="#EF546E"/><text fill="#FFFFFF" font-family="Microsoft YaHei,Microsoft YaHei_MSFontService,sans-serif" font-weight="400" font-size="55" transform="matrix(1 0 0 1 3639.23 1700)">username: admin</text><rect x="3618" y="1822" width="495" height="76" fill="#EF546E"/><text fill="#FFFFFF" font-family="Microsoft YaHei,Microsoft YaHei_MSFontService,sans-serif" font-weight="400" font-size="55" transform="matrix(1 0 0 1 3666.55 1880)">username: root</text><path d="M3845.15 1266 3845.15 1319.44 3844 1319.44 3845.15 1318.29 3845.15 1329.33 3842.85 1329.33 3842.85 1317.14 3844 1317.14 3842.86 1318.29 3842.86 1266ZM3857.75 1324.75 3844 1370.58 3830.25 1324.75Z"/><rect x="1876.5" y="1109.5" width="619" height="237" stroke="#A6A6A6" stroke-width="4.58333" stroke-miterlimit="8" fill="#F2F2F2"/><text fill="#7F7F7F" font-family="Microsoft YaHei,Microsoft YaHei_MSFontService,sans-serif" font-weight="400" font-size="50" transform="matrix(1 0 0 1 1909.49 1185)">检测到本地<tspan font-size="50" x="252.083" y="0">有</tspan><tspan font-size="50" x="302.5" y="0">jd.com</tspan><tspan font-size="50" x="464.636" y="0">的</tspan><tspan font-size="50" x="0" y="61">cookie</tspan><tspan font-size="50" x="158.698" y="61">，自动在请求头</tspan><tspan font-size="50" x="0" y="121">中</tspan><tspan font-size="50" x="50.4166" y="121">添加</tspan><tspan font-size="50" x="151.25" y="121">cookie</tspan></text><rect x="3500.5" y="1989.5" width="687" height="283" stroke="#A6A6A6" stroke-width="4.58333" stroke-miterlimit="8" fill="#F2F2F2"/><text fill="#7F7F7F" font-family="Microsoft YaHei,Microsoft YaHei_MSFontService,sans-serif" font-weight="400" font-size="50" transform="matrix(1 0 0 1 3532.76 2057)">检测<tspan font-size="50" x="100.834" y="0">到</tspan><tspan font-size="50" x="151.25" y="0">sessionid</tspan><tspan font-size="50" x="371.823" y="0">为</tspan><tspan font-size="50" x="422.24" y="0">1234</tspan><tspan font-size="50" x="541.406" y="0">在</tspan><tspan font-size="50" x="0" y="61">session</tspan><tspan font-size="50" x="175.313" y="61">区中</tspan><tspan font-size="50" x="276.146" y="61">找到</tspan><tspan font-size="50" x="376.979" y="61">1234</tspan><tspan font-size="50" x="496.146" y="61">对应</tspan><tspan font-size="50" x="0" y="121">的</tspan><tspan font-size="50" x="50.4168" y="121">session</tspan><tspan font-size="50" x="225.729" y="121">，进而判断用户</tspan><tspan font-size="50" x="0" y="182">为</tspan><tspan font-size="50" x="50.4168" y="182">admin</tspan></text></g></svg>