<svg width="3282" height="1112" xmlns="http://www.w3.org/2000/svg" xmlns:xlink="http://www.w3.org/1999/xlink" overflow="hidden"><defs><clipPath id="clip0"><rect x="288" y="695" width="3282" height="1112"/></clipPath><clipPath id="clip1"><rect x="291" y="306" width="251" height="925"/></clipPath></defs><g clip-path="url(#clip0)" transform="translate(-288 -695)"><path d="M291.923 893.734 541.539 893.734 541.539 1040 291.923 1040Z" fill="#F2F2F2" fill-rule="evenodd"/><path d="M541.539 893.734 1296.73 893.734 1296.73 1040 541.539 1040Z" fill="#F2F2F2" fill-rule="evenodd"/><path d="M1296.73 893.734 2051.92 893.734 2051.92 1040 1296.73 1040Z" fill="#F2F2F2" fill-rule="evenodd"/><path d="M2051.92 893.734 2807.12 893.734 2807.12 1040 2051.92 1040Z" fill="#F2F2F2" fill-rule="evenodd"/><path d="M2807.12 893.734 3562.31 893.734 3562.31 1040 2807.12 1040Z" fill="#F2F2F2" fill-rule="evenodd"/><path d="M291.923 1186.26 541.539 1186.26 541.539 1332.53 291.923 1332.53Z" fill="#F2F2F2" fill-rule="evenodd"/><path d="M541.539 1186.26 1296.73 1186.26 1296.73 1332.53 541.539 1332.53Z" fill="#F2F2F2" fill-rule="evenodd"/><path d="M1296.73 1186.26 2051.92 1186.26 2051.92 1332.53 1296.73 1332.53Z" fill="#F2F2F2" fill-rule="evenodd"/><path d="M2051.92 1186.26 2807.12 1186.26 2807.12 1332.53 2051.92 1332.53Z" fill="#F2F2F2" fill-rule="evenodd"/><path d="M2807.12 1186.26 3562.31 1186.26 3562.31 1332.53 2807.12 1332.53Z" fill="#F2F2F2" fill-rule="evenodd"/><path d="M291.923 1478.79 541.539 1478.79 541.539 1627.33 291.923 1627.33Z" fill="#F2F2F2" fill-rule="evenodd"/><path d="M541.539 1478.79 1296.73 1478.79 1296.73 1627.33 541.539 1627.33Z" fill="#F2F2F2" fill-rule="evenodd"/><path d="M1296.73 1478.79 2051.92 1478.79 2051.92 1627.33 1296.73 1627.33Z" fill="#F2F2F2" fill-rule="evenodd"/><path d="M2051.92 1478.79 2807.12 1478.79 2807.12 1627.33 2051.92 1627.33Z" fill="#F2F2F2" fill-rule="evenodd"/><path d="M2807.12 1478.79 3562.31 1478.79 3562.31 1627.33 2807.12 1627.33Z" fill="#F2F2F2" fill-rule="evenodd"/><path d="M288.486 893.734 3565.74 893.734" stroke="#BFBFBF" stroke-width="6.875" stroke-linejoin="round" stroke-miterlimit="10" fill="none" fill-rule="evenodd"/><path d="M288.486 1040 3565.74 1040" stroke="#BFBFBF" stroke-width="6.875" stroke-linejoin="round" stroke-miterlimit="10" fill="none" fill-rule="evenodd"/><path d="M288.486 1186.26 3565.74 1186.26" stroke="#BFBFBF" stroke-width="6.875" stroke-linejoin="round" stroke-miterlimit="10" fill="none" fill-rule="evenodd"/><path d="M288.486 1332.53 3565.74 1332.53" stroke="#BFBFBF" stroke-width="6.875" stroke-linejoin="round" stroke-miterlimit="10" fill="none" fill-rule="evenodd"/><path d="M288.486 1478.79 3565.74 1478.79" stroke="#BFBFBF" stroke-width="6.875" stroke-linejoin="round" stroke-miterlimit="10" fill="none" fill-rule="evenodd"/><path d="M288.486 1627.33 3565.74 1627.33" stroke="#BFBFBF" stroke-width="6.875" stroke-linejoin="round" stroke-miterlimit="10" fill="none" fill-rule="evenodd"/><path d="M291.923 695.682 291.923 1779.32" stroke="#BFBFBF" stroke-width="6.875" stroke-linejoin="round" stroke-miterlimit="10" fill="none" fill-rule="evenodd"/><path d="M3562.31 695.682 3562.31 1779.32" stroke="#BFBFBF" stroke-width="6.875" stroke-linejoin="round" stroke-miterlimit="10" fill="none" fill-rule="evenodd"/><path d="M288.486 699.119 3565.74 699.119" stroke="#BFBFBF" stroke-width="6.875" stroke-linejoin="round" stroke-miterlimit="10" fill="none" fill-rule="evenodd"/><path d="M288.486 1775.88 3565.74 1775.88" stroke="#BFBFBF" stroke-width="6.875" stroke-linejoin="round" stroke-miterlimit="10" fill="none" fill-rule="evenodd"/><g clip-path="url(#clip1)"><text font-family="Microsoft YaHei,Microsoft YaHei_MSFontService,sans-serif" font-weight="700" font-size="73" transform="matrix(1 0 0 1 332.512 825)">参数</text></g><text font-family="Microsoft YaHei,Microsoft YaHei_MSFontService,sans-serif" font-weight="700" font-size="73" transform="matrix(1 0 0 1 662.468 825)">克拉索索夫斯<tspan font-size="73" x="440" y="0">基</tspan><tspan font-size="73" x="738.005" y="0">1975</tspan><tspan font-size="73" x="919.046" y="0">年国际椭球</tspan><tspan font-size="73" x="1632.13" y="0">WGS84</tspan><tspan font-size="73" x="2333.49" y="0">CGCS2000</tspan><tspan font-family="Times New Roman,Times New Roman_MSFontService,sans-serif" font-style="italic" font-weight="400" font-size="73" x="-264.07" y="181">a</tspan><tspan font-family="Times New Roman,Times New Roman_MSFontService,sans-serif" font-weight="400" font-size="73" x="128.333" y="181">6378245</tspan><tspan font-family="Times New Roman,Times New Roman_MSFontService,sans-serif" font-weight="400" font-size="73" x="883.526" y="181">6378140</tspan><tspan font-family="Times New Roman,Times New Roman_MSFontService,sans-serif" font-weight="400" font-size="73" x="1638.72" y="181">6378137</tspan><tspan font-family="Times New Roman,Times New Roman_MSFontService,sans-serif" font-weight="400" font-size="73" x="2393.91" y="181">6378137</tspan><tspan font-family="Times New Roman,Times New Roman_MSFontService,sans-serif" font-style="italic" font-weight="400" font-size="73" x="-264.07" y="327">b</tspan><tspan font-family="Times New Roman,Times New Roman_MSFontService,sans-serif" font-weight="400" font-size="73" x="-64.1667" y="327">6356863.0187730473</tspan><tspan font-family="Times New Roman,Times New Roman_MSFontService,sans-serif" font-weight="400" font-size="73" x="691.026" y="327">6356755.2881575287</tspan><tspan font-family="Times New Roman,Times New Roman_MSFontService,sans-serif" font-weight="400" font-size="73" x="1556.22" y="327">6356752.3142</tspan><tspan font-family="Times New Roman,Times New Roman_MSFontService,sans-serif" font-weight="400" font-size="73" x="2311.41" y="327">6356752.3141</tspan><tspan font-family="Times New Roman,Times New Roman_MSFontService,sans-serif" font-style="italic" font-weight="400" font-size="73" x="-262.065" y="474">c</tspan><tspan font-family="Times New Roman,Times New Roman_MSFontService,sans-serif" font-weight="400" font-size="73" x="-62.803" y="474">6399698.9017827110</tspan><tspan font-family="Times New Roman,Times New Roman_MSFontService,sans-serif" font-weight="400" font-size="73" x="691.026" y="474">6399596.6519880105</tspan><tspan font-family="Times New Roman,Times New Roman_MSFontService,sans-serif" font-weight="400" font-size="73" x="1556.22" y="474">6399593.6258</tspan><tspan font-family="Times New Roman,Times New Roman_MSFontService,sans-serif" font-weight="400" font-size="73" x="2311.41" y="474">6399593.6359</tspan></text><path d="M406.744 1418.14C404.558 1418.14 402.526 1419.12 400.649 1421.07 398.772 1423.01 397.269 1425.65 396.14 1428.98 395.011 1432.31 394.447 1435.72 394.447 1439.21 394.447 1441.61 394.803 1443.39 395.516 1444.56 396.229 1445.72 397.299 1446.3 398.724 1446.3 400.768 1446.3 402.871 1445.1 405.033 1442.7 407.196 1440.3 409.204 1436.96 411.057 1432.69 411.461 1430.21 411.663 1428.03 411.663 1426.13 411.663 1423.42 411.265 1421.41 410.469 1420.1 409.673 1418.8 408.432 1418.14 406.744 1418.14ZM406.994 1415.33C409.655 1415.33 411.741 1416.16 413.25 1417.82 414.758 1419.49 415.596 1421.92 415.762 1425.13L416.083 1425.09 420.753 1415.9 426.919 1415.9 426.563 1417.71C423.616 1421.71 420.147 1426.61 416.155 1432.44 415.56 1436.97 415.263 1440.18 415.263 1442.06 415.263 1443.63 415.442 1444.75 415.798 1445.43 416.155 1446.11 416.749 1446.44 417.58 1446.44 418.246 1446.44 419 1446.17 419.844 1445.61 420.687 1445.05 421.596 1444.19 422.571 1443.02L424.638 1444.95C422.642 1447.09 420.907 1448.55 419.434 1449.35 417.961 1450.15 416.44 1450.54 414.871 1450.54 411.711 1450.54 410.131 1448.24 410.131 1443.63 410.131 1442.61 410.202 1441.48 410.345 1440.24L409.988 1440.24C407.54 1443.9 405.224 1446.53 403.037 1448.14 400.851 1449.74 398.511 1450.54 396.015 1450.54 394.281 1450.54 392.819 1450.04 391.631 1449.05 390.443 1448.05 389.564 1446.72 388.993 1445.07 388.423 1443.42 388.138 1441.62 388.138 1439.67 388.138 1435.42 388.946 1431.38 390.562 1427.57 392.178 1423.76 394.423 1420.76 397.299 1418.59 400.174 1416.41 403.406 1415.33 406.994 1415.33Z" fill-rule="evenodd"/><text fill="#000000" fill-opacity="0" font-family="Arial,Arial_MSFontService,sans-serif" font-size="35.2168" x="388.138" y="1446.14">𝛼</text><text font-family="Times New Roman,Times New Roman_MSFontService,sans-serif" font-weight="400" font-size="73" transform="matrix(1 0 0 1 807.989 1445)">1/298.3<tspan font-size="73" x="718.526" y="0">1/298.257</tspan><tspan font-size="73" x="1363.72" y="0">1/298.257223563</tspan><tspan font-size="73" x="2118.91" y="0">1/298.257222101</tspan></text><path d="M392.763 1576.38C390.363 1576.38 388.052 1577.59 385.83 1580.01 383.608 1582.44 381.903 1585.72 380.715 1589.85 384.066 1589.83 386.941 1589.53 389.341 1588.94 391.741 1588.36 393.583 1587.43 394.866 1586.16 396.149 1584.89 396.791 1583.17 396.791 1581.01 396.791 1579.56 396.452 1578.43 395.775 1577.61 395.098 1576.79 394.094 1576.38 392.763 1576.38ZM394.046 1573.56C396.921 1573.56 399.078 1574.14 400.516 1575.31 401.953 1576.47 402.672 1578.29 402.672 1580.76 402.672 1584.8 400.777 1587.83 396.987 1589.85 393.197 1591.87 387.571 1592.88 380.109 1592.88 379.824 1594.31 379.681 1595.85 379.681 1597.52 379.681 1600.01 380.168 1601.82 381.143 1602.95 382.117 1604.08 383.709 1604.64 385.919 1604.64 388.105 1604.64 390.084 1604.17 391.854 1603.22 393.624 1602.27 395.496 1600.81 397.468 1598.83L399.678 1601.15C397.373 1603.69 395.038 1605.61 392.674 1606.89 390.309 1608.17 387.559 1608.82 384.422 1608.82 380.976 1608.82 378.309 1607.76 376.42 1605.66 374.531 1603.56 373.586 1600.63 373.586 1596.87 373.586 1594.33 374.044 1591.6 374.958 1588.69 375.873 1585.78 377.257 1583.17 379.111 1580.85 380.965 1578.54 383.186 1576.74 385.777 1575.47 388.367 1574.2 391.123 1573.56 394.046 1573.56Z" fill-rule="evenodd"/><text fill="#000000" fill-opacity="0" font-family="Arial,Arial_MSFontService,sans-serif" font-size="35.2524" x="373.586" y="1604.41">𝑒</text><path d="M426.383 1544.53C428.177 1544.53 429.708 1544.73 430.976 1545.14 432.244 1545.54 433.275 1546.09 434.069 1546.78 434.862 1547.47 435.436 1548.3 435.79 1549.26 436.143 1550.23 436.32 1551.27 436.32 1552.39 436.32 1553.07 436.273 1553.69 436.178 1554.27 436.083 1554.85 435.919 1555.42 435.686 1555.98 435.453 1556.54 435.147 1557.1 434.767 1557.67 434.388 1558.24 433.913 1558.85 433.344 1559.49 432.913 1560.04 432.352 1560.68 431.662 1561.4 430.972 1562.13 430.217 1562.9 429.398 1563.73 428.578 1564.56 427.72 1565.42 426.823 1566.32 425.926 1567.21 425.054 1568.1 424.209 1568.98 423.363 1569.86 422.587 1570.72 421.88 1571.55 421.172 1572.37 420.594 1573.13 420.146 1573.82L429.721 1573.82C430.532 1573.82 431.179 1573.79 431.662 1573.73 432.145 1573.67 432.546 1573.54 432.865 1573.33 433.185 1573.12 433.456 1572.81 433.681 1572.39 433.905 1571.96 434.164 1571.38 434.457 1570.64L436.864 1570.64C436.777 1571.86 436.695 1573.1 436.618 1574.34 436.54 1575.58 436.458 1576.82 436.372 1578.04L414.453 1578.04 414.453 1576.69C414.867 1575.76 415.35 1574.84 415.902 1573.94 416.454 1573.03 417.075 1572.11 417.765 1571.18 418.455 1570.25 419.24 1569.29 420.12 1568.3 421 1567.31 421.975 1566.27 423.044 1565.2 424.666 1563.58 425.986 1562.2 427.004 1561.05 428.022 1559.9 428.824 1558.88 429.411 1557.98 429.997 1557.09 430.398 1556.26 430.614 1555.5 430.83 1554.74 430.937 1553.93 430.937 1553.07 430.937 1552.19 430.812 1551.38 430.562 1550.63 430.312 1549.89 429.954 1549.26 429.488 1548.75 429.022 1548.23 428.431 1547.82 427.715 1547.53 426.999 1547.24 426.176 1547.09 425.244 1547.09 423.64 1547.09 422.294 1547.53 421.207 1548.4 420.12 1549.27 419.275 1550.53 418.671 1552.19L415.281 1552.19 415.281 1547.14C417.489 1546.23 419.52 1545.56 421.375 1545.15 423.23 1544.73 424.899 1544.53 426.383 1544.53Z" fill-rule="evenodd"/><text fill="#000000" fill-opacity="0" font-family="Arial,Arial_MSFontService,sans-serif" font-size="33.5132" x="414.453" y="1573.85">2</text><text font-family="Times New Roman,Times New Roman_MSFontService,sans-serif" font-weight="400" font-size="73" transform="matrix(1 0 0 1 616.634 1591)">0.006693421622966<tspan font-size="73" x="755.192" y="0">0.006694384999588</tspan><tspan font-size="73" x="1528.72" y="0">0.00669437999013</tspan><tspan font-size="73" x="2283.91" y="0">0.00669438002290</tspan></text><path d="M385.521 1724.92C383.121 1724.92 380.81 1726.14 378.588 1728.56 376.366 1730.98 374.661 1734.26 373.473 1738.4 376.824 1738.37 379.699 1738.07 382.099 1737.49 384.499 1736.91 386.341 1735.98 387.624 1734.71 388.907 1733.44 389.549 1731.72 389.549 1729.56 389.549 1728.11 389.21 1726.97 388.533 1726.15 387.856 1725.33 386.852 1724.92 385.521 1724.92ZM386.804 1722.11C389.68 1722.11 391.836 1722.69 393.274 1723.86 394.712 1725.02 395.43 1726.84 395.43 1729.31 395.43 1733.35 393.535 1736.38 389.745 1738.4 385.955 1740.42 380.329 1741.43 372.867 1741.43 372.582 1742.85 372.44 1744.4 372.44 1746.06 372.44 1748.56 372.927 1750.37 373.901 1751.5 374.875 1752.63 376.467 1753.19 378.677 1753.19 380.864 1753.19 382.842 1752.72 384.612 1751.76 386.383 1750.81 388.254 1749.35 390.226 1747.38L392.436 1749.7C390.131 1752.24 387.796 1754.15 385.432 1755.44 383.068 1756.72 380.317 1757.36 377.18 1757.36 373.735 1757.36 371.067 1756.31 369.178 1754.21 367.289 1752.1 366.344 1749.17 366.344 1745.42 366.344 1742.88 366.802 1740.15 367.717 1737.24 368.632 1734.33 370.016 1731.71 371.869 1729.4 373.723 1727.08 375.945 1725.29 378.535 1724.02 381.125 1722.74 383.882 1722.11 386.804 1722.11Z" fill-rule="evenodd"/><text fill="#000000" fill-opacity="0" font-family="Arial,Arial_MSFontService,sans-serif" font-size="35.2524" x="366.344" y="1752.95">𝑒</text><path d="M408.073 1700.9 414.738 1700.9 414.738 1702.93 406.148 1723.61 403.118 1722.71Z" fill-rule="evenodd"/><text fill="#000000" fill-opacity="0" font-family="Arial,Arial_MSFontService,sans-serif" font-size="22.7056" x="403.118" y="1720.77">′</text><path d="M433.624 1693.07C435.419 1693.07 436.95 1693.28 438.218 1693.68 439.486 1694.09 440.517 1694.63 441.31 1695.32 442.104 1696.01 442.678 1696.84 443.031 1697.81 443.385 1698.78 443.562 1699.82 443.562 1700.94 443.562 1701.61 443.514 1702.24 443.42 1702.82 443.325 1703.39 443.161 1703.96 442.928 1704.52 442.695 1705.09 442.389 1705.65 442.009 1706.22 441.63 1706.79 441.155 1707.39 440.586 1708.03 440.154 1708.58 439.594 1709.22 438.904 1709.95 438.214 1710.67 437.459 1711.45 436.639 1712.28 435.82 1713.1 434.961 1713.97 434.064 1714.86 433.167 1715.76 432.296 1716.65 431.451 1717.53 430.605 1718.41 429.829 1719.26 429.121 1720.09 428.414 1720.92 427.836 1721.68 427.388 1722.37L436.963 1722.37C437.774 1722.37 438.421 1722.34 438.904 1722.28 439.387 1722.22 439.788 1722.08 440.107 1721.88 440.426 1721.67 440.698 1721.35 440.922 1720.93 441.146 1720.51 441.405 1719.93 441.699 1719.19L444.105 1719.19C444.019 1720.41 443.937 1721.64 443.859 1722.89 443.782 1724.13 443.7 1725.36 443.614 1726.59L421.694 1726.59 421.694 1725.24C422.108 1724.31 422.591 1723.39 423.143 1722.48 423.695 1721.58 424.317 1720.66 425.007 1719.73 425.697 1718.8 426.482 1717.84 427.362 1716.84 428.242 1715.85 429.216 1714.82 430.286 1713.75 431.908 1712.13 433.228 1710.74 434.245 1709.6 435.263 1708.45 436.066 1707.43 436.652 1706.53 437.239 1705.63 437.64 1704.81 437.856 1704.05 438.071 1703.29 438.179 1702.48 438.179 1701.61 438.179 1700.73 438.054 1699.92 437.804 1699.18 437.554 1698.44 437.196 1697.81 436.73 1697.29 436.264 1696.77 435.673 1696.37 434.957 1696.08 434.241 1695.78 433.417 1695.64 432.486 1695.64 430.881 1695.64 429.535 1696.07 428.449 1696.94 427.362 1697.81 426.516 1699.08 425.912 1700.73L422.522 1700.73 422.522 1695.69C424.731 1694.77 426.762 1694.11 428.617 1693.69 430.471 1693.28 432.141 1693.07 433.624 1693.07Z" fill-rule="evenodd"/><text fill="#000000" fill-opacity="0" font-family="Arial,Arial_MSFontService,sans-serif" font-size="33.5132" x="421.694" y="1722.4">2</text><text font-family="Times New Roman,Times New Roman_MSFontService,sans-serif" font-weight="400" font-size="73" transform="matrix(1 0 0 1 616.634 1740)">0.006738525414683<tspan font-size="73" x="755.192" y="0">0.006739501819473</tspan><tspan font-size="73" x="1528.72" y="0">0.00673949674227</tspan><tspan font-size="73" x="2283.91" y="0">0.00673949677548</tspan></text></g></svg>