<svg width="1954" height="1034" xmlns="http://www.w3.org/2000/svg" xmlns:xlink="http://www.w3.org/1999/xlink" overflow="hidden"><defs><clipPath id="clip0"><rect x="250" y="696" width="1954" height="1034"/></clipPath></defs><g clip-path="url(#clip0)" transform="translate(-250 -696)"><rect x="253.5" y="1392.5" width="293" height="153" stroke="#1A1D20" stroke-width="6.875" stroke-miterlimit="8" fill="#0F6FC6"/><text fill="#FFFFFF" font-family="Microsoft YaHei,Microsoft YaHei_MSFontService,sans-serif" font-weight="400" font-size="64" transform="matrix(1 0 0 1 303.117 1492)">客户端</text><rect x="253.5" y="705.5" width="688" height="358" stroke="#002060" stroke-width="6.875" stroke-miterlimit="8" fill="#EF546E"/><text fill="#FFFFFF" font-family="Calibri,Calibri_MSFontService,sans-serif" font-weight="700" font-size="165" transform="matrix(1 0 0 1 395.516 900)">Token<tspan font-family="Microsoft YaHei,Microsoft YaHei_MSFontService,sans-serif" font-weight="400" font-size="64" x="-55.2292" y="106">身份</tspan><tspan font-family="Microsoft YaHei,Microsoft YaHei_MSFontService,sans-serif" font-weight="400" font-size="64" x="73.1042" y="106">认证临时令牌</tspan><tspan fill="#000000" font-family="Microsoft YaHei,Microsoft YaHei_MSFontService,sans-serif" font-size="64" x="629.726" y="-59">特性</tspan><tspan fill="#7F7F7F" font-family="Microsoft YaHei,Microsoft YaHei_MSFontService,sans-serif" font-weight="400" font-size="50" x="629.726" y="4">无状态、可扩展</tspan><tspan fill="#7F7F7F" font-family="Microsoft YaHei,Microsoft YaHei_MSFontService,sans-serif" font-weight="400" font-size="50" x="629.726" y="65">跨</tspan><tspan fill="#7F7F7F" font-family="Microsoft YaHei,Microsoft YaHei_MSFontService,sans-serif" font-weight="400" font-size="50" x="680.143" y="65">程序、跨域调用</tspan><tspan fill="#7F7F7F" font-family="Microsoft YaHei,Microsoft YaHei_MSFontService,sans-serif" font-weight="400" font-size="50" x="629.726" y="125">且具备安全性</tspan></text><rect x="1559.5" y="1367.5" width="216" height="200" stroke="#1A1D20" stroke-width="6.875" stroke-miterlimit="8" fill="#FFBAAE"/><text font-family="Microsoft YaHei,Microsoft YaHei_MSFontService,sans-serif" font-weight="400" font-size="64" transform="matrix(1 0 0 1 1603.03 1452)">认证<tspan font-size="64" x="0" y="77">服务</tspan></text><rect x="1055.5" y="1211.5" width="412" height="152" stroke="#1A1D20" stroke-width="6.875" stroke-miterlimit="8" fill="#FFBAAE"/><text font-family="Microsoft YaHei,Microsoft YaHei_MSFontService,sans-serif" font-weight="400" font-size="64" transform="matrix(1 0 0 1 1132.6 1311)">用户服务</text><rect x="1053.5" y="1392.5" width="412" height="153" stroke="#1A1D20" stroke-width="6.875" stroke-miterlimit="8" fill="#FFBAAE"/><text font-family="Microsoft YaHei,Microsoft YaHei_MSFontService,sans-serif" font-weight="400" font-size="64" transform="matrix(1 0 0 1 1130.31 1492)">短<tspan font-size="64" x="64.1668" y="0">信服务</tspan></text><rect x="1053.5" y="1574.5" width="412" height="152" stroke="#1A1D20" stroke-width="6.875" stroke-miterlimit="8" fill="#FFBAAE"/><text font-family="Microsoft YaHei,Microsoft YaHei_MSFontService,sans-serif" font-weight="400" font-size="64" transform="matrix(1 0 0 1 1130.31 1673)">邮件服务</text><path d="M397.854 1391.94 397.854 1244.85 1015.48 1244.85 1015.48 1247.15 399 1247.15 400.146 1246 400.146 1391.94ZM1010.89 1232.25 1056.73 1246 1010.89 1259.75Z"/><path d="M546 1467.85 800.579 1467.85 800.579 1469 799.433 1467.85 1011.62 1467.85 1011.62 1470.15 798.287 1470.15 798.287 1469 799.433 1470.15 546 1470.15ZM1007.03 1455.25 1052.87 1469 1007.03 1482.75Z"/><path d="M0-1.14583 106.234-1.14583 106.234 611.892 103.943 611.892 103.943 0 105.089 1.14583 0 1.14583ZM118.839 607.309 105.089 653.142 91.3386 607.309Z" transform="matrix(1.83697e-16 1 1 -1.83697e-16 399 1545)"/><rect x="1848.5" y="1392.5" width="352" height="153" stroke="#1A1D20" stroke-width="6.875" stroke-miterlimit="8" fill="#EF546E"/><text fill="#FFFFFF" font-family="Microsoft YaHei,Microsoft YaHei_MSFontService,sans-serif" font-weight="400" font-size="64" transform="matrix(1 0 0 1 1895.46 1492)">微服务<tspan font-size="64" x="192.5" y="0">端</tspan></text><path d="M0-1.14583 610.983-1.14583 611.188 41.461 608.896 41.472 608.696 0.00552841 609.842 1.14583 0 1.14583ZM623.579 36.2874 611.843 82.6772 596.105 37.4877Z" transform="matrix(-1 1.22465e-16 1.22465e-16 1 1052.84 1306)"/><rect x="615" y="1209" width="263" height="58.0001" fill="#FFFFFF"/><text font-family="Microsoft YaHei,Microsoft YaHei_MSFontService,sans-serif" font-weight="400" font-size="48" transform="matrix(1 0 0 1 632.864 1255)">①<tspan font-size="41" x="62.4479" y="0">用户登录</tspan></text><rect x="621" y="1274" width="288" height="58.0001" fill="#FFFFFF"/><text font-family="Microsoft YaHei,Microsoft YaHei_MSFontService,sans-serif" font-weight="400" font-size="48" transform="matrix(1 0 0 1 630.254 1320)">②<tspan font-size="41" x="62.4479" y="0">返回</tspan><tspan font-size="41" x="156.979" y="0">toke</tspan><tspan font-size="41" x="244.635" y="0">n</tspan></text><rect x="621" y="1438" width="288" height="58.0001" fill="#FFFFFF"/><text font-family="Microsoft YaHei,Microsoft YaHei_MSFontService,sans-serif" font-weight="400" font-size="48" transform="matrix(1 0 0 1 630.254 1484)">③<tspan font-size="41" x="62.4479" y="0">携带</tspan><tspan font-size="41" x="156.979" y="0">toke</tspan><tspan font-size="41" x="244.635" y="0">n</tspan></text><rect x="623" y="1613" width="289" height="58.0001" fill="#FFFFFF"/><text font-family="Microsoft YaHei,Microsoft YaHei_MSFontService,sans-serif" font-weight="400" font-size="48" transform="matrix(1 0 0 1 632.423 1659)">④<tspan font-size="41" x="62.4479" y="0">携带</tspan><tspan font-size="41" x="156.979" y="0">toke</tspan><tspan font-size="41" x="244.635" y="0">n</tspan></text><path d="M1467 1287 1667.12 1287 1667.12 1366.69" stroke="#000000" stroke-width="2.29167" stroke-miterlimit="8" fill="none" fill-rule="evenodd"/><path d="M1667.41 1567 1667.41 1650.17 1465 1650.17" stroke="#000000" stroke-width="2.29167" stroke-miterlimit="8" fill="none" fill-rule="evenodd"/><path d="M0 0 94.5946 1.74094" stroke="#000000" stroke-width="2.29167" stroke-miterlimit="8" fill="none" fill-rule="evenodd" transform="matrix(1 0 0 -1 1465 1468.74)"/></g></svg>